<svg id="Capa_1" enable-background="new 0 0 512 512" height="512" viewBox="0 0 512 512" width="512" xmlns="http://www.w3.org/2000/svg"><g><g><path d="m463.812 115.057 14.711 58.109c2.627 10.375 3.22 21.16 1.748 31.761l-1.983 14.28c-2.755 19.835 1.76 39.996 12.712 56.761 8.809 13.486 13.5 29.245 13.5 45.353v42.585l-107.697 32.003-116.022-32.003 8.24-62.278c1.689-12.769 6.33-24.969 13.554-35.633l15.099-22.289c6.303-9.304 10.649-19.792 12.774-30.827l18.84-97.821 60.938-41.918z" fill="#b2b0bc"/><path d="m48.188 115.057-14.711 58.109c-2.627 10.375-3.22 21.16-1.748 31.761l1.983 14.28c2.755 19.835-1.76 39.996-12.712 56.761-8.809 13.486-13.5 29.245-13.5 45.353v42.585l107.697 32.003 116.022-32.003-8.24-62.278c-1.689-12.769-6.33-24.969-13.554-35.633l-15.099-22.289c-6.303-9.304-10.649-19.792-12.774-30.827l-18.84-97.821-52.337-41.918z" fill="#b2b0bc"/><path d="m471.407 145.057-7.594-30-53.588-41.918-60.938 41.918-5.778 30z" fill="#a19dae"/><path d="m168.491 145.057-5.778-30-52.336-41.918-62.189 41.918-7.595 30z" fill="#a19dae"/><path d="m256 49.915c0-14.398-11.672-26.07-26.07-26.07h-196.36c-14.398 0-26.07 11.672-26.07 26.07v39.072c0 14.398 11.672 26.07 26.07 26.07h196.36c14.398 0 26.07-11.672 26.07-26.07l18.795-19.536z" fill="#c7c5cb"/><path d="m478.43 23.845h-196.36c-14.398 0-26.07 11.672-26.07 26.07v39.072c0 14.398 11.672 26.07 26.07 26.07h196.36c14.398 0 26.07-11.672 26.07-26.07v-39.072c0-14.398-11.672-26.07-26.07-26.07z" fill="#c7c5cb"/><path d="m7.5 363.905h497v124.25h-497z" fill="#80dfb5"/><g fill="#ff889e"><ellipse cx="170.369" cy="443.018" rx="31.596" ry="25.162"/><ellipse cx="341.632" cy="443.018" rx="31.596" ry="25.162"/></g><g><path d="m55.989 54.061c0-10.561 1.718-20.719 4.883-30.215h-27.302c-14.398 0-26.07 11.672-26.07 26.07v39.072c0 14.398 11.672 26.07 26.07 26.07h44.438c-13.749-16.546-22.019-37.805-22.019-60.997z" fill="#b2b0bc"/></g><g><path d="m304.489 54.061c0-10.561 1.718-20.719 4.883-30.215h-27.302c-14.398 0-26.07 11.672-26.07 26.07v39.072c0 14.398 11.672 26.07 26.07 26.07h44.438c-13.749-16.546-22.019-37.805-22.019-60.997z" fill="#b2b0bc"/></g><g><path d="m52.989 379.075c0-5.126.283-10.187.819-15.17h-46.308v124.25h97.584c-31.774-25.714-52.095-65.02-52.095-109.08z" fill="#36d39a"/></g></g><g><path d="m7.5 495.655h497c4.142 0 7.5-3.358 7.5-7.5 0-22.156 0-151.292 0-166.835 0-17.609-5.09-34.71-14.721-49.454-9.962-15.25-14.068-33.585-11.563-51.627l1.983-14.28c1.613-11.613.972-23.266-1.906-34.633l-12.347-48.769h4.983c18.51 0 33.569-15.059 33.569-33.569v-39.073c0-18.51-15.059-33.57-33.569-33.57h-53.513c-4.142 0-7.5 3.358-7.5 7.5s3.358 7.5 7.5 7.5h53.513c10.239 0 18.569 8.331 18.569 18.57v39.072c0 10.239-8.33 18.569-18.569 18.569h-196.359c-10.24 0-18.57-8.33-18.57-18.569v-39.072c0-10.239 8.33-18.57 18.57-18.57h112.848c4.142 0 7.5-3.358 7.5-7.5s-3.358-7.5-7.5-7.5h-112.848c-10.514 0-19.91 4.862-26.07 12.452-6.16-7.59-15.556-12.452-26.069-12.452h-196.361c-18.51 0-33.57 15.06-33.57 33.57v39.072c0 18.51 15.06 33.569 33.57 33.569h4.982l-12.347 48.769c-2.877 11.367-3.519 23.019-1.905 34.634l1.983 14.28c2.506 18.042-1.601 36.377-11.563 51.627-9.629 14.743-14.72 31.844-14.72 49.454v166.835c0 4.142 3.358 7.5 7.5 7.5zm489.5-15h-482v-109.25h482zm-12.279-200.586c8.034 12.298 12.28 26.563 12.28 41.251v35.085h-80.816l4.789-17.262c2.512-9.055 7.227-17.475 13.633-24.35 10.06-10.797 16.594-24.208 18.895-38.784.646-4.091-2.147-7.932-6.239-8.578-4.084-.646-7.932 2.147-8.578 6.238-1.833 11.612-7.039 22.296-15.053 30.897-8.042 8.63-13.959 19.199-17.113 30.565l-5.902 21.272h-111.279l7.118-53.794c1.529-11.554 5.792-22.761 12.328-32.41l15.099-22.289c6.912-10.204 11.598-21.513 13.929-33.615l17.668-91.74h70.007l-7.332 41.051c-2.167 12.138-8.47 23.295-17.745 31.418-9.322 8.164-16.306 18.697-20.197 30.462l-9.141 27.64c-1.301 3.933.833 8.175 4.766 9.476 3.956 1.307 8.182-.856 9.476-4.766l9.141-27.64c3.051-9.226 8.528-17.486 15.838-23.888 11.828-10.358 19.864-24.587 22.629-40.065l7.803-43.688h17.249l13.279 52.45c2.4 9.482 2.935 19.202 1.589 28.889l-1.983 14.28c-3.004 21.631 1.919 43.612 13.862 61.895zm-202.651-157.513h58.135l-17.122 88.903c-1.944 10.094-5.853 19.528-11.619 28.039l-15.099 22.289c-7.836 11.568-12.947 25.004-14.78 38.855l-7.378 55.762h-36.415l-7.377-55.762c-1.833-13.852-6.944-27.288-14.78-38.855l-15.099-22.29c-5.765-8.511-9.675-17.944-11.619-28.039l-17.122-88.903h58.135c10.514 0 19.91-4.862 26.069-12.451 6.161 7.591 15.557 12.452 26.071 12.452zm-254.79 157.513c11.943-18.283 16.866-40.264 13.862-61.894l-1.983-14.28c-1.346-9.688-.811-19.408 1.589-28.889l13.279-52.45h29.667c4.148 0 7.5-3.362 7.5-7.5 0-4.148-3.362-7.5-7.5-7.5-11.103 0-39.022 0-50.123 0-10.24 0-18.57-8.33-18.57-18.569v-39.072c0-10.239 8.331-18.57 18.57-18.57h196.361c10.239 0 18.569 8.331 18.569 18.57v39.072c0 10.239-8.33 18.569-18.569 18.569-26.107 0-93.14 0-116.238 0-4.149 0-7.5 3.365-7.5 7.5s3.351 7.5 7.5 7.5h42.827l17.668 91.74c2.331 12.102 7.018 23.412 13.929 33.614l15.099 22.29c6.536 9.648 10.8 20.856 12.328 32.41l7.117 53.794h-138.383l2.192-11.246c3.326-17.063 13.548-32.352 28.045-41.946.02-.013.038-.027.058-.04.003-.002.007-.003.01-.006.006-.004.011-.009.017-.013 11.563-7.673 20.985-18.271 27.248-30.656l14.497-28.666c1.869-3.696.388-8.208-3.308-10.077s-8.208-.389-10.077 3.308l-14.497 28.665c-3.985 7.88-9.547 14.865-16.281 20.522l-7.436-10.976c-10.202-15.058-17.027-31.765-20.287-49.659l-4.265-23.413c-.742-4.075-4.647-6.777-8.723-6.035-4.075.743-6.777 4.648-6.035 8.723l4.265 23.413c3.636 19.957 11.248 38.591 22.626 55.384l7.798 11.509c-14.574 11.804-24.772 28.596-28.377 47.091l-2.751 14.115h-53.998v-35.081c0-14.689 4.246-28.953 12.28-41.251z"/><path d="m188.783 398.38c-4.142 0-7.5 3.358-7.5 7.5v12.916c0 4.142 3.358 7.5 7.5 7.5s7.5-3.358 7.5-7.5v-12.916c0-4.142-3.358-7.5-7.5-7.5z"/><path d="m323.218 398.38c-4.142 0-7.5 3.358-7.5 7.5v12.916c0 4.142 3.358 7.5 7.5 7.5s7.5-3.358 7.5-7.5v-12.916c0-4.142-3.358-7.5-7.5-7.5z"/><path d="m278.65 412.758c-3.123-2.721-7.86-2.396-10.582.727-3.047 3.496-7.445 5.501-12.068 5.501s-9.021-2.005-12.067-5.501c-2.721-3.123-7.459-3.448-10.582-.727s-3.448 7.459-.727 10.582c5.896 6.766 14.416 10.646 23.375 10.646s17.479-3.88 23.376-10.646c2.722-3.123 2.397-7.861-.725-10.582z"/></g></g></svg>