<svg id="Capa_1" enable-background="new 0 0 512 512" height="512" viewBox="0 0 512 512" width="512" xmlns="http://www.w3.org/2000/svg"><g><g><path d="m504.5 197.383c-7.337-2.266-15.131-3.49-23.212-3.49-31.82 0-59.201 18.93-71.549 46.133-9.292-3.87-19.482-6.015-30.176-6.015-43.386 0-78.558 35.171-78.558 78.558v103.348l101.747 20.994 101.748-20.994z" fill="#36d39a"/><path d="m21.385 436.979 47.269-367.766h253.274l47.268 367.766z" fill="#edb798"/><path d="m285.147 406.252c-112.603 0-193.885-141.283-193.885-253.885 0-29.619 6.323-57.759 17.682-83.154h-40.29l-47.269 367.766h347.81l-6.745-52.483c-24.317 13.73-50.486 21.756-77.303 21.756z" fill="#e8a882"/><path d="m348.866 8.098h-25.186c-6.022 0-10.904 4.882-10.904 10.904v15.106c0 6.022-4.882 10.904-10.904 10.904h-25.186c-6.022 0-10.904-4.882-10.904-10.904v-15.106c0-6.022-4.882-10.904-10.904-10.904h-25.186c-6.022 0-10.904 4.882-10.904 10.904v15.106c0 6.022-4.882 10.904-10.904 10.904h-25.186c-6.022 0-10.904-4.882-10.904-10.904v-15.106c0-6.022-4.882-10.904-10.904-10.904h-25.186c-6.022 0-10.904 4.882-10.904 10.904v15.106c0 6.022-4.882 10.904-10.904 10.904h-25.186c-6.022 0-10.904-4.882-10.904-10.904v-15.106c0-6.022-4.882-10.904-10.904-10.904h-25.186c-6.022 0-10.904 4.882-10.904 10.904v42.693c0 21.271 17.244 38.515 38.515 38.515h251.927c21.271 0 38.515-17.244 38.515-38.515v-42.693c.001-6.022-4.881-10.904-10.903-10.904z" fill="#f1c6ad"/><g><g><g><ellipse cx="113.457" cy="192.63" fill="#ffefe0" rx="30.195" ry="24.046"/></g><g><ellipse cx="277.124" cy="192.63" fill="#ffefe0" rx="30.195" ry="24.046"/></g></g></g><path d="m7.5 436.979h376.866c.126-1.657.211-3.325.211-5.015 0-35.917-29.116-65.033-65.033-65.033-10.69 0-20.768 2.596-29.665 7.166-8.621-25.812-32.969-44.426-61.68-44.426-9.831 0-19.146 2.194-27.5 6.099-13.627-18.406-35.493-30.343-60.152-30.343-13.262 0-25.708 3.466-36.509 9.519-12.755-23.017-37.284-38.605-65.462-38.605-11.091 0-21.609 2.433-31.076 6.764v153.874z" fill="#80dfb5"/><path d="m7.5 415.917h497v87.985h-497z" fill="#a7e0f5"/><path d="m86.256 44.725c-4.839-1.115-8.45-5.439-8.45-10.617v-15.106c0-6.022-4.882-10.904-10.904-10.904h-25.186c-6.022 0-10.904 4.882-10.904 10.904v42.693c0 21.271 17.244 38.515 38.515 38.515h27.181c-6.239-17.393-9.821-36.049-10.252-55.485z" fill="#edb798"/><path d="m63.66 327.094c0-15.317 1.381-30.312 4.015-44.87-8.945-3.784-18.775-5.883-29.099-5.883-11.091 0-21.609 2.433-31.076 6.764v153.874h81.508c-16.227-33.177-25.348-70.464-25.348-109.885z" fill="#36d39a"/><g><path d="m79.889 415.917h-72.389v87.985h129.247c-24.694-24.766-44.219-54.68-56.858-87.985z" fill="#78cbec"/></g></g><g><path d="m138.555 169.482v-12.343c0-4.143-3.358-7.5-7.5-7.5s-7.5 3.357-7.5 7.5v12.343c0 4.142 3.358 7.5 7.5 7.5s7.5-3.358 7.5-7.5z"/><path d="m267.027 169.482v-12.343c0-4.143-3.358-7.5-7.5-7.5s-7.5 3.357-7.5 7.5v12.343c0 4.142 3.358 7.5 7.5 7.5s7.5-3.358 7.5-7.5z"/><path d="m195.291 184.33c8.659 0 16.892-3.75 22.59-10.288 2.721-3.123 2.396-7.86-.727-10.582-3.123-2.721-7.86-2.396-10.582.727-2.848 3.268-6.96 5.143-11.281 5.143s-8.433-1.875-11.281-5.143c-2.721-3.123-7.459-3.448-10.582-.727s-3.448 7.458-.727 10.582c5.698 6.538 13.931 10.288 22.59 10.288z"/><path d="m0 503.902c0 4.142 3.358 7.5 7.5 7.5h497c4.142 0 7.5-3.358 7.5-7.5 0-15.239 0-291.885 0-306.52 0-3.29-2.144-6.195-5.287-7.166-8.214-2.537-16.769-3.824-25.425-3.824-31.333 0-60.146 17.171-75.229 44.283-8.532-2.766-17.416-4.165-26.496-4.165-10.094 0-19.876 1.713-29.202 5.097l-16.164-125.764c19.089-5.606 33.072-23.271 33.072-44.149v-42.692c0-10.148-8.256-18.404-18.404-18.404h-25.185c-10.148 0-18.404 8.256-18.404 18.404v15.106c0 1.877-1.527 3.404-3.404 3.404h-25.186c-1.877 0-3.404-1.527-3.404-3.404v-15.106c0-10.148-8.256-18.404-18.404-18.404h-25.187c-10.148 0-18.404 8.256-18.404 18.404v15.106c0 1.877-1.527 3.404-3.404 3.404h-25.186c-1.877 0-3.404-1.527-3.404-3.404v-15.106c0-10.148-8.256-18.404-18.404-18.404h-25.186c-10.148 0-18.404 8.256-18.404 18.404v15.106c0 1.877-1.527 3.404-3.404 3.404h-25.186c-1.877 0-3.404-1.527-3.404-3.404v-15.106c0-10.148-8.256-18.404-18.404-18.404h-25.185c-10.148 0-18.404 8.256-18.404 18.404v42.692c0 20.879 13.982 38.543 33.071 44.149l-7.369 57.333c-.528 4.108 2.375 7.867 6.483 8.395 4.11.528 7.867-2.375 8.395-6.483l7.375-57.378h248.047c2.39 18.594 21.53 167.514 24.789 192.867v.003c.535 4.142 4.342 6.999 8.395 6.48 4.11-.528 7.011-4.29 6.483-8.395l-6.649-51.732c8.626-3.6 17.763-5.421 27.232-5.421 9.445 0 18.627 1.83 27.292 5.438 3.737 1.557 8.038-.136 9.712-3.824 11.508-25.352 36.912-41.733 64.72-41.733 5.313 0 10.578.585 15.712 1.745v205.279h-108.834c-3.58-10.494-9.885-20.789-18.836-29.227l-6.494-50.525c-.53-4.127-4.294-7.004-8.395-6.483-4.108.528-7.01 4.286-6.483 8.395l4.738 36.862c-18.167-9.325-39.648-10.597-58.739-3.354-16.202-34.875-56.284-50.29-90.932-37.415-23.518-27.36-62.617-36.613-96.192-21.519-13.481-20.059-34.361-32.326-56.385-35.455l9.589-74.607c.528-4.108-2.375-7.867-6.483-8.395-4.111-.528-7.867 2.375-8.395 6.483l-9.733 75.73c-10.775.404-21.205 2.876-31.045 7.378-2.668 1.221-4.38 3.886-4.38 6.82-.001.31-.001 217.537-.001 220.797zm38.312-442.207v-42.693c0-1.877 1.527-3.404 3.404-3.404h25.186c1.877 0 3.404 1.527 3.404 3.404v15.106c0 10.148 8.256 18.404 18.404 18.404h25.187c10.148 0 18.404-8.256 18.404-18.404v-15.106c0-1.877 1.527-3.404 3.404-3.404h25.186c1.877 0 3.404 1.527 3.404 3.404v15.106c0 10.148 8.256 18.404 18.404 18.404h25.186c10.148 0 18.404-8.256 18.404-18.404v-15.106c0-1.877 1.527-3.404 3.404-3.404h25.187c1.877 0 3.404 1.527 3.404 3.404v15.106c0 10.148 8.256 18.404 18.404 18.404h25.186c10.148 0 18.404-8.256 18.404-18.404v-15.106c0-1.877 1.527-3.404 3.404-3.404h25.186c1.877 0 3.404 1.527 3.404 3.404v42.692c0 15.838-11.935 28.932-27.282 30.783-.001 0-.002 0-.002 0-1.939.231-255.184.502-259.39 0h-.001c-15.349-1.85-27.285-14.945-27.285-30.782zm-23.312 434.707v-72.985h482v72.985zm82.478-177.821c2.024 3.651 6.628 4.926 10.227 2.907 28.923-16.207 66.253-9.232 86.967 18.743 2.152 2.91 6.032 3.815 9.204 2.332 30.749-14.376 67.887.951 78.891 33.909 1.454 4.353 6.453 6.396 10.541 4.295 21.163-10.871 46.507-7.447 64.014 7.816.001 0 .001.001.002.002 6.171 5.38 11.244 12.052 14.724 19.831h-357.048v-120.313c30.933-11.62 66.203 1.128 82.478 30.478z"/></g></g></svg>