<svg id="Capa_1" enable-background="new 0 0 512 512" height="512" viewBox="0 0 512 512" width="512" xmlns="http://www.w3.org/2000/svg"><g><g><ellipse cx="256" cy="197.381" fill="#b2b0bc" rx="175.924" ry="175.924" transform="matrix(.707 -.707 .707 .707 -64.589 238.831)"/><ellipse cx="256" cy="197.381" fill="#b0ebce" rx="130.98" ry="130.979" transform="matrix(.16 -.987 .987 .16 20.16 418.459)"/><path d="m316.292 7.5h-120.584c-15.047 0-25.726 14.667-21.105 28.987l34.322 106.355h94.151l34.322-106.355c4.62-14.32-6.059-28.987-21.106-28.987z" fill="#c7c5cb"/><path d="m269.7 132.073 28.882-89.502h-85.164l28.883 89.501z" fill="#b2b0bc"/><path d="m95.106 115.984c-14.32-4.621-28.987 6.057-28.987 21.105v120.584c0 15.047 14.667 25.726 28.987 21.105l106.356-34.322v-94.151z" fill="#c7c5cb"/><path d="m190.691 183.682-89.502-28.883v85.164l89.502-28.882z" fill="#b2b0bc"/><path d="m340.793 470.045-37.718-218.125h-94.151l-37.718 218.126c-3.112 17.997 10.744 34.455 29.008 34.455h111.571c18.264-.001 32.12-16.459 29.008-34.456z" fill="#c7c5cb"/><path d="m242.3 262.69-28.882 206.739h85.164l-28.883-206.738z" fill="#b2b0bc"/><path d="m416.894 115.984-106.355 34.322v94.151l106.355 34.322c14.32 4.621 28.987-6.058 28.987-21.105v-120.585c0-15.047-14.667-25.726-28.987-21.105z" fill="#c7c5cb"/><path d="m321.309 211.081 89.502 28.883v-85.164l-89.502 28.882z" fill="#b2b0bc"/><circle cx="256" cy="197.381" fill="#80dfb5" r="90.751"/><path d="m183.27 184.718c0-22.03 6.578-42.52 17.868-59.626-21.806 16.575-35.889 42.786-35.889 72.29 0 50.121 40.631 90.751 90.751 90.751 4.942 0 9.789-.401 14.517-1.161-47.492-12.642-87.247-52.917-87.247-102.254z" fill="#36d39a"/></g><g><path d="m199.157 175.784c-4.142 0-7.5 3.358-7.5 7.5v10.923c0 4.142 3.358 7.5 7.5 7.5s7.5-3.358 7.5-7.5v-10.923c0-4.142-3.358-7.5-7.5-7.5z"/><path d="m305.343 183.284v10.923c0 4.142 3.358 7.5 7.5 7.5s7.5-3.358 7.5-7.5v-10.923c0-4.142-3.358-7.5-7.5-7.5s-7.5 3.358-7.5 7.5z"/><path d="m275.915 188.227c-3.123-2.721-7.86-2.396-10.582.727-2.356 2.704-5.758 4.255-9.332 4.255s-6.976-1.551-9.332-4.254c-2.721-3.123-7.459-3.448-10.582-.727s-3.448 7.458-.727 10.582c5.206 5.974 12.729 9.4 20.641 9.4 7.911 0 15.434-3.426 20.641-9.399 2.72-3.125 2.395-7.862-.727-10.584z"/><path d="m88.203 287.379c2.487 0 4.992-.334 7.47-.976 6.307 11.313 13.814 21.974 22.386 31.752 2.73 3.114 7.47 3.426 10.583.695 3.115-2.73 3.426-7.469.696-10.584-7.201-8.213-13.589-17.101-19.058-26.504 7.403-2.389 21.897-7.067 29.31-9.459 12.591 19.522 29.759 35.493 50.136 46.631l-5.338 30.872c-12.231-5.771-23.75-13.019-34.341-21.613-3.217-2.61-7.939-2.119-10.55 1.098-2.61 3.216-2.119 7.939 1.098 10.55 12.607 10.23 26.427 18.704 41.151 25.248l-17.928 103.679c-3.9 22.554 13.46 43.232 36.398 43.232h111.571c22.889 0 40.307-20.63 36.398-43.232l-17.929-103.685c36.423-16.179 66.646-43.809 86.072-78.68 18.723 4.851 37.055-9.27 37.055-28.729v-120.585c0-19.549-18.45-33.575-37.067-28.744-5.243-9.399-11.327-18.38-18.16-26.753-2.619-3.209-7.344-3.688-10.553-1.069s-3.688 7.343-1.069 10.553c5.634 6.904 10.722 14.251 15.186 21.925l-29.311 9.458c-10.714-16.588-24.897-30.771-41.485-41.487l9.458-29.309c9.266 5.391 18.038 11.681 26.165 18.767 3.122 2.722 7.859 2.398 10.582-.724 2.722-3.122 2.398-7.86-.724-10.582-9.682-8.442-20.213-15.838-31.368-22.06 4.826-18.608-9.187-37.064-28.745-37.064h-120.584c-19.528 0-33.575 18.43-28.745 37.062-29.708 16.59-54.693 41.575-71.283 71.282-18.605-4.823-37.061 9.185-37.061 28.745v120.584c0 17.102 14.03 29.706 29.584 29.706zm66.23-19.865 25.365-8.186c5.081 6.239 10.908 11.847 17.35 16.68l-4.7 27.181c-15.072-9.071-27.999-21.191-38.015-35.675zm199.818-70.132c0-5.372-.496-11.13-1.297-16.031l50.356-16.25v64.562l-50.356-16.25c.795-4.876 1.297-10.589 1.297-16.031zm-15-.001c0 44.527-35.222 81.345-79.887 83.167-2.241.089-4.486.089-6.727 0-44.501-1.805-79.888-38.482-79.888-83.166 0-45.539 36.707-82.696 82.286-83.227 46.511-.53 84.216 37.121 84.216 83.226zm-72.603 97.675 23.313 166.873h-67.923l23.313-166.873c3.494.344 6.588.576 10.649.576 3.757 0 7.097-.21 10.648-.576zm-10.648-195.926c-.001 0-.002 0-.002 0-5.417 0-11.108.496-16.029 1.296l-16.25-50.355h64.562l-16.25 50.356c-4.764-.781-10.53-1.297-16.031-1.297zm-61.947 22.05c-5.223 4.254-10.001 9.032-14.255 14.254l-25.351-8.181c8.497-12.261 19.162-22.927 31.424-31.426zm-36.304 76.201c0 5.349.483 11.061 1.297 16.03l-50.356 16.25v-64.561l50.356 16.25c-.783 4.789-1.297 10.535-1.297 16.031zm154.037 299.619h-111.571c-13.596 0-23.938-12.254-21.618-25.677l32.275-186.646c6.293 3.261 12.901 5.809 19.719 7.628l-24.6 176.085c-.631 4.513 2.88 8.538 7.428 8.538h85.164c4.556 0 8.057-4.033 7.428-8.538l-24.6-176.085c6.818-1.82 13.426-4.368 19.719-7.629 1.012 5.851 30.795 178.093 32.274 186.646 2.316 13.396-7.995 25.678-21.618 25.678zm3.066-220.992c6.441-4.833 12.268-10.441 17.35-16.68l25.365 8.186c-10.016 14.484-22.942 26.604-38.014 35.675zm12.762 73.8-5.338-30.873c20.376-11.139 37.544-27.108 50.135-46.631l29.312 9.459c-17.247 29.688-43.112 53.435-74.109 68.045zm110.767-212.719v120.584c0 9.969-9.697 17.029-19.184 13.967-4.773-1.54-33.204-10.715-47.786-15.421 0 0 0 0-.001 0l-30.273-9.77c3.398-5.871 6.146-12.042 8.241-18.43l59.128 19.081c4.845 1.564 9.803-2.061 9.803-7.138v-85.164c0-5.09-4.968-8.698-9.803-7.138l-59.128 19.081c-2.095-6.388-4.843-12.56-8.241-18.431l78.059-25.19c9.487-3.06 19.185 4 19.185 13.969zm-80.829-9.836-25.35 8.181c-4.254-5.223-9.032-10-14.254-14.254l8.181-25.352c12.261 8.498 22.926 19.164 31.423 31.425zm-161.844-112.253h120.584c9.969 0 17.029 9.698 13.967 19.184-27.909 86.484-21.02 65.138-25.19 78.059-5.871-3.398-12.043-6.146-18.43-8.241l19.081-59.128c1.562-4.842-2.057-9.803-7.138-9.803h-85.164c-5.089 0-8.697 4.969-7.138 9.803l19.081 59.128c-6.388 2.095-12.559 4.843-18.431 8.241-18.92-58.628-14.794-45.843-25.19-78.059-3.061-9.487 4-19.184 13.968-19.184zm-24.088 36.666 9.457 29.306c-16.588 10.716-30.771 24.899-41.485 41.487l-29.309-9.458c14.717-25.253 36.083-46.619 61.337-61.335zm-98.001 85.423c0-9.939 9.67-17.037 19.184-13.967l78.059 25.19c-3.398 5.871-6.146 12.042-8.241 18.43l-59.128-19.081c-4.844-1.563-9.803 2.058-9.803 7.138v85.164c0 5.086 4.969 8.698 9.803 7.138l59.128-19.081c2.095 6.388 4.843 12.56 8.241 18.431-4.888 1.577-51.571 16.642-78.059 25.19-9.487 3.061-19.184-3.998-19.184-13.967z"/></g></g></svg>