<svg id="Capa_1" enable-background="new 0 0 512 512" height="512" viewBox="0 0 512 512" width="512" xmlns="http://www.w3.org/2000/svg"><g><g><path d="m446.306 114.826-77.603 96.846-68.375-68.375 96.847-77.603z" fill="#edb798"/><path d="m397.175 65.694-23.909 19.158c6.087 11.257 13.804 21.648 23.019 30.864 9.215 9.215 19.607 16.932 30.864 23.019l19.158-23.909z" fill="#e8a882"/><path d="m491.956 63.794c-9.074-4.737-17.59-10.917-25.211-18.538-7.622-7.622-13.802-16.138-18.538-25.211-5.447-10.435-17.891-15.103-28.977-11.147l-14.702 5.245c-11.108 3.963-17.605 15.45-15.373 27.03 3.766 19.538 13.212 38.199 28.343 53.33 15.131 15.13 33.792 24.577 53.33 28.343 11.58 2.231 23.067-4.266 27.03-15.373l5.245-14.702c3.955-11.087-.712-23.53-11.147-28.977z" fill="#fbe29f"/><path d="m324.864 258.348c-4.754 5.154-4.603 13.142.355 18.1 26.399 26.399 71.912 10.446 75.559-26.709 3.496-35.61-8.982-73.238-37.13-101.387s-65.776-40.625-101.387-37.13c-37.155 3.647-53.108 49.16-26.709 75.559 4.958 4.958 12.946 5.109 18.1.355z" fill="#fbe29f"/><path d="m328.773 213.633-30.405-30.405c-10.785-10.786-28.149-11.209-39.426-.939-46.112 41.992-161.075 153.944-249.326 300.592-7.619 12.662 6.842 27.123 19.503 19.503 146.649-88.251 258.6-203.214 300.593-249.325 10.27-11.277 9.846-28.641-.939-39.426z" fill="#c7c5cb"/><path d="m317.689 202.549-19.322-19.322c-10.785-10.786-28.149-11.209-39.426-.939-46.111 41.993-161.074 153.945-249.325 300.593-7.619 12.662 6.842 27.123 19.503 19.503 24.114-14.512 47.282-29.747 69.363-45.278 16.598-121.647 103.933-220.766 219.207-254.557z" fill="#b2b0bc"/><path d="m451.636 26.08c-1.213-1.982-2.363-3.993-3.43-6.036-5.446-10.434-17.89-15.102-28.976-11.146l-14.702 5.245c-11.108 3.963-17.605 15.45-15.373 27.03 3.599 18.675 12.402 36.54 26.384 51.295.009-27.824 14.383-52.276 36.097-66.388z" fill="#f8d070"/></g><g><path d="m132.138 365.72c-2.929-2.929-7.678-2.929-10.607 0s-2.929 7.678 0 10.607l9.529 9.53c2.929 2.929 7.677 2.929 10.607 0 2.929-2.929 2.929-7.678 0-10.607z"/><path d="m240.853 286.672c2.929-2.929 2.929-7.678 0-10.607l-9.53-9.529c-2.929-2.929-7.678-2.929-10.607 0s-2.929 7.678 0 10.607l9.53 9.529c2.928 2.928 7.677 2.929 10.607 0z"/><path d="m173.112 336.269c-4.133-.282-7.713 2.836-7.996 6.969-.284 4.133 2.836 7.713 6.969 7.997 9.335.637 18.361-2.81 24.849-9.298 6.544-6.544 9.932-15.601 9.297-24.849-.284-4.133-3.859-7.25-7.996-6.969-4.133.284-7.253 3.864-6.969 7.997.338 4.921-1.462 9.737-4.939 13.214-3.478 3.477-8.295 5.278-13.215 4.939z"/><path d="m32.975 508.824c27.85-16.76 56.157-35.53 84.134-55.789 3.355-2.43 4.105-7.119 1.675-10.474s-7.119-4.105-10.474-1.676c-27.634 20.011-55.583 38.544-83.07 55.086-4.15 2.497-7.315-.152-8.186-1.023-.872-.872-3.521-4.037-1.023-8.187 59.012-98.061 130.282-180.296 179.679-232.015 2.861-2.996 2.752-7.743-.243-10.605-2.995-2.86-7.743-2.752-10.604.244-49.922 52.267-121.966 135.402-181.686 234.641-5.227 8.685-3.913 19.346 3.269 26.529 7.201 7.2 17.865 8.483 26.529 3.269z"/><path d="m131.094 433.426c2.506 3.298 7.211 3.94 10.51 1.434 77.588-58.955 138.42-118.269 175.272-157.012.843 1.387 1.843 2.706 3.042 3.905 9.98 9.98 23.082 15.276 36.581 15.275 5.927 0 11.931-1.021 17.78-3.115 18.991-6.799 32.008-23.444 33.971-43.442 2.155-21.958-1.338-43.829-9.832-63.883l50.156-62.593c6.686 2.73 13.656 4.823 20.845 6.208 15.352 2.958 30.283-5.551 35.515-20.218l5.245-14.702c5.221-14.635-1.116-31.035-14.741-38.147-8.588-4.483-16.454-10.268-23.38-17.194-6.926-6.925-12.71-14.792-17.193-23.38-7.113-13.624-23.513-19.962-38.148-14.74l-14.702 5.245c-14.673 5.235-23.176 20.171-20.219 35.515 1.386 7.189 3.478 14.159 6.208 20.846l-62.592 50.155c-20.054-8.494-41.925-11.987-63.883-9.832-19.997 1.963-36.643 14.98-43.441 33.97-6.862 19.168-2.202 39.998 12.161 54.361 1.201 1.201 2.523 2.202 3.912 3.046-9.299 8.85-18.744 18.09-28.256 27.659-2.92 2.938-2.906 7.686.032 10.607 2.938 2.92 7.688 2.906 10.607-.032 15.926-16.021 32.333-31.766 47.449-45.531 8.328-7.584 21.099-7.278 29.075.697l30.407 30.407c8.016 8.017 8.237 20.793.697 29.074-53.674 58.921-121.234 121.408-191.641 174.906-3.301 2.507-3.943 7.212-1.437 10.511zm275.961-412.23 14.702-5.245c7.619-2.718 16.138.522 19.809 7.554 5.19 9.941 11.879 19.041 19.884 27.046s17.104 14.695 27.045 19.884c7.027 3.668 10.274 12.184 7.554 19.809l-5.245 14.703c-2.728 7.647-10.53 12.075-18.548 10.529-18.703-3.604-35.887-12.73-49.425-26.261-.008-.007-.015-.014-.023-.021-.007-.007-.014-.015-.021-.022-13.518-13.525-22.654-30.707-26.262-49.426-1.545-8.021 2.884-15.822 10.53-18.55zm-12.271 56.022c4.712 8.081 10.691 15.856 17.418 22.581 6.801 6.801 14.676 12.811 22.581 17.418l-43.737 54.583c-6.185-10.719-13.78-20.448-22.09-28.755-8.868-8.87-18.667-16.269-28.755-22.089zm-140.848 99.483c-.015.013-.03.025-.045.039-.004.004-.009.008-.013.012-1.677 1.528-3.455 3.158-5.312 4.869-2.207 2.036-5.594 1.972-7.712-.146-10.219-10.219-13.531-25.047-8.644-38.698 4.896-13.677 16.404-22.686 30.784-24.097 36.085-3.542 70.611 10.222 95.348 34.964.002.002.005.004.007.007 25.474 25.48 38.422 60.199 34.971 95.355-1.412 14.38-10.42 25.887-24.098 30.784-13.65 4.886-28.479 1.575-38.698-8.644-2.117-2.117-2.181-5.506-.146-7.713 1.803-1.954 3.811-4.149 4.881-5.324 12.996-14.27 12.449-36.151-1.181-49.781l-30.407-30.407c-13.441-13.45-35.292-14.333-49.735-1.22z"/></g></g></svg>