<svg id="Capa_1" enable-background="new 0 0 512 512" height="512" viewBox="0 0 512 512" width="512" xmlns="http://www.w3.org/2000/svg"><g><g><path d="m427.868 164.468c-32.613-7.526-53.649-39.59-47.259-72.718 6.539-33.895 39.314-56.079 73.21-49.54 18.339 3.538 33.248 14.757 42.029 29.669z" fill="#fbe5c8"/><path d="m503.357 115.429c-6.539 33.895-39.313 56.069-73.217 49.528-.767-.148-1.522-.304-2.272-.489-3.939-11.724-4.698-23.865-.753-36.067 13.983-43.25 46.458-54.303 68.733-56.523 7.461 12.659 10.51 27.995 7.509 43.551z" fill="#ffc9d3"/><path d="m84.132 164.468c32.613-7.526 53.649-39.59 47.259-72.718-6.539-33.895-39.314-56.079-73.21-49.54-18.339 3.538-33.248 14.757-42.029 29.669z" fill="#fbdab2"/><path d="m8.643 115.429c6.539 33.895 39.313 56.069 73.217 49.528.767-.148 1.522-.304 2.272-.489 3.939-11.724 4.698-23.865.753-36.067-13.983-43.25-46.458-54.303-68.733-56.523-7.461 12.659-10.51 27.995-7.509 43.551z" fill="#ffb2c1"/><path d="m469.436 311.987.793-.773c31.036-30.267 31.036-80.161 0-110.428l-.792-.773c11.36-42.29-14.729-85.543-57.435-95.222l-.026-.006-.424-1.45c-12.134-41.472-55.97-64.884-97.185-51.905l-1.559.491-2.297-2.295c-30.112-30.085-78.905-30.085-109.017 0l-2.298 2.295-1.557-.49c-41.216-12.98-85.052 10.432-97.186 51.904l-.424 1.449-.029.007c-42.706 9.679-68.795 52.931-57.436 95.221v.001l-.793.773c-31.036 30.267-31.036 80.161 0 110.428l.792.773c-11.36 42.29 14.729 85.543 57.435 95.222l.026.006.424 1.45c12.134 41.472 55.97 64.884 97.185 51.905l1.559-.491 2.297 2.295c30.112 30.085 78.905 30.085 109.017 0l2.298-2.295 1.557.49c41.216 12.98 85.052-10.431 97.186-51.904l.424-1.449.026-.006c42.709-9.68 68.798-52.932 57.439-95.223z" fill="#ffefe0"/><path d="m134.376 209.943c0-60.771 21.444-116.529 57.168-160.138-39.356-8.983-79.556 14.097-91.094 53.531l-.424 1.449-.026.006c-42.706 9.679-68.795 52.931-57.436 95.221l-.793.773c-31.036 30.268-31.036 80.161 0 110.428l.792.772c-11.36 42.291 14.729 85.543 57.435 95.222l.026.006.424 1.45c12.134 41.473 55.97 64.884 97.185 51.905l1.559-.491 2.297 2.295c26.633 26.608 67.869 29.665 97.879 9.206-101.158-34.909-164.992-146.064-164.992-261.635z" fill="#fbe5c8"/><path d="m404.388 190.3c-1.28-3.851-6.405-4.579-8.7-1.233-9.444 13.764-25.289 22.792-43.243 22.792-18.551 0-34.851-9.639-44.164-24.182-1.941-3.031-6.327-3.038-8.282-.015-9.326 14.425-25.546 23.977-43.999 23.992-.015 0-.029.001-.044.001s-.029-.001-.044-.001c-18.452-.015-34.673-9.566-43.999-23.992-1.954-3.023-6.34-3.017-8.282.015-9.313 14.543-25.613 24.182-44.164 24.182-17.954 0-33.799-9.028-43.243-22.792-2.296-3.346-7.421-2.617-8.7 1.233-13.627 41.01-49.97 191.147 148.388 191.191v.001h.044.044v-.001c198.358-.044 162.015-150.182 148.388-191.191z" fill="#ffc9d3"/><path d="m134.376 209.943c0-1.487.031-2.967.056-4.448-7.289-3.972-13.534-9.617-18.207-16.429-2.296-3.346-7.421-2.618-8.701 1.233-11.502 34.614-39.186 146.972 71.735 181.202-28.796-46.694-44.883-103.565-44.883-161.558z" fill="#ffb2c1"/><g><g><g><ellipse cx="165.11" cy="286.688" fill="#ff889e" rx="26.707" ry="33.537" transform="matrix(.002 -1 1 .002 -121.939 451.168)"/></g><g><ellipse cx="346.89" cy="287.085" fill="#ff889e" rx="26.707" ry="33.537" transform="matrix(.002 -1 1 .002 59.047 633.347)"/></g></g></g></g><g><path d="m122.406 184.823c-2.683-3.911-7.263-5.929-11.961-5.267-4.697.663-8.545 3.874-10.041 8.378-8.789 26.451-25.595 93.355 8.095 143.219 2.319 3.433 6.982 4.335 10.413 2.016 3.432-2.319 4.335-6.982 2.016-10.414-28.168-41.691-16.078-98.468-7.808-125.34 11.334 13.827 28.307 21.944 46.347 21.944 19.248 0 37.041-9.086 48.321-24.486 11.278 15.257 28.997 24.265 48.127 24.281h.093c19.125-.016 36.842-9.024 48.12-24.281 11.28 15.4 29.073 24.486 48.321 24.486 18.044 0 35.02-8.121 46.354-21.954 22.477 72.102 1.05 113.14-9.397 127.624-23.422 32.472-68.288 48.947-133.409 48.968-.027 0-.054 0-.082 0-52.476-.012-92.026-10.791-117.55-32.039-3.182-2.65-7.912-2.218-10.563.966-2.65 3.183-2.218 7.913.966 10.563 28.29 23.551 71.068 35.499 127.189 35.511h.084c70.167-.022 119.13-18.592 145.53-55.193 36.092-50.038 18.974-118.68 9.939-145.87-1.497-4.504-5.344-7.715-10.042-8.378-4.697-.663-9.278 1.355-11.961 5.266-8.394 12.233-22.248 19.536-37.06 19.536-15.389 0-29.538-7.748-37.849-20.728-2.294-3.581-6.194-5.724-10.434-5.733-.009 0-.018 0-.027 0-4.231 0-8.131 2.127-10.435 5.692-8.317 12.864-22.413 20.551-37.701 20.564-.023 0-.057 0-.081 0-15.295-.013-29.392-7.7-37.708-20.564-2.305-3.565-6.204-5.692-10.436-5.692-.009 0-.018 0-.027 0-4.24.009-8.141 2.152-10.434 5.734-8.311 12.979-22.461 20.727-37.849 20.727-14.813 0-28.667-7.303-37.06-19.536z"/><path d="m192.475 266.797v-13.629c0-4.142-3.358-7.5-7.5-7.5s-7.5 3.358-7.5 7.5v13.629c0 4.142 3.358 7.5 7.5 7.5s7.5-3.358 7.5-7.5z"/><path d="m334.329 266.797v-13.629c0-4.142-3.358-7.5-7.5-7.5s-7.5 3.358-7.5 7.5v13.629c0 4.142 3.358 7.5 7.5 7.5s7.5-3.358 7.5-7.5z"/><path d="m256.109 292.292c4.287 4.055 10.065 6.55 16.418 6.55 13.188 0 23.918-10.73 23.918-23.918 0-4.142-3.358-7.5-7.5-7.5s-7.5 3.358-7.5 7.5c0 4.917-4.001 8.918-8.918 8.918s-8.918-4.001-8.918-8.918c0-4.142-3.358-7.5-7.5-7.5s-7.5 3.358-7.5 7.5c0 4.917-4.001 8.918-8.918 8.918s-8.918-4.001-8.918-8.918c0-4.142-3.358-7.5-7.5-7.5s-7.5 3.358-7.5 7.5c0 13.188 10.73 23.918 23.918 23.918 6.353-.001 12.131-2.495 16.418-6.55z"/><path d="m33.986 163.582c-2.217 11.154-2.159 22.706.295 34.107-15.047 15.791-23.295 36.375-23.295 58.313s8.248 42.521 23.294 58.311c-4.544 21.111-.946 42.753 10.298 61.393 11.253 18.656 28.739 31.941 49.498 37.747 6.818 20.797 21.121 37.844 40.523 48.206 19.365 10.342 41.438 12.76 62.479 6.904 16.375 15.889 37.65 23.836 58.921 23.836 21.272 0 42.547-7.947 58.922-23.836 21.039 5.855 43.115 3.438 62.478-6.904 19.402-10.362 33.706-27.411 40.524-48.208 20.793-5.827 38.255-19.105 49.498-37.744 11.244-18.641 14.843-40.281 10.297-61.393 15.047-15.792 23.295-36.374 23.295-58.312s-8.248-42.521-23.295-58.313c2.454-11.401 2.512-22.953.295-34.107 17.092-10.218 28.896-26.938 32.715-46.735 3.234-16.763.248-34.083-8.407-48.772-.001-.002-.002-.005-.004-.007-8.982-15.254-23.246-26.448-40.164-31.519-3.966-1.189-8.148 1.063-9.338 5.031-1.189 3.967 1.063 8.148 5.031 9.338 9.586 2.874 18.088 8.253 24.731 15.529-21.841 4.998-39.849 17.113-52.093 36.74-4.038-1.853-8.577-3.514-12.561-4.631-.466-1.422-.975-2.824-1.511-4.21-.002-.006-.005-.012-.007-.018-3.803-9.84-9.334-18.746-16.315-26.388 8.036-9.4 19.185-15.978 31.377-18.359 4.066-.794 6.717-4.733 5.924-8.799s-4.732-6.717-8.799-5.924c-15.34 2.996-29.37 11.227-39.567 22.976-20.789-15.86-47.789-21.719-74.106-14.395-32.751-31.785-85.092-31.786-117.843 0-21.038-5.855-43.113-3.438-62.477 6.903-4.11 2.195-7.977 4.708-11.607 7.475-16.243-18.827-41.399-27.768-66.238-22.977-19.72 3.804-36.878 15.915-47.073 33.228-.002.003-.003.006-.004.009-8.654 14.688-11.64 32.008-8.407 48.77 3.82 19.797 15.625 36.517 32.716 46.735zm462.014-49.576c-2.751 14.263-10.77 26.51-22.44 34.637-1.701-4.227-3.734-8.358-6.138-12.345-6.217-10.308-14.344-18.967-23.885-25.644 10.697-16.794 27.797-27.646 48.136-30.682 5.02 10.548 6.56 22.459 4.327 34.034zm-354.332-50.431c16.643-8.888 35.718-10.661 53.714-4.994l1.557.49c5.709 1.797 8.691-3.339 9.851-4.144 27.135-27.109 71.285-27.109 98.418 0 1.105.767 4.189 5.927 9.851 4.144.77-.087 26.967-10.615 55.274 4.504 15.562 8.311 27.091 22.04 32.766 38.012 1.008 2.822 1.399 4.382 1.682 5.301 1.302 4.45 5.686 5.274 5.586 5.219 6.494 1.474 13.182 4.014 19.329 7.55 0 0 .001 0 .001.001 26.062 14.987 41.035 46.644 32.502 78.409-1.341 4.993 2.623 7.812 2.799 8.088 13.551 13.216 21.014 30.918 21.014 49.847s-7.463 36.631-21.016 49.848c-.169.263-4.137 3.102-2.797 8.087 4.96 18.464 2.253 37.65-7.623 54.022-9.875 16.372-25.583 27.716-44.225 31.941-5.216 1.158-5.782 6.275-5.995 6.665-5.298 18.108-17.381 32.975-34.023 41.864-16.643 8.888-35.72 10.662-53.713 4.995-.484-.042-5.223-2.529-9.113 1.357l-2.297 2.295c-27.134 27.108-71.285 27.109-98.419 0-1.328-1.057-4.288-5.898-9.853-4.143-.743.084-26.965 10.615-55.272-4.504-16.642-8.888-28.725-23.756-34.023-41.865-.216-.396-.768-5.408-5.894-6.641-.033-.008-.065-.016-.098-.023-18.646-4.226-34.354-15.57-44.229-31.941-9.875-16.372-12.582-35.558-7.623-54.023 1.341-4.993-2.622-7.812-2.799-8.087-13.551-13.216-21.014-30.918-21.014-49.846 0-18.929 7.463-36.631 21.016-49.849.169-.263 4.137-3.102 2.797-8.087-8.502-31.65 6.333-63.36 32.501-78.408 10.36-5.959 18.892-7.32 20.297-7.833 2.218-.812 3.947-2.633 4.621-4.939.368-.847 4.058-18.173 19.732-32.778 4.651-4.329 9.269-7.624 14.718-10.534zm-82.073-14.006c19.651-3.791 39.562 3.358 52.32 18.363-8.341 9.127-14.252 19.682-17.838 30.619-4.028 1.132-8.536 2.781-12.567 4.631-11.599-18.6-28.904-31.377-52.078-36.733 7.916-8.647 18.466-14.623 30.163-16.88zm-39.268 30.403c20.034 2.99 37.087 13.346 48.134 30.679-9.535 6.675-17.664 15.335-23.883 25.645-2.405 3.987-4.438 8.118-6.139 12.346-11.67-8.127-19.689-20.374-22.44-34.638-2.232-11.573-.692-23.484 4.328-34.032z"/></g></g></svg>