<svg id="Capa_1" enable-background="new 0 0 512 512" height="512" viewBox="0 0 512 512" width="512" xmlns="http://www.w3.org/2000/svg"><g><g><g fill="#ffdcce"><path d="m420.558 176.005-.896 74.715 9.451-6.256 5.003-56.036z"/><path d="m91.442 176.005.885 74.715-17.773-17.827v-38.415z"/><path d="m207.35 504.5h-110.282c0-81.094 54.49-112.937 54.49-112.937h208.884s54.49 31.843 54.49 112.937h-110.282l-48.65-21.641z"/></g><path d="m304.65 504.5h-97.3c0-26.868 21.782-48.66 48.65-48.66s48.65 21.791 48.65 48.66z" fill="#78cbec"/><path d="m125.699 243.172h-63.469c.327.262 7.089 23.628-7.781 50.642-10.732 19.498-4.899 44.095 13.582 56.497 17.056 11.445 41.177 21.513 73.256 21.513l41.894-22.502z" fill="#de8957"/><path d="m386.301 243.172h63.468c-.327.262-7.089 23.628 7.781 50.642 10.732 19.498 4.899 44.095-13.582 56.497-17.056 11.445-41.177 21.513-73.256 21.513l-41.894-22.502z" fill="#e3986d"/><g><path d="m130.118 480.946c0-37.539 19.495-70.524 48.913-89.383h-27.474s-54.49 31.843-54.49 112.937h35.678c-1.716-7.576-2.627-15.458-2.627-23.554z" fill="#ffcabd"/></g><path d="m138.688 332.063v22.214c0 24.409 14.683 46.557 37.328 55.668 25.284 10.173 52.479 15.536 79.984 15.536s54.699-5.363 79.984-15.536c22.645-9.111 37.328-31.259 37.328-55.668v-22.214z" fill="#fbe29f"/><path d="m205.15 339.321v-7.258h-66.462v22.214c0 19.627 9.5 37.787 24.993 48.888-.031-.835-.064-1.67-.064-2.514.001-27.812 17.199-51.592 41.533-61.33z" fill="#f8d070"/><path d="m256 7.5c-106.792 0-194.672 82.528-203.207 187.153 6.521-11.405 18.801-19.086 32.881-19.086 1.963 0 3.886.153 5.768.437-3.382 15.492-4.583 32.861-3.062 50.461-.01.01-.01.02 0 .02.722 8.349 2.261 17.4 3.947 24.233 17.702 73.984 84.268 128.983 163.673 128.983s145.971-54.998 163.673-128.981c1.691-6.853 3.227-15.898 3.947-24.233.01 0 .01-.01 0-.02 1.547-17.894.255-35.265-3.062-50.461 1.882-.285 3.805-.437 5.768-.437 14.08 0 26.36 7.681 32.881 19.086-8.535-104.627-96.415-187.155-203.207-187.155z" fill="#e8a882"/><path d="m319.489 254.666c40.572-3.92 71.989-39.138 69.785-81.219-2.087-39.827-34.692-71.821-74.55-73.214-14.786-.517-28.678 3.121-40.614 9.831-11.281 6.342-24.938 6.342-36.219 0-11.936-6.71-25.829-10.348-40.615-9.831-39.858 1.393-72.463 33.387-74.549 73.215-2.204 42.081 29.213 77.298 69.785 81.219h126.977z" fill="#ffdcce"/><path d="m92.338 250.72h-.01c-23.638 4.106-44.53-14.018-44.53-37.276 0-22.955 20.405-40.957 43.645-37.439-2.433 11.146-3.877 24.268-3.713 37.937.058 4.368.305 8.518.651 12.524-.01.01-.01.02 0 .02.675 7.817 2.132 16.838 3.957 24.234z" fill="#ffdcce"/><path d="m464.202 213.444c0 20.917-16.959 37.866-37.876 37.866-3.272 0-5.42-.423-6.664-.59 1.641-6.651 3.219-15.688 3.958-24.233.01 0 .01-.01 0-.02.343-3.973.594-8.268.651-12.524.164-13.645-1.24-26.609-3.713-37.937 1.882-.285 3.805-.437 5.768-.437 20.944-.001 37.876 17.002 37.876 37.875z" fill="#ffdcce"/><path d="m191.71 172.093h-24.38c-7.691 0-13.925 6.234-13.925 13.925s6.234 13.925 13.925 13.925h24.38c7.691 0 13.925-6.234 13.925-13.925s-6.235-13.925-13.925-13.925z" fill="#e8a882"/><path d="m320.29 172.093h24.38c7.691 0 13.925 6.234 13.925 13.925s-6.234 13.925-13.925 13.925h-24.38c-7.691 0-13.925-6.234-13.925-13.925s6.235-13.925 13.925-13.925z" fill="#e8a882"/><path d="m256 287.509c-26.239 32.799-64.9 19.207-85.29 8.435-4.945-2.612-5.298-9.48-.715-12.687 11.688-8.178 18.494-26.086 28.148-35.084 14.999-13.979 40.84-22.471 57.858-7.042 17.017-15.429 42.858-6.937 57.858 7.042 9.655 8.998 16.46 26.906 28.148 35.084 4.582 3.206 4.23 10.074-.715 12.687-20.392 10.772-59.053 24.364-85.292-8.435z" fill="#edb798"/><circle cx="212.491" cy="398.136" fill="#f8d070" r="26.312"/><circle cx="299.509" cy="398.136" fill="#f8d070" r="26.312"/><path d="m102.617 212.462c0-93.367 58.445-173.071 140.741-204.56-101.01 6.211-182.369 86.287-190.565 186.751 6.521-11.405 18.801-19.086 32.881-19.086 1.964 0 3.886.153 5.768.438-3.382 15.492-4.583 32.861-3.062 50.461-.01.01-.01.021 0 .021.722 8.349 2.261 17.4 3.947 24.233 7.36 30.761 23.174 58.234 44.84 79.842-21.867-34.075-34.55-74.606-34.55-118.1z" fill="#e3986d"/></g><g><path d="m191.71 164.593h-24.38c-11.813 0-21.425 9.611-21.425 21.425s9.611 21.425 21.425 21.425h4.69v9.231c0 4.142 3.358 7.5 7.5 7.5s7.5-3.358 7.5-7.5v-9.231h4.69c11.813 0 21.425-9.611 21.425-21.425s-9.612-21.425-21.425-21.425zm0 27.85h-24.38c-3.542 0-6.425-2.882-6.425-6.425 0-3.542 2.882-6.425 6.425-6.425h24.38c3.542 0 6.425 2.882 6.425 6.425s-2.883 6.425-6.425 6.425z"/><path d="m344.67 164.593h-24.38c-11.814 0-21.425 9.611-21.425 21.425s9.611 21.425 21.425 21.425h4.69v9.231c0 4.142 3.358 7.5 7.5 7.5s7.5-3.358 7.5-7.5v-9.231h4.69c11.813 0 21.425-9.611 21.425-21.425s-9.611-21.425-21.425-21.425zm0 27.85h-24.38c-3.543 0-6.425-2.882-6.425-6.425 0-3.542 2.882-6.425 6.425-6.425h24.38c3.542 0 6.425 2.882 6.425 6.425s-2.882 6.425-6.425 6.425z"/><path d="m47.879 290.197c-12.595 22.88-5.759 51.757 15.973 66.341 21.113 14.167 45.318 21.79 72.02 22.694 1.436 3.667 3.187 7.185 5.225 10.519-5.683 4.404-14.25 12.032-22.776 23.36-13.117 17.426-28.753 47.426-28.753 91.389 0 4.142 3.358 7.5 7.5 7.5h317.863c4.142 0 7.5-3.358 7.5-7.5 0-23.68-4.48-45.631-13.317-65.245-1.702-3.777-6.143-5.458-9.918-3.758-3.777 1.702-5.459 6.143-3.757 9.919 7.025 15.595 10.994 32.917 11.827 51.584h-48.883v-35.779c0-4.143-3.358-7.5-7.5-7.5s-7.5 3.357-7.5 7.5v35.779h-31.731c-3.61-27.076-26.966-48.661-55.651-48.661-27.987 0-51.899 20.807-55.651 48.661h-31.731v-35.779c0-4.143-3.358-7.5-7.5-7.5s-7.5 3.357-7.5 7.5v35.779h-48.889c1.248-28.525 9.683-53.477 25.121-74.261 7.736-10.415 15.554-17.334 20.458-21.138 11.006 11.26 23.57 16.18 38.862 21.012 8.791 8.366 21.583 11.5 33.398 7.801 10.511 1.611 22.158 2.568 33.429 2.568 11.13 0 22.72-.927 33.429-2.568 11.72 3.674 24.536.638 33.398-7.801 15.432-4.876 27.605-9.494 38.862-21.012 4.771 3.701 12.296 10.348 19.818 20.287 2.5 3.302 7.204 3.954 10.507 1.454s3.954-7.204 1.454-10.507c-5.885-7.774-12.729-14.987-19.793-20.858-1.008-.837-1.916-1.569-2.765-2.239 2.034-3.331 3.783-6.844 5.217-10.506 26.702-.904 50.907-8.526 72.02-22.694 21.755-14.599 28.554-43.486 15.973-66.341-11.046-20.069-8.74-37.691-7.711-42.831 9.372-8.316 15.293-20.438 15.293-33.923 0-7.573-1.875-14.713-5.169-20.997-4.645-52.061-28.386-100.344-66.986-136.106-39.214-36.331-90.193-56.34-143.545-56.34-50.094 0-98.713 17.915-136.901 50.445-3.153 2.686-3.532 7.42-.846 10.573 2.686 3.154 7.42 3.532 10.573.846 35.476-30.221 80.641-46.864 127.174-46.864 49.56 0 96.919 18.589 133.353 52.344 30.938 28.663 51.611 65.975 59.478 106.72-8.087-4.734-18.692-7.094-29.396-5.474-4.285.649-7.127 4.787-6.204 9.015 1.959 8.975 3.243 19.473 3.493 30.182 1.594 74.181-46.682 136.177-112.128 156.92-1.659-.251-3.358-.383-5.086-.383-7.083 0-13.815 2.231-19.277 6.042-16.206 2.434-32.564 2.414-48.463 0-5.657-3.916-12.33-6.042-19.277-6.042-1.729 0-3.427.132-5.086.383-79.231-25.112-126.168-106.813-108.637-187.103.669-3.071-.642-6.26-3.349-7.958-4.48-2.789-16.527-1.38-21.736.05-3.666 1.003-7.198 2.47-10.517 4.367-.005.003-.01.005-.015.008 6.521-33.971 21.894-65.41 45.097-91.904 2.729-3.116 2.415-7.854-.701-10.583s-7.854-2.416-10.583.701c-29.733 33.952-47.514 75.462-51.5 120.135-3.358 6.416-5.168 13.611-5.168 21.023 0 13.032 5.569 25.33 15.297 33.946 1.031 5.173 3.312 22.772-7.716 42.808zm208.078 173.143c.014 0 .029-.001.043-.001s.029.001.043.001c19.675.029 36.798 14.098 40.41 33.66h-80.906c3.572-19.333 20.496-33.63 40.41-33.66zm-173.513-280.093c-1.47 9.152-2.343 20.121-2.215 30.795.127 9.457 1.085 19.552 2.938 29.646-15.705-1.293-27.87-14.38-27.87-30.244.001-15.643 11.899-28.56 27.147-30.197zm106.366 190.636c.036.015.071.032.107.046-7.872 7.669-11.465 18.524-9.878 29.145-14.282-5.675-25.812-17.704-30.573-33.426-3.07-10.126-2.087-17.659-2.278-20.979 12.971 10.368 27.404 18.909 42.622 25.214zm42.493 24.253c0 10.22-8.356 18.785-18.762 18.81-.017 0-.033.002-.05.002-10.276 0-18.812-8.373-18.812-18.812 0 0 0 0 0-.001 0-10.25 8.413-18.811 18.804-18.811h.008.002c10.279 0 18.81 8.365 18.81 18.812zm36.329-11.322c-1.265 3.572-1.936 7.499-1.936 11.321 0 6.57 1.937 13.341 6.021 19.226-10.088.785-20.574.845-31.434 0 3.977-5.731 6.021-12.462 6.021-19.226 0-3.658-.621-7.61-1.936-11.321 7.078.485 15.635.522 23.264 0zm31.876-7.49c9.723 0 17.813 7.487 18.724 17.051.979 10.511-6.826 19.457-16.798 20.476-11.328 1.132-20.738-7.874-20.738-18.714 0-10.376 8.456-18.813 18.812-18.813zm66.303-30.654c-.029 15.34-.747 14.175-2.402 21.496-4.9 15.764-16.629 27.399-30.449 32.908 1.567-10.565-1.948-21.419-9.878-29.145.036-.015.071-.031.106-.046 15.265-6.323 29.808-14.965 42.623-25.213zm65.96-134.638c.127-10.639-.771-21.807-2.216-30.791 15.275 1.637 27.148 14.585 27.148 30.203 0 14.867-10.81 28.401-27.875 30.264 1.858-10.118 2.816-20.198 2.943-29.676zm-359.56 130.051c-15.098-10.132-20.014-30.624-11.191-46.652 7.354-13.36 10.68-27.602 10.519-40.846 4.841 1.59 9.94 2.34 15.135 2.213 7.915 28.351 23.025 54.732 44.515 76.394.256 14.946-.532 20.195.693 28.824-22.082-1.467-42.117-8.154-59.671-19.933zm368.249-87.506c-.171 13.564 3.328 27.79 10.52 40.854 8.823 16.028 3.907 36.521-11.191 46.652-17.554 11.779-37.589 18.466-59.67 19.932 1.116-7.859.53-12.349.693-28.824 21.181-21.351 36.48-47.621 44.514-76.393 4.857.11 10.152-.59 15.134-2.221z"/><path d="m396.763 173.055c-2.28-43.515-38.201-78.795-81.778-80.317-15.62-.546-31.025 3.185-44.551 10.788-9.038 5.082-19.831 5.081-28.869 0-13.525-7.604-28.928-11.334-44.552-10.789-43.576 1.523-79.497 36.803-81.776 80.318-2.17 41.43 25.431 77.527 64.516 87.035-4.339 6.635-8.84 13.37-14.059 17.022-9.197 6.436-8.373 20.24 1.513 25.463 30.37 16.043 64.32 20.045 88.793-3.892 24.478 23.94 58.426 19.932 88.794 3.892 9.885-5.223 10.71-19.028 1.512-25.464-5.219-3.651-9.719-10.386-14.058-17.021 39.084-9.507 66.685-45.605 64.515-87.035zm-96.236 127.517c-15.931.662-28.585-5.142-38.67-17.748-2.999-3.749-8.711-3.752-11.713 0-10.084 12.605-22.736 18.413-38.67 17.748-14.231-.592-28.013-6.39-37.14-11.197 7.763-5.447 13.2-13.768 18.457-21.814 2.373-3.632 5.291-8.116 8.069-11.364 12.335-14.431 36.49-21.853 50.104-9.509 2.858 2.591 7.217 2.591 10.075 0 9.563-8.671 29.584-9.917 47.707 6.973.017.016.035.035.051.051 8.832 8.273 15.606 26.345 28.875 35.663-9.103 4.795-22.899 10.604-37.145 11.197zm22.233-53.871c-14.704-17.465-45.17-29.02-66.76-15.011-21.568-13.993-52.165-2.328-66.76 15.011-35.266-5.432-60.919-36.681-59.024-72.861 1.876-35.818 31.447-64.857 67.321-66.111 12.843-.456 25.551 2.618 36.678 8.873 13.642 7.668 29.929 7.668 43.57 0 11.125-6.254 23.805-9.323 36.677-8.873 35.874 1.253 65.445 30.292 67.322 66.11 1.894 36.181-23.758 67.43-59.024 72.862z"/></g></g></svg>