<svg id="Capa_1" enable-background="new 0 0 512 512" height="512" viewBox="0 0 512 512" width="512" xmlns="http://www.w3.org/2000/svg"><g><g><path d="m43.269 220.231c0-56.822 22.128-110.244 62.308-150.424 40.18-40.179 93.601-62.307 150.423-62.307s110.243 22.128 150.423 62.307c40.179 40.18 62.307 93.601 62.307 150.424z" fill="#ff9e8e"/><path d="m468.731 220.231c17.137 100.998-34.805 80.35-34.805 137.777s-65.464 80.608-65.464 80.608h-224.923s-65.464-23.182-65.464-80.608-51.943-36.779-34.805-137.777z" fill="#ff9e8e"/><circle cx="434.923" cy="221.225" fill="#ffcabd" r="45.445"/><path d="m112.522 227.342c0-2.38.047-4.749.118-7.111h-69.371c-17.137 100.998 34.805 80.35 34.805 137.776s65.464 80.608 65.464 80.608h105.113c-80.29-36.462-136.129-117.345-136.129-211.273z" fill="#fb8978"/><path d="m269.178 7.915c-4.37-.265-8.762-.415-13.178-.415-56.823 0-110.243 22.128-150.423 62.308-40.18 40.179-62.308 93.601-62.308 150.423h69.371c2.972-98.64 67.529-181.791 156.538-212.316z" fill="#fb8978"/><path d="m164.303 372.732 20.786 65.884-20.786 65.884h-62.315c0-83.414 62.315-131.768 62.315-131.768z" fill="#80dfb5"/><path d="m410.012 504.5h-62.315l-20.786-65.884 20.786-65.884s62.315 48.354 62.315 131.768z" fill="#80dfb5"/><path d="m306.124 372.732 20.787 65.884-20.787 65.884h-100.248l-20.787-65.884 20.787-65.884z" fill="#36d39a"/><path d="m128.395 482.815c0-32.062 17.877-63.882 43.663-85.503l-7.755-24.58s-62.315 48.354-62.315 131.769h28.057c-1.116-6.833-1.65-14.07-1.65-21.686z" fill="#36d39a"/><path d="m164.303 372.732h41.573v131.769h-41.573z" fill="#ffefe0"/><path d="m306.124 372.732h41.573v131.769h-41.573z" fill="#ffefe0"/><path d="m205.876 377.016v-4.285h-41.573v31.628c12.033-11.829 26.306-21.359 41.573-27.343z" fill="#fbe5c8"/><path d="m426.263 168.425c-4.07-13.391-15.62-23.403-29.53-24.949-8.833-.981-17.392-4.458-24.576-10.308l-14.945-12.181c-10.712-8.717-25.009-12.518-39.137-9.665-18.577 3.739-37.177-3.962-47.807-18.922-3.48-4.902-8.859-7.348-14.229-7.348-5.379 0-10.759 2.446-14.239 7.348-10.635 14.966-29.24 22.659-47.807 18.922-13.831-2.794-28.189.756-39.137 9.665l-14.945 12.181c-7.198 5.858-15.773 9.335-24.622 10.308-14.051 1.546-25.578 11.764-29.661 25.297-4.945 16.389-7.586 33.777-7.554 51.782.175 98.407 79.518 177.601 177.926 177.601 98.269 0 177.925-79.656 177.925-177.925 0-18.017-2.678-35.412-7.662-51.806z" fill="#ffdcce"/><g fill="#ffb2c1"><ellipse cx="155.428" cy="242.977" rx="37.109" ry="29.552"/><ellipse cx="356.572" cy="242.977" rx="37.109" ry="29.552"/></g><path d="m163.464 372.362c-31.867-39.717-50.943-90.137-50.943-145.02 0-31.099 6.136-60.761 17.239-87.861-4.607 2.108-9.496 3.447-14.472 3.995-14.051 1.546-25.578 11.764-29.661 25.297-.746 2.472-1.432 4.969-2.072 7.485-2.118-.303-4.278-.479-6.48-.479-25.099 0-45.445 20.346-45.445 45.445s20.346 45.445 45.445 45.445c2.364 0 4.679-.197 6.945-.546 11.882 44.897 40.783 82.737 79.444 106.239z" fill="#ffcabd"/></g><g><path d="m177.055 222.03c4.142 0 7.5-3.358 7.5-7.5v-15.17c0-4.142-3.358-7.5-7.5-7.5s-7.5 3.358-7.5 7.5v15.17c0 4.142 3.358 7.5 7.5 7.5z"/><path d="m334.945 222.03c4.142 0 7.5-3.358 7.5-7.5v-15.17c0-4.142-3.358-7.5-7.5-7.5s-7.5 3.358-7.5 7.5v15.17c0 4.142 3.358 7.5 7.5 7.5z"/><path d="m256 231.06c10.144 0 19.791-4.394 26.467-12.054 2.722-3.123 2.396-7.86-.726-10.582-3.123-2.721-7.861-2.396-10.582.727-3.827 4.391-9.353 6.91-15.16 6.91s-11.333-2.519-15.16-6.91c-2.722-3.123-7.459-3.447-10.582-.727-3.123 2.722-3.448 7.459-.726 10.582 6.678 7.661 16.325 12.054 26.469 12.054z"/><path d="m56.323 172.503c7.278-30.621 21.601-59.242 41.949-83.592 2.656-3.179 2.232-7.908-.946-10.564s-7.908-2.232-10.564.946c-25.329 30.312-41.955 66.794-48.185 105.645-8.945 9.485-14.445 22.252-14.445 36.288 0 10.468 3.066 20.228 8.33 28.452-1.607 39.424 11.005 54.754 22.169 68.298 8.908 10.808 15.945 19.344 15.945 40.032 0 19.847 7.301 47.956 40.971 71.758-9.433 19.914-17.058 45.158-17.058 74.735 0 4.142 3.358 7.5 7.5 7.5h308.023c4.142 0 7.5-3.358 7.5-7.5 0-29.577-7.625-54.822-17.058-74.735 33.67-23.801 40.971-51.91 40.971-71.757 0-20.688 7.037-29.224 15.945-40.032 11.164-13.544 23.776-28.874 22.169-68.298 5.263-8.225 8.33-17.984 8.33-28.452 0-14.038-5.502-26.807-14.449-36.292-7.326-45.756-28.618-87.354-61.693-120.428-41.597-41.599-96.902-64.507-155.727-64.507-54.798 0-107.266 20.208-147.741 56.9-3.068 2.782-3.301 7.525-.519 10.594 2.782 3.068 7.525 3.302 10.594.519 37.709-34.186 86.6-53.013 137.666-53.013 54.818 0 106.356 21.348 145.12 60.111 27.217 27.217 45.878 60.616 54.571 97.398-6.689-2.856-14.061-4.329-21.645-4.222-5.669-19.537-20.317-30.469-36.485-32.266-7.593-.844-14.74-3.841-20.666-8.667l-14.949-12.184c-12.737-10.366-29.267-14.448-45.351-11.2-15.07 3.037-30.981-2.915-40.212-15.912-9.955-14.022-30.784-13.963-40.697-.002-9.066 12.759-24.852 19.006-40.208 15.915-16.086-3.25-32.618.832-45.36 11.203l-14.941 12.177c-5.94 4.835-13.102 7.833-20.708 8.67-16.192 1.782-30.901 12.899-36.518 32.266-7.264-.104-14.675 1.249-21.628 4.216zm17.914 10.893c-2.443 12.126-3.684 24.79-3.662 37.173.023 12.578 1.308 25.555 4.042 38.517-19.837-1.3-35.486-17.831-35.486-37.86 0-19.847 15.387-36.37 35.106-37.83zm181.763 222.26c14.38 0 28.875-1.678 42.624-4.915v15.949l-42.624 23.676-42.625-23.676v-15.912c13.433 3.127 27.855 4.878 42.625 4.878zm42.624 58.385-27.178-15.096 27.178-15.096zm-126.821-78.406c8.555 4.351 17.434 8.021 26.573 10.981v100.384h-26.573zm41.573 48.213 27.179 15.097-27.179 15.097zm-94.813-17.51c-16.315-12.02-32.989-30.994-32.989-58.331 0-26.073-9.847-38.019-19.37-49.573-8.663-10.509-16.932-20.542-18.595-43.245 9.329 6.273 20.254 9.238 30.845 8.962 8.717 28.983 24.49 55.499 46.447 77.415 8.337 8.322 17.343 15.741 26.885 22.231-6.916 6.611-17.358 17.803-27.474 33.229-.092.141-.184.281-.277.423-1.842 2.829-3.675 5.78-5.472 8.889zm38.24-26.281v106.943h-47.141c1.9-40.837 20.082-78.435 47.141-106.943zm56.573 91.143 42.624-23.676 42.624 23.675v15.801h-85.248zm100.248-84.675c9.791-3.207 17.583-6.598 26.573-11.052v111.527h-26.573c0-15.22 0-89.533 0-100.475zm41.573 100.475v-106.918c26.356 27.383 45.174 65.807 47.136 106.918zm82.138-237.911c2.797-13.112 4.09-26.228 4.09-38.858 0-12.308-1.232-24.761-3.667-36.835 19.634 1.448 35.11 17.902 35.11 37.83.001 20.175-15.807 36.594-35.533 37.863zm-321.225-108.158c10.483-1.154 20.351-5.285 28.54-11.95l14.94-12.177c9.247-7.525 21.246-10.488 32.923-8.129 21.192 4.264 42.927-4.376 55.402-21.933 3.964-5.583 12.257-5.606 16.239.002 12.493 17.581 34.24 26.19 55.406 21.93 11.675-2.357 23.672.605 32.914 8.126 15.611 12.709 15.103 12.345 16.498 13.4 7.858 5.945 17.133 9.641 26.933 10.729 8.963.995 16.541 6.436 20.756 13.971 6.593 11.789 9.764 41.207 9.764 55.331 0 15.461-2.085 30.26-5.737 43.974-5.16 18.26-11.739 33.843-22.89 50.543-2.33 3.49-1.323 8.146 2.088 10.424 3.445 2.3 8.102 1.374 10.403-2.071 10.161-15.213 17.932-31.689 23.17-48.951 10.868.299 21.754-2.79 30.932-8.96-1.663 22.704-9.933 32.736-18.595 43.245-9.523 11.554-19.37 23.5-19.37 49.573 0 27.341-16.676 46.315-32.994 58.334-9.047-15.653-20.798-30.675-33.324-42.639 11.345-7.708 21.827-16.677 31.343-26.852 2.829-3.025 2.67-7.771-.355-10.601-3.02-2.823-7.773-2.692-10.616.35-20.388 21.817-46.527 38.414-76.461 47.189h-.001c-14.878 4.36-31.059 6.867-48.015 6.867-15.919 0-32.185-2.206-48.026-6.822-71.275-20.764-122.269-86.356-122.402-163.292-.03-16.756 2.41-33.607 7.234-49.602 3.307-10.961 12.453-18.815 23.301-20.009z"/></g></g></svg>