<svg id="Capa_1" enable-background="new 0 0 512 512" height="512" viewBox="0 0 512 512" width="512" xmlns="http://www.w3.org/2000/svg"><g><g><path d="m344.685 432.376s-37.302-41.81-37.302-126.841h-102.766c0 85.031-37.302 126.841-37.302 126.841l88.685 36.062z" fill="#a19dae"/><path d="m220.806 423.475c0-46.191 5.304-87.949 29.272-117.94h-45.461c0 85.031-37.302 126.841-37.302 126.841l56.58 23.007c-2.02-10.325-3.089-20.991-3.089-31.908z" fill="#938ea3"/><path d="m85.013 77.046s-23.813 236.35 170.987 236.35 170.987-236.35 170.987-236.35l-170.987-34.773z" fill="#b2b0bc"/><path d="m131.781 153.656c0-31.323.79-60.969 6.225-87.388l-52.993 10.778s-19.117 189.799 117.102 229.224c-43.044-36.822-70.334-91.527-70.334-152.614z" fill="#a19dae"/><g><path d="m319.526 196.898c-16.772.001-33.537-5.769-48.17-17.311-9.904-7.811-20.81-7.81-30.713 0-29.26 23.082-67.076 23.082-96.337 0-9.903-7.811-20.81-7.811-30.713 0-11.486 9.061-28.144 7.094-37.205-4.393-9.06-11.487-7.094-28.144 4.393-37.205 29.261-23.08 67.075-23.08 96.337 0 9.903 7.812 20.81 7.812 30.713 0 29.261-23.08 67.074-23.081 96.337 0 9.905 7.813 20.81 7.811 30.713 0 29.261-23.08 67.076-23.081 96.338 0 11.487 9.061 13.453 25.718 4.392 37.205-9.059 11.486-25.717 13.453-37.205 4.393-9.902-7.81-20.809-7.812-30.713 0-14.628 11.539-31.4 17.31-48.167 17.311z" fill="#80dfb5"/></g><path d="m387.589 474.653-4.114-12.46c-4.679-17.581-20.597-29.817-38.79-29.817h-177.37c-18.193 0-34.111 12.236-38.79 29.817l-4.114 12.46c-4.011 15.069 7.349 29.848 22.943 29.848h217.292c15.594-.001 26.954-14.779 22.943-29.848z" fill="#c7c5cb"/><path d="m426.987 7.5h-341.974c-19.204 0-34.773 15.568-34.773 34.773 0 19.204 15.568 34.773 34.773 34.773h341.973c19.204 0 34.773-15.568 34.773-34.773 0-19.205-15.568-34.773-34.772-34.773z" fill="#c7c5cb"/><path d="m163.788 7.5h-78.775c-19.205 0-34.773 15.568-34.773 34.773 0 19.205 15.568 34.773 34.773 34.773h51.052c4.146-26.519 12.204-50.177 27.723-69.546z" fill="#b2b0bc"/><path d="m131.781 153.656c0-11.205.101-22.194.48-32.899-17.863-.81-35.885 4.932-51.479 17.231-11.487 9.062-13.454 25.719-4.394 37.206 9.061 11.487 25.719 13.454 37.205 4.393 6.177-4.872 12.745-6.704 19.216-5.498-.679-6.718-1.028-13.535-1.028-20.433z" fill="#36d39a"/><path d="m221.046 432.376h-53.731c-18.193 0-34.111 12.236-38.79 29.817l-4.114 12.459c-4.011 15.07 7.349 29.848 22.943 29.848h94.655c-12.126-21.515-19.577-46.013-20.963-72.124z" fill="#b2b0bc"/></g><g><path d="m77.018 83.777c-.492 9.192-.907 26.145.805 47.045-.563.424-1.129.838-1.687 1.277-14.715 11.608-17.245 33.023-5.637 47.739 4.642 5.885 10.948 9.98 18.079 11.831 13.609 47.533 43.434 100.791 108.436 120.923-1.68 65.509-26.393 103.038-33.436 112.435-19.908 1.563-36.95 15.507-42.242 35.015l-4.048 12.259c-.046.14-.088.281-.126.423-5.278 19.83 9.652 39.276 30.19 39.276h217.292c20.52 0 35.473-19.429 30.19-39.276-.038-.142-.08-.283-.126-.423l-4.048-12.259c-5.293-19.514-22.345-33.46-42.261-35.016-7.07-9.353-31.745-46.603-33.417-112.433 65.011-20.134 94.836-73.404 108.442-120.941 6.914-1.803 13.317-5.783 18.073-11.813 11.635-14.749 9.116-36.103-5.636-47.739-.558-.44-1.125-.854-1.688-1.278 1.713-20.9 1.297-37.853.806-47.045 19.498-3.749 34.278-20.929 34.278-41.504.003-23.31-18.961-42.273-42.27-42.273h-247.57c-4.142 0-7.5 3.358-7.5 7.5s3.358 7.5 7.5 7.5h247.57c15.039 0 27.273 12.235 27.273 27.273s-12.234 27.272-27.273 27.272h-89.856c-4.142 0-7.5 3.358-7.5 7.5s3.358 7.5 7.5 7.5h82.858c.396 7.546.76 20.89-.217 37.337-29.97-14.881-63.489-10.333-89.536 10.218-7.09 5.592-14.131 5.752-21.424 0-31.933-25.188-73.394-25.424-105.626 0-7.208 5.686-14.215 5.685-21.423 0-26.224-20.688-59.752-25.006-89.535-10.217-.977-16.447-.612-29.792-.217-37.337h215.12c4.142 0 7.5-3.358 7.5-7.5 0-4.095-3.315-7.5-7.5-7.5h-222.118c-15.039 0-27.273-12.234-27.273-27.272s12.235-27.274 27.273-27.274h64.403c4.142 0 7.5-3.358 7.5-7.5s-3.358-7.5-7.5-7.5h-64.403c-23.309 0-42.273 18.963-42.273 42.273 0 20.575 14.78 37.755 34.278 41.504zm299.209 380.345c.038.142.08.283.126.423l4.038 12.23c2.598 10.248-5.139 20.225-15.745 20.225h-217.292c-10.609 0-18.342-9.98-15.745-20.226l4.038-12.23c.046-.14.088-.281.126-.423 3.8-14.275 16.769-24.245 31.54-24.246h.003 177.37.003c14.77.002 27.739 9.972 31.538 24.247zm-46.092-39.247h-148.27c10.882-17.5 27.999-53.408 30.045-108.412 14.553 3.119 29.559 4.432 44.09 4.432 14.633 0 29.61-1.329 44.091-4.432 2.046 55.005 19.162 90.913 30.044 108.412zm33.782-157.687c-29.44 28.126-67.684 38.708-107.917 38.708-40.24 0-78.472-10.577-107.917-38.708-19.464-18.595-34.16-43.846-43.76-75.158 5.128-1.095 9.909-3.395 13.915-6.554 7.208-5.686 14.215-5.685 21.423 0 31.953 25.206 73.416 25.41 105.627 0 7.473-5.897 14.506-5.456 21.423 0 31.979 25.225 73.626 25.244 105.627 0 7.273-5.737 14.317-5.605 21.423 0 4.005 3.158 8.884 5.479 13.916 6.553-9.6 31.312-24.296 56.564-43.76 75.159zm65.805-96.639c-6.477 8.211-18.484 9.604-26.667 3.151-13.511-10.421-27.81-9.623-40.007-.002-26.51 20.912-60.483 20.953-87.047-.001-12.236-9.651-26.833-10.387-40.002 0-25.988 20.503-60.202 21.176-87.048 0-9.211-7.265-19.955-9.663-30.701-5.431-8.147 3.21-9.241 6.707-15.382 8.632-7.303 2.286-15.542.051-20.591-6.351-6.485-8.222-5.072-20.187 3.149-26.672 26.016-20.521 60.187-21.175 87.047 0 12.674 10.003 27.273 10.043 40.003.001 25.988-20.5 60.194-21.188 87.047 0 12.674 9.998 27.254 10.056 40.002 0 27.135-21.398 61.295-20.314 87.049 0 8.24 6.501 9.651 18.431 3.148 26.673z"/><path d="m188.885 227.179c-4.142 0-7.5 3.358-7.5 7.5v12.897c0 4.142 3.358 7.5 7.5 7.5s7.5-3.358 7.5-7.5v-12.897c0-4.142-3.358-7.5-7.5-7.5z"/><path d="m323.115 227.179c-4.142 0-7.5 3.358-7.5 7.5v12.897c0 4.142 3.358 7.5 7.5 7.5s7.5-3.358 7.5-7.5v-12.897c0-4.142-3.358-7.5-7.5-7.5z"/><path d="m278.622 241.538c-3.122-2.721-7.86-2.396-10.582.727-3.04 3.488-7.428 5.489-12.04 5.489s-9.001-2.001-12.041-5.489c-2.721-3.123-7.459-3.448-10.582-.727-3.123 2.722-3.448 7.459-.727 10.582 5.889 6.758 14.399 10.634 23.349 10.634 8.949 0 17.459-3.876 23.349-10.634 2.722-3.123 2.397-7.861-.726-10.582z"/></g></g></svg>