<svg id="Capa_1" enable-background="new 0 0 512 512" height="512" viewBox="0 0 512 512" width="512" xmlns="http://www.w3.org/2000/svg"><g><g><path d="m278.061 375.834-42.723 5.81c.025.19 2.423 19.239-2.217 41.847-3.773 18.38-10.926 33.575-21.353 45.422-8.465 9.618-6.38 24.543 4.184 31.793 8.939 6.135 21.109 4.718 28.258-3.434 15.607-17.795 26.305-40.333 31.461-66.684 5.763-29.448 2.53-53.735 2.39-54.754z" fill="#80dfb5"/><path d="m448.147 110.822c-17.514-17.464-42.023-23.605-64.468-18.474 5.062-22.464-1.16-46.954-18.669-64.411-27.118-27.043-71.029-26.98-98.073.151-4.096 4.109-7.722 8.889-10.896 14.208-24.647 41.245-22.508 115.185-7.559 165.025 1.437 4.799 3.99 9.071 7.358 12.54l.163.163c.044-.056.094-.107.157-.157 3.469-3.369 7.741-5.922 12.54-7.358 49.839-14.949 123.773-17.094 165.025 7.559 5.47-3.249 10.363-6.963 14.56-11.172 27.049-27.126 26.98-71.031-.138-98.074z" fill="#b0ebce"/><path d="m255.841 219.86c-3.369-3.469-5.922-7.741-7.358-12.54-14.949-49.839-17.088-123.779 7.559-165.025-3.243-5.464-6.963-10.363-11.172-14.56-27.125-27.037-71.036-26.974-98.079.144-17.452 17.514-23.599 42.017-18.474 64.468-22.464-5.062-46.947 1.154-64.405 18.662-27.037 27.125-26.974 71.036.144 98.079 4.109 4.096 8.889 7.722 14.208 10.896 41.258 24.647 115.198 22.508 165.037 7.559 4.786-1.437 9.058-3.99 12.527-7.358.056-.056.107-.107.169-.157-.056-.055-.106-.105-.156-.168z" fill="#80dfb5"/><path d="m235.338 381.644c.025.19 2.423 19.238-2.217 41.847-2.86 13.936-7.669 26.036-14.37 36.239 2.161-.505 4.304-1.072 6.42-1.72 14.332-4.388 29.315-5.638 44.005-3.712 2.7-7.507 4.873-15.419 6.495-23.71 5.762-29.448 2.53-53.735 2.389-54.753z" fill="#36d39a"/><path d="m383.673 347.704c22.47 5.056 46.96-1.154 64.411-18.669 27.043-27.118 26.98-71.029-.144-98.066-4.115-4.103-8.895-7.728-14.215-10.903-41.251-24.653-115.185-22.508-165.025-7.559-4.799 1.437-9.071 3.99-12.54 7.358-.063.05-.113.1-.157.157.056.056.107.107.157.169l.006.006c3.369 3.469 5.909 7.741 7.346 12.527 14.949 49.839 17.094 123.773-7.553 165.031 3.243 5.464 6.963 10.363 11.172 14.56 27.118 27.043 71.03 26.98 98.073-.151 17.459-17.506 23.6-42.015 18.469-64.46z" fill="#80dfb5"/><path d="m255.96 397.757c24.647-41.258 22.501-115.192 7.553-165.031-1.436-4.786-3.977-9.058-7.346-12.527l-.169-.169c-.063.05-.113.1-.169.157-3.469 3.369-7.741 5.922-12.527 7.358-49.839 14.949-123.779 17.088-165.037-7.559-5.464 3.243-10.363 6.963-14.56 11.172-27.037 27.125-26.968 71.029.151 98.073 17.508 17.458 42.017 23.599 64.468 18.474-5.062 22.464 1.154 46.947 18.662 64.405 27.125 27.049 71.029 26.98 98.073-.138 4.101-4.116 7.727-8.896 10.901-14.215z" fill="#b0ebce"/><path d="m107.633 231.966c-10.852-2.932-20.819-6.873-29.369-11.98-5.464 3.243-10.363 6.963-14.56 11.172-27.037 27.125-26.968 71.029.151 98.072 17.508 17.458 42.017 23.599 64.468 18.474-5.062 22.464 1.154 46.947 18.662 64.405 27.125 27.049 71.029 26.98 98.073-.138 3.735-3.746 7.07-8.048 10.033-12.802-72.136-29.02-127.485-90.948-147.458-167.203z" fill="#80dfb5"/><path d="m99.544 168.935c0-27.354 4.439-53.669 12.616-78.278-17.494.208-34.919 6.985-48.249 20.353-27.037 27.125-26.974 71.036.144 98.079 4.109 4.096 8.889 7.722 14.208 10.896 8.55 5.107 18.518 9.048 29.369 11.98-5.271-20.127-8.088-41.248-8.088-63.03z" fill="#36d39a"/></g><g><path d="m321.646 83.85 7.799-7.799c2.929-2.929 2.929-7.678 0-10.607s-7.678-2.929-10.607 0l-7.799 7.799c-2.929 2.929-2.929 7.678 0 10.608 2.929 2.928 7.678 2.929 10.607-.001z"/><path d="m402.818 165.022 7.799-7.798c2.929-2.929 2.929-7.678 0-10.608-2.929-2.929-7.678-2.929-10.607 0l-7.799 7.799c-2.929 2.929-2.929 7.678 0 10.608 2.929 2.928 7.678 2.929 10.607-.001z"/><path d="m368.374 137.084c4.133-.284 7.253-3.864 6.969-7.997s-3.862-7.251-7.997-6.969c-3.635.25-7.191-1.079-9.758-3.647-2.567-2.567-3.896-6.123-3.646-9.757.284-4.133-2.837-7.713-6.969-7.997-4.13-.282-7.713 2.837-7.997 6.969-.546 7.961 2.371 15.759 8.005 21.392 5.636 5.637 13.433 8.552 21.393 8.006z"/><path d="m58.528 334.526c16.234 16.188 38.367 24.103 60.81 22.147-1.892 22.441 6.09 44.549 22.325 60.737 14.511 14.471 33.776 22.435 54.262 22.435h.115c9.06-.013 17.877-1.588 26.149-4.589-3.765 11.198-9.141 20.819-16.073 28.695-11.403 12.957-8.731 33.121 5.571 42.934 12.153 8.341 28.544 6.273 38.143-4.672 16.505-18.819 27.626-42.256 33.073-69.66 10.225 4.901 21.498 7.496 33.171 7.495h.119c20.529-.031 39.818-8.056 54.311-22.597 16.195-16.242 24.11-38.383 22.142-60.828 16.933 1.367 34.082-2.889 48.336-12.211 3.467-2.267 4.439-6.915 2.172-10.382s-6.916-4.44-10.382-2.172c-13.877 9.076-31.176 12.179-47.463 8.514-5.378-1.207-10.188 3.613-8.958 8.99 4.773 20.875-1.383 42.369-16.469 57.499-11.665 11.703-27.188 18.161-43.71 18.186-20.033.031-39.338-9.464-51.486-27.504-.003-.004-.005-.008-.008-.011 13.174-24.686 17.393-56.636 17.458-84.497.04-16.81-1.423-34.246-4.202-50.844-3.152-18.829-7.327-31.881-7.263-31.668-.975-3.241-2.554-6.605-4.093-9.087 10.901-5.782 59.812-16.357 107.309-11.179 18.127 2.05 40.334 6.877 55.983 16.227h.001c1.506 1.018 7.069 4.095 12.768 9.776 20.518 20.451 24.156 51.89 8.848 76.453-2.191 3.515-1.118 8.141 2.398 10.333s8.142 1.117 10.332-2.399c9.042-14.507 12.997-31.901 11.138-48.978-1.889-17.346-9.746-33.694-22.126-46.034-1.943-1.937-4.051-3.795-6.296-5.575 2.382-1.877 4.611-3.842 6.656-5.893 14.497-14.537 22.465-33.849 22.435-54.377-.03-20.526-8.052-39.813-22.587-54.309-16.239-16.193-38.371-24.111-60.81-22.149 1.891-22.442-6.093-44.55-22.331-60.741-14.51-14.468-33.773-22.431-54.258-22.431-.039 0-.08 0-.119 0-20.53.031-39.818 8.056-54.312 22.597-1.934 1.941-3.79 4.047-5.568 6.288-1.876-2.38-3.841-4.609-5.894-6.657-30.013-29.915-78.771-29.843-108.693.162-16.188 16.247-24.104 38.387-22.143 60.828-17.373-1.417-34.913 3.094-49.41 12.927-3.428 2.325-4.322 6.99-1.997 10.418s6.99 4.323 10.418 1.997c14.048-9.529 31.661-12.841 48.321-9.086 5.377 1.211 10.188-3.611 8.961-8.986-4.765-20.874 1.394-42.373 16.474-57.507 24.081-24.147 63.324-24.205 87.478-.129 2.759 2.751 5.35 5.923 7.733 9.462-23.913 44.708-20.591 118.358-6.01 166.973.971 3.247 2.516 6.56 4.105 9.121-4.591 2.5-19.603 5.877-24.3 6.878-57.15 12.172-112.629 3.832-139.005-11.924-4.892-2.919-9.184-6.205-12.756-9.767-20.161-20.105-24.027-51.183-9.4-75.577 2.131-3.553.977-8.16-2.576-10.29-3.551-2.13-8.159-.977-10.29 2.575-18.177 30.315-13.377 68.933 11.674 93.914 1.941 1.934 4.047 3.79 6.289 5.568-2.38 1.876-4.609 3.841-6.657 5.895-29.911 30.009-29.836 78.765.167 108.686zm137.49 90.317c-16.492.058-32.063-6.389-43.763-18.056-15.128-15.085-21.349-36.561-16.642-57.449 1.214-5.385-3.618-10.187-8.986-8.961-20.883 4.767-42.381-1.391-57.507-16.474-24.148-24.081-24.208-63.321-.135-87.472 2.752-2.76 5.923-5.351 9.462-7.734 40.263 21.536 102.467 20.447 146.984 11.062 8.939-1.881 21.807-4.638 29.114-9.158 3.191 5.996 7.498 26.679 8.796 34.177 2.749 15.876 3.958 31.499 3.911 46.27-.112 35.082-7.304 65.363-17.749 82.849-.001.001-.001.002-.002.003-11.779 19.742-31.668 30.911-53.483 30.943zm73.181-.758c-4.154 25.408-13.869 49.107-30.647 68.236-4.622 5.269-12.523 6.213-18.377 2.195-6.751-4.634-8.376-14.317-2.798-20.655 11.139-12.656 18.846-28.841 22.914-48.117 5.025-3.435 10.864-8.771 15.634-14.768 3.946 4.999 8.429 9.389 13.274 13.109zm46.743-408.924h.095c16.485 0 31.989 6.409 43.665 18.052 15.132 15.088 21.356 36.567 16.649 57.455-.566 2.513.197 5.142 2.022 6.96 1.825 1.819 4.455 2.574 6.967 2 20.874-4.773 42.373 1.386 57.504 16.475 11.698 11.666 18.155 27.189 18.179 43.709.024 16.521-6.388 32.063-18.056 43.763-2.748 2.756-5.919 5.347-9.464 7.732-17.388-9.274-37.735-13.908-57.563-16.037-26.834-2.842-55.729-1.259-81.87 3.503-9.5 1.73-28.49 5.594-36.655 10.628-1.209-2.251-1.796-4.36-1.766-4.26-18.796-62.666-13.254-141.864 16.584-171.794 11.664-11.702 27.187-18.161 43.709-18.186z"/></g></g></svg>