<svg id="Capa_1" enable-background="new 0 0 512 512" height="512" viewBox="0 0 512 512" width="512" xmlns="http://www.w3.org/2000/svg"><g><g><circle cx="256" cy="74.14" fill="#b0ebce" r="61.839"/><path d="m313.493 51.933h-35.286v-31.896c0-6.924-5.613-12.537-12.537-12.537h-19.34c-6.924 0-12.537 5.613-12.537 12.537v31.896h-35.286c-6.924 0-12.537 5.613-12.537 12.537v19.34c0 6.924 5.613 12.537 12.537 12.537h35.286v84.455h44.414v-84.455h35.286c6.924 0 12.537-5.613 12.537-12.537v-19.34c0-6.924-5.613-12.537-12.537-12.537z" fill="#c7c5cb"/><path d="m256 196.784-197.213 149.765v157.951h143.64l53.573-24.93 53.573 24.93h143.64v-157.951z" fill="#c7c5cb"/><path d="m251.345 55.695c0-17.121 3.539-33.414 9.916-48.195h-14.931c-6.924 0-12.537 5.613-12.537 12.537v31.896h-35.286c-6.924 0-12.537 5.613-12.537 12.537v19.34c0 6.924 5.613 12.537 12.537 12.537h35.286v84.455h44.414v-32.318c-17.824-24.704-26.862-58.386-26.862-92.789z" fill="#b2b0bc"/><path d="m110.498 342.979c0-12.767.881-25.327 2.55-37.636l-54.261 41.206v157.951h96.032c-29.233-45.502-44.321-101.266-44.321-161.521z" fill="#b2b0bc"/><path d="m494.029 319.65-217.62-156.065c-12.2-8.748-28.618-8.748-40.817 0l-217.621 156.065c-9.797 7.026-12.044 20.664-5.018 30.461l15.373 21.437c7.026 9.797 20.664 12.044 30.461 5.018l197.213-141.43 197.212 141.43c9.797 7.026 23.435 4.78 30.461-5.018l15.374-21.437c7.026-9.797 4.78-23.435-5.018-30.461z" fill="#b0ebce"/><path d="m272.218 329.767c-9.131-8.527-23.305-8.527-32.436 0-23.828 22.251-37.355 53.391-37.355 85.993v88.74h107.146v-88.74c0-32.602-13.527-63.743-37.355-85.993z" fill="#b2b0bc"/><path d="m142.804 392.369c-6.546-7.18-17.848-7.18-24.394 0-8.586 9.417-13.345 21.701-13.345 34.445v18.509c0 7.052 5.717 12.769 12.769 12.769h25.548c7.052 0 12.769-5.717 12.769-12.769v-18.509c-.001-12.744-4.761-25.028-13.347-34.445z" fill="#b0ebce"/><path d="m369.196 392.369c6.546-7.18 17.848-7.18 24.394 0 8.586 9.417 13.345 21.701 13.345 34.445v18.509c0 7.052-5.717 12.769-12.769 12.769h-25.548c-7.052 0-12.769-5.717-12.769-12.769v-18.509c.001-12.744 4.761-25.028 13.347-34.445z" fill="#b0ebce"/><g fill="#80dfb5"><path d="m114.732 396.92c-6.249 8.666-9.667 19.112-9.667 29.894v18.508c0 7.052 5.717 12.769 12.769 12.769h13.393c-7.551-19.306-13.062-39.799-16.495-61.171z"/><path d="m365.518 396.92c-6.249 8.666-9.667 19.112-9.667 29.894v18.508c0 7.052 5.717 12.769 12.769 12.769h13.393c-7.551-19.306-13.062-39.799-16.495-61.171z"/><path d="m130.742 238.777-112.771 80.873c-9.797 7.026-12.044 20.664-5.018 30.461l15.373 21.437c7.026 9.798 20.664 12.044 30.461 5.018l51.756-37.116c.444-35.571 7.574-69.526 20.199-100.673z"/></g></g><g><path d="m112.858 387.316c-9.868 10.823-15.303 24.851-15.303 39.498v18.508c0 11.176 9.092 20.269 20.269 20.269h25.548c11.176 0 20.269-9.093 20.269-20.269v-18.508c0-14.647-5.435-28.675-15.303-39.498-9.498-10.417-25.95-10.453-35.48 0zm35.782 39.498v18.508c0 2.905-2.363 5.269-5.269 5.269h-25.548c-2.905 0-5.269-2.364-5.269-5.269v-18.508c0-10.899 4.044-21.338 11.388-29.393 3.547-3.891 9.707-3.952 13.31 0 7.344 8.055 11.388 18.494 11.388 29.393z"/><path d="m368.61 465.591h25.548c11.176 0 20.269-9.093 20.269-20.269v-18.508c0-14.647-5.435-28.675-15.303-39.498-9.498-10.417-25.95-10.453-35.479 0-9.868 10.823-15.303 24.851-15.303 39.498v18.508c-.001 11.177 9.092 20.269 20.268 20.269zm-5.269-38.777c0-10.899 4.044-21.338 11.388-29.393 3.547-3.891 9.707-3.952 13.31 0 7.344 8.055 11.388 18.493 11.388 29.393v18.508c0 2.905-2.363 5.269-5.269 5.269h-25.548c-2.905 0-5.269-2.364-5.269-5.269z"/><path d="m285.698 136.765c14.68-6.974 26.501-18.924 33.295-33.706 8.375-2.401 14.528-10.113 14.528-19.249v-19.34c0-9.136-6.152-16.847-14.527-19.249-7.185-15.647-19.949-28.092-35.797-34.857-3.418-6.172-9.995-10.364-17.536-10.364h-19.34c-7.542 0-14.118 4.192-17.537 10.365-15.848 6.765-28.613 19.211-35.798 34.857-8.374 2.402-14.526 10.113-14.526 19.249v19.34c0 9.136 6.153 16.848 14.529 19.249 6.794 14.781 18.615 26.731 33.295 33.706v24.259l-106.835 76.615c-3.366 2.414-4.138 7.1-1.724 10.465 2.414 3.366 7.101 4.139 10.465 1.724l109.964-78.859 1.798-1.29c9.703-6.957 22.604-6.793 32.077 0 12.265 8.795 205.117 147.098 217.62 156.064 6.435 4.615 7.91 13.559 3.293 19.996l-15.374 21.437c-4.615 6.435-13.559 7.909-19.996 3.293l-87.571-62.801c-3.367-2.414-8.051-1.642-10.465 1.724s-1.642 8.052 1.724 10.465l84.443 60.558v116.584h-128.64v-81.241c0-34.552-14.483-67.893-39.737-91.475-11.964-11.172-30.709-11.172-42.673 0-25.253 23.582-39.737 56.923-39.737 91.475v81.241h-128.638v-116.583l189.712-136.051 80.563 57.774c3.351 2.403 8.04 1.657 10.465-1.724 2.414-3.366 1.642-8.052-1.724-10.466l-84.933-60.909c-2.612-1.874-6.129-1.874-8.741 0l-197.213 141.43c-6.437 4.615-15.381 3.142-19.996-3.294l-15.373-21.437c-4.604-6.421-3.127-15.392 3.293-19.996l81.172-58.211c3.366-2.414 4.138-7.099 1.724-10.465s-7.1-4.138-10.465-1.724l-81.172 58.211c-13.142 9.425-16.166 27.785-6.741 40.927l15.373 21.437c6.833 9.529 18.232 13.717 29.056 11.766v116.815c0 4.142 3.358 7.5 7.5 7.5h394.426c4.14 0 7.5-3.358 7.5-7.5l-.001-116.834c11.036 1.982 22.367-2.42 29.056-11.747l15.374-21.438c9.447-13.171 6.433-31.479-6.742-40.927l-212.693-152.53zm-75.78 360.235v-81.241c0-30.41 12.748-59.756 34.974-80.511 6.224-5.812 15.975-5.812 22.198 0 22.227 20.755 34.974 50.1 34.974 80.511v81.241zm75.78-377.369v-15.784h15.784c-4.113 6.289-9.495 11.671-15.784 15.784zm15.79-75.198h-15.79v-15.798c6.293 4.114 11.675 9.496 15.79 15.798zm-55.167-29.433h19.34c2.827 0 5.037 2.351 5.037 5.037v31.896c0 4.142 3.358 7.5 7.5 7.5 5.086.001-15.492-.005 35.386.01 2.73.054 4.938 2.284 4.938 5.027v19.34c0 2.519-1.786 4.858-5.24 5.037h-35.083c-4.142 0-7.5 3.358-7.5 7.5v35.507 20.289c-4.679-1.682-9.509-2.624-14.704-2.624-.001 0-.002 0-.003 0-5.054 0-10.2.953-14.706 2.624v-20.289-35.507c0-4.142-3.358-7.5-7.5-7.5h-35.083c-3.423-.177-5.241-2.485-5.241-5.037v-19.34c0-2.52 1.783-4.854 5.232-5.037h35.092c4.142 0 7.5-3.358 7.5-7.5v-31.896c-.002-2.69 2.209-5.037 5.035-5.037zm-20.037 13.635v15.798h-15.791c4.116-6.302 9.496-11.683 15.791-15.798zm-15.785 75.212h15.785v15.784c-6.289-4.113-11.671-9.495-15.785-15.784z"/></g></g></svg>