<svg id="Capa_1" enable-background="new 0 0 512 512" height="512" viewBox="0 0 512 512" width="512" xmlns="http://www.w3.org/2000/svg"><g><g><circle cx="122.677" cy="364.842" fill="#c1e9fa" r="89.504"/><circle cx="389.323" cy="364.842" fill="#c1e9fa" r="89.504"/><path d="m328.174 64.733c-20.668-7.783-38.144-22.664-48.701-43.03-9.814-18.935-37.13-18.939-46.946 0-10.536 20.325-27.989 35.23-48.701 43.03-59.311 22.336-105.647 71.366-124.27 132.382l10.251 60.61h372.386l10.251-60.61c-18.623-61.016-64.959-110.046-124.27-132.382z" fill="#b0ebce"/><path d="m128.036 251.989c0-102.233 65.709-189.108 157.193-220.727-2.088-3.039-4.024-6.217-5.756-9.559-9.814-18.935-37.13-18.939-46.946 0-10.536 20.325-27.989 35.23-48.701 43.03-59.311 22.336-105.647 71.366-124.27 132.382l10.251 60.61h58.302c-.046-1.906-.073-3.818-.073-5.736z" fill="#80dfb5"/><path d="m122.677 275.338c-21.167 0-40.614 7.352-55.937 19.636 2.113 10.233 5.09 20.199 8.938 29.842v.327l2.575 5.808c2.779 6.269 5.969 12.44 9.469 18.322 16.53 27.833 40.851 50.914 70.332 66.745 8.874 4.766 18.182 8.838 27.809 12.214 16.257-16.205 26.318-38.622 26.318-63.39 0-49.432-40.072-89.504-89.504-89.504z" fill="#a7e0f5"/><path d="m389.323 275.338c-49.432 0-89.504 40.072-89.504 89.504 0 24.768 10.061 47.185 26.318 63.39 9.628-3.376 18.935-7.449 27.81-12.214 29.481-15.832 53.802-38.912 70.319-66.725 3.512-5.903 6.701-12.074 9.48-18.342l2.575-5.828v-.306c3.849-9.644 6.825-19.609 8.939-29.843-15.323-12.283-34.77-19.636-55.937-19.636z" fill="#a7e0f5"/><path d="m406.322 318.791v-.02l9.056-96.502.01-.01 30.849-22.297c1.952-1.409 4.055-2.344 6.208-2.847 8.925-2.103 18.614 3.23 20.858 12.959 8.864 38.446 13.995 108.717-66.981 108.717z" fill="#ffb2c1"/><path d="m338.188 390.409s58.356 30.106 58.356 114.091h-281.088c0-83.984 58.356-114.091 58.356-114.091z" fill="#ffc9d3"/><path d="m338.188 390.409h-164.376s-11.793 6.089-24.776 20.416c2.953 1.802 5.95 3.545 9.018 5.193 29.229 15.696 63.099 23.993 97.946 23.993s68.717-8.297 97.946-23.993c3.067-1.647 6.065-3.391 9.018-5.192-12.982-14.328-24.776-20.417-24.776-20.417z" fill="#ffb2c1"/><path d="m415.387 222.259-.033-.153c-2.392-11-7.834-21.13-15.798-29.086-17.883-17.865-42.578-28.908-69.854-28.908-21.205 0-40.849 6.676-56.946 18.044-10.074 7.114-23.438 7.114-33.512 0-16.097-11.368-35.741-18.044-56.946-18.044-27.276 0-51.97 11.042-69.854 28.908-7.964 7.956-13.406 18.086-15.798 29.086l-.033.153c-2.425 11.189-3.703 22.81-3.703 34.723 0 22.468 4.548 43.255 12.768 61.789v.02c2.324 5.242 4.94 10.293 7.838 15.163 27.881 46.948 81.239 76.056 142.484 76.056s114.603-29.108 142.484-76.056c2.898-4.87 5.514-9.921 7.838-15.163v-.02c8.22-18.534 12.768-39.321 12.768-61.789 0-11.913-1.278-23.534-3.703-34.723z" fill="#ffc9d3"/><g><g><g><ellipse cx="171.04" cy="299.437" fill="#ff889e" rx="31.349" ry="24.965"/></g><g><ellipse cx="340.96" cy="299.437" fill="#ff889e" rx="31.349" ry="24.965"/></g></g></g><path d="m128.036 251.989c0-27.82 4.876-54.5 13.802-79.243-11.016 4.947-20.962 11.852-29.394 20.274-7.964 7.956-13.406 18.085-15.798 29.086l-.033.153-30.849-22.297c-1.952-1.408-4.055-2.344-6.208-2.847-8.925-2.103-18.614 3.229-20.858 12.959-8.864 38.446-13.996 108.716 66.981 108.716 2.324 5.242 4.94 10.293 7.838 15.163 14.134 23.8 34.823 43.003 59.76 56.166-28.433-38.683-45.241-86.441-45.241-138.13z" fill="#ffb2c1"/></g><g><path d="m174.386 279.765c4.142 0 7.5-3.358 7.5-7.5 0-4.092 3.329-7.422 7.422-7.422 4.092 0 7.421 3.329 7.421 7.422 0 4.142 3.358 7.5 7.5 7.5s7.5-3.358 7.5-7.5c0-12.364-10.058-22.422-22.422-22.422s-22.422 10.058-22.422 22.422c.001 4.142 3.359 7.5 7.501 7.5z"/><path d="m307.771 279.765c4.142 0 7.5-3.358 7.5-7.5 0-4.092 3.329-7.422 7.422-7.422s7.422 3.329 7.422 7.422c0 4.142 3.358 7.5 7.5 7.5s7.5-3.358 7.5-7.5c0-12.364-10.058-22.422-22.422-22.422s-22.422 10.058-22.422 22.422c-.001 4.142 3.357 7.5 7.5 7.5z"/><path d="m256 304.416c8.235 0 16.064-3.566 21.483-9.784 2.721-3.123 2.396-7.861-.727-10.582-3.122-2.722-7.861-2.397-10.582.727-2.568 2.948-6.277 4.638-10.174 4.638s-7.605-1.691-10.174-4.639c-2.723-3.123-7.459-3.448-10.582-.727-3.123 2.722-3.448 7.459-.727 10.582 5.419 6.219 13.249 9.785 21.483 9.785z"/><path d="m457.257 423.593c3.347 2.442 8.038 1.707 10.48-1.639 12.166-16.676 18.597-36.427 18.597-57.116 0-21.64-7.19-42.458-20.348-59.413 1.392-1.428 2.738-2.904 3.99-4.478 20.496-25.759 17.1-64.556 10.641-92.566-2.569-11.143-12.084-18.553-22.83-19.178-20.273-60.151-67.348-109.05-126.968-131.502-19.415-7.312-35.285-21.327-44.686-39.464-12.601-24.313-47.662-24.32-60.265 0-9.401 18.137-25.271 32.152-44.686 39.464-21.193 7.981-40.933 19.289-58.673 33.608-3.223 2.602-3.727 7.324-1.125 10.547s7.324 3.727 10.547 1.125c16.494-13.314 34.843-23.826 54.537-31.243 22.887-8.618 41.609-25.168 52.718-46.599 7.019-13.542 26.592-13.58 33.63 0 11.109 21.43 29.831 37.98 52.718 46.598 55.086 20.745 98.652 65.77 117.687 121.212-1.339.84-6.249 4.492-23.717 17.076-10.938-27.659-46.954-53.423-89.798-53.423-22.096 0-43.285 6.715-61.274 19.418-7.435 5.25-17.425 5.25-24.86 0-18.179-12.838-39.45-19.418-61.274-19.418-36.273 0-76.694 20.414-89.798 53.423-23.321-16.831-22.377-16.23-23.717-17.075 8.881-25.844 23.322-50.002 42.018-70.209 2.814-3.041 2.629-7.786-.411-10.599-3.041-2.813-7.785-2.629-10.599.411-20.377 22.023-36.055 48.417-45.578 76.65-10.74.622-20.259 8.029-22.829 19.176-6.459 28.01-9.855 66.807 10.641 92.566 1.252 1.574 2.598 3.05 3.99 4.478-13.158 16.956-20.348 37.774-20.348 59.413 0 50.394 38.627 91.93 87.827 96.57-3.394 12.49-5.541 26.81-5.541 43.092 0 4.142 3.358 7.5 7.5 7.5h281.096c4.142 0 7.5-3.358 7.5-7.5 0-16.285-2.149-30.609-5.543-43.1 16.501-1.548 32.238-7.248 45.964-16.749 3.406-2.357 4.257-7.029 1.899-10.435-2.357-3.406-7.03-4.257-10.435-1.899-12.525 8.669-27.033 13.61-42.2 14.412-11.437-29.317-29.678-46.962-41.276-55.838 25.614-15.924 46.039-38.455 58.701-64.688 14.969-.546 30.289-3.592 43.119-11.438 11.042 14.303 17.058 31.848 17.058 50.073 0 17.49-5.434 34.184-15.715 48.275-2.443 3.349-1.71 8.04 1.636 10.482zm8.743-211.842c4.68 20.298 9.895 57.664-7.762 79.856-9.823 12.346-24.888 17.59-40.656 19.138 5.729-16.217 9.013-34.35 9.013-53.77v-.001c0-10.734-1.081-21.72-2.898-31.472l26.934-19.467c5.723-4.132 13.793-1.118 15.369 5.716zm-283.704-40.148c19.579 0 37.779 6.191 52.621 16.671 12.61 8.905 29.556 8.905 42.165 0 15.444-10.906 33.641-16.671 52.621-16.671 24.385 0 47.311 9.488 64.555 26.715 11.288 11.275 13.278 24.144 13.803 25.522 2.34 10.796 3.533 21.947 3.533 33.135 0 56.03-29.743 102.124-76.905 126.785-24.485 12.803-51.924 18.748-78.69 18.748-26.767 0-54.207-5.946-78.69-18.748-42.452-22.198-71.848-62.522-76.303-113.203-1.438-16.385-.025-34.149 2.963-46.866 2.111-9.709 6.873-18.484 13.771-25.374 17-16.983 39.842-26.714 64.556-26.714zm-136.296 40.148c1.574-6.826 9.642-9.849 15.365-5.719l26.939 19.471c-1.956 10.5-2.898 21.37-2.898 31.472.127 17.966 2.592 35.654 9.013 53.771-15.803-1.551-30.852-6.816-40.656-19.138-17.658-22.193-12.443-59.559-7.763-79.857zm-5.334 153.087c0-18.225 6.016-35.77 17.058-50.073 12.893 7.884 28.196 10.894 43.119 11.438 12.976 26.891 33.647 49.109 58.701 64.688-11.598 8.876-29.84 26.52-41.277 55.837-43.179-2.294-77.601-38.148-77.601-81.89zm302.333 132.162v-34.346c0-4.142-3.358-7.5-7.5-7.5s-7.5 3.358-7.5 7.5v34.346h-143.997v-34.346c0-4.142-3.358-7.5-7.5-7.5s-7.5 3.358-7.5 7.5v34.346h-45.887c.624-14.258 3.066-27.549 7.265-39.827.053-.13.121-.251.167-.384 11.99-34.643 35.196-52.342 43.577-57.816 25.403 12.479 53.913 18.535 81.875 18.535 27.738 0 56.288-5.962 81.891-18.543 11.137 7.233 48.196 35.88 50.99 98.035z"/></g></g></svg>