<svg id="Capa_1" enable-background="new 0 0 512 512" height="512" viewBox="0 0 512 512" width="512" xmlns="http://www.w3.org/2000/svg"><g><g><path d="m196.056 10.712h-15.742c-7.876 0-14.261 6.385-14.261 14.261v41.9h44.264v-41.9c0-7.876-6.385-14.261-14.261-14.261z" fill="#edb798"/><g><g><path d="m233.511 108.835v204.234h69.79c22.55-33.57 36.32-78.38 36.32-127.59 0-27.292-4.241-53.226-11.861-76.644l-41.194-24.417z" fill="#ffefe0"/></g></g><path d="m233.511 253.46v59.609h69.79c18.876-28.101 31.594-64.08 35.239-103.92-26.872 27.052-63.98 43.916-105.029 44.311z" fill="#fbe5c8"/><g><path d="m163.721 108.835v204.234h69.79c24.958-37.079 36.32-83.609 36.32-127.59 0-25.874-3.918-52.086-11.896-76.644l-41.158-24.417z" fill="#a7e0f5"/></g><path d="m232.04 253.479c-24.604 0-47.826-5.92-68.318-16.412v76.002h69.79c12.718-18.895 21.898-40.246 27.851-62.462-9.485 1.878-19.288 2.872-29.323 2.872z" fill="#78cbec"/><g><path d="m93.941 108.835v204.234h69.79c24.958-37.079 36.32-83.609 36.32-127.59 0-25.874-3.918-52.086-11.896-76.644l-43.958-24.417z" fill="#ffefe0"/></g><path d="m93.941 162.296v150.773h69.79c13.19-19.596 22.58-41.832 28.505-64.936-44.342-12.164-80.481-44.147-98.295-85.837z" fill="#fbe5c8"/><g><path d="m48.61 108.835c7.62 23.418 11.861 49.352 11.861 76.644 0 37.137-7.842 71.767-21.382 100.953-5.764 12.424 3.203 26.637 16.899 26.637h37.953c24.958-37.079 36.32-83.609 36.32-127.59 0-25.874-3.918-52.086-11.896-76.644l-31.983-24.416z" fill="#a7e0f5"/></g><path d="m446.36 433.938c-21.35 39.77-63.45 67.35-112.55 67.35h-196.799c-62.21 0-95.1-33.8-112.42-67.35l210.884-28.206z" fill="#e8a882"/><g><path d="m97.324 424.211-72.733 9.728c17.32 33.55 50.21 67.35 112.42 67.35h5.836c-21.483-20.846-37.452-47.335-45.523-77.078z" fill="#e3986d"/></g><path d="m504.5 280.149c0 9.246-7.5 16.76-16.76 16.76-21.14 0-36.66 19.9-31.48 40.4 1.74 6.88 3.02 13.51 3.89 19.9 3.77 27.63-1.67 54.15-13.79 76.73h-421.768c-9.43-18.27-14.24-36.47-16.67-49.1-1.88-9.79 2.64-19.68 11.27-24.66l17.89-10.33c9.75-5.63 22.13-3.5 29.44 5.07 16.6 19.45 42.76 29.05 68.78 23.89l181.779-37.16c36.81-7.29 63.33-39.58 63.33-77.11v-93.15c0-11.835 9.596-21.47 21.48-21.47 8.03 0 15.39 4.48 19.08 11.61l13.31 25.77c3.69 7.14 11.05 11.62 19.08 11.62h34.38c9.26 0 16.76 7.51 16.76 16.76 0 9.26-7.5 16.76-16.76 16.76h-7.44c-8.553 0-15.48 6.92-15.48 15.48 0 8.54 6.93 15.47 15.48 15.47h7.44c9.245 0 16.759 7.5 16.759 16.76z" fill="#edb798"/><circle cx="303.037" cy="324.542" fill="#a19dae" r="59.805"/><path d="m343.554 357.654c-35.982 0-65.152-29.169-65.152-65.152 0-8.614 1.688-16.831 4.725-24.357-23.238 8.204-39.895 30.35-39.895 56.397 0 33.03 26.776 59.805 59.805 59.805 21.092 0 39.62-10.928 50.267-27.422-3.181.477-6.436.729-9.75.729z" fill="#938ea3"/><circle cx="210.806" cy="335.235" fill="#b2b0bc" r="59.805"/><g><path d="m91.418 379.769c0-2.022.048-4.032.119-6.038-9.528-4.329-18.103-10.712-25.016-18.812-7.31-8.57-19.69-10.7-29.44-5.07l-17.89 10.33c-8.63 4.98-13.15 14.87-11.27 24.66 2.43 12.63 7.24 30.83 16.67 49.1h75.679c-5.739-17.009-8.852-35.226-8.852-54.17z" fill="#e8a882"/></g><path d="m251.324 368.347c-35.982 0-65.152-29.169-65.152-65.152 0-8.614 1.688-16.831 4.725-24.357-23.238 8.204-39.895 30.35-39.895 56.397 0 33.03 26.776 59.805 59.805 59.805 21.092 0 39.62-10.928 50.267-27.422-3.181.477-6.436.729-9.75.729z" fill="#a19dae"/><path d="m81.926 103.365c0-5.633.321-11.192.925-16.664l-34.241 22.134c7.62 23.418 11.861 49.353 11.861 76.645 0 37.137-7.842 71.767-21.382 100.953-5.764 12.424 3.203 26.637 16.899 26.637h37.953c19.911-29.581 31.16-65.178 34.899-100.697-28.889-27.361-46.914-66.078-46.914-109.008z" fill="#78cbec"/><path d="m327.759 60.002h-279.149c-13.485 0-24.417 10.932-24.417 24.417 0 13.485 10.932 24.417 24.417 24.417h279.149c13.485 0 24.417-10.932 24.417-24.417 0-13.485-10.932-24.417-24.417-24.417z" fill="#e8a882"/><path d="m81.926 103.365c0-15.078 2.233-29.633 6.369-43.363h-39.685c-13.485 0-24.417 10.932-24.417 24.417 0 13.485 10.932 24.417 24.417 24.417h33.425c-.064-1.817-.109-3.639-.109-5.471z" fill="#e3986d"/><circle cx="118.576" cy="345.928" fill="#c7c5cb" r="59.805"/><path d="m159.093 379.04c-35.982 0-65.152-29.169-65.152-65.152 0-8.614 1.688-16.831 4.725-24.357-23.238 8.204-39.895 30.35-39.895 56.397 0 33.03 26.776 59.805 59.805 59.805 21.092 0 39.62-10.928 50.267-27.422-3.181.477-6.436.729-9.75.729z" fill="#b2b0bc"/></g><g><path d="m445.278 220.259-24.065-6.448c-3.996-1.071-8.113 1.302-9.186 5.303-1.072 4.001 1.302 8.113 5.303 9.186l7.078 1.896c-.252.75-.395 1.551-.395 2.387v10.366c0 4.143 3.358 7.5 7.5 7.5s7.5-3.357 7.5-7.5v-8.839l2.382.638c4.002 1.073 8.114-1.305 9.186-5.303 1.072-4.001-1.302-8.114-5.303-9.186z"/><path d="m487.74 255.889h-7.44c-4.4 0-7.98-3.575-7.98-7.97 0-4.4 3.58-7.98 7.98-7.98h7.44c13.377 0 24.26-10.883 24.26-24.26s-10.883-24.26-24.26-24.26h-34.38c-5.248 0-10.006-2.898-12.417-7.562l-13.313-25.775c-5-9.661-14.863-15.663-25.741-15.663-15.98 0-28.98 12.996-28.98 28.97v93.151c0 11.583-2.859 22.949-8.197 33.099-6.09-13.908-16.743-25.375-30.064-32.494 8.271-25.097 12.471-51.859 12.471-79.666 0-24.426-3.265-48.145-9.697-70.644 12.888-4.105 22.252-16.186 22.252-30.417 0-17.599-14.318-31.917-31.917-31.917h-109.941v-27.529c0-12-9.762-21.762-21.761-21.762h-15.742c-11.999 0-21.761 9.762-21.761 21.762v27.529h-109.943c-17.599 0-31.917 14.318-31.917 31.917 0 15.663 11.343 28.716 26.244 31.402 6.659 22.082 10.034 45.49 10.034 69.659 0 10.474-.667 21.056-1.982 31.452-.52 4.109 2.39 7.862 6.5 8.382 4.111.521 7.862-2.391 8.382-6.5 1.394-11.018 2.1-22.233 2.1-33.335 0-23.882-3.113-47.093-9.264-69.144h54.13c6.641 22.299 9.924 46.153 9.924 69.144 0 32.193-6.194 65.226-19.38 94.886-15.45 3.565-29.284 12.727-38.655 25.205h-8.737c-8.17 0-13.585-8.459-10.095-15.98 5.771-12.44 10.516-25.85 14.103-39.856 1.027-4.013-1.393-8.099-5.405-9.126-4.01-1.028-8.099 1.392-9.126 5.405-3.359 13.118-7.793 25.656-13.179 37.264-8.077 17.412 4.555 37.293 23.703 37.293h.258c-2.409 5.899-4.011 12.21-4.652 18.8-6.273-.584-12.66.75-18.264 3.985l-17.888 10.329c-11.384 6.569-17.367 19.658-14.886 32.572 2.444 12.705 7.441 31.887 17.369 51.122 0 0 .001.001.001.002 16.817 32.577 51.129 71.41 119.084 71.41h196.8c49.884 0 95.539-27.317 119.151-71.291.002-.004.005-.008.008-.012 13.408-24.981 18.461-53.09 14.613-81.289-.922-6.771-2.285-13.744-4.05-20.726-1.897-7.506-.254-15.317 4.507-21.431 4.767-6.121 11.948-9.632 19.702-9.632 13.377 0 24.26-10.883 24.26-24.26-.002-13.376-10.885-24.259-24.262-24.259zm-132.467 71.341c-1.268 24.926-20.067 45.303-44.282 49.014-14.072 2.156-28.605-1.43-40.183-10.527 4.884-9.579 7.302-20.149 7.302-30.482 0-15.556-5.313-30.941-15.861-43.391 10.141-12.624 25.019-19.607 40.786-19.607 29.645 0 53.763 24.919 52.238 54.993zm-144.468 60.31c-11.386 0-22.72-3.666-32.228-11.13 4.919-9.659 7.302-20.188 7.302-30.483 0-15.301-5.194-30.804-15.864-43.395 10.244-12.739 25.283-19.604 40.79-19.604 28.986 0 52.305 23.601 52.305 52.306 0 28.678-23.299 52.306-52.305 52.306zm-92.231 10.693c-29.008 0-52.305-23.627-52.305-52.306 0-28.724 23.348-52.305 52.305-52.305 29.079 0 52.305 23.695 52.305 52.305.001 28.322-22.939 52.306-52.305 52.306zm19.186-212.754c0-22.778-3.1-46.764-9.31-69.144h54.176c6.252 20.986 9.924 44.902 9.924 69.144 0 32.686-6.362 65.019-18.786 93.537-5.46 3.606-10.416 8.022-14.684 13.164-11.449-8.663-25.087-13.183-38.679-13.533 10.907-27.305 17.359-59.433 17.359-93.168zm165.276 71.758c-14.378 0-28.516 4.632-39.939 13.103 8.686-24.513 13.925-52.692 14.203-82.412.039-4.142-3.288-7.531-7.43-7.569-4.129-.027-7.531 3.302-7.569 7.43-.279 29.99-5.962 60.959-17.866 89.146-10.323-5.999-21.867-9.005-33.63-9.005-5.699 0-11.598.724-17.443 2.284 9.504-26.808 14.188-56.295 14.188-84.734 0-23.299-3.223-47.202-9.311-69.144h54.168c4.067 13.684 6.923 28.083 8.465 42.331.435 4.015 3.965 6.937 7.958 6.666 4.085-.273 7.025-3.675 6.999-7.515-.012-2.051-2.289-21.641-7.807-41.482h54.22c6.556 21.93 9.877 45.163 9.877 69.144 0 25.886-3.84 50.78-11.423 74.111-5.775-1.572-11.834-2.354-17.66-2.354zm-129.484-232.265c0-3.729 3.033-6.762 6.761-6.762h15.742c3.728 0 6.761 3.033 6.761 6.762v27.529h-29.264zm-124.943 76.363c-9.328 0-16.917-7.589-16.917-16.917s7.589-16.917 16.917-16.917h279.15c9.328 0 16.917 7.589 16.917 16.917s-7.589 16.917-16.917 16.917c-55.516 0-215.509 0-279.15 0zm285.201 392.454h-196.8c-44.084 0-77.499-17.6-99.498-52.35h395.527c-22.263 32.578-59.217 52.35-99.229 52.35zm153.93-204.38c-12.413 0-23.907 5.619-31.536 15.416-7.624 9.789-10.253 22.299-7.215 34.323 1.628 6.44 2.883 12.857 3.73 19.075 3.215 23.564-.566 47.053-10.938 68.216h-412.544c-7.783-16.267-11.867-32.181-13.951-43.015-1.275-6.64 1.8-13.372 7.655-16.75l17.89-10.33c3.354-1.938 7.26-2.551 10.983-1.814 4.261 33.513 32.932 58.702 66.76 58.702 19.559 0 38.675-8.528 51.725-24.25 11.69 8.845 25.959 13.557 40.506 13.557 19.05 0 38.365-8.154 51.725-24.25 44.114 33.36 107.811 1.623 107.811-53.749 0-2.282-.128-4.807-.407-7.363 11.615-15.039 17.976-33.601 17.976-52.639v-93.151c0-7.703 6.271-13.97 13.98-13.97 5.248 0 10.007 2.896 12.417 7.552l13.311 25.772c4.998 9.669 14.861 15.676 25.743 15.676h34.38c5.106 0 9.26 4.154 9.26 9.26s-4.154 9.26-9.26 9.26h-7.44c-12.671 0-22.98 10.309-22.98 22.981 0 12.666 10.309 22.97 22.98 22.97h7.44c5.106 0 9.26 4.154 9.26 9.26-.001 5.107-4.155 9.261-9.261 9.261z"/></g></g></svg>