<svg id="Capa_1" enable-background="new 0 0 512 512" height="512" viewBox="0 0 512 512" width="512" xmlns="http://www.w3.org/2000/svg"><g><g><path d="m113.599 413.871c-53.849-29.841-96.404-86.896-96.404-188.82 0-119.957 97.592-217.549 217.549-217.549s217.549 97.592 217.549 217.549c0 36.871 15.301 67.344 31.31 89.136 33.603 45.742 12.275 111.47-41.965 128.189-15.25 4.701-33.478 7.531-55.264 7.531z" fill="#f8d070"/><path d="m88.733 236.388c0-106.951 70.331-197.471 167.265-227.846-6.995-.681-14.083-1.04-21.253-1.04-119.957 0-217.549 97.592-217.549 217.549 0 101.924 42.555 158.979 96.404 188.82l64.175 8.478c-54.295-43.76-89.042-110.798-89.042-185.961z" fill="#f2c13b"/><circle cx="412.306" cy="224.026" fill="#ffcabd" r="44.898"/><path d="m342.177 363.835h-214.865s-68.081 43.719-68.081 140.663h95.446l23.457-16.579 12.859 16.579h87.5l14.97-13.631 21.347 13.631h95.446c.001-96.943-68.079-140.663-68.079-140.663z" fill="#ffdcce"/><path d="m342.177 363.835h-214.865s-10.078 6.479-22.477 19.96c36.768 30.29 82.221 46.767 129.974 46.767 1.032 0 2.077-.008 3.113-.023 46.878-.713 91.223-17.067 127-46.452-12.522-13.682-22.745-20.252-22.745-20.252z" fill="#ffcabd"/><path d="m410.257 225.049c0 96.024-77.114 174.038-172.792 175.492-97.215 1.478-178.234-78.267-178.234-175.493 0-40.461 13.693-77.724 36.696-107.408 24.063-31.051 65.742-43.048 102.357-28.816.716.278 1.422.56 2.117.845 22.046 9.036 46.639 9.036 68.686 0 .695-.285 1.401-.567 2.118-.846 36.521-14.195 78.14-2.334 102.188 28.601 23.105 29.72 36.864 67.066 36.864 107.625z" fill="#ffdcce"/><g><path d="m314.811 504.498h-36.317c-4.255-20.24-22.249-35.486-43.75-35.486s-39.495 15.246-43.75 35.486h-36.317c4.583-40.11 38.736-71.372 80.067-71.372s75.484 31.262 80.067 71.372z" fill="#a7e0f5"/></g><g><g><g><ellipse cx="127.262" cy="234.529" fill="#ffb2c1" rx="39.659" ry="31.582"/></g><g><ellipse cx="342.226" cy="234.529" fill="#ffb2c1" rx="39.659" ry="31.582"/></g></g></g><path d="m234.744 255.571-82.254 29.589s5.451 31.885 26.053 57.655c28.948 36.209 83.453 36.209 112.402 0 20.602-25.769 26.053-57.655 26.053-57.655z" fill="#f2c13b"/><path d="m234.744 279.315c-29.689 37.111-73.433 21.732-96.503 9.544-5.595-2.956-5.994-10.727-.809-14.355 13.225-9.253 20.925-29.516 31.849-39.697 16.971-15.817 46.209-25.426 65.464-7.968 19.255-17.458 48.493-7.849 65.464 7.968 10.924 10.181 18.624 30.443 31.849 39.697 5.185 3.628 4.786 11.399-.809 14.355-23.072 12.188-66.816 27.567-96.505-9.544z" fill="#f8d070"/><path d="m141.688 86.467c-17.724 5.183-33.888 15.853-45.761 31.173-14.116 18.215-24.717 39.288-30.809 62.199-2.577-.461-5.226-.711-7.936-.711-24.797 0-44.898 20.102-44.898 44.898 0 24.797 20.102 44.898 44.898 44.898 2.569 0 5.082-.233 7.533-.649 9.385 36.379 30.284 68.344 58.479 91.735-21.87-36.059-34.462-78.37-34.462-123.623.001-56.79 19.843-108.938 52.956-149.92z" fill="#ffcabd"/></g><g><path d="m150.341 211.626c4.142 0 7.5-3.358 7.5-7.5v-16.212c0-4.143-3.358-7.5-7.5-7.5s-7.5 3.357-7.5 7.5v16.212c0 4.142 3.357 7.5 7.5 7.5z"/><path d="m319.08 211.626c4.142 0 7.5-3.358 7.5-7.5v-16.212c0-4.143-3.358-7.5-7.5-7.5s-7.5 3.357-7.5 7.5v16.212c0 4.142 3.358 7.5 7.5 7.5z"/><path d="m489.615 309.747c-15.637-21.285-25.219-43.713-28.536-66.69 2.311-5.904 3.593-12.319 3.593-19.032 0-9.115-2.344-17.691-6.454-25.165-6.304-54.117-32.131-104.089-72.86-140.86-41.43-37.402-94.931-58-150.648-58-57.061 0-111.521 21.484-153.35 60.495-3.029 2.825-3.195 7.571-.37 10.6 2.826 3.03 7.572 3.194 10.6.37 39.042-36.412 89.87-56.465 143.12-56.465 51.997 0 101.928 19.225 140.595 54.134 32.649 29.475 55.046 68.025 64.45 110.302-5.61-3.471-11.739-5.817-18.418-7.009-5-.871-7.531-.769-11.467-.743-6.566-21.623-17.05-41.445-30.588-58.865-25.843-33.24-70.811-46.543-110.826-30.989h-.001c-.76.295-1.508.594-2.246.896-20.312 8.325-42.685 8.325-62.998 0-21.095-8.645-42.59-9.447-62.892-3.695-27.118 7.684-45.015 24.167-60.12 47.883-8.957 14.028-15.873 29.048-20.647 44.769-.211.022-14.835-1.562-29.891 7.754 7.037-31.664 21.383-61.324 42.125-86.801 2.615-3.212 2.131-7.936-1.081-10.551-3.212-2.616-7.936-2.131-10.551 1.081-27.114 33.304-44.018 73.282-48.957 115.704-4.107 7.472-6.448 16.044-6.448 25.155 0 8.494 2.044 16.514 5.647 23.616 4.348 66.987 28.312 118.641 71.269 153.683-14.75 22.491-29.969 56.904-29.969 103.175 0 4.142 3.358 7.5 7.5 7.5h351.029c4.142 0 7.5-3.358 7.5-7.5 0-16.852-1.994-33.034-5.907-48.473 11.391-1.278 22.128-3.44 31.997-6.482 28.066-8.651 49.476-29.695 58.741-57.736 9.334-28.25 4.617-58.16-12.941-82.061zm-75.486-48.373c2.374-11.837 3.596-23.99 3.596-36.326 0-12.309-1.245-25.402-3.995-38.373 19.782.768 35.942 17.055 35.942 37.349 0 19.789-15.547 36.364-35.543 37.35zm-182.912 131.64c-34.956-.727-70.026-12.92-98.713-35.11-29.415-22.754-51.184-55.132-60.562-91.493v-.001c-3.541-13.726-5.245-27.784-5.245-41.36v-.001c0-14.622 1.904-29.246 5.635-43.281 4.66-17.527 12.032-33.963 21.966-49.02 12.87-19.515 26.875-32.564 50-39.153 17.687-5.019 35.947-4.066 53.226 3.013 24.061 9.862 50.506 9.781 74.376 0 35.119-14.379 73.808-2.537 95.54 25.42 23.23 29.875 35.285 66.029 35.285 103.022 0 14.004-1.715 27.886-5.142 41.411-9.135 36.042-30.455 68.52-60.033 91.45-31.11 24.114-68.496 35.959-106.333 35.103zm-211.468-168.989c0-20.071 15.885-36.533 35.944-37.35-2.677 12.623-3.997 25.609-3.997 38.373v.012c.001 12.329 1.236 24.478 3.644 36.313-20.069-.969-35.591-17.587-35.591-37.348zm7.645 43.13c9.226 6.363 20.323 9.657 31.691 9.232 9.859 33.428 29.268 63.441 56.379 86.948-9.141 7.475-17.833 16.62-25.039 25.795-34.744-28.685-55.885-69.62-63.031-121.975zm256.777 229.845c-7.083-20.885-26.987-35.486-49.46-35.486s-42.378 14.601-49.461 35.486h-21.711c7.614-32.667 36.852-56.373 71.172-56.373s63.558 23.705 71.172 56.373zm-16.229 0h-66.463c6.214-12.272 18.999-20.486 33.232-20.486s27.018 8.214 33.231 20.486zm220.371-109.897c-7.722 23.37-25.551 40.905-48.916 48.107-9.738 3.002-20.45 5.084-31.913 6.206-3.842-11.14-9.424-23.254-15.974-34.147-2.138-3.547-6.748-4.69-10.295-2.551-3.509 2.117-4.71 6.718-2.553 10.297 14.19 23.545 22.744 51.093 23.921 81.985h-47.339v-47.091c0-4.142-3.358-7.5-7.5-7.5s-7.5 3.358-7.5 7.5v47.091h-19.052c-7.888-41.127-43.934-71.373-86.481-71.373s-78.593 30.245-86.48 71.373h-19.052v-47.091c0-4.142-3.358-7.5-7.5-7.5s-7.5 3.358-7.5 7.5v47.091h-47.343c1.323-35.182 12.026-66.745 31.856-93.933 8.774-12.029 19.01-22.529 28.806-30.123 30.412 22.273 66.535 34.499 104.384 35.085 39.441.674 78.175-11.396 110.352-34.846.257.233 9.786 7.484 19.707 18.868 2.748 3.154 7.494 3.42 10.585.726 3.123-2.722 3.448-7.459.726-10.582-6.361-7.298-12.334-12.932-17.046-16.963-.978-.837-1.587-1.337-1.929-1.622 3.702-3.204 7.3-6.56 10.773-10.084 21.603-21.913 37.021-48.348 45.393-77.134 15.057.532 29.078-5.484 38.956-15.396 5.159 19.872 14.58 39.19 28.129 57.633 14.644 19.936 18.576 44.894 10.785 68.474z"/><path d="m336.324 268.36c-11.582-8.103-19.299-28.101-31.036-39.039-18.711-17.438-48.725-26.63-70.578-11.982-21.852-14.648-51.868-5.457-70.578 11.982-11.699 10.904-19.472 30.948-31.036 39.039-9.797 6.855-8.933 21.564 1.606 27.132 4.109 2.17 8.998 4.503 14.422 6.659 4.066 12.804 11.263 30.01 23.525 45.349 15.229 19.049 37.849 29.974 62.06 29.974 24.21 0 46.83-10.925 62.059-29.974 12.262-15.337 19.459-32.544 23.526-45.349 5.424-2.155 10.313-4.488 14.422-6.659 10.533-5.564 11.414-20.27 1.608-27.132zm-51.27 69.772c-12.367 15.468-30.716 24.34-50.343 24.34s-37.976-8.872-50.344-24.34c-7.885-9.864-13.441-20.703-17.292-30.31 21.672 4.959 40.776 2.173 56.53-8.166 3.904-2.553 8.016-5.957 11.106-9.086 3.716 3.757 8.226 7.378 12.971 10.265.039.024.079.047.118.071 15.366 9.306 33.778 11.668 54.546 6.915-3.852 9.608-9.408 20.449-17.292 30.311zm42.658-55.904c-12.788 6.755-27.951 12.245-42.579 12.853-18.665.78-33.466-6.586-44.551-20.434-.005-.006-.009-.011-.014-.017-2.999-3.749-8.712-3.752-11.713 0-.005.005-.009.011-.014.017-11.856 14.805-27.087 21.166-44.551 20.434-14.547-.605-29.691-6.044-42.579-12.853-.618-.324-.625-1.149-.013-1.578 14.815-10.366 22.615-30.991 32.663-40.355 20.507-19.111 43.804-18.334 55.313-7.899 2.858 2.592 7.217 2.592 10.075 0 11.509-10.435 34.807-11.213 55.313 7.899 10.071 9.386 17.833 29.979 32.663 40.355.611.429.606 1.251-.013 1.578z"/></g></g></svg>