<svg id="Capa_1" enable-background="new 0 0 512 512" height="512" viewBox="0 0 512 512" width="512" xmlns="http://www.w3.org/2000/svg"><g><g><path d="m355.421 136.121-54.845-18.622-19.32-55.542c17.139-8.404 37.238-10.029 56.064-3.731 20.519 6.867 39.161 18.399 54.459 33.696z" fill="#fbe29f"/><path d="m290.026 215.601-54.32-22.167-25.296-57.449c1.673-2.743 3.603-5.377 5.77-7.882l27.284-31.496 57.113 20.891 22.144 58.366z" fill="#fbe29f"/><g fill="#f2c13b"><path d="m322.72 175.864-79.257-79.257 14.41-16.645c1.172-1.348 2.377-2.648 3.623-3.894 5.851-5.851 12.535-10.584 19.76-14.112l74.165 74.165z"/><path d="m261.002 250.883-41.931-41.931c-19.679-19.679-22.787-49.956-8.661-72.966l79.616 79.616z"/><path d="m400.582 88.535s29.682 24.668 63.013 37.173c12.255 4.597 15.998 20.107 7.126 29.729-12.116 13.141-29.689 28.531-50.967 36.636l-44.058-44.058z"/></g><path d="m493.164 207.529c-49.523-11.125-77.275-40.303-90.64-59.375-6.636-9.471-5.518-22.332 2.659-30.509 5.821-5.821 12.618-12.618 18.148-18.147 6.414-6.414 5.507-17.038-1.881-22.299-15.529-11.06-44.657-22.001-82.777 7.844-7.185 5.625-13.683 12.079-19.556 19.063l-252.176 299.946c-4.837 5.753-12.677 8.004-19.83 5.694l-14.96-4.833c-6.637-2.144-14.046-.687-19.047 4.175-7.407 7.202-7.471 19.045-.19 26.327 29.587 29.587 77.558 29.587 107.145 0l185.45-185.451c10.786-10.786 28.365-10.327 38.647.939 14.419 15.8 28.761 38.495 35.809 69.978 2.221 9.92 13.899 14.459 22.225 8.626 16.647-11.663 35.179-36.317 15.015-84.711 48.403 20.168 73.057 1.626 84.717-15.023 5.862-8.37 1.212-20.004-8.758-22.244z" fill="#fbe29f"/><path d="m407.819 69.755c-16.554-6.523-40.269-7.321-69.146 15.287-7.185 5.625-13.683 12.079-19.556 19.063l-252.176 299.947c-4.837 5.753-12.677 8.004-19.83 5.694l-14.96-4.833c-6.637-2.144-14.046-.687-19.047 4.175-7.407 7.202-7.471 19.045-.19 26.327 29.587 29.587 77.558 29.587 107.145 0l137.9-137.9c11.261-97.467 68.682-180.869 149.86-227.76z" fill="#f8d070"/><ellipse cx="354.614" cy="206.272" fill="#ffb2c1" rx="22.387" ry="28.113" transform="matrix(.707 -.707 .707 .707 -41.992 311.166)"/><g><path d="m124.249 413.308-27.558-27.558c-2.99-2.99-4.794-6.736-5.416-10.643l-21.285 25.316c1.628 2.315 3.455 4.508 5.487 6.54l27.557 27.557c2.898 2.899 6.094 5.391 9.518 7.452 2.605-2 5.121-4.172 7.506-6.558l16.5-16.5c-4.485-.319-8.88-2.177-12.309-5.606z" fill="#f2c13b"/></g><path d="m151.641 385.916-27.558-27.558c-8.03-8.03-21.214-7.461-28.522 1.232-6.467 7.693-5.977 19.054 1.13 26.16l27.558 27.558c7.564 7.564 19.828 7.564 27.392 0 7.564-7.564 7.564-19.828 0-27.392z" fill="#fbe29f"/><g><path d="m210.972 326.578-35.054-35.054c-2.992-2.992-4.796-6.74-5.418-10.648l-21.286 25.318c1.629 2.316 3.457 4.511 5.49 6.544l35.054 35.054c3.068 3.068 6.473 5.672 10.125 7.799l23.404-23.404c-4.487-.32-8.885-2.179-12.315-5.609z" fill="#f2c13b"/></g><path d="m238.37 299.179-35.054-35.054c-8.032-8.032-21.219-7.463-28.528 1.231-6.469 7.694-5.979 19.059 1.13 26.167l35.054 35.054c7.566 7.566 19.833 7.566 27.399 0 7.565-7.565 7.565-19.832-.001-27.398z" fill="#fbe29f"/></g><g><path d="m376.69 197.143c-2.929 2.929-2.929 7.678 0 10.606 2.928 2.929 7.677 2.93 10.606 0l5.694-5.694.974 1.687c2.077 3.598 6.668 4.811 10.245 2.745 3.587-2.071 4.816-6.658 2.745-10.245l-11.93-20.662c-2.071-3.587-6.658-4.816-10.245-2.745s-4.816 6.658-2.745 10.245l3.344 5.792c-.597.332-1.161.745-1.668 1.251z"/><path d="m425.803 71.471c-11.9-8.475-33.382-18.45-61.289-9.026-7.929-4.409-16.259-8.088-24.811-10.95-20.451-6.842-42.374-5.384-61.732 4.104h-.001s-.001.001-.002.001c-.003.001-.006.003-.01.005-.003.001-.006.004-.01.005-8.062 3.939-15.38 9.166-21.751 15.537-2.805 2.806-.336.081-45.686 52.431-22.638 26.173-22.066 65.731 3.261 91.057l1.6 1.6-29.762 35.4c-6.422.974-12.343 4.263-16.557 9.276-4.408 5.242-6.5 11.636-6.344 17.964l-56.324 66.993c-6.423.974-12.343 4.262-16.558 9.275-4.407 5.242-6.499 11.636-6.343 17.964l-22.278 26.498c-2.889 3.435-7.514 4.762-11.784 3.383l-14.959-4.833c-9.479-3.063-19.665-.789-26.581 5.935-10.402 10.113-10.525 26.745-.265 37.007 12.925 12.924 29.312 21.08 47.39 23.586 4.174.572 7.899-2.36 8.458-6.399.569-4.103-2.296-7.89-6.399-8.459-14.815-2.053-28.247-8.739-38.842-19.334-4.327-4.327-4.296-11.357.114-15.646 2.878-2.798 7.397-3.746 11.514-2.416l14.96 4.833c10.101 3.264 21.044.123 27.877-8.004l16.783-19.963c.521.652 1.251 1.467 1.923 2.139l27.557 27.556c1.241 1.241 2.583 2.344 4.006 3.304l-8.196 8.196c-8.637 8.637-19.438 14.802-31.235 17.829-4.012 1.029-6.43 5.117-5.4 9.129 1.029 4.012 5.116 6.429 9.129 5.4 14.398-3.694 27.577-11.217 38.113-21.752l14.297-14.297c6.531-.409 12.617-3.141 17.285-7.81 4.668-4.668 7.401-10.753 7.809-17.284l61.633-61.633c6.532-.41 12.618-3.143 17.286-7.811 4.669-4.669 7.402-10.754 7.811-17.286l23.068-23.069c2.929-2.929 2.929-7.678 0-10.606-2.929-2.929-7.678-2.929-10.606 0l-16.966 16.966c-.961-1.424-2.065-2.768-3.307-4.01l-35.054-35.054c-.005-.005-.011-.01-.017-.015-1.737-1.736-3.979-3.401-5.965-4.502 36.183-43.037 81.731-97.213 122.219-145.37 5.945-7.067 12.382-13.244 18.438-17.984 30.186-23.037 54.552-21.35 73.802-7.641 3.651 2.6 4.035 7.78.928 10.886l-18.148 18.148c-10.769 10.768-12.241 27.64-3.498 40.116 21.672 30.913 54.98 53.367 95.137 62.388 4.802 1.079 7.047 6.642 4.259 10.624-15.584 22.252-41.756 26.541-75.688 12.403-2.806-1.169-6.039-.53-8.188 1.62-2.149 2.149-2.789 5.382-1.62 8.188 14.137 33.927 9.85 60.098-12.394 75.683-3.949 2.764-9.543.611-10.602-4.122-6.339-28.317-18.986-53.011-37.588-73.394-13.13-14.387-35.605-15.072-49.489-1.187l-15.341 15.341c-2.929 2.929-2.929 7.678 0 10.606 2.929 2.929 7.678 2.929 10.606 0l15.341-15.341c7.805-7.804 20.422-7.395 27.804.692 16.819 18.43 28.269 40.824 34.03 66.559 3.385 15.12 21.155 22.022 33.847 13.131 11.834-8.291 20.194-19.538 24.178-32.524 4.142-13.504 3.741-28.939-1.175-46.037 17.1 4.917 32.539 5.317 46.044 1.173 12.987-3.985 24.233-12.349 32.523-24.185 8.902-12.711 1.937-30.451-13.257-33.864-17.161-3.855-31.591-9.928-43.666-17.07 8.636-6.318 17.044-13.889 25.094-22.62 12.473-13.528 7.22-35.373-10.006-41.835-10.77-4.04-22.633-10.033-34.682-17.488 6.433-9.897 3.969-23.189-5.748-30.11zm-257.11 223.594c.581.72 1.263 1.478 1.926 2.142l35.053 35.053c1.242 1.242 2.586 2.346 4.01 3.307l-49.43 49.43c-.961-1.423-2.063-2.765-3.304-4.006l-27.557-27.557c-1.771-1.77-4.028-3.434-5.976-4.515zm-22.35 113.318c-4.703 4.703-12.227 4.554-16.785 0l-27.558-27.556c-4.305-4.301-4.741-11.215-.692-16.031 4.618-5.492 12.716-5.516 17.477-.754l27.557 27.557c4.6 4.599 4.632 12.153.001 16.784zm86.728-86.729c-4.824 4.824-12.369 4.423-16.792 0l-35.053-35.053c-4.176-4.172-4.836-11.108-.692-16.037 4.611-5.484 12.712-5.527 17.484-.755l35.053 35.053c.009.009.017.019.025.028 4.557 4.587 4.618 12.122-.025 16.764zm101.872-255.934c4.143 1.386 8.229 2.986 12.232 4.788-4.822 2.853-10.419 6.786-13.122 9.013-4.578 3.583-9.257 7.847-13.16 11.845l-26.263-26.262c13.097-3.98 27.083-3.81 40.313.616zm-68.14 16.034c3.946-3.946 8.336-7.353 13.096-10.17l31.013 31.013c-4.876 5.8-17.892 21.282-23.399 27.832l-33.807-33.807c9.171-10.523 10.28-12.049 13.097-14.868zm-44.951 51.642 22.008-25.405 33.964 33.963c-2.238 2.662-20.595 24.497-23.393 27.824l-34.295-34.295c.552-.707 1.124-1.403 1.716-2.087zm3.208 71.316-.682-.683c-14.689-14.688-19.028-36.195-11.885-54.976l32.249 32.249c-7.321 8.708-15.683 18.654-19.682 23.41zm240.149-53.977c-8.772 9.515-17.947 17.493-27.329 23.775-11.646-8.868-21.595-19.408-29.211-30.279-4.534-6.47-3.817-15.264 1.821-20.901l10.596-10.597c13.851 8.794 27.243 15.639 39.877 20.379 7.292 2.737 9.512 11.912 4.246 17.623z"/></g></g></svg>