<svg id="Capa_1" enable-background="new 0 0 512 512" height="512" viewBox="0 0 512 512" width="512" xmlns="http://www.w3.org/2000/svg"><g><g><path d="m420.738 89.224 11.828 43.994-42.259 18.578c-8.759-2.264-18.699-3.09-29.033-3.09-11.003 0-22.449.945-33.373 2.116-9.094.964-19.24 2.775-29.978 4.685-20.018 3.572-43.145 7.686-68.094 7.686-14.3 0-29.19-1.348-44.425-4.94-23.01-5.413-44.474-15.697-64.256-30.745 2.401 17.075 5.895 35.843 10.885 56.107 17.774 72.168 74.54 181.863 120.008 252.437l-41.063 25.318-41.557-25.318c-113.441-176.096-124.12-323.159-121.561-389.963.403-10.776 5.039-20.421 12.253-27.369 7.224-6.959 17.046-11.22 27.822-11.22 13.67 0 26.395 6.968 33.766 18.482 18.965 29.672 44.513 56.983 79.481 65.21 39.543 9.31 80.13-4.675 119.398-8.877 33.285-3.552 68.695-4.782 100.158 6.909z" fill="#e8a882"/><path d="m459.494 166.284-124.466 269.768-38.241 25.318-44.744-25.318 138.264-284.254 30.43-62.573c5.551 2.057 10.973 4.527 16.248 7.45 2.677 1.486 5.196 3.199 7.549 5.127 2.362 1.919 4.557 4.055 6.564 6.348 14.026 16.022 17.313 38.795 8.396 58.134z" fill="#e3986d"/><path d="m274.288 390.321-22.244 45.731 44.743 25.318 38.241-25.318 14.672-31.801c-26.434-2.306-51.735-6.948-75.412-13.93z" fill="#de8957"/><path d="m98.424 164.836c0-46.266 10.81-90.001 30.014-128.846-2.332-3.29-4.579-6.632-6.737-10.007-7.371-11.515-20.096-18.483-33.766-18.483-10.777 0-20.598 4.261-27.822 11.219-7.214 6.948-11.849 16.593-12.253 27.37-2.559 66.805 8.119 213.867 121.563 389.963l41.557 25.318 41.063-25.318c-13.951-21.654-28.964-46.993-43.589-73.798-67.041-39.298-110.03-105.091-110.03-197.418z" fill="#e3986d"/><path d="m373.184 474.207v9.153c0 11.672-9.468 21.14-21.14 21.14h-199.637c-11.672 0-21.14-9.468-21.14-21.14v-9.153c0-21.071 17.085-38.156 38.156-38.156h165.604c21.082.001 38.157 17.086 38.157 38.156z" fill="#edb798"/><path d="m203.847 436.052h-34.424c-21.071 0-38.156 17.085-38.156 38.156v9.152c0 11.672 9.468 21.14 21.14 21.14h85.185c-17.976-18.093-30.208-41.895-33.745-68.448z" fill="#e8a882"/></g><g><path d="m361.536 360.702c-1.735 3.761-.093 8.217 3.668 9.952s8.217.093 9.952-3.668l91.152-197.561c13.495-29.27 1.924-63.984-25.684-79.311-8.469-4.692-14.482-6.765-17.274-7.921-.001 0-.002-.001-.003-.001s-.002-.001-.003-.001c-33.877-12.586-71.359-10.77-103.56-7.333-39.063 4.182-79.318 17.878-116.882 9.034-27.947-6.576-52.439-26.84-74.882-61.954-16.276-25.425-51.584-29.353-73.108-8.62-8.916 8.588-14.082 20.126-14.544 32.484-1.203 31.415 1.049 66.534 6.514 101.56.638 4.093 4.472 6.892 8.566 6.254 4.092-.639 6.893-4.474 6.254-8.566-6.719-43.064-7.159-77.429-6.345-98.68.317-8.465 3.854-16.366 9.961-22.248 14.719-14.178 38.903-11.537 50.066 5.9 24.645 38.561 52.148 60.958 84.081 68.472 41.374 9.742 82.838-4.538 121.913-8.72 27.914-2.979 59.899-4.718 88.878 3.861l-24.107 49.57c-7.254-1.342-15.453-1.998-24.871-1.998-61.414 0-110.485 24.759-174.152 9.746-21.869-5.144-42.538-15.041-61.433-29.414-5.315-4.043-12.899.39-11.967 7.014 2.625 18.667 6.336 37.797 11.029 56.856 18.109 73.532 73.507 178.838 113.655 243.143h-64.884c-53.113-83.251-88.966-168.855-106.575-254.485-.834-4.057-4.8-6.669-8.857-5.835s-6.67 4.8-5.835 8.857c17.534 85.267 52.729 170.403 104.644 253.224-19.103 5.459-33.132 23.063-33.132 43.896v9.152c0 15.792 12.848 28.64 28.64 28.64h199.637c15.792 0 28.64-12.848 28.64-28.64v-9.152c0-21.352-14.734-39.32-34.567-44.288l15.658-33.937c1.735-3.761.093-8.217-3.668-9.952s-8.217-.093-9.952 3.668l-17.926 38.852h-66.197l133.021-273.475 27.366-56.271c3.059 1.349 6.045 2.829 8.928 4.427 20.625 11.447 29.603 37.644 19.337 59.91zm17.759-203.406-17.935 36.873-18.373-37.208c5.81-.433 12.122-.753 18.291-.753 6.72-.001 12.684.359 18.017 1.088zm-52.288 1.181 26.051 52.758-18.056 37.121-41.681-84.412c11.998-2.121 23.716-4.311 33.686-5.467zm-19.084 145.553-65.991-133.644c12.637-.611 24.63-2.093 35.94-3.854l48.83 98.891zm-82.597-133.395 74.295 150.461-21.191 43.565-98.819-200.126c1.354.354 2.712.697 4.076 1.018 13.312 3.139 26.984 4.799 41.639 5.082zm140.36 303.573v9.152c0 7.521-6.119 13.64-13.64 13.64h-199.636c-7.521 0-13.64-6.119-13.64-13.64v-9.152c0-16.904 13.752-30.656 30.656-30.656h165.604c16.904 0 30.656 13.752 30.656 30.656zm-114.504-53.526c-44.63-71.453-95.617-172.902-111.861-238.86-3.145-12.769-5.835-25.563-8.04-38.218 9.137 5.693 18.608 10.489 28.364 14.372l110.485 223.753z"/></g></g></svg>