<svg id="Capa_1" enable-background="new 0 0 512 512" height="512" viewBox="0 0 512 512" width="512" xmlns="http://www.w3.org/2000/svg"><g><g><path d="m469.489 249.918c21.789 97.952-27.468 72.11-40.73 132.287s-62.752 54.645-62.752 54.645l-83.966-11.32 125.618-175.612z" fill="#5c586f"/><path d="m42.511 249.918c-21.789 97.952 27.468 72.11 40.73 132.287s62.752 54.645 62.752 54.645l83.966-11.32-125.618-175.612z" fill="#4f4c5f"/><path d="m475.673 227.184h-439.346c0-52.617 18.579-100.957 49.538-138.82l170.135-20.429 170.135 20.429c30.959 37.863 49.538 86.203 49.538 138.82z" fill="#5c586f"/><path d="m382.262 47.507-126.262 20.428-126.262-20.428c35.74-25.2 79.299-40.007 126.262-40.007s90.522 14.807 126.262 40.007z" fill="#5c586f"/><path d="m492.254 154.136c-1.232-11.619-13.727-18.272-24.109-12.911-27.754 14.33-46.047 39.682-46.047 39.682l-4.79 107.179c79.968-.001 79.418-91.786 74.946-133.95z" fill="#ffcabd"/><path d="m153.65 80.225-67.785 8.139c-30.958 37.863-49.538 86.203-49.538 138.82h79.646c.566-60.797 13.158-109.815 37.677-146.959z" fill="#4f4c5f"/><path d="m348.438 372.781s68.87 31.479 68.87 131.719h-322.616c0-100.24 68.87-131.719 68.87-131.719z" fill="#80dfb5"/><path d="m256 429.568c43.99 0 84.741-14.116 117.978-38.045-13.791-13.365-25.54-18.743-25.54-18.743h-184.876s-11.825 5.413-25.674 18.873c34.009 24.507 74.739 37.798 117.554 37.914z" fill="#36d39a"/><path d="m184.217 351.436v56.809c0 21.79 17.664 39.454 39.454 39.454h64.658c21.79 0 39.454-17.664 39.454-39.454v-56.809z" fill="#ffdcce"/><path d="m184.217 408.244c0 2.978.341 5.874.966 8.662 22.175 8.246 45.878 12.595 70.26 12.661l.558.001c24.916 0 48.789-4.537 70.852-12.81.604-2.743.931-5.589.931-8.514v-56.808h-143.567z" fill="#ffcabd"/><path d="m428.384 227.184c0 95.367-77.433 172.641-172.86 172.383-95.162-.257-171.909-77.223-171.908-172.385 0-16.036 2.186-31.556 6.284-46.278 0 0 93.101 1.048 147.799-58.367 9.862-10.713 26.74-10.713 36.602 0 54.698 59.416 147.799 58.367 147.799 58.367 4.098 14.722 6.284 30.243 6.284 46.28z" fill="#ffdcce"/><path d="m252.785 7.532c-45.735.66-88.124 15.352-123.047 39.975l44.437 7.189c20.709-21.235 46.923-36.967 78.61-47.164z" fill="#4f4c5f"/><path d="m426.135 88.364h-340.27c12.694-15.532 27.459-29.288 43.874-40.858h252.523c16.414 11.571 31.179 25.326 43.873 40.858z" fill="#ffefe0"/><g><g><g><ellipse cx="158.464" cy="259.352" fill="#ffb2c1" rx="35.989" ry="28.66"/></g><g><ellipse cx="353.535" cy="259.352" fill="#ffb2c1" rx="35.989" ry="28.66"/></g></g></g><path d="m161.377 371.365c-28.571-39.27-45.438-87.603-45.438-139.882 0-18.757 1.138-36.399 3.384-52.952-17.639 2.502-29.423 2.373-29.423 2.373-.043-.059-18.323-25.365-46.045-39.679-10.382-5.36-22.877 1.292-24.109 12.911-4.471 42.16-5.021 133.93 74.922 133.949 12.938 34.338 36.494 63.435 66.709 83.28z" fill="#ffcabd"/><path d="m181.629 47.507h-51.891c-16.415 11.57-31.179 25.326-43.874 40.857h62.714c9.114-15.516 20.134-29.136 33.051-40.857z" fill="#fbe5c8"/></g><g><path d="m179.439 239.263c4.142 0 7.5-3.357 7.5-7.5v-14.711c0-4.142-3.358-7.5-7.5-7.5s-7.5 3.358-7.5 7.5v14.711c0 4.143 3.358 7.5 7.5 7.5z"/><path d="m332.561 239.263c4.142 0 7.5-3.357 7.5-7.5v-14.711c0-4.142-3.358-7.5-7.5-7.5s-7.5 3.358-7.5 7.5v14.711c0 4.143 3.358 7.5 7.5 7.5z"/><path d="m256 248.021c9.903 0 19.321-4.289 25.839-11.768 2.722-3.123 2.396-7.86-.726-10.582-3.123-2.721-7.861-2.396-10.582.727-3.668 4.209-8.965 6.623-14.531 6.623s-10.863-2.414-14.531-6.623c-2.722-3.123-7.459-3.448-10.582-.727-3.123 2.722-3.448 7.459-.727 10.582 6.518 7.479 15.936 11.768 25.84 11.768z"/><path d="m33.36 316.816c4.417 12.543 12.016 20.125 19.365 27.458 9.543 9.521 18.558 18.516 23.192 39.545 4.481 20.333 13.3 35.886 26.238 46.355-8.562 19.009-14.963 43.515-14.963 74.326 0 4.142 3.358 7.5 7.5 7.5h322.617c4.142 0 7.5-3.358 7.5-7.5 0-30.811-6.402-55.316-14.963-74.326 12.938-10.469 21.757-26.022 26.238-46.355 4.635-21.03 13.649-30.024 23.192-39.545 7.349-7.333 14.949-14.915 19.365-27.457 4.521-12.841 5.021-29.072 1.561-50.854 23.76-32.513 22.562-83.843 19.51-112.617-1.705-16.079-19.06-27.232-36.045-18.231-8.219-18.48-18.866-35.77-31.723-51.495 0 0-.001-.001-.001-.002-41.232-50.446-104.322-83.618-175.943-83.618-71.585 0-134.696 33.153-175.943 83.618 0 .001-.001.001-.001.002-12.857 15.725-23.504 33.014-31.723 51.494-17.122-9.074-34.356 2.297-36.045 18.231-3.051 28.773-4.25 80.102 19.51 112.616-3.46 21.784-2.96 38.015 1.562 50.855zm75.81 99.603c-8.94-8.298-15.184-20.31-18.604-35.829-5.58-25.318-17.09-36.803-27.246-46.936-11.747-11.718-21.32-21.27-18.214-53.756 12.603 10.058 28.099 14.764 44.333 15.559 12.879 31.498 34.223 57.817 60.16 76.891-16.296 11.108-30.386 26.824-40.429 44.071zm82.547-21.101c20.148 7.675 41.775 11.69 63.787 11.749 21.842.066 43.807-3.784 64.779-11.832v13.009c0 17.62-14.334 31.954-31.954 31.954h-64.658c-17.619 0-31.954-14.334-31.954-31.954zm169.418 101.682v-38.1c0-4.142-3.358-7.5-7.5-7.5s-7.5 3.358-7.5 7.5v38.1h-181.221v-38.1c0-4.142-3.358-7.5-7.5-7.5s-7.5 3.358-7.5 7.5v38.1h-47.589c.838-23.331 5.593-45.339 15.925-65.869 15.03-29.864 36.706-44.778 45.009-49.661 4.384 2.642 8.877 5.077 13.458 7.324v19.451c0 25.891 21.063 46.954 46.954 46.954h64.658c25.891 0 46.954-21.063 46.954-46.954v-19.583c4.537-2.23 8.998-4.633 13.352-7.254 8.245 4.831 30.03 19.748 45.115 49.723 10.33 20.526 15.087 42.532 15.925 65.869zm123.661-342.073c5.852 55.185-2.02 118.187-56.783 125.011 5.051-16.483 7.871-34.235 7.871-52.754 0-15.042-1.969-30.48-5.578-44.615 10.366-12.83 25.534-26.549 41.28-34.68 5.725-2.957 12.536.683 13.21 7.038zm-228.796-139.927c35.207 0 69.286 8.584 99.886 25.006h-199.772c30.6-16.422 64.679-25.006 99.886-25.006zm-123.861 40.006h247.723c10.663 7.694 20.589 16.352 29.652 25.858h-307.027c9.063-9.506 18.989-18.164 29.652-25.858zm-42.681 40.858h333.084c11.434 14.465 20.903 30.293 28.217 47.161-16.081 11.219-27.522 24.358-32.29 30.307-49.073-1.698-105.093-19.447-138.65-55.876-12.821-13.927-34.818-13.926-47.637 0-14.441 15.685-32.557 27.706-52.201 36.426-3.796 1.684-5.489 6.121-3.812 9.898 1.683 3.791 6.116 5.49 9.898 3.812 21.437-9.516 41.265-22.72 57.15-39.977 6.858-7.45 18.627-7.536 25.566 0 36.182 39.302 94.806 58.51 147.486 60.664.217 1.24 4.615 17.31 4.615 38.904 0 31.869-9.157 63.125-26.804 90.123-2.267 3.467-1.294 8.115 2.173 10.381 3.443 2.254 8.123 1.287 10.386-2.169 6.25-9.559 11.619-19.808 15.819-30.056 16.06-.772 31.71-5.421 44.436-15.564 3.106 32.485-6.468 42.037-18.213 53.756-10.156 10.133-21.667 21.618-27.247 46.936-3.42 15.519-9.664 27.53-18.604 35.828-10.579-18.169-24.928-33.526-40.509-44.126 8.97-6.585 17.826-14.436 25.676-22.914 2.818-3.044 2.625-7.791-.407-10.599-3.039-2.815-7.784-2.632-10.599.406-.025.027-.052.053-.077.081-30.749 33.159-74.913 52.951-121.37 52.799 0 0 0 0-.001 0s-.001 0-.002 0c-69.166-.191-130-43.265-153.867-106.626-7.011-18.615-10.56-38.187-10.56-58.259 0-14.011 1.731-26.446 4.615-38.901 20.025-.794 42.831-4.721 61.57-10.229 3.977-1.158 6.262-5.32 5.104-9.297-1.164-3.997-5.339-6.257-9.298-5.105-19.637 5.721-41.447 9.09-59.572 9.688-4.766-5.947-16.208-19.09-32.294-30.312 7.315-16.866 16.785-32.694 28.219-47.16zm-62.254 59.063c.676-6.374 7.502-9.987 13.21-7.038 15.686 8.1 30.181 21.135 41.28 34.679-3.46 13.552-5.578 29.153-5.578 44.614v.001c0 17.73 2.594 35.647 7.798 52.749-54.64-6.841-62.515-70.27-56.71-125.005z"/></g></g></svg>