<svg id="Capa_1" enable-background="new 0 0 512 512" height="512" viewBox="0 0 512 512" width="512" xmlns="http://www.w3.org/2000/svg"><g><g><path d="m442.062 237.903s10.234-13.354 26.365-27.907c8.124-7.33 21.094-3.916 24.634 6.438 13.024 38.095 30.599 117.086-47.041 118.33z" fill="#ffdcce"/><path d="m69.938 237.903s-10.234-13.354-26.365-27.907c-8.124-7.33-21.094-3.916-24.634 6.438-13.024 38.095-30.6 117.086 47.041 118.33z" fill="#ffcabd"/><g><path d="m87.716 204.386c-21.951 32.435-34.773 71.554-34.773 113.668 0 112.146 90.912 182.609 203.058 182.609s203.057-70.463 203.057-182.609c0-42.114-12.822-81.233-34.773-113.668l-168.285-32.065z" fill="#fb8978"/></g><g><path d="m126.503 205.845c-4.646 13.728-7.166 28.428-7.166 43.705 0 75.356 61.307 75.317 136.663 75.317s136.663.039 136.663-75.317c0-15.277-2.521-29.976-7.166-43.705l-129.497-33.524z" fill="#ffdcce"/></g><g><path d="m87.716 204.386c-21.951 32.435-34.773 71.554-34.773 113.668 0 112.146 90.912 182.609 203.058 182.609s203.057-70.463 203.057-182.609c0-42.114-12.822-81.233-34.773-113.668l-168.285-32.065z" fill="#fb8978"/></g><path d="m121.102 356.027c0-78.882 45.81-147.059 112.273-179.396l-145.66 27.754c-21.951 32.435-34.773 71.554-34.773 113.667 0 80.677 47.05 139.779 115.207 166.598-29.345-34.721-47.047-79.601-47.047-128.623z" fill="#f67561"/><g><path d="m126.503 205.845c-4.646 13.728-7.166 28.428-7.166 43.705 0 75.356 61.307 75.317 136.663 75.317s136.663.039 136.663-75.317c0-15.277-2.521-29.976-7.166-43.705l-129.497-33.524z" fill="#ffdcce"/></g><path d="m256 350.942c-31.843 39.804-78.762 23.309-103.507 10.237-6.001-3.17-6.429-11.505-.868-15.396 14.184-9.925 22.443-31.658 34.16-42.578 18.203-16.965 49.563-27.271 70.215-8.546 20.652-18.724 52.012-8.418 70.215 8.546 11.717 10.92 19.976 32.653 34.16 42.578 5.561 3.891 5.133 12.226-.868 15.396-24.745 13.072-71.664 29.567-103.507-10.237z" fill="#ff9e8e"/><path d="m227.205 179.775-100.702 26.07c-4.646 13.729-7.166 28.428-7.166 43.705 0 19.528 4.126 33.982 11.537 44.697 16.109-49.474 51.033-90.445 96.331-114.472z" fill="#ffcabd"/><path d="m190.267 232.804h-24.927c-7.863 0-14.237 6.374-14.237 14.237s6.374 14.237 14.237 14.237h24.927c7.863 0 14.237-6.374 14.237-14.237.001-7.863-6.374-14.237-14.237-14.237z" fill="#fb8978"/><path d="m321.733 232.804h24.927c7.863 0 14.237 6.374 14.237 14.237s-6.374 14.237-14.237 14.237h-24.927c-7.863 0-14.237-6.374-14.237-14.237-.001-7.863 6.374-14.237 14.237-14.237z" fill="#fb8978"/><path d="m303.432 32.425c-12.114-13.425-29.349-21.088-47.432-21.088s-35.318 7.663-47.432 21.088l-105.206 116.595h305.277z" fill="#80dfb5"/><path d="m280.163 16.105c-7.591-3.103-15.782-4.768-24.163-4.768-18.083 0-35.318 7.663-47.432 21.088l-105.206 116.595h82.201c7.149-72.888 49.827-112.298 94.6-132.915z" fill="#36d39a"/><path d="m415.795 138.796h-319.59c-14.022 0-25.389 11.367-25.389 25.389v16.271c0 14.022 11.367 25.389 25.389 25.389h319.591c14.022 0 25.389-11.367 25.389-25.389v-16.271c0-14.022-11.367-25.389-25.39-25.389z" fill="#ffefe0"/><path d="m184.505 170.995c0-11.446.817-22.157 2.325-32.199h-90.625c-14.022 0-25.389 11.367-25.389 25.389v16.271c0 14.022 11.367 25.389 25.389 25.389h91.898c-2.354-11.248-3.598-22.903-3.598-34.85z" fill="#fbe5c8"/></g><g><path d="m165.354 268.776h4.963v9.605c0 4.142 3.357 7.499 7.499 7.499s7.499-3.357 7.499-7.499v-9.605h4.963c11.984 0 21.734-9.75 21.734-21.734s-9.75-21.733-21.734-21.733h-24.924c-11.984 0-21.734 9.749-21.734 21.733s9.75 21.734 21.734 21.734zm0-28.47h24.924c3.715 0 6.737 3.022 6.737 6.736 0 3.715-3.022 6.737-6.737 6.737h-24.924c-3.715 0-6.737-3.022-6.737-6.737.001-3.714 3.022-6.736 6.737-6.736z"/><path d="m321.723 268.776h4.963v9.605c0 4.142 3.357 7.499 7.499 7.499 4.141 0 7.499-3.357 7.499-7.499v-9.605h4.963c11.984 0 21.734-9.75 21.734-21.734s-9.75-21.733-21.734-21.733h-24.923c-11.984 0-21.734 9.749-21.734 21.733s9.749 21.734 21.733 21.734zm0-28.47h24.923c3.715 0 6.737 3.022 6.737 6.736 0 3.715-3.022 6.737-6.737 6.737h-24.923c-3.715 0-6.737-3.022-6.737-6.737 0-3.714 3.022-6.736 6.737-6.736z"/><path d="m256 508.123c56.703 0 108.92-17.71 147.034-49.867 3.165-2.67 3.566-7.402.896-10.567-2.671-3.165-7.401-3.567-10.567-.896-35.412 29.878-84.196 46.332-137.363 46.332-100.915 0-187.091-59.339-194.935-159.913 0-.006 0-.013 0-.019-2.422-30.836 2.475-62.859 15.425-92.766.017-.04.026-.081.043-.12 4.097-9.445 8.957-18.59 14.558-27.357 1.198.206 3.456.401 5.12.401.006 0 .012.001.019.001h20.242c-3.058 11.777-4.611 23.91-4.611 36.2 0 39.529 15.746 63.43 49.331 74.453-4.253 6.243-8.741 12.047-13.848 15.62-10.17 7.116-9.281 22.386 1.664 28.168 12.556 6.633 31.818 14.719 52.275 15.569 22.468.934 40.588-6.772 54.718-21.139 14.69 14.936 33.06 22.04 54.718 21.139 20.457-.851 39.718-8.936 52.275-15.569 10.932-5.776 11.847-21.044 1.664-28.168-5.107-3.574-9.594-9.377-13.848-15.62 33.585-11.023 49.331-34.924 49.331-74.453 0-12.289-1.553-24.423-4.612-36.2h20.242.018c1.674-.001 3.93-.196 5.122-.402 41.449 64.886 42.637 153.912-7.273 213.531-2.658 3.176-2.239 7.905.936 10.564 3.176 2.659 7.905 2.239 10.564-.936 22.563-26.953 36.254-59.8 40.193-95.981 16.71-3.647 29.16-11.984 37.03-24.869 9.469-15.502 16.766-45.649-2.24-101.243v-.001c-5.28-15.441-24.638-20.504-36.75-9.578-7.892 7.121-14.44 13.995-19.131 19.238-2.829-5.63-5.921-11.146-9.269-16.535 8.28-5.977 13.684-15.702 13.684-26.671v-16.269c0-18.132-14.752-32.884-32.884-32.884h-13.047l-93.732-103.879c-13.51-14.973-32.825-23.56-52.992-23.56s-39.482 8.587-52.992 23.56l-21.89 24.259c-2.774 3.075-2.531 7.816.544 10.59 3.075 2.775 7.815 2.531 10.591-.543l21.89-24.259c10.671-11.827 25.928-18.61 41.857-18.61s31.186 6.783 41.857 18.609l84.667 93.832h-253.048l42.646-47.262c2.774-3.075 2.531-7.816-.544-10.59-3.076-2.775-7.816-2.532-10.591.543l-51.711 57.309h-13.046c-18.132 0-32.884 14.752-32.884 32.884v16.269c0 10.969 5.404 20.694 13.683 26.671-3.347 5.388-6.44 10.904-9.269 16.535-4.69-5.243-11.237-12.115-19.131-19.238-12.117-10.931-31.472-5.855-36.749 9.579-19.007 55.592-11.709 85.74-2.241 101.242 7.868 12.882 20.313 21.219 37.017 24.867 11.332 105.188 102.596 167.999 209.344 167.999zm217.417-292.552c4.125-3.723 10.707-1.986 12.512 3.295 18.027 52.729 10.013 78.128 3.633 88.574-5.054 8.275-12.667 13.871-23.134 16.963.886-29.213-4.258-58.417-15.373-85.711 4.06-4.832 11.938-13.716 22.362-23.121zm-117.428 138.961c-11.19 5.911-28.235 13.111-45.894 13.845-19.6.817-35.836-6.631-48.239-22.135-2.999-3.749-8.71-3.751-11.711 0-12.403 15.504-28.641 22.955-48.239 22.135-17.659-.734-34.704-7.935-45.893-13.845-1.042-.551-1.043-1.94-.072-2.62 14.206-9.941 22.231-28.636 31.901-39.985 15.309-17.88 45.619-27.59 63.121-11.72 2.858 2.59 7.215 2.591 10.073 0 16.05-14.555 41.561-7.635 58.38 6.971 5.314 4.665 8.768 9.75 13.192 16.482 6.662 10.145 13.517 21.3 23.451 28.251.976.684.969 2.072-.07 2.621zm29.154-104.981c0 34.341-12.921 52.978-42.977 61.419-3.051-4.453-6.785-9.47-10.851-13.258-16.761-15.621-42.254-25.186-63.859-18.202-3.982 1.287-7.828 3.137-11.457 5.612-22.945-15.65-55.008-6.336-75.316 12.59-.004.004-.009.009-.013.014-4.01 3.74-7.742 8.718-10.838 13.245-30.055-8.441-42.976-27.078-42.976-61.419 0-12.329 1.735-24.481 5.163-36.2h247.96c3.429 11.718 5.164 23.87 5.164 36.199zm-306.8-85.351c0-9.863 8.024-17.887 17.886-17.887h319.541c9.862 0 17.886 8.024 17.886 17.887v16.269c0 9.883-8.077 17.886-17.886 17.886-12.409 0-303.608 0-319.541 0-9.831 0-17.886-8.018-17.886-17.886zm-32.77 160.203c-10.466-3.092-18.08-8.689-23.134-16.964-6.381-10.447-14.394-35.846 3.633-88.573 1.809-5.292 8.392-7.012 12.512-3.295 10.428 9.408 18.304 18.29 22.361 23.121-11.067 27.174-16.245 56.264-15.372 85.711z"/></g></g></svg>