<svg id="Capa_1" enable-background="new 0 0 512 512" height="512" viewBox="0 0 512 512" width="512" xmlns="http://www.w3.org/2000/svg"><g><g><path d="m256 7.5c-96.04 0-173.9 111.26-173.9 248.5s77.86 248.5 173.9 248.5 173.9-111.26 173.9-248.5-77.86-248.5-173.9-248.5z" fill="#e8a882"/><path d="m160.522 210.691c0-78.299 10.989-148.617 56.301-196.858-77.174 25.393-134.723 124.178-134.723 242.167 0 137.24 77.86 248.5 173.9 248.5 38.407 0 73.898-17.807 102.674-47.938-113.909-26.81-198.152-122.927-198.152-245.871z" fill="#e3986d"/><path d="m256 52.5 64.45 123.86-64.45 79.64-59.756 76.527-69.144-76.527c0-57.23 15.2-110.47 42.8-149.92 14.01-20.01 43.81-53.58 86.1-53.58z" fill="#fbe29f"/><path d="m384.9 256c0 57.23-15.2 110.47-42.8 149.92-14.01 20.01-43.81 53.58-86.1 53.58l-59.756-126.973 59.756-76.527 64.45-79.64z" fill="#fbe29f"/><path d="m384.9 256h-128.9v-203.5c42.29 0 72.09 33.57 86.1 53.58 27.6 39.45 42.8 92.69 42.8 149.92z" fill="#a7e0f5"/><path d="m208.972 359.574 47.028 99.926c21.235 0 39.318-8.466 53.837-19.427-40.427-18.124-75.121-45.793-100.865-80.499z" fill="#f8d070"/><path d="m160.522 210.691c0-37.619 2.537-73.396 10.198-105.767-.275.387-.556.778-.821 1.156-27.6 39.45-42.8 92.69-42.8 149.92l58.142 64.35c-15.848-32.772-24.719-69.801-24.719-109.659z" fill="#f8d070"/><path d="m256 256v203.5c-42.29 0-72.09-33.57-86.1-53.58-27.6-39.45-42.8-92.69-42.8-149.92z" fill="#a7e0f5"/><circle cx="256" cy="256" fill="#e8a882" r="65.773"/><circle cx="256" cy="256" fill="#c7c5cb" r="28.587"/><path d="m164.472 256h-37.372c0 57.23 15.2 110.47 42.8 149.92 14.01 20.01 43.81 53.58 86.1 53.58v-51.803c-47.205-36.863-80.535-89.629-91.528-151.697z" fill="#78cbec"/></g><g><path d="m131.327 82.552c-3.495-2.224-8.131-1.193-10.354 2.301-29.904 46.997-46.373 107.778-46.373 171.147 0 67.899 18.57 131.83 52.29 180.015 34.29 49 80.142 75.985 129.11 75.985s94.82-26.985 129.11-75.985c33.72-48.185 52.29-112.116 52.29-180.015s-18.57-131.83-52.29-180.015c-34.29-49-80.142-75.985-129.11-75.985-42.605 0-83.969 21.152-116.473 59.561-2.676 3.162-2.282 7.894.88 10.57s7.895 2.281 10.57-.88c29.606-34.984 66.904-54.251 105.023-54.251 91.753 0 166.4 108.112 166.4 241s-74.647 241-166.4 241-166.4-108.112-166.4-241c0-60.553 15.636-118.475 44.028-163.094 2.224-3.495 1.193-8.131-2.301-10.354z"/><path d="m256 219.913c-19.898 0-36.087 16.188-36.087 36.087s16.188 36.087 36.087 36.087 36.087-16.188 36.087-36.087-16.189-36.087-36.087-36.087zm0 57.174c-11.627 0-21.087-9.46-21.087-21.087s9.459-21.087 21.087-21.087 21.087 9.459 21.087 21.087c0 11.627-9.46 21.087-21.087 21.087z"/><path d="m345.949 400.449c3.555 2.127 8.16.97 10.287-2.584 23.321-38.969 36.164-89.35 36.164-141.865 0-58.751-15.681-113.521-44.154-154.219 0 0-.001-.001-.002-.002-14.847-21.206-46.573-56.779-92.244-56.779-45.672 0-77.398 35.573-92.246 56.78-28.473 40.699-44.154 95.468-44.154 154.22 0 58.751 15.681 113.521 44.156 154.222 14.847 21.205 46.573 56.778 92.244 56.778 37.122 0 64.999-23.565 81.848-43.334 2.687-3.152 2.31-7.886-.843-10.573s-7.886-2.31-10.573.843c-13.6 15.956-35.162 34.727-62.932 37.667v-122.711c34.256-3.503 61.863-30.854 65.392-65.392h48.417c-1.149 47.104-13.1 91.832-33.943 126.662-2.128 3.554-.971 8.16 2.583 10.287zm-31.677-144.449c0 32.132-26.141 58.272-58.272 58.272s-58.272-26.14-58.272-58.272c0-32.064 26.074-58.272 58.272-58.272 32.132 0 58.272 26.141 58.272 58.272zm-138.228-145.618c12.31-17.583 37.486-46.299 72.456-49.988v122.714c-34.32 3.501-61.871 30.936-65.392 65.392h-48.419c1.261-52.833 15.834-101.641 41.355-138.118zm.001 291.239c-25.522-36.481-40.095-85.288-41.356-138.121h48.419c3.512 34.373 30.967 61.871 65.392 65.392v122.714c-34.969-3.689-60.146-32.405-72.455-49.985zm152.847-153.121c-3.537-34.62-31.215-61.905-65.392-65.392v-122.714c34.969 3.689 60.146 32.405 72.456 49.988l-.001-.002c25.522 36.481 40.095 85.288 41.356 138.121h-48.419z"/></g></g></svg>