<svg id="Capa_1" enable-background="new 0 0 512 512" height="512" viewBox="0 0 512 512" width="512" xmlns="http://www.w3.org/2000/svg"><g><g><ellipse cx="256" cy="265.347" fill="#fb8978" rx="243.381" ry="228.492"/><path d="m489.664 200.996c-19.358-62.526-66.259-113.94-127.929-141.724 14.352 19.292 21.889 41.659 21.889 65.249 0 29.324-11.256 54.17-33.461 73.851-23.926 21.216-57.367 32.899-94.163 32.899-36.795 0-70.237-11.684-94.168-32.903-22.2-19.677-33.456-44.522-33.456-73.847 0-23.59 7.536-45.956 21.888-65.249-61.669 27.784-108.57 79.198-127.928 141.724 12.281 32.904 32.611 62.578 60.094 86.941 45.849 40.645 107.49 63.029 173.57 63.029s127.721-22.384 173.57-63.029c27.483-24.363 47.813-54.037 60.094-86.941z" fill="#f67561"/><path d="m256 434.144c-50.146 0-96.876-18.001-131.583-50.686-33.6-31.643-52.104-73.589-52.104-118.112s18.504-86.468 52.104-118.112c34.707-32.684 81.437-50.685 131.583-50.685s96.876 18.001 131.583 50.686c33.601 31.643 52.105 73.589 52.105 118.112s-18.504 86.469-52.105 118.112c-34.707 32.685-81.437 50.685-131.583 50.685z" fill="#80dfb5"/><path d="m387.583 147.235c-1.78-1.676-3.599-3.304-5.442-4.903-3.714 21.682-14.42 40.477-31.978 56.04-23.926 21.216-57.367 32.899-94.163 32.899-36.795 0-70.237-11.684-94.168-32.903-17.554-15.56-28.259-34.354-31.973-56.036-1.842 1.599-3.662 3.227-5.442 4.903-33.6 31.643-52.104 73.589-52.104 118.111 0 4.577.206 9.124.594 13.638 3.075 3.055 6.243 6.046 9.523 8.953 45.849 40.645 107.49 63.029 173.57 63.029s127.721-22.384 173.57-63.029c3.28-2.908 6.448-5.898 9.523-8.954.387-4.514.594-9.061.594-13.637 0-44.521-18.504-86.468-52.104-118.111z" fill="#36d39a"/><path d="m117.383 21.646h277.234l54.929 83.581-46.596 128.661-146.95 63.984-138.617-57.724-53.127-137.703z" fill="#80dfb5"/><path d="m147.711 119.699c0-35.856 9.897-69.396 27.097-98.054h-57.425l-53.127 80.799 53.127 137.703 138.617 57.725 6.828-2.973c-67.724-29.304-115.117-96.712-115.117-175.2z" fill="#36d39a"/><path d="m446.372 24.893c-6.251-10.754-17.732-17.393-30.17-17.393h-27.442c-12.498 0-19.127 14.734-10.863 24.11 22.315 25.316 35.726 57.683 35.726 92.912 0 47.676-23.689 78.687-43.557 96.297-29.419 26.087-69.932 40.453-114.066 40.453s-84.647-14.367-114.066-40.453c-19.868-17.61-43.557-48.621-43.557-96.297 0-35.228 13.411-67.596 35.726-92.912 8.264-9.375 1.635-24.11-10.863-24.11h-27.442c-12.439 0-23.92 6.639-30.171 17.393-17.171 29.54-26.946 63.501-26.946 99.628 0 113.987 97.292 196.445 217.318 196.445s217.318-82.458 217.318-196.445c.001-36.127-9.774-70.088-26.945-99.628z" fill="#ff9e8e"/><g><g><g><ellipse cx="164.545" cy="123.389" fill="#ffefe0" rx="33.745" ry="26.873"/></g><g><ellipse cx="347.455" cy="123.389" fill="#ffefe0" rx="33.745" ry="26.873"/></g></g></g><path d="m222.238 243.915h67.524v160.757h-67.524z" fill="#fb8978"/><path d="m287.659 229.709 13.534-13.534c8.741-8.742 8.741-22.916 0-31.658s-22.915-8.741-31.658 0l-13.535 13.534-13.535-13.534c-8.741-8.741-22.915-8.742-31.658 0-8.742 8.742-8.742 22.916 0 31.658l13.534 13.534-13.534 13.534c-8.742 8.742-8.742 22.916 0 31.658 4.372 4.371 10.1 6.556 15.829 6.556 5.728 0 11.458-2.186 15.829-6.556l13.535-13.534 13.534 13.534c4.371 4.371 10.101 6.556 15.829 6.556 5.729 0 11.458-2.186 15.829-6.556 8.741-8.742 8.741-22.916 0-31.658z" fill="#fbe29f"/><path d="m222.238 404.672v42.076c0 20.741 8.898 40.484 24.437 54.222 5.325 4.708 13.324 4.708 18.649 0 15.539-13.737 24.437-33.481 24.437-54.222v-42.076z" fill="#fbe29f"/><path d="m222.238 446.748c0 10.526 2.302 20.792 6.591 30.149h54.343c4.289-9.358 6.591-19.623 6.591-30.149v-42.076h-67.524v42.076z" fill="#f8d070"/><path d="m289.762 382.345h-67.524c-12.999 0-23.538 10.538-23.538 23.537v17.477c0 12.999 10.538 23.538 23.538 23.538h67.524c12.999 0 23.538-10.538 23.538-23.538v-17.477c-.001-12.999-10.539-23.537-23.538-23.537z" fill="#fbe29f"/><path d="m223.177 178.253c-4.527.705-8.882 2.777-12.37 6.265-8.742 8.742-8.742 22.916 0 31.658l13.534 13.534-13.534 13.534c-8.742 8.742-8.742 22.916 0 31.658 4.372 4.371 10.1 6.557 15.829 6.557 5.728 0 11.458-2.187 15.829-6.557l13.535-13.535 13.534 13.534c4.371 4.371 10.101 6.557 15.829 6.557s11.458-2.187 15.829-6.557c3.868-3.868 6.017-8.8 6.462-13.854-44.206-4.093-79.518-38.844-84.477-82.794z" fill="#f8d070"/></g><g><path d="m184.21 76.226c-4.142 0-7.5 3.358-7.5 7.5v13.795c0 4.143 3.358 7.5 7.5 7.5s7.5-3.357 7.5-7.5v-13.794c.001-4.142-3.357-7.501-7.5-7.501z"/><path d="m327.79 105.022c4.142 0 7.5-3.357 7.5-7.5v-13.795c0-4.142-3.358-7.5-7.5-7.5s-7.5 3.358-7.5 7.5v13.795c0 4.142 3.358 7.5 7.5 7.5z"/><path d="m256 113.234c9.421 0 18.381-4.08 24.581-11.195 2.721-3.123 2.396-7.86-.726-10.582-3.123-2.722-7.861-2.397-10.582.727-3.351 3.845-8.189 6.05-13.273 6.05s-9.922-2.205-13.272-6.05c-2.721-3.123-7.459-3.448-10.582-.727s-3.448 7.459-.727 10.582c6.2 7.115 15.16 11.195 24.581 11.195z"/><path d="m235.577 500.555c1.925 2.113 3.969 4.131 6.131 6.043 8.148 7.203 20.436 7.204 28.584 0 2.162-1.911 4.207-3.929 6.131-6.042 60.857-4.558 117.554-29.62 159.95-70.802 2.971-2.886 3.04-7.635.154-10.606-2.887-2.972-7.635-3.04-10.606-.154-36.952 35.895-85.514 58.786-138.08 65.366 5.091-9.543 8.194-20.005 9.125-30.798 10.652-2.55 19.546-10.727 22.665-21.768 27.417-8.824 52.613-23.578 73.096-42.867 35.121-33.076 54.463-76.962 54.463-123.574 0-9.247-.784-18.533-2.323-27.654 12.926-17.971 22.471-37.68 28.465-58.689 12.181 27.131 18.553 56.614 18.553 86.343 0 48.114-16.063 93.791-46.453 132.092-2.574 3.245-2.031 7.963 1.214 10.537 3.245 2.575 7.962 2.031 10.537-1.213 32.516-40.981 49.703-89.882 49.703-141.416 0-38.227-9.835-76.067-28.455-109.623 1.58-10.171 2.392-20.585 2.392-31.206 0-36.173-9.669-71.927-27.962-103.399-7.574-13.031-21.62-21.125-36.656-21.125h-27.442c-9.122 0-17.172 5.387-20.541 14.146h-224.443c-3.374-8.772-11.433-14.146-20.542-14.146h-27.441c-15.036 0-29.082 8.094-36.656 21.124-18.293 31.471-27.962 67.226-27.962 103.399 0 10.561.83 20.954 2.438 31.123-18.651 33.576-28.502 71.447-28.502 109.706 0 60.412 24.031 117.804 67.664 161.606 42.713 42.877 100.422 68.929 162.799 73.597zm-29.377-77.188v-17.477c0-8.843 7.194-16.038 16.038-16.038h67.525c6.632 0 12.337 4.047 14.775 9.801.813 1.918 1.262 4.026 1.262 6.237v17.477c0 8.847-7.198 16.038-16.042 16.038h-67.517-.004c-8.911 0-16.037-7.275-16.037-16.038zm-59.196-208.074c-.032-.028-.065-.056-.097-.084-25.856-22.917-41.033-53.84-41.033-90.686 0-24.962 7.375-50.609 22.622-73.378 9.41-14.05 13.045-14.737 15.568-21.988.001-.004.003-.007.004-.011h223.864c.169.34 1.127 3.777 4.339 7.422 0 .001.001.001.002.002 21.83 24.766 33.852 56.002 33.852 87.953 0 58.416-38.952 102.766-94.3 120.657-1.354-2.579-3.278-5.185-5.329-7.237l-8.231-8.23c2.879-2.879 5.352-5.352 8.231-8.231 11.652-11.653 11.652-30.612 0-42.265-11.697-11.698-30.663-11.599-42.266-.001l-8.23 8.232-8.231-8.231c-11.666-11.658-30.565-11.699-42.265 0-11.607 11.599-11.748 30.518 0 42.265l8.231 8.231-8.231 8.23c-2.125 2.124-4.024 4.749-5.33 7.237-20.687-6.696-38.51-16.911-53.17-29.887zm69.099 33.267c20.901-20.902 10.549-10.549 13.542-13.542 2.927-2.928 2.929-7.678 0-10.607l-13.534-13.535c-5.885-5.884-5.74-15.309 0-21.051 5.87-5.87 15.323-5.736 21.052 0l13.535 13.534c2.953 2.953 7.719 2.887 10.607 0l13.534-13.534c5.529-5.527 14.213-5.675 19.924-1.02 6.813 5.553 7.374 15.826 1.129 22.072l-13.534 13.534c-1.407 1.406-2.197 3.315-2.197 5.304 0 1.989.79 3.897 2.197 5.304l13.534 13.533c6.014 6.005 5.863 16.196-.975 21.936-5.795 4.869-14.531 4.653-20.071-.878-.002-.002-.004-.004-.006-.006l-13.535-13.534c-2.906-2.906-7.674-2.932-10.607 0l-13.535 13.534c-5.845 5.849-15.278 5.774-21.051 0-5.833-5.833-5.747-15.306-.009-21.044zm13.635 40.245c6.406-.621 12.961-3.525 18.031-8.595l8.232-8.231 8.231 8.231c4.785 4.787 11.235 7.928 18.031 8.595v86.047h-52.525c0-16.338 0-69.402 0-86.047zm30.62 206.554c-2.483 2.196-6.23 2.196-8.714 0-11.519-10.183-19.485-24.649-21.432-40.954h51.577c-1.942 16.309-9.927 30.784-21.431 40.954zm122.086-117.354c-17.701 16.67-38.398 29.28-61.643 37.574v-9.689c0-14.542-10.033-26.728-23.538-30.122v-50.541c51.155-8.165 99.639-31.982 134.502-71.195 3.371 44.869-13.212 89.967-49.321 123.973zm6.319-363.005h27.442c9.713 0 18.789 5.235 23.687 13.662 16.964 29.185 25.931 62.333 25.931 95.861 0 10.496-.846 20.776-2.515 30.793-.038.16-.093.314-.121.478-14.234 83.273-83.622 140.314-165.923 154.213v-23.507c3.498-1.519 6.565-3.627 9.32-6.381 5.215-5.255 8.461-12.47 8.651-20.265 62.487-19.742 105.893-70.055 105.893-135.332 0-35.547-13.313-70.32-37.6-97.872-.007-.008-.012-.016-.019-.023-4.091-4.683-.644-11.627 5.254-11.627zm-316.654 13.662c4.898-8.427 13.975-13.662 23.687-13.662h27.441c6.021 0 9.247 7.101 5.237 11.651-24.247 27.507-37.601 62.266-37.601 97.872 0 39.701 15.634 73.965 44.1 100.122 17.967 16.5 39.263 28.099 61.793 35.21.07 2.945.617 6.108 1.67 9.113 1.47 4.204 3.891 8.066 7.067 11.242 2.713 2.713 5.878 4.834 9.234 6.291v23.515c-21.649-3.671-42.136-10.201-61.139-19.425-3.757-1.824-8.235-.223-10.034 3.485-1.809 3.726-.254 8.214 3.472 10.022 20.376 9.891 43.413 17.263 67.701 21.129v50.541c-13.362 3.269-23.538 15.526-23.538 30.122v9.689c-23.245-8.294-43.942-20.904-61.642-37.573-32.08-30.211-49.747-70.22-49.747-112.654 0-3.776.143-7.559.426-11.332 11.553 12.977 25.336 24.816 39.129 34.131 3.459 2.34 8.117 1.389 10.419-2.015 2.32-3.431 1.42-8.094-2.011-10.415-50.767-34.282-81.595-88.962-81.595-151.198 0-33.528 8.967-66.677 25.931-95.861zm-33.39 150.228c6.049 21.088 15.666 40.856 28.432 58.706-1.55 9.153-2.34 18.473-2.34 27.756 0 46.612 19.342 90.498 54.463 123.574 20.483 19.289 45.678 34.043 73.095 42.867 3.15 11.11 12.215 19.321 22.665 21.767.854 10.253 3.85 20.911 9.127 30.802-53.946-6.734-103.459-30.551-140.755-67.991-40.814-40.97-63.291-94.604-63.291-151.02-.001-29.771 6.389-59.298 18.604-86.461z"/></g></g></svg>