<svg id="Capa_1" enable-background="new 0 0 512 512" height="512" viewBox="0 0 512 512" width="512" xmlns="http://www.w3.org/2000/svg"><g><g><path d="m366.924 95.076c37.425-21.986 76.019-28.03 102.543-29.121 19.099-.782 34.982 14.551 35.031 33.66.068 26.167-2.076 64.114-12.456 98.246l-86.182-21.918z" fill="#f8d070"/><path d="m145.075 95.076c-37.425-21.986-76.019-28.03-102.543-29.121-19.099-.783-34.982 14.551-35.031 33.659-.068 26.167 2.076 64.114 12.456 98.246l86.182-21.918z" fill="#f8d070"/><path d="m35.611 344.916v60.469c0 22.471 18.217 40.688 40.688 40.688h359.401c22.471 0 40.688-18.217 40.688-40.688v-60.469l-220.388-36.165z" fill="#fbe29f"/><path d="m256 124.528c-121.717 0-220.389 98.671-220.389 220.388h440.777c0-121.717-98.671-220.388-220.388-220.388z" fill="#f8d070"/><circle cx="256" cy="395.495" fill="#f2c13b" r="19.74"/><path d="m95.266 335.127-59.655 9.79v60.469c0 22.472 18.217 40.688 40.688 40.688h68.432c-23.827-32.458-40.993-70.107-49.465-110.947z" fill="#f8d070"/><circle cx="123.105" cy="395.495" fill="#f2c13b" r="19.74"/><circle cx="388.895" cy="395.495" fill="#f2c13b" r="19.74"/><g><g><g><ellipse cx="162.223" cy="284.361" fill="#ff889e" rx="34.602" ry="27.555"/></g><g><ellipse cx="349.776" cy="284.361" fill="#ff889e" rx="34.602" ry="27.555"/></g></g></g><path d="m492.043 197.861c-6.981 22.952-17.699 44.184-33.978 58.948-46.135-19.978-77.477-43.547-98.488-64.683-31.313-31.497-39.685-57.567-39.888-58.243-.01-.01-.01-.01-.01-.01 14.783-16.579 30.898-29.208 47.245-38.797 15.391 23.753 50.818 65.495 125.119 102.785z" fill="#fbe29f"/><path d="m89.278 276.597c0-31.967 5.237-62.708 14.891-91.422-42.23 40.151-68.558 96.871-68.558 159.741h61.88c-5.353-21.897-8.213-44.773-8.213-68.319z" fill="#f2c13b"/><path d="m57.798 133.618c0-26.722 2.426-48.271 7.642-65.61-8.295-1.146-16.012-1.77-22.908-2.054-19.099-.782-34.982 14.552-35.031 33.66-.068 26.167 2.076 64.114 12.456 98.247l46.286-11.772c-5.466-17.108-8.445-34.875-8.445-52.471z" fill="#f2c13b"/><path d="m19.957 197.861c6.981 22.952 17.699 44.184 33.978 58.948 46.135-19.978 77.477-43.547 98.488-64.683 31.313-31.497 39.685-57.567 39.888-58.243.01-.01.01-.01.01-.01-14.783-16.579-30.898-29.208-47.245-38.797-15.392 23.753-50.818 65.495-125.119 102.785z" fill="#fbe29f"/><path d="m62.676 173.413c-12.569 8.207-26.743 16.43-42.719 24.448 6.981 22.952 17.699 44.185 33.978 58.948 13.964-6.046 26.564-12.423 37.941-18.961-13.546-19.412-23.645-41.524-29.2-64.435z" fill="#f8d070"/></g><g><path d="m256 368.255c-15.021 0-27.24 12.22-27.24 27.24s12.22 27.24 27.24 27.24 27.24-12.22 27.24-27.24-12.219-27.24-27.24-27.24zm0 39.48c-6.75 0-12.24-5.491-12.24-12.24s5.491-12.24 12.24-12.24 12.24 5.491 12.24 12.24-5.49 12.24-12.24 12.24z"/><path d="m123.105 368.255c-15.02 0-27.24 12.22-27.24 27.24s12.22 27.24 27.24 27.24c15.021 0 27.24-12.22 27.24-27.24s-12.22-27.24-27.24-27.24zm0 39.48c-6.749 0-12.24-5.491-12.24-12.24s5.491-12.24 12.24-12.24c6.75 0 12.24 5.491 12.24 12.24s-5.491 12.24-12.24 12.24z"/><path d="m388.895 368.255c-15.021 0-27.24 12.22-27.24 27.24s12.22 27.24 27.24 27.24 27.24-12.22 27.24-27.24-12.219-27.24-27.24-27.24zm0 39.48c-6.75 0-12.24-5.491-12.24-12.24s5.491-12.24 12.24-12.24 12.24 5.491 12.24 12.24-5.49 12.24-12.24 12.24z"/><path d="m280.335 251.76c-3.123-2.721-7.86-2.396-10.582.727-3.472 3.984-8.484 6.269-13.753 6.269s-10.281-2.285-13.753-6.269c-2.721-3.123-7.459-3.448-10.582-.727s-3.448 7.459-.727 10.582c6.321 7.253 15.456 11.414 25.062 11.414s18.74-4.16 25.062-11.414c2.721-3.123 2.396-7.86-.727-10.582z"/><path d="m198.266 231.421-28.366-7.601c-3.998-1.071-8.114 1.302-9.186 5.303s1.302 8.114 5.303 9.186l9.855 2.641c-.623 1.093-.983 2.355-.983 3.703v12.219c0 4.142 3.358 7.5 7.5 7.5s7.5-3.358 7.5-7.5v-12.166l4.494 1.204c4.017 1.077 8.118-1.319 9.186-5.303 1.072-4.001-1.302-8.113-5.303-9.186z"/><path d="m342.1 223.821-28.366 7.601c-4.001 1.072-6.375 5.185-5.303 9.186 1.069 3.988 5.173 6.379 9.186 5.303l4.494-1.204v12.166c0 4.142 3.358 7.5 7.5 7.5s7.5-3.358 7.5-7.5v-12.219c0-1.348-.36-2.61-.983-3.703l9.855-2.641c4.001-1.072 6.375-5.185 5.303-9.186s-5.183-6.376-9.186-5.303z"/><path d="m469.16 58.461c-56.943 2.341-111.416 23.567-151.881 66.923-19.896-5.544-40.487-8.356-61.279-8.356-20.793 0-41.383 2.813-61.28 8.356-40.395-43.282-94.821-64.577-151.881-66.923-23.191-.951-42.778 17.578-42.837 41.134-.068 26.426 2.093 65.303 12.779 100.445 0 .001 0 .002.001.003 7.552 24.83 18.398 44.497 32.258 58.588-11.231 27.402-16.928 56.401-16.928 86.285v60.469c0 26.571 21.617 48.188 48.188 48.188h359.4c26.571 0 48.188-21.617 48.188-48.188v-60.469c0-29.883-5.698-58.882-16.928-86.285 13.86-14.091 24.706-33.758 32.258-58.588 0-.001 0-.002.001-.003 10.686-35.142 12.848-74.019 12.779-100.445-.028-11.34-4.555-21.903-12.745-29.746-8.152-7.804-18.845-11.846-30.093-11.388zm.615 14.987c7.129-.286 13.926 2.277 19.104 7.236 5.218 4.996 8.101 11.725 8.119 18.95.06 23.213-1.647 56.347-9.686 87.348-26.451-14.015-52.22-30.985-74.317-50.661-12.997-11.574-25.078-24.41-35.252-38.704 34.101-18.138 68.518-23.201 92.032-24.169zm-362.491 75.602c3.106-2.74 3.404-7.479.664-10.586-2.53-2.869-7.12-3.705-10.88-.409-21.701 19.089-46.395 35.242-72.379 48.928-8.039-31-9.747-64.137-9.687-87.35.037-14.896 12.382-26.788 27.223-26.185 23.516.967 57.938 6.033 92.042 24.173-8.321 11.641-15.682 19.175-16.547 20.342-2.281 3.076-1.872 7.407.976 10.002 3.061 2.791 7.804 2.573 10.596-.488 6.327-6.937 12.571-14.59 17.981-22.265 13.292 8.484 25.493 18.642 36.384 30.292-7.707 18.151-22.518 37.214-36.551 51.333-25.919 26.077-57.789 45.906-91.603 61.066-10.946-11.211-19.82-26.731-26.452-46.263 26.493-13.554 55.492-32.534 78.233-52.59zm328.416 289.524h-359.401c-18.3 0-33.188-14.888-33.188-33.188v-52.969h425.777v52.969c0 18.3-14.888 33.188-33.188 33.188zm20.786-190.657c-7.324-3.19-20.291-9.564-31.094-15.697-3.613-2.051-8.188-.769-10.226 2.82-2.045 3.603-.782 8.18 2.82 10.225 10.179 5.783 22.088 11.803 34.341 17.22 10.028 23.837 15.543 48.996 16.434 74.932h-425.521c.89-25.936 6.406-51.094 16.433-74.931 35.766-15.785 70.497-37.341 98.069-65.072 15.223-15.321 32.492-37.624 40.343-57.399 18.79-5.301 38.254-7.986 57.915-7.986s39.125 2.686 57.916 7.986c7.926 19.957 25.261 42.227 40.342 57.399 10.923 10.988 23.409 21.436 37.112 31.052 3.392 2.38 8.068 1.561 10.448-1.83 2.383-3.397 1.555-8.072-1.831-10.447-12.982-9.111-24.789-18.986-35.091-29.351-14.355-14.438-28.854-33.206-36.553-51.332 10.892-11.651 23.095-21.81 36.387-30.294 10.544 14.953 23.834 29.315 37.645 41.755 23.55 21.191 52.942 40.472 80.575 54.675-6.634 19.537-15.514 35.063-26.464 46.275z"/></g></g></svg>