<svg id="Capa_1" enable-background="new 0 0 512 512" height="512" viewBox="0 0 512 512" width="512" xmlns="http://www.w3.org/2000/svg"><g><g><path d="m134.861 504.495 156.661.005-59.852-137.152-.363-22.205h-120.213v46.948l16.964 16.286c-5.144 8.949-10.078 19.422-14.146 31.468z" fill="#fb8978"/><path d="m458.73 504.5h-167.209c-36.738-29.814-60.214-75.323-60.214-126.322 0-3.633.121-7.247.363-10.83h168.602s58.458 42.461 58.458 137.152z" fill="#80dfb5"/><path d="m422.194 390.088c-11.811-15.389-21.922-22.74-21.922-22.74h-168.602c-.242 3.583-.363 7.196-.363 10.83 0 13.511 1.663 26.631 4.768 39.182 14.441 1.639 29.495 2.463 45.141 2.463 60.532-.001 106.382-12.311 140.978-29.735z" fill="#36d39a"/><path d="m231.67 367.348-.363-22.205h-120.213v27.432c4.12 2.945 8.349 5.77 12.708 8.436 35.881 21.946 79.652 34.666 130.391 37.948z" fill="#f67561"/><circle cx="242.846" cy="396.105" fill="#fbe29f" r="50.962"/><path d="m242.846 345.143c-28.146 0-50.962 22.816-50.962 50.962 0 4.738.66 9.319 1.87 13.671 26.611 6.677 55.826 10.046 87.463 10.046 2.274 0 4.528-.018 6.761-.052 3.717-7.073 5.83-15.121 5.83-23.666 0-28.145-22.817-50.961-50.962-50.961z" fill="#f8d070"/><path d="m281.216 389.822c-128.394 0-181.902-59.109-203.193-97.899-8.891-16.199-8.618-36.015 1.16-51.695 10.625-17.039 17.101-37.154 17.101-60.877 0-132.094 44.784-171.851 106.428-171.851 27.52 0 46.114 3.711 58.268 7.82 13.11 4.432 27.364 4.432 40.474 0 12.154-4.109 30.748-7.82 58.268-7.82 61.644 0 106.427 39.757 106.427 171.851 0 23.723 6.476 43.838 17.101 60.877 9.778 15.68 10.051 35.496 1.16 51.695-21.291 38.79-74.799 97.899-203.194 97.899z" fill="#5c586f"/><path d="m337.64 95.25c-12.446-.175-24.264 2.425-34.879 7.222-13.654 6.17-29.435 6.17-43.089 0-10.614-4.796-22.433-7.397-34.879-7.222-44.657.629-80.895 37.521-80.764 82.182.002.807.016 1.612.042 2.414 1.098 34.428 32.55 59.964 66.618 54.88 21.597-3.223 40.624-8.322 53.455-12.29 11.119-3.439 23.025-3.439 34.144 0 12.831 3.968 31.858 9.067 53.455 12.29 34.068 5.084 65.521-20.452 66.618-54.88.026-.802.04-1.606.042-2.413.132-44.661-36.106-81.554-80.763-82.183z" fill="#ffdcce"/><path d="m219.357 160.797h-24.607c-7.762 0-14.054 6.292-14.054 14.054s6.292 14.054 14.054 14.054h24.607c7.762 0 14.054-6.292 14.054-14.054s-6.292-14.054-14.054-14.054z" fill="#5c586f"/><path d="m343.076 160.797h24.607c7.762 0 14.054 6.292 14.054 14.054s-6.292 14.054-14.054 14.054h-24.607c-7.762 0-14.054-6.292-14.054-14.054-.001-7.762 6.292-14.054 14.054-14.054z" fill="#5c586f"/><path d="m98.462 356.507h45.45v103.742h-45.45z" fill="#edb798"/><path d="m98.462 356.507h45.45v48.146h-45.45z" fill="#e8a882"/><path d="m124.603 159.719c0-54.932 18.553-106.525 49.56-148.846-46.444 11.967-77.879 57.815-77.879 168.479 0 23.723-6.476 43.838-17.101 60.877-9.778 15.68-10.051 35.496-1.16 51.695 21.291 38.79 74.799 97.898 203.193 97.898 2.814 0 5.578-.039 8.32-.094-95.178-35.325-164.933-123.461-164.933-230.009z" fill="#4f4c5f"/><path d="m51.585 273.321h144.324v101.332h-144.324z" fill="#c7c5cb"/><path d="m205.765 263.56h-19.713c-8.532 0-15.449 6.917-15.449 15.449v89.955c0 8.532 6.917 15.449 15.449 15.449h19.713c8.532 0 15.449-6.917 15.449-15.449v-89.955c0-8.532-6.917-15.449-15.449-15.449z" fill="#b2b0bc"/><path d="m105.773 273.321h-54.188v101.332h93.004c-24.087-26.896-38.758-62.399-38.816-101.332z" fill="#b2b0bc"/><path d="m36.609 263.56h19.713c8.532 0 15.449 6.917 15.449 15.449v89.955c0 8.532-6.917 15.449-15.449 15.449h-19.713c-8.532 0-15.449-6.917-15.449-15.449v-89.955c0-8.532 6.916-15.449 15.449-15.449z" fill="#a19dae"/><path d="m121.187 439.165c-21.816 0-39.502 17.686-39.502 39.502 0 14.265 11.564 25.828 25.828 25.828h27.347c14.265 0 25.828-11.564 25.828-25.828.001-21.816-17.685-39.502-39.501-39.502z" fill="#ffdcce"/><path d="m111.094 454.981c0-5.158.646-10.163 1.848-14.948-17.857 3.793-31.257 19.646-31.257 38.634 0 14.265 11.564 25.829 25.828 25.829h27.347c.487 0 .971-.017 1.451-.043-15.277-11.119-25.217-29.13-25.217-49.472z" fill="#ffcabd"/></g><g><path d="m425.904 177.455c.143-48.775-39.405-89.017-88.158-89.704-13.271-.183-26.079 2.466-38.073 7.886-11.73 5.301-25.184 5.3-36.913 0-11.995-5.42-24.81-8.072-38.072-7.886-49.573.699-89.704 42.311-88.113 92.334 1.236 38.759 36.61 67.821 75.222 62.059 22.372-3.339 42.02-8.664 54.563-12.542 9.718-3.005 19.993-3.006 29.712 0 12.543 3.879 32.192 9.204 54.563 12.542 38.504 5.744 75.131-23.223 75.269-64.689zm-163.975 37.816c-12.046 3.726-30.906 8.838-52.346 12.037-29.105 4.345-57.043-17.209-58.016-47.699-1.312-41.761 32.171-76.28 73.332-76.859 11.094-.148 21.718 2.053 31.685 6.557 15.654 7.074 33.612 7.074 49.266 0 9.974-4.506 20.636-6.713 31.685-6.557 40.575.572 73.488 34.064 73.369 74.661-.087 32.687-28.956 54.241-58.054 49.898-21.439-3.199-40.299-8.312-52.346-12.037-12.617-3.903-25.956-3.902-38.575-.001z"/><path d="m362.88 205.792v-9.386h4.803c11.885 0 21.554-9.669 21.554-21.554s-9.669-21.555-21.554-21.555h-24.606c-11.885 0-21.555 9.669-21.555 21.555 0 11.885 9.669 21.554 21.555 21.554h4.803v9.386c0 4.143 3.358 7.5 7.5 7.5s7.5-3.358 7.5-7.5zm-26.358-30.941c0-3.614 2.94-6.555 6.555-6.555h24.606c3.614 0 6.554 2.94 6.554 6.555s-2.94 6.554-6.554 6.554h-24.606c-3.615 0-6.555-2.94-6.555-6.554z"/><path d="m219.357 153.296h-24.606c-11.885 0-21.554 9.669-21.554 21.555 0 11.885 9.669 21.554 21.554 21.554h4.803v9.386c0 4.143 3.358 7.5 7.5 7.5s7.5-3.357 7.5-7.5v-9.386h4.803c11.885 0 21.555-9.669 21.555-21.554s-9.669-21.555-21.555-21.555zm0 28.109h-24.606c-3.614 0-6.554-2.94-6.554-6.554s2.94-6.555 6.554-6.555h24.606c3.614 0 6.555 2.94 6.555 6.555s-2.94 6.554-6.555 6.554z"/><path d="m296.569 244.744c-3.875 4.447-9.471 6.998-15.353 6.998s-11.477-2.551-15.352-6.997c-2.721-3.123-7.459-3.448-10.582-.728-3.123 2.722-3.448 7.459-.727 10.582 6.725 7.717 16.442 12.143 26.661 12.143 10.218 0 19.936-4.426 26.661-12.143 2.721-3.123 2.396-7.86-.727-10.582-3.122-2.721-7.859-2.396-10.581.727z"/><path d="m75.086 382.153h15.876v60.558c-10.249 8.629-16.777 21.542-16.777 35.957 0 18.377 14.951 33.328 33.329 33.328 255.587.006 346.232.004 351.216.004 4.142 0 7.5-3.358 7.5-7.5 0-27.23-4.705-52.892-13.985-76.272-1.528-3.85-5.886-5.732-9.738-4.204-3.85 1.528-5.732 5.888-4.205 9.737 7.726 19.466 12.021 40.706 12.799 63.239h-156.86c-15.014-12.619-27.261-27.735-36.406-44.39 25.247-6.704 43.145-29.58 43.468-55.784 33.491-1.692 67.13-7.8 97.769-20.777 5.248 4.58 16.135 15.204 26.638 32.418 2.158 3.535 6.773 4.653 10.309 2.496 3.536-2.158 4.653-6.773 2.496-10.309-6.983-11.445-15.186-21.97-24.776-31.465 34.776-17.884 60.884-43.846 77.246-73.657 10.277-18.724 9.752-41.436-1.371-59.271-10.593-16.988-15.965-36.135-15.965-56.909 0-120.685-37.266-179.352-113.927-179.352-24.133 0-44.545 2.764-60.67 8.215-11.5 3.889-24.168 3.889-35.67 0-16.125-5.451-36.537-8.215-60.67-8.215-24.021 0-44.465 5.917-60.764 17.588-3.368 2.411-4.143 7.097-1.731 10.464 2.411 3.368 7.095 4.143 10.464 1.731 13.894-9.947 30.913-14.783 52.031-14.783 22.496 0 41.292 2.499 55.865 7.425 14.599 4.936 30.68 4.936 45.278 0 14.574-4.926 33.37-7.425 55.867-7.425 31.268 0 54.24 10.876 70.228 33.251 19.043 26.65 28.699 70.758 28.699 131.101 0 23.623 6.136 45.44 18.237 64.845 8.255 13.239 8.619 30.144.949 44.118-42.052 76.61-134.332 98.958-221.624 93.184-11.061-.73-20.057-1.77-29.451-3.26 1.239-2.819 1.955-6.017 1.955-9.274v-89.955c0-12.654-10.295-22.949-22.949-22.949h-19.713c-.018 0-.035.001-.052.001-7.479.017-14.46 3.637-18.731 9.759h-88.143c.194-7.673 2.397-15.172 6.421-21.624 12.101-19.405 18.237-41.223 18.237-64.845 0-59.407 9.364-103.094 27.833-129.847 2.354-3.409 1.498-8.08-1.911-10.434s-8.08-1.497-10.433 1.912c-20.516 29.718-30.489 74.979-30.489 138.369 0 20.774-5.372 39.92-15.965 56.909-4.075 6.534-6.758 13.851-7.966 21.451-2.639-1.061-5.517-1.651-8.532-1.651h-19.713c-12.654 0-22.949 10.295-22.949 22.949v89.955c0 12.654 10.295 22.949 22.949 22.949h19.713c7.748 0 14.606-3.864 18.764-9.761zm30.876 52.035v-52.036h30.45v52.036c-4.736-1.627-10.091-2.523-15.225-2.523-5.117 0-10.436.879-15.225 2.523zm-16.777 44.479c0-17.677 14.403-31.99 31.983-32.001h.019s.013 0 .019 0c17.754.012 31.983 14.511 31.983 32v.001c0 10.044-8.188 18.329-18.328 18.329h-27.347c-10.106 0-18.329-8.223-18.329-18.329zm73.5 18.33c3.579-5.416 5.504-11.833 5.504-18.33 0-14.261-6.499-27.327-16.777-35.981v-60.533h15.857c4.119 5.903 10.592 9.28 17.27 9.711-.051.696-.155 2.792-.155 4.241 0 32.356 26.219 57.975 57.515 58.454 7.51 14.903 17.728 29.522 30.313 42.44zm23.357-225.936c.004 0 .008-.001.011-.001h19.712c4.383 0 7.949 3.566 7.949 7.949v89.955c0 4.35-3.548 7.949-7.949 7.949-6.547 0-15.976 0-19.713 0-3.145 0-6.145-1.911-7.382-5.024 0 0 0 0 0-.001-.362-.91-.566-1.92-.567-2.92 0-.001 0-.003 0-.004v-89.955c.001-4.311 3.531-7.942 7.939-7.948zm67.306 125.293c.052.004.103.007.155.01 10.621.751 21.565 1.065 32.777.927-.671 23.576-20.099 42.276-43.433 42.276-23.965 0-43.462-19.497-43.462-43.462 0-1.474.082-2.777.22-4.191 4.752-.139 8.068.456 12.808-.981 12.273 2.456 26.202 4.372 40.935 5.421zm-90.244-29.201c-26.052 0-56.941 0-83.833 0v-86.332h83.833zm-134.444 1.811v-89.955c0-4.383 3.566-7.949 7.949-7.949h19.713c4.345 0 7.843 3.493 7.94 7.765.001.062.009.123.009.184v89.955c0 .063-.008.125-.009.188-.104 4.293-3.616 7.761-7.94 7.761h-19.713c-4.383.001-7.949-3.566-7.949-7.949z"/></g></g></svg>