<svg id="Capa_1" enable-background="new 0 0 512 512" height="512" viewBox="0 0 512 512" width="512" xmlns="http://www.w3.org/2000/svg"><g><g><path d="m370.088 504.5h-228.177l-17.916-32.582 47.476-89.155h182.943l33.591 89.155z" fill="#78cbec"/><circle cx="83.046" cy="233.823" fill="#ffcabd" r="45.077"/><circle cx="428.954" cy="233.823" fill="#ffdcce" r="45.077"/><path d="m354.414 382.762h-182.943l-19.125 35.915c5.306 4.437 10.722 8.567 16.25 12.351 28.024 19.183 57.431 28.91 87.403 28.91s59.379-9.727 87.403-28.91c7.718-5.283 15.223-11.218 22.502-17.767z" fill="#59c2e7"/><path d="m437.01 188.51c0 99.969-81.041 241.428-181.01 241.428s-181.01-141.459-181.01-241.428 81.041-181.01 181.01-181.01 181.01 81.041 181.01 181.01z" fill="#f8d070"/><path d="m160.576 385.702 11.954-8.401c-24.15-42.884-36.317-96.356-36.317-152.561 0-95.695 56.271-178.234 137.522-216.374-5.835-.568-11.75-.866-17.735-.866-99.969 0-181.01 81.041-181.01 181.01 0 64.945 34.208 147.391 85.586 197.192z" fill="#f2c13b"/><path d="m353.264 124.637h-194.528s-40.797 25.443-40.797 77.162c0 46.442 23.45 72.033 107.143 55.934 20.427-3.929 41.409-3.929 61.836 0 83.693 16.099 107.143-9.491 107.143-55.934 0-51.719-40.797-77.162-40.797-77.162z" fill="#ffdcce"/><path d="m419.563 142.648h-327.127c-9.692 0-16.4-9.652-13.062-18.751 3.48-9.484 7.705-18.614 12.604-27.316 2.475-4.396 7.115-7.131 12.16-7.131h303.722c5.045 0 9.685 2.735 12.16 7.131 4.9 8.702 9.125 17.832 12.604 27.316 3.339 9.099-3.369 18.751-13.061 18.751z" fill="#fbe29f"/><path d="m194.786 192.022h-24.55c-7.744 0-14.022 6.278-14.022 14.022s6.278 14.022 14.022 14.022h24.55c7.744 0 14.022-6.278 14.022-14.022s-6.278-14.022-14.022-14.022z" fill="#f8d070"/><path d="m317.214 192.022h24.55c7.744 0 14.022 6.278 14.022 14.022s-6.278 14.022-14.022 14.022h-24.55c-7.744 0-14.022-6.278-14.022-14.022s6.278-14.022 14.022-14.022z" fill="#f8d070"/><path d="m210.295 370.154h-29.139c-4.446 0-7.702-4.187-6.607-8.496l13.044-51.321c1.698-6.681-6.459-11.372-11.38-6.546l-80.248 78.702c-4.359 4.275-1.332 11.684 4.773 11.684h27.402c5.06 0 8.356 5.319 6.104 9.85l-24.768 49.839c-2.252 4.531 1.044 9.85 6.104 9.85h20.584c1.897 0 3.708-.79 4.998-2.181l74.13-79.929c4.047-4.363.953-11.452-4.997-11.452z" fill="#fbe29f"/><path d="m301.704 370.154h29.139c4.446 0 7.702-4.187 6.607-8.496l-13.044-51.321c-1.698-6.681 6.459-11.372 11.38-6.546l80.248 78.702c4.359 4.275 1.332 11.684-4.773 11.684h-27.402c-5.06 0-8.356 5.319-6.104 9.85l24.768 49.839c2.252 4.531-1.044 9.85-6.104 9.85h-20.584c-1.897 0-3.708-.79-4.998-2.181l-74.13-79.929c-4.047-4.363-.953-11.452 4.997-11.452z" fill="#fbe29f"/><path d="m123.995 439.335c-22.942 0-41.54 18.598-41.54 41.54 0 13.047 10.577 23.624 23.624 23.624h35.832c13.047 0 23.624-10.577 23.624-23.624 0-22.941-18.598-41.54-41.54-41.54z" fill="#ffdcce"/><path d="m388.004 439.335c22.942 0 41.54 18.598 41.54 41.54 0 13.047-10.577 23.624-23.624 23.624h-35.832c-13.047 0-23.624-10.577-23.624-23.624 0-22.941 18.598-41.54 41.54-41.54z" fill="#ffdcce"/><path d="m136.214 224.74c0-35.527 7.766-69.236 21.674-99.541-5.828 3.979-39.949 29.297-39.949 76.601 0 21.743 5.141 38.915 19.197 49.379-.608-8.726-.922-17.547-.922-26.439z" fill="#ffcabd"/><path d="m178.203 89.45h-74.064c-5.045 0-9.685 2.735-12.16 7.131-4.9 8.702-9.125 17.832-12.604 27.316-3.338 9.099 3.37 18.751 13.062 18.751h58.255c6.944-18.979 16.238-36.822 27.511-53.198z" fill="#f8d070"/><g fill="#ffcabd"><path d="m113.939 456.928c0-5.868.864-11.532 2.449-16.886-19.307 3.575-33.933 20.49-33.933 40.833 0 13.047 10.577 23.624 23.624 23.624h31.676c-14.459-10.837-23.816-28.111-23.816-47.571z"/><path d="m377.948 456.928c0-5.868.864-11.532 2.449-16.886-19.307 3.575-33.933 20.49-33.933 40.833 0 13.047 10.577 23.624 23.624 23.624h31.676c-14.459-10.837-23.816-28.111-23.816-47.571z"/></g></g><g><path d="m194.786 184.522h-24.55c-11.867 0-21.522 9.655-21.522 21.522s9.655 21.522 21.522 21.522h4.775v9.348c0 4.142 3.358 7.5 7.5 7.5s7.5-3.358 7.5-7.5v-9.348h4.775c11.867 0 21.522-9.655 21.522-21.522s-9.655-21.522-21.522-21.522zm0 28.045h-24.55c-3.596 0-6.522-2.926-6.522-6.522s2.926-6.522 6.522-6.522h24.55c3.596 0 6.522 2.926 6.522 6.522s-2.926 6.522-6.522 6.522z"/><path d="m295.692 206.044c0 11.867 9.655 21.522 21.522 21.522h4.775v9.348c0 4.142 3.358 7.5 7.5 7.5s7.5-3.358 7.5-7.5v-9.348h4.775c11.867 0 21.522-9.655 21.522-21.522s-9.655-21.522-21.522-21.522h-24.55c-11.867 0-21.522 9.655-21.522 21.522zm21.522-6.522h24.55c3.596 0 6.522 2.926 6.522 6.522 0 3.597-2.926 6.522-6.522 6.522h-24.55c-3.596 0-6.522-2.926-6.522-6.522s2.926-6.522 6.522-6.522z"/><path d="m278.746 276.01c-3.123-2.721-7.86-2.397-10.582.726-3.071 3.524-7.504 5.545-12.164 5.545s-9.093-2.021-12.164-5.545c-2.722-3.122-7.46-3.447-10.582-.726-3.123 2.721-3.448 7.459-.727 10.582 5.921 6.793 14.476 10.689 23.472 10.689s17.551-3.896 23.472-10.689c2.722-3.123 2.397-7.861-.725-10.582z"/><path d="m83.045 286.401c1.561 0 3.125-.086 4.686-.227 8.504 21.694 19.437 42.877 32.344 62.168l-29.361 28.796c-9.14 8.963-2.782 24.538 10.024 24.538h26.299l-15.834 31.862c-20.856 5.642-36.249 24.721-36.249 47.337 0 17.162 13.962 31.124 31.124 31.124h299.842c17.162 0 31.124-13.962 31.124-31.124 0-22.616-15.393-41.695-36.249-47.337l-15.834-31.862h26.3c12.801 0 19.168-15.571 10.024-24.538l-29.362-28.796c12.906-19.291 23.84-40.474 32.344-62.168 1.562.14 3.126.227 4.686.227 28.991 0 52.577-23.586 52.577-52.577 0-23.337-15.269-43.55-37.092-50.237-.386-14.94-2.522-29.733-6.377-44.087 3.195-5.492 3.814-12.162 1.604-18.186-3.583-9.767-7.994-19.325-13.11-28.412-3.158-5.609-8.635-9.445-14.826-10.588-35.231-51.604-93.161-82.314-155.729-82.314-22.55 0-44.631 3.956-65.629 11.758-3.883 1.442-5.861 5.76-4.418 9.643 1.442 3.883 5.76 5.861 9.643 4.418 19.321-7.179 39.643-10.819 60.404-10.819 53.936 0 104.14 24.782 136.938 66.95h-273.857c13.441-17.215 30.152-31.931 48.946-43.013 3.568-2.104 4.755-6.702 2.651-10.27-2.104-3.567-6.701-4.755-10.27-2.651-23.815 14.043-44.535 33.465-60.144 56.298-6.189 1.145-11.664 4.979-14.82 10.587-5.117 9.088-9.527 18.647-13.11 28.413-2.21 6.023-1.59 12.694 1.604 18.185-3.855 14.354-5.991 29.147-6.377 44.087-21.823 6.687-37.092 26.899-37.092 50.237-.001 28.992 23.585 52.578 52.576 52.578zm19.366 100.275 77.312-75.823-12.443 48.958c-2.298 9.045 4.53 17.843 13.876 17.843h27.574c-11.521 12.422-44.636 48.128-57.752 62.27-6.391-4.217-14.021-7.043-22.289-7.865l12.272-24.694c4.734-9.527-2.204-20.688-12.821-20.688h-25.729zm153.589 50.762c23.123 0 45.098-7.118 64.878-18.741 10.139 10.933 19.069 20.562 29.033 31.305-6.718 8.3-10.946 19.144-10.946 30.874 0 5.479 1.488 11.154 4.511 16.125h-174.951c3.031-4.981 4.511-10.686 4.511-16.125 0-.044-.003-.087-.003-.131-.031-11.454-4.101-22.291-10.943-30.743 1.258-1.356 27.775-29.948 29.033-31.305 20.07 11.794 42.057 18.741 64.877 18.741zm-166.045 43.437c0-18.41 14.749-33.66 33.435-34.025.129-.002.258-.009.387-.01 18.83-.139 34.257 15.185 34.257 34.035 0 8.917-7.277 16.124-16.124 16.124h-35.832c-8.89.001-16.123-7.232-16.123-16.124zm332.09 0c0 8.891-7.233 16.124-16.124 16.124h-35.832c-8.59 0-16.665-6.836-16.077-17.915.001-.03.005-.06.007-.09.969-17.397 14.988-31.285 32.3-32.116.086-.004.173-.003.259-.007 19.328-.79 35.467 14.686 35.467 34.004zm-38.186-94.199c-10.639 0-17.545 11.181-12.821 20.688l12.272 24.694c-8.275.817-15.963 3.691-22.289 7.865-13.12-14.147-46.223-49.839-57.752-62.27h27.573c9.334 0 16.178-8.785 13.876-17.844l-12.443-48.957c10.851 10.642 66.743 65.457 77.313 75.823h-25.729zm-42.821-88.24c-10.314-10.114-27.465-.276-23.9 13.748l12.827 50.47h-28.26c-12.509 0-18.99 14.895-10.497 24.052l19.198 20.7c-16.704 9.299-35.134 15.032-54.406 15.032-19.269 0-37.705-5.736-54.406-15.032l19.198-20.7c8.505-9.171 1.99-24.052-10.497-24.052h-28.261l12.828-50.47c3.557-13.996-13.568-23.882-23.9-13.748l-39.984 39.214c-12.684-19.354-23.288-40.585-31.321-62.187-.021-.062-.035-.125-.058-.187-15.005-40.459-22.36-83.815-12.681-125.853 1.564.419 3.554.725 5.52.725h32.393c-7.702 12.75-14.39 30.038-14.39 51.651 0 24.983 6.619 42.595 20.235 53.841 23.769 19.633 65.466 15.297 95.825 9.458 19.576-3.766 39.427-3.766 59.002 0 46.052 8.859 77.396 5.765 95.826-9.458 13.616-11.246 20.234-28.857 20.234-53.841 0-21.613-6.688-38.901-14.39-51.651h32.393c1.666 0 3.717-.24 5.519-.725 14.34 62.284-9.961 136.192-44.061 188.226zm125.493-64.612c0 20.475-16.46 37.178-36.843 37.57 7.829-23.188 13.217-47.974 14.512-71.927 13.334 5.894 22.331 19.206 22.331 34.357zm-380.115-107.343c3.306-9.011 7.376-17.833 12.099-26.22 1.149-2.042 3.305-3.311 5.625-3.311h303.369c.1.026 3.921-.342 5.978 3.311 4.721 8.386 8.792 17.208 12.099 26.219 1.538 4.193-1.521 8.668-6.021 8.668-17.214 0-69.304 0-86.951 0-4.142 0-7.5 3.358-7.5 7.5s3.358 7.5 7.5 7.5h36.464c8.43 11.137 17.484 28.493 17.484 51.651 0 20.51-4.699 33.943-14.787 42.276-14.765 12.194-42.058 14.253-83.439 6.292-21.455-4.127-43.213-4.127-64.669 0-41.38 7.961-68.674 5.903-83.439-6.292-10.088-8.333-14.787-21.766-14.787-42.276 0-23.158 9.054-40.514 17.484-51.651h159.689c4.142 0 7.5-3.358 7.5-7.5s-3.358-7.5-7.5-7.5c-6.123 0-204.828 0-210.176 0-4.419 0-7.583-4.412-6.022-8.667zm-18.616 72.986c1.319 24.388 6.853 49.244 14.512 71.927-20.383-.393-36.843-17.096-36.843-37.57-.001-15.151 8.996-28.463 22.331-34.357z"/></g></g></svg>