<svg id="Capa_1" enable-background="new 0 0 512 512" height="512" viewBox="0 0 512 512" width="512" xmlns="http://www.w3.org/2000/svg"><g><g><path d="m466.911 189.527c-.502-.462-1.014-.919-1.534-1.369l-.118-.102c15.391-35.394-4.276-76.193-41.55-86.202l-.013-.003-.005-.129c-1.487-38.528-36.845-66.745-74.742-59.648l-.112.021c-17.995-34.145-62.172-44.252-93.223-21.327l-.114.084-.051-.038c-31.059-22.929-75.242-12.85-93.285 21.281l-.114-.021c-37.898-7.092-73.253 21.126-74.741 59.653l-.005.123-.028.007c-37.327 9.942-57.019 50.808-41.536 86.197v.001l-.118.102c-.521.45-1.032.906-1.534 1.369-36.295 33.428-11.698 94.232 37.645 94.232h347.532c49.344.001 73.941-60.803 37.646-94.231z" fill="#80dfb5"/><path d="m463.127 355.259h-414.254c-22.85 0-41.373 18.523-41.373 41.373v106.938h497v-106.938c0-22.85-18.523-41.373-41.373-41.373z" fill="#80dfb5"/><path d="m400.563 358.836-48.137-29.802c-27.509-17.031-27.51-57.046-.002-74.078l40.557-25.111c9.413-5.828 11.973-18.327 5.708-27.455-.075-.109-.149-.217-.224-.326-5.837-8.463-17.315-10.821-26.057-5.41l-63.269 39.165 34.847-62.562c5.312-9.537 1.645-21.517-8.024-26.586-.116-.061-.231-.121-.347-.181-9.251-4.823-20.669-1.336-25.746 7.778l-25.337 45.488c-5.867 10.533-16.98 17.062-29.038 17.059-12.051-.003-23.155-6.53-29.02-17.058l-25.342-45.491c-5.077-9.114-16.495-12.6-25.746-7.777-.116.06-.232.121-.348.182-9.669 5.069-13.337 17.048-8.024 26.586l34.847 62.562-63.269-39.165c-8.742-5.411-20.22-3.053-26.057 5.41-.075.109-.15.217-.224.326-6.265 9.128-3.705 21.627 5.708 27.455l40.557 25.111c27.508 17.032 27.507 57.048-.002 74.078l-48.137 29.802c-8.787 5.44-11.734 16.824-6.711 25.856.062.111.123.221.185.332 5.382 9.622 17.691 12.828 27.065 7.024l30.671-18.988c10.769-6.668 23.363 5.36 17.193 16.422l-19.03 34.165c-5.068 9.098-2.045 20.625 6.898 25.961.113.067.226.135.34.202 9.405 5.582 21.549 2.409 26.872-7.145l19.042-34.175c6.161-11.071 23.012-6.688 23.012 5.975v40.214c0 10.605 8.543 19.309 19.148 19.332h.379s.253 0 .379 0c10.605-.023 19.148-8.727 19.148-19.332v-40.214c0-12.663 16.851-17.047 23.012-5.975l19.042 34.175c5.323 9.554 17.467 12.727 26.872 7.145.113-.067.227-.135.34-.202 8.944-5.336 11.966-16.863 6.898-25.961l-19.03-34.165c-6.17-11.062 6.424-23.09 17.193-16.422l30.671 18.988c9.374 5.803 21.683 2.598 27.065-7.024.062-.111.123-.221.185-.332 5.021-9.032 2.074-20.416-6.713-25.856z" fill="#e8a882"/><g fill="#b0ebce"><path d="m263.095 67.273c-4.291-3.908-10.899-3.908-15.189 0-5.86 5.337-9.539 13.026-9.539 21.578s3.679 16.241 9.539 21.578c4.291 3.908 10.899 3.908 15.189 0 5.86-5.337 9.539-13.026 9.539-21.578s-3.679-16.241-9.539-21.578z"/><path d="m167.251 87.724c-4.575-7.225-11.796-11.753-19.603-13.128-5.716-1.006-11.299 2.528-12.833 8.126-2.096 7.644-1.091 16.109 3.484 23.334s11.796 11.753 19.603 13.128c5.716 1.006 11.299-2.529 12.833-8.126 2.096-7.645 1.091-16.109-3.484-23.334z"/><path d="m119.355 156.926c-2.89-7.381-8.755-13.566-16.741-16.623s-16.483-2.37-23.562 1.194c-5.184 2.61-7.546 8.781-5.43 14.185 2.89 7.381 8.755 13.566 16.742 16.623s16.482 2.371 23.562-1.194c5.182-2.609 7.545-8.781 5.429-14.185z"/><path d="m343.737 87.724c4.575-7.225 11.796-11.753 19.603-13.128 5.716-1.006 11.299 2.528 12.833 8.126 2.096 7.644 1.091 16.109-3.484 23.334s-11.796 11.753-19.603 13.128c-5.716 1.006-11.299-2.529-12.833-8.126-2.096-7.645-1.091-16.109 3.484-23.334z"/><path d="m391.633 156.926c2.89-7.381 8.755-13.566 16.741-16.623s16.483-2.37 23.562 1.194c5.184 2.61 7.546 8.781 5.43 14.185-2.89 7.381-8.755 13.566-16.742 16.623s-16.482 2.371-23.562-1.194c-5.183-2.609-7.545-8.781-5.429-14.185z"/></g><g><path d="m65.932 142.214c0-10.989 1.031-21.735 2.982-32.158-24.912 16.321-35.863 48.994-23.173 78v.001l-.118.102c-.521.45-1.032.906-1.534 1.369-36.295 33.428-11.698 94.232 37.645 94.232h57.139c-44.153-31.514-72.941-83.167-72.941-141.546z" fill="#36d39a"/></g><path d="m163.565 325.447c-1.55 1.283-3.21 2.485-4.991 3.587l-48.137 29.802c-8.787 5.44-11.734 16.824-6.711 25.856.062.11.123.221.185.332 5.382 9.623 17.691 12.828 27.065 7.024l30.671-18.988c10.769-6.668 23.363 5.36 17.193 16.422l-19.03 34.165c-5.068 9.099-2.045 20.625 6.898 25.961.113.067.226.135.34.202 9.405 5.582 21.549 2.409 26.872-7.145l19.042-34.175c6.161-11.071 23.012-6.688 23.012 5.975v40.214c0 10.604 8.543 19.309 19.148 19.332h.379.379c10.605-.023 19.148-8.727 19.148-19.332v-40.214c0-1.879.378-3.571 1.03-5.062-54.855-6.489-93.921-41.118-112.493-83.956z" fill="#e3986d"/><g><path d="m64.406 355.259h-15.533c-22.85 0-41.373 18.523-41.373 41.373v106.938h131.031c-43.376-35.425-71.742-88.523-74.125-148.311z" fill="#36d39a"/></g></g><g><path d="m192.122 346.822c3.077 2.757 7.818 2.512 10.591-.582 14.036-15.669 21.767-35.997 21.767-57.238 0-4.143-3.358-7.5-7.5-7.5s-7.5 3.358-7.5 7.5c0 17.543-6.372 34.317-17.94 47.23-2.764 3.085-2.503 7.826.582 10.59z"/><path d="m318.878 346.822c3.085-2.764 3.346-7.505.582-10.591-11.568-12.913-17.939-29.687-17.94-47.23 0-4.142-3.358-7.5-7.5-7.5s-7.5 3.358-7.5 7.5c0 21.242 7.731 41.569 21.767 57.238 2.751 3.072 7.491 3.36 10.591.583z"/><path d="m255.5 316.662c4.142 0 7.5-3.357 7.5-7.5v-50.813c0-4.143-3.358-7.5-7.5-7.5s-7.5 3.357-7.5 7.5v50.813c0 4.142 3.358 7.5 7.5 7.5z"/><path d="m242.855 115.969c7.206 6.564 18.079 6.568 25.289.001 7.62-6.939 11.989-16.825 11.989-27.123s-4.37-20.184-11.989-27.123c-7.208-6.565-18.08-6.566-25.29 0-7.619 6.939-11.989 16.825-11.989 27.123s4.371 20.184 11.99 27.122zm10.101-43.155c1.424-1.298 3.662-1.301 5.088 0 4.505 4.104 7.089 9.947 7.089 16.033s-2.584 11.93-7.089 16.033c-1.427 1.299-3.661 1.299-5.089-.001-4.505-4.103-7.089-9.946-7.089-16.032s2.585-11.93 7.09-16.033z"/><path d="m159.921 126.857c8.327 0 15.768-5.509 18.047-13.821 2.725-9.939 1.128-20.629-4.381-29.329-5.508-8.7-14.489-14.715-24.638-16.501-9.6-1.69-18.789 4.124-21.367 13.529-2.725 9.939-1.128 20.629 4.38 29.329 6.911 10.913 19.224 16.793 27.959 16.793zm-17.873-42.155c.515-1.88 2.42-3.056 4.3-2.723 6.001 1.057 11.311 4.611 14.566 9.753 3.256 5.141 4.199 11.461 2.588 17.338-.51 1.861-2.402 3.057-4.3 2.722-6.001-1.056-11.311-4.611-14.567-9.753-3.255-5.141-4.197-11.46-2.587-17.337z"/><path d="m105.295 133.295c-9.617-3.681-20.411-3.135-29.617 1.5-8.709 4.385-12.596 14.539-9.042 23.619 3.757 9.597 11.427 17.212 21.044 20.893 4.218 1.615 8.661 2.416 13.099 2.416 5.68 0 11.35-1.313 16.517-3.916 8.709-4.385 12.596-14.538 9.042-23.617-3.755-9.598-11.425-17.213-21.043-20.895zm5.257 31.114c-5.442 2.741-11.823 3.065-17.508.889-5.683-2.176-10.217-6.678-12.438-12.353-.704-1.797.096-3.885 1.819-4.752 3.057-1.54 6.41-2.316 9.769-2.316 2.622 0 5.248.474 7.739 1.427 5.684 2.176 10.218 6.679 12.439 12.353v.001c.703 1.796-.097 3.883-1.82 4.751z"/><path d="m362.039 67.206c-10.149 1.788-19.13 7.802-24.638 16.502-5.509 8.7-7.105 19.39-4.381 29.329 2.584 9.425 11.784 15.216 21.367 13.529 10.149-1.787 19.13-7.802 24.639-16.502s7.106-19.39 4.381-29.329c-2.579-9.404-11.762-15.219-21.368-13.529zm4.313 34.833c-3.256 5.142-8.565 8.697-14.567 9.754-1.904.331-3.789-.861-4.299-2.723-1.611-5.877-.668-12.197 2.587-17.338 3.256-5.142 8.565-8.697 14.567-9.753 1.881-.334 3.785.845 4.3 2.722 1.611 5.877.667 12.197-2.588 17.338z"/><path d="m393.69 177.806c9.215 4.64 20.009 5.178 29.616 1.5 9.617-3.682 17.287-11.297 21.044-20.894 3.555-9.079-.333-19.233-9.042-23.618-9.205-4.635-20-5.181-29.616-1.5-9.617 3.681-17.288 11.296-21.044 20.893-3.554 9.081.333 19.234 9.042 23.619zm4.927-18.149c2.222-5.675 6.755-10.178 12.439-12.354s12.065-1.852 17.508.889c1.724.868 2.523 2.956 1.819 4.753-2.222 5.675-6.755 10.177-12.439 12.353s-12.065 1.852-17.508-.889c-1.724-.868-2.523-2.955-1.819-4.752z"/><path d="m7.5 511.066h404.678c4.142 0 7.5-3.358 7.5-7.5s-3.358-7.5-7.5-7.5h-397.178v-99.438c0-18.678 15.195-33.873 33.873-33.873h47.99c-3.852 7.293-4.223 16.29-.415 24.174 7.364 15.255 25.357 19.613 38.476 11.492l30.671-18.988c4.219-2.603 9.134 2.016 6.692 6.396l-19.03 34.165c-5.726 10.281-4.14 22.691 3.477 31.052 12.395 13.606 34.655 11.566 43.737-4.733l19.044-34.178c2.398-4.317 8.958-2.632 8.958 2.328v40.214c0 14.632 11.839 26.799 26.633 26.832.101 0 .889 0 .788 0 14.685-.032 26.632-12.068 26.632-26.832v-40.214c0-4.955 6.541-6.671 8.96-2.324l19.042 34.174c3.567 6.402 9.572 11.166 17.094 12.98 22.577 5.48 41.643-18.603 30.12-39.299-21.707-38.971-18.691-33.555-19.032-34.169-2.367-4.245 2.385-9.061 6.695-6.391l30.67 18.988c12.951 8.017 30.054 3.676 37.551-9.727.026-.1 7.787-12.184.509-25.939h48.99c18.678 0 33.873 15.195 33.873 33.873v99.438h-54.822c-4.142 0-7.5 3.358-7.5 7.5s3.358 7.5 7.5 7.5h62.324c4.142 0 7.5-3.358 7.5-7.5v-106.939c0-26.949-21.924-48.873-48.873-48.873h-66.207l-40.546-25.102c-10.673-6.607-17.318-18.224-17.057-31.398h89.949c25.857 0 48.673-15.647 58.125-39.862 9.064-23.222 3.948-47.999-13.297-65.362 6.112-17.595 5.049-36.938-3.104-53.854-8.162-16.933-22.655-29.824-40.201-35.983-2.097-18.535-11.441-35.542-26.136-47.27-14.692-11.726-33.34-17.064-51.875-15.001-9.911-15.768-25.677-27.02-43.982-31.208-18.354-4.199-37.492-.894-53.299 9.057-15.794-9.916-34.908-13.21-53.238-9.03-18.313 4.178-34.094 15.419-44.026 31.182-18.532-2.061-37.189 3.278-51.882 15.004-14.689 11.722-24.032 28.716-26.137 47.257-17.605 6.151-32.103 19.03-40.266 35.97-8.16 16.933-9.202 36.287-3.051 53.884-17.238 17.363-22.352 42.137-13.289 65.354 9.452 24.215 32.268 39.862 58.125 39.862h26.285c4.142 0 7.5-3.358 7.5-7.5s-3.358-7.5-7.5-7.5h-26.284c-23.828 0-38.431-15.661-44.152-30.317-5.583-14.304-5.471-35.187 11.589-50.899.445-.409.898-.813 1.392-1.24l.117-.103c2.461-2.154 3.243-5.654 1.932-8.65-6.502-14.861-6.192-31.767.85-46.38s20.07-25.389 35.721-29.558c3.214-.831 5.5-3.677 5.617-6.995l.004-.101c.625-16.183 8.244-31.259 20.902-41.362s29.045-14.188 44.984-11.206l.114.021c3.229.597 6.46-.973 7.992-3.87 7.578-14.335 20.99-24.624 36.798-28.23 15.807-3.605 32.356-.151 45.407 9.482 2.652 1.989 6.294 2.001 8.958.031l.11-.082c13.04-9.627 29.579-13.075 45.38-9.461 15.8 3.615 29.196 13.912 36.752 28.251 1.533 2.909 4.782 4.48 8.014 3.875l.114-.021c15.918-2.981 32.308 1.104 44.967 11.206 12.658 10.102 20.276 25.177 20.901 41.385l.005.128c.137 3.274 2.396 6.083 5.561 6.934 15.657 4.204 28.674 14.99 35.713 29.594s7.369 31.506.904 46.373c-1.309 3.011-.508 6.523 1.978 8.668l.114.099c.461.398.913.801 1.357 1.211 17.06 15.711 17.172 36.594 11.588 50.898-5.721 14.656-20.324 30.317-44.152 30.317h-86.388c3.056-6.319 7.805-11.402 13.494-14.927l40.557-25.111c6.287-3.892 10.587-10.021 12.111-17.257 4.875-23.163-20.469-41.137-40.58-28.688-5.811 3.597-27.395 16.958-38.719 23.968l20.798-37.338c7.364-13.222 2.346-29.83-11.089-36.875-.101-.053-.468-.245-.367-.192-12.778-6.663-28.57-2.141-35.766 10.779l-25.337 45.488c-9.775 17.55-35.117 17.656-44.953 0-5.038-9.044-20.536-36.863-25.342-45.49-7.851-14.093-26.034-18.347-39.601-8.426-10.59 7.742-14.41 22.529-7.62 34.716 2.139 3.841 17.893 32.124 20.797 37.338l-38.719-23.968c-12.177-7.538-28.068-4.23-36.171 7.519-.075.108-.312.452-.242.351-8.729 12.719-5.07 30.018 7.944 38.075l40.557 25.111c5.797 3.592 10.486 8.706 13.494 14.927h-30.103c-4.142 0-7.5 3.358-7.5 7.5s3.358 7.5 7.5 7.5h33.665c.005.246.023.489.023.736 0 12.578-6.386 24.041-17.08 30.662l-40.546 25.102h-65.209c-26.949.002-48.873 21.927-48.873 48.875v106.938c0 4.142 3.358 7.5 7.5 7.5zm155.022-175.659c15.143-9.375 24.184-25.605 24.185-43.416 0-17.884-9.158-34.114-24.183-43.416l-40.557-25.111c-5.702-3.53-7.391-11.123-3.431-16.895.069-.1.242-.352.173-.251 3.569-5.174 10.586-6.602 15.935-3.291l63.269 39.165c.012.008.026.012.039.02 2.9 1.772 6.63 1.377 9.089-.972 2.47-2.359 3.035-6.089 1.373-9.074-7.773-13.955-20.31-36.463-34.847-62.562-3.198-5.747-1.068-13.136 4.96-16.297l.327-.171c5.594-2.917 12.643-.757 15.727 4.776 8.176 14.676 22.257 39.954 25.342 45.491 15.545 27.906 55.648 27.848 71.162-.001l25.337-45.488c3.035-5.448 10.086-7.717 15.717-4.783.101.053.443.231.342.179 5.897 3.094 8.237 10.399 4.954 16.294l-34.847 62.562c-3.749 6.731 3.943 14.085 10.5 10.026l63.269-39.165c9.226-5.712 20.09 2.942 18.005 12.845-.67 3.184-2.563 5.88-5.329 7.593l-40.557 25.111c-15.88 9.829-24.183 26.548-24.183 43.416 0 17.811 9.042 34.041 24.185 43.416 7.131 4.415 43.005 26.625 48.137 29.802 5.385 3.334 7.188 10.289 4.101 15.839l-.173.311c-3.329 5.953-10.878 7.833-16.571 4.309-7.88-4.879-22.97-14.221-30.669-18.987-17.309-10.718-37.629 8.637-27.694 26.447.827 1.485 12.788 22.959 19.03 34.166 5.656 10.151-5.453 21.733-16.079 16.47-2.064-1.048-3.772-2.68-4.927-4.752l-19.041-34.171c-9.907-17.803-37.066-10.773-37.066 9.622v40.214c0 6.485-5.206 11.817-11.662 11.832-.101 0-.827 0-.727 0-6.441-.015-11.664-5.33-11.664-11.832v-40.214c0-20.152-27.002-27.688-37.063-9.626l-19.042 34.175c-3.306 5.934-10.792 7.728-16.497 4.343l-.32-.191c-5.383-3.212-7.276-10.326-4.189-15.871l19.027-34.161c9.965-17.863-10.428-37.142-27.69-26.452l-30.67 18.988c-6.045 3.74-14.357 1.485-17.374-5.956-2.142-5.286-.232-11.431 4.73-14.503.106-.067 48.137-29.803 48.137-29.803z"/></g></g></svg>