<svg id="Capa_1" enable-background="new 0 0 512 512" height="512" viewBox="0 0 512 512" width="512" xmlns="http://www.w3.org/2000/svg"><g><g><path d="m93.007 248.692c-10.722-5.202-18.956-11.145-25.277-17.252-17.478-16.886-20.686-43.66-8.402-64.629 8.605-14.688 17.898-33.625 23.84-54.645 15.204-53.783 26.86-104.666 172.832-104.666s157.628 50.883 172.831 104.666c5.942 21.021 15.235 39.957 23.84 54.645 12.285 20.969 9.076 47.743-8.402 64.629-6.321 6.107-14.554 12.05-25.277 17.252z" fill="#f8d070"/><path d="m150.095 120.027c0-38.931 11.002-75.288 30.051-106.151-75.186 15.275-84.989 55.876-96.977 98.29-5.942 21.021-15.235 39.957-23.84 54.645-12.285 20.969-9.076 47.743 8.402 64.629 6.321 6.107 14.554 12.05 25.277 17.252h103.242c-28.835-34.975-46.155-79.797-46.155-128.665z" fill="#f2c13b"/><path d="m383.415 166.819c-.221-16.439-10.879-30.775-26.458-36.027-14.23-4.798-24.083-11.637-30.672-17.84-8.766-8.245-19.313-14.433-30.952-17.443-11.857-3.062-20.522-8.711-26.651-14.389-7.119-6.594-18.246-6.594-25.365 0-6.129 5.677-14.794 11.327-26.651 14.389-11.639 3.011-22.186 9.199-30.952 17.443-6.588 6.202-16.441 13.042-30.67 17.84-15.564 5.247-26.233 19.561-26.459 35.984-.009.646-.013 1.292-.012 1.94.079 70.188 58.931 128.179 129.113 127.268 69.597-.903 125.74-57.605 125.74-127.416.001-.584-.003-1.167-.011-1.749z" fill="#ffdcce"/><path d="m351.905 293.722-28.079-50.933s27.193-24.124 74.969-26.987c10.379-.62 19.293 7.3 19.982 17.68.295 4.565.433 9.74.216 15.21z" fill="#fbe5c8"/><path d="m418.993 248.692c-1.102 27.882-11.452 63.369-56.984 63.369l-10.104-18.339c7.644-26.219 31.847-45.365 60.536-45.365 2.213 0 4.397.119 6.552.335z" fill="#ffb2c1"/><path d="m150.499 132.65c-13.059 6.298-21.71 19.356-21.913 34.125-.009.646-.013 1.292-.012 1.94.077 68.391 55.957 125.19 123.746 127.213-57.623-32.885-97.512-93.267-101.821-163.278z" fill="#ffcabd"/><path d="m160.095 293.722 28.079-50.933s-27.193-24.124-74.969-26.987c-10.379-.62-19.293 7.3-19.982 17.68-.295 4.565-.433 9.74-.216 15.21z" fill="#fbdab2"/><path d="m93.007 248.692c1.102 27.882 11.452 63.369 56.984 63.369l10.104-18.339c-7.644-26.219-31.847-45.365-60.536-45.365-2.213 0-4.397.119-6.552.335z" fill="#ffb2c1"/><path d="m144.108 420.529c-3.011-10.32-4.614-21.241-4.614-32.536 0-19.657 4.87-53.236 13.469-88.791 5.746-23.75 19.283-43.978 37.494-58.263s41.105-22.638 65.543-22.638c48.887 0 91.546 33.392 103.037 80.901 8.599 35.556 13.469 69.134 13.469 88.791 0 11.294-1.604 22.215-4.614 32.536z" fill="#ffefe0"/><path d="m168.573 376.329c0-65.547 32.924-123.395 83.129-157.937-22.819.917-44.107 9.102-61.246 22.546-18.211 14.285-31.749 34.513-37.494 58.263-8.599 35.556-13.469 69.135-13.469 88.792 0 11.294 1.604 22.215 4.614 32.536h29.599c-3.35-14.19-5.133-28.986-5.133-44.2z" fill="#fbe5c8"/><path d="m367.892 420.529c-14.069 48.513-58.843 83.971-111.892 83.971s-97.823-35.458-111.892-83.971c28.521-22.953 68.121-37.169 111.892-37.169s83.371 14.216 111.892 37.169z" fill="#ffb2c1"/><ellipse cx="201.827" cy="434.321" fill="#423e4f" rx="15.808" ry="19.492" transform="matrix(.707 -.707 .707 .707 -247.997 269.922)"/><ellipse cx="310.173" cy="434.321" fill="#423e4f" rx="19.492" ry="15.808" transform="matrix(.707 -.707 .707 .707 -216.264 346.536)"/><path d="m300.279 185.966c-19.302-7.358-40.856-5.711-59.257 3.674-23.677 12.076-41.194 16.035-52.67 17.017-10.898.932-18.796 10.788-17.37 21.633 4.702 35.769 41.285 51.919 87.97 51.919 55.537 0 75.458-19.347 75.458-43.016 0-24.673-10.945-42.388-34.131-51.227z" fill="#f8d070"/><g><g><g><ellipse cx="177.729" cy="178.541" fill="#ffb2c1" rx="28.88" ry="22.999"/></g><g><ellipse cx="334.271" cy="178.541" fill="#ffb2c1" rx="28.88" ry="22.999"/></g></g></g><path d="m209.86 202.381c-8.658 2.57-15.826 3.79-21.508 4.276-10.898.933-18.796 10.789-17.37 21.633 4.235 32.214 34.334 48.508 74.377 51.43-20.263-19.999-33.455-47.138-35.499-77.339z" fill="#f2c13b"/><path d="m170.492 403.441c-9.56 4.933-18.406 10.668-26.384 17.089 9.704 33.462 34.02 60.708 65.581 74.396-20.455-25.917-34.346-57.246-39.197-91.485z" fill="#ff9db0"/></g><g><path d="m191.842 343.235c-4.142 0-7.5 3.358-7.5 7.5v12.329c0 4.142 3.358 7.5 7.5 7.5s7.5-3.358 7.5-7.5v-12.329c0-4.142-3.358-7.5-7.5-7.5z"/><path d="m320.158 343.235c-4.142 0-7.5 3.358-7.5 7.5v12.329c0 4.142 3.358 7.5 7.5 7.5s7.5-3.358 7.5-7.5v-12.329c0-4.142-3.358-7.5-7.5-7.5z"/><path d="m277.126 445.999c-3.123-2.721-7.86-2.396-10.582.726-2.662 3.055-6.506 4.807-10.544 4.807s-7.882-1.752-10.544-4.807c-2.722-3.123-7.459-3.448-10.582-.726-3.123 2.721-3.448 7.459-.726 10.582 5.512 6.324 13.477 9.952 21.852 9.952s16.34-3.627 21.852-9.952c2.722-3.123 2.396-7.861-.726-10.582z"/><path d="m182.741 415.235c-8.944 8.944-8.187 24.776 2.604 35.567 11.275 11.275 27.037 11.135 35.568 2.605 9.088-9.088 7.919-25.044-2.605-35.567-10.817-10.818-26.644-11.528-35.567-2.605zm27.565 27.565c-3.643 3.643-10.552 1.197-14.354-2.605-3.846-3.846-6.21-10.749-2.604-14.354 3.406-3.406 10.146-1.603 14.354 2.604 4.596 4.597 5.789 11.171 2.604 14.355z"/><path d="m329.259 415.235c-8.943-8.944-24.776-8.188-35.567 2.604-10.524 10.523-11.693 26.479-2.605 35.567 8.563 8.564 24.335 8.629 35.567-2.605 10.818-10.816 11.528-26.643 2.605-35.566zm-13.212 24.96c-2.433 2.433-5.529 4.006-8.495 4.316-1.403.145-4.03.119-5.859-1.711-3.185-3.185-1.992-9.758 2.604-14.354 3.797-3.796 10.729-6.229 14.354-2.604 3.658 3.655 1.175 10.576-2.604 14.353z"/><path d="m194.56 163.902c4.142 0 7.5-3.358 7.5-7.5v-11.806c0-4.142-3.358-7.5-7.5-7.5s-7.5 3.358-7.5 7.5v11.806c0 4.142 3.358 7.5 7.5 7.5z"/><path d="m317.439 163.902c4.142 0 7.5-3.358 7.5-7.5v-11.806c0-4.142-3.358-7.5-7.5-7.5s-7.5 3.358-7.5 7.5v11.806c0 4.142 3.358 7.5 7.5 7.5z"/><path d="m277.852 160.978c2.721-3.123 2.396-7.86-.727-10.582-3.122-2.721-7.86-2.396-10.582.727-2.662 3.055-6.506 4.807-10.544 4.807s-7.882-1.752-10.544-4.807c-2.722-3.123-7.459-3.448-10.582-.727s-3.448 7.459-.727 10.582c11.566 13.27 32.154 13.255 43.706 0z"/><path d="m426.236 253.424c8.933-4.736 16.738-10.304 23.243-16.59 19.892-19.217 23.865-49.571 9.663-73.814-18.513-31.601-23.142-53.623-23.912-55.794-7.491-26.586-15.236-54.078-40.313-74.431-27.569-22.374-71.71-32.795-138.917-32.795-64.327 0-107.239 9.475-135.045 29.819-3.343 2.445-4.07 7.138-1.625 10.481s7.139 4.071 10.481 1.624c24.765-18.117 66.041-26.924 126.189-26.924 137.661 0 150.234 44.624 164.792 96.293.719 2.027 6.173 26.476 25.408 59.309 10.692 18.252 7.755 41.052-7.143 55.445-3.696 3.572-7.922 6.886-12.632 9.914-.044-.94-.106-2.059-.166-2.976-.541-8.145-4.742-15.203-10.873-19.666-4.774-3.475-10.723-5.381-17.041-5.004-4.44.266-9.573.809-13.824 1.439 4.439-13.823 6.592-28.269 6.393-43.037-.262-19.463-12.945-36.757-31.561-43.033-11.088-3.738-20.484-9.187-27.929-16.197-9.97-9.377-21.8-16.03-34.215-19.242-9.011-2.327-16.894-6.576-23.43-12.629-9.97-9.234-25.588-9.234-35.558 0-6.536 6.053-14.418 10.302-23.433 12.63-12.411 3.21-24.241 9.864-34.215 19.244-7.442 7.006-16.837 12.455-27.925 16.193-18.61 6.274-31.294 23.55-31.562 42.989-.201 14.798 2 29.216 6.568 43.119-6.397-.966-13.289-1.506-15.35-1.524-13.385-.122-24.82 9.973-26.429 23.294-.14 1.153-.214 2.537-.301 4.398-4.71-3.028-8.936-6.343-12.632-9.914-14.897-14.393-17.834-37.192-7.142-55.444 30.74-52.471 24.93-78.907 45.028-108.916 2.305-3.441 1.384-8.101-2.058-10.405-3.442-2.305-8.101-1.384-10.405 2.058-22.147 33.069-15.783 58.943-45.508 109.682-14.202 24.243-10.229 54.597 9.663 73.814 6.506 6.286 14.312 11.854 23.244 16.59 2.829 39.188 22.177 62.136 55.078 65.646-5.559 27.102-8.848 52.319-8.848 68.923 0 11.805 1.654 23.458 4.915 34.636.001.003.002.007.003.01 7.331 25.261 22.948 48 43.978 64.032 21.736 16.571 47.709 25.329 75.11 25.329s53.374-8.758 75.11-25.328c21.029-16.031 36.646-38.77 43.978-64.031.001-.004.003-.008.004-.012 3.261-11.18 4.914-22.833 4.914-34.636 0-16.604-3.289-41.821-8.848-68.923 32.902-3.509 52.25-26.457 55.078-65.646zm-70.664 16.233c-4.165-7.599-9.195-14.681-15.044-21.178.775-3.037 1.175-6.004 1.318-8.793 16.516-9.28 36.456-15.14 57.395-16.396.112-.007.221 0 .332-.003 6.087-.179 11.308 4.536 11.719 10.687.121 1.886.229 4.036.279 6.89-22.733.287-43.263 11.472-55.999 28.793zm7.657 138.044c-29.177-20.152-66.727-31.841-107.229-31.841-37.316 0-75.653 10.033-107.229 31.841-1.181-6.461-1.777-13.055-1.777-19.708 0-17.366 3.884-45.04 10.325-74.322.001-.003.002-.006.003-.009 4.608-20.95 8.421-34.574 22.175-51.456 4.517 4.578 9.934 8.652 16.13 12.038 18.408 10.06 42.13 13.465 63.325 13.465 8.643 0 16.759-.466 24.12-1.385 4.116-.514 7.026-4.267 6.514-8.372-.513-4.111-4.263-7.03-8.371-6.513-6.75.842-14.241 1.27-22.263 1.27-24.01 0-43.734-4.351-57.662-12.499-12.137-7.281-20.976-18.529-22.872-32.898-.87-6.615 3.933-12.616 10.574-13.183 16.362-1.4 35.014-7.392 55.438-17.809 9.37-4.779 19.635-7.33 29.948-7.444 22.387-.246 44.483 10.679 50.441 32.072 1.498 5.238 2.091 10.839 2.091 16.244 0 13.173-7.702 21.886-19.452 27.367-3.754 1.75-5.379 6.213-3.628 9.967 1.747 3.746 6.203 5.387 9.967 3.632 7.491-3.49 14.455-8.351 19.548-14.943 13.119 16.591 16.836 29.992 21.334 50.446.001.003.002.007.003.01 6.441 29.282 10.325 56.955 10.325 74.321-.001 6.654-.597 13.247-1.778 19.709zm-262.801-166.838c.045-2.555.144-4.795.279-6.884.416-6.267 5.825-11.055 12.05-10.69.314.055 27.516.938 52.323 13.718 1.212 4.553 3.051 9.053 5.161 12.87-5.039 5.781-9.81 12.485-13.812 19.782-12.563-17.133-33.135-28.506-56.001-28.796zm35.657-73.984c.181-13.089 8.763-24.735 21.356-28.98 13.148-4.433 24.39-10.989 33.412-19.483 8.138-7.655 17.714-13.065 27.688-15.645 11.444-2.955 21.494-8.388 29.873-16.148 4.254-3.94 10.918-3.94 15.172 0 8.378 7.76 18.429 13.193 29.869 16.147 9.978 2.581 19.553 7.991 27.689 15.643 9.025 8.498 20.268 15.054 33.417 19.487 12.596 4.247 21.178 15.909 21.355 29.02.211 15.846-2.607 31.476-8.627 46.41-9.242 2.484-18.248 5.868-26.568 9.986-1.396-7.676-3.976-14.745-8.031-21.14-.022-.036-.045-.071-.068-.107-12.293-19.292-36.376-28.483-58.659-28.176-12.75.182-25.191 3.376-36.348 9.066-23.28 11.873-39.986 15.377-49.902 16.226-12.081 1.033-21.47 9.966-23.774 20.776-6.26-2.657-13.466-5.058-18.958-6.545-5.936-14.375-9.123-29.964-8.896-46.537zm7.964 137.442c-25.487-2.128-39.927-18.387-43.022-48.436 20.243.533 38.734 12.097 48.007 30.275-2.336 6.602-3.429 11.434-4.985 18.161zm177.968 170.422c-19.102 14.561-41.93 22.257-66.017 22.257s-46.916-7.696-66.017-22.257c-17.15-13.073-30.204-31.211-37.148-51.481 29.275-21.913 66.307-32.402 103.165-32.402 36.975 0 73.905 10.515 103.164 32.401-6.943 20.27-19.998 38.408-37.147 51.482zm45.934-170.422c-1.512-6.615-2.714-11.737-4.986-18.16 9.229-18.046 27.563-29.737 48.008-30.276-3.095 30.049-17.535 46.307-43.022 48.436z"/></g></g></svg>