<svg id="Capa_1" enable-background="new 0 0 512 512" height="512" viewBox="0 0 512 512" width="512" xmlns="http://www.w3.org/2000/svg"><g><g><path d="m129.162 94.081s-66.343 26.504-66.343 110.411c0 22.307 10.212 43.852 8.859 66.124-1.259 20.738-15.146 38.51-15.496 59.444-.425 25.44 14.94 47.536 20.994 71.536 6.297 24.963 5.412 56.045 37.234 60.963 15.563 2.405 32.48-.125 47.514-4.307h188.151c15.034 4.182 31.951 6.713 47.514 4.307 31.822-4.918 30.937-36 37.234-60.963 6.054-24.001 21.419-46.097 20.994-71.536-.35-20.934-14.237-38.706-15.496-59.444-1.352-22.272 8.859-43.817 8.859-66.124 0-83.908-66.343-110.411-66.343-110.411l-32.645 28.271h-178.45z" fill="#f8d070"/><path d="m148.653 253.79c0-42.91 6.05-90.462 19.242-133.993l-38.734-25.716s-66.343 26.503-66.343 110.411c0 22.307 10.212 43.852 8.859 66.124-1.259 20.738-15.146 38.51-15.496 59.444-.425 25.44 14.94 47.536 20.994 71.537 6.297 24.963 5.412 56.045 37.234 60.963 15.563 2.405 32.48-.125 47.514-4.307h126.318c-81.707-31.941-139.588-111.44-139.588-204.463z" fill="#f2c13b"/><path d="m267.357 504.5h-159.85c0-66.84 36.81-97.741 36.81-97.741l34.933-41.626h20.588z" fill="#80dfb5"/><path d="m404.493 504.5h-137.136c-40.985-29.101-67.73-76.952-67.73-131.046 0-2.787.067-5.564.211-8.321h132.913l34.933 41.626c-.001 0 36.809 30.901 36.809 97.741z" fill="#fb8978"/><path d="m159.225 481.191c0-40.853 18.505-77.379 47.584-101.669l-6.971-14.389h-20.588l-34.933 41.626s-36.81 30.901-36.81 97.741h53.764c-1.343-7.567-2.046-15.356-2.046-23.309z" fill="#36d39a"/><path d="m129.162 321.08v39.093c0 30.366 17.368 58.139 44.789 71.186 12.821 6.1 26.421 10.816 40.608 13.957v-89.991z" fill="#fbe29f"/><path d="m382.838 321.08v39.093c0 30.366-17.368 58.139-44.789 71.186-12.821 6.1-26.421 10.816-40.608 13.957v-89.991z" fill="#fbe29f"/><path d="m404.493 258.139c-.003-6.635-4.91-12.262-11.488-13.132-20.619-2.725-34.512-12.914-43.392-22.795-11.031-12.267-25.328-21.019-40.994-26.171-6.48-2.129-11.825-4.751-16.231-7.587-10.44-6.72-22.501-10.493-34.916-10.493h-2.945c-12.416 0-24.477 3.773-34.916 10.493-4.406 2.836-9.75 5.458-16.231 7.587-15.666 5.152-29.963 13.904-40.994 26.171-8.88 9.88-22.773 20.069-43.392 22.795-6.577.869-11.484 6.497-11.488 13.132v.127c0 82.017 66.476 148.493 148.493 148.493s148.493-66.476 148.493-148.493z" fill="#ffdcce"/><path d="m424.966 73.193-42.335 48.712c-5.401 6.215-11.931 11.194-19.18 14.718-8.207 4.031-17.323 6.186-26.678 6.186h-161.545c-9.356 0-18.472-2.155-26.678-6.186-7.249-3.524-13.78-8.503-19.18-14.718l-42.633-49.066c-6.387-7.345-6.023-18.376.833-25.28 6.952-7.01 18.28-7.105 25.73-.632l20.892 18.154c11.949 10.383 29.926-1.783 24.729-16.736l-3.305-9.509c-3.304-9.509 1.561-19.975 11.098-23.528 8.896-3.313 18.855.871 23.183 9.317l16.572 32.269c7.144 13.91 28.063 9.622 29.158-5.977l1.833-26.129c.699-10.045 9.289-17.754 19.458-17.265 9.48.46 16.988 8.226 17.648 17.687l1.804 25.703c1.095 15.6 22.015 19.887 29.158 5.976l16.764-32.647c4.443-8.657 14.823-12.42 23.777-8.618 9.087 3.85 13.397 14.326 10.16 23.652l-3.15 9.062c-5.197 14.953 12.781 27.119 24.73 16.735l21.234-18.453c7.354-6.387 18.376-6.014 25.28.833 7.011 6.952 7.117 18.281.643 25.74z" fill="#fbe29f"/><circle cx="207.043" cy="421.606" fill="#f8d070" r="27.794"/><circle cx="304.957" cy="421.606" fill="#f8d070" r="27.794"/><path d="m148.653 253.79c0-6.568.142-13.246.43-20.001-7.88 5.295-17.777 9.591-30.088 11.218-6.577.869-11.484 6.497-11.488 13.131v.127c0 62.688 38.837 116.294 93.764 138.081-32.8-38.35-52.618-88.136-52.618-142.556z" fill="#ffcabd"/><path d="m200.769 45.792-10.871-21.168c-4.328-8.446-14.287-12.63-23.183-9.317-9.538 3.553-14.402 14.019-11.098 23.528l3.305 9.509c5.197 14.953-12.78 27.119-24.729 16.736l-20.893-18.153c-7.45-6.473-18.778-6.377-25.73.632-6.856 6.904-7.22 17.936-.833 25.28l42.632 49.066c5.401 6.215 11.932 11.194 19.18 14.718 4.272 2.099 8.794 3.675 13.464 4.718 8.503-34.813 21.249-68.035 38.756-95.549z" fill="#f8d070"/><g><g><g><ellipse cx="171.742" cy="295.757" fill="#ffb2c1" rx="31.089" ry="24.758"/></g><g><ellipse cx="340.257" cy="295.757" fill="#ffb2c1" rx="31.089" ry="24.758"/></g></g></g></g><g><path d="m189.862 279.424c4.142 0 7.5-3.358 7.5-7.5v-12.709c0-4.142-3.358-7.5-7.5-7.5s-7.5 3.358-7.5 7.5v12.709c0 4.142 3.358 7.5 7.5 7.5z"/><path d="m322.139 279.424c4.142 0 7.5-3.358 7.5-7.5v-12.709c0-4.142-3.358-7.5-7.5-7.5s-7.5 3.358-7.5 7.5v12.709c0 4.142 3.358 7.5 7.5 7.5z"/><path d="m256 286.99c8.851 0 17.267-3.833 23.091-10.517 2.721-3.123 2.396-7.86-.727-10.582-3.122-2.722-7.86-2.396-10.582.727-2.975 3.414-7.269 5.371-11.783 5.371s-8.808-1.958-11.783-5.371c-2.721-3.123-7.459-3.448-10.582-.727s-3.448 7.459-.727 10.582c5.826 6.684 14.243 10.517 23.093 10.517z"/><path d="m56.962 296.596c-3.97 10.421-8.075 21.196-8.278 33.339-.293 17.555 6.092 33.21 12.267 48.349 7.919 19.413 8.846 23.235 11.812 38.684 3.655 19.049 8.123 42.322 31.123 50.628-2.385 10.897-3.878 23.168-3.878 36.904 0 4.142 3.358 7.5 7.5 7.5h296.985c4.142 0 7.5-3.358 7.5-7.5 0-13.737-1.494-26.007-3.879-36.904 23.001-8.305 27.469-31.578 31.124-50.628.947-4.934 1.945-10.187 3.231-14.945 1.079-3.999-1.289-8.116-5.288-9.195-4-1.079-8.116 1.289-9.195 5.288-1.41 5.232-2.439 10.602-3.479 16.025-3.849 20.056-7.122 33.476-20.327 38.902-7.969-24.512-20.082-40.034-26.804-47.265 8.499-13.686 12.962-29.324 12.962-45.605v-22.522c14.697-24.892 21.655-52.529 21.655-79.385v-.13c-.002-5.184-1.938-9.985-5.156-13.661s-7.718-6.225-12.848-6.903c-15.427-2.039-28.479-8.893-38.798-20.374-11.475-12.759-26.769-22.539-44.23-28.281-5.418-1.78-10.301-4.057-14.512-6.768-24.368-15.686-56.531-15.684-80.897 0-4.212 2.711-9.094 4.988-14.514 6.769-17.459 5.742-32.753 15.521-44.229 28.282-10.318 11.479-23.371 18.334-38.797 20.373-10.26 1.356-18 10.197-18.004 20.567.298 2.288-1.989 39.468 21.655 79.513v22.521c0 16.283 4.464 31.922 12.963 45.608-6.72 7.225-18.833 22.736-26.806 47.262-13.205-5.427-16.478-18.846-20.327-38.902-3.128-16.301-4.319-21.09-12.653-41.523-5.863-14.373-11.4-27.949-11.158-42.433.159-9.513 3.626-18.614 7.297-28.25 3.692-9.69 7.509-19.709 8.186-30.865.78-12.853-1.913-25.182-4.518-37.105-5.412-24.779-4.004-26.921-4.32-29.889.118-5.105-3.492-8.158-7.439-8.184-.017 0-.033 0-.05 0-4.119 0-7.472 3.325-7.499 7.45-.237 11.334 2.285 22.979 4.654 33.824 2.497 11.426 4.854 22.219 4.2 32.995-.539 8.867-3.79 17.4-7.231 26.434zm150.082 104.716c11.213 0 20.294 9.141 20.294 20.294v.001c0 11.216-9.123 20.289-20.284 20.293-.003 0-.007 0-.01 0-11.139 0-20.294-9.098-20.294-20.293 0 0 0 0 0-.001-.001-11.236 9.15-20.294 20.294-20.294zm-91.87 95.688c1.9-42.426 19.583-68.329 28.653-78.934 9.573 10.688 20.717 17.683 33.934 23.234 6.608 9.805 17.67 15.596 29.28 15.6h.002.01c2.187-.001 4.675-.236 6.863-.671 8.528 15.037 19.529 28.914 32.337 40.771zm242.519 0v-31.978c0-4.142-3.358-7.5-7.5-7.5s-7.5 3.358-7.5 7.5v31.978h-72.883c-17.13-12.559-31.406-28.51-42.035-46.818 9.275-6.706 14.562-17.404 14.562-28.575s0-.001 0-.002c0-2.572-.298-5.313-.932-8.026 4.411.42 9.586.681 14.595.681 4.864 0 9.741-.23 14.594-.683-.541 2.472-.932 4.852-.932 8.028v.002c0 19.45 15.856 35.294 35.294 35.294 11.857 0 22.812-6.005 29.282-15.599 12.485-5.372 23.368-11.521 33.952-23.28 1.691 1.96 3.682 4.45 5.812 7.478 6.361 9.145 13.36 22.262 17.83 38.748.005.017.013.032.018.05 2.579 9.526 4.435 20.408 4.978 32.703h-39.135zm-52.736-95.688h.002c11.182 0 20.292 9.107 20.292 20.294v.001c0 11.192-9.146 20.293-20.293 20.293h-.001c-11.085 0-20.294-9.064-20.294-20.294-.001-11.211 9.129-20.294 20.294-20.294zm70.381-41.138c0 24.58-12.909 48.432-35.087 61.527 0-2.557-.251-4.906-.718-7.198-1.456-7.144-5.071-13.584-10.261-18.506 17.867-9.492 33.422-22.169 46.067-37.172v1.349zm-258.177-106.521c.791-.637 1.755-1.07 2.817-1.21 18.799-2.485 35.393-11.204 47.986-25.215 9.727-10.816 22.784-19.136 37.758-24.061 6.627-2.177 12.666-5.005 17.949-8.405 18.977-12.217 44.598-12.914 64.659 0 5.282 3.4 11.321 6.229 17.947 8.405 14.976 4.925 28.034 13.245 37.759 24.06 12.593 14.012 29.187 22.732 47.987 25.217 2.832.375 4.969 2.825 4.97 5.696v.127c0 25.973-7.122 51.339-20.557 73.349 0 0 0 .001-.001.001-14.567 23.867-36.735 43.787-63.461 55.619-3.279-.757-6.627-1.041-9.833-.877-9.084.46-17.537 4.365-23.776 10.95-15.717 2.624-31.558 2.542-46.719.011-6.682-7.06-15.871-11.007-25.602-11.007-.001 0-.002 0-.004 0-2.728.001-5.498.341-8.014.924-26.962-11.942-49.02-31.958-63.461-55.619 0 0 0-.001-.001-.001-13.85-22.691-20.557-48.206-20.557-73.349.024-.102-.196-2.721 2.154-4.615zm65.568 142.344c-8.818 8.361-10.302 18.622-10.265 18.522-.729 3.586-.707 6.963-.715 7.08-2.37-1.381-4.657-2.873-6.868-4.517-30.509-23.217-28.112-57.788-28.219-58.257 12.646 15.003 28.201 27.68 46.067 37.172z"/><path d="m58.793 172.053c-.905 4.042 1.639 8.052 5.681 8.957 4.045.905 8.053-1.639 8.957-5.681 6.876-30.727 23.821-50.246 38.605-61.937l11.673 13.435c6.215 7.152 13.538 12.643 21.534 16.53 9.262 4.55 19.63 6.955 29.985 6.955h161.544c19.225 0 38.241-8.206 51.52-23.484l11.668-13.428c17.626 14.014 41.721 42.134 41.721 91.092 0 9.665-2.102 19.287-4.328 29.474-2.604 11.923-5.298 24.252-4.518 37.104.678 11.155 4.495 21.175 8.186 30.864 3.671 9.636 7.138 18.738 7.297 28.25.215 12.854-4.332 25.391-8.609 36.132-1.533 3.848.345 8.21 4.193 9.743 3.832 1.527 8.204-.33 9.743-4.193 4.816-12.093 9.933-26.304 9.672-41.933-.203-12.144-4.308-22.919-8.278-33.34-3.441-9.034-6.692-17.567-7.23-26.433-.654-10.775 1.704-21.568 4.2-32.994 2.298-10.517 4.673-21.391 4.673-32.675 0-54.632-26.897-86.376-46.876-102.419l20.823-23.959c.001-.002.002-.003.003-.004 9.144-10.537 8.693-26.341-1.025-35.981-9.643-9.562-25.228-10.075-35.481-1.169l-21.236 18.454c-6.15 5.345-15.411-.885-12.725-8.612l3.151-9.066c4.573-13.176-1.718-27.679-14.314-33.015-12.511-5.312-27.173.002-33.38 12.096l-16.764 32.646c-3.685 7.177-14.44 4.97-15.005-3.075l-1.803-25.7c-.937-13.417-11.584-24.017-24.77-24.656-14.305-.681-26.307 9.959-27.3 24.232l-1.833 26.129c-.565 8.047-11.32 10.248-15.004 3.076l-16.569-32.263c-6.139-11.978-20.1-17.534-32.476-12.925-13.423 5-20.26 19.503-15.564 33.018l3.305 9.51c2.675 7.697-6.551 13.979-12.725 8.612l-20.894-18.154c-10.531-9.152-26.334-8.708-35.971 1.009-9.576 9.643-10.09 25.23-1.173 35.484l21.113 24.3c-16.701 13.348-35.665 35.443-43.396 69.994zm34.103-119.212c4.096-4.13 10.898-4.239 15.486-.252l20.892 18.154c17.718 15.395 44.45-2.655 36.733-24.859l-3.305-9.509c-1.995-5.744.917-11.91 6.631-14.038 5.249-1.956 11.221.5 13.894 5.715l16.573 32.269c10.573 20.587 41.682 14.33 43.31-8.878l1.834-26.133c.422-6.065 5.528-10.583 11.613-10.295 5.595.271 10.122 4.879 10.53 10.72l1.804 25.703c1.622 23.12 32.704 29.534 43.311 8.878l16.765-32.648c2.637-5.136 8.861-7.395 14.179-5.137 5.357 2.27 7.993 8.545 6.001 14.284l-3.15 9.062c-7.705 22.17 18.988 40.279 36.733 24.858l21.233-18.452c4.359-3.786 10.983-3.568 15.081.496 4.131 4.098 4.245 10.906.259 15.499-3.922 4.512-36.784 42.325-42.332 48.708-9.787 11.263-24.361 18.323-40.197 18.323h-161.546c-15.094 0-29.912-6.487-40.197-18.323l-42.634-49.068c-3.79-4.357-3.572-10.978.499-15.077z"/></g></g></svg>