<svg id="Capa_1" enable-background="new 0 0 512 512" height="512" viewBox="0 0 512 512" width="512" xmlns="http://www.w3.org/2000/svg"><g><g><path d="m234.918 7.5c-115.454.057-209.908 96.376-209.908 211.83v84.434c0 63.513 51.487 115 115 115h190.027c63.513 0 115-51.487 115-115v-86.25c.001-115.837-94.268-210.071-210.119-210.014z" fill="#4f4c5f"/><path d="m104.689 223.683c0-100.53 65.932-185.651 156.91-214.51-8.739-1.108-17.644-1.678-26.68-1.674-115.455.059-209.909 96.377-209.909 211.831v84.434c0 63.513 51.487 115 115 115h77.486c-67.421-38.863-112.807-111.67-112.807-195.081z" fill="#423e4f"/><path d="m154.494 365.774 25.426 80.719-25.426 58.007h-75.007c0-103.107 75.007-138.726 75.007-138.726z" fill="#ffdcce"/><path d="m154.494 365.774s-12 5.706-26.398 19.138c12.001 7.693 24.881 14.13 38.451 19.127z" fill="#ffcabd"/><path d="m406.234 435.137-50.394-117.933-201.346 48.57v138.726h182.724z" fill="#6a647f"/><path d="m235.024 416.204c53.999 0 103.025-21.662 138.873-56.741l-18.058-42.259-201.346 48.57v33.36c24.63 10.964 51.879 17.07 80.531 17.07z" fill="#5c586f"/><path d="m71.504 175.888c-3.376 13.314-5.17 27.263-5.17 41.626 0 93.169 75.521 168.69 168.69 168.69s168.69-75.521 168.69-168.69c0-14.372-1.794-28.322-5.181-41.636l-44.438-42.752h-221.645z" fill="#ffdcce"/><path d="m104.689 223.683c0-28.88 5.448-56.487 15.36-81.856l-48.545 34.061c-3.376 13.314-5.17 27.263-5.17 41.626 0 64.529 36.232 120.582 89.458 148.953-31.93-38.846-51.103-88.575-51.103-142.784z" fill="#ffcabd"/><path d="m366.536 111.857c-10.347-12.86-26.182-20.023-42.675-19.37-12.556.497-25.178 2.101-37.797 4.826-15.602 3.366-29.118 7.993-40.003 12.508-7.065 2.943-15.007 2.943-22.073 0-10.885-4.515-24.401-9.142-40.003-12.508-12.618-2.725-25.239-4.329-37.794-4.826-16.493-.653-32.328 6.51-42.675 19.37-14.909 18.529-25.981 40.275-32.011 64.031 30.428-15.199 62.61-19.553 95.82-12.911 28.281 5.654 47.391 17.557 48.893 18.505l2.328 1.623c9.776 6.773 22.698 6.854 32.555.222l2.832-1.905c.171-.121 18.565-11.933 46.413-17.94 34.047-7.358 67.015-3.175 98.189 12.397-6.03-23.754-17.096-45.498-31.999-64.022z" fill="#c7c5cb"/><g><g><g><ellipse cx="139.297" cy="262.561" fill="#ffb2c1" rx="35.321" ry="28.128"/></g><g><ellipse cx="330.751" cy="262.561" fill="#ffb2c1" rx="35.321" ry="28.128"/></g></g></g><path d="m474.945 312.131-15.655-4.197-14.252 21.292 14.252 21.292 17.922-7.784c14.112-6.131 12.595-26.619-2.267-30.603z" fill="#4f4c5f"/><path d="m401.001 249.645c-32.192 0-58.288 26.096-58.288 58.288v78.994c0 32.192 26.097 58.288 58.288 58.288 32.192 0 58.288-26.097 58.288-58.288v-78.994c.001-32.191-26.096-58.288-58.288-58.288z" fill="#5c586f"/><path d="m353.706 328.641c-34.951 0-63.284 28.333-63.284 63.284 0 5.596 4.536 10.132 10.132 10.132h53.152c20.273 0 36.708-16.435 36.708-36.708.001-20.273-16.434-36.708-36.708-36.708z" fill="#4f4c5f"/><path d="m395.962 435.137h-58.744c-19.154 0-34.681 15.527-34.681 34.681 0 19.154 15.527 34.681 34.681 34.681h58.744c19.154 0 34.681-15.527 34.681-34.681 0-19.153-15.527-34.681-34.681-34.681z" fill="#ffdcce"/><path d="m146.863 92.521c-.224-.01-.448-.025-.672-.034-16.493-.653-32.328 6.511-42.675 19.371-14.909 18.529-25.981 40.275-32.011 64.031 13.583-6.785 27.517-11.402 41.734-13.851 7.182-25.268 18.676-48.717 33.624-69.517z" fill="#b2b0bc"/><path d="m408.871 482.145c-32.084 0-59.637-19.349-71.662-47.008-19.15.005-34.672 15.531-34.672 34.681 0 19.154 15.527 34.681 34.681 34.681h58.744c15.817 0 29.151-10.592 33.32-25.066-6.508 1.759-13.347 2.712-20.411 2.712z" fill="#ffcabd"/></g><g><path d="m167.382 235.484v-14.439c0-4.142-3.358-7.5-7.5-7.5s-7.5 3.358-7.5 7.5v14.439c0 4.142 3.358 7.5 7.5 7.5s7.5-3.358 7.5-7.5z"/><path d="m310.165 242.984c4.142 0 7.5-3.358 7.5-7.5v-14.439c0-4.142-3.358-7.5-7.5-7.5s-7.5 3.358-7.5 7.5v14.439c0 4.142 3.358 7.5 7.5 7.5z"/><path d="m235.023 251.579c9.76 0 19.042-4.227 25.465-11.598 2.721-3.123 2.396-7.86-.727-10.582-3.123-2.721-7.86-2.396-10.582.727-3.574 4.101-8.733 6.453-14.157 6.453-5.423 0-10.583-2.352-14.156-6.453-2.722-3.123-7.459-3.448-10.582-.727s-3.448 7.459-.727 10.582c6.425 7.371 15.706 11.598 25.466 11.598z"/><path d="m431.428 299.307c-4.142 0-7.5 3.358-7.5 7.5v14.439c0 4.142 3.358 7.5 7.5 7.5s7.5-3.358 7.5-7.5v-14.439c0-4.142-3.358-7.5-7.5-7.5z"/><path d="m452.537 267.115v-49.601c0-36.917-9.476-73.427-27.402-105.583-2.017-3.618-6.585-4.915-10.203-2.898s-4.916 6.585-2.899 10.203c16.685 29.927 25.503 63.912 25.503 98.279v35.725c-8.327-5.569-17.949-9.227-28.124-10.542 1.195-8.335 1.8-16.773 1.8-25.183 0-39.355-13.016-78.268-38.835-110.359-11.765-14.622-30.008-22.909-48.815-22.163-27.726 1.098-55.162 7.441-80.387 17.905-5.257 2.19-11.048 2.19-16.315-.004-25.004-10.372-52.447-16.795-80.374-17.9-18.791-.746-37.05 7.54-48.815 22.163-15.955 19.829-27.204 42.332-33.436 66.885 0 .001-.001.002-.001.003-3.583 14.132-5.401 28.757-5.401 43.469 0 28.111 6.788 56.082 19.629 80.89 1.904 3.678 6.43 5.117 10.108 3.213 3.679-1.904 5.117-6.43 3.213-10.108-11.911-23.01-17.951-47.905-17.951-73.994 0-12.306 1.387-24.541 4.127-36.42 27.617-13.048 57.218-16.897 87.893-10.762 24.754 4.949 41.979 14.822 45.75 17.116 2.811 1.708 10.906 8.786 24.668 8.294 12.771-.457 20.32-7.308 21.797-8.065 9.41-5.979 26.148-13.036 43.859-16.865 31.081-6.704 61.386-3.3 90.151 10.272 2.744 11.868 4.135 24.105 4.135 36.43 0 8.344-.649 16.719-1.934 24.972-33.174 3.382-59.067 31.559-59.067 65.447v15.67c-5.036 1.359-10.056 3.362-14.439 5.667-16.241 8.543-28.803 23.225-34.509 41.107-16.367 5.485-33.564 8.304-51.037 8.324-.056 0-.111.002-.167.002-.014 0-.032 0-.05 0-25.867 0-52.896-6.43-76.925-19.51-.044-.024-.088-.049-.132-.072-19.624-10.703-36.562-25.135-50.344-42.898-2.538-3.272-7.25-3.867-10.523-1.328-3.272 2.539-3.867 7.251-1.328 10.523 12.442 16.036 27.247 29.581 44.115 40.405-13.988 9.565-27.477 22.761-38.323 38.353-41.524-15.855-69.039-55.521-69.039-100.413v-84.434c0-53.964 21.129-105.075 59.495-143.918 38.451-38.931 89.207-60.385 142.916-60.412h.104c64.928 0 123.399 30.788 160.781 79.545 2.521 3.288 7.228 3.909 10.516 1.389 3.287-2.52 3.909-7.228 1.389-10.515-40.32-52.59-103.25-85.419-172.685-85.419-.036 0-.077 0-.112 0-57.749.029-112.292 23.067-153.582 64.871-41.156 41.669-63.822 96.524-63.822 154.459v84.434c0 50.181 30.183 94.624 76.004 113.354-11.818 21.175-21.527 49.949-21.527 87.383 0 4.142 3.358 7.5 7.5 7.5h316.475c23.259 0 42.182-18.922 42.182-42.182 0-8.969-2.822-17.286-7.613-24.128 21.801-11.028 36.259-33.787 36.259-58.762v-31.491l13.409-5.824c9.397-4.082 14.981-13.321 14.224-23.539-.756-10.218-7.64-18.534-17.536-21.187l-10.37-2.78c-1.161-13.153-6.205-25.198-13.98-34.993zm-343.179-150.556c8.801-10.938 22.468-17.141 36.535-16.578 24.28.961 50.071 6.335 75.21 16.763 8.847 3.685 18.994 3.685 27.83.004 23.394-9.704 49.095-15.733 75.223-16.768 14.081-.563 27.735 5.64 36.536 16.578 11.212 13.936 19.883 29.318 25.883 45.889-27.609-10.353-56.658-13.022-87.813-6.298-28.499 6.148-47.234 17.898-49.015 19.052l-.002-.003c-.104.07-3.014 2.027-2.833 1.905-7.417 4.99-16.905 4.819-24.081-.152-11.255-7.818-32.01-16.925-54.038-21.328-28.515-5.713-57.381-3.775-85.333 6.835 6.003-16.569 14.678-31.955 25.898-45.899zm244.347 277.999c-12.202 0-42.312 0-53.152 0-1.451 0-2.632-1.18-2.632-2.632 0-30.91 25.175-55.746 55.704-55.782.027 0 .054-.002.08-.002 16.038 0 29.208 13.036 29.208 29.208.001 16.105-13.102 29.208-29.208 29.208zm-206.712-15.37v117.812h-59.87c1.743-47.217 21.543-90.7 59.87-117.812zm15 117.812v-119.107c22.344 10.162 47.486 15.811 73.03 15.811h.082c16.789 0 33.094-2.429 47.984-6.645-.058.835-.168 3.166-.168 4.866 0 9.68 7.867 17.632 17.632 17.632h38.669c.004.011.009.022.013.033.013.034.027.068.04.103 2.393 6.489 5.957 12.754 10.049 17.944h-12.106c-23.259 0-42.181 18.922-42.181 42.181v.004c.004 9.952 3.506 19.527 9.95 27.177h-142.994zm233.968 0h-58.744c-14.988 0-27.182-12.194-27.182-27.182s12.194-27.181 27.182-27.181h58.744c15.171 0 27.182 12.392 27.182 27.182 0 14.988-12.194 27.181-27.182 27.181zm55.828-110.072c0 21.089-13.343 40.137-32.858 47.52-6.586-4.274-14.6-6.81-22.969-6.81h-25.308c-6.557-4.897-11.705-11.204-15.129-18.117 23.259-.918 42.389-20.192 42.389-44.171 0-24.318-19.773-44.208-44.208-44.208-1.171 0-2.335.032-3.493.089v-13.296c0-27.724 22.541-50.61 50.475-50.779.012 0 .023-.002.034-.002 28.397-.149 51.067 22.941 51.067 50.781zm21.213-67.553c5.569 1.493 6.353 6.353 6.461 7.806.107 1.454.048 6.376-5.241 8.673l-7.434 3.229v-21.374z"/></g></g></svg>