<svg id="Capa_1" enable-background="new 0 0 512 512" height="512" viewBox="0 0 512 512" width="512" xmlns="http://www.w3.org/2000/svg"><g><g><g fill="#f8d070"><path d="m296.763 207.454-21.94-97.344 12.245-23.007-12.245-19.66 5.139-19.66-44.475-40.283h-27.279l-44.475 40.283 5.139 19.66-12.245 19.66 12.245 23.007-21.94 97.344z"/><path d="m304.546 305.678 97.344-21.94 23.007 12.245 19.66-12.245 19.66 5.139 40.283-44.475v-27.28l-40.283-44.475-19.66 5.139-19.66-12.245-23.007 12.245-97.344-21.94z"/><path d="m215.237 304.546 21.94 97.344-12.245 23.007 12.245 19.66-5.139 19.66 44.475 40.283h27.279l44.475-40.283-5.139-19.66 12.245-19.66-12.245-23.007 21.94-97.344z"/><path d="m207.454 206.316-97.344 21.94-23.007-12.245-19.66 12.245-19.66-5.139-40.283 44.475v27.28l40.283 44.475 19.66-5.139 19.66 12.245 23.007-12.245 97.344 21.939z"/></g><path d="m272.297 67.443 7.666-19.66.002.001c-1.367-6.121-2.842-12.06-4.437-17.728-3.761-13.337-15.929-22.556-29.786-22.556h-10.248c14.788 67.229 20.617 148.506 22.906 199.958h38.364s-1.027-60.847-9.696-120.356z" fill="#fbe29f"/><path d="m258.4 207.458h-73.108c2.3-51.452 8.129-132.729 22.916-199.958h27.286c14.787 67.229 20.616 148.506 22.906 199.958z" fill="#f8d070"/><path d="m197.959 7.5c-13.868 0-26.036 9.219-29.785 22.556-1.597 5.669-3.072 11.608-4.44 17.73l10.627 19.657-17.734 19.659c-8.673 59.509-9.7 120.356-9.7 120.356h38.364c2.3-51.452 8.129-132.729 22.916-199.958z" fill="#fbe29f"/><path d="m304.542 267.314v-73.108c51.452 2.3 132.729 8.129 199.958 22.916v27.286c-67.229 14.787-148.506 20.616-199.958 22.906z" fill="#f8d070"/><path d="m444.557 281.211 19.66 7.666-.001.002c6.121-1.367 12.06-2.842 17.728-4.437 13.338-3.759 22.556-15.927 22.556-29.785v-10.248c-67.229 14.788-148.506 20.617-199.958 22.906v38.364s60.847-1.027 120.356-9.696z" fill="#fbe29f"/><path d="m504.5 206.874c0-13.868-9.219-26.036-22.556-29.785-5.669-1.597-11.608-3.072-17.73-4.44l-19.657 10.627-19.659-17.734c-59.509-8.673-120.356-9.7-120.356-9.7v38.364c51.452 2.3 132.729 8.129 199.958 22.916z" fill="#fbe29f"/><path d="m207.458 244.686v73.108c-51.452-2.3-132.729-8.129-199.958-22.916v-27.286c67.229-14.787 148.506-20.616 199.958-22.906z" fill="#f8d070"/><path d="m67.443 230.789-19.66-7.666.001-.002c-6.121 1.367-12.06 2.842-17.728 4.437-13.337 3.76-22.556 15.928-22.556 29.786v10.248c67.229-14.788 148.506-20.617 199.958-22.906v-38.364s-60.847 1.027-120.356 9.696z" fill="#fbe29f"/><path d="m7.5 305.126c0 13.868 9.219 26.036 22.556 29.785 5.669 1.597 11.608 3.072 17.73 4.44l19.657-10.627 19.659 17.734c59.509 8.673 120.356 9.7 120.356 9.7v-38.364c-51.452-2.3-132.729-8.129-199.958-22.916z" fill="#fbe29f"/><path d="m253.6 304.542h73.108c-2.3 51.452-8.129 132.729-22.916 199.958h-27.286c-14.787-67.229-20.616-148.506-22.906-199.958z" fill="#f8d070"/><path d="m239.703 444.557-7.666 19.66-.002-.001c1.367 6.121 2.842 12.06 4.437 17.728 3.759 13.338 15.927 22.556 29.785 22.556h10.248c-14.788-67.229-20.617-148.506-22.906-199.958h-38.364s1.027 60.847 9.696 120.356z" fill="#fbe29f"/><path d="m314.041 504.5c13.868 0 26.036-9.219 29.785-22.556 1.597-5.669 3.072-11.608 4.44-17.73l-10.627-19.657 17.734-19.659c8.673-59.509 9.7-120.356 9.7-120.356h-38.364c-2.3 51.452-8.129 132.729-22.916 199.958z" fill="#fbe29f"/><path d="m116.932 251.099c33.837-3.37 65.666-5.307 90.526-6.414v-38.364s-42.109.711-90.526 5.941z" fill="#f8d070"/><path d="m116.932 304.546c0 2.311.12 4.594.31 6.856 33.721 3.352 65.432 5.283 90.216 6.391v-73.108c-24.86 1.106-56.689 3.043-90.526 6.414z" fill="#f2c13b"/><path d="m132.014 351.725c41.756 3.864 75.444 4.433 75.444 4.433v-38.364c-24.784-1.108-56.495-3.039-90.216-6.391 1.25 14.941 6.537 28.743 14.772 40.322z" fill="#f8d070"/><path d="m253.6 304.542h-38.364s.626 37.057 5.02 81.615h38.895c-2.845-30.491-4.542-58.948-5.551-81.615z" fill="#f8d070"/><path d="m259.152 386.158h54.305c2.607 0 5.182-.136 7.728-.376 2.826-30.35 4.515-58.666 5.524-81.24h-73.109c1.009 22.667 2.706 51.124 5.552 81.616z" fill="#f2c13b"/><path d="m321.184 385.782c14.969-1.413 28.767-6.887 40.292-15.304 3.111-37.245 3.596-65.935 3.596-65.935h-38.364c-1.008 22.573-2.697 50.888-5.524 81.239z" fill="#f8d070"/><path d="m395.068 260.901c-33.837 3.37-65.666 5.307-90.526 6.414v38.364s42.109-.711 90.526-5.941z" fill="#f8d070"/><path d="m304.542 267.314c24.86-1.106 56.689-3.043 90.526-6.414v-53.447c0-2.311-.12-4.594-.31-6.857-33.721-3.352-65.432-5.283-90.216-6.391z" fill="#f2c13b"/><path d="m379.986 160.275c-41.756-3.864-75.444-4.433-75.444-4.433v38.364c24.784 1.108 56.495 3.039 90.216 6.391-1.249-14.941-6.537-28.743-14.772-40.322z" fill="#f8d070"/><path d="m258.4 207.458h38.364s-.626-37.057-5.02-81.616h-38.895c2.845 30.492 4.542 58.949 5.551 81.616z" fill="#f8d070"/><path d="m190.815 126.218c-2.826 30.351-4.515 58.666-5.524 81.24h73.109c-1.009-22.667-2.706-51.124-5.552-81.616h-54.304c-2.608 0-5.183.136-7.729.376z" fill="#f2c13b"/><path d="m150.523 141.523c-3.111 37.245-3.596 65.935-3.596 65.935h38.364c1.009-22.574 2.698-50.889 5.524-81.24-14.968 1.413-28.767 6.887-40.292 15.305z" fill="#f8d070"/><path d="m313.457 155.842h-114.914c-28.504 0-51.611 23.107-51.611 51.611v97.093c0 28.504 23.107 51.611 51.611 51.611h114.913c28.504 0 51.611-23.107 51.611-51.611v-97.093c.001-28.504-23.106-51.611-51.61-51.611z" fill="#fbe29f"/><path d="m198.543 316.164c-6.406 0-11.618-5.211-11.618-11.617v-97.093c0-6.406 5.212-11.618 11.618-11.618h114.913c6.406 0 11.618 5.212 11.618 11.618v97.093c0 6.406-5.212 11.617-11.618 11.617z" fill="#f8d070"/><path d="m226.919 235.829h58.162v40.341h-58.162z" fill="#fbe29f"/><path d="m156.627 87.103h130.442c-1.954-13.413-4.299-26.754-7.106-39.32h-116.23c-2.808 12.565-5.152 25.907-7.106 39.32z" fill="#e8a882"/><path d="m424.897 165.541v130.442c13.413-1.954 26.754-4.299 39.32-7.106v-116.23c-12.565-2.807-25.907-5.152-39.32-7.106z" fill="#e8a882"/><path d="m87.103 346.459v-130.442c-13.413 1.954-26.754 4.299-39.32 7.106v116.23c12.565 2.807 25.907 5.152 39.32 7.106z" fill="#e8a882"/><path d="m355.373 424.897h-130.441c1.954 13.413 4.299 26.754 7.106 39.32h116.23c2.807-12.565 5.151-25.907 7.105-39.32z" fill="#e8a882"/></g><g><path d="m179.425 207.454v50.172c0 4.142 3.358 7.5 7.5 7.5s7.5-3.358 7.5-7.5v-50.172c0-2.271 1.847-4.118 4.118-4.118h114.913c2.271 0 4.119 1.847 4.119 4.118v19.431c0 4.142 3.358 7.5 7.5 7.5s7.5-3.358 7.5-7.5v-19.431c0-10.542-8.577-19.118-19.119-19.118h-114.913c-10.542 0-19.118 8.576-19.118 19.118z"/><path d="m325.075 249.385c-4.142 0-7.5 3.358-7.5 7.5v47.662c0 2.27-1.848 4.117-4.119 4.117h-114.913c-2.271 0-4.118-1.847-4.118-4.117v-16.921c0-4.142-3.358-7.5-7.5-7.5s-7.5 3.358-7.5 7.5v16.921c0 10.542 8.576 19.117 19.118 19.117h114.913c10.542 0 19.119-8.576 19.119-19.117v-47.662c0-4.142-3.358-7.5-7.5-7.5z"/><path d="m285.081 283.671c4.142 0 7.5-3.358 7.5-7.5v-40.341c0-4.142-3.358-7.5-7.5-7.5h-58.162c-4.142 0-7.5 3.358-7.5 7.5v40.341c0 4.142 3.358 7.5 7.5 7.5zm-50.662-40.341h43.162v25.341h-43.162z"/><path d="m28.023 342.13c46.998 13.239 114.045 19.016 162.742 21 6.313.834 9.382.412 20.003.528 2.873 37.426 8.289 84.095 18.487 120.321 4.65 16.499 19.867 28.021 37.004 28.021h47.783c17.149 0 32.366-11.525 37.004-28.023 13.968-49.608 19.929-123.283 21.408-174.537 35.115-2.975 77.768-8.275 111.526-17.78 16.497-4.65 28.02-19.867 28.02-37.004 0-6.763 0-41.074 0-47.782 0-17.148-11.523-32.365-28.023-37.005-5.571-1.569-11.651-3.092-18.069-4.526-.019-.004-.037-.011-.056-.015-11.941-2.667-25.357-5.093-39.874-7.208-.004 0-.009 0-.013-.001-41.237-6.009-83.207-8.372-104.734-9.249-2.547-.336-5.138-.528-7.775-.528h-12.224c-2.877-37.475-8.295-84.131-18.487-120.321-4.65-16.498-19.866-28.021-37.003-28.021-6.711 0-41.02 0-47.782 0-17.149 0-32.366 11.525-37.004 28.022-13.997 49.698-19.925 123.142-21.408 174.538-19.135 1.621-37.115 3.645-53.521 6.035-.002 0-.003 0-.005 0-14.506 2.113-27.914 4.537-39.855 7.204-.006.001-.011.001-.017.002-6.446 1.44-12.545 2.966-18.128 4.538-16.499 4.651-28.022 19.868-28.022 37.005v47.782c0 17.15 11.525 32.367 28.023 37.004zm12.26-73.286v24.782c-8.337-1.442-16.476-2.966-25.283-4.813v-15.157c8.588-1.799 16.843-3.354 25.283-4.812zm54.32-46.31c13.947-1.903 28.969-3.549 44.829-4.913v23.885c-15.654 1.314-31.175 2.87-44.829 4.452zm119.669-207.534h15.157c1.887 9.021 3.443 17.359 4.812 25.283h-24.781c1.428-8.261 2.95-16.383 4.812-25.283zm71.923 133.342h-23.892c-1.516-19.375-3.361-38.118-5.171-53.739h23.419c2.262 16.571 4.154 34.586 5.644 53.739zm71.373 59.112v97.093c0 23.96-19.461 44.111-44.111 44.111-14.384 0-101.774 0-114.914 0-24.189 0-43.922-19.6-44.103-43.777-.001-.111-.008-.224-.008-.335v-97.088c0-.009 0-.017 0-.026.017-23.784 19.289-44.09 44.111-44.09h114.914c24.33 0 44.111 19.81 44.111 44.112zm59.829 3.136v40.349c-14.751 1.732-29.733 3.219-44.829 4.501-.006-50.618.014-48.078-.016-49.354 14.977 1.276 29.736 2.729 44.845 4.504zm79.603 12.597v15.157c-7.378 1.548-16.047 3.218-25.283 4.813v-24.782c8.305 1.436 16.476 2.97 25.283 4.812zm-199.272 273.813h-15.157c-1.914-9.136-3.449-17.401-4.813-25.283h24.782c-1.332 7.713-2.917 16.261-4.812 25.283zm-64.067-64.603h23.044c1.074 8.341 2.206 16.463 3.406 24.319h-22.019c-1.577-7.58-3.06-15.717-4.431-24.319zm41.633 24.32c-1.219-7.853-2.375-15.96-3.466-24.319h36.645c-1.091 8.359-2.247 16.467-3.467 24.319zm40.267-93.096c-1.661 19.933-2.901 33.868-5.24 53.777h-40.344c-1.911-16.271-3.69-34.268-5.232-53.74 51.31-.013 48.927.03 50.816-.037zm8.033 68.776h23.049c-1.371 8.601-2.853 16.737-4.431 24.319h-22.025c1.2-7.856 2.333-15.977 3.407-24.319zm32.149-86.596c-1.271 20.342-3.389 45.959-6.886 71.596h-23.421c1.837-15.843 3.757-35.317 5.371-56.332 8.86-2.701 17.841-7.965 24.936-15.264zm16.825-75.306c14.415-1.211 30.455-2.779 44.829-4.452v23.423c-13.946 1.903-28.969 3.55-44.829 4.913zm59.829-6.283c8.354-1.076 16.454-2.218 24.319-3.418v22.028c-7.582 1.578-15.719 3.061-24.319 4.431zm24.32-18.591c-7.853 1.219-15.957 2.376-24.32 3.468v-36.646c8.364 1.092 16.467 2.249 24.32 3.468zm-362.114 55.789v-40.349c14.84-1.742 29.822-3.225 44.829-4.501.004 35.094-.012 48.133.017 49.354-14.878-1.26-29.898-2.748-44.846-4.504zm142.104-246.127c1.219 7.853 2.375 15.96 3.466 24.319h-36.644c1.091-8.359 2.247-16.467 3.466-24.319zm-40.268 93.096c1.479-18.709 3.237-36.728 5.239-53.777h40.344c2.066 17.595 3.837 36.064 5.215 53.517.006.074.011.149.017.223-51.14.013-48.89-.031-50.815.037zm81.899-68.776h-23.044c-1.074-8.341-2.206-16.463-3.406-24.319h22.019c1.578 7.578 3.06 15.714 4.431 24.319zm-89.932 0h-23.05c1.371-8.601 2.854-16.738 4.432-24.319h22.026c-1.201 7.856-2.334 15.977-3.408 24.319zm-32.15 86.597c1.27-20.338 3.388-45.95 6.888-71.598h23.421c-2.122 18.304-3.99 38.325-5.371 56.332-8.109 2.413-17.403 7.581-24.845 15.176-.03.032-.063.059-.093.09zm-76.653 133.358c-8.364-1.092-16.467-2.249-24.319-3.468v-29.71c7.853-1.219 15.956-2.376 24.319-3.468zm-64.603 5.568v-.991c8.27 1.692 16.962 3.296 25.283 4.713v21.02c-2.841-.713-5.58-1.44-8.197-2.177-10.06-2.828-17.086-12.107-17.086-22.565zm40.283 6.138c7.866 1.201 15.964 2.344 24.319 3.42v23.045c-8.603-1.371-16.739-2.854-24.319-4.431zm39.32 28.678v-23.428c15.605 1.808 31.927 3.392 47.211 4.653 2.568 8.786 7.53 17.754 14.748 25.03-18.4-1.302-40.139-3.277-61.959-6.255zm155.094 23.716c1.487 18.985 3.328 37.843 5.171 53.74h-23.419c-2.262-16.571-4.154-34.586-5.644-53.74zm16.561 133.342c-10.451 0-19.73-7.028-22.566-17.088-.736-2.614-1.462-5.352-2.175-8.195h21.018c1.53 9.008 3.302 18.386 4.714 25.283zm70.348-17.086c-2.828 10.06-12.107 17.086-22.565 17.086h-.991c1.616-7.897 3.344-17.217 4.715-25.283h21.018c-.713 2.842-1.44 5.58-2.177 8.197zm160.394-225.258c0 10.45-7.028 19.73-17.089 22.566-2.614.736-5.353 1.463-8.194 2.176v-21.02c8.522-1.451 16.916-3.002 25.283-4.713zm-17.086-70.347c10.06 2.828 17.086 12.107 17.086 22.565v.991c-7.067-1.446-16.284-3.183-25.283-4.713v-21.021c2.84.713 5.578 1.44 8.194 2.177.001 0 .002 0 .003.001zm-23.197 16.427c-7.866-1.201-15.964-2.344-24.319-3.42v-23.045c8.602 1.371 16.739 2.854 24.319 4.431zm-39.32-28.678v23.428c-13.553-1.577-30.238-3.253-47.21-4.653-2.536-8.718-7.539-17.763-14.748-25.03 18.4 1.302 40.138 3.277 61.958 6.255zm-171.655-157.058c10.451 0 19.73 7.028 22.566 17.089.736 2.614 1.463 5.352 2.176 8.194h-21.019c-1.484-8.729-3.179-17.779-4.714-25.283zm-70.347 17.086c2.828-10.06 12.106-17.086 22.564-17.086h.991c-1.668 8.15-3.385 17.459-4.715 25.283h-21.019c.714-2.844 1.442-5.582 2.179-8.197zm-95.792 215.702c-8.354 1.076-16.454 2.218-24.319 3.419v-22.028c7.582-1.578 15.718-3.061 24.319-4.431zm-64.603 9.556c0-10.45 7.028-19.73 17.089-22.566 2.614-.736 5.353-1.463 8.194-2.176v21.019c-8.588 1.453-17.545 3.13-25.283 4.713z"/></g></g></svg>