<svg id="Capa_1" enable-background="new 0 0 512 512" height="512" viewBox="0 0 512 512" width="512" xmlns="http://www.w3.org/2000/svg"><g><g><circle cx="45.993" cy="185.421" fill="#ffcabd" r="38.493"/><g fill="#fbe5c8"><path d="m94.889 356.614 30.194 66.966-30.194 66.966h-73.649c0-97.419 73.649-133.932 73.649-133.932z"/><path d="m274.675 356.614 30.195 66.966-30.195 66.966h-119.397l-30.195-66.966 30.195-66.966z"/><path d="m335.064 490.546h55.993l8.384-66.966v-115.342h-87.462l-7.109 115.342z"/></g><path d="m155.278 356.614-24.412 54.142c25.564 9.066 53.825 13.665 84.111 13.665 30.276 0 58.535-4.598 84.111-13.666l-24.412-54.141z" fill="#fbdab2"/><path d="m116.773 405.149-21.884-48.535s-11.221 5.563-24.903 18.14c13.81 12.433 29.552 22.706 46.787 30.395z" fill="#fbdab2"/><path d="m94.889 356.614h60.389v133.932h-60.389z" fill="#78cbec"/><path d="m305.816 408.237c40.56-15.988 73.587-45.921 93.625-84.737v-15.261h-87.462z" fill="#fbdab2"/><path d="m274.675 356.614h60.389v133.932h-60.389z" fill="#78cbec"/><path d="m53.384 174.145 13.356-43.296c10.031-32.518 30.075-59.871 56.116-79.091 26.051-19.219 58.089-30.305 92.121-30.305 68.063 0 128.174 44.36 148.236 109.395l13.346 43.296c-2.162 5.218-20.733 91.615-20.733 91.615h-271.341z" fill="#ffdcce"/><path d="m83.889 210.98c0-69.672 28.156-132.765 73.704-178.533-12.4 4.939-24.071 11.442-34.738 19.312-26.04 19.219-46.084 46.572-56.115 79.09l-13.356 43.296 31.101 91.615h5.367c-3.893-17.641-5.963-35.968-5.963-54.78z" fill="#ffcabd"/><path d="m274.675 417.856c10.381-2.406 20.407-5.457 30.027-9.174 10.668-4.124 20.821-9.21 30.362-15.165v-36.903h-60.389z" fill="#59c2e7"/><path d="m94.889 393.519c9.542 5.955 19.695 11.041 30.363 15.164 9.617 3.717 19.643 6.769 30.026 9.175v-61.244h-60.389z" fill="#59c2e7"/><path d="m293.885 380.701c-21.873 8.45-47.924 13.72-78.909 13.72s-57.045-5.27-78.909-13.72c-73.868-28.551-112.46-110.028-89.121-185.698l6.438-20.858s11.009 37.011 57.294 37.011 45.605-25.734 104.298-25.734c58.683 0 58.013 25.734 104.289 25.734 46.286 0 57.294-37.011 57.294-37.011l6.438 20.858c23.34 75.67-15.252 157.147-89.112 185.698z" fill="#6a647f"/><path d="m150.243 132.662h-24.546c-7.743 0-14.02 6.277-14.02 14.02s6.277 14.02 14.02 14.02h24.546c7.743 0 14.02-6.277 14.02-14.02s-6.277-14.02-14.02-14.02z" fill="#6a647f"/><path d="m279.7 132.662h24.546c7.743 0 14.02 6.277 14.02 14.02s-6.277 14.02-14.02 14.02h-24.546c-7.743 0-14.02-6.277-14.02-14.02s6.277-14.02 14.02-14.02z" fill="#6a647f"/><path d="m413.753 136.612c-5.897-11.794-22.727-11.794-28.624 0l-22.41 44.82h73.444z" fill="#b2b0bc"/><path d="m495.655 295.759c11.794-5.897 11.794-22.727 0-28.624l-44.82-22.41v73.444z" fill="#b2b0bc"/><path d="m303.227 295.759c-11.794-5.897-11.794-22.727 0-28.624l44.82-22.41v73.444z" fill="#b2b0bc"/><path d="m409.605 131.375c-7.484-6.165-19.646-4.423-24.476 5.237l-22.41 44.82h20.813c6.649-17.836 15.445-34.625 26.073-50.057z" fill="#a19dae"/><path d="m399.441 167.705c-37.826 0-68.49 30.664-68.49 68.49 0 86.127 45.608 143.183 45.608 212.576h45.764c0-69.392 45.608-126.449 45.608-212.576 0-37.826-30.664-68.49-68.49-68.49z" fill="#e8a882"/><path d="m369.08 261.899c0-33.237 7.05-64.824 19.715-93.366-32.769 5.115-57.844 33.458-57.844 67.662 0 86.127 45.608 143.183 45.608 212.576h45.764c0-12.059 1.38-23.745 3.656-35.277-35.427-40.518-56.899-93.546-56.899-151.595z" fill="#e3986d"/><path d="m399.441 423.58c-20.807 0-37.675 16.868-37.675 37.675 0 16.177 13.114 29.291 29.291 29.291h16.767c16.177 0 29.291-13.114 29.291-29.291.001-20.807-16.867-37.675-37.674-37.675z" fill="#ffdcce"/><circle cx="399.441" cy="281.447" fill="#c7c5cb" r="19.833"/><path d="m83.889 210.98c0-1.624.031-3.241.061-4.858-24.039-10.116-30.566-31.976-30.566-31.976l-6.438 20.858c-23.339 75.67 15.253 157.147 89.122 185.698 5.994 2.317 12.315 4.384 18.954 6.179-44.03-45.542-71.133-107.553-71.133-175.901z" fill="#5c586f"/><path d="m391.784 435.507c0-3.887.391-7.682 1.128-11.352-17.694 3.093-31.146 18.52-31.146 37.099 0 16.177 13.114 29.291 29.291 29.291h16.767c5.464 0 10.575-1.5 14.953-4.105-18.408-9.547-30.993-28.764-30.993-50.933z" fill="#ffcabd"/></g><g><path d="m137.972 185.045c4.142 0 7.5-3.358 7.5-7.5v-9.345h4.773c11.866 0 21.52-9.654 21.52-21.52s-9.654-21.52-21.52-21.52h-24.547c-11.866 0-21.52 9.654-21.52 21.52s9.654 21.52 21.52 21.52h4.773v9.345c.001 4.142 3.359 7.5 7.501 7.5zm-18.793-38.365c0-3.595 2.925-6.52 6.52-6.52h24.547c3.595 0 6.52 2.925 6.52 6.52s-2.925 6.52-6.52 6.52h-24.547c-3.596 0-6.52-2.925-6.52-6.52z"/><path d="m291.977 185.045c4.142 0 7.5-3.358 7.5-7.5v-9.345h4.773c11.866 0 21.52-9.654 21.52-21.52s-9.654-21.52-21.52-21.52h-24.547c-11.866 0-21.52 9.654-21.52 21.52s9.654 21.52 21.52 21.52h4.773v9.345c.001 4.142 3.359 7.5 7.501 7.5zm-18.793-38.365c0-3.595 2.925-6.52 6.52-6.52h24.547c3.595 0 6.52 2.925 6.52 6.52s-2.925 6.52-6.52 6.52h-24.547c-3.595 0-6.52-2.925-6.52-6.52z"/><path d="m214.975 230.804c9.809 0 19.136-4.248 25.59-11.655 2.721-3.123 2.396-7.86-.727-10.582-3.123-2.721-7.861-2.396-10.582.727-3.605 4.137-8.81 6.509-14.282 6.509-5.471 0-10.676-2.373-14.281-6.509-2.721-3.122-7.459-3.448-10.582-.727s-3.449 7.459-.727 10.582c6.455 7.407 15.782 11.655 25.591 11.655z"/><path d="m399.447 254.114c-15.072 0-27.333 12.262-27.333 27.333s12.261 27.333 27.333 27.333 27.333-12.261 27.333-27.333-12.262-27.333-27.333-27.333zm0 39.666c-6.8 0-12.333-5.532-12.333-12.333s5.532-12.333 12.333-12.333c6.8 0 12.333 5.533 12.333 12.333s-5.533 12.333-12.333 12.333z"/><path d="m499.016 260.427-23.879-11.939c.194-4.03.3-8.124.3-12.294 0-27.105-14.275-50.926-35.692-64.38l-19.279-38.558c-8.657-17.314-33.386-17.31-42.041 0l-4.094 8.187-3.948-12.808c-7.549-24.472-20.97-47.098-38.81-65.434-2.888-2.968-7.636-3.034-10.606-.145-2.969 2.889-3.034 7.637-.145 10.606 16.193 16.642 28.374 37.18 35.227 59.393l8.571 27.808-5.455 10.909c-11.889 7.456-21.73 18.375-27.902 30.855-3.907.691-8.104 1.027-11.996 1.027-19.994 0-30.121-5.066-41.846-10.931-13.87-6.939-29.591-14.803-62.445-14.803-32.859 0-48.579 7.864-62.449 14.803-11.725 5.866-21.852 10.932-41.851 10.932-24.683 0-42.168-12.45-49.378-29.732l6.628-21.484.099-.322 5.879-19.059c9.369-30.371 27.836-56.398 53.402-75.267 25.574-18.867 55.889-28.84 87.669-28.84 30.13 0 59.158 9.058 83.946 26.196 3.407 2.355 8.079 1.503 10.435-1.904 2.355-3.407 1.503-8.079-1.904-10.434-27.302-18.88-59.28-28.859-92.472-28.859-35.008 0-68.403 10.986-96.576 31.771-28.166 20.788-48.509 49.459-58.83 82.915l-3.664 11.877c-3.237-.713-6.55-1.086-9.918-1.086-25.36 0-45.992 20.632-45.992 45.993 0 20.595 13.748 38.423 32.964 44.095-1.464 22.007 1.692 44.109 9.458 65.3 1.425 3.889 5.733 5.887 9.623 4.461 3.889-1.425 5.886-5.733 4.461-9.623-7.702-21.015-10.401-43.018-8.081-64.816.025-.148.055-.295.071-.445 1.612-14.887 4.658-23.766 6.855-31.191 13.354 17.551 33.191 25.454 55.328 25.454 23.542 0 36.262-6.363 48.562-12.517 12.99-6.498 26.422-13.218 55.738-13.218 29.311 0 42.743 6.72 55.734 13.218 12.3 6.153 25.019 12.516 48.557 12.516 1.963 0 4.385-.088 6.274-.223-2.457 10.23-2.319 19.02-1.788 30.055l-23.879 11.939c-17.286 8.644-17.344 33.368 0 42.04l37.064 18.535c1.829 6.173 3.757 12.249 5.732 18.256-33.225 34.944-79.296 47.667-127.693 47.667-41.342 0-83.05-9.44-115.313-36.089-.006-.005-.012-.008-.018-.013-.106-.087-.224-.162-.335-.243-11.465-9.527-21.421-20.892-29.547-33.849-2.201-3.509-6.83-4.569-10.339-2.369-3.509 2.201-4.57 6.83-2.369 10.339 7.171 11.433 15.645 21.729 25.213 30.784-7.541 5.068-18.707 13.735-29.881 26.664-17.632 20.403-38.65 55.772-38.65 108.404 0 4.142 3.357 7.5 7.5 7.5h386.59c20.287 0 36.792-16.505 36.792-36.792 0-12.6-5.19-24.005-13.538-32.207 2.982-24.297 10.919-47.717 19.309-72.44 3.956-11.655 7.952-23.44 11.558-35.611l37.064-18.532c17.315-8.659 17.309-33.387 0-42.042zm-484.016-75.007c0-17.09 13.904-30.993 30.993-30.993 1.854 0 3.682.161 5.477.48-11.644 37.844-14.331 44.668-16.751 59.38-11.628-4.545-19.719-15.895-19.719-28.867zm376.843-45.455c3.137-6.271 12.065-6.284 15.208 0l11.311 22.623c-6.177-1.588-12.86-2.384-18.915-2.384-6.302 0-13.063.879-18.915 2.384zm-85.257 149.086c-6.316-3.157-6.248-12.083 0-15.207l18.459-9.229c1.437 12.927 3.768 25.185 6.639 36.985-10.743-5.371-20.066-10.033-25.098-12.549zm-219.196 193.999h-58.498c1.43-35.12 12.989-65.565 34.417-90.594 8.712-10.176 17.499-17.486 24.081-22.238zm15.001-111.484c13.153 8.828 27.624 15.743 45.388 21.054v90.43h-45.389zm60.389 24.932c17.197 3.774 35.071 5.425 52.2 5.425 17.068 0 35.129-1.669 52.2-5.426v86.553h-104.4zm119.399-3.879c4.27-1.276 9.789-3.134 14.413-4.92h.001c10.85-4.193 21.235-9.569 30.975-16.118v111.47h-45.389zm60.39 90.43v-122.952c1.834-1.592 4.019-3.589 5.436-4.943 8.117 23.919 16.724 48.788 19.8 73.865-8.605 8.43-13.534 19.952-13.534 32.239 0 7.842 2.505 15.473 7.165 21.791zm65.262.001h-16.767c-12.056 0-21.792-9.824-21.792-21.792 0-16.535 13.445-30.175 30.175-30.175 16.521 0 30.175 13.452 30.175 30.175 0 12.016-9.776 21.792-21.791 21.792zm9.413-63.308c-5.465-2.352-11.481-3.66-17.798-3.66s-12.333 1.308-17.798 3.66c-3.717-23.147-11.418-45.786-18.958-68.002-11.312-33.336-21.211-63.434-23.67-99.272-.114-2.212-.565-7.621-.565-16.275 0-33.688 27.389-60.991 60.99-60.991 33.514 0 60.991 27.272 60.991 60.991 0 26.97-4.592 51.815-11.991 77.492-.005.017-.006.034-.011.051-3.757 13.03-8.026 25.617-12.246 38.053-7.809 23.012-15.246 44.926-18.944 67.953zm75.064-130.691-25.098 12.549c2.871-11.8 5.202-24.058 6.639-36.985l18.459 9.229c6.271 3.136 6.284 12.065 0 15.207z"/></g></g></svg>