<svg id="Capa_1" enable-background="new 0 0 512 512" height="512" viewBox="0 0 512 512" width="512" xmlns="http://www.w3.org/2000/svg"><g><g><path d="m375.431 54.036c-4.711-2.858-10.821-.717-12.717 4.457-4.776 13.033-17.435 33.084-49.292 25.975-38.888-8.678-33.409-46.107-27.549-65.833 1.787-6.014-3.248-11.911-9.462-11.05-68.433 9.476-88.121 65.726-88.121 65.726-13.528-27.619-41.406-34.111-56.571-35.545-5.18-.49-9.579 3.646-9.497 8.848.431 27.522-20.068 46.37-44.44 73.981-128.658 145.756-30.84 377.119 163.463 383.762 2.63.09 5.27.138 7.92.144 133.633.283 241.776-106.355 243.272-239.98.998-89.203-46.118-167.478-117.006-210.485z" fill="#f8d070"/><path d="m367.632 138.427c-.492-.023-.988-.035-1.486-.035-11.954 0-22.327 6.745-27.536 16.634-5.21-9.889-15.583-16.634-27.536-16.634-11.954 0-22.327 6.745-27.536 16.634-5.21-9.889-15.583-16.634-27.536-16.634-11.954 0-22.327 6.745-27.536 16.634-5.21-9.889-15.583-16.634-27.536-16.634-11.954 0-22.327 6.745-27.536 16.634-5.21-9.889-15.583-16.634-27.536-16.634-.498 0-.993.012-1.486.035-14.695.691-26.051 13.242-26.051 27.954v138.943c0 54.773 32.466 104.337 82.679 126.218 65.673 28.619 44.335 28.619 110.008 0 50.212-21.882 82.679-71.445 82.679-126.218v-138.943c-.004-14.712-11.36-27.263-26.055-27.954z" fill="#e8a882"/><path d="m165.228 263.283c0-47.24 18.147-90.236 47.839-122.418-3.731-1.585-7.83-2.473-12.14-2.473-11.954 0-22.327 6.746-27.536 16.634-5.21-9.889-15.583-16.634-27.536-16.634-.498 0-.993.012-1.486.035-14.695.691-26.051 13.242-26.051 27.954v138.943c0 54.773 32.466 104.337 82.679 126.219 60.821 26.505 47.024 28.458 96.819 5.87-76.435-21.026-132.588-91.015-132.588-174.13z" fill="#e3986d"/><path d="m301.977 210.682c-7.4 0-14.472 1.153-20.963 3.421-16.243 5.674-33.785 5.674-50.028 0-6.492-2.268-13.563-3.421-20.963-3.421-31.615 0-57.245 21.033-57.245 60.165 0 39.133 25.629 56.165 57.246 56.165 11.67-.001 21.444-7.806 32.545-10.286 8.605-1.923 18.176-1.941 26.864 0 11.101 2.48 20.875 10.286 32.545 10.286 31.616 0 57.246-17.033 57.246-56.165-.002-39.132-25.631-60.165-57.247-60.165z" fill="#f1c6ad"/><path d="m80.058 262.68c0-96.181 38.971-164.097 98.998-203.096-14.574-16.201-35.095-20.661-47.337-21.819-5.18-.49-9.579 3.646-9.497 8.848.431 27.522-20.068 46.37-44.44 73.981-128.658 145.756-30.84 377.12 163.463 383.762 2.63.09 5.27.138 7.92.144 11.133.024 22.085-.711 32.817-2.126-97.894-12.89-201.924-75.488-201.924-239.694z" fill="#f2c13b"/><path d="m165.228 263.283c0-12.526 1.277-24.753 3.705-36.561-9.993 10.138-16.155 24.953-16.155 44.125 0 21.773 7.941 36.696 20.426 45.659-5.182-16.825-7.976-34.697-7.976-53.223z" fill="#e8a882"/></g><g><path d="m34.683 190.703c-3.912-1.366-8.187.693-9.556 4.601-24.852 71.013-13.791 151.264 29.587 214.67 20.19 29.513 46.965 54.27 77.43 71.594 87.682 49.862 210.684 40.102 293.45-41.534 47.175-46.531 73.566-108.84 74.312-175.449.497-44.349-10.75-88.038-32.522-126.345-21.1-37.124-51.559-68.459-88.084-90.618-8.757-5.313-20.13-1.31-23.648 8.287-6.811 18.584-20.474 25.727-40.614 21.234-10.268-2.291-17.262-6.813-21.381-13.823-7.658-13.034-3.669-32.254-.61-42.551 3.337-11.234-6.057-22.217-17.679-20.614-37.621 5.21-61.174 24.016-74.308 38.876-6.032 6.825-10.472 13.444-13.604 18.861-16.229-20.73-40.62-26.233-55.034-27.596-9.6-.909-17.854 6.751-17.702 16.431.381 24.346-18.609 41.765-42.561 68.895-13.365 15.141-24.735 31.657-33.796 49.089-1.91 3.675-.479 8.203 3.196 10.113 3.675 1.911 8.203.479 10.113-3.196 8.498-16.35 19.175-31.854 31.733-46.081 24.69-27.976 46.796-48.183 46.313-79.057-.011-.735.557-1.332 1.292-1.263 13.773 1.302 38.653 7.109 50.538 31.375 2.906 5.936 11.577 5.453 13.806-.801.047-.131 4.83-13.303 17.365-27.311 16.618-18.571 38.388-29.835 64.706-33.479.81-.115 1.483.685 1.245 1.485-4.584 15.429-7.948 37.394 2.056 54.421 6.253 10.642 16.698 17.661 31.046 20.863 38.969 8.699 53.518-18.58 57.964-30.712.273-.747 1.108-1.035 1.785-.625 34.344 20.836 62.985 50.3 82.824 85.207 20.462 36.001 31.031 77.07 30.564 118.766-.702 62.627-25.507 121.203-69.847 164.938-44.217 43.613-102.924 67.613-165.377 67.61-.168 0-.347 0-.516 0-39.368-.09-76.45-9.578-109.611-28.435-28.496-16.204-53.554-39.381-72.466-67.025-40.694-59.484-51.09-134.717-27.807-201.246 1.368-3.909-.692-8.187-4.602-9.555z"/><path d="m371.977 364.391c-1.881 3.69-.414 8.206 3.276 10.087 3.689 1.881 8.205.414 10.087-3.276 10.35-20.308 15.822-43.095 15.822-65.899v-138.933c0-19.291-15.128-35.486-35.034-35.486-10.536 0-20.386 4.251-27.535 11.536-7.149-7.285-16.999-11.536-27.535-11.536s-20.385 4.25-27.535 11.536c-7.149-7.285-16.999-11.536-27.535-11.536s-20.385 4.25-27.535 11.536c-7.149-7.285-16.998-11.536-27.534-11.536s-20.386 4.251-27.535 11.536c-7.421-7.562-17.935-12.023-29.373-11.493-18.614.876-33.196 16.444-33.196 35.443v138.932c0 57.768 34.219 110.007 87.176 133.085 32.164 14.017 45.025 22.034 57.996 22.034 12.975 0 25.976-8.08 57.996-22.034 20.673-9.01 39.222-22.946 53.642-40.301 2.647-3.186 2.21-7.914-.976-10.561-3.185-2.646-7.913-2.21-10.561.976-12.929 15.562-29.561 28.058-48.097 36.137-31.435 13.698-42.995 20.838-52.004 20.838-9.01 0-20.561-7.137-52.005-20.838-47.486-20.694-78.169-67.535-78.169-119.335v-138.933c0-10.996 8.433-20.487 20.035-20.487 8.787 0 16.796 4.839 20.899 12.629 2.808 5.331 10.463 5.331 13.271 0 4.104-7.79 12.112-12.629 20.899-12.629s16.795 4.839 20.899 12.629c2.808 5.331 10.462 5.331 13.27 0 4.104-7.79 12.113-12.629 20.9-12.629s16.795 4.839 20.899 12.629c2.808 5.331 10.462 5.331 13.27 0 4.104-7.79 12.113-12.629 20.9-12.629s16.796 4.839 20.899 12.629c2.808 5.331 10.463 5.331 13.271 0 4.29-8.144 12.828-13.036 22.033-12.603 10.599.498 18.902 9.486 18.902 20.461v138.932c.003 20.448-4.903 40.88-14.183 59.089z"/><path d="m193.545 280.737c-4.142 0-7.499 3.358-7.499 7.499v11.999c0 4.142 3.358 7.499 7.499 7.499s7.499-3.358 7.499-7.499v-11.999c.001-4.141-3.357-7.499-7.499-7.499z"/><path d="m318.433 307.735c4.142 0 7.499-3.358 7.499-7.499v-11.999c0-4.142-3.358-7.499-7.499-7.499s-7.499 3.358-7.499 7.499v11.999c0 4.141 3.357 7.499 7.499 7.499z"/><path d="m277.379 337.221c-3.123-2.721-7.86-2.396-10.581.727-5.726 6.57-15.897 6.564-21.618 0-2.721-3.122-7.458-3.448-10.581-.727s-3.448 7.458-.727 10.581c11.704 13.432 32.542 13.416 44.234 0 2.721-3.123 2.396-7.86-.727-10.581z"/><path d="m366.703 270.829c0-40.47-26.017-67.661-64.74-67.661-8.257 0-16.142 1.292-23.435 3.84-14.746 5.15-30.333 5.15-45.078 0-7.293-2.548-15.179-3.84-23.435-3.84-38.723 0-64.74 27.191-64.74 67.661 0 39.267 24.807 63.66 64.741 63.66 13.656-.001 24.063-8.206 34.177-10.466 7.607-1.699 15.985-1.699 23.591 0 10.011 2.237 20.605 10.465 34.178 10.466 39.934.001 64.741-24.392 64.741-63.66zm-110.713 36.929c-23.911 0-33.458 11.733-45.973 11.733-14.956 0-49.742-4.742-49.742-48.661 0-31.991 19.524-52.662 49.741-52.662 6.568 0 12.789 1.01 18.489 3.001 17.724 6.191 37.246 6.191 54.971 0 5.7-1.991 11.92-3.001 18.488-3.001 30.217 0 49.741 20.671 49.741 52.662 0 43.92-34.786 48.661-49.741 48.661-12.648 0-21.868-11.733-45.974-11.733z"/></g></g></svg>