<svg id="Capa_1" enable-background="new 0 0 512 512" height="512" viewBox="0 0 512 512" width="512" xmlns="http://www.w3.org/2000/svg"><g><g><path d="m52.622 274.163v185.09h406.756v-185.09l-16.809-11.049-186.569-79.69-197.982 79.69z" fill="#fb8978"/><path d="m301.422 19.517c-28.177-16.022-62.666-16.022-90.843 0-44.77 25.457-114.194 82.468-168.699 206.054l6.158 37.543 207.962-79.69 196.55 79.69 17.57-37.543c-54.505-123.586-123.929-180.597-168.698-206.054z" fill="#80dfb5"/><path d="m281.048 10.992c-23.395-6.632-48.798-3.798-70.469 8.525-44.77 25.457-114.194 82.467-168.699 206.054l6.158 37.543 47.126-18.058c13.593-108.008 86.938-197.406 185.884-234.064z" fill="#36d39a"/><g><g><g><ellipse cx="173.172" cy="118.115" fill="#ffefe0" rx="30.562" ry="24.338"/></g><g><ellipse cx="338.827" cy="118.115" fill="#ffefe0" rx="30.562" ry="24.338"/></g></g></g><path d="m279.524 267.645 23.524 75.843-23.524 85.823h-47.049l-23.524-85.823 23.524-75.843c7.356-2.605 15.28-4.022 23.524-4.022 8.245 0 16.17 1.417 23.525 4.022z" fill="#e8a882"/><path d="m326.573 334.196v95.115h-47.049v-161.666c27.407 9.681 47.049 35.83 47.049 66.551z" fill="#f1c6ad"/><path d="m232.476 267.645v161.666h-47.049v-95.115c0-30.721 19.642-56.87 47.049-66.551z" fill="#f1c6ad"/><path d="m92.888 281.421c0-11.199.661-22.242 1.904-33.108l-36.773 14.801-5.396 11.049v185.09h101.63c-38.442-48.989-61.365-110.733-61.365-177.832z" fill="#f67561"/><g><path d="m469.747 294.126c-.13 0-.258-.001-.388-.002-57.798-.643-95.772-24.041-129.275-44.685-28.672-17.667-51.318-31.622-84.084-31.622s-55.413 13.955-84.085 31.622c-33.502 20.644-71.476 44.042-129.274 44.685-.129.001-.259.002-.388.002-18.754 0-34.06-15.096-34.269-33.898-.21-18.93 14.965-34.447 33.896-34.657 38.784-.431 64.404-16.218 94.071-34.498 31.807-19.599 67.858-41.813 120.05-41.813s88.243 22.214 120.049 41.813c29.667 18.28 55.288 34.067 94.071 34.498 18.931.21 34.106 15.727 33.896 34.657-.21 18.8-15.517 33.897-34.27 33.898z" fill="#e8a882"/></g><path d="m7.982 419.331h496.036v85.169h-496.036z" fill="#80dfb5"/><path d="m127.955 419.331h-119.973v85.169h190.574c-28.664-23.496-52.72-52.404-70.601-85.169z" fill="#36d39a"/><path d="m92.888 281.421c0-24.376 3.039-48.041 8.734-70.649-17.637 8.652-36.28 14.538-59.742 14.799-18.93.21-34.106 15.727-33.896 34.657.209 18.802 15.515 33.898 34.269 33.898.129 0 .259-.001.388-.002 18.673-.208 35.267-2.8 50.32-6.898-.038-1.932-.073-3.864-.073-5.805z" fill="#e3986d"/></g><g><path d="m198.475 94.627v-12.495c0-4.143-3.358-7.501-7.501-7.501s-7.501 3.358-7.501 7.501v12.495c0 4.143 3.358 7.501 7.501 7.501s7.501-3.358 7.501-7.501z"/><path d="m328.527 94.627v-12.495c0-4.143-3.358-7.501-7.501-7.501s-7.501 3.358-7.501 7.501v12.495c0 4.143 3.358 7.501 7.501 7.501 4.142 0 7.501-3.358 7.501-7.501z"/><path d="m256 109.566c8.739 0 17.049-3.785 22.799-10.383 2.722-3.123 2.396-7.861-.727-10.583-3.123-2.721-7.861-2.397-10.583.727-2.9 3.328-7.088 5.237-11.489 5.237s-8.588-1.909-11.488-5.237c-2.723-3.124-7.46-3.449-10.583-.727-3.124 2.722-3.449 7.46-.727 10.583 5.749 6.598 14.059 10.383 22.798 10.383z"/><path d="m7.946 512h496.108c4.143 0 7.501-3.358 7.501-7.501v-85.181c0-4.143-3.358-7.501-7.501-7.501h-37.146v-110.273c.808.018 2.152.04 2.87.051 22.781 0 41.521-18.537 41.775-41.32.239-21.538-15.763-39.244-36.377-41.892-54.126-120.565-122.207-178.259-170.04-205.457-30.308-17.235-67.963-17.233-98.272 0-27.53 15.655-53.971 36.987-78.588 63.403-2.824 3.031-2.657 7.777.374 10.602 3.031 2.824 7.777 2.657 10.602-.374 23.58-25.303 48.822-45.688 75.029-60.59 25.734-14.633 57.707-14.632 83.441 0 44.932 25.55 108.602 79.392 160.49 191.361-30.157-3.185-52.297-16.719-78.21-32.688-40.249-24.802-74.039-42.934-124.001-42.934-50.103 0-84.524 18.608-124.004 42.935-25.871 15.943-47.997 29.485-78.204 32.686 19.083-41.141 41.298-77.571 66.133-108.433 2.598-3.228 2.087-7.949-1.141-10.546-3.228-2.598-7.95-2.086-10.546 1.141-27.072 33.641-51.073 73.633-71.398 118.893-20.577 2.636-36.631 20.312-36.39 41.894.253 22.784 18.993 41.32 41.774 41.32 3.204-.063 2.841-.057 2.87-.058v110.279h-37.149c-4.143 0-7.501 3.358-7.501 7.501v85.181c0 4.143 3.358 7.501 7.501 7.501zm52.148-211.295c45.571-4.146 77.04-21.067 115.744-44.918 28.746-17.713 49.516-30.512 80.162-30.512 45.412 0 70.171 28.72 120.497 53.561 3.492 1.723 7.654.477 9.668-2.729.001-.002.003-.004.004-.006 2.38-3.792.938-8.764-3.03-10.722-48.096-23.735-76.58-55.106-127.139-55.106-34.897 0-59.52 15.173-88.032 32.742-42.187 26.004-75.784 43.025-125.414 43.577l-.332.001c-14.6 0-26.61-11.881-26.773-26.485-.165-14.801 11.679-26.914 26.483-27.078 39.221-.436 64.504-15.018 97.936-35.618 30.963-19.079 66.057-40.704 116.132-40.704s85.169 21.625 116.134 40.706c32.352 19.934 57.872 35.171 97.934 35.616 14.801.164 26.648 12.275 26.483 27.078-.163 14.603-12.173 26.484-26.773 26.485-42.859-1-58.191-10.856-63.407-10.759-3.417.063-6.472 2.464-7.201 5.974-.758 3.643 1.286 7.367 4.896 8.611 15.131 5.211 30.987 8.744 47.84 10.288v111.109h-117.822v-77.646c0-33.04-20.916-62.628-52.049-73.63-.001 0-.002-.001-.004-.001-.002-.001-.004-.001-.005-.002s0 0 0 0c-8.341-2.953-17.097-4.451-26.026-4.451-8.927 0-17.682 1.497-26.022 4.45-.001 0-.003.001-.004.001s-.003.001-.004.001h-.001s0 0-.001 0c-31.134 11.001-52.051 40.59-52.051 73.631v77.646h-117.823zm179.879 111.112v-138.674c10.405-2.73 21.649-2.73 32.053 0v138.674zm-47.055 0v-77.647c0-22.981 12.522-43.894 32.053-54.938v132.584h-32.053zm94.111-132.584c19.531 11.044 32.053 31.956 32.053 54.938v77.646h-32.053zm-271.582 147.586h481.106v70.179h-481.106z"/></g></g></svg>