<svg id="Capa_1" enable-background="new 0 0 512 512" height="512" viewBox="0 0 512 512" width="512" xmlns="http://www.w3.org/2000/svg"><g><g><path d="m256 7.5c-105.339 0-190.732 85.394-190.732 190.732v115.536c0 105.338 85.393 190.732 190.732 190.732 105.338 0 190.732-85.394 190.732-190.732v-115.536c0-105.338-85.393-190.732-190.732-190.732z" fill="#78cbec"/><path d="m106.927 187.829c0-51.7 12.931-100.374 35.712-142.99-46.937 34.745-77.371 90.512-77.371 153.393v115.536c0 105.338 85.394 190.732 190.732 190.732 31.084 0 60.428-7.441 86.356-20.63-134.856-31.001-235.429-151.775-235.429-296.041z" fill="#59c2e7"/><path d="m320.775 441.612c-5.357 0-10.395-2.087-14.185-5.876l-50.59-50.591-50.59 50.59c-3.79 3.79-8.828 5.877-14.185 5.877s-10.395-2.087-14.185-5.876c-7.821-7.822-7.821-20.549 0-28.37l50.591-50.591-50.591-50.591c-7.821-7.821-7.821-20.548 0-28.369l50.591-50.591-50.591-50.591c-7.821-7.821-7.821-20.549 0-28.37 3.789-3.789 8.827-5.876 14.186-5.876s10.396 2.087 14.185 5.876l50.59 50.59 50.59-50.59c3.789-3.789 8.827-5.875 14.185-5.875s10.396 2.086 14.185 5.874c3.789 3.789 5.876 8.827 5.876 14.187 0 5.358-2.087 10.396-5.876 14.186l-50.59 50.59 50.59 50.591c3.789 3.789 5.876 8.826 5.876 14.185s-2.087 10.396-5.876 14.186l-50.59 50.59 50.591 50.591c3.789 3.788 5.876 8.826 5.876 14.185s-2.087 10.396-5.876 14.186c-3.792 3.786-8.829 5.873-14.187 5.873zm-64.775-113.207 36.405-36.405-36.405-36.405-36.405 36.405z" fill="#fbe29f"/><g fill="#ffefe0"><ellipse cx="171.592" cy="100.226" rx="31.145" ry="24.802"/><ellipse cx="340.408" cy="100.226" rx="31.145" ry="24.802"/></g><path d="m188.97 395.435-11.931 11.931c-7.821 7.821-7.821 20.548 0 28.37 3.79 3.789 8.828 5.876 14.185 5.876s10.395-2.087 14.185-5.877l12.862-12.862c-10.363-8.494-20.147-17.667-29.301-27.438z" fill="#f8d070"/></g><g><path d="m117.445 78.326c2.712-3.131 2.373-7.868-.758-10.58s-7.868-2.372-10.58.758c-31.172 35.988-48.339 82.059-48.339 129.728v115.536c0 109.306 88.927 198.232 198.232 198.232 44.675 0 86.855-14.513 121.98-41.969 3.263-2.551 3.841-7.265 1.29-10.528-2.55-3.263-7.262-3.841-10.528-1.29-32.461 25.374-71.447 38.787-112.742 38.787-101.035 0-183.232-82.197-183.232-183.232v-115.536c0-44.062 15.867-86.646 44.677-119.906z"/><path d="m389.992 438.729c-2.826 3.029-2.661 7.775.367 10.601 3.043 2.838 7.787 2.647 10.601-.367 34.353-36.819 53.272-84.832 53.272-135.194v-115.537c0-109.306-88.926-198.232-198.232-198.232-46.686 0-92.036 16.556-127.694 46.619-3.167 2.669-3.569 7.401-.899 10.568 2.669 3.166 7.401 3.57 10.568.899 32.957-27.784 74.872-43.086 118.025-43.086 101.035 0 183.232 82.197 183.232 183.232v115.536c0 46.55-17.487 90.929-49.24 124.961z"/><path d="m250.697 250.292-36.405 36.405c-2.929 2.929-2.929 7.678 0 10.606l36.405 36.405c2.929 2.929 7.678 2.929 10.606 0l36.405-36.405c2.929-2.929 2.929-7.678 0-10.606l-36.405-36.405c-2.928-2.929-7.677-2.929-10.606 0zm5.303 67.507-25.799-25.799 25.799-25.799 25.799 25.799z"/><path d="m340.263 142.959c-10.747-10.745-28.231-10.743-38.976.001l-45.287 45.287-45.287-45.287c-10.747-10.747-28.231-10.746-38.977 0s-10.746 28.231 0 38.977l45.288 45.288-45.288 45.288c-10.745 10.746-10.745 28.23 0 38.976l45.288 45.288-45.288 45.288c-10.745 10.746-10.745 28.23.001 38.977 10.746 10.743 28.23 10.744 38.976-.001l45.287-45.289 45.288 45.288c10.747 10.745 28.231 10.743 38.976-.001 10.774-10.775 10.781-28.199 0-38.976l-45.288-45.288 45.288-45.287c10.745-10.746 10.745-28.231 0-38.976l-45.287-45.288 45.286-45.286c10.777-10.776 10.781-28.2 0-38.979zm-10.606 28.373-50.59 50.59c-2.929 2.929-2.929 7.678 0 10.606l50.59 50.591c4.897 4.897 4.896 12.866 0 17.764l-50.59 50.59c-2.927 2.926-2.929 7.678 0 10.606l50.592 50.592c4.913 4.911 4.915 12.846-.001 17.762-4.898 4.897-12.867 4.896-17.764 0l-50.59-50.59c-2.929-2.93-7.678-2.929-10.606 0l-50.59 50.59c-4.897 4.897-12.866 4.897-17.763.001-4.897-4.897-4.897-12.867-.001-17.764l50.591-50.591c2.929-2.929 2.929-7.678 0-10.606l-50.59-50.591c-4.897-4.897-4.897-12.866 0-17.763l50.591-50.591c2.929-2.929 2.929-7.678 0-10.606l-50.591-50.591c-4.897-4.897-4.897-12.866 0-17.764 4.898-4.897 12.866-4.898 17.764 0l50.59 50.59c2.929 2.929 7.678 2.929 10.606 0l50.59-50.59c4.896-4.896 12.865-4.898 17.764 0 4.913 4.913 4.915 12.848-.002 17.765z"/><path d="m197.243 76.351v-12.732c0-4.142-3.358-7.5-7.5-7.5s-7.5 3.358-7.5 7.5v12.732c0 4.142 3.358 7.5 7.5 7.5s7.5-3.358 7.5-7.5z"/><path d="m329.758 76.351v-12.732c0-4.142-3.358-7.5-7.5-7.5s-7.5 3.358-7.5 7.5v12.732c0 4.142 3.358 7.5 7.5 7.5s7.5-3.358 7.5-7.5z"/><path d="m256 91.43c8.863 0 17.291-3.838 23.123-10.531 2.721-3.123 2.396-7.86-.727-10.582-3.124-2.722-7.861-2.396-10.582.727-2.982 3.423-7.289 5.386-11.814 5.386s-8.831-1.963-11.814-5.386c-2.722-3.124-7.459-3.448-10.582-.727-3.123 2.722-3.448 7.459-.727 10.582 5.833 6.693 14.261 10.531 23.123 10.531z"/></g></g></svg>