<svg id="Capa_1" enable-background="new 0 0 512 512" height="512" viewBox="0 0 512 512" width="512" xmlns="http://www.w3.org/2000/svg"><g><g><path d="m200.321 334.793v56.566l-56.106 28.287-56.104-28.287v-56.566l56.105-28.288z" fill="#fb8978"/><path d="m200.321 447.934v32.325c0 13.383-10.858 24.241-24.251 24.241h-63.708c-13.393 0-24.251-10.858-24.251-24.241v-32.325l56.104-28.288z" fill="#fb8978"/><path d="m159.884 7.5h-31.339c-12.674 0-22.948 11.293-22.948 25.224v272.356h77.234v-272.356c.001-13.931-10.273-25.224-22.947-25.224z" fill="#e8a882"/><path d="m105.598 112.724h77.234v67.026h-77.234z" fill="#e3986d"/><path d="m383.268 53.467h-3.513-274.157c-15.439 0-27.954 12.516-27.954 27.954v40.374c0 15.439 12.516 27.954 27.954 27.954h85.948c55.915 0 99.098 49.123 91.946 104.577l-2.915 22.598 37.982 10.636 52.071-58.137 39.432-132.957z" fill="#b2b0bc"/><path d="m434.152 77.605c-.515-13.483-11.62-24.138-25.112-24.138h-29.285c1.773 11.369 2.685 23.019 2.685 34.879 0 78.883-40.509 148.291-101.862 188.579l-3.934 30.482c-1.854 14.37 13.798 24.579 26.119 16.954 78.984-48.881 131.595-136.305 131.595-236.015-.001-3.597-.07-7.177-.206-10.741z" fill="#c7c5cb"/><path d="m124.215 339.714c0-8.031.44-15.958 1.275-23.767l-37.379 18.846v56.566l49.812 25.115c-8.86-23.911-13.708-49.768-13.708-76.76z" fill="#f67561"/><path d="m200.321 302.468v32.325h-112.21v-32.325c0-13.393 10.858-24.251 24.251-24.251h63.708c13.392 0 24.251 10.859 24.251 24.251z" fill="#ff9e8e"/><path d="m139.972 421.786-51.861 26.149v32.325c0 13.383 10.858 24.241 24.251 24.241h63.708c5.991 0 11.472-2.178 15.703-5.778-22.302-21.519-40.088-47.682-51.801-76.937z" fill="#f67561"/><path d="m88.111 391.359h112.21v56.576h-112.21z" fill="#ff9e8e"/><g fill="#fb8978"><path d="m130.299 391.359h-42.188v56.576h64.395c-9.862-17.518-17.402-36.514-22.207-56.576z"/><path d="m132.897 278.217h-20.535c-13.393 0-24.251 10.858-24.251 24.251v32.325h36.166c.428-19.594 3.409-38.558 8.62-56.576z"/></g></g><g><path d="m166.459 93.889v13.214c0 4.142 3.358 7.5 7.5 7.5s7.5-3.358 7.5-7.5v-13.214c0-4.142-3.358-7.5-7.5-7.5s-7.5 3.358-7.5 7.5z"/><path d="m303.991 93.889v13.214c0 4.142 3.358 7.5 7.5 7.5s7.5-3.358 7.5-7.5v-13.214c0-4.142-3.358-7.5-7.5-7.5s-7.5 3.358-7.5 7.5z"/><path d="m255.201 101.782c-3.15 3.614-7.698 5.687-12.477 5.687s-9.326-2.073-12.475-5.687c-2.721-3.124-7.459-3.448-10.582-.727s-3.448 7.459-.727 10.582c5.999 6.884 14.667 10.832 23.784 10.832 9.116 0 17.785-3.948 23.784-10.832 2.722-3.123 2.396-7.86-.726-10.582-3.121-2.721-7.859-2.397-10.581.727z"/><path d="m159.883 0h-31.339c-16.789 0-30.448 14.68-30.448 32.724v14.048c-15.959 3.452-27.955 17.672-27.955 34.649v40.374c0 16.977 11.996 31.197 27.955 34.649v117.671c-10.361 5.234-17.486 15.974-17.486 28.353v177.791c0 17.502 14.244 31.741 31.751 31.741h63.708c17.507 0 31.751-14.239 31.751-31.741 0-21.966 0-159.687 0-177.791 0-12.38-7.127-23.12-17.489-28.354v-116.864h1.214c24.492 0 47.813 10.548 63.986 28.94 16.175 18.396 23.655 42.88 20.521 67.177-4.67 36.197.999-7.732-6.849 53.08-2.667 20.664 19.842 35.221 37.504 24.291 19.046-11.787 36.724-25.849 52.541-41.796 2.917-2.941 2.898-7.69-.043-10.606-2.94-2.917-7.689-2.898-10.606.043-14.989 15.112-31.739 28.437-49.785 39.604-6.926 4.284-15.788-1.446-14.733-9.616l3.497-27.098c47.17-31.952 82.359-80.851 96.135-139.234.951-4.031-1.546-8.071-5.578-9.022-4.022-.947-8.069 1.539-9.022 5.578-11.519 48.677-39.103 91.566-78.9 122.254l.717-5.559c3.685-28.573-5.111-57.368-24.134-79.001-19.02-21.63-46.447-34.035-75.251-34.035h-8.714-77.234c-11.279 0-20.455-9.176-20.455-20.455v-40.374c0-11.279 9.176-20.455 20.455-20.455h267.628c2.038 16.233 2.255 32.76.647 49.051-.407 4.122 2.605 7.794 6.727 8.201 4.132.402 7.794-2.605 8.201-6.727 1.606-16.272 1.558-33.425-.454-50.525h20.694c9.517 0 17.255 7.434 17.618 16.924 1.3 33.924-3.659 68.229-15.447 101.236-10.035 28.098-24.613 54.214-43.331 77.622-2.587 3.235-2.062 7.955 1.173 10.542 3.22 2.576 7.943 2.076 10.542-1.173 19.758-24.709 35.148-52.279 45.743-81.945 12.445-34.849 17.679-71.034 16.31-106.854-.671-17.58-14.994-31.352-32.607-31.352-8.753 0-210.947 0-218.708 0v-13.242c-.002-18.044-13.66-32.724-30.45-32.724zm-64.273 398.858h97.209v41.576h-97.209zm97.21-15h-97.21v-41.565h97.209v41.565zm0 96.401c0 9.231-7.515 16.741-16.751 16.741h-63.708c-9.236 0-16.751-7.51-16.751-16.741v-24.825h97.209v24.825zm0-152.966h-97.21v-24.825c0-9.228 7.519-16.751 16.751-16.751h63.708c9.208 0 16.751 7.496 16.751 16.751zm-17.489-170.043v113.467h-62.234v-113.467zm-62.234-111.283v-13.243c0-9.773 6.93-17.724 15.448-17.724h31.339c8.518 0 15.448 7.951 15.448 17.724v13.243z"/></g></g></svg>