<svg id="Capa_1" enable-background="new 0 0 512 512" height="512" viewBox="0 0 512 512" width="512" xmlns="http://www.w3.org/2000/svg"><g><g><g><path d="m382.913 425.532c-9.007 0-17.758-4.714-22.517-13.11-7.042-12.423-2.68-28.202 9.743-35.244 60.714-34.416 77.58-95.605 82.078-132.447h-95.435c-14.279 0-25.856-11.576-25.856-25.856s11.576-25.856 25.856-25.856h100.926c13.174 0 25.807 5.594 34.661 15.347 8.84 9.739 13.183 22.829 11.915 35.913-2.05 21.144-7.796 53.238-23.533 86.062-19.035 39.707-47.671 70.6-85.11 91.824-4.028 2.283-8.408 3.367-12.728 3.367z" fill="#c7c5cb"/></g><path d="m139.481 141.853 30.574 173.505-74.035 187.76h-6.23c-43.642 0-77.472-38.144-72.265-81.465l31.733-263.778z" fill="#e8a882"/><path d="m343.425 503.118h-123.703l-49.667-187.761 49.667-187.761s39.408 7.966 80.412 15.731l61.178 172.03z" fill="#e8a882"/><g fill="#b2b0bc"><path d="m370.139 377.178c-12.423 7.042-16.784 22.821-9.743 35.244 4.76 8.396 13.51 13.11 22.517 13.11 4.32 0 8.7-1.084 12.727-3.367 19.687-11.16 36.914-25.021 51.617-41.404l-9.664-80.329c-11.867 27.943-32.317 56.828-67.454 76.746z"/><path d="m430.892 244.731-6.221-51.712h-67.89c-14.28 0-25.856 11.576-25.856 25.856s11.576 25.856 25.856 25.856z"/></g><g fill="#e3986d"><path d="m191.293 395.643 16.954 64.096h139.31l6.106-64.096z"/><path d="m186.11 254.665-16.055 60.692.901 3.404h190.032l.324-3.404-21.584-60.692z"/><path d="m349.695 503.118h-6.27l-43.291-359.791c41.445 7.866 84.525 15.531 90.093 14.547l31.733 263.778c5.207 43.322-28.623 81.466-72.265 81.466z"/><path d="m219.722 127.596v375.522h-123.702l43.461-361.265z"/><path d="m37.613 254.665-7.696 63.976c.95.071 1.903.12 2.863.12h135.934l1.342-3.404-10.695-60.693h-121.748z"/></g><path d="m125.909 254.665-7.711 64.096h101.524v-64.096z" fill="#de8957"/><path d="m313.53 254.665 7.712 64.096h85.461c.96 0 1.914-.049 2.865-.121l-7.696-63.976h-88.342z" fill="#de8957"/><path d="m406.703 288.761h-373.923c-4.982 0-8.843-4.354-8.249-9.3l6.199-51.575c.502-4.175 4.044-7.317 8.249-7.317h361.517c4.205 0 7.746 3.141 8.249 7.316l6.207 51.575c.595 4.946-3.267 9.301-8.249 9.301z" fill="#c7c5cb"/><path d="m20.653 395.643-3.129 26.01c-1.627 13.536.557 26.567 5.661 38.086h89.939l25.274-64.096z" fill="#e3986d"/><path d="m108.949 395.643-7.711 64.096h118.484v-64.096z" fill="#de8957"/><path d="m418.831 395.643h-88.338l7.712 64.096h78.094c5.104-11.52 7.288-24.55 5.661-38.086z" fill="#de8957"/><path d="m423.672 429.739h-407.85c-4.94 0-8.859-4.293-8.262-9.197.004-.031.008-.062.011-.093l6.203-51.585c.502-4.175 4.044-7.316 8.249-7.316h395.438c4.204 0 7.746 3.141 8.249 7.315l6.212 51.587c.004.036.009.072.013.107.581 4.9-3.328 9.182-8.263 9.182z" fill="#c7c5cb"/><path d="m379.149 159.82c20.622 0 35.927-19.236 31.165-39.301-7.789-32.817-36.553-58.871-73.288-60.269l-.143-.005c-17.49-47.647-74.987-66.327-117.141-38.057l-.023.015-.023-.015c-42.154-28.27-99.651-9.59-117.141 38.057l-.143.005c-36.734 1.398-65.499 27.452-73.288 60.269-4.762 20.065 10.542 39.301 31.165 39.301z" fill="#fbe5c8"/><path d="m99.986 152.745c0-58.388 27.514-110.345 70.279-143.63-29.261 2.233-56.582 20.816-67.71 51.129l-.143.005c-36.734 1.398-65.499 27.452-73.288 60.269-4.762 20.065 10.542 39.301 31.165 39.301h39.846c-.089-2.348-.149-4.704-.149-7.074z" fill="#fbdab2"/><g><g><g><ellipse cx="128.774" cy="110.076" fill="#ffb2c1" rx="33.557" ry="26.723"/></g><g><ellipse cx="310.665" cy="110.076" fill="#ffb2c1" rx="33.557" ry="26.723"/></g></g></g><path d="m81.492 220.569h-42.513c-4.205 0-7.747 3.142-8.249 7.317l-6.199 51.575c-.594 4.946 3.267 9.3 8.249 9.3h55.972c-4.566-22.043-7.055-44.845-7.26-68.192z" fill="#b2b0bc"/><path d="m112.441 361.547h-90.417c-4.205 0-7.747 3.142-8.249 7.316l-6.203 51.585c-.004.031-.008.062-.011.093-.597 4.904 3.322 9.197 8.262 9.197h137.42c-16.051-20.987-29.78-43.845-40.802-68.191z" fill="#b2b0bc"/></g><g><path d="m155.828 84.36v-13.718c0-4.142-3.358-7.5-7.5-7.5s-7.5 3.358-7.5 7.5v13.718c0 4.142 3.358 7.5 7.5 7.5s7.5-3.358 7.5-7.5z"/><path d="m298.605 84.36v-13.718c0-4.142-3.358-7.5-7.5-7.5s-7.5 3.358-7.5 7.5v13.718c0 4.142 3.358 7.5 7.5 7.5s7.5-3.358 7.5-7.5z"/><path d="m219.717 100.026c9.381 0 18.301-4.063 24.475-11.146 2.721-3.123 2.396-7.86-.726-10.581-3.123-2.722-7.86-2.395-10.582.726-3.324 3.814-8.123 6.002-13.167 6.002s-9.843-2.187-13.167-6.002c-2.721-3.123-7.459-3.448-10.582-.726-3.123 2.721-3.448 7.459-.726 10.581 6.173 7.083 15.094 11.146 24.475 11.146z"/><path d="m457.702 185.527h-56.6l-2.783-23.134c14.919-8.279 23.519-25.768 19.287-43.598-8.511-35.861-39.196-62.294-75.519-65.716-9.783-22.621-28.575-39.778-52.212-47.457-23.656-7.685-48.961-4.84-70.16 7.723-21.214-12.564-46.51-15.405-70.158-7.723-23.636 7.679-42.426 24.833-52.209 47.451-11.346 1.046-22.157 4.27-32.2 9.608-3.658 1.944-5.046 6.485-3.102 10.143s6.485 5.047 10.143 3.103c9.43-5.013 19.694-7.763 30.504-8.175l.144-.005c3.04-.114 5.711-2.054 6.759-4.91 7.538-20.535 23.793-36.19 44.598-42.948 20.804-6.759 43.157-3.648 61.333 8.542 2.529 1.704 5.86 1.692 8.392-.006 18.168-12.184 40.519-15.295 61.324-8.537 20.805 6.759 37.061 22.413 44.599 42.949 1.048 2.856 3.718 4.796 6.758 4.91l.14.005c31.692 1.207 58.945 23.62 66.275 54.506 3.641 15.34-8.068 30.069-23.867 30.069-26.074 0-216.002 0-241.828 0h-77.032c-15.765 0-27.515-14.699-23.867-30.069 2.697-11.364 8.268-22.033 16.113-30.854 2.753-3.095 2.475-7.836-.62-10.588-3.096-2.753-7.836-2.476-10.589.621-9.488 10.67-16.231 23.588-19.499 37.358-4.194 17.677 4.23 35.265 19.33 43.62l-6.157 51.181c-6.156 1.603-10.926 6.827-11.716 13.401l-6.199 51.574c-.746 6.203 2.234 12.566 8.2 15.783l-7.245 60.22c-6.153 1.605-10.921 6.827-11.712 13.399l-6.199 51.55c-.001.008-.013.109-.014.117-.827 6.79 2.891 13.553 9.59 16.358 2.783 40.865 36.836 74.624 80.083 74.624h259.904c43.242 0 77.297-33.739 80.083-74.621 6.631-2.772 10.416-9.479 9.605-16.323 0-.005-.014-.117-.014-.122l-2.178-18.09c15.605-14.059 29.107-30.522 40.167-48.992 2.128-3.553.972-8.159-2.582-10.288s-8.16-.972-10.288 2.582c-8.398 14.024-18.3 26.799-29.535 38.12-.012-.1-1.581-13.131-1.797-14.919-.77-6.405-5.443-11.775-11.714-13.41l-1.23-10.224c26.645-33.225 36.171-71.844 39.448-98.691.545-4.466-2.944-8.409-7.445-8.409h-34.792l-1.233-10.243c0-.003-.001-.006-.001-.01-.774-6.382-5.415-11.751-11.707-13.4-.132-1.098-1.379-11.464-1.571-13.059h54.795c23.183 0 41.343 20.003 39.111 43.035-1.735 17.888-6.357 45.243-18.526 73.987-1.615 3.814.168 8.215 3.983 9.831 3.815 1.614 8.216-.168 9.831-3.983 12.909-30.491 17.807-59.457 19.642-78.387 3.086-31.835-22.006-59.479-54.041-59.479zm-336.196 168.527c.806-6.7 6.232-51.807 6.952-57.787h83.762v57.787zm-81.344-57.786h73.187c-.871 7.241-6.177 51.351-6.952 57.787h-73.187zm187.057 0h83.758c.756 6.282 5.952 49.469 6.953 57.787h-90.711zm105.819 57.786c-.756-6.282-5.952-49.469-6.953-57.787h73.232l6.952 57.787zm46.107-186.726c1.458 0 3.059-.083 4.628-.267 1.103 9.166 4.551 37.832 5.536 46.015h-73.233c-1.544-12.829-3.816-31.718-5.505-45.748zm-151.926 0h68.244c1.544 12.829 3.816 31.718 5.505 45.748h-73.748v-45.748zm-14.999 45.748h-73.754c.506-4.204 4.954-41.18 5.504-45.748h68.25zm-151.932-45.748h68.573c-.505 4.196-4.947 41.126-5.503 45.748h-73.188l5.535-46.01c.927.064 2.175.262 4.583.262zm-22.113 61.461c.049-.406.394-.712.802-.712h361.514c.409 0 .753.306.802.712 1.206 10.025 4.932 40.985 6.207 51.575.058.485-.316.905-.802.905-58.291 0-326.854 0-373.189 0-.567-.044-.974.137-1.336-.272-.16-.18-.227-.393-.198-.633zm-23.174 192.69c.001-.012.015-.116.016-.128l6.203-51.585c.049-.406.394-.712.803-.712h395.435c.409 0 .753.306.802.711 1.138 9.451 5.03 41.765 6.224 51.679.048.419-.353.801-.816.801-149.864 0-264.364 0-407.847 0-.507.001-.86-.426-.82-.766zm197.219 74.145h-107.746c2.485-20.657 4.564-37.936 7.023-58.378h100.723zm-187.379-58.378h71.548l-7.023 58.377c-34.442-.216-61.246-26.68-64.525-58.377zm202.378 58.378v-58.378h100.721c1.655 13.759 5.211 43.306 7.024 58.378zm122.853-.001-7.024-58.377h71.59c-3.292 31.82-30.203 58.182-64.566 58.377zm93.5-243.384c-3.325 20.483-10.562 46.187-26.008 70.123l-3.369-28.006c5.944-3.205 8.948-9.558 8.198-15.784l-3.169-26.332h24.348z"/></g></g></svg>