<svg id="Capa_1" enable-background="new 0 0 512 512" height="512" viewBox="0 0 512 512" width="512" xmlns="http://www.w3.org/2000/svg"><g><g><g fill="#5c586f"><path d="m413.44 353.53c-5.02 13.53-12.95 25.94-23.46 36.45s-22.92 18.44-36.45 23.46c-4.07-3.45-8-7.06-11.78-10.84l-52.72-52.72 60.85-60.85 52.72 52.72c3.78 3.78 7.39 7.71 10.84 11.78z"/><path d="m129.09 256-36.87 36.87v-73.74z"/><path d="m222.97 349.88-52.72 52.72c-3.76 3.77-7.68 7.37-11.74 10.81h-.01c-27.62-10.3-49.61-32.29-59.91-59.91v-.01c3.44-4.06 7.04-7.98 10.81-11.74l52.72-52.72z"/><path d="m419.78 219.13v73.74l-36.87-36.87z"/><path d="m413.41 158.5v.01c-3.44 4.06-7.04 7.98-10.81 11.74l-52.72 52.72-60.85-60.85 52.72-52.72c3.76-3.77 7.68-7.37 11.74-10.81h.01c27.62 10.3 49.61 32.29 59.91 59.91z"/><path d="m292.87 92.22-36.87 36.87-36.87-36.87z"/><path d="m222.97 162.12-60.85 60.85-52.72-52.72c-3.78-3.78-7.39-7.71-10.84-11.78 5.02-13.53 12.95-25.94 23.46-36.45s22.92-18.44 36.45-23.46c4.07 3.45 8 7.06 11.78 10.84z"/><path d="m212.973 212.973h86.055v86.055h-86.055z" transform="matrix(.707 -.707 .707 .707 -106.039 256)"/></g><path d="m109.4 170.25 52.72 52.72-33.03 33.03-52.72-52.72c-10.66-10.66-20.26-22.31-28.68-34.73-21.06-30.99-34.85-66.79-39.75-104.09-2.06-15.65 3.17-31.03 14.33-42.19 9.56-9.56 22.22-14.77 35.49-14.77 2.22 0 4.46.15 6.7.44 37.3 4.9 73.1 18.69 104.09 39.75-20.35 3.5-39.28 11.15-55.89 22.04-17.19-7.74-35.51-13.01-54.29-15.48-1.19-.16-2.23.19-3.08 1.04s-1.2 1.89-1.04 3.08c2.47 18.78 7.74 37.1 15.48 54.29 7.42 16.5 17.13 31.96 28.83 45.81 3.45 4.07 7.06 8 10.84 11.78z" fill="#f2c13b"/><path d="m343.44 47.69c-12.41 8.43-24.06 18.02-34.72 28.68l-15.85 15.85h-98.92c-12.31 0-24.28 2.17-35.48 6.34-13.53 5.02-25.94 12.95-36.45 23.46s-18.44 22.92-23.46 36.45c-11.7-13.85-21.41-29.31-28.83-45.81 11.21-17.08 25.85-31.72 42.93-42.93 16.61-10.89 35.54-18.54 55.89-22.04 8.25-1.43 16.74-2.17 25.4-2.17h124.1c8.66 0 17.14.74 25.39 2.17z" fill="#fbe29f"/><g><path d="m111.477 129.11c-9.776-11.573-17.91-24.474-24.199-38.357-6.508 6.725-12.395 14.054-17.548 21.907 7.42 16.5 17.13 31.96 28.83 45.81 3.574-9.633 8.631-18.694 15.037-26.911-.715-.811-1.423-1.627-2.12-2.449z" fill="#f8d070"/></g><path d="m442.27 399.34c-11.21 17.08-25.85 31.72-42.93 42.93-16.61 10.89-35.54 18.54-55.89 22.04-8.25 1.43-16.74 2.17-25.4 2.17h-124.1c-8.66 0-17.14-.74-25.39-2.17 12.41-8.43 24.06-18.02 34.72-28.68l15.85-15.85h98.92c12.31 0 24.28-2.17 35.48-6.34 13.53-5.02 25.94-12.95 36.45-23.46s18.44-22.92 23.46-36.45c11.7 13.85 21.41 29.31 28.83 45.81z" fill="#fbe29f"/><g><path d="m398.403 380.441c.715.81 1.422 1.626 2.119 2.448 9.777 11.574 17.911 24.476 24.2 38.358 6.508-6.725 12.394-14.054 17.548-21.906-7.42-16.5-17.13-31.96-28.83-45.81-3.574 9.632-8.631 18.693-15.037 26.91z" fill="#f8d070"/></g><path d="m489.73 489.73c-11.16 11.16-26.54 16.39-42.19 14.33-26.12-3.43-51.51-11.22-75.03-22.82-10.06-4.96-19.78-10.61-29.06-16.93 20.35-3.5 39.28-11.15 55.89-22.04 17.19 7.74 35.51 13.01 54.29 15.48 1.19.16 2.23-.19 3.08-1.04s1.2-1.89 1.04-3.08c-2.47-18.78-7.74-37.1-15.48-54.29-7.42-16.5-17.13-31.96-28.83-45.81-3.45-4.07-7.06-8-10.84-11.78l-52.72-52.72 33.03-33.03 52.72 52.72c10.66 10.66 20.26 22.31 28.68 34.73 21.06 30.99 34.85 66.79 39.75 104.1 2.06 15.64-3.17 31.02-14.33 42.18z" fill="#f2c13b"/><path d="m256 195.15-60.85 60.85-33.03 33.03-52.72 52.72c-3.77 3.76-7.37 7.68-10.81 11.74-4.12-11.04-6.37-22.98-6.37-35.44v-25.18l36.87-36.87 33.03-33.03 60.85-60.85z" fill="#f0b60b"/><path d="m353.646 268.121h46.711v30h-46.711z" fill="#e7a700" transform="matrix(.707 -.707 .707 .707 -89.776 349.505)"/><path d="m419.78 193.95v25.18l-36.87 36.87-33.03 33.03-60.85 60.85-33.03-33.03 60.85-60.85 33.03-33.03 52.72-52.72c3.77-3.76 7.37-7.68 10.81-11.74 4.12 11.04 6.37 22.98 6.37 35.44z" fill="#f0b60b"/><path d="m353.53 413.44c-11.2 4.17-23.17 6.34-35.48 6.34h-25.18l-130.75-130.75 33.03-33.03 146.6 146.6c3.78 3.78 7.71 7.39 11.78 10.84z" fill="#f2c13b"/><path d="m165.886 268.121h46.712v30h-46.712z" fill="#e7a700" transform="matrix(.707 -.707 .707 .707 -144.77 216.739)"/><path d="m292.87 419.78h-73.74l36.87-36.87z" fill="#5c586f"/><path d="m256 382.91-36.87 36.87-15.85 15.85c-10.66 10.66-22.31 20.25-34.72 28.68-.01 0-.01 0-.01 0-30.99 21.06-66.79 34.85-104.09 39.75-15.65 2.06-31.03-3.17-42.19-14.33s-16.39-26.54-14.33-42.19c3.43-26.12 11.22-51.51 22.82-75.03 4.96-10.06 10.61-19.78 16.93-29.06 3.5 20.35 11.15 39.28 22.04 55.89-7.74 17.19-13.01 35.51-15.48 54.29-.16 1.19.19 2.23 1.04 3.08s1.89 1.2 3.08 1.04c18.78-2.47 37.1-7.74 54.29-15.48 16.51-7.43 31.98-17.15 45.84-28.86h.01c4.06-3.44 7.98-7.04 11.74-10.81l52.72-52.72z" fill="#f0b60b"/><path d="m213.879 353.646h30v46.711h-30z" fill="#e7a700" transform="matrix(.707 -.707 .707 .707 -199.543 272.262)"/><path d="m158.5 413.41c-13.86 11.71-29.33 21.43-45.84 28.86-17.08-11.21-31.72-25.85-42.93-42.93-10.89-16.61-18.54-35.54-22.04-55.89 0 0 0 0 0-.01-1.43-8.25-2.17-16.73-2.17-25.39v-124.1c0-8.66.74-17.15 2.17-25.4 8.42 12.42 18.02 24.07 28.68 34.73l15.85 15.85v98.92c0 12.46 2.25 24.4 6.37 35.44v.01c10.3 27.62 32.29 49.61 59.91 59.91z" fill="#fbe29f"/><g><path d="m130.058 399.718-.918.776c-11.586 9.789-24.499 17.934-38.386 24.228 6.725 6.508 14.054 12.394 21.906 17.548 16.51-7.43 31.98-17.15 45.84-28.86-9.762-3.64-18.816-8.747-26.904-15.041-.511.451-1.02.903-1.538 1.349z" fill="#f8d070"/></g><path d="m504.06 64.45c-4.9 37.31-18.69 73.11-39.75 104.1-3.5-20.35-11.15-39.28-22.04-55.89 7.74-17.19 13.01-35.51 15.48-54.29.16-1.19-.19-2.23-1.04-3.08s-1.89-1.2-3.08-1.04c-18.78 2.47-37.1 7.74-54.29 15.48-16.51 7.43-31.98 17.15-45.84 28.86h-.01c-4.06 3.44-7.98 7.04-11.74 10.81l-52.72 52.72-33.03-33.03 36.87-36.87 15.85-15.85c10.66-10.66 22.31-20.25 34.72-28.68h.01c30.99-21.06 66.79-34.85 104.09-39.75 15.65-2.06 31.03 3.17 42.19 14.33s16.39 26.54 14.33 42.18z" fill="#f0b60b"/><path d="m466.48 193.95v124.1c0 8.66-.74 17.15-2.17 25.4-8.42-12.42-18.02-24.07-28.68-34.73l-15.85-15.85v-98.92c0-12.46-2.25-24.4-6.37-35.44v-.01c-10.3-27.62-32.29-49.61-59.91-59.91 13.86-11.71 29.33-21.43 45.84-28.86 17.08 11.21 31.72 25.85 42.93 42.93 10.89 16.61 18.54 35.54 22.04 55.89v.01c1.43 8.25 2.17 16.73 2.17 25.39z" fill="#fbe29f"/><path d="m399.34 69.73c-16.51 7.43-31.98 17.15-45.84 28.86 9.762 3.64 18.816 8.747 26.904 15.041.499-.44.996-.882 1.502-1.317l.956-.808c11.585-9.788 24.497-17.933 38.385-24.228-6.725-6.507-14.054-12.394-21.907-17.548z" fill="#f8d070"/><path d="m268.122 111.643h30v46.711h-30z" fill="#e7a700" transform="matrix(.707 -.707 .707 .707 -12.534 239.737)"/><path d="m349.88 222.97-33.03 33.03-146.6-146.6c-3.78-3.78-7.71-7.39-11.78-10.84 11.2-4.17 23.17-6.34 35.48-6.34h25.18z" fill="#f2c13b"/></g><g><path d="m.508 446.558c-4.958 37.664 27.132 69.908 64.932 64.934 37.139-4.879 73.299-18.47 104.798-39.316 7.793 1.193 15.755 1.801 23.713 1.801h124.098c7.954 0 15.909-.605 23.687-1.795 8.738 5.793 17.956 11.098 27.454 15.781 24.515 12.091 50.546 20.007 77.367 23.529 37.714 4.966 69.904-27.193 64.934-64.921-1.525-11.618-3.936-23.311-7.166-34.752-1.125-3.986-5.268-6.306-9.255-5.18-3.986 1.125-6.306 5.268-5.18 9.255 3.034 10.748 5.298 21.726 6.73 32.633 3.678 27.924-20.134 51.771-48.107 48.094-25.193-3.308-49.649-10.747-72.689-22.111-4.454-2.196-8.843-4.536-13.142-7.004 12.535-3.72 25.388-9.377 37.311-16.762 16.907 7.212 34.6 12.065 52.634 14.437 7.318.988 13.538-5.235 12.556-12.531-2.55-19.387-7.958-38.36-16.075-56.387-9.667-21.497-23.486-42.093-41.206-59.816l-47.416-47.416 22.423-22.423 47.416 47.416c21.518 21.519 38.427 47.086 50.005 74.581 1.607 3.817 6.003 5.61 9.823 4.001 3.817-1.607 5.609-6.005 4.001-9.823-6.041-14.346-13.438-28.128-21.974-41.026 1.192-7.789 1.798-15.749 1.798-23.707v-124.099c0-7.958-.609-15.919-1.802-23.713 20.847-31.5 34.439-67.662 39.317-104.805 4.967-37.707-27.182-69.891-64.931-64.924-37.14 4.879-73.3 18.47-104.798 39.316-20.251-3.102-24.245-1.265-147.812-1.801-7.964 0-15.929.607-23.716 1.8-31.5-20.846-67.658-34.437-104.81-39.318-18.265-2.364-35.778 3.787-48.456 16.464-12.828 12.829-18.828 30.496-16.462 48.47 1.704 12.971 4.524 26.046 8.383 38.863 1.194 3.966 5.376 6.211 9.344 5.019 3.966-1.194 6.213-5.377 5.019-9.344-3.626-12.044-6.275-24.322-7.874-36.495-1.753-13.315 2.693-26.403 12.197-35.908 9.392-9.391 22.329-13.956 35.909-12.197 30.013 3.943 59.358 13.93 85.822 29.118-13.049 3.885-25.505 9.48-37.3 16.76-16.909-7.211-34.602-12.064-52.635-14.436-3.535-.475-6.867.651-9.382 3.168-2.52 2.519-3.647 5.852-3.174 9.362 2.55 19.389 7.959 38.361 16.075 56.387 9.738 21.655 23.544 42.154 41.206 59.816l47.416 47.416-22.424 22.423-31.566-31.566c-8.699-10.013-41.489-34.882-64.445-87.177-1.666-3.793-6.089-5.517-9.882-3.853-3.793 1.665-5.518 6.09-3.852 9.882 5.764 13.131 12.655 25.751 20.475 37.57-1.192 7.787-1.798 15.745-1.798 23.702v124.098c0 7.948.607 15.9 1.797 23.684-5.793 8.738-11.099 17.958-15.783 27.458-12.09 24.515-20.006 50.546-23.528 77.368zm188.027 12.316c16.01-12.822 25.313-23.574 33.702-31.597h95.812c28.582 0 56.212-10.976 77.232-31.996 8.148-8.147 14.84-17.302 19.986-27.325 7.32 9.905 13.24 19.899 18.397 30.712-26.072 37.337-68.765 60.309-115.615 60.309-130.485-.035-124.643.083-129.514-.103zm-31.489-54.13c-22.405-9.56-40.229-27.386-49.789-49.79 6.305-7.092 6.474-6.79 54.864-55.319l50.243 50.243c-48.83 48.693-48.293 48.62-55.318 54.866zm65.924-232.016c7.959 7.959 14.62 14.62 22.424 22.423-150.855 150.862-141.645 141.619-143.413 143.441-1.535-6.87-2.259-13.885-2.259-20.543v-22.073zm-6.946-73.006 123.248 123.248-22.423 22.424c-.35-.35-142.021-142.033-143.464-143.43 13.703-3.042 20.486-2.051 42.639-2.242zm131.034 14.976c2.513-2.52 5.16-5.011 7.895-7.443 22.404 9.559 40.229 27.386 49.789 49.79-6.296 7.082-6.28 6.594-54.864 55.319l-50.243-50.243zm-58.029 224.574-22.423-22.423c150.495-150.503 141.572-141.548 143.412-143.441 1.504 6.732 2.259 13.801 2.259 20.543v22.073c-12.827 12.827-109.513 109.512-123.248 123.248zm-83.272-83.272 50.243-50.243 50.242 50.243-50.243 50.243zm31.479-156.278h37.526l-18.763 18.763zm-64.509 189.307 22.423-22.423 141.294 141.294c.715.715 1.438 1.427 2.169 2.135-6.928 1.538-13.92 2.241-20.566 2.241h-22.073c-12.683-12.684-109.945-109.946-123.247-123.247zm102.036 123.248h-37.526l18.763-18.763zm139.92 28.153c9.579-7.56 18.187-16.168 25.747-25.747 4.18 11.347 7.25 23.022 9.148 34.895-11.867-1.895-23.544-4.966-34.895-9.148zm-17.389-93.379c2.544 2.545 5.049 5.21 7.482 7.948-4.697 11.049-11.442 21.017-20.101 29.676-8.657 8.658-18.624 15.402-29.676 20.101-7.328-6.515-7.281-6.963-55.363-54.897l50.243-50.243zm14.983-109.814v37.526l-18.763-18.763zm15 52.526c0-21.405 0-87.283 0-95.812 0-40.761-22.753-78.372-59.365-97.179 9.74-7.2 19.813-13.22 30.757-18.435 14.826 10.353 27.37 23.267 37.326 38.438 15.408 23.502 22.982 50.287 22.982 77.176v124.098c0 1.805-.034 3.61-.103 5.412-5.019-6.265-11.51-13.612-17.944-20.045zm13.153-192.447c-7.56-9.579-16.168-18.187-25.747-25.747 11.347-4.18 23.022-7.251 34.895-9.148-1.895 11.867-4.966 23.544-9.148 34.895zm8.086-81.936c27.929-3.675 51.787 20.138 48.104 48.096-3.942 30.018-13.93 59.366-29.118 85.831-3.973-13.361-9.843-26.168-16.76-37.3 7.211-16.907 12.065-34.6 14.438-52.637.986-7.354-5.268-13.53-12.532-12.554-44.429 5.844-85.665 26.662-116.203 57.282l-47.416 47.416-22.423-22.424c4.724-4.724 42.697-42.697 47.416-47.416 35.095-35.094 82.674-59.487 134.494-66.294zm-125.052 37.746c-6.3 5.046-13.621 11.516-20.049 17.944l-13.653 13.653h-70.632c-16.9.917-36.682-3.091-63.268 6.808-.002.001-.004.001-.006.002-.001 0-.001 0-.002.001h-.001c-26.09 9.683-47.096 29.091-59.121 52.51-7.488-10.137-13.333-20.084-18.396-30.712 10.353-14.826 23.268-27.371 38.438-37.327 23.774-15.586 50.557-22.982 77.176-22.982 129.213.034 124.451-.09 129.514.103zm-226.148 18.443c-9.578 7.56-18.187 16.168-25.747 25.747-4.18-11.346-7.25-23.021-9.148-34.895 11.866 1.896 23.544 4.966 34.895 9.148zm17.389 93.379c-2.544-2.544-5.048-5.209-7.481-7.947 9.451-22.227 27.529-40.316 49.777-49.778 7.328 6.515 7.281 6.963 55.363 54.897l-50.243 50.243zm-14.983 109.815v-37.526l18.763 18.763zm-15-52.526v95.812c0 40.155 22.234 78.105 59.365 97.179-9.464 6.998-19.38 13.013-30.757 18.435-14.826-10.353-27.369-23.267-37.326-38.438-15.55-23.721-22.982-50.553-22.982-77.176v-124.098c0-1.805.034-3.61.103-5.413 12.238 15.283 22.723 24.541 31.597 33.699zm-13.153 192.446c7.56 9.579 16.168 18.186 25.747 25.747-11.347 4.18-23.022 7.251-34.895 9.148 1.896-11.866 4.966-23.544 9.148-34.895zm-27.075-52.001c3.976 13.363 9.779 26.059 16.762 37.31-7.211 16.907-12.065 34.6-14.438 52.637-.986 7.353 5.27 13.534 12.532 12.554 19.389-2.55 38.361-7.959 56.389-16.076 22.476-10.115 43.06-24.409 59.814-41.205l47.416-47.416 22.424 22.423-31.565 31.565s-.001.001-.002.001c-15.814 15.5-26.274 27.841-49.333 43.526-.053.034-.106.068-.158.104-30.154 20.491-65.027 33.81-100.852 38.516-27.937 3.679-51.785-20.139-48.104-48.106 3.308-25.193 10.747-49.649 22.111-72.689 2.196-4.456 4.536-8.845 7.004-13.144z"/></g></g></svg>