<svg id="Capa_1" enable-background="new 0 0 512 512" height="512" viewBox="0 0 512 512" width="512" xmlns="http://www.w3.org/2000/svg"><g><g><path d="m293.206 26.147c-2.461-10.903-12.147-18.647-23.324-18.647-11.177 0-20.864 7.744-23.324 18.647l-17.779 78.787h82.206z" fill="#e8a882"/><path d="m256.91 66.285c0-21.217 5.277-41.198 14.579-58.716-.533-.036-1.067-.069-1.608-.069-11.177 0-20.864 7.744-23.324 18.647l-17.779 78.787h34.212c-3.941-12.175-6.08-25.161-6.08-38.649z" fill="#e3986d"/><path d="m300.977 84.919h-62.191c-18.35 0-33.225 14.875-33.225 33.225v29.59h128.641v-29.59c0-18.35-14.875-33.225-33.225-33.225z" fill="#f1c6ad"/><path d="m483.654 470.963c-27.944-73.667-15.585-162.163-15.585-162.163h-73.522s12.359 88.496-15.586 162.163z" fill="#e8a882"/><path d="m258.29 84.918h-19.504c-18.35 0-33.225 14.875-33.225 33.225v29.591h81.412c-14.923-17.449-25.14-39.041-28.683-62.816z" fill="#e8a882"/><path d="m324.194 131.67h-95.595c-117.092 0-212.015 94.922-212.015 212.015 0 83.133 67.392 150.525 150.525 150.525h6.027c86.461 0 156.551-70.09 156.551-156.551v-67.486c0-18.852 15.283-34.135 34.135-34.135 18.852 0 34.135 15.283 34.135 34.135v21.44l66.7-.3v-19.178c.001-77.577-62.887-140.465-140.463-140.465z" fill="#fb8978"/><path d="m423.079 470.963c-10.133-22.052-15.792-46.586-15.792-72.444 0-32.83-.259-63.532 6.448-89.719h-19.188s12.359 88.496-15.586 162.163z" fill="#e3986d"/><path d="m458.065 272.134h-53.515c-14.132 0-25.589 11.457-25.589 25.589 0 14.132 11.457 25.589 25.589 25.589h53.515c14.132 0 25.589-11.457 25.589-25.589 0-14.132-11.456-25.589-25.589-25.589z" fill="#f1c6ad"/><path d="m477.543 453.322h-92.471c-14.132 0-25.589 11.457-25.589 25.589 0 14.132 11.457 25.589 25.589 25.589h92.471c14.132 0 25.589-11.457 25.589-25.589 0-14.132-11.456-25.589-25.589-25.589z" fill="#f1c6ad"/><circle cx="431.308" cy="362.861" fill="#5c586f" r="13.021"/><circle cx="431.308" cy="414.602" fill="#5c586f" r="13.021"/><path d="m71.388 358.068c0-92.21 69.696-193.628 135.86-225.333-107.066 10.707-190.663 101.064-190.663 210.949 0 62.084 37.59 115.383 91.249 138.396-22.562-36.487-36.446-78.838-36.446-124.012z" fill="#f67561"/><path d="m124.234 38.015-91.192 51.428c60.528 50.439 93.234 133.593 93.234 133.593l64.04-36.116c.001 0-54.236-71.012-66.082-148.905z" fill="#e8a882"/><path d="m69.17 69.068-36.128 20.375c60.528 50.439 93.234 133.593 93.234 133.593l36.603-20.642c-50.325-27.754-88.739-70.143-93.709-133.326z" fill="#e3986d"/><path d="m209.334 188.913c-6.942-12.31-22.549-16.661-34.859-9.719l-46.614 26.288c-12.31 6.942-16.661 22.549-9.719 34.859 6.942 12.31 22.549 16.661 34.859 9.719l46.614-26.288c12.31-6.943 16.661-22.549 9.719-34.859z" fill="#f1c6ad"/><path d="m137.295 21.524c-6.942-12.31-22.549-16.661-34.859-9.719l-80.545 45.425c-12.309 6.942-16.661 22.549-9.719 34.858s22.549 16.661 34.859 9.719l80.545-45.424c12.31-6.942 16.662-22.549 9.719-34.859z" fill="#f1c6ad"/><circle cx="131.741" cy="157.89" fill="#5c586f" r="13.021"/><circle cx="106.324" cy="112.822" fill="#5c586f" r="13.021"/><g fill="#ffefe0"><ellipse cx="88.705" cy="387.78" rx="31.153" ry="24.809"/><ellipse cx="257.567" cy="387.78" rx="31.153" ry="24.809"/></g><g fill="#e8a882"><path d="m68.622 54.98c0-8.58.478-16.893 1.435-24.914l-48.166 27.164c-12.309 6.942-16.661 22.549-9.719 34.858s22.549 16.661 34.859 9.719l24.702-13.931c-2.034-10.335-3.111-21.289-3.111-32.896z"/><path d="m430.729 272.134h-26.179c-14.132 0-25.589 11.457-25.589 25.589 0 14.133 11.457 25.589 25.589 25.589h6.205c3.092-19.311 8.939-36.638 19.974-51.178z"/><path d="m416.118 453.322h-31.046c-14.132 0-25.589 11.457-25.589 25.589 0 14.132 11.457 25.589 25.589 25.589h58.295c-11.762-15.252-21.047-32.51-27.249-51.178z"/></g></g><g><path d="m431.312 342.34c-11.315 0-20.521 9.206-20.521 20.521s9.206 20.521 20.521 20.521 20.521-9.206 20.521-20.521c-.001-11.316-9.207-20.521-20.521-20.521zm0 26.041c-3.044 0-5.521-2.477-5.521-5.521s2.477-5.521 5.521-5.521 5.521 2.477 5.521 5.521c-.001 3.045-2.478 5.521-5.521 5.521z"/><path d="m431.312 394.081c-11.315 0-20.521 9.206-20.521 20.521s9.206 20.521 20.521 20.521 20.521-9.206 20.521-20.521c-.001-11.315-9.207-20.521-20.521-20.521zm0 26.042c-3.044 0-5.521-2.477-5.521-5.521s2.477-5.521 5.521-5.521 5.521 2.477 5.521 5.521c-.001 3.044-2.478 5.521-5.521 5.521z"/><path d="m141.825 175.764c9.877-5.57 13.367-18.074 7.794-27.954-5.57-9.879-18.075-13.367-27.956-7.795-9.855 5.559-13.352 18.099-7.793 27.955 5.56 9.857 18.056 13.378 27.955 7.794zm-12.793-22.682c2.656-1.499 6.022-.563 7.521 2.097 1.499 2.656.562 6.021-2.097 7.52-2.658 1.499-6.021.561-7.521-2.097-1.495-2.652-.554-6.026 2.097-7.52z"/><path d="m124.202 102.742c-5.57-9.878-18.074-13.366-27.955-7.794-9.855 5.558-13.352 18.098-7.794 27.954v.001c5.568 9.872 18.115 13.343 27.955 7.793 9.878-5.571 13.367-18.075 7.794-27.954zm-15.162 14.889c-2.652 1.494-6.025.554-7.521-2.096-1.496-2.652-.555-6.026 2.096-7.521 2.658-1.498 6.022-.562 7.521 2.097 1.5 2.657.561 6.02-2.096 7.52z"/><path d="m99.365 351.163v12.735c0 4.142 3.358 7.5 7.5 7.5s7.5-3.358 7.5-7.5v-12.735c0-4.142-3.358-7.5-7.5-7.5s-7.5 3.358-7.5 7.5z"/><path d="m231.915 351.163v12.735c0 4.142 3.358 7.5 7.5 7.5s7.5-3.358 7.5-7.5v-12.735c0-4.142-3.358-7.5-7.5-7.5s-7.5 3.358-7.5 7.5z"/><path d="m184.958 358.591c-2.984 3.424-7.292 5.388-11.819 5.388s-8.835-1.964-11.819-5.388c-2.721-3.123-7.459-3.447-10.582-.727-3.123 2.722-3.448 7.459-.727 10.582 5.834 6.694 14.263 10.533 23.127 10.533s17.293-3.839 23.127-10.533c2.721-3.123 2.396-7.86-.727-10.582-3.12-2.721-7.858-2.396-10.58.727z"/><path d="m173.14 501.709c90.458 0 164.051-73.593 164.051-164.051v-67.486c0-14.687 11.949-26.635 26.635-26.635 13.901 0 25.342 10.707 26.527 24.305-11.158 5.324-18.888 16.716-18.888 29.881 0 12.522 6.993 23.441 17.278 29.059 1.613 23.224 2.888 72.593-9.759 119.611-15.344 2.869-26.996 16.354-26.996 32.518 0 18.245 14.844 33.089 33.089 33.089h92.471c18.245 0 33.089-14.844 33.089-33.089 0-16.164-11.653-29.649-26.997-32.518-12.646-47.016-11.372-96.386-9.759-119.611 10.285-5.619 17.278-16.537 17.278-29.06 0-13.234-7.813-24.674-19.067-29.961-.877-30.505-10.916-59.45-29.182-83.96-2.476-3.322-7.176-4.008-10.495-1.532-3.321 2.475-4.007 7.174-1.532 10.495 15.696 21.062 24.636 45.771 26.073 71.869h-51.861c-2.717-20.349-20.188-36.097-41.269-36.097-22.958 0-41.635 18.678-41.635 41.635v67.486c0 82.187-66.864 149.051-149.051 149.051h-6.027c-78.864 0-143.024-64.161-143.024-143.025 0-32.769 7.514-64.067 22.333-93.027 12.847-25.107 31.063-47.603 52.972-65.503 5.546 9.899 9.899 18.567 12.994 25.071-6.198 9.947-6.926 22.892-.775 33.8 8.982 15.929 29.145 21.552 45.076 12.567l46.614-26.288c15.892-8.963 21.529-29.184 12.567-45.076-6.111-10.836-17.467-17.009-29.335-16.841-3.628-5.504-8.262-12.853-13.314-21.619 18.505-5.197 37.273-7.599 55.382-7.599h95.595c32.049 0 63.114 11.577 87.369 32.738 3.121 2.723 7.858 2.401 10.582-.721 2.723-3.121 2.4-7.859-.721-10.582-22.504-19.634-50.316-31.89-79.723-35.39v-7.071c0-18.322-12.163-33.852-28.837-38.951l-12.343-54.697c-3.254-14.421-15.854-24.494-30.64-24.494-14.785 0-27.385 10.073-30.64 24.496l-12.342 54.697c-16.675 5.099-28.838 20.629-28.838 38.951v8.14c-10.925 1.524-21.707 3.879-32.283 7.035-10.934-20.625-22.46-46.441-29.49-73.885 11.864-9.921 15.579-27.338 7.54-41.593-8.983-15.929-29.146-21.554-45.076-12.568l-37.05 20.895c-3.608 2.035-4.883 6.609-2.849 10.217s6.61 4.884 10.217 2.849l37.05-20.895c8.708-4.911 19.73-1.84 24.642 6.87 4.879 8.651 1.839 19.646-6.765 24.576l-80.577 45.448c-.039.021-.078.042-.117.063-8.682 4.866-19.706 1.781-24.598-6.892-4.899-8.688-1.817-19.742 6.871-24.642l17.925-10.109c3.608-2.035 4.883-6.609 2.849-10.217-2.035-3.608-6.609-4.884-10.217-2.849l-17.926 10.11c-15.929 8.983-21.553 29.144-12.567 45.075 8.023 14.228 24.826 20.1 39.494 15.068 19.111 19.464 34.769 41.711 46.612 61.215-24.326 19.441-44.536 44.126-58.681 71.769-15.912 31.095-23.979 64.693-23.979 99.86 0 87.135 70.89 158.025 158.024 158.025zm322.496-22.798c0 9.974-8.115 18.089-18.089 18.089h-92.471c-9.975 0-18.089-8.115-18.089-18.089 0-9.956 8.085-18.057 18.035-18.087.049-.001.096-.001.148-.003h92.282c.05.002.1.002.151.003 9.948.031 18.033 8.131 18.033 18.087zm-37.05-148.103c-1.617 27.553-1.565 71.471 9.401 115.014h-73.353c10.968-43.545 11.02-87.462 9.402-115.014.172.002.345.004.517.004h53.515c.174 0 .346-.001.518-.004zm-.517-51.174h.001c9.946 0 18.088 8.107 18.088 18.089 0 10.054-8.226 18.085-18.086 18.089-.001 0-.002 0-.003 0h-53.515c-9.787 0-18.089-7.972-18.089-18.089 0-10.108 8.266-18.089 18.089-18.089zm-204.192-251.836c1.701-7.535 8.284-12.798 16.008-12.798 7.725 0 14.308 5.263 16.008 12.798l11.197 49.621h-54.41zm-40.812 96.923v-6.578c0-14.277 11.652-25.725 25.725-25.725h62.19c14.07 0 25.725 11.446 25.725 25.725v6.048c-.842-.015-1.678-.022-2.508-.022h-95.595c-5.21 0-10.593.209-15.537.552zm-10.26 67.876c4.9 8.688 1.818 19.743-6.87 24.643l-46.614 26.288c-8.706 4.911-19.73 1.84-24.642-6.87-4.9-8.689-1.792-19.761 6.87-24.643l46.613-26.288c8.683-4.894 19.738-1.827 24.643 6.87zm-79.867-124.985c11.837 43.316 33.365 81.595 48.309 104.799-.337.183-47.169 26.594-47.514 26.796-12.125-24.793-33.744-63.021-64.687-95.562 14.414-8.13 50.719-28.604 63.892-36.033z"/></g></g></svg>