<svg id="Capa_1" enable-background="new 0 0 512 512" height="512" viewBox="0 0 512 512" width="512" xmlns="http://www.w3.org/2000/svg"><g><g><path d="m504.38 448.265c-.058-.87-.132-1.742-.235-2.619l-7.027-63.917-8.863-8.393 7.219-6.561-3.681-33.484-6.143-7.18 4.499-7.774-8.223-74.792-6.698-7.976 5.054-6.978-3.682-33.481-10.167-6.763 8.523-8.19-9.297-84.558h-419.319l-9.297 84.558 8.523 8.19-10.166 6.763-3.681 33.484 5.054 6.978-6.698 7.976-8.223 74.792 4.499 7.774-6.143 7.18-3.681 33.484 7.219 6.561-8.863 8.393-7.027 63.917c-.103.876-.177 1.749-.235 2.619l8.96 8.698-7.735 6.3c5.239 22.458 25.371 39.599 49.915 39.599h23.407l6.85-5.331 8.15 5.331h151.332l7.5-5.331 7.5 5.331h151.332l8.15-5.331 6.85 5.331h23.407c24.545 0 44.676-17.142 49.915-39.599l-7.735-6.3z" fill="#80dfb5"/><path d="m65.268 223.178c0-47.903 4.944-90.311 14.496-127.58h-33.424l-9.297 84.558 8.523 8.19-10.166 6.764-3.681 33.484 5.054 6.978-6.698 7.976-8.223 74.792 4.499 7.774-6.143 7.18-3.681 33.484 7.219 6.561-8.863 8.393-7.027 63.917c-.103.876-.177 1.749-.235 2.619l8.96 8.698-7.735 6.3c5.239 22.458 25.371 39.599 49.915 39.599h23.407l6.85-5.331 8.15 5.331h109.842c-85.948-63.113-141.742-164.883-141.742-279.687z" fill="#36d39a"/><g><path d="m247.896 240.414c-1.064 0-2.141-.079-3.225-.243-74.209-11.177-116.41-50.958-138.745-82.362-24.21-34.041-30.805-65.851-31.074-67.188-2.337-11.627 5.193-22.947 16.82-25.284 11.6-2.33 22.89 5.156 25.267 16.733.129.601 5.673 25.699 24.993 52.249 25.457 34.986 62.177 56.312 109.137 63.385 11.727 1.766 19.801 12.705 18.035 24.432-1.604 10.643-10.763 18.278-21.208 18.278z" fill="#938ea3"/></g><g><path d="m264.104 240.414c1.064 0 2.14-.079 3.225-.243 74.208-11.177 116.41-50.958 138.745-82.362 24.21-34.041 30.805-65.851 31.074-67.188 2.337-11.627-5.193-22.947-16.82-25.284-11.6-2.33-22.89 5.156-25.267 16.733-.129.601-5.673 25.699-24.993 52.249-25.457 34.986-62.177 56.312-109.137 63.385-11.727 1.766-19.801 12.705-18.035 24.432 1.604 10.643 10.762 18.278 21.208 18.278z" fill="#938ea3"/></g><path d="m141.931 134.318c-19.319-26.551-24.863-51.648-24.993-52.249-2.376-11.576-13.667-19.063-25.267-16.733-11.627 2.338-19.157 13.658-16.82 25.284.209 1.039 4.241 20.474 17.381 45.055h50.712c-.337-.453-.68-.899-1.013-1.357z" fill="#77718c"/><path d="m420.328 65.336c-11.6-2.33-22.89 5.156-25.266 16.733-.13.601-5.673 25.698-24.993 52.249-.333.458-.676.904-1.013 1.357h50.712c13.139-24.581 17.172-44.016 17.381-45.055 2.336-11.626-5.194-22.946-16.821-25.284z" fill="#77718c"/><path d="m474.974 23.338h-437.948c-15.066 0-27.28 12.214-27.28 27.28v27.777c0 15.066 12.214 27.28 27.28 27.28h437.949c15.066 0 27.28-12.214 27.28-27.28v-27.777c-.001-15.067-12.214-27.28-27.281-27.28z" fill="#6a647f"/><path d="m309.647 9.138h-107.294c-20.242 0-36.651 16.409-36.651 36.651v37.434c0 20.242 16.409 36.652 36.651 36.652h107.293c20.242 0 36.651-16.409 36.651-36.652v-37.434c.001-20.242-16.408-36.651-36.65-36.651z" fill="#c7c5cb"/><path d="m296.012 42.688h-80.025c-5.49 0-9.941 4.451-9.941 9.941v23.754c0 5.49 4.451 9.941 9.941 9.941h80.025c5.49 0 9.941-4.451 9.941-9.941v-23.754c.001-5.49-4.45-9.941-9.941-9.941z" fill="#6a647f"/><path d="m152.275 211.875c-13.202 19.777-20.904 43.54-20.904 69.103 0 68.831 55.798 113.892 124.629 113.892s124.629-45.062 124.629-113.892c0-25.563-7.702-49.326-20.904-69.103z" fill="#5c586f"/><path d="m152.275 211.875c-7.728 11.577-13.553 24.526-17.07 38.396 23.079 43.117 68.565 72.518 120.795 72.518 52.229 0 97.715-29.401 120.794-72.518-3.517-13.869-9.342-26.818-17.07-38.395h-207.449z" fill="#4f4c5f"/><path d="m177.502 258.451c-2.058 7.161-3.184 14.713-3.184 22.528 0 20.41 7.589 37.884 21.946 50.533 14.942 13.164 36.157 20.413 59.737 20.413s44.795-7.249 59.737-20.413c14.357-12.649 21.946-30.123 21.946-50.533 0-7.814-1.126-15.366-3.184-22.528z" fill="#6a647f"/><path d="m177.502 258.451c-2.058 7.161-3.184 14.713-3.184 22.528 0 5.545.58 10.864 1.683 15.937 22.519 16.27 50.157 25.873 80 25.873 29.842 0 57.48-9.604 79.999-25.873 1.104-5.073 1.683-10.392 1.683-15.937 0-7.814-1.126-15.366-3.185-22.528z" fill="#5c586f"/><path d="m334.743 157.7h-157.486c-15.56 0-28.173 12.613-28.173 28.173 0 59.048 47.868 106.916 106.916 106.916 59.048 0 106.916-47.868 106.916-106.916 0-15.56-12.614-28.173-28.173-28.173z" fill="#6a647f"/><circle cx="256" cy="240.179" fill="#4f4c5f" r="17.558"/></g><g><path d="m215.987 93.823h80.026c9.617 0 17.441-7.824 17.441-17.441v-23.754c0-9.617-7.824-17.442-17.441-17.442h-80.026c-9.617 0-17.442 7.824-17.442 17.442v23.755c.001 9.616 7.825 17.44 17.442 17.44zm-2.441-41.195c0-1.346 1.095-2.441 2.441-2.441h80.026c1.346 0 2.441 1.095 2.441 2.441v23.755c0 1.346-1.095 2.441-2.441 2.441h-80.026c-1.346 0-2.441-1.095-2.441-2.441z"/><path d="m256 265.237c13.817 0 25.058-11.241 25.058-25.058s-11.241-25.058-25.058-25.058-25.058 11.241-25.058 25.058c-.001 13.817 11.241 25.058 25.058 25.058zm0-35.116c5.546 0 10.058 4.512 10.058 10.058s-4.512 10.058-10.058 10.058-10.058-4.512-10.058-10.058 4.512-10.058 10.058-10.058z"/><path d="m475.139 113.17c19.103-.088 34.618-15.653 34.618-34.776v-27.778c0-19.178-15.602-34.781-34.78-34.781h-132.93c-8.071-8.724-19.606-14.199-32.4-14.199h-107.294c-12.794 0-24.329 5.475-32.4 14.199h-58.224c-4.142 0-7.5 3.358-7.5 7.5s3.358 7.5 7.5 7.5h49.06c-1.758 4.877-2.588 10.07-2.588 14.952v37.434c0 5.004.868 10.181 2.588 14.952-26.941 0-99.026 0-123.765 0-10.907 0-19.78-8.874-19.78-19.78v-27.777c0-10.907 8.873-19.78 19.78-19.78h44.705c4.142 0 7.5-3.358 7.5-7.5s-3.358-7.5-7.5-7.5h-44.706c-19.178 0-34.78 15.603-34.78 34.781v27.778c0 19.123 15.515 34.688 34.618 34.776-3.788 34.45-32.68 297.244-36.458 331.605-4.047 34.56 22.912 65.589 58.356 65.589h394.483c35.371 0 62.396-30.948 58.358-65.562-4.725-42.972-32.489-295.507-36.461-331.633zm-375.327 48.985c4.475 6.291 9.289 12.293 14.41 18.001h-17.056v-21.812c.859 1.266 1.74 2.537 2.646 3.811zm29.352 33.001c4.603 4.16 9.4 8.111 14.382 11.843.219 1.168.457 2.33.711 3.485-3.674 5.812-6.88 11.861-9.582 18.109h-37.509v-33.437zm48.092-29.957h157.487c3.533 0 6.86.894 9.772 2.463 12.448 6.661 11.939 19.316 9.695 33.683-7.556 48.152-49.366 83.944-98.211 83.944-43.179 0-81.651-28.054-94.777-69.387-3.176-10.035-4.64-20.136-4.64-30.03.001-11.348 9.261-20.673 20.674-20.673zm181.209-5.956c13.399-13.157 24.573-28.759 33.002-46.069h30.583c-11.05 27.236-28.321 52.597-51.634 72.962.058-10.44-4.419-20.181-11.951-26.893zm101.584-46.069 7.364 66.982h-37.579v-47.687c3.483-7.107 6.208-13.652 8.306-19.295zm-204.049 274.198c-32.213 0-61.75-10.392-83.169-29.262-21.397-18.851-33.961-45.193-33.961-77.131 0-17.761 3.969-35.068 11.58-50.835 4.682 11.212 11.063 21.421 18.771 30.382-1.588 6.716-2.404 13.576-2.404 20.453 0 22.627 8.468 42.047 24.488 56.161 16.313 14.371 39.288 22.286 64.695 22.286 18.959 0 36.711-4.419 51.337-12.779 3.596-2.055 4.845-6.637 2.79-10.233-2.056-3.596-6.638-4.845-10.233-2.79-12.363 7.066-27.542 10.802-43.894 10.802-21.754 0-41.208-6.585-54.779-18.541-12.694-11.184-19.404-26.712-19.404-44.906 0-2.53.134-5.058.394-7.575 20.199 17.016 46.226 26.885 73.789 26.885 26.358 0 52.649-9.076 73.789-26.885.26 2.517.394 5.045.394 7.575 0 13.702-3.699 25.717-10.993 35.714-2.441 3.346-1.709 8.038 1.638 10.48 3.346 2.441 8.038 1.708 10.48-1.638 9.078-12.44 13.876-27.847 13.876-44.556 0-6.877-.816-13.737-2.404-20.453 7.708-8.962 14.089-19.17 18.771-30.382 7.61 15.767 11.58 33.073 11.58 50.835 0 31.707-12.384 58.122-33.961 77.131-21.421 18.87-50.957 29.262-83.17 29.262zm-120.458-54.033c6.008 12.463 14.252 23.755 24.541 33.437h-62.917v-33.437zm-38.376-15v-74.745h32.086c-3.547 12.044-5.382 24.609-5.382 37.385 0 13.035 1.945 25.59 5.698 37.361h-32.402zm271.288-111.34c4.982-3.732 9.779-7.683 14.381-11.842h31.999v33.437h-37.509c-2.702-6.248-5.908-12.296-9.582-18.108.254-1.156.492-2.318.711-3.487zm29.323-26.843c6.315-7.039 11.931-14.256 17.057-21.814v21.814zm32.057 15h39.228l3.676 33.437h-42.904zm-15 48.438v74.745h-32.402c3.754-11.771 5.698-24.326 5.698-37.361 0-12.776-1.835-25.341-5.382-37.385h32.086zm-38.377 89.745h38.377v33.437h-62.917c10.288-9.682 18.533-20.973 24.54-33.437zm53.377 0h54.421l3.676 33.437h-58.097zm0-15v-74.745h44.554l8.218 74.745zm-347.668-89.746h-42.905l3.676-33.437h39.229zm-44.554 15.001h44.554v74.745h-52.772zm44.554 89.745v33.437h-58.097l3.676-33.437zm-66.859 113.129 7.112-64.691h59.747v66.488h-67.021c.045-.599.092-1.198.162-1.797zm81.859-64.691h82.562c19.795 12.185 43.458 19.25 68.772 20.417v46.071h-151.334zm151.334 81.488v32.099h-151.334v-32.099zm15 0h151.334v32.099h-151.334zm0-15.001v-46.071c25.314-1.167 48.977-8.232 68.772-20.417h82.562v66.488zm166.334-66.487h59.746l7.112 64.691c.002.018.004.035.006.053.068.581.113 1.163.157 1.744h-67.022v-66.488zm-78.623-350.942h123.765c10.907 0 19.78 8.874 19.78 19.78v27.778c0 10.907-8.873 19.78-19.78 19.78-25.189 0-98.588 0-123.765 0 4.184-11.611 1.975-18.289 2.588-52.386 0-4.817-.815-10.032-2.588-14.952zm-148.858-14.199h107.294c16.078 0 29.152 13.083 29.152 29.152v37.434c0 15.914-12.934 29.152-29.152 29.152h-107.294c-16.04 0-29.134-13.05-29.151-29.12 0-.011-.001-.021-.001-.032v-37.434c0-.011.001-.021.001-.032.017-15.921 12.977-29.12 29.151-29.12zm-32.432 96.538c8.364 9.086 20.011 14.2 32.431 14.2h107.294c12.359 0 24.023-5.067 32.431-14.2h32.511c-8.058 14.746-18.233 27.712-29.881 38.452-3.165-.922-6.506-1.427-9.965-1.427h-157.486c-3.459 0-6.8.504-9.965 1.427-11.635-10.728-21.815-23.693-29.88-38.452zm-49.388 0c8.78 18.032 20.175 33.475 33.002 46.069-3.146 2.811-5.909 6.31-7.963 10.27v.001c-2.7 5.209-4.02 10.893-3.988 16.622-11.067-9.668-20.966-20.609-29.547-32.675-10.442-14.682-17.48-28.932-22.087-40.287zm-46.674 0c2.098 5.644 4.823 12.189 8.307 19.297v47.686h-37.579l7.364-66.982h21.908zm-57.253 350.091h65.561v32.099h-23.409c-19.371 0-36.829-12.826-42.152-32.099zm436.635 32.099h-23.407v-32.099h65.564c-5.331 19.275-22.788 32.099-42.157 32.099z"/></g></g></svg>