<svg id="Capa_1" enable-background="new 0 0 512 512" height="512" viewBox="0 0 512 512" width="512" xmlns="http://www.w3.org/2000/svg"><g><g><path d="m489.125 235.022c-.354-13.555-14.254-22.391-26.76-17.152-33.629 14.086-52.105 44.301-52.105 44.301l26.227 79.777c47.737-17.155 53.492-74.184 52.638-106.926z" fill="#ffdcce"/><path d="m22.875 235.022c.354-13.555 14.254-22.391 26.76-17.152 33.629 14.086 52.105 44.301 52.105 44.301l-26.227 79.777c-47.737-17.155-53.493-74.184-52.638-106.926z" fill="#ffdcce"/><path d="m256 504.5c-127.177 0-180.178-58.549-201.266-96.97-8.807-16.045-8.536-35.674 1.149-51.204 10.525-16.877 16.939-36.802 16.939-60.3 0-130.842 44.359-170.222 105.418-170.222 27.259 0 45.677 3.676 57.715 7.746 12.986 4.39 27.105 4.39 40.09 0 12.038-4.07 30.456-7.746 57.715-7.746 61.06 0 105.418 39.38 105.418 170.222 0 23.498 6.414 43.422 16.939 60.3 9.685 15.531 9.956 35.159 1.149 51.204-21.088 38.421-74.089 96.97-201.266 96.97z" fill="#e8a882"/><path d="m311.889 212.722c-12.328-.174-24.034 2.402-34.548 7.153-13.525 6.111-29.156 6.111-42.681 0-10.514-4.751-22.22-7.327-34.548-7.153-44.234.623-80.128 37.165-79.998 81.403.002.8.016 1.597.042 2.391 1.087 34.101 32.242 59.395 65.987 54.359 21.392-3.192 40.238-8.243 52.948-12.173 11.014-3.406 22.807-3.406 33.82 0 12.709 3.93 31.556 8.981 52.948 12.173 33.745 5.036 64.9-20.258 65.987-54.359.025-.794.039-1.591.042-2.391.128-44.238-35.766-80.78-79.999-81.403z" fill="#ffdcce"/><path d="m194.727 277.647h-24.373c-7.688 0-13.921 6.233-13.921 13.921s6.233 13.921 13.921 13.921h24.373c7.688 0 13.921-6.233 13.921-13.921 0-7.689-6.232-13.921-13.921-13.921z" fill="#e8a882"/><path d="m317.273 277.647h24.373c7.688 0 13.921 6.233 13.921 13.921s-6.233 13.921-13.921 13.921h-24.373c-7.688 0-13.921-6.233-13.921-13.921 0-7.689 6.232-13.921 13.921-13.921z" fill="#e8a882"/><path d="m98.74 268.021c0-31.19 5.663-61.053 16.005-88.631h-22.301c-12.485 26.41-19.623 64.164-19.623 116.635 0 23.498-6.414 43.422-16.939 60.3-9.685 15.531-9.956 35.159-1.149 51.205 19.273 35.113 65.21 87.025 170.044 95.708-78.31-43.888-126.037-135.341-126.037-235.217z" fill="#e3986d"/><g fill="#f1c6ad"><path d="m236.823 107.304c5.229-9.087 2.101-20.693-6.987-25.922-9.087-5.228-20.693-2.1-25.922 6.987-6.841 11.89-15.904 20.002-24.283 25.458.073-1.442.148-2.891.225-4.357 1.385-26.45 2.955-56.429-9.79-89.76-3.745-9.793-14.718-14.697-24.512-10.951-9.793 3.744-14.696 14.718-10.951 24.512 5.965 15.601 7.874 30.359 8.164 45.088-17.55-1.724-46.677-9.329-73.128-38.275-7.072-7.739-19.079-8.281-26.82-1.208-7.74 7.073-8.281 19.08-1.208 26.82 35.457 38.802 75.467 48.59 99.889 50.58-.783 17.183-.936 35.317 3.47 54.232-13.157-1.175-28.179-5.005-42.509-14.283-8.801-5.696-20.555-3.183-26.253 5.619-5.698 8.801-3.182 20.555 5.619 26.253 22.41 14.508 45.632 19.597 65.056 20.61 4.868.254 9.492.249 13.81.075 5.66 9.289 12.882 18.725 22.07 28.29 3.48 3.623 8.05 5.565 12.699 5.807 5.055.264 10.203-1.484 14.142-5.266 7.561-7.263 7.804-19.28.541-26.842-18.562-19.325-26.443-36.853-29.465-54.86 16.049-6.686 40.115-20.751 56.143-48.607z"/><path d="m275.177 107.304c-5.229-9.087-2.101-20.693 6.987-25.922 9.087-5.228 20.693-2.1 25.922 6.987 6.841 11.89 15.904 20.002 24.283 25.458-.073-1.442-.148-2.891-.225-4.357-1.385-26.45-2.955-56.429 9.79-89.76 3.745-9.793 14.718-14.697 24.512-10.951 9.793 3.744 14.696 14.718 10.951 24.512-5.965 15.601-7.874 30.359-8.164 45.088 17.55-1.724 46.677-9.329 73.128-38.275 7.072-7.739 19.079-8.281 26.82-1.208 7.74 7.073 8.281 19.08 1.208 26.82-35.457 38.802-75.467 48.59-99.889 50.58.783 17.183.936 35.317-3.47 54.232 13.157-1.175 28.179-5.005 42.509-14.283 8.801-5.696 20.555-3.183 26.253 5.619 5.698 8.801 3.182 20.555-5.619 26.253-22.41 14.508-45.632 19.597-65.056 20.61-4.868.254-9.492.249-13.81.075-5.66 9.289-12.882 18.725-22.07 28.29-3.48 3.623-8.05 5.565-12.699 5.807-5.055.264-10.203-1.484-14.142-5.266-7.561-7.263-7.804-19.28-.541-26.842 18.562-19.325 26.443-36.853 29.465-54.86-16.049-6.686-40.115-20.751-56.143-48.607z"/></g></g><g><path d="m194.728 270.149h-24.373c-11.811 0-21.421 9.609-21.421 21.421 0 11.811 9.609 21.421 21.421 21.421h4.687v9.226c0 4.142 3.358 7.5 7.5 7.5s7.5-3.358 7.5-7.5v-9.226h4.686c11.811 0 21.421-9.609 21.421-21.421s-9.61-21.421-21.421-21.421zm0 27.842h-24.373c-3.54 0-6.421-2.88-6.421-6.421s2.88-6.421 6.421-6.421h24.373c3.54 0 6.421 2.88 6.421 6.421s-2.881 6.421-6.421 6.421z"/><path d="m317.272 270.149c-11.811 0-21.421 9.609-21.421 21.421 0 11.811 9.609 21.421 21.421 21.421h4.686v9.226c0 4.142 3.358 7.5 7.5 7.5s7.5-3.358 7.5-7.5v-9.226h4.687c11.811 0 21.421-9.609 21.421-21.421 0-11.811-9.609-21.421-21.421-21.421zm30.794 21.421c0 3.54-2.88 6.421-6.421 6.421h-24.373c-3.54 0-6.421-2.88-6.421-6.421s2.88-6.421 6.421-6.421h24.373c3.541 0 6.421 2.88 6.421 6.421z"/><path d="m271.153 360.753c-3.825 4.39-9.348 6.907-15.153 6.907s-11.328-2.517-15.153-6.907c-2.722-3.123-7.459-3.447-10.581-.727-3.123 2.722-3.448 7.459-.727 10.581 6.675 7.659 16.32 12.052 26.462 12.052s19.786-4.393 26.461-12.052c2.721-3.123 2.396-7.86-.727-10.581s-7.861-2.396-10.582.727z"/><path d="m436.822 35.028c-20.535 22.472-42.598 31.377-59.694 34.627.899-12.441 3.221-23.104 7.273-33.702 5.215-13.64-1.639-28.98-15.278-34.195-13.674-5.228-28.967 1.605-34.195 15.278-11.3 29.552-11.845 56.226-10.881 80.248-3.653-3.827-6.815-8.053-9.461-12.651-7.283-12.657-23.505-17.029-36.162-9.746-12.686 7.299-17.048 23.474-9.747 36.163 2.926 5.086 6.101 9.739 9.44 14.002-1.531.448-3.031.91-4.475 1.398-11.377 3.847-23.908 3.847-35.286 0-1.444-.488-2.943-.951-4.474-1.398 3.339-4.263 6.514-8.915 9.44-14.001 7.299-12.686 2.943-28.862-9.747-36.162-12.656-7.284-28.88-2.911-36.163 9.746-2.645 4.598-5.807 8.824-9.46 12.651.964-24.022.419-50.696-10.881-80.248-5.229-13.672-20.521-20.507-34.195-15.278-13.671 5.227-20.507 20.521-15.279 34.195 4.052 10.598 6.374 21.261 7.273 33.702-17.094-3.252-39.157-12.157-59.692-34.63-9.85-10.779-26.635-11.535-37.415-1.685-5.222 4.772-8.273 11.292-8.592 18.359-.318 7.067 2.134 13.834 6.906 19.057 8.386 9.177 17.563 17.349 27.278 24.291 3.37 2.408 8.054 1.629 10.462-1.742 2.408-3.37 1.628-8.054-1.742-10.462-8.861-6.332-17.247-13.803-24.926-22.205-4.271-4.675-3.944-11.953.73-16.224 4.675-4.271 11.953-3.944 16.224.73 27.402 29.988 57.504 38.674 77.931 40.68 4.464.439 8.32-3.123 8.231-7.612-.355-17.968-3.106-33.099-8.658-47.618-2.266-5.929.695-12.561 6.625-14.828 5.942-2.27 12.564.708 14.827 6.625 12.085 31.605 10.743 59.265 9.08 91.058-.31 6.111 6.457 10.001 11.583 6.665 11.225-7.31 20.205-16.731 26.69-28.002 3.159-5.488 10.193-7.383 15.681-4.226 5.501 3.164 7.392 10.178 4.227 15.68-4.577 7.954-9.852 14.712-15.426 20.45-.057.054-.119.101-.174.157-9.755 9.984-22.372 18.752-36.923 24.812-3.22 1.341-5.091 4.725-4.513 8.165 3.617 21.55 13.611 40.239 31.452 58.813 4.337 4.516 4.259 11.833-.328 16.237-4.606 4.424-11.868 4.221-16.237-.327-.025-.027-.05-.053-.075-.08-7.706-8.032-15.088-17.216-20.999-26.918-1.417-2.326-3.97-3.706-6.707-3.591-28.355 1.149-53.719-6.04-74.487-19.485-5.315-3.442-6.84-10.566-3.399-15.881s10.565-6.839 15.881-3.398c13.911 9.006 29.675 14.008 45.916 15.457 5.062.453 9.133-4.187 7.972-9.172-4.062-17.436-4.09-34.475-3.282-52.189.184-4.033-2.858-7.489-6.883-7.816-15.565-1.269-30.827-5.223-45.36-11.752-3.778-1.697-8.218-.011-9.915 3.768s-.011 8.217 3.768 9.915c13.867 6.23 28.344 10.344 43.132 12.264-.039 1.283-.068 2.576-.093 3.871-11.307 4.983-21.29 12.201-29.783 21.548-11.878-5.868-26.574-2.031-33.945 9.354-7.935 12.258-4.418 28.687 7.839 36.624.193.125.39.24.583.364-2.656 8.133-4.903 16.994-6.75 26.54-6.163-4.144-12.536-7.612-19.053-10.341-17.369-7.278-36.665 5.078-37.155 23.874-.765 29.317 3.714 80.665 40.562 105.543-1.868 4.103-4 8.104-6.421 11.986-11.031 17.689-11.552 40.213-1.36 58.782 10.116 18.43 29.346 44.785 63.511 65.682 38.168 23.34 86.727 35.176 144.332 35.176 63.925 0 116.499-14.501 156.263-43.101 3.363-2.419 4.128-7.105 1.709-10.468-2.419-3.362-7.106-4.128-10.468-1.709-37.159 26.726-86.787 40.278-147.504 40.278-54.802 0-100.728-11.094-136.502-32.975-31.352-19.176-48.948-43.269-58.188-60.103-7.585-13.819-7.226-30.535.938-43.627 11.551-18.525 18.075-40.2 18.075-64.268 0-12.447.415-23.526 1.128-33.703 1.639-23.153 5.059-43.249 10.231-60.062 20.41 10.012 42.652 14.416 64.945 14.128.157.241.324.48.482.721-27.379 15.829-44.587 45.171-44.494 77.038.069 20.391 8.97 37.875 23.099 49.665 14.358 11.981 33.152 17.223 51.535 14.48 22.162-3.307 41.628-8.582 54.056-12.426 9.613-2.973 19.775-2.973 29.388 0 12.429 3.844 31.896 9.119 54.056 12.426 38.189 5.694 74.542-23.081 74.635-64.145.094-31.866-17.114-61.209-44.493-77.038.158-.241.326-.48.482-.721 22.974.297 45.077-4.382 64.945-14.128 8.901 28.933 11.359 63.496 11.359 93.765 0 24.1 6.508 45.72 18.075 64.268 8.163 13.091 8.523 29.807.938 43.627-6.761 12.316-15.285 23.773-25.335 34.052-2.896 2.962-2.843 7.71.119 10.606s7.711 2.843 10.606-.119c11.004-11.254 20.344-23.81 27.76-37.322 10.192-18.569 9.671-41.093-1.36-58.781-2.421-3.882-4.553-7.883-6.421-11.986 36.847-24.878 41.327-76.226 40.562-105.543-.23-8.793-4.776-16.894-12.161-21.67-7.447-4.816-16.79-5.639-24.994-2.204-6.517 2.73-12.89 6.198-19.054 10.342-1.846-9.546-4.093-18.407-6.75-26.54.193-.124.391-.239.584-.364 12.258-7.936 15.774-24.366 7.839-36.624-7.37-11.385-22.066-15.221-33.945-9.354-8.493-9.346-18.476-16.564-29.783-21.547-.025-1.294-.054-2.587-.093-3.869 27.351-3.534 64.386-15.83 97.659-52.242 9.873-10.805 9.121-27.54-1.686-37.415-10.781-9.851-27.565-9.094-37.415 1.686zm-301.209 126.575c-5.981-1.181-12.293-3.14-18.148-5.758 4.941-4.976 10.367-9.082 16.357-12.377.263 5.554.867 12.21 1.791 18.135zm-105.239 73.617c.216-8.286 8.705-13.64 16.366-10.43 7.609 3.186 15.033 7.553 22.117 13.004-1.133 8.396-1.989 17.311-2.579 26.671-.003.052-.007.102-.011.154-2.029 32.42.924 40.396-4.968 61.157-28.181-21.801-31.584-65.3-30.925-90.556zm412.769 2.575c7.084-5.451 14.508-9.818 22.117-13.005 3.689-1.544 7.718-1.192 11.055.965 3.273 2.117 5.209 5.567 5.311 9.465 1.405 53.875-16.294 78.991-30.941 90.507-2.599-9.191-4.008-19.169-4.008-29.699 0-19.007-.983-39.326-3.534-58.233zm-164.696-97.137c3.387-1.145 7.087-2.172 11.038-3.065 11.116 10.623 22.992 17.863 33.301 22.733-4.177 17.791-13.533 31.913-26.343 45.25-.295.307-.578.62-.855.937-7.373 1.268-14.536 3.459-21.336 6.531-11.6 5.241-24.904 5.242-36.504 0-6.799-3.072-13.962-5.263-21.335-6.531-.277-.317-.561-.63-.855-.937-12.812-13.339-22.166-27.461-26.343-45.25 10.309-4.869 22.185-12.11 33.301-22.733 3.949.894 7.649 1.92 11.037 3.065 14.475 4.894 30.419 4.894 44.894 0zm67.569 88.655c23.566 12.964 38.448 37.796 38.369 64.796-.087 32.366-28.679 53.637-57.421 49.35-21.228-3.167-39.907-8.23-51.838-11.92-12.509-3.868-25.738-3.871-38.252 0-11.931 3.689-30.609 8.752-51.838 11.92-14.199 2.12-28.672-1.95-39.712-11.161-10.977-9.16-17.666-22.18-17.709-38.193-.079-26.997 14.803-51.828 38.369-64.792 3.56 4.438 7.213 8.622 11.373 12.954 10.17 10.587 26.944 10.842 37.445.754 5.187-4.982 8.267-12.059 8.134-19.568 2.944.903 5.828 1.991 8.636 3.259 15.525 7.016 33.333 7.015 48.856 0 2.809-1.269 5.693-2.357 8.637-3.26-.13 7.299 2.793 14.439 8.134 19.569 10.351 9.926 27.144 9.968 37.445-.755 4.344-4.523 8.494-9.326 11.372-12.953zm30.371-67.71c.908-5.829 1.521-12.454 1.792-18.135 5.99 3.295 11.416 7.402 16.357 12.377-5.825 2.606-11.948 4.518-18.149 5.758zm71.508-116.457c4.271-4.674 11.548-5.003 16.224-.731 4.674 4.271 5.002 11.549.73 16.224-32.987 36.099-69.848 46.116-94.961 48.163-4.024.328-7.067 3.783-6.883 7.816.219 4.804.407 9.862.43 15.115-.002.073-.013.144-.013.217.039 12.435-.865 24.693-3.7 36.857-1.166 5.005 2.933 9.623 7.972 9.172 16.14-1.443 31.839-6.343 45.916-15.457 5.316-3.441 12.441-1.916 15.882 3.398 3.441 5.315 1.916 12.44-3.399 15.881-21.141 13.686-46.75 20.609-74.487 19.486-2.734-.112-5.29 1.265-6.707 3.591-5.893 9.671-13.277 18.867-20.992 26.91-.028.029-.054.058-.082.087-4.302 4.478-11.561 4.819-16.237.328-4.556-4.377-4.706-11.678-.328-16.237 8.984-9.353 15.973-18.735 21.165-28.497 5.12-9.625 8.492-19.618 10.287-30.317.578-3.44-1.293-6.824-4.513-8.165-13.602-5.662-26.489-14.132-36.923-24.812-.055-.056-.117-.102-.173-.156-5.574-5.738-10.85-12.497-15.427-20.451-3.165-5.5-1.275-12.514 4.227-15.68 5.477-3.151 12.516-1.274 15.681 4.226 6.486 11.272 15.466 20.693 26.691 28.002 5.126 3.338 11.893-.558 11.582-6.665-1.691-32.337-2.971-59.54 9.08-91.057 2.267-5.928 8.897-8.893 14.827-6.625 5.914 2.262 8.886 8.913 6.625 14.828-5.552 14.519-8.303 29.65-8.658 47.618-.089 4.487 3.762 8.049 8.231 7.612 20.429-2.008 50.53-10.694 77.933-40.681z"/></g></g></svg>