<svg id="Capa_1" enable-background="new 0 0 512 512" height="512" viewBox="0 0 512 512" width="512" xmlns="http://www.w3.org/2000/svg"><g><g><path d="m49.951 230.827c0-113.616 92.433-206.049 206.049-206.049 113.615 0 206.049 92.433 206.049 206.049z" fill="#e8a882"/><path d="m49.951 230.827c22.121 67.602-53.445 166.514 64.512 199.074h283.074c117.956-32.561 42.39-131.472 64.512-199.074z" fill="#e8a882"/><circle cx="422.907" cy="248.441" fill="#ffcabd" r="45.801"/><path d="m121.243 230.827h-71.292c22.121 67.603-53.445 166.514 64.512 199.074h143.954c-76.947-35.049-131.652-110.396-137.174-199.074z" fill="#e3986d"/><path d="m120.764 216.006c0-76.14 36.232-143.807 92.385-186.734-93.119 19.775-163.198 102.63-163.198 201.555h71.292c-.305-4.903-.479-9.841-.479-14.821z" fill="#e3986d"/><path d="m153.164 362.297 24.72 83.183-24.72 59.02h-65.642c0-85.721 49.574-127.691 65.622-142.203z" fill="#c7c5cb"/><path d="m424.478 504.5h-65.641l-21.971-56.818 21.971-85.386h.02c16.047 14.513 65.621 56.483 65.621 142.204z" fill="#c7c5cb"/><path d="m131.706 383.426c10.623 8.669 22.16 16.257 34.449 22.586l-12.991-43.716h-.02c-4.849 4.385-12.76 11.283-21.438 21.13z" fill="#b2b0bc"/><path d="m380.294 383.426c-8.678-9.848-16.589-16.745-21.438-21.13h-.02l-10.974 42.65c11.534-6.109 22.394-13.328 32.432-21.52z" fill="#b2b0bc"/><path d="m358.856 362.297h-.02v142.203h-205.672v-142.203h-.02c3.102-2.799 4.951-4.208 4.951-4.208h195.809s1.85 1.409 4.952 4.208z" fill="#fb8978"/><path d="m158.096 358.089s-1.849 1.409-4.951 4.208h.02v36.384c29.95 18.417 65.172 29.053 102.836 29.053s72.886-10.637 102.836-29.053v-36.384h.02c-3.102-2.799-4.951-4.208-4.951-4.208z" fill="#f67561"/><path d="m193.203 352.19v57.144c0 18.747 15.197 33.944 33.944 33.944h57.706c18.747 0 33.944-15.197 33.944-33.944v-57.144z" fill="#c7c5cb"/><path d="m193.203 409.333c0 2.928.371 5.769 1.068 8.479 19.425 6.429 40.176 9.921 61.729 9.921s42.304-3.492 61.729-9.921c.697-2.71 1.068-5.551 1.068-8.479v-57.143h-125.594z" fill="#b2b0bc"/><path d="m129.473 121.978c-25.164 29.224-40.38 67.258-40.38 108.848 0 92.18 74.727 166.907 166.907 166.907s166.907-74.727 166.907-166.907c0-41.59-15.216-79.625-40.38-108.848z" fill="#ffdcce"/><path d="m192.915 385.386c-44.469-42.745-72.151-102.827-72.151-169.38 0-33.437 7.001-65.234 19.592-94.028h-10.884c-19.366 22.49-32.83 50.202-38.011 80.734-.785-.041-1.573-.073-2.368-.073-25.295 0-45.801 20.506-45.801 45.801s20.506 45.801 45.801 45.801c4.096 0 8.065-.542 11.844-1.551 16.777 42.007 50.133 75.599 91.978 92.696z" fill="#ffcabd"/><g><g><g><ellipse cx="156.484" cy="253.174" fill="#ffb2c1" rx="36.72" ry="29.242"/></g><g><ellipse cx="355.516" cy="253.174" fill="#ffb2c1" rx="36.72" ry="29.242"/></g></g></g><path d="m256 265.205-72.8 26.189s4.824 28.221 23.059 51.028c25.621 32.048 73.862 32.048 99.483 0 18.234-22.808 23.059-51.028 23.059-51.028z" fill="#e3986d"/><path d="m256 286.448c-25.417 31.771-62.866 18.605-82.617 8.171-4.79-2.53-5.132-9.183-.693-12.289 11.322-7.922 17.914-25.269 27.266-33.985 14.529-13.541 39.56-21.767 56.044-6.822 16.484-14.946 41.515-6.719 56.044 6.822 9.352 8.716 15.944 26.063 27.266 33.985 4.439 3.106 4.097 9.759-.693 12.289-19.751 10.434-57.2 23.6-82.617-8.171z" fill="#e8a882"/><path d="m441.357 64.301c-10.277-5.683-22.894-4.758-32.32 2.246-15.077 11.203-41.547 24.767-74.921 16.752-24.99-6.002-39.532-33.561-46.992-53.724-4.376-11.826-14.922-20.496-27.456-21.874-15.192-1.67-29.42 7.185-34.565 21.257-7.39 20.214-21.973 48.278-47.219 54.341-33.373 8.015-59.843-5.549-74.921-16.752-9.426-7.004-22.043-7.929-32.32-2.246-10.638 5.883-16.639 17.636-15.165 29.703l3.24 26.525c2.608 21.348 20.733 37.394 42.24 37.394h310.085c21.506 0 39.632-16.046 42.24-37.394l3.24-26.525c1.473-12.067-4.527-23.821-15.166-29.703z" fill="#f8d070"/><ellipse cx="256" cy="96.304" fill="#fb8978" rx="19.044" ry="25.675"/><path d="m160.216 85.675c-25.047.729-44.947-9.983-57.254-19.128-9.426-7.004-22.043-7.929-32.32-2.246-10.638 5.883-16.639 17.636-15.165 29.703l3.24 26.525c2.608 21.347 20.734 37.394 42.24 37.394h27.05c6.64-26.105 17.653-50.46 32.209-72.248z" fill="#f2c13b"/></g><g><path d="m177.884 232.526c4.142 0 7.5-3.358 7.5-7.5v-15.011c0-4.142-3.358-7.5-7.5-7.5s-7.5 3.358-7.5 7.5v15.011c0 4.142 3.358 7.5 7.5 7.5z"/><path d="m326.616 225.026c0 4.142 3.358 7.5 7.5 7.5s7.5-3.358 7.5-7.5v-15.011c0-4.142-3.358-7.5-7.5-7.5s-7.5 3.358-7.5 7.5z"/><path d="m256 129.48c14.884 0 26.544-14.572 26.544-33.174s-11.66-33.175-26.544-33.175-26.544 14.572-26.544 33.174 11.66 33.175 26.544 33.175zm0-51.349c6.15 0 11.544 8.493 11.544 18.174s-5.394 18.175-11.544 18.175-11.544-8.493-11.544-18.174 5.394-18.175 11.544-18.175z"/><path d="m93.626 430.772c-8.048 20.055-13.602 44.421-13.602 73.728 0 4.142 3.357 7.5 7.5 7.5h336.953c4.142 0 7.5-3.358 7.5-7.5 0-29.307-5.554-53.673-13.602-73.727 27.939-11.409 44.825-28.756 51.5-52.862 6.263-22.621 2.749-48.244-.65-73.024-1.148-8.366-2.309-16.975-3.086-25.326 6.326-8.763 10.068-19.509 10.068-31.118 0-9.474-2.496-18.371-6.848-26.089-1.055-26.92-7.067-52.953-17.904-77.48 4.905-6.703 8.202-14.691 9.27-23.433l3.24-26.525c3.984-32.613-33.063-53.956-59.402-34.386-3.241 2.408-6.918 4.846-10.997 7.11-29.486-24.904-64.817-41.254-102.702-47.5-6.523-10.946-17.798-18.507-30.377-19.89-16.279-1.791-31.67 6.213-39.535 19.919-37.816 6.269-73.081 22.608-102.518 47.471-4.079-2.264-7.756-4.701-10.997-7.11-26.383-19.602-63.381 1.814-59.402 34.385l3.24 26.525c1.068 8.742 4.364 16.73 9.27 23.433-10.837 24.528-16.849 50.561-17.904 77.482-4.351 7.717-6.847 16.614-6.847 26.088 0 11.609 3.742 22.355 10.068 31.118-.777 8.351-1.938 16.959-3.085 25.326-3.399 24.78-6.914 50.403-.65 73.025 6.673 24.104 23.56 41.452 51.499 52.86zm-42.833-182.33c0-18.785 13.714-34.733 31.944-37.761-2.926 25.616-.246 51.63 8.002 76.007-21.927.943-39.946-16.645-39.946-38.246zm370.468 38.247c4.636-13.7 7.518-27.868 8.624-42.334.012-.152.021-.305.032-.458.809-10.969.618-22.068-.654-33.216 18.231 3.016 31.943 18.983 31.943 37.761.001 21.828-18.171 39.178-39.945 38.247zm-109.964 109.651v12.993c0 14.581-11.862 26.444-26.444 26.444h-57.705c-14.581 0-26.444-11.863-26.444-26.444v-12.993c18.004 6.006 36.804 8.893 55.296 8.893 18.456.001 37.258-2.874 55.297-8.893zm-158.132 65.286c-4.143 0-7.5 3.358-7.5 7.5v27.874h-50.508c1.607-44.801 17.65-84.602 50.508-117.454v59.581c0 4.142 3.357 7.5 7.5 7.5 4.142 0 7.5-3.358 7.5-7.5v-62.22c8.017 5.261 16.384 9.812 25.039 13.636v18.791c0 22.852 18.591 41.444 41.444 41.444h57.705c22.852 0 41.444-18.592 41.444-41.444v-18.791c8.655-3.824 17.022-8.375 25.039-13.636v120.093h-190.671v-27.874c0-4.142-3.359-7.5-7.5-7.5zm213.171 35.374v-117.454c32.718 32.712 48.895 72.497 50.508 117.454zm45.871-79.904c-13.39-26.607-30.629-44.126-41.903-54.542 19.427-16.873 34.922-37.84 45.295-61.315 12.899 1.772 26.056-1.203 36.889-8.446.589 4.747 1.238 9.478 1.876 14.132 6.481 47.255 12.108 88.298-42.157 110.171zm14.582-221.816c-2.046-9.887-5.059-20.016-9.245-30.283 7.848-1.026 15.656-4.003 22.433-8.802 6.306 15.461 10.586 31.536 12.797 48.049-7.616-5.162-16.528-8.29-25.985-8.964zm-90.921-119.271c-17.826-4.282-29.989-22.46-37.669-39.205 29.092 6.315 56.327 19.122 79.903 37.58-13.356 4.346-27.532 5.155-42.234 1.625zm-201.97-1.626c23.575-18.456 50.811-31.264 79.903-37.58-7.528 16.569-19.817 34.92-37.668 39.205-14.048 3.373-28.221 2.936-42.235-1.625zm-35.408-1.814c13.634 10.13 33.888 20.684 59.104 20.683 11.173-.001 24.414-2.053 34.311-7.343 20.563-10.994 33.076-34.774 40.242-54.373 3.997-10.931 14.977-17.664 26.701-16.377 10.131 1.114 18.041 8.368 21.242 17.021 8.495 22.961 24.46 51.733 52.274 58.413 28.975 6.962 57.038-.112 81.145-18.024 15.869-11.794 37.942 1.088 35.566 20.526l-3.24 26.525c-2.144 17.553-17.13 30.804-34.794 30.804-10.847 0-46.06 0-61.882 0-4.142 0-7.5 3.358-7.5 7.5s3.358 7.5 7.5 7.5h52.233c11.264 24.997 15.495 51.709 13.559 77.476-.017.223-.038.445-.055.668-6.573 82.727-76.026 146.666-158.896 146.666-97.432 0-173.857-87.864-157.142-186.276 2.255-13.279 6.178-26.183 11.75-38.534h208.552c4.142 0 7.5-3.358 7.5-7.5s-3.358-7.5-7.5-7.5c-11.837 0-206.035 0-218.201 0-17.601 0-32.643-13.183-34.795-30.803l-3.24-26.525c-2.378-19.464 19.721-32.299 35.566-20.527zm-26.468 83.626c6.666 4.714 14.421 7.754 22.434 8.802-4.043 9.91-7.126 20.046-9.245 30.283-9.456.674-18.369 3.802-25.987 8.965 2.212-16.513 6.492-32.588 12.798-48.05zm-14.385 150.729c.638-4.653 1.287-9.385 1.876-14.131 11.116 7.433 24.36 10.174 36.889 8.446 10.372 23.475 25.867 44.442 45.295 61.315-11.274 10.417-28.513 27.936-41.903 54.542-54.266-21.873-48.639-62.917-42.157-110.172z"/><path d="m317.157 242.86c-16.169-15.069-42.045-23.049-61.157-10.76-19.111-12.288-44.989-4.309-61.157 10.76-10.121 9.434-16.809 26.58-26.452 33.326-9.055 6.336-8.242 19.926 1.489 25.066 2.713 1.433 5.824 2.949 9.228 4.416 3.626 11.74 10.096 27.434 21.292 41.439 13.643 17.065 33.909 26.852 55.6 26.852s41.956-9.788 55.599-26.852c11.196-14.004 17.667-29.699 21.293-41.439 3.404-1.467 6.515-2.982 9.228-4.416 9.732-5.141 10.542-18.732 1.489-25.065-9.65-6.754-16.326-23.89-26.452-33.327zm-17.274 94.88c-10.781 13.485-26.775 21.219-43.883 21.219s-33.103-7.734-43.884-21.219c-6.809-8.517-11.624-17.949-14.916-26.014 4.262 1 9.857 1.913 15.055 2.129 17.218.724 31.898-4.745 43.745-16.252 11.424 11.097 25.919 16.993 43.745 16.252 5.153-.214 10.745-1.118 15.056-2.129-3.293 8.065-8.109 17.497-14.918 26.014zm-.762-38.872c-15.168.626-27.508-4.908-37.265-17.104-2.999-3.749-8.712-3.752-11.713 0-10.003 12.504-22.519 17.725-37.265 17.104-12.13-.505-24.736-4.994-35.538-10.64 12.66-9.086 19.359-26.595 27.728-34.394 12.751-11.883 33.169-18.288 45.893-6.752 2.859 2.592 7.217 2.593 10.075 0 12.724-11.536 33.142-5.131 45.893 6.752 8.458 7.883 15.025 25.269 27.728 34.394-10.778 5.634-23.38 10.134-35.536 10.64z"/></g></g></svg>