<svg id="Capa_1" enable-background="new 0 0 512 512" height="512" viewBox="0 0 512 512" width="512" xmlns="http://www.w3.org/2000/svg"><g><g><path d="m35.703 218.581c0-116.39 94.691-211.081 211.082-211.081s211.081 94.691 211.081 211.081z" fill="#fb8978"/><path d="m462.045 307.563c-5.831-21.614-9.578-50.131-7.592-86.967l-418.75-2.014c-34.703 181.241 76.815 236.245 76.815 236.245l257.221 13.711 60.503-3.394 19.716-80.977z" fill="#fb8978"/><path d="m114.768 221.06c0-.701.021-1.398.027-2.098l-79.091-.38c-34.704 181.241 76.814 236.245 76.814 236.245l175.279 9.343c-100.708-34.872-173.029-130.539-173.029-243.11z" fill="#f67561"/><path d="m227.243 8.413c-107.263 9.894-191.54 100.367-191.54 210.169h79.096c.826-87.358 45.186-164.299 112.444-210.169z" fill="#f67561"/><path d="m423.164 504.5h-64.186l-112.196-21.029-112.195 21.029h-49.927c0-111.594 79.883-143.039 79.883-143.039h164.489s67.926 26.742 78.497 118.42z" fill="#ffdcce"/><path d="m329.032 361.461h-164.489s-14.944 5.89-31.903 21.594c32.407 22.559 71.755 35.81 114.147 35.812h.576c41.231-.117 80.535-12.625 113.665-35.727-16.998-15.773-31.996-21.679-31.996-21.679z" fill="#ffcabd"/><path d="m164.543 361.461h39.153v103.684h-39.153z" fill="#e8a882"/><path d="m290.859 361.461h39.153v103.684h-39.153z" fill="#e8a882" transform="matrix(-1 0 0 -1 620.871 826.605)"/><path d="m359.141 499.982c0 1.52-.051 3.029-.163 4.518h-224.391c-.112-1.489-.163-2.999-.163-4.518 0-34.811 28.222-63.034 63.034-63.034 19.981 0 37.779 9.312 49.325 23.816 11.546-14.504 29.344-23.816 49.335-23.816 34.811 0 63.023 28.222 63.023 63.034z" fill="#78cbec"/><circle cx="419.108" cy="224.701" fill="#ffcabd" r="47.613"/><path d="m330.012 400.856v-39.395h-39.153v52.562c13.518-3.022 26.624-7.439 39.153-13.167z" fill="#e3986d"/><path d="m203.696 414.182v-52.722h-39.153v39.729c12.43 5.621 25.536 9.995 39.153 12.993z" fill="#e3986d"/><path d="m408.732 165.817c-4.878-14.975-18.112-25.666-33.784-27.236-53.852-5.395-87.068-20.644-106.148-33.408-13.329-8.916-30.701-8.916-44.03 0-19.082 12.764-52.3 28.014-106.156 33.409-15.46 1.549-28.731 11.924-33.594 26.68-5.528 16.773-8.517 34.699-8.517 53.321-.001 93.981 76.795 170.55 170.775 170.283 93.824-.266 169.789-76.406 169.789-170.282 0-18.416-2.923-36.153-8.335-52.767z" fill="#ffdcce"/><path d="m477.399 270.748-7.716-17.709c-3.505-8.044-14.609-8.826-19.206-1.351l-10.12 16.455c-12.029 19.56-16.407 42.874-12.293 65.465l4.714 25.883 18.375 19.755 20.96-16.988 8.291-24.968c7.238-21.794 6.167-45.492-3.005-66.542z" fill="#c7c5cb"/><path d="m451.854 278.138c0-10.464 1.072-20.678 3.106-30.539-1.757.851-3.326 2.207-4.483 4.088l-10.12 16.455c-12.029 19.56-16.407 42.874-12.293 65.465l4.714 25.883 18.375 19.755 20.96-16.988 1.857-5.592c-14.024-22.856-22.116-49.745-22.116-78.527z" fill="#b2b0bc"/><path d="m399.262 390.731h99.394v39.433h-99.394z" fill="#e8a882" transform="matrix(.07 -.998 .998 .07 8.018 829.497)"/><path d="m468.547 412.965c-8.824-3.861-18.557-6.017-28.788-6.017-3.523 0-6.984.266-10.373.757l-3.583 50.934 39.336 2.767z" fill="#e3986d"/><path d="m439.759 436.948c-23.237 0-42.073 18.837-42.073 42.073 0 14.071 11.407 25.479 25.479 25.479h33.19c14.071 0 25.479-11.407 25.479-25.479-.002-23.236-18.838-42.073-42.075-42.073z" fill="#ffdcce"/><path d="m425.108 452.344c0-4.633.629-9.117 1.785-13.385-16.942 5.437-29.208 21.314-29.208 40.062 0 14.071 11.407 25.479 25.479 25.479h33.19c3.565 0 6.958-.735 10.039-2.057-23.52-4.555-41.285-25.248-41.285-50.099z" fill="#ffcabd"/><path d="m157.952 363.744c-27.273-40.831-43.185-89.897-43.185-142.684 0-29.278 4.903-57.409 13.913-83.63-3.273.422-6.627.808-10.067 1.152-15.46 1.549-28.731 11.924-33.594 26.68-1.335 4.05-2.518 8.169-3.551 12.348-2.287-.338-4.625-.522-7.006-.522-26.296 0-47.613 21.317-47.613 47.613s21.317 47.613 47.613 47.613c3.571 0 7.048-.399 10.393-1.145 12.663 38.803 38.912 71.555 73.097 92.575z" fill="#ffcabd"/><path d="m184.403 446.324c0-2.718.102-5.412.292-8.082-28.693 5.901-50.272 31.3-50.272 61.739 0 1.52.051 3.029.163 4.519h66.068c-10.312-16.961-16.251-36.875-16.251-58.176z" fill="#59c2e7"/><g><g><g><ellipse cx="148.707" cy="250.127" fill="#ffb2c1" rx="36.189" ry="28.819"/></g><g><ellipse cx="344.862" cy="250.127" fill="#ffb2c1" rx="36.189" ry="28.819"/></g></g></g></g><g><path d="m169.793 229.885c4.142 0 7.5-3.358 7.5-7.5v-14.793c0-4.142-3.358-7.5-7.5-7.5s-7.5 3.358-7.5 7.5v14.793c0 4.142 3.357 7.5 7.5 7.5z"/><path d="m323.766 229.885c4.142 0 7.5-3.358 7.5-7.5v-14.793c0-4.142-3.358-7.5-7.5-7.5s-7.5 3.358-7.5 7.5v14.793c0 4.142 3.358 7.5 7.5 7.5z"/><path d="m246.779 238.691c9.946 0 19.405-4.308 25.951-11.819 2.722-3.123 2.396-7.86-.726-10.582-3.123-2.722-7.861-2.396-10.582.726-3.697 4.242-9.035 6.675-14.644 6.675s-10.946-2.433-14.643-6.674c-2.721-3.124-7.459-3.448-10.582-.727s-3.448 7.459-.727 10.582c6.548 7.511 16.007 11.819 25.953 11.819z"/><path d="m487.518 339.652c7.832-23.584 6.678-49.119-3.249-71.901l-7.716-17.708c-1.239-2.843-3.138-5.254-5.474-7.094 2.05-5.848 3.137-12.036 3.137-18.247 0-12.018-3.878-23.141-10.432-32.208-6.216-51.986-31.031-100.065-70.049-135.57-3.063-2.788-7.808-2.564-10.595.499-2.788 3.063-2.564 7.807.499 10.595 31.869 29 53.576 66.994 62.343 108.542-8.783-4.917-18.591-7.199-28.259-6.953-.392-1.374-1.079-3.7-1.865-6.111-5.752-17.656-21.418-30.497-40.167-32.376-34.708-3.478-73.529-12.649-102.726-32.179-15.929-10.653-36.486-10.625-52.37 0-29.133 19.487-67.824 28.683-102.733 32.18-18.526 1.856-34.216 14.336-39.97 31.795-.731 2.218-1.417 4.449-2.059 6.691-9.594-.25-19.39 1.989-28.257 6.955 8.824-41.849 30.754-80.052 62.979-109.129 37.47-33.812 85.849-52.433 136.224-52.433 40.817 0 80.226 12.097 113.965 34.982 3.428 2.324 8.091 1.432 10.417-1.997 2.325-3.428 1.431-8.092-1.997-10.417-36.233-24.577-78.554-37.568-122.385-37.568-54.094 0-106.042 19.993-146.273 56.294-39.418 35.568-64.476 83.871-70.731 136.202-6.553 9.066-10.43 20.188-10.43 32.205 0 7.733 1.608 15.095 4.496 21.781-4.941 42.721-1.907 81.637 9.062 115.682 1.27 3.942 5.493 6.107 9.439 4.838 3.942-1.271 6.108-5.496 4.838-9.439-8.845-27.453-12.194-58.433-10-92.313 11.72 10.783 27.214 15.798 42.567 14.305 12.705 34.711 36.007 64.018 64.885 84.44-22.434 15.056-41.503 37.564-53.365 65.574-10.052-9.617-22.012-23.734-32.116-43.191-1.909-3.676-6.437-5.107-10.113-3.2-3.676 1.909-5.108 6.437-3.2 10.113 12.645 24.349 28.015 41.065 39.854 51.513-5.674 18.211-8.539 38.153-8.539 59.696 0 4.142 3.358 7.5 7.5 7.5h49.927 288.574.001.002 33.189c18.185 0 32.979-14.794 32.979-32.979 0-14.092-5.92-26.819-15.392-35.854l5.589-79.443zm-138.475 24.411c29.194-20.612 52.269-50.044 64.822-84.503 3.671.353 8.435.309 12.465-.225-7.045 17.469-9.058 36.9-5.65 55.614l4.545 24.954c-2.08 29.566-2.806 39.891-5.179 73.626-4.823 2.088-9.26 4.922-13.164 8.383-11.058-33.408-31.652-60.251-57.839-77.849zm2.511 132.937h-209.553c1.557-29.154 25.784-52.552 55.452-52.552 16.429 0 32.531 7.261 43.458 20.987 3 3.77 8.735 3.77 11.735 0 9.774-12.278 23.786-19.509 38.751-20.768.026-.002.051 0 .076-.002 31.462-2.607 58.424 21.31 60.081 52.335zm-179.516-62.823v-54.279c7.814 3.64 15.882 6.699 24.152 9.153v40.408c-7.853.138-16.332 1.698-24.152 4.718zm111.316-41.566v38.002c-14.209 2.589-26.742 9.309-36.577 18.965-9.443-9.272-21.705-16.062-35.587-18.796v-37.987c23.729 4.825 48.447 4.751 72.164-.184zm15 36.872v-40.681c8.276-2.496 16.345-5.595 24.152-9.274v55.044c-7.369-2.98-15.741-4.826-24.152-5.089zm160.862-204.782c0 5.073-.924 9.971-2.75 14.611-3.147.563-6.035 1.904-8.6 4.05-3.462 2.937-4.55 5.707-12.018 17.787-5.096 2.381-11.004 3.733-17.331 3.649 4.174-15.611 6.046-31.325 6.046-46.211v-.001c0-11.221-1.068-22.685-3.242-33.934 22.731 1.714 37.895 19.906 37.895 40.049zm14.066 110.224-6.456 19.442-27.718-1.95-3.671-20.153c-3.789-20.804.225-42.181 11.303-60.192.068-.11 10.197-16.575 10.134-16.475 1.38-2.213 4.815-2.113 5.927.438l7.716 17.708c8.447 19.386 9.429 41.114 2.765 61.182zm-353.926-188.88c37.284-3.735 78.298-13.713 109.578-34.638 11-7.358 25.079-7.098 35.69 0 34.38 22.999 78.561 31.53 109.571 34.637 12.583 1.261 23.41 9.848 27.4 22.097 5.031 15.449 7.966 32.521 7.966 50.444 0 57.964-30.512 110.187-78.527 139.3-.013.008-.024.018-.036.026-50.022 30.303-115.08 32.221-168.258-.021-.031-.02-.058-.044-.09-.063-33.264-20.204-58.517-51.694-70.682-88.986-5.409-16.583-7.972-33.56-7.972-50.257 0-17.512 2.807-34.797 8.14-50.973 3.89-11.798 14.545-20.297 27.22-21.566zm-85.011 78.656c0-21.336 16.829-38.942 37.893-40.051-2.086 10.861-3.241 22.145-3.241 33.932 0 15.586 2.044 31.201 6.079 46.214-22.234.334-40.731-17.671-40.731-40.095zm122.693 149.162v68.361c-17.817 12.504-29.136 32.677-30.058 54.776h-34.697c2.629-76.226 45.023-111.03 64.755-123.137zm209.536 123.137c-.894-21.369-11.676-41.449-29.068-54.088v-68.455c29.163 18.197 49.117 47.857 58.043 82.129-6.417 12.639-7.787 28.518-.026 40.414zm89.775 0h-33.189c-14.934 0-24.36-17.143-12.975-35.878.012-.019.024-.038.036-.057 6.302-10.328 17.484-16.617 29.534-16.617 18.942 0 34.573 15.393 34.573 34.574-.001 9.913-8.066 17.978-17.979 17.978zm-16.595-67.552c-1.519 0-3.281.095-4.397.193 1.452-20.643 2.907-41.32 4.372-62.144l24.373 1.714-4.529 64.38c-.014-.006-.028-.011-.042-.017-6.064-2.647-12.749-4.126-19.777-4.126z"/></g></g></svg>