<svg id="Capa_1" enable-background="new 0 0 512 512" height="512" viewBox="0 0 512 512" width="512" xmlns="http://www.w3.org/2000/svg"><g><g><g><path d="m256 494.392c-49.332 0-94.531-14.977-127.272-42.171-17.357-14.416-30.895-31.849-40.237-51.815-9.736-20.808-14.673-43.902-14.673-68.645v-98.548h45.485v98.548c0 58.31 42.268 117.146 136.697 117.146 68.041 0 136.697-36.223 136.697-117.146v-98.548h45.485v98.548c0 24.742-4.936 47.837-14.673 68.645-9.343 19.966-22.881 37.398-40.237 51.815-32.741 27.194-77.941 42.171-127.272 42.171z" fill="#e8a882"/></g><path d="m293.01 14.337c-23.848-9.116-50.173-9.116-74.02 0-49.846 19.053-134.004 68.987-148.463 191.352l185.473 85.559 185.473-85.559c-14.459-122.365-98.617-172.299-148.463-191.352z" fill="#b2b0bc"/><g fill="#e3986d"><path d="m392.697 292.608c2.861-.53 5.782-1.024 8.769-1.477 8.887-1.346 18.987-2.379 29.211-2.988 2.554-.152 5.056-.485 7.505-.964v-53.966h-45.485z"/><path d="m73.819 287.178c2.499.49 5.055.826 7.665.977 10.074.58 19.848 1.582 29.053 2.977 2.986.452 5.907.946 8.767 1.476v-59.394h-45.485z"/></g><path d="m135.484 183.054c0-60.632 22.533-115.994 59.668-158.196-49.212 24.755-112.288 76.424-124.625 180.831l71.456 32.963c-4.241-17.844-6.499-36.456-6.499-55.598z" fill="#a19dae"/><path d="m425.742 187.504c-11.809.655-24.526 1.822-37.645 3.748-40.755 5.987-75.441 17.854-103.246 35.114-17.717 10.998-39.986 10.998-57.703 0-27.805-17.26-62.491-29.127-103.246-35.114-13.122-1.925-25.838-3.092-37.644-3.748-15.248-.846-28.086 11.255-28.086 26.526v17.653c0 14.08 10.979 25.712 25.035 26.521 10.026.577 20.794 1.594 31.821 3.266 26.027 3.942 48.325 10.684 66.276 20.064 11.863 6.191 21.611 13.355 29.404 21.647 11.557 12.298 27.485 19.552 44.361 19.552h1.862c16.876 0 32.804-7.254 44.361-19.552 7.793-8.292 17.541-15.456 29.404-21.647 17.951-9.38 40.249-16.122 66.276-20.064 10.36-1.569 21.423-2.648 31.923-3.273 14.014-.834 24.933-12.476 24.933-26.515v-17.652c0-15.271-12.838-27.372-28.086-26.526z" fill="#f8d070"/><g><g><g><ellipse cx="164.446" cy="143.224" fill="#ffefe0" rx="33.782" ry="26.902"/></g><g><ellipse cx="347.554" cy="143.224" fill="#ffefe0" rx="33.782" ry="26.902"/></g></g></g><path d="m256 494.392c37.583 0 72.761-8.702 101.866-24.868v-15.474c0-11.811-3.996-22.703-10.698-31.419-25.339 17.834-58.324 26.277-91.168 26.277-39.085 0-69.225-10.086-91.139-26.036-6.718 8.745-10.728 19.688-10.728 31.56v15.093c29.105 16.165 64.283 24.867 101.867 24.867z" fill="#e3986d"/><path d="m300.255 433.123c-13.8 3.727-28.731 5.677-44.255 5.677-16.159 0-31.165-1.84-44.794-5.438-13.699-3.617-27.072 6.902-27.072 21.07v22.571c0 10.076 6.925 18.824 16.727 21.16 17.513 4.173 36.038 6.337 55.139 6.337s37.626-2.164 55.139-6.337c9.802-2.336 16.727-11.083 16.727-21.16v-22.953c0-14.4-13.71-24.681-27.611-20.927z" fill="#b2b0bc"/><path d="m135.713 193.202c-3.884-.701-7.809-1.362-11.811-1.95-13.122-1.925-25.838-3.093-37.644-3.748-15.248-.846-28.086 11.255-28.086 26.526v17.653c0 14.08 10.979 25.711 25.035 26.521 10.026.577 20.794 1.594 31.821 3.266 13.176 1.995 25.391 4.711 36.575 8.121-9.243-23.851-14.771-49.549-15.89-76.389z" fill="#f2c13b"/><path d="m240.786 438.211c-10.442-.797-20.334-2.408-29.579-4.849-13.699-3.617-27.072 6.902-27.072 21.07v22.571c0 10.076 6.925 18.824 16.727 21.16 17.513 4.173 36.038 6.337 55.139 6.337 8.121 0 16.128-.415 24.007-1.185-20.571-15.453-35.055-38.566-39.222-65.104z" fill="#a19dae"/></g><g><path d="m176.635 103.523v13.809c0 4.142 3.358 7.5 7.5 7.5s7.5-3.358 7.5-7.5v-13.809c0-4.142-3.358-7.5-7.5-7.5s-7.5 3.358-7.5 7.5z"/><path d="m320.365 103.523v13.809c0 4.142 3.358 7.5 7.5 7.5s7.5-3.358 7.5-7.5v-13.809c0-4.142-3.358-7.5-7.5-7.5s-7.5 3.358-7.5 7.5z"/><path d="m269.293 111.994c-3.355 3.851-8.201 6.059-13.293 6.059s-9.937-2.208-13.292-6.059c-2.721-3.124-7.459-3.448-10.581-.727-3.123 2.721-3.448 7.459-.727 10.581 6.205 7.121 15.172 11.204 24.601 11.204 9.43 0 18.396-4.084 24.601-11.204 2.721-3.123 2.396-7.86-.727-10.581s-7.861-2.397-10.582.727z"/><path d="m176.635 454.433v17.569c-16.109-6.565-30.573-15.132-43.113-25.549-8.387-6.966-15.93-14.779-22.418-23.221-2.524-3.284-7.232-3.901-10.517-1.376-3.284 2.524-3.9 7.232-1.376 10.517 7.165 9.324 15.485 17.944 24.727 25.62 15.839 13.157 34.42 23.585 55.263 31.038 3.626 8.07 10.833 14.264 19.922 16.43 18.216 4.338 37.352 6.539 56.877 6.539s38.661-2.201 56.877-6.541c9.09-2.166 16.296-8.36 19.922-16.43 20.843-7.453 39.422-17.881 55.263-31.038 18.212-15.127 32.423-33.431 42.238-54.405 10.205-21.808 15.38-45.973 15.38-71.822v-71.425c9.433-6.083 15.647-16.689 15.647-28.654v-17.651c0-9.454-3.782-18.238-10.648-24.734-1.473-1.394-3.049-2.631-4.7-3.724-8.124-43.349-25.932-80.94-52.971-111.771-2.731-3.115-7.47-3.426-10.583-.694-3.114 2.731-3.425 7.469-.694 10.583 23.507 26.805 39.562 59.176 47.813 96.352-10-.51-38.127 2.886-52.811 5.461-37.22 6.525-69.43 18.098-95.836 34.49-15.356 9.533-34.435 9.532-49.791 0-28.811-17.885-64.511-30.051-106.112-36.162-12.731-1.868-36.294-4.218-42.537-3.789 9.406-42.409 28.911-78.443 58.082-107.247 27.912-27.562 59.525-43.192 81.13-51.451 22.139-8.463 46.525-8.463 68.664 0 18.293 6.992 45.431 19.944 70.837 41.936 3.132 2.711 7.869 2.37 10.579-.762 2.711-3.132 2.37-7.868-.762-10.579-21.721-18.803-47.055-33.811-75.298-44.607-25.592-9.782-53.783-9.782-79.375 0-47.235 18.056-129.09 65.148-150.283 178.235-9.417 6.229-15.356 16.611-15.356 28.463v17.653c0 11.964 6.211 22.561 15.646 28.644v71.433c0 25.848 5.175 50.012 15.38 71.822 1.755 3.752 6.22 5.37 9.972 3.614 3.751-1.755 5.37-6.22 3.614-9.972-9.267-19.805-13.966-41.831-13.966-65.465v-66.183c2.957.298 13.887.618 30.485 3.017v63.168c0 23.715 6.52 46.427 18.856 65.68 11.772 18.373 28.729 33.169 49.404 43.206-2.275 4.264-3.431 9.035-3.431 13.782zm132.765 36.434c-17.078 4.07-35.045 6.133-53.4 6.133s-36.321-2.063-53.4-6.133c-6.756-1.61-10.965-7.608-10.965-13.864v-22.571c0-9.217 8.689-16.184 17.658-13.819 14.292 3.773 30.007 5.686 46.707 5.686 16.078 0 31.626-1.997 46.21-5.936 9.078-2.454 18.044 4.17 18.147 13.526 0 .054.009.105.009.159v22.953c0 .031-.003.063-.003.095-.046 6.567-4.541 12.241-10.963 13.771zm121.279-225.287v66.184c0 23.636-4.699 45.662-13.966 65.465-8.871 18.958-21.736 35.519-38.236 49.223-12.541 10.417-27.005 18.984-43.112 25.549v-17.951c0-4.712-1.145-9.526-3.487-13.859 19.004-9.047 34.427-21.408 45.937-36.837 14.85-19.907 22.38-43.993 22.38-71.59v-63.18c16.355-2.349 27.478-2.707 30.484-3.004zm-365.005-51.546c0-11.001 9.227-19.627 20.17-19.038 12.095.671 24.595 1.864 36.969 3.68 39.555 5.811 73.327 17.272 100.38 34.065 20.197 12.532 45.345 12.582 65.614 0 27.052-16.793 60.825-28.254 100.378-34.065 19.262-2.827 37.378-3.7 36.999-3.68 10.788-.573 20.142 7.916 20.142 19.038v17.651c0 10.094-7.923 18.437-17.879 19.028-34.019 2.025-71.14 8.456-101.222 24.175-12.722 6.639-22.992 14.214-31.4 23.16-21.639 23.026-58.049 22.988-79.652 0-8.407-8.946-18.678-16.521-31.396-23.158-29.902-15.625-67.447-22.23-101.138-24.169-10.129-.585-17.966-9.029-17.966-19.033v-17.654zm77.617 175.318c-10.786-16.833-16.486-36.747-16.486-57.588v-60.619c19.72 3.919 36.847 9.629 51.03 17.04 11.206 5.848 20.172 12.434 27.408 20.135 27.545 29.309 73.968 29.31 101.514 0 7.237-7.701 16.202-14.286 27.412-20.136 14.181-7.41 31.307-13.12 51.027-17.039v60.619c0 59.294-38.813 85.904-64.469 97.007-6.749-3.9-14.729-4.966-22.427-2.888-13.309 3.595-27.541 5.417-42.299 5.417-15.409 0-29.836-1.746-42.878-5.189-7.569-1.999-15.437-.866-22.082 3.078-20.44-8.886-36.494-22.27-47.75-39.837z"/></g></g></svg>