<svg id="Capa_1" enable-background="new 0 0 512 512" height="512" viewBox="0 0 512 512" width="512" xmlns="http://www.w3.org/2000/svg"><g><g><path d="m141.499 149.133-28.5 57.061-52.749.785-26.689-48.648 81.052-122.764z" fill="#fbe5c8"/><path d="m370.501 149.137 28.5 57.061 52.749.786 26.689-48.649-81.052-122.764z" fill="#fbe5c8"/><path d="m304.956 19.667c-13.096 0-24.688 8.468-28.672 20.943l-13.528 42.366c-2.102 6.583-11.417 6.583-13.519 0l-13.526-42.366c-3.983-12.475-15.576-20.943-28.672-20.943h-38.9v433.296h175.717v-433.296z" fill="#fbe5c8"/><path d="m59.489 200.23c0-51.614 25.448-97.281 64.479-125.147l-9.355-39.516-81.052 122.764 26.04 47.465c-.067-1.849-.112-3.702-.112-5.566z" fill="#fbdab2"/><path d="m168.139 199.015v253.948h175.717v-17.226c-96.93-37.799-167.36-128.558-175.717-236.722z" fill="#fbdab2"/><path d="m114.608 35.571c.677 25 5.522 67.508 26.893 113.56 12.042 25.95 10.49 56.228-3.922 80.941-27.289 46.796-66.792 130.427-74.771 232.782-1.543 19.789 14.165 36.68 34.014 36.68h79.043c17.907 0 32.764-13.848 34.021-31.711l15.848-225.19c3.048-43.313-.961-86.834-11.872-128.861l-21.931-84.476c-2.573-9.912-11.52-16.832-21.76-16.832h-33.088c-12.664.001-22.818 10.448-22.475 23.107z" fill="#80dfb5"/><path d="m382.323 99.199-11.823 49.938 28.5 57.061 37.319.556c-30.926-26.238-51.328-64.493-53.996-107.555z" fill="#fbdab2"/><path d="m397.387 35.571c-.677 25-5.522 67.508-26.893 113.56-12.042 25.95-10.49 56.228 3.922 80.941 27.289 46.796 66.792 130.427 74.771 232.782 1.543 19.789-14.165 36.68-34.014 36.68h-79.043c-17.907 0-32.764-13.848-34.021-31.711l-15.848-225.19c-3.048-43.313.961-86.834 11.872-128.861l21.931-84.476c2.573-9.912 11.52-16.832 21.76-16.832h33.088c12.664.001 22.818 10.448 22.475 23.107z" fill="#80dfb5"/><path d="m112.999 206.194-16.933 33.895c-7.322 14.653-25.575 19.958-39.603 11.507l-35.378-21.32c-13.665-8.229-17.729-26.19-8.935-39.513l21.41-32.433z" fill="#80dfb5"/><path d="m399.001 206.198 16.933 33.895c7.322 14.653 25.575 19.958 39.603 11.507l35.378-21.32c13.665-8.229 17.729-26.19 8.935-39.513l-21.41-32.433z" fill="#80dfb5"/><g fill="#36d39a"><path d="m59.489 200.23c0-8.53.706-16.894 2.043-25.046l-27.972-16.853-21.41 32.433c-8.794 13.322-4.73 31.283 8.935 39.513l35.378 21.32c4.195 2.527 8.767 3.815 13.312 4-6.638-17.18-10.286-35.846-10.286-55.367z"/><path d="m421.652 192.55-22.652 13.648 16.933 33.896c7.322 14.653 25.575 19.958 39.603 11.507l28.636-17.257c-24.213-8.61-45.631-23.113-62.52-41.794z"/><path d="m167.302 177.36c0-67.769 2.001-121.807 5.955-164.665-1.013-.14-2.041-.23-3.086-.23h-33.088c-12.664 0-22.817 10.447-22.474 23.106.677 25 5.522 67.508 26.893 113.56 12.042 25.95 10.49 56.228-3.922 80.941-27.289 46.796-66.792 130.427-74.771 232.782-1.543 19.789 14.165 36.68 34.014 36.68h79.042c17.907 0 32.764-13.848 34.021-31.711l9.096-129.246c-32.528-45.427-51.68-101.083-51.68-161.217z"/><path d="m448.456 454.547c-1.306.018-2.608.05-3.918.05-53.704 0-103.83-15.286-146.295-41.721l3.867 54.949c1.257 17.862 16.114 31.711 34.021 31.711h79.042c19.849 0 35.557-16.891 34.014-36.68-.218-2.787-.468-5.552-.731-8.309z"/></g></g><g><path d="m404.834 33.258c-.864-15.685-13.829-28.282-29.927-28.282h-33.087c-7.338 0-14.163 2.684-19.455 7.201h-17.412c-16.426 0-30.819 10.513-35.814 26.16l-13.142 41.155-13.142-41.155c-4.996-15.647-19.389-26.16-35.814-26.16h-17.412c-5.291-4.517-12.117-7.201-19.455-7.201h-33.086c-16.127 0-29.066 12.626-29.927 28.286-3.58 5.422-98.257 148.824-101.259 153.373-11.149 16.891-6.019 39.622 11.323 50.066l35.377 21.319c17.747 10.692 40.919 3.956 50.181-14.579.05-.101 36.671-73.415 37.411-74.896 4.299 19.441 1.203 40.102-9.088 57.75-16.519 28.327-39.678 73.966-56.201 130.517-1.162 3.976 1.12 8.141 5.095 9.302 3.979 1.163 8.141-1.121 9.302-5.095 16.096-55.095 38.664-99.565 54.761-127.168 15.699-26.922 17.286-59.771 4.245-87.873-3.581-7.717-6.987-16.018-9.921-24.262-.013-.037-.025-.073-.038-.11-12.177-34.262-15.661-64.937-16.238-86.226 0-.001 0-.003 0-.004-.227-8.439 6.52-15.401 14.977-15.401h33.086c6.911 0 12.81 4.708 14.5 11.216l21.93 84.472c10.598 40.822 14.683 83.357 11.65 126.444l-15.848 225.18c-.976 13.87-12.633 24.736-26.538 24.736h-79.04c-15.515 0-27.739-13.162-26.535-28.596 1.872-24.023 5.664-48.526 11.27-72.828.931-4.036-1.586-8.062-5.622-8.993-4.032-.932-8.062 1.586-8.993 5.622-5.773 25.026-9.678 50.271-11.608 75.034-1.88 24.12 17.29 44.761 41.489 44.761h79.04c21.745 0 39.974-16.991 41.5-38.683l.555-7.887h76.147l.555 7.887c1.527 21.691 19.756 38.682 41.501 38.682h79.039c24.198 0 43.37-20.64 41.49-44.761-7.887-101.168-45.556-184.161-75.767-235.968-10.292-17.649-13.388-38.312-9.087-57.755 1.094 2.19 37.366 74.805 37.416 74.906 9.305 18.622 32.49 25.235 50.181 14.577l35.374-21.318c17.336-10.44 22.479-33.169 11.325-50.067-3.002-4.544-97.683-147.953-101.264-153.378zm-315.469 203.479c-5.373 10.752-18.726 14.638-29.022 8.435l-35.378-21.319c-10.022-6.036-12.997-19.181-6.545-28.955l17.444-26.426 67.336 40.571zm20.558-41.155-65.788-39.637 64.496-97.687c2.406 22.305 7.256 44.432 14.959 66.57 2.948 8.467 6.26 16.71 9.605 24.163zm331.778 267.847c1.201 15.409-10.998 28.596-26.536 28.596h-79.039c-13.905 0-25.562-10.866-26.538-24.736-.77-10.938-15.103-214.605-15.847-225.18-1.807-25.664-1.067-51.675 2.199-77.309.523-4.109-2.383-7.864-6.492-8.387-4.113-.524-7.864 2.383-8.387 6.492-3.389 26.603-4.157 53.6-2.282 80.257l14.237 202.294h-74.035l14.237-202.294c3.111-44.209-.958-88.373-12.094-131.266-22.261-85.746-21.919-84.433-21.995-84.718h7.914c9.872 0 18.523 6.319 21.526 15.723l13.527 42.363c1.939 6.074 7.527 10.156 13.903 10.156 6.376 0 11.964-4.081 13.903-10.156l13.526-42.364c3.003-9.404 11.653-15.723 21.526-15.723h7.914c-.03.11-23.521 89.446-26.834 105.693-.823 4.031 1.764 8.014 5.849 8.848 4.06.826 8.02-1.791 8.848-5.849 3.653-17.901 5.093-21.223 26.591-104.677 1.672-6.431 7.518-11.216 14.5-11.216h33.087c8.442 0 15.205 6.947 14.976 15.402-.711 26.224-5.83 66.693-26.181 110.564-.001.001-.001.003-.002.004-.005.011-.01.022-.015.033-13.041 28.101-11.454 60.951 4.245 87.873 29.422 50.453 66.103 131.238 73.769 229.577zm-38.338-405.175 64.501 97.695-65.788 39.638-23.276-46.601c12.724-28.307 21.235-59.369 24.563-90.732zm83.67 165.604-35.375 21.318c-10.276 6.19-23.64 2.338-29.023-8.434l-13.835-27.695 67.336-40.571 17.444 26.426c6.446 9.765 3.487 22.914-6.547 28.956z"/></g></g></svg>