<svg id="Capa_1" enable-background="new 0 0 512 512" height="512" viewBox="0 0 512 512" width="512" xmlns="http://www.w3.org/2000/svg"><g><g><path d="m474.539 117.423c25.544 32.843 19.627 80.175-13.216 105.719-71.226 55.397-159.705 69.477-159.705 69.477l-39.451-50.724s35.428-82.291 106.654-137.687c32.842-25.545 80.174-19.628 105.718 13.215z" fill="#80dfb5"/><path d="m37.461 117.423c-25.544 32.843-19.627 80.175 13.216 105.719 71.226 55.397 159.705 69.477 159.705 69.477l39.451-50.724s-35.428-82.291-106.654-137.687c-32.842-25.545-80.174-19.628-105.718 13.215z" fill="#80dfb5"/><path d="m256 7.5c-41.607 0-75.336 33.729-75.336 75.336 0 90.232 43.206 168.719 43.206 168.719h64.26s43.206-78.486 43.206-168.719c0-41.607-33.729-75.336-75.336-75.336z" fill="#b0ebce"/><path d="m207.917 406.35s23.241 5.298 23.241 98.15h49.684c0-92.851 23.241-98.15 23.241-98.15v-66.555h-96.165v66.555z" fill="#80dfb5"/><path d="m304.083 406.351v-66.555h-96.165v66.555s9.305 2.132 16.14 27.217c3.327-.915 6.595-1.997 9.786-3.25 14.238-5.593 30.078-5.592 44.316.001 3.191 1.253 6.457 2.334 9.784 3.249 6.834-25.086 16.139-27.217 16.139-27.217z" fill="#36d39a"/><circle cx="314.292" cy="338.793" fill="#fbe5c8" r="68.317"/><path d="m361.772 380.916c-42.284 0-76.562-34.278-76.562-76.562 0-10.605 2.158-20.706 6.056-29.889-26.399 9.451-45.291 34.679-45.291 64.329 0 37.731 30.587 68.317 68.317 68.317 21.968 0 41.5-10.38 53.998-26.491-2.151.181-4.321.296-6.518.296z" fill="#fbdab2"/><circle cx="197.708" cy="338.793" fill="#ffefe0" r="68.317"/><circle cx="256" cy="271.478" fill="#ffefe0" r="68.317"/><g fill="#fbe5c8"><path d="m245.187 380.916c-42.284 0-76.562-34.278-76.562-76.562 0-10.605 2.158-20.706 6.056-29.889-26.399 9.451-45.291 34.679-45.291 64.329 0 37.731 30.587 68.317 68.317 68.317 21.968 0 41.5-10.38 53.998-26.491-2.15.181-4.32.296-6.518.296z"/><path d="m222.664 256.114c0-20.398 10.145-38.882 24.417-52.354-33.513 4.373-59.398 33.013-59.398 67.719 0 37.731 30.587 68.317 68.317 68.317 12.593 0 24.382-3.422 34.512-9.365-38.037-3.433-67.848-35.386-67.848-74.317z"/></g></g><g><path d="m480.459 112.819c-8.96-11.52-20.837-20.488-34.349-25.936-3.843-1.55-8.212.31-9.761 4.151-1.549 3.842.31 8.212 4.151 9.761 11.059 4.458 20.781 11.801 28.117 21.233 22.964 29.526 17.626 72.229-11.9 95.193-36.224 28.174-77.195 45.32-106.232 54.951-6.006-3.273-12.624-5.75-18.959-7.22-.536-6.122-1.828-12.301-3.881-18.228 48.263-17.891 82.111-56.025 98.397-77.876 2.475-3.321 1.79-8.02-1.532-10.496-3.322-2.475-8.02-1.79-10.496 1.532-12.415 16.658-45.649 56.095-92.689 73.179-3.001-5.082-6.382-9.6-10.365-13.799 9.353-23.798 16.275-47.348 20.865-69.888 13.236-14.87 27.222-28.068 41.599-39.249 11.707-9.105 25.713-14.043 40.505-14.279 4.142-.066 7.446-3.477 7.379-7.619-.066-4.142-3.478-7.431-7.619-7.379-18.072.289-35.18 6.318-49.475 17.437-9.542 7.422-18.907 15.686-28.005 24.684 1.656-12.971 2.625-26.413 2.625-40.135.002-45.676-37.158-82.836-82.834-82.836s-82.836 37.16-82.836 82.836c0 13.721.97 27.163 2.625 40.134-9.097-8.997-18.462-17.261-28.005-24.684-36.055-28.042-88.201-21.523-116.243 14.532-28.042 36.056-21.523 88.202 14.531 116.244 9.557 7.433 19.982 14.558 30.987 21.177 3.55 2.135 8.158.988 10.293-2.562s.988-8.158-2.562-10.293c-10.495-6.312-20.423-13.096-29.51-20.163-29.526-22.964-34.864-65.667-11.9-95.193s65.667-34.865 95.193-11.9c14.377 11.182 28.364 24.379 41.599 39.249 4.582 22.498 11.437 45.848 20.865 69.889-3.832 4.039-7.244 8.514-10.365 13.799-47.04-17.084-80.274-56.521-92.689-73.179-2.476-3.322-7.175-4.006-10.496-1.532-3.321 2.476-4.007 7.174-1.532 10.496 16.287 21.852 50.135 59.985 98.397 77.876-1.96 5.654-3.316 11.785-3.882 18.228-6.268 1.454-12.903 3.919-18.959 7.22-18.209-6.035-35.73-13.208-52.129-21.344-3.711-1.841-8.211-.325-10.052 3.386s-.325 8.211 3.386 10.052c13.923 6.907 28.622 13.134 43.836 18.598-16.041 14.669-24.664 35.021-24.664 55.928 0 41.806 34.012 75.817 75.817 75.817 2.938 0 5.833-.187 8.686-.515 3.682 3.174 17.264 19.69 17.264 90.404 0 4.142 3.358 7.5 7.5 7.5h49.684c4.142 0 7.5-3.358 7.5-7.5 0-70.599 13.538-87.177 17.247-90.389 2.866.324 5.769.499 8.704.499 41.806 0 75.817-34.011 75.817-75.817 0-20.832-8.565-41.205-24.662-55.927 29.14-10.484 66.696-27.529 100.48-53.805 36.057-28.041 42.576-80.187 14.534-116.242zm-224.459 219.477c-32.939 0-60.794-26.674-60.816-60.775.003-.088.005-.176.006-.265 0-.002 0-.004 0-.007s0-.004 0-.007c.124-32.9 26.832-60.581 60.811-60.581 33.518 0 60.683 27.262 60.811 60.582v.006s0 .004 0 .006c0 .086.003.173.006.264-.026 32.976-26.986 60.777-60.818 60.777zm0-317.296c37.405 0 67.836 30.431 67.836 67.836 0 42.729-9.962 86.444-24.973 126.102-10.203-7.007-22.391-11.621-35.363-12.903v-117.754c0-4.142-3.358-7.5-7.5-7.5s-7.5 3.358-7.5 7.5v117.754c-12.664 1.252-24.905 5.722-35.363 12.903-15.007-39.648-24.974-83.361-24.974-126.102.001-37.405 30.432-67.836 67.837-67.836zm-119.11 323.793c0-27.674 18.92-51.185 43.815-58.389 4.443 37.679 36.635 66.891 75.295 66.891.641 0 1.284-.008 1.927-.025-.001.007-.002.014-.003.021-4.196 29.778-29.916 52.318-60.217 52.318-33.534.001-60.817-27.281-60.817-60.816zm136.503 158.207h-34.786c-.496-35.787-4.604-62.5-12.228-79.468-1.239-2.758-2.51-5.107-3.772-7.109 13.009-4.507 24.547-12.491 33.393-23.142 8.898 10.748 20.425 18.695 33.379 23.168-13.298 21.099-15.64 61.579-15.986 86.551zm101.716-158.207c0 33.535-27.282 60.817-60.817 60.817-18.669 0-37.411-8.582-49.49-25.498 4.481-8.505 7.559-18.585 8.437-28.797 31.035-7.234 54.3-33.227 58.052-64.911 25.545 7.436 43.818 31.32 43.818 58.389z"/></g></g></svg>