<svg id="Capa_1" enable-background="new 0 0 512 512" height="512" viewBox="0 0 512 512" width="512" xmlns="http://www.w3.org/2000/svg"><g><g><path d="m32.634 348.825c-10.539-28.469-15.738-59.413-14.451-91.553.543-13.616 11.866-24.316 25.493-24.316h.543c14.602 0 26.006 12.339 25.201 26.921-1.136 20.615 2.413 40.718 9.684 59.363z" fill="#f67561"/><path d="m42.548 237.112c0-1.381.031-2.754.052-4.13-13.142.546-23.889 11.034-24.417 24.29-1.287 32.14 3.912 63.083 14.451 91.553l27.199-17.316c-11.158-29.334-17.285-61.148-17.285-94.397z" fill="#f0614a"/><path d="m80.502 427.194c-20.716-22.607-37.088-49.196-47.868-78.369 12.068-11.615 27.404-22.496 46.47-29.586 8.628 22.114 22.516 42.186 40.095 58.649z" fill="#ff9e8e"/><path d="m58.832 328.877c-10.049 5.891-18.749 12.779-26.198 19.949 10.78 29.173 27.152 55.762 47.868 78.369l19.601-24.975c-17.404-21.903-31.429-46.61-41.271-73.343z" fill="#f67561"/><path d="m177.626 491.293c-37.641-13.113-70.867-35.418-97.124-64.099 7.975-17.086 20.143-34.805 38.697-49.306 17.337 16.251 38.284 28.982 61.303 36.706z" fill="#f67561"/><path d="m97.742 399.197c-7.24 9.102-12.874 18.643-17.24 27.997 26.257 28.681 59.483 50.986 97.124 64.099l.838-22.353c-31.402-17.606-58.859-41.402-80.722-69.743z" fill="#f0614a"/><path d="m309.746 498.343c-17.639 4.113-36.002 6.245-54.847 6.154-27.122-.131-53.108-4.777-77.273-13.204-5.018-21.44-6.788-48.472 2.876-76.7 16.04 5.37 33.095 8.317 50.644 8.317 12.319 0 24.296-1.468 35.77-4.244z" fill="#ff9e8e"/><path d="m423.001 435.812c-30.813 30.38-69.821 52.444-113.254 62.53-18.282-17.397-37.53-43.624-42.83-79.676 26.348-6.366 50.03-19.6 69.057-37.691z" fill="#f67561"/><path d="m489.775 311.295c-9.222 48.25-33.116 91.342-66.774 124.518-27.615-5.471-62.349-19.62-87.028-54.837 20.515-19.509 35.62-44.66 42.78-72.949z" fill="#ff9e8e"/><path d="m483.681 196.934c7.18 23.522 10.811 48.602 10.278 74.598-.282 13.566-1.7 26.85-4.183 39.763-28.288 11.152-68.122 17.78-111.022-3.268 3.027-11.957 4.636-24.477 4.636-37.359 0-9.493-.875-18.534-2.544-27.092z" fill="#f67561"/><path d="m428.17 102.183c25.302 26.488 44.539 58.82 55.511 94.751-20.505 22.587-54.033 47.054-102.836 46.641-4.425-22.677-14.451-42.025-28.65-57.693z" fill="#ff9e8e"/><path d="m428.17 102.183c-9.865 28.831-30.943 64.713-75.976 83.699-27.846-30.722-71.742-47.335-121.048-47.335l60.811-107.331c53.248 8.065 100.694 33.769 136.213 70.967z" fill="#f67561"/><path d="m231.146 138.547c46.728 0 88.586 14.93 116.54 42.641-1.547-8.321-5.53-16.164-11.758-22.484-1.217-1.235-1.776-2.459-1.759-3.851.018-1.413.635-2.843 1.652-3.825 10.277-9.928 22.278-16.443 30.536-20.161 15.438-6.948 25.219-22.383 24.921-39.321-.191-10.864-4.513-20.957-11.72-28.488-26.286-15.996-55.916-27.042-87.601-31.842z" fill="#f0614a"/><path d="m351.776 85.558c-13.277-5.422-29.675-5.722-40.819-5.068-6.675.391-11.495-6.235-9.057-12.461 7.269-18.557 22.108-34.358 31.974-43.422 4.233-3.888 2.505-10.884-3.042-12.388-21.693-5.881-66.222-12.379-94.847 21.697-6.949 8.272-16.889 13.453-27.608 14.803-21.099 2.658-53.066 6.685-59.631 7.512-3.182.401-5.781-.563-7.802-2.494l-10.829-10.346c-5.009-4.786-13.314-2.829-15.602 3.71-4.121 11.776-7.359 30.463 1.729 51.015 2.512 5.681 9.649 7.584 14.713 3.986 3.95-2.806 8.473-6.019 12.007-8.529 3.593-2.553 8.444-2.412 11.884.344l11.664 9.344c3.798 3.042 9.246 2.862 12.835-.424l6.174-5.655c5.002-4.581 13.054-2.874 15.73 3.358 7.453 17.359.557 34.502-3.928 42.793-1.721 3.181-5.052 5.151-8.669 5.151h-45.652c-6.989 0-12.654 5.665-12.654 12.654 0 19.935 16.16 36.095 36.095 36.095h139.905c6.733-.944 9.421-9.123 4.65-13.966-16.801-17.049-14.866-42.564.505-57.414 13.917-13.445 29.718-22.056 40.489-26.904 5.823-2.618 5.696-10.977-.214-13.391z" fill="#fb8978"/><ellipse cx="254.284" cy="120.856" fill="#ffb2c1" rx="29.52" ry="23.508"/><path d="m173.865 466.302c.588 8.912 1.964 17.312 3.761 24.991 24.165 8.427 50.151 13.073 77.273 13.204 11.858.057 23.524-.769 34.94-2.412-42.111-2.87-81.523-15.552-115.974-35.783z" fill="#f67561"/></g><g><path d="m247.449 68.141-24.201 6.485c-4.001 1.072-6.375 5.185-5.303 9.186 1.07 3.991 5.172 6.376 9.186 5.303l2.448-.656v8.944c0 4.142 3.358 7.5 7.5 7.5s7.5-3.358 7.5-7.5v-10.425c0-.851-.149-1.666-.41-2.429l7.163-1.919c4.001-1.072 6.375-5.185 5.303-9.186-1.071-4.001-5.184-6.372-9.186-5.303z"/><path d="m475.684 156.838c-1.853-3.704-6.357-5.207-10.063-3.353-3.705 1.853-5.206 6.358-3.353 10.063 5.098 10.193 9.442 20.757 12.939 31.463-23.771 24.758-53.766 39.69-88.352 40.964-4.269-17.553-11.855-33.438-22.629-47.396 30.657-15.46 53.035-40.626 66.573-72.332 6.109 7.101 11.799 14.584 16.989 22.349 2.301 3.444 6.96 4.37 10.403 2.068 3.444-2.301 4.37-6.959 2.068-10.403-7.888-11.802-16.859-22.992-26.666-33.258 0 0 0 0 0-.001-27.436-28.733-61.353-50.361-98.678-63.027 1.453-1.433 2.82-2.733 4.033-3.847 8.546-7.85 5.113-22.095-6.153-25.149-11.452-3.104-29.006-6.379-47.601-4.353-22.675 2.472-41.164 12.049-54.953 28.463-5.643 6.717-13.741 11.045-22.803 12.187l-59.631 7.512c-.972.119-1.312-.12-1.684-.476l-10.829-10.346c-8.936-8.539-23.767-5.046-27.862 6.656-4.644 13.273-8.076 33.854 1.949 56.526 4.425 10.006 16.969 13.421 25.916 7.067l12.007-8.529c.858-.608 2.031-.574 2.852.083l11.664 9.345c6.73 5.392 16.23 5.078 22.59-.747l6.174-5.655c1.2-1.099 3.135-.7 3.773.787 6.153 14.334.365 28.875-3.633 36.266-.407.752-1.201 1.22-2.072 1.22h-45.652c-11.113 0-20.154 9.041-20.154 20.154 0 24.039 19.557 43.595 43.595 43.595h139.905c5.09 0 11.464-3.892 13.724-10.559 1.926-5.684.497-11.88-3.732-16.171-4.435-4.5-7.441-9.934-8.816-15.773 15.367 7.35 28.49 16.967 39.113 28.687 20.388 22.496 29.252 50.342 29.252 79.749 0 39.626-16.098 77.308-45.084 104.873-.001.001-.002.003-.004.004-18.424 17.517-41.124 29.908-65.646 35.833h-.001s0 0-.001 0c-26.759 6.472-55.269 5.143-82.264-3.893-.001 0-.001 0-.002-.001-21.549-7.23-41.799-19.356-58.56-35.067-.001-.001-.002-.002-.003-.003-16.93-15.855-30.151-35.185-38.234-55.9 0 0 0 0 0-.001-7.139-18.31-10.229-37.227-9.182-56.223 1.024-18.567-13.478-34.834-32.69-34.834h-.543c-17.792 0-32.282 13.844-32.987 31.516-.494 12.346-.055 24.803 1.306 37.026.459 4.117 4.168 7.081 8.284 6.624 4.117-.458 7.082-4.167 6.624-8.284-1.278-11.475-1.69-23.172-1.226-34.767.383-9.598 8.289-17.115 17.999-17.115h.543c10.222 0 18.285 8.628 17.712 19.008-1.033 18.742 1.541 37.39 7.654 55.532-11.419 4.983-22.847 11.884-33.515 20.71-1.54-4.889-2.922-9.854-4.135-14.851-.977-4.025-5.028-6.496-9.057-5.52-4.025.977-6.497 5.032-5.52 9.057 2.23 9.19 5.003 18.287 8.242 27.036 0 .001.001.002.002.004 11.075 29.968 27.684 57.16 49.363 80.82.002.002.003.004.005.006 27.446 29.98 62.088 52.841 100.179 66.114.002.001.005.002.007.003 43.848 15.289 91.524 17.708 136.285 7.273h.002c.001 0 .002-.001.003-.001s.002 0 .003-.001h.001c43.992-10.218 84.387-32.519 116.816-64.494.001-.001.002-.003.004-.004 46.44-45.776 71.877-106.332 73.187-169.463.814-39.62-7.678-78.676-25.77-114.846zm-170.11 32.895h-139.132c-15.768 0-28.595-12.828-28.595-28.595 0-2.842 2.312-5.154 5.154-5.154h45.652c6.385 0 12.234-3.48 15.265-9.083 5.288-9.776 12.868-29.184 4.223-49.321-4.7-10.948-18.873-14.004-27.688-5.93l-6.174 5.655c-.868.794-2.163.836-3.08.102l-11.664-9.345c-6.024-4.826-14.625-5.074-20.917-.604l-12.007 8.529c-1.183.841-2.91.454-3.511-.905-8.043-18.189-5.26-34.786-1.51-45.505.49-1.399 2.27-1.788 3.342-.764l10.829 10.346c3.737 3.569 8.679 5.173 13.92 4.511l59.631-7.511c12.822-1.616 24.334-7.803 32.413-17.421 10.936-13.018 36.732-32.81 86.774-19.381-13.547 12.501-26.776 28.56-33.584 45.934-4.434 11.319 4.34 23.391 16.48 22.684 2.603-.153 5.482-.251 8.521-.239 9.114.036 19.667 1.064 28.551 4.575-5.663 2.57-12.585 6.107-19.902 10.752-7.318 4.645-15.031 10.397-22.275 17.397-9.08 8.77-14.463 21.126-14.62 33.868-.157 12.747 4.809 24.894 13.983 34.204.439.445.238 1.038-.079 1.201zm2.362-43.783c1.643-5.779 4.792-10.854 8.776-14.703 13.126-12.681 28.104-20.844 38.356-25.459 11.815-5.318 11.529-22.28-.458-27.176-10.882-4.444-23.433-5.778-34.136-5.868-5.433-.046-10.067.26-9.967.255-1.161.059-2.084-1.064-1.625-2.238 3.5-8.933 8.952-17.214 14.948-24.608 36.047 11.083 68.959 30.995 95.694 57.901-12.122 32.292-34.054 58.065-65.536 72.809-12.67-12.853-28.12-23.224-46.052-30.913zm79.502 157.819c2.291-10.839 3.45-21.946 3.45-33.103 0-6.718-.424-13.34-1.264-19.78 33.982-1.745 64.784-15.444 90.277-39.414 4.771 19.481 6.975 39.576 6.558 59.903-.24 11.569-1.349 23.12-3.3 34.397-31.714 11.502-64.668 11.554-95.721-2.003zm-308.573 110.166c-15.824-18.958-28.378-40.11-37.419-63.052 10.412-9.329 21.578-16.583 33.608-21.899 7.883 17.626 19.132 34.146 32.984 48.445-11.146 9.886-21.181 22.226-29.173 36.506zm10.65 11.914c7.301-14.296 17.014-27.225 29.47-38.055 15.441 13.407 33.278 24.138 52.217 31.421-5.208 18.404-6.691 38.747-3.473 60.276-29.327-12.186-56.089-30.524-78.214-53.642zm94.534 59.7c-4.377-21.218-4.039-41.86 1.417-61.568 24.575 7.016 50.415 8.376 75.429 3.649 5.077 24.238 16.725 46.677 33.943 66.074-36.719 6.294-75.047 3.581-110.789-8.155zm127.99 4.522c-18.191-18.172-31.287-40.014-36.535-65.929 21.777-6.308 42.061-17.272 59.382-32.091 18.931 23.747 44.086 39.467 72.806 47.756-27.549 24.147-60.304 41.381-95.653 50.264zm108.531-62.444c-30.09-6.804-56.033-21.96-74.703-45.901 17.4-17.961 30.291-39.59 37.723-63.27 30 12.544 62.783 14.291 95.971 4.314-9.918 39.46-30.125 75.427-58.991 104.857z"/></g></g></svg>