<svg id="Capa_1" enable-background="new 0 0 512 512" height="512" viewBox="0 0 512 512" width="512" xmlns="http://www.w3.org/2000/svg"><g><g><path d="m358.879 504.5c0-89.126-69.058-136.355-69.058-136.355h-160.734s-69.058 47.229-69.058 136.355z" fill="#36d39a"/><path d="m209.454 437.251c42.956 0 83.348-10.533 117.881-30.261-18.2-25.63-37.515-38.844-37.515-38.844h-160.733s-19.315 13.214-37.515 38.844c34.533 19.727 74.926 30.261 117.882 30.261z" fill="#00c67f"/><path d="m401.842 209.863c0 111.762-80.626 192.388-192.388 192.388s-192.388-80.626-192.388-192.388 80.626-202.363 192.388-202.363 192.388 90.601 192.388 202.363z" fill="#80dfb5"/><path d="m79.516 199.663c0-89.454 58.105-165.327 138.628-191.965-2.876-.122-5.77-.198-8.69-.198-111.762 0-192.388 90.601-192.388 202.363s80.626 192.388 192.388 192.388c13.181 0 25.923-1.135 38.156-3.297-95.427-16.197-168.094-99.251-168.094-199.291z" fill="#36d39a"/><path d="m259.645 106.922c-13.435-12.398-30.886-19.537-49.168-19.537h-2.047c-18.282 0-35.733 7.138-49.168 19.537-41.048 37.882-99.233 26.312-99.233 108.105 0 82.525 66.9 149.425 149.425 149.425s149.425-66.9 149.425-149.425c-.001-81.792-58.186-70.223-99.234-108.105z" fill="#ffdcce"/><path d="m209.454 259.606-73.429 20.849s4.866 63.915 23.258 99.447c25.843 49.927 74.5 49.927 100.342 0 18.392-35.532 23.258-99.447 23.258-99.447z" fill="#b2b0bc"/><g fill="#c7c5cb"><path d="m209.454 279.342c-28.867 36.083-71.399 21.13-93.831 9.28-5.44-2.874-5.828-10.43-.787-13.957 12.858-8.997 20.346-28.699 30.967-38.598 16.502-15.379 44.93-24.722 63.651-7.748 18.722-16.974 47.15-7.631 63.651 7.748 10.621 9.899 18.109 29.601 30.967 38.598 5.041 3.527 4.654 11.083-.787 13.957-22.432 11.85-64.965 26.803-93.831-9.28z"/><path d="m143.302 166.843h-18.33c-8.387 0-15.186 6.799-15.186 15.185 0 8.387 6.799 15.185 15.186 15.185h18.33c8.387 0 15.185-6.799 15.185-15.185 0-8.386-6.799-15.185-15.185-15.185z"/><path d="m275.606 166.843h18.33c8.387 0 15.186 6.799 15.186 15.185 0 8.387-6.799 15.185-15.186 15.185h-18.33c-8.387 0-15.185-6.799-15.185-15.185 0-8.386 6.798-15.185 15.185-15.185z"/></g><path d="m491.198 307.491c-3.466-4.836-6.068-11.687-7.524-19.813-4.251-23.728-23.012-42.524-46.683-46.772-31.362-5.627-61.455 15.309-67.082 46.671l-29.934 166.825c-1.946 10.845 5.268 21.214 16.113 23.16s21.214-5.268 23.16-16.113l29.934-166.825c1.742-9.706 11.056-16.186 20.762-14.444 7.324 1.314 13.133 7.156 14.455 14.534 2.531 14.133 7.366 26.252 14.368 36.021 6.418 8.958 18.884 11.012 27.838 4.593 8.955-6.418 11.011-18.881 4.593-27.837z" fill="#e8a882"/><path d="m379.248 461.45 7.544-42.043c-9.71-5.095-20.746-7.994-32.451-7.994-2.264 0-4.501.118-6.712.329l-7.655 42.661c-1.946 10.845 5.268 21.214 16.113 23.16 10.846 1.946 21.215-5.268 23.161-16.113z" fill="#e3986d"/><path d="m354.341 441.413c-22.143 0-40.093 17.95-40.093 40.093 0 12.699 10.295 22.994 22.994 22.994h34.198c12.699 0 22.994-10.295 22.994-22.994-.001-22.143-17.951-40.093-40.093-40.093z" fill="#ffdcce"/><path d="m79.516 199.663c0-16.935 2.095-33.379 6.017-49.1-15.105 11.997-25.504 29.888-25.504 64.464 0 60.588 36.06 112.752 87.888 136.205-41.942-37.042-68.401-91.211-68.401-151.569z" fill="#ffcabd"/><path d="m341.305 454.988c0-4.027.395-7.96 1.122-11.776-16.325 5.073-28.18 20.299-28.18 38.293 0 12.699 10.295 22.994 22.994 22.994h28.394c-14.794-11.444-24.33-29.359-24.33-49.511z" fill="#ffcabd"/></g><g><path d="m124.978 204.714h1.665v8.968c0 4.142 3.358 7.5 7.5 7.5s7.5-3.358 7.5-7.5v-8.968h1.665c12.509 0 22.686-10.177 22.686-22.686s-10.177-22.685-22.686-22.685h-18.33c-12.509 0-22.686 10.176-22.686 22.685s10.177 22.686 22.686 22.686zm0-30.371h18.33c4.238 0 7.686 3.447 7.686 7.685s-3.448 7.686-7.686 7.686h-18.33c-4.238 0-7.686-3.448-7.686-7.686s3.448-7.685 7.686-7.685z"/><path d="m275.612 204.714h1.665v8.968c0 4.142 3.358 7.5 7.5 7.5s7.5-3.358 7.5-7.5v-8.968h1.665c12.509 0 22.686-10.177 22.686-22.686s-10.177-22.685-22.686-22.685h-18.33c-12.509 0-22.685 10.176-22.685 22.685s10.176 22.686 22.685 22.686zm0-30.371h18.33c4.238 0 7.686 3.447 7.686 7.685s-3.448 7.686-7.686 7.686h-18.33c-4.238 0-7.685-3.448-7.685-7.686s3.447-7.685 7.685-7.685z"/><path d="m491.062 286.356c-4.801-26.801-25.996-48.033-52.741-52.833-10.481-1.88-20.829-1.116-30.38 1.783.929-8.372 1.406-16.885 1.406-25.444 0-56.616-19.993-109.25-56.296-148.206-37.053-39.759-88.048-61.656-143.592-61.656-48.886 0-93.611 16.543-129.341 47.841-3.116 2.729-3.429 7.468-.7 10.583s7.468 3.429 10.583.7c32.955-28.866 74.262-44.124 119.458-44.124 51.336 0 98.434 20.202 132.618 56.884 33.707 36.17 52.27 85.172 52.27 137.979 0 11.109-.843 22.13-2.507 32.813-14.853 9.413-25.979 25.02-29.308 43.576-1.769 9.859-6.407 35.704-7.566 42.164-23.758 29.827-55.248 49.369-90.989 59.178 5.519-9.612 9.498-20.148 12.713-30.77 54.597-25.922 89.693-81.179 89.693-141.798 0-60.162-31.003-74.757-60.985-88.871-13.896-6.542-28.266-13.306-40.662-24.746-30.872-28.491-78.992-29.128-110.556 0-12.396 11.44-26.766 18.205-40.662 24.747-29.982 14.114-60.985 28.709-60.985 88.871 0 60.619 35.096 115.876 89.693 141.798 3.232 10.676 7.21 21.166 12.713 30.769-35.303-9.69-65.865-28.798-88.948-56.652-27.098-32.7-41.421-74.568-41.421-121.079 0-48.679 16.102-94.876 45.339-130.082 2.646-3.187 2.208-7.915-.979-10.562-3.186-2.646-7.915-2.208-10.562.979-31.466 37.893-48.796 87.494-48.796 139.665 0 50.048 15.517 95.227 44.872 130.65 13.719 16.555 29.944 30.378 48.213 41.214-21.387 22.581-50.122 63.879-50.122 122.773 0 4.142 3.358 7.5 7.5 7.5h311.41c16.814 0 30.494-13.68 30.494-30.494 0-12.541-4.884-23.956-12.839-32.466l7.166-39.937c.731-4.077-1.981-7.975-6.058-8.707-4.077-.727-7.975 1.981-8.707 6.058l-5.832 32.503c-6.782-3.403-14.205-5.044-21.323-5.044-.95 0-1.891.036-2.828.091-.086.005-.173.003-.26.008l26.038-145.11c4.893-27.268 31.073-45.508 58.375-40.614 20.599 3.697 36.925 20.058 40.625 40.713 1.652 9.218 4.698 17.122 8.81 22.859 4 5.58 2.714 13.373-2.867 17.373-5.59 4.008-13.363 2.729-17.372-2.867-6.347-8.855-10.748-19.949-13.082-32.974-1.873-10.453-10.117-18.729-20.513-20.594-13.773-2.472-26.996 6.725-29.469 20.502l-15.175 84.574c-.731 4.077 1.98 7.975 6.058 8.707 4.078.728 7.976-1.98 8.707-6.058l15.175-84.574c1.01-5.634 6.421-9.397 12.055-8.387 4.251.763 7.625 4.168 8.397 8.475 2.73 15.24 7.997 28.384 15.654 39.066 8.832 12.33 25.969 15.163 38.303 6.322 12.302-8.817 15.138-26 6.32-38.303-2.777-3.878-4.993-9.832-6.235-16.766zm-141.063 69.746-10.097 56.273c-7.767-12.517-16.167-22.753-23.619-30.632 12.2-7.238 23.483-15.805 33.716-25.641zm-140.54 53.738c-19.549 0-34.559-16.09-43.51-33.385-5.299-10.237-9.318-22.941-12.146-34.068-3.086-12.087-5.328-24.299-6.894-34.461 23.526 4.534 45.454-.295 62.55-17.347 17.183 17.153 39.165 21.854 62.55 17.347-3.251 21.105-9.181 49.482-19.04 68.529-8.94 17.276-24.058 33.385-43.51 33.385zm42.612-115.446c-.021-.001-.041-.003-.061-.004-15.285-1.021-27.424-8.146-36.693-19.733-2.997-3.747-8.706-3.76-11.713 0-.01.012-.019.023-.029.035-11.086 13.836-25.605 20.5-43.131 19.771-14.198-.59-28.896-5.914-41.311-12.472-.474-.252-.446-.863.009-1.181 14.436-10.101 22.048-30.184 31.781-39.256 19.848-18.498 42.379-17.762 53.5-7.678 2.858 2.592 7.217 2.592 10.075 0 14.902-13.51 38.687-6.128 53.5 7.678 9.789 9.124 17.305 29.128 31.78 39.256.459.32.482.931.01 1.181-14.249 7.527-31.573 13.464-47.717 12.403zm-184.536-79.366c0-50.644 23.112-61.524 52.374-75.299 14.228-6.698 30.354-14.29 44.446-27.294 25.44-23.478 64.731-23.514 90.21 0 14.092 13.005 30.218 20.596 44.446 27.294 29.262 13.775 52.374 24.655 52.374 75.299 0 50.422-26.84 96.76-69.563 122.116 2.474-11.034 4.433-22.356 5.987-33.557 7.28-2.556 13.772-5.579 18.987-8.334 10.376-5.481 11.244-19.973 1.583-26.734-11.139-7.794-18.823-27.38-30.153-37.939-18.22-16.98-47.438-25.938-68.765-11.748-21.324-14.189-50.544-5.233-68.765 11.748-11.365 10.593-18.976 30.118-30.154 37.939-9.655 6.757-8.8 21.249 1.584 26.734 5.214 2.754 11.707 5.778 18.986 8.333 1.429 10.297 3.374 21.899 5.987 33.557-42.724-25.355-69.564-71.693-69.564-122.115zm59.06 281.972v-42.243c0-4.142-3.358-7.5-7.5-7.5s-7.5 3.358-7.5 7.5v42.243h-43.888c2.415-52.444 29.738-88.801 48.671-107.887 16.605 8.082 34.229 13.683 52.323 16.995 10.96 11.288 25.02 18.74 40.759 18.74 15.747 0 29.792-7.444 40.76-18.74 17.808-3.268 35.463-8.77 52.339-16.977 10.273 10.365 23.168 25.987 33.14 46.67l-.372 2.072c-17.523 7.61-28.573 24.81-28.573 43.633 0 5.365 1.435 10.764 4.237 15.494zm244.85 0h-34.198c-8.543 0-15.494-6.951-15.494-15.494 0-18.062 14.704-32.593 32.592-32.593h.001.005c17.914.004 32.588 14.572 32.588 32.593 0 8.543-6.951 15.494-15.494 15.494z"/></g></g></svg>