<svg id="Capa_1" enable-background="new 0 0 512 512" height="512" viewBox="0 0 512 512" width="512" xmlns="http://www.w3.org/2000/svg"><g><g><g><path d="m220.761 345.824c-.63-35.517-15.383-64.188-42.185-87.136-11.804-10.107-21.695-21.881-29.761-35.247-9.676-16.035-16.123-33.242-18.785-51.697-2.958-20.503-1.785-40.799 4.515-60.746 4.853-15.367 12.115-29.409 22.091-41.952 10.617-13.35 23.44-24.158 38.606-32.241 19.04-10.149 39.221-14.805 60.728-13.859 21.558.949 41.144 7.571 58.738 20.18 13.371 9.583 23.892 21.562 31.347 36.2 9.431 18.517 12.829 38.049 9.315 58.618-3.314 19.398-11.987 36.015-26.762 49.103-19.003 16.833-41.283 23.493-65.993 17.465-23.646-5.769-39.887-20.617-44.775-45.188-3.419-17.184 1.633-32.14 15.821-43.322 9.046-7.129 23.033-8.009 32.255-1.838 4.562 3.053 7.452 7.312 7.566 13.026.103 5.201-2.83 8.74-7.844 9.627-9.102 1.611-12.462 10.092-6.886 17.645 5.656 7.662 13.535 10.146 22.661 8.966 15.55-2.011 26.941-15.192 29.998-29.373 4.629-21.474-4.443-43.394-23.483-55.774-20.852-13.558-43.069-14.904-65.621-5.115-26.487 11.498-41.709 32.485-47.54 60.361-4.659 22.272-.608 43.397 10.179 63.25 11.115 20.457 27.726 35.203 48.809 44.638 20.198 9.039 41.521 11.857 63.342 7.889 10.124-1.841 20.038-4.986 29.925-7.949 23.985-7.188 48.149-8.092 72.587-2.777 23.322 5.073 44.013 15.524 61.713 31.406 21.399 19.202 35.394 42.976 40.867 71.334 4.285 22.206 2.679 44.029-5.34 65.374-8.276 22.031-21.916 39.895-41.194 53.161-19.259 13.253-40.739 19.592-64.286 18.22-22.383-1.305-42.066-9.289-58.461-24.542-14.892-13.854-24.007-30.899-26.405-51.369-1.803-15.395.664-29.962 7.832-43.646 11.547-22.04 34.755-37.201 60.718-34.312 17.454 1.942 31.165 10.481 38.562 27 5.775 12.897 3.72 28.987-7.558 37.731-6.405 4.966-13.886 5.691-19.884 1.852-3.862-2.472-5.413-6.843-3.79-10.679 3.47-8.2-.686-14.838-9.736-15.142-7.911-.266-13.898 3.576-18.19 9.937-8.511 12.612-5.975 27.783 1.618 38.886 12.47 18.235 36.484 23.956 56.516 18.154 27.923-8.087 46.656-35.329 47.315-63.984.616-26.766-9.596-48.861-29.936-65.949-23.969-20.136-51.672-26.245-82.187-19.872-25.813 5.391-46.406 19.161-62.456 39.806-11.818 15.201-18.773 32.545-22.311 51.483-3.607 19.308-10.783 37.286-21.688 53.772-10.325 15.609-23.163 28.691-38.607 39.114-13.843 9.342-28.95 16.014-45.346 19.612-24.053 5.278-47.703 4.24-71.039-3.922-23.395-8.182-42.457-22.264-57.142-42.075-9.082-12.25-15.356-25.946-18.768-40.928-5.051-22.173-3.7-43.907 5.126-64.812 9.113-21.585 23.964-38.211 45.16-48.871 17.618-8.861 36.099-11.83 55.426-7.999 20.644 4.092 37.641 14.485 49.13 32.256 13.565 20.983 15.922 43.327 3.789 65.804-9.601 17.785-28.826 28.987-50.004 24.662-11.791-2.408-22.854-11.368-24.898-24.38-1.101-7.006 1.645-14.405 7.093-17.923 4.288-2.769 9.163-2.131 12.231 1.602 6.267 7.626 15.768 5.937 19.404-3.515 3.762-9.779.996-18.381-5.898-25.458-10.971-11.263-24.475-13.22-39.117-8.87-21.373 6.35-34.942 27.598-35.881 48.374-1.195 26.416 9.983 46.91 31.611 61.317 24.212 16.128 50.342 17.491 77.155 7.04 21.745-8.476 37.593-23.759 48.42-44.183 7.945-14.988 11.929-31.101 11.588-48.22z" fill="#80dfb5"/></g><g><path d="m211.048 227.796c-10.57-8.299-19.355-18.6-26.104-31.02-10.787-19.853-14.838-40.977-10.179-63.25 3.985-19.052 12.361-34.883 25.717-46.669 3.036-20.193 7.996-39.753 14.665-58.504-6.772 2.18-13.408 4.988-19.907 8.452-15.166 8.083-27.989 18.891-38.606 32.241-9.975 12.543-17.237 26.585-22.091 41.952-6.3 19.947-7.473 40.243-4.515 60.746 2.662 18.455 9.109 35.662 18.785 51.697 8.065 13.366 17.956 25.141 29.761 35.247 26.802 22.948 41.555 51.618 42.185 87.136.341 17.119-3.643 33.232-11.589 48.221-10.827 20.424-26.675 35.707-48.42 44.183-26.813 10.451-52.943 9.089-77.155-7.04-21.628-14.407-32.806-34.9-31.611-61.317.94-20.776 14.509-42.024 35.881-48.374 14.642-4.35 28.145-2.393 39.117 8.87 6.894 7.077 9.66 15.679 5.898 25.458-3.637 9.452-13.138 11.14-19.404 3.515-3.068-3.733-7.942-4.372-12.231-1.602-5.448 3.518-8.194 10.917-7.093 17.923 2.045 13.012 13.107 21.972 24.898 24.38 21.179 4.325 40.404-6.877 50.004-24.662 12.133-22.477 9.776-44.82-3.789-65.804-11.489-17.771-28.486-28.165-49.13-32.256-19.327-3.831-37.808-.861-55.426 7.999-21.196 10.66-36.046 27.286-45.16 48.871-8.823 20.904-10.174 42.638-5.123 64.811 3.413 14.981 9.686 28.677 18.765 40.925 14.685 19.811 33.747 33.893 57.142 42.075 23.336 8.162 46.987 9.2 71.039 3.922 16.396-3.598 31.503-10.269 45.346-19.612 15.443-10.423 28.282-23.505 38.607-39.114 10.906-16.486 18.082-34.464 21.688-53.772 2.165-11.591 5.618-22.58 10.675-32.85-28.065-32.488-49.621-70.755-62.64-112.778z" fill="#36d39a"/></g></g><g><path d="m441.241 459.935c-15.303 8.13-31.931 11.733-49.415 10.716-42.714-2.49-73.647-33.276-77.867-69.308-1.668-14.235.631-27.09 7.028-39.299 10.907-20.819 31.816-32.727 53.254-30.344 15.661 1.742 26.613 9.352 32.552 22.615 4.068 9.084 3.55 21.875-5.31 28.744-1.84 1.426-6.617 4.424-11.247 1.463-.6-.384-1.112-1.003-.926-1.44 2.638-6.233 2.361-12.612-.762-17.5-3.174-4.969-8.726-7.833-15.633-8.065-10.052-.339-18.59 4.24-24.662 13.239-9.411 13.946-8.78 32.079 1.645 47.324 13.409 19.606 40.057 28.294 64.804 21.128 30.29-8.773 51.976-37.982 52.736-71.028.666-28.953-10.307-53.136-32.616-71.877-25.284-21.241-55.081-28.467-88.56-21.475-26.755 5.587-49.248 19.904-66.855 42.551-11.998 15.431-19.771 33.33-23.766 54.718-3.441 18.417-10.363 35.583-20.575 51.02-9.809 14.829-22.107 27.291-36.553 37.041-53.669 36.223-125.726 26.099-163.335-24.639-20.024-27.009-26.767-65.187-12.757-98.369 17.154-40.634 57.338-59.359 92.234-52.439 19.456 3.856 34.36 13.605 44.297 28.976 12.618 19.518 13.791 39.093 3.488 58.18-8.695 16.107-25.147 24.304-41.911 20.879-8.297-1.694-17.387-7.978-18.993-18.199-.665-4.227.914-8.626 3.753-10.46 1.514-.977 2.048-.326 2.368.064 4.68 5.694 11.069 8.36 17.519 7.318 6.491-1.049 11.981-5.873 14.686-12.902 4.564-11.864 1.891-23.722-7.527-33.391-12.199-12.523-28.325-16.266-46.633-10.828-23.124 6.87-40.085 29.583-41.245 55.234-1.282 28.342 10.804 51.824 34.951 67.91 25.481 16.973 53.76 19.595 84.051 7.787 22.635-8.822 40.241-24.86 52.331-47.666 8.632-16.283 12.825-33.742 12.463-51.876-.65-36.618-15.727-67.812-44.814-92.716-11.051-9.462-20.546-20.709-28.222-33.431-20.596-34.136-23.992-73.243-13.542-106.328 3.05-9.659 7.138-18.768 12.149-27.072 2.141-3.547 1-8.158-2.547-10.298-3.547-2.141-8.158-1.001-10.298 2.547-5.624 9.319-10.203 19.516-13.61 30.305-11.649 36.88-7.985 80.499 15.003 118.597 8.505 14.097 19.039 26.57 31.31 37.077 26.049 22.303 38.993 48.989 39.571 81.602.311 15.57-3.295 30.564-10.718 44.566-10.357 19.538-25.337 33.236-44.524 40.715-25.466 9.925-49.114 7.808-70.286-6.296-19.812-13.197-29.327-31.616-28.281-54.745.74-16.35 11.464-35.866 30.53-41.531 12.983-3.857 23.324-1.595 31.614 6.915 5.389 5.532 6.746 11.103 4.272 17.534-.755 1.961-1.934 3.294-3.078 3.48-1.031.162-2.351-.594-3.533-2.033-5.503-6.698-14.59-7.991-22.098-3.142-7.833 5.059-12.027 15.263-10.435 25.392 2.357 15.003 14.74 27.288 30.812 30.57 23.036 4.705 46.389-6.731 58.114-28.452 12.918-23.93 11.503-49.329-4.091-73.451-12.226-18.911-30.388-30.872-53.979-35.548-41.698-8.265-88.955 13.905-108.972 61.32-16.176 38.312-8.525 82.045 14.525 113.141 42.571 57.429 123.798 68.622 183.781 28.14 16.087-10.857 29.771-24.719 40.673-41.199 11.325-17.119 18.999-36.143 22.81-56.542 3.545-18.98 10.369-34.768 20.862-48.265 15.363-19.761 34.903-32.234 58.078-37.074 28.745-6.003 54.262.145 75.843 18.276 18.65 15.667 27.824 35.869 27.267 60.044-.61 26.568-17.845 49.992-41.911 56.962-18.606 5.391-38.447-.856-48.247-15.187-5.39-7.881-8.638-20.022-1.593-30.463 4.158-6.162 8.68-6.736 11.724-6.637 2.081.07 3.182.662 3.492 1.147.306.479.382 1.703-.411 3.577-3.07 7.257-.334 15.449 6.656 19.923 8.664 5.544 19.595 4.683 28.527-2.243 13.431-10.415 17.465-29.631 9.809-46.731-8.149-18.2-23.567-29.056-44.586-31.395-27.636-3.078-54.405 11.957-68.202 38.293-7.734 14.764-10.641 30.916-8.639 48.007 5.071 43.285 41.876 79.624 91.895 82.54 20.27 1.181 39.559-3.004 57.326-12.444 3.659-1.944 5.049-6.486 3.106-10.144-1.944-3.659-6.488-5.047-10.144-3.105z"/><path d="m466.364 264.432c-18.536-16.633-40.452-27.789-65.139-33.159-50.502-10.985-79.363 5.93-105.466 10.678-20.058 3.645-39.889 1.172-58.947-7.357-19.996-8.948-35.234-22.87-45.29-41.38-10.345-19.038-13.517-38.6-9.429-58.143 5.538-26.475 20.07-44.989 43.193-55.027 20.532-8.914 40.233-7.391 58.556 4.523 16.289 10.591 24.235 29.399 20.243 47.914-2.186 10.138-10.513 21.823-23.633 23.519-7.006.906-11.985-.995-15.668-5.983-1.078-1.46-1.492-2.907-1.109-3.868.366-.916 1.588-1.64 3.269-1.937 8.704-1.541 14.214-8.278 14.037-17.164-.155-7.84-3.923-14.45-10.895-19.115-11.811-7.903-29.47-6.965-41.076 2.181-16.186 12.757-22.596 30.284-18.537 50.685 5.298 26.632 22.713 44.274 50.362 51.02 26.235 6.401 51.393-.218 72.756-19.14 15.679-13.889 25.499-31.877 29.187-53.464 6.693-39.173-10.783-78.609-43.694-102.194-38.276-27.431-87.734-27.975-127.382-6.843-11.449 6.103-21.881 13.849-31.008 23.023-2.921 2.937-2.909 7.686.028 10.608 2.937 2.921 7.685 2.909 10.608-.028 8.071-8.114 17.299-14.965 27.428-20.364 34.903-18.603 78.094-18.205 111.589 5.8 27.987 20.057 43.421 53.669 37.644 87.473-3.098 18.134-11.289 33.194-24.346 44.76-17.768 15.739-37.704 21.052-59.252 15.795-21.879-5.338-35.069-18.584-39.204-39.372-2.927-14.709 1.484-26.812 13.109-35.974 6.503-5.125 17.02-5.796 23.446-1.495 3.684 2.465 4.2 5.005 4.239 6.944.031 1.571-.324 1.857-1.653 2.093-6.932 1.227-12.248 5.29-14.587 11.147-2.357 5.905-1.274 12.59 2.972 18.342 6.96 9.428 17.22 13.561 29.662 11.951 17.43-2.254 32.387-16.743 36.374-35.236 5.315-24.654-5.177-49.639-26.731-63.654-22.486-14.622-47.628-16.595-72.708-5.708-27.849 12.089-45.311 34.2-51.904 65.717-4.836 23.121-1.158 46.127 10.932 68.377 11.664 21.468 29.275 37.588 52.344 47.911 21.872 9.789 44.67 12.623 67.759 8.424 28.46-5.176 52.966-20.918 99.593-10.778 22.114 4.809 41.732 14.79 58.308 29.665 38.892 34.899 49.438 86.138 33.52 128.509-5.773 15.367-14.39 28.571-25.613 39.246-3.002 2.855-3.121 7.603-.266 10.605 2.861 3.007 7.609 3.116 10.605.266 12.878-12.249 22.741-27.335 29.318-44.84 17.799-47.374 6.643-105.303-37.544-144.953z"/></g></g></svg>