<svg id="Capa_1" enable-background="new 0 0 512 512" height="512" viewBox="0 0 512 512" width="512" xmlns="http://www.w3.org/2000/svg"><g><g><path d="m492.617 418.705c0 25.976-20.746 47.154-46.714 47.788-33.105.808-67.213-2.81-101.476-11.534-49.688-12.616-98.115-35.728-141.145-68.37-43.01-32.621-80.646-74.814-109.073-124.266-14.219-24.703-26.133-51.184-35.362-78.907-9.237-27.717-15.779-56.667-19.475-86.161l128.364-31.872 128.364 31.872c-3.643 13.039-6.051 26.616-7.019 40.616-.97 13.995-.496 28.412 1.572 42.992 4.104 29.145 14.71 58.972 31.847 86.507 17.126 27.504 40.718 52.635 69.628 72.55 20.181 13.944 42.972 25.302 67.636 33.394 19.61 6.434 32.853 24.754 32.853 45.391z" fill="#e8a882"/><path d="m402.634 417.041c-172.379 0-312.119-139.74-312.119-312.119 0-6.902.249-13.746.69-20.537l-51.832 12.87c3.696 29.494 10.237 58.444 19.475 86.161 9.229 27.722 21.143 54.203 35.362 78.907 28.427 49.453 66.064 91.646 109.073 124.266 43.029 32.643 91.457 55.754 141.145 68.37 34.263 8.724 68.371 12.342 101.476 11.534 25.968-.634 46.714-21.813 46.714-47.788 0-4.912-.758-9.689-2.166-14.209-27.86 8.153-57.324 12.545-87.818 12.545z" fill="#e3986d"/><g><path d="m304.522 245.576-198.934 40.317c-5.912 1.198-11.922-1.447-15.087-6.583-6.639-10.771-12.678-21.626-18.202-32.612-4.231-8.415.763-18.55 9.994-20.421l206.225-41.8c7.613-1.543 15.142 3.222 16.859 10.798 2.361 10.42 5.576 20.769 9.59 30.892 3.303 8.333-1.66 17.629-10.445 19.409z" fill="#fbe29f"/></g><g><path d="m367.273 329.385-117.485 89.966c-5.232 4.006-12.396 4.362-17.989.878-14.202-8.846-35.693-24.177-35.693-24.177-4.951-3.76-4.967-11.2-.031-14.98l130.642-100.05c6.807-5.213 16.531-4.064 21.918 2.606 6.158 7.625 12.835 14.904 19.959 21.764 6.992 6.732 6.385 18.092-1.321 23.993z" fill="#fbe29f"/></g><path d="m504.5 418.708c0 32.374-25.803 58.863-58.307 59.659-14.436.385-30.237-.126-46.086-1.656-13.19-1.273-21.59-14.728-17.095-27.194l30.419-84.37c4.003-11.103 16.551-16.455 27.373-11.745 7.367 3.206 14.929 6.085 22.663 8.626 24.546 8.051 41.033 30.826 41.033 56.68z" fill="#fbe5c8"/><path d="m296.101 33.51h-256.729c-17.602 0-31.872 14.27-31.872 31.873 0 17.603 14.27 31.872 31.872 31.872h256.729c17.603 0 31.872-14.27 31.872-31.872 0-17.603-14.27-31.873-31.872-31.873z" fill="#fbe5c8"/><path d="m98.733 33.51h-59.36c-17.603 0-31.873 14.27-31.873 31.873s14.27 31.872 31.872 31.872h51.239c.528-21.881 3.313-43.202 8.122-63.745z" fill="#fbdab2"/><path d="m112.487 220.158-30.194 6.12c-9.231 1.871-14.225 12.006-9.994 20.421 5.524 10.986 11.563 21.841 18.201 32.612 3.165 5.135 9.175 7.781 15.087 6.583l37.485-7.597c-12.132-18.129-22.419-37.596-30.585-58.139z" fill="#f8d070"/><path d="m223.183 360.311-27.109 20.761c-4.936 3.78-4.921 11.221.031 14.98 0 0 21.491 15.331 35.693 24.177 5.593 3.484 12.758 3.128 17.989-.878l33.762-25.854c-21.426-8.852-41.653-20.013-60.366-33.186z" fill="#f8d070"/><path d="m402.634 417.041c-2.634 0-5.259-.035-7.877-.1l-11.744 32.575c-4.495 12.466 3.905 25.921 17.095 27.194 15.849 1.53 31.65 2.041 46.086 1.656 32.503-.796 58.307-27.285 58.307-59.659 0-6.149-.943-12.119-2.694-17.763-31.159 10.435-64.504 16.097-99.173 16.097z" fill="#fbdab2"/></g><g><path d="m98.437 160.056c4.142 0 7.5-3.358 7.5-7.5v-13.316c0-4.142-3.358-7.5-7.5-7.5s-7.5 3.358-7.5 7.5v13.316c0 4.142 3.358 7.5 7.5 7.5z"/><path d="m237.037 160.056c4.142 0 7.5-3.358 7.5-7.5v-13.316c0-4.142-3.358-7.5-7.5-7.5s-7.5 3.358-7.5 7.5v13.316c0 4.142 3.358 7.5 7.5 7.5z"/><path d="m167.737 167.983c9.17 0 17.89-3.972 23.925-10.896 2.721-3.123 2.396-7.86-.727-10.582-3.122-2.721-7.86-2.396-10.582.727-3.185 3.655-7.784 5.751-12.616 5.751s-9.431-2.096-12.616-5.751c-2.721-3.124-7.459-3.448-10.582-.727s-3.448 7.459-.727 10.582c6.035 6.924 14.755 10.896 23.925 10.896z"/><path d="m465.808 354.903c-7.48-2.458-14.886-5.277-22.011-8.378-7.754-3.375-16.928-3.134-24.666 1.14-13.968-7.577-26.465-15.927-38.69-25.908 1.719-7.975-.837-16.176-6.646-21.769-6.883-6.627-13.386-13.717-19.326-21.073-5.292-6.553-13.292-9.485-21.031-8.495-1.609-2.375-3.144-4.725-4.57-7.013-3.635-5.842-7.036-11.958-10.168-18.228 4.861-6.086 6.185-14.342 3.239-21.776-3.868-9.756-6.979-19.778-9.248-29.785-1.763-7.781-7.657-13.688-14.884-15.933-1.714-13.092-2.144-26.299-1.243-39.296.791-11.437 2.616-22.875 5.427-34.076 18.926-2.851 33.482-19.222 33.482-38.931 0-21.71-17.662-39.372-39.372-39.372h-256.728c-21.71.001-39.373 17.663-39.373 39.373 0 19.443 14.17 35.629 32.724 38.799 3.866 27.906 10.251 55.329 19.007 81.603 4.649 13.967 10.051 27.818 16.076 41.254-5.122 6.708-5.977 15.535-2.208 23.03 5.676 11.289 11.906 22.452 18.518 33.178 4.372 7.094 12.506 11.171 20.878 10.312 22.852 33.589 50.059 63.459 81.01 88.916-2.592 6.768-.685 14.805 5.566 19.552.06.045.12.089.18.133.885.631 21.846 15.568 36.083 24.437 7.27 4.528 16.637 4.716 24.219.236 28.907 15.571 59.337 27.478 90.525 35.396 11.504 2.929 23.234 5.341 34.93 7.192 4.518 8.582 12.724 13.873 21.88 14.756 15.624 1.508 31.896 2.091 46.99 1.688 36.673-.898 65.622-30.784 65.622-67.157 0-29.099-18.563-54.74-46.192-63.805zm-417.856-250.147h58.259c4.142 0 7.5-3.358 7.5-7.5s-3.358-7.5-7.5-7.5h-66.838c-13.439 0-24.373-10.934-24.373-24.373s10.934-24.372 24.373-24.372h256.729c13.439 0 24.372 10.934 24.372 24.373s-10.933 24.372-24.372 24.372h-159.89c-4.142 0-7.5 3.358-7.5 7.5s3.358 7.5 7.5 7.5h150.245c-2.471 10.746-4.1 21.673-4.855 32.598-.933 13.451-.559 27.109 1.11 40.65l-201.909 40.924c-.06.012-.119.024-.178.037-5.473-12.372-10.394-25.096-14.663-37.919-8.191-24.579-14.238-50.203-18.01-76.29zm48.934 170.621c-6.386-10.361-12.404-21.142-17.886-32.047-2.018-4.014.417-8.815 4.783-9.701l206.226-41.8c.003 0 .005-.001.008-.001 3.614-.729 7.237 1.538 8.046 5.106 2.438 10.759 5.78 21.525 9.932 31.998 1.596 4.026-.798 8.449-4.962 9.294l-198.934 40.317c-2.795.568-5.696-.705-7.213-3.166zm138.878 138.486c-13.29-8.278-33.423-22.578-35.181-23.83-.939-.764-.955-2.236.052-3.007l73.848-56.555c3.533-2.706 3.943-7.862.898-11.1-2.604-2.769-6.935-3.17-10.018-.809l-69.113 52.929c-28.511-23.339-53.758-50.556-75.215-81.075l184.776-37.449c3.191 6.31 6.65 12.466 10.324 18.368 1.143 1.835 2.345 3.703 3.597 5.589l-31.016 23.752c-3.288 2.518-3.913 7.226-1.395 10.515 2.519 3.289 7.227 3.912 10.515 1.395l33.44-25.61c.004-.003.008-.005.011-.008 3.567-2.723 8.633-2.193 11.512 1.372 6.332 7.84 13.26 15.395 20.593 22.454 3.731 3.593 3.339 9.559-.679 12.635-44.522 34.094-93.073 71.272-117.485 89.966-2.739 2.1-6.543 2.289-9.464.468zm29.573 3.028c.1-.077 106.729-81.72 107.265-82.165 11.088 8.901 22.922 16.92 35.506 24.017-.582 1.071-1.297 2.65-1.733 3.86l-30.418 84.37c-.82 2.273-1.331 4.712-1.534 6.735-9.436-1.639-18.868-3.654-28.15-6.018-27.791-7.056-54.964-17.399-80.936-30.799zm180.657 53.979c-14.533.389-30.148-.173-45.166-1.624-8.295-.801-13.605-9.294-10.76-17.185l30.418-84.371c2.506-6.952 10.389-10.431 17.324-7.411 7.55 3.286 15.394 6.271 23.314 8.874.001 0 .002.001.004.001 21.456 7.038 35.872 26.952 35.872 49.554 0 28.318-22.534 51.465-51.006 52.162z"/></g></g></svg>