<svg id="Capa_1" enable-background="new 0 0 512 512" height="512" viewBox="0 0 512 512" width="512" xmlns="http://www.w3.org/2000/svg"><g><g><g><path d="m424.93 405.73c-112.62 8.39-225.24 8.39-337.86 0-9.6-59.11-11.76-118.22-6.47-177.34 1.53-17.15 3.69-34.3 6.47-51.45 74.46-5.54 148.92 12.857 223.38 14.637 38.16.92 76.32-17.476 114.48-14.637 12.39 76.27 12.39 152.53 0 228.79z" fill="#e27d47"/><path d="m126.252 174.375c-8.48 77.98-8.48 155.96 0 233.93-13.06-.74-26.12-1.6-39.18-2.57-12.39-76.26-12.39-152.52 0-228.79 13.06-.97 26.12-1.83 39.18-2.57z" fill="#dd6938"/><path d="m406.31 199.78s-11 41.24-50.9 79.81c0 0-54.45 11.98-118.03 11.98s-118.02-11.98-118.02-11.98c-18.59-17.96-30.91-36.51-38.76-51.2 1.53-17.15 3.69-34.3 6.47-51.45 74.46-5.54 148.92-7.42 223.38-5.64 35.2 14.44 68.68 26.46 95.86 28.48z" fill="#dd6938"/><path d="m424.93 176.94s-11 41.24-50.9 79.81c0 0-54.45 11.98-118.03 11.98s-118.02-11.98-118.02-11.98c-39.9-38.57-50.91-79.81-50.91-79.81 112.62-8.38 225.24-8.38 337.86 0z" fill="#eaaa89"/></g><path d="m461.852 405.733h-411.703c-23.554 0-42.649 19.094-42.649 42.649 0 23.554 19.094 42.649 42.649 42.649h411.703c23.554 0 42.648-19.094 42.648-42.649 0-23.554-19.094-42.649-42.648-42.649z" fill="#c3bec6"/><g fill="#655e66"><circle cx="50.149" cy="448.382" r="19.472"/><circle cx="461.851" cy="448.382" r="19.472"/><circle cx="379.511" cy="448.382" r="19.472"/><circle cx="297.17" cy="448.382" r="19.472"/><circle cx="214.83" cy="448.382" r="19.472"/><circle cx="132.489" cy="448.382" r="19.472"/></g><g><g><path d="m257.405 89.073h-2.809c-9.909 0-18.125-7.672-18.804-17.558l-2.086-30.407c-.747-10.891 7.886-20.138 18.803-20.138h6.981c10.917 0 19.551 9.246 18.803 20.138l-2.086 30.407c-.677 9.885-8.894 17.558-18.802 17.558z" fill="#f9f48e"/></g><g fill="#f9f48e"><path d="m338.191 108.769-1.982-1.991c-6.991-7.022-7.35-18.259-.822-25.713l20.078-22.93c7.192-8.213 19.836-8.618 27.538-.881l4.925 4.948c7.702 7.737 7.24 20.379-1.006 27.533l-23.021 19.974c-7.485 6.493-18.719 6.082-25.71-.94z"/><path d="m173.809 108.769 1.982-1.991c6.991-7.022 7.35-18.259.822-25.713l-20.078-22.93c-7.192-8.213-19.836-8.618-27.538-.881l-4.925 4.948c-7.702 7.737-7.24 20.379 1.006 27.533l23.021 19.974c7.485 6.493 18.719 6.082 25.71-.94z"/></g></g></g><g><path d="m497.313 412.917c-9.471-9.471-22.065-14.687-35.464-14.687h-28.159c6.749-44.989 9.257-90.495 7.454-135.401-.162-4.036-3.485-7.199-7.489-7.199-.101 0-.203.002-.306.006-4.139.166-7.359 3.656-7.193 7.795 1.796 44.704-.784 90.019-7.647 134.799h-325.027c-9.813-64.014-10.772-128.757-2.882-192.921 8.011 15.78 21.248 36.617 42.163 56.838.998.965 2.246 1.635 3.603 1.933 2.256.496 55.976 12.147 119.637 12.147s117.381-11.651 119.637-12.147c1.356-.298 2.604-.968 3.603-1.933 20.911-20.217 34.148-41.05 42.159-56.829 1.179 9.553 2.172 19.106 2.954 28.589.341 4.128 3.952 7.198 8.092 6.858 4.128-.341 7.198-3.963 6.857-8.092-1.559-18.885-3.904-38.04-6.972-56.935-.557-3.424-3.388-6.02-6.847-6.277-112.463-8.368-226.51-8.368-338.973 0-3.459.257-6.29 2.853-6.847 6.277-11.991 73.81-12.438 148.616-1.354 222.493h-28.162c-27.653-.001-50.15 22.496-50.15 50.149 0 13.399 5.216 25.993 14.687 35.463 9.471 9.471 22.065 14.687 35.464 14.687h24.26c4.143 0 7.5-3.358 7.5-7.5s-3.357-7.5-7.5-7.5h-24.261c-9.392 0-18.22-3.656-24.857-10.293-6.638-6.638-10.293-15.465-10.293-24.857 0-19.382 15.769-35.15 35.15-35.15h411.7c9.392 0 18.22 3.656 24.857 10.293 6.638 6.638 10.293 15.465 10.293 24.857 0 19.382-15.769 35.15-35.15 35.15h-357.56c-4.143 0-7.5 3.358-7.5 7.5s3.357 7.5 7.5 7.5h357.56c27.653 0 50.15-22.497 50.15-50.15 0-13.399-5.216-25.993-14.687-35.463zm-82.656-229.185c-5.255 13.407-18.107 40.255-44.302 66.128-10.464 2.122-59.226 11.367-114.352 11.367s-103.888-9.245-114.352-11.367c-26.083-25.767-38.991-52.692-44.282-66.129 105.332-7.378 211.957-7.378 317.288.001z"/><path d="m23.177 448.382c0 14.873 12.1 26.972 26.972 26.972 14.873 0 26.973-12.1 26.973-26.972s-12.1-26.972-26.973-26.972-26.972 12.099-26.972 26.972zm38.944 0c0 6.602-5.371 11.972-11.973 11.972s-11.972-5.371-11.972-11.972 5.37-11.972 11.972-11.972 11.973 5.37 11.973 11.972z"/><path d="m488.823 448.382c0-14.873-12.1-26.972-26.972-26.972-14.873 0-26.973 12.1-26.973 26.972s12.1 26.972 26.973 26.972 26.972-12.1 26.972-26.972zm-38.944 0c0-6.602 5.371-11.972 11.973-11.972s11.972 5.371 11.972 11.972-5.37 11.972-11.972 11.972-11.973-5.371-11.973-11.972z"/><path d="m406.483 448.382c0-14.873-12.1-26.972-26.973-26.972-14.872 0-26.972 12.1-26.972 26.972s12.1 26.972 26.972 26.972c14.874 0 26.973-12.1 26.973-26.972zm-38.944 0c0-6.602 5.37-11.972 11.972-11.972s11.973 5.371 11.973 11.972-5.371 11.972-11.973 11.972-11.972-5.371-11.972-11.972z"/><path d="m324.143 448.382c0-14.873-12.1-26.972-26.973-26.972-14.872 0-26.972 12.1-26.972 26.972s12.1 26.972 26.972 26.972c14.873 0 26.973-12.1 26.973-26.972zm-38.945 0c0-6.602 5.37-11.972 11.972-11.972s11.973 5.371 11.973 11.972-5.371 11.972-11.973 11.972-11.972-5.371-11.972-11.972z"/><path d="m241.802 448.382c0-14.873-12.1-26.972-26.972-26.972-14.873 0-26.973 12.1-26.973 26.972s12.1 26.972 26.973 26.972c14.872 0 26.972-12.1 26.972-26.972zm-38.945 0c0-6.602 5.371-11.972 11.973-11.972s11.972 5.371 11.972 11.972-5.37 11.972-11.972 11.972-11.973-5.371-11.973-11.972z"/><path d="m159.461 448.382c0-14.873-12.1-26.972-26.972-26.972-14.873 0-26.973 12.1-26.973 26.972s12.1 26.972 26.973 26.972c14.872 0 26.972-12.1 26.972-26.972zm-38.944 0c0-6.602 5.371-11.972 11.973-11.972s11.972 5.371 11.972 11.972-5.37 11.972-11.972 11.972-11.973-5.371-11.973-11.972z"/><path d="m228.31 72.028c.943 13.763 12.49 24.545 26.286 24.545h2.809c13.796 0 25.343-10.781 26.286-24.545l2.086-30.407c.498-7.257-2.064-14.468-7.028-19.785-4.965-5.317-11.983-8.366-19.258-8.366h-6.98c-7.274 0-14.293 3.049-19.258 8.366-4.964 5.317-7.526 12.528-7.028 19.785zm15.906-39.955c2.169-2.324 5.115-3.603 8.294-3.603h6.98c3.179 0 6.125 1.28 8.294 3.603 2.17 2.323 3.245 5.35 3.027 8.521l-2.086 30.407c-.406 5.927-5.379 10.571-11.321 10.571h-2.809c-5.942 0-10.915-4.643-11.321-10.571l-2.086-30.407c-.217-3.171.858-6.197 3.028-8.521z"/><path d="m332.876 114.06c5.111 5.134 11.89 7.731 18.686 7.731 6.146 0 12.306-2.125 17.254-6.418l23.021-19.974c5.494-4.767 8.798-11.67 9.063-18.94.266-7.269-2.525-14.395-7.657-19.55l-4.925-4.948c-5.133-5.155-12.263-7.972-19.516-7.746-7.271.233-14.188 3.505-18.979 8.977l-20.079 22.931c-9.088 10.379-8.583 26.168 1.149 35.946zm8.153-28.055 20.079-22.931c2.094-2.392 4.997-3.765 8.174-3.866.126-.004.252-.006.377-.006 3.036 0 5.875 1.178 8.028 3.342l4.925 4.948c2.243 2.253 3.414 5.243 3.298 8.42s-1.502 6.074-3.903 8.157l-23.021 19.974c-4.49 3.894-11.289 3.645-15.479-.565l-1.982-1.991c-4.192-4.211-4.41-11.012-.496-15.482z"/><path d="m120.163 95.399 23.021 19.974c4.949 4.294 11.107 6.418 17.254 6.418 6.795 0 13.575-2.597 18.686-7.731l1.982-1.991c9.732-9.777 10.237-25.566 1.149-35.945l-20.079-22.93c-4.791-5.472-11.709-8.745-18.979-8.977-7.274-.227-14.384 2.591-19.516 7.746l-4.925 4.948c-5.132 5.155-7.923 12.281-7.657 19.55.266 7.268 3.57 14.171 9.064 18.938zm9.225-27.907 4.925-4.948c2.154-2.164 4.992-3.342 8.028-3.342.125 0 .251.002.377.006 3.177.102 6.08 1.475 8.174 3.866l20.079 22.93c3.914 4.47 3.696 11.271-.495 15.481l-1.982 1.991c-4.19 4.211-10.989 4.46-15.479.565l-23.021-19.974c-2.401-2.083-3.787-4.98-3.903-8.157s1.054-6.165 3.297-8.418z"/></g></g></svg>