<svg id="Capa_1" enable-background="new 0 0 511.991 511.991" height="512" viewBox="0 0 511.991 511.991" width="512" xmlns="http://www.w3.org/2000/svg"><g><g><path d="m180.721 420.29h-20.281v-97.43h20.281c13.1 0 23.719 10.619 23.719 23.719v49.992c0 13.1-10.62 23.719-23.719 23.719z" fill="#da4a54"/><path d="m111.332 415.712c-16.312 0-29.535-13.223-29.535-29.535v-259.8c0-50.917 41.424-92.34 92.34-92.34h55.446c16.312 0 16.312 59.069 0 59.069h-55.446c-18.346 0-33.271 14.925-33.271 33.271v259.8c.001 16.311-13.223 29.535-29.534 29.535z" fill="#f9f6f9"/><path d="m105.377 126.377v259.8c0 12.109 7.301 22.529 17.745 27.089-3.603 1.571-7.596 2.446-11.79 2.446-16.303 0-29.535-13.232-29.535-29.535v-259.8c0-50.918 41.431-92.35 92.35-92.35h23.569c-50.919 0-92.339 41.432-92.339 92.35z" fill="#e2dfe2"/><path d="m172.618 274.028c-40.858-8.224-81.715-8.224-122.573 0-3.88 64.539-4.41 129.079-1.592 193.618.812 18.597 15.246 33.687 33.777 35.458 19.401 1.854 38.802 1.854 58.204 0 18.531-1.771 32.965-16.861 33.777-35.458 2.817-64.539 2.286-129.079-1.593-193.618z" fill="#655e66"/><path d="m91.432 503.844c-3.072-.201-6.131-.449-9.203-.744-18.536-1.772-32.973-16.859-33.776-35.454-2.823-64.54-2.292-129.079 1.583-193.619 12.428-2.505 24.845-4.253 37.273-5.234-1.418 68.958-1.571 137.916-.508 206.874.177 11.106 1.914 21.077 4.631 28.177z" fill="#535057"/><path d="m165.605 217.573h-108.547c-15.589 0-28.227 12.638-28.227 28.227 0 15.589 12.638 28.227 28.227 28.227h108.548c15.589 0 28.227-12.638 28.227-28.227-.001-15.589-12.638-28.227-28.228-28.227z" fill="#c3bec6"/><path d="m83.068 265.766c5.104 5.115 12.168 8.27 19.966 8.27h-45.968c-7.797 0-14.85-3.154-19.966-8.27-5.115-5.115-8.27-12.168-8.27-19.966 0-15.583 12.641-28.223 28.235-28.223h45.968c-15.594 0-28.235 12.641-28.235 28.223 0 7.798 3.167 14.851 8.27 19.966z" fill="#b4acb7"/><path d="m336.441 79.871c-58.634 29.317-98.754 39.394-98.754 39.394s-21.071-21.071-21.071-55.885 21.071-55.885 21.071-55.885 40.12 10.078 98.754 39.394z" fill="#c3bec6"/><path d="m336.44 70.155v9.711c-58.633 29.322-98.753 39.399-98.753 39.399s-12.275-12.275-18.087-33.563c20.167-1.559 71.097-6.143 116.84-15.547z" fill="#b4acb7"/><path d="m483.161 62.009c-15.325-27.037-44.341-45.294-77.638-45.294-.925 0-1.847.014-2.765.042-57.675 1.757-57.675 88.747 0 90.504.918.028 1.84.042 2.765.042 33.297 0 62.313-18.257 77.638-45.294z" fill="#e27d47"/><path d="m426.528 62.009c-8.306-14.655-24.034-24.551-42.082-24.551-.501 0-1.001.008-1.499.023-31.261.952-31.261 48.103 0 49.055.498.015.997.023 1.499.023 18.048 0 33.775-9.895 42.082-24.55z" fill="#ffef4a"/></g><g><path d="m339.798 40.181c-14.281-7.135-28.678-13.744-42.791-19.641-3.821-1.597-8.215.207-9.812 4.029s.207 8.215 4.028 9.812c12.438 5.198 25.107 10.962 37.722 17.163v23.684c-44.063 21.663-77.147 32.185-88.663 35.537-5.232-6.726-16.167-23.626-16.167-47.374 0-23.771 10.948-40.678 16.168-47.388 4.599 1.334 12.623 3.804 23.352 7.648 3.9 1.398 8.193-.632 9.59-4.531s-.631-8.193-4.531-9.59c-18.166-6.509-28.738-9.192-29.179-9.303-2.562-.645-5.269.104-7.134 1.97-.578.578-9.053 9.229-15.61 24.343h-42.636c-55.052 0-99.84 44.792-99.84 99.85v83.688h-17.237c-19.7 0-35.727 16.027-35.727 35.727 0 14.435 8.609 26.888 20.958 32.519-2.736 47.648-3.68 95.859-2.772 143.39.078 4.092 3.42 7.356 7.496 7.356.049 0 .098 0 .146-.001 4.141-.079 7.434-3.5 7.355-7.642-.886-46.368-.002-93.392 2.609-139.894h108.419c3.464 61.724 3.863 124.194 1.171 185.806-.634 14.728-12.241 26.897-26.999 28.306-18.834 1.796-37.933 1.796-56.765 0-14.759-1.409-26.366-13.578-27-28.318-.239-5.361-.45-10.753-.627-16.027-.138-4.139-3.577-7.395-7.747-7.245-4.14.138-7.383 3.606-7.245 7.747.178 5.329.391 10.778.632 16.182.954 22.166 18.391 40.477 40.562 42.594 9.889.943 19.848 1.415 29.807 1.415s19.918-.472 29.808-1.415c22.169-2.117 39.606-20.428 40.56-42.589.585-13.393 1.017-26.829 1.313-40.287 16.145-1.176 28.924-14.684 28.924-31.13v-49.985c0-16.742-13.242-30.444-29.798-31.186-.464-12.382-1.05-24.745-1.758-37.078 12.346-5.632 20.953-18.084 20.953-32.516 0-19.7-16.027-35.727-35.727-35.727h-17.24v-83.69c0-14.215 11.561-25.78 25.77-25.78h42.8c6.533 14.879 14.874 23.39 15.447 23.963 1.424 1.424 3.339 2.197 5.304 2.197.608 0 1.222-.074 1.827-.226 1.67-.42 41.588-10.617 100.286-39.955 2.542-1.27 4.147-3.868 4.147-6.709v-32.99c-.001-2.841-1.607-5.439-4.149-6.709zm-142.862 306.405v49.985c0 8.073-5.929 14.767-13.654 16.001.381-27.333.169-54.738-.637-82.083 8.036.954 14.291 7.804 14.291 16.097zm-10.604-100.781c0 11.429-9.298 20.728-20.727 20.728h-108.547c-11.429 0-20.727-9.298-20.727-20.728 0-11.429 9.298-20.727 20.727-20.727h108.548c11.428 0 20.726 9.299 20.726 20.727zm-12.196-160.194c-22.48 0-40.77 18.294-40.77 40.78v83.688h-44.07v-83.689c0-46.786 38.059-84.85 84.84-84.85h37.595c-1.599 6.573-2.615 13.874-2.615 21.85 0 8.124 1.051 15.553 2.702 22.22h-37.682z"/><path d="m283.677 40.408c-15.841-2.383-28.12-3.941-35.631-4.828-4.111-.488-7.841 2.456-8.328 6.569-.486 4.114 2.455 7.842 6.569 8.328 7.403.874 19.512 2.411 35.158 4.765.378.057.754.084 1.125.084 3.649 0 6.848-2.667 7.407-6.385.617-4.097-2.204-7.917-6.3-8.533z"/><path d="m281.44 71.526c-11.986 1.813-23.816 3.42-35.164 4.777-4.113.492-7.048 4.225-6.556 8.338.456 3.81 3.693 6.61 7.438 6.61.297 0 .598-.018.9-.054 11.501-1.376 23.487-3.004 35.625-4.839 4.096-.619 6.914-4.441 6.294-8.537-.619-4.096-4.442-6.913-8.537-6.295z"/><path d="m489.686 58.315c-17.166-30.283-49.415-49.095-84.163-49.095-1.002 0-2 .015-2.993.046-15.553.474-28.664 6.441-37.914 17.257-8.134 9.511-12.614 22.116-12.614 35.491s0 0 0 0v.014c.003 13.37 4.483 25.969 12.614 35.477 9.25 10.816 22.361 16.784 37.916 17.258.993.03 1.99.045 2.992.045 34.749 0 66.998-18.812 84.163-49.096 1.299-2.294 1.299-5.103-.001-7.397zm-122.685 3.699c0-8.233 5.002-16.691 16.174-17.032.422-.013.845-.019 1.271-.019 13.207 0 25.562 6.437 33.189 17.051-7.627 10.613-19.982 17.05-33.189 17.05-.425 0-.849-.006-1.27-.019-11.173-.341-16.174-8.799-16.175-17.031zm38.522 37.794c-.849 0-1.695-.013-2.536-.039-6.847-.209-13.715-2.081-19.59-5.721.35.006.699.016 1.05.016 20.069 0 38.694-10.864 48.606-28.352 1.3-2.294 1.3-5.102 0-7.396-9.912-17.488-28.537-28.352-48.606-28.352-.351 0-.7.009-1.049.016 5.876-3.64 12.743-5.512 19.591-5.721.842-.026 1.687-.039 2.535-.039 27.917 0 53.926 14.376 68.886 37.794-14.961 23.418-40.97 37.794-68.887 37.794z"/></g></g></svg>