<svg id="Capa_1" enable-background="new 0 0 512 512" height="512" viewBox="0 0 512 512" width="512" xmlns="http://www.w3.org/2000/svg"><g><g><path d="m232.174 289.203v36.97c0 8.395 6.805 15.2 15.2 15.2h17.252c8.395 0 15.2-6.805 15.2-15.2v-36.97" fill="#da4a54"/><path d="m261.414 341.373h-14.04c-8.39 0-15.2-6.8-15.2-15.2v-36.97h14.04v36.97c0 8.4 6.8 15.2 15.2 15.2z" fill="#d82e3d"/><path d="m335.473 249.099s-11.73 32.804-37.409 53.891c-5.131 4.213-11.598 6.459-18.237 6.459h-47.653c-6.639 0-13.106-2.246-18.237-6.459-25.679-21.087-37.409-53.891-37.409-53.891" fill="#c3bec6"/><path d="m176.528 249.099c-5.828-67.667-5.828-121.144 0-188.811 52.982-7.443 105.963-21.634 158.945-14.191 5.828 67.667 5.828 135.335 0 203.002-52.982 7.444-105.963 7.444-158.945 0z" fill="#655e66"/><path d="m231.797 309.44c-6.51-.08-12.83-2.32-17.86-6.45-25.68-21.09-37.41-53.89-37.41-53.89h37.72s5.52 38.36 17.55 60.34z" fill="#b4acb7"/><path d="m214.908 253.179c-12.8-.92-25.59-2.28-38.38-4.08-5.83-67.67-5.83-135.34 0-203 12.49-1.75 24.97-3.1 37.46-4.02-2.8 66.23-2.71 141.34.26 207.02 0 0 .22 1.5.66 4.08z" fill="#535057"/><path d="m326.48 442.03c0 7.45 6.22 16.1 8.58 23.79h-158.12c2.36-7.69 8.58-16.34 8.58-23.79 0-10.59-12.57-23.62-8.75-32.83 3.96-9.54 22.2-9.82 29.39-17.01 7.2-7.2 7.47-25.44 17.02-29.4 9.21-3.82 22.23 8.76 32.82 8.76s23.61-12.58 32.82-8.76c9.55 3.96 9.82 22.2 17.02 29.4 7.19 7.19 25.44 7.47 29.39 17.01 3.82 9.21-8.75 22.24-8.75 32.83z" fill="#ffef4a"/><path d="m433.92 55.05c-2.36 23.86-22.21 42.17-46.18 42.92-87.83 2.73-175.65 2.73-263.48 0-23.97-.75-43.82-19.06-46.18-42.92-1.34-13.52-1.34-27.05 0-40.57.24-2.39.65-4.72 1.22-6.98h353.4c.57 2.26.98 4.59 1.22 6.98 1.34 13.52 1.34 27.05 0 40.57z" fill="#9dc6fb"/><path d="m167.99 99.1c-14.58-.3-29.15-.68-43.73-1.13-23.97-.75-43.82-19.06-46.18-42.92-1.34-13.52-1.34-27.05 0-40.57.24-2.39.65-4.72 1.22-6.98h62.01c-.61 2.42-1.05 4.92-1.31 7.49-1.43 14.5-1.43 29.02 0 43.52 1.78 17.92 12.75 32.93 27.99 40.59z" fill="#80b4fb"/><path d="m148.108 186.694c-.001-.189-.001-.378 0-.567.062-15.66 12.832-28.334 28.488-28.704 52.937-1.254 105.873-1.254 158.81 0 15.656.371 28.426 13.045 28.488 28.704.001.189.001.378 0 .567-.062 15.66-12.832 28.334-28.488 28.704-52.937 1.254-105.873 1.254-158.81 0-15.656-.371-28.426-13.044-28.488-28.704z" fill="#c3bec6"/><path d="m211.618 216.044c-11.68-.15-23.35-.37-35.02-.64-15.66-.37-28.43-13.05-28.49-28.71v-.56c.06-15.66 12.83-28.34 28.49-28.71 11.67-.27 23.34-.49 35.02-.64-12.13 4.34-20.89 15.81-20.94 29.32v.62c.05 13.51 8.81 24.98 20.94 29.32z" fill="#b4acb7"/><path d="m396.33 455.627v25.556c0 12.878-10.439 23.317-23.317 23.317h-234.026c-12.877 0-23.317-10.439-23.317-23.317v-25.556c0-12.878 10.439-23.317 23.317-23.317h80.923l36.09 36.09 36.09-36.09h80.923c12.878 0 23.317 10.439 23.317 23.317z" fill="#c3bec6"/><path d="m178.19 504.497h-39.21c-12.88 0-23.31-10.44-23.31-23.32v-25.55c0-12.88 10.43-23.32 23.31-23.32h39.21c-12.88 0-23.32 10.44-23.32 23.32v25.55c0 12.88 10.44 23.32 23.32 23.32z" fill="#b4acb7"/><g fill="#f9f48e"><path d="m118.454 219.85-1.242 2.152c-4.382 7.59-13.892 10.49-21.764 6.638l-24.213-11.849c-8.673-4.244-11.937-14.946-7.109-23.308l3.087-5.347c4.828-8.362 15.728-10.886 23.74-5.497l22.368 15.045c7.272 4.89 9.515 14.576 5.133 22.166z"/><path d="m393.546 381.544 1.242-2.152c4.382-7.59 13.892-10.49 21.764-6.638l24.213 11.849c8.673 4.244 11.937 14.946 7.109 23.308l-3.087 5.347c-4.828 8.362-15.728 10.886-23.74 5.497l-22.368-15.045c-7.271-4.89-9.514-14.576-5.133-22.166z"/><path d="m96.458 299.455v2.485c0 8.764-6.786 16.031-15.529 16.631l-26.894 1.845c-9.633.661-17.811-6.975-17.811-16.631v-6.174c0-9.656 8.178-17.292 17.811-16.631l26.894 1.845c8.743.599 15.529 7.866 15.529 16.63z"/><path d="m415.542 301.94v-2.485c0-8.764 6.786-16.031 15.529-16.631l26.894-1.845c9.633-.661 17.811 6.975 17.811 16.631v6.174c0 9.656-8.178 17.292-17.811 16.631l-26.894-1.845c-8.743-.599-15.529-7.867-15.529-16.63z"/><path d="m117.212 379.392 1.242 2.152c4.382 7.59 2.139 17.276-5.133 22.167l-22.368 15.045c-8.012 5.389-18.912 2.865-23.74-5.497l-3.087-5.347c-4.828-8.362-1.564-19.064 7.109-23.308l24.213-11.849c7.871-3.853 17.382-.953 21.764 6.637z"/><path d="m394.789 222.002-1.242-2.152c-4.382-7.59-2.139-17.276 5.133-22.167l22.368-15.045c8.012-5.389 18.912-2.865 23.74 5.497l3.087 5.347c4.828 8.362 1.564 19.064-7.109 23.308l-24.213 11.849c-7.872 3.854-17.382.953-21.764-6.637z"/></g><g><g><path d="m326.385 71.905c-4.658.171-9.316.171-13.973 0-8.121-.298-14.689-6.866-14.987-14.987-.171-4.658-.171-9.316 0-13.974.298-8.121 6.866-14.689 14.987-14.987 4.561-.167 9.122-.171 13.683-.01 8.343.293 14.995 6.945 15.288 15.288.16 4.561.157 9.122-.01 13.683-.298 8.121-6.867 14.689-14.988 14.987z" fill="#ffef4a"/><path d="m390.746 71.905c-4.658.171-9.316.171-13.973 0-8.121-.298-14.689-6.866-14.987-14.987-.171-4.658-.171-9.316 0-13.974.298-8.121 6.866-14.689 14.987-14.987 4.561-.167 9.122-.171 13.683-.01 8.343.293 14.995 6.945 15.288 15.288.16 4.561.157 9.122-.01 13.683-.298 8.121-6.867 14.689-14.988 14.987z" fill="#78d0b1"/></g><g><path d="m325.545 71.908c.14 0 .28.01.42.01-4.52.16-9.04.15-13.55-.01-8.12-.3-14.69-6.87-14.99-14.99-.17-4.66-.17-9.32 0-13.98.3-8.12 6.87-14.69 14.99-14.98 4.52-.17 9.05-.17 13.57-.01-.15 0-.29 0-.44.01-8.12.29-14.69 6.86-14.98 14.98-.18 4.66-.18 9.32 0 13.98.29 8.12 6.86 14.69 14.98 14.99z" fill="#ffd321"/><path d="m389.905 71.908c.14 0 .28.01.42.01-4.52.16-9.03.15-13.55-.01-8.12-.3-14.69-6.87-14.99-14.99-.17-4.66-.17-9.32 0-13.98.3-8.12 6.87-14.69 14.99-14.98 4.52-.17 9.05-.17 13.57-.01-.15 0-.29 0-.44.01-8.12.29-14.69 6.86-14.98 14.98-.17 4.66-.17 9.32 0 13.98.29 8.12 6.86 14.69 14.98 14.99z" fill="#66b49d"/></g></g></g><g><path d="m124.027 105.466c13.763.428 27.558.78 41.372 1.074-.525 15.102-.761 30.383-.703 45.627-13.95 5.144-24.027 18.521-24.087 33.963v.589c.062 16.245 11.244 30.218 26.36 34.688.578 9.356 1.273 18.855 2.087 28.334.056.656.221 1.276.434 1.873l-.026.009c.507 1.419 12.738 35.013 39.711 57.162 4.479 3.678 9.816 6.197 15.497 7.384v10.003c0 12.517 10.183 22.7 22.7 22.7h17.252c12.518 0 22.701-10.183 22.701-22.7v-10.002c5.681-1.187 11.018-3.706 15.496-7.383 26.974-22.149 39.204-55.743 39.712-57.163l-.027-.01c.213-.597.378-1.217.434-1.872.813-9.467 1.509-18.966 2.088-28.333 15.116-4.468 26.298-18.448 26.36-34.72v-.588c-.059-15.421-10.135-28.795-24.086-33.937.058-15.249-.178-30.53-.703-45.625 13.814-.293 27.61-.646 41.374-1.074 27.733-.868 50.694-22.225 53.409-49.677 1.382-13.951 1.382-28.098-.002-42.06-.273-2.724-.747-5.437-1.409-8.062-.837-3.331-3.834-5.666-7.271-5.666h-353.4c-3.436 0-6.432 2.335-7.272 5.667-.661 2.622-1.135 5.335-1.411 8.074-1.383 13.951-1.383 28.098 0 42.048 2.715 27.453 25.676 48.81 53.41 49.677zm58.07 117.549c24.537.537 49.217.818 73.904.818 24.685 0 49.364-.281 73.902-.818-.413 6.448-.881 12.952-1.407 19.458-48.139 6.24-96.854 6.24-144.993 0-.525-6.512-.993-13.016-1.406-19.458zm82.529 110.859h-17.252c-4.246 0-7.7-3.454-7.7-7.7v-9.224h32.653v9.224c0 4.245-3.455 7.7-7.701 7.7zm28.678-36.68c-3.734 3.066-8.52 4.755-13.477 4.755h-47.653c-4.957 0-9.743-1.689-13.478-4.756-14.528-11.93-24.391-28.139-29.878-38.971 22.322 2.608 44.751 3.931 67.181 3.931 22.431 0 44.86-1.323 67.182-3.932-5.487 10.835-15.349 27.044-29.877 38.973zm39.006-147.341c-4.934-.112-9.871-.222-14.803-.312-4.142-.072-7.56 3.219-7.636 7.362-.075 4.142 3.221 7.56 7.362 7.636 5.997.11 12.005.239 17.999.379 11.623.275 21.113 9.803 21.157 21.212v.532c-.044 11.437-9.534 20.965-21.156 21.24-52.577 1.242-105.889 1.242-158.456 0-11.628-.275-21.124-9.803-21.167-21.212v-.531c.044-11.438 9.54-20.966 21.167-21.241 36.876-.869 74.068-1.133 110.542-.789h.073c4.108 0 7.459-3.311 7.498-7.429.039-4.142-3.287-7.532-7.429-7.571-35.566-.337-71.801-.091-107.771.722-.027-14.381.209-28.781.707-43.02 25.163.445 50.381.676 75.602.676s50.44-.23 75.603-.676c.499 14.235.736 28.635.708 43.022zm-246.767-134.623c.008-.077.016-.153.024-.23h340.867c.008.073.016.146.022.219 1.286 12.969 1.286 26.122 0 39.091v.002c-1.976 19.982-18.721 35.529-38.949 36.162-87.261 2.712-175.752 2.712-263.013 0-20.229-.633-36.974-16.18-38.95-36.164-1.285-12.969-1.285-26.121-.001-39.08z"/><path d="m263.501 360.076c0-4.142-3.357-7.5-7.5-7.5-4.142 0-7.5 3.358-7.5 7.5v24.608c0 4.142 3.358 7.5 7.5 7.5 4.143 0 7.5-3.358 7.5-7.5z"/><path d="m256.001 402.458c-4.142 0-7.5 3.358-7.5 7.5v24.608c0 4.142 3.358 7.5 7.5 7.5 4.143 0 7.5-3.358 7.5-7.5v-24.608c0-4.143-3.357-7.5-7.5-7.5z"/><path d="m373.01 424.81h-32.39c2.475-5.924 4.125-12.251 1.54-18.479-3.53-8.524-12.5-11.688-20.415-14.48-4.083-1.44-8.71-3.072-10.603-4.964-1.896-1.896-3.529-6.525-4.97-10.609-2.79-7.912-5.953-16.879-14.486-20.417-6.678-2.763-13.55-.552-18.788 1.682-3.811 1.625-5.582 6.03-3.958 9.841 1.625 3.81 6.03 5.583 9.841 3.957 4.513-1.924 6.393-1.942 7.166-1.621 2.351.974 4.418 6.837 6.08 11.548 2.067 5.862 4.206 11.923 8.51 16.227 4.298 4.298 10.358 6.436 16.219 8.503 4.711 1.662 10.575 3.73 11.548 6.079.865 2.086-1.813 7.75-3.769 11.886-.132.278-.265.567-.397.849h-32.048c-1.989 0-3.896.79-5.304 2.197l-30.786 30.784-30.787-30.787c-1.406-1.407-3.314-2.197-5.303-2.197h-32.048c-.133-.281-.266-.57-.398-.849-1.956-4.136-4.633-9.799-3.768-11.886.975-2.348 6.838-4.417 11.55-6.079 5.859-2.067 11.918-4.205 16.216-8.503 4.303-4.303 6.441-10.364 8.509-16.226 1.662-4.711 3.73-10.574 6.075-11.546.784-.324 2.663-.305 7.171 1.618 3.811 1.625 8.217-.146 9.841-3.957 1.625-3.81-.147-8.216-3.957-9.841-5.238-2.234-12.109-4.444-18.794-1.679-8.527 3.536-11.69 12.503-14.481 20.416-1.441 4.084-3.074 8.713-4.97 10.609-1.892 1.892-6.519 3.524-10.601 4.965-7.911 2.791-16.877 5.955-20.413 14.474-2.586 6.232-.937 12.561 1.538 18.485h-17.39c-4.142 0-7.5 3.358-7.5 7.5s3.358 7.5 7.5 7.5h62.813l33.893 33.893c2.928 2.928 7.676 2.929 10.607 0l33.893-33.893h77.813c8.724 0 15.82 7.097 15.82 15.82v25.55c0 8.723-7.097 15.82-15.82 15.82h-234.019c-8.723 0-15.82-7.097-15.82-15.82v-25.55c0-4.958 2.252-9.527 6.18-12.535 3.289-2.519 3.913-7.226 1.395-10.515s-7.226-3.912-10.515-1.395c-7.664 5.869-12.06 14.779-12.06 24.444v25.55c0 16.994 13.826 30.82 30.82 30.82h234.02c16.994 0 30.82-13.826 30.82-30.82v-25.55c0-16.993-13.826-30.819-30.82-30.819z"/><path d="m67.937 223.528 24.213 11.849c3.387 1.658 6.996 2.446 10.561 2.446 8.398 0 16.554-4.376 20.996-12.071l1.242-2.151c6.328-10.959 3.059-25.078-7.442-32.141l-22.369-15.045c-5.537-3.724-12.442-4.996-18.942-3.491-6.501 1.505-12.143 5.683-15.479 11.462l-3.087 5.347c-3.336 5.779-4.133 12.754-2.187 19.137 1.947 6.382 6.501 11.725 12.494 14.658zm2.683-26.295 3.087-5.347c1.285-2.225 3.37-3.769 5.873-4.349.699-.162 1.401-.242 2.098-.242 1.797 0 3.552.533 5.089 1.566l22.369 15.044c3.984 2.68 5.224 8.036 2.823 12.194l-1.242 2.151c-2.401 4.158-7.659 5.764-11.972 3.651l-24.214-11.849c-2.307-1.129-3.99-3.104-4.74-5.561-.75-2.455-.455-5.033.829-7.258z"/><path d="m444.063 377.866-24.213-11.849c-11.367-5.56-25.228-1.335-31.555 9.623l-1.243 2.152c0 .001-.001.001-.001.002-6.328 10.96-3.059 25.078 7.443 32.141l22.367 15.044c4.013 2.699 8.742 4.11 13.517 4.11 1.813 0 3.635-.204 5.425-.618 6.501-1.505 12.144-5.683 15.48-11.462l3.087-5.347c3.336-5.778 4.134-12.753 2.188-19.136-1.947-6.383-6.501-11.726-12.495-14.66zm-2.683 26.296-3.087 5.347c-1.284 2.225-3.37 3.77-5.873 4.349-2.504.578-5.054.109-7.187-1.325l-22.368-15.045c-3.983-2.679-5.225-8.034-2.825-12.192l1.244-2.154c2.401-4.158 7.66-5.763 11.972-3.651l24.213 11.849c2.308 1.129 3.991 3.105 4.741 5.563.749 2.456.454 5.034-.83 7.259z"/><path d="m81.442 326.053c12.626-.866 22.516-11.458 22.516-24.113v-2.485c0-12.656-9.89-23.248-22.516-24.113l-26.894-1.845c-6.657-.457-13.273 1.894-18.15 6.448s-7.674 10.993-7.674 17.666v6.174c0 6.673 2.797 13.112 7.675 17.667 4.477 4.18 10.417 6.503 16.511 6.503.545 0 1.092-.019 1.638-.056zm-34.806-15.566c-1.877-1.753-2.912-4.134-2.912-6.703v-6.174c0-2.569 1.034-4.949 2.912-6.702 1.719-1.605 3.913-2.469 6.238-2.469.215 0 .431.008.648.022l26.894 1.845c4.79.329 8.542 4.347 8.542 9.148v2.485c0 4.801-3.752 8.82-8.542 9.148l-26.894 1.845c-2.567.177-5.008-.692-6.886-2.445z"/><path d="m475.602 279.944c-4.878-4.554-11.486-6.904-18.15-6.448l-26.893 1.845c-12.626.866-22.517 11.458-22.517 24.113v2.485c0 12.656 9.891 23.248 22.516 24.113l26.894 1.845c.547.038 1.093.056 1.639.056 6.093 0 12.034-2.323 16.511-6.503 4.878-4.554 7.675-10.993 7.675-17.667v-6.174c-.001-6.672-2.798-13.111-7.675-17.665zm-7.326 23.84c0 2.569-1.034 4.949-2.912 6.703-1.876 1.753-4.318 2.625-6.885 2.446l-26.895-1.845c-4.79-.329-8.542-4.347-8.542-9.148v-2.485c0-4.801 3.752-8.82 8.543-9.148l26.893-1.845c.218-.015.434-.022.648-.022 2.325 0 4.52.864 6.238 2.469 1.877 1.753 2.911 4.133 2.911 6.702v6.173z"/><path d="m124.949 377.794-1.242-2.152c-6.327-10.959-20.188-15.188-31.556-9.625l-24.213 11.85c-5.994 2.933-10.547 8.276-12.494 14.658s-1.15 13.357 2.187 19.137l3.087 5.347c3.336 5.779 8.978 9.957 15.479 11.462 1.791.415 3.611.618 5.426.618 4.773 0 9.504-1.411 13.516-4.11l22.369-15.044c10.5-7.063 13.769-21.182 7.441-32.141zm-15.814 19.694-22.369 15.044c-2.13 1.433-4.682 1.904-7.186 1.325-2.502-.58-4.588-2.124-5.873-4.349l-3.087-5.347c-1.284-2.225-1.579-4.803-.83-7.261.75-2.457 2.433-4.432 4.74-5.561l24.213-11.849c1.285-.629 2.654-.928 4.006-.928 3.187 0 6.28 1.661 7.965 4.579l1.243 2.152c2.403 4.159 1.162 9.516-2.822 12.195z"/><path d="m416.863 176.415-22.368 15.044c-10.502 7.063-13.771 21.181-7.442 32.143l1.242 2.15c4.442 7.695 12.597 12.071 20.996 12.071 3.563 0 7.173-.789 10.56-2.446l24.213-11.849c5.994-2.934 10.548-8.276 12.494-14.659 1.947-6.383 1.15-13.357-2.187-19.135l-3.087-5.348c-3.337-5.779-8.979-9.957-15.479-11.462-6.504-1.507-13.406-.233-18.942 3.491zm21.43 15.47 3.087 5.348c1.284 2.225 1.579 4.803.83 7.26-.75 2.458-2.434 4.433-4.741 5.562l-24.213 11.85c-4.313 2.109-9.571.507-11.972-3.652 0 0-.001-.001-.001-.002l-1.242-2.15c-2.4-4.158-1.16-9.515 2.824-12.194l22.368-15.044c1.537-1.033 3.291-1.566 5.089-1.566.696 0 1.398.08 2.098.242 2.503.578 4.589 2.122 5.873 4.346z"/><path d="m312.136 79.4c2.41.088 4.836.133 7.263.133 2.426 0 4.852-.044 7.262-.133h-.001c12.013-.44 21.768-10.195 22.208-22.208.173-4.723.177-9.508.011-14.222-.43-12.199-10.321-22.09-22.52-22.519-4.719-.166-9.504-.162-14.223.011-12.012.441-21.767 10.196-22.207 22.208-.177 4.818-.177 9.705 0 14.523.44 12.012 10.195 21.767 22.207 22.207zm-7.217-36.181c.154-4.201 3.565-7.613 7.767-7.768 2.228-.082 4.469-.122 6.712-.122 2.149 0 4.299.038 6.434.113 4.437.156 7.9 3.619 8.057 8.056.152 4.357.149 8.78-.011 13.146-.154 4.201-3.565 7.613-7.767 7.767-.001 0-.001 0-.001 0-4.452.163-8.968.163-13.424 0-4.201-.154-7.612-3.566-7.767-7.767-.163-4.455-.163-8.971 0-13.425z"/><path d="m376.497 79.4c2.41.088 4.836.133 7.263.133 2.426 0 4.852-.044 7.262-.133h-.001c12.013-.44 21.768-10.195 22.208-22.208.173-4.723.177-9.508.011-14.222-.43-12.199-10.321-22.09-22.52-22.519-4.718-.166-9.503-.162-14.223.011-12.012.441-21.767 10.196-22.207 22.208-.177 4.818-.177 9.705 0 14.523.441 12.012 10.196 21.767 22.207 22.207zm-7.216-36.181c.154-4.201 3.565-7.613 7.767-7.768 2.228-.082 4.469-.122 6.712-.122 2.149 0 4.299.038 6.434.113 4.437.156 7.9 3.619 8.057 8.056.152 4.357.149 8.78-.011 13.146-.154 4.201-3.565 7.613-7.767 7.767-.001 0-.001 0-.001 0-4.452.163-8.968.163-13.424 0-4.201-.154-7.612-3.566-7.767-7.767-.164-4.455-.164-8.971 0-13.425z"/></g></g></svg>