<svg id="Capa_1" enable-background="new 0 0 511.994 511.994" height="512" viewBox="0 0 511.994 511.994" width="512" xmlns="http://www.w3.org/2000/svg"><g><g><g><path d="m415.189 477.009c0-13.214-8.099-32.383-13.104-42.966-2.474-5.232-6.805-9.357-12.157-11.557-33.022-13.574-90.238-21.131-135.356-21.131h-40.617c-45.119 0-102.335 7.557-135.356 21.131-5.353 2.2-9.684 6.325-12.157 11.557-5.004 10.583-13.104 29.753-13.104 42.966z" fill="#c3bec6"/><path d="m221.427 401.359c-28.53 0-64.72 7.56-85.6 21.13-3.38 2.2-6.12 6.33-7.69 11.56-3.16 10.58-8.28 29.75-8.28 42.96h-66.52c0-13.21 8.1-32.38 13.11-42.96 2.47-5.23 6.8-9.36 12.16-11.56 33.02-13.57 90.23-21.13 135.35-21.13z" fill="#b4acb7"/></g><path d="m123.527 320.281h221.472v89.656h-221.472z" fill="#f9f6f9"/><path d="m123.527 320.281h221.472v64.846h-221.472z" fill="#e2dfe2"/><path d="m504.494 189.987v23.923c0 8.821-7.151 15.971-15.971 15.971h-70.589v-55.866h70.589c8.821 0 15.971 7.151 15.971 15.972z" fill="#f9f6f9"/><path d="m504.493 197.172v16.74c0 8.82-7.15 15.97-15.97 15.97h-70.589v-16.74h70.589c8.82 0 15.97-7.15 15.97-15.97z" fill="#e2dfe2"/><path d="m424.464 134.519c-16.135-2.361-32.27-1.614-48.405 2.24-2.201 43.459-2.201 86.919 0 130.378 16.135 3.854 32.27 4.601 48.405 2.24 6.755-.988 11.865-6.634 12.151-13.455 1.509-35.983 1.509-71.966 0-107.948-.286-6.821-5.397-12.467-12.151-13.455z" fill="#655e66"/><path d="m429.804 237.908c2.83-.38 5.41-1.42 7.52-2.93-.18 6.98-.42 13.96-.71 20.94-.28 6.82-5.39 12.47-12.15 13.46-16.14 2.36-32.27 1.61-48.409-2.25-1.37-27.14-1.89-54.279-1.55-81.419.22 16.65.79 33.309 1.73 49.959 17.859 3.86 35.719 4.6 53.569 2.24z" fill="#535057"/><path d="m378.936 85.422c-27.883-4.08-55.767-2.789-83.65 3.871-3.804 75.103-3.804 150.206 0 225.309 27.883 6.661 55.767 7.951 83.65 3.871 11.673-1.708 20.504-11.465 20.999-23.252 2.608-62.183 2.608-124.366 0-186.548-.495-11.786-9.326-21.543-20.999-23.251z" fill="#f9f6f9"/><path d="m401.036 263.755c-.29 10.49-.66 20.98-1.1 31.47-.49 11.79-9.32 21.54-21 23.25-27.879 4.08-55.769 2.79-83.649-3.87-.73-14.37-1.32-28.75-1.77-43.119 29.58 5.98 59.169 7.02 88.749 3.1 7.91-1.051 14.63-5.121 18.77-10.831z" fill="#e2dfe2"/><path d="m326.587 40.746c1.77.14 3.54.29 5.31.44 15.34 1.33 27.59 13.38 29.1 28.7 8.71 88.039 8.71 176.087 0 264.126-1.51 15.32-13.76 27.37-29.1 28.7-1.77.15-3.54.3-5.31.45-3.36-8.71-11.81-14.9-21.72-14.9h-103.748c-6.42 0-12.24 2.61-16.46 6.82-3.63 3.63-6.07 8.45-6.67 13.83-9.413-.053-18.826-.186-28.239-.398-6.537-.147-13.073-38.703-19.61-38.924-66.429-2.28-90.178-17.337-92.358-83.756-.97-29.26-.97-58.509 0-87.769 2.18-66.419 25.929-96.215 92.358-98.494 6.537-.221 13.073-24.039 19.61-24.186 9.413-.211 18.826-.345 28.239-.398 1.3 11.62 11.17 20.65 23.13 20.65h103.748c9.9-.001 18.36-6.181 21.72-14.891z" fill="#c3bec6"/><path d="m331.897 303.712c10.55-.58 24.36-4.36 32.46-9.82-.92 13.37-2.04 26.75-3.36 40.119-1.51 15.32-13.76 27.37-29.1 28.7-1.77.15-3.54.3-5.31.45-3.36-8.71-11.81-14.9-21.72-14.9h-103.748c-6.42 0-12.24 2.61-16.46 6.82-3.63 3.63-6.07 8.45-6.67 13.83-9.42-.05-18.83-.19-28.24-.4-6.54-.14-13.08-38.699-19.61-38.919-51.239-1.76-77.089-11.12-87.219-45.799 23.11 13.78 54.169 22.52 87.219 23.24 6.51.14 13.03.26 19.54.35.02 0 .04.01.07.01 9.41.13 18.82.22 28.24.25.6-3.41 3.04-6.46 6.67-8.76 4.22-2.66 10.04-4.31 16.46-4.31h103.748c9.91 0 18.36 3.92 21.72 9.43 1.77-.101 3.54-.191 5.31-.291z" fill="#b4acb7"/><path d="m149.75 35.376v333.125c-6.53-.14-13.07-.33-19.61-.55-66.429-2.28-119.738-55.709-121.918-122.128-.97-29.26-.97-58.509 0-87.769 2.18-66.419 55.489-119.848 121.918-122.128 6.54-.22 13.08-.41 19.61-.55z" fill="#da4a54"/><path d="m8.382 249.185c15.88 32.589 65.949 56.649 121.758 57.859 6.51.14 13.03.26 19.54.35.02 0 .04.01.07.01v61.109c-6.53-.14-13.07-.33-19.61-.55-65.309-2.24-117.938-53.919-121.758-118.778z" fill="#d82e3d"/><path d="m334.824 201.949c0 12.856-10.422 23.278-23.277 23.278h-103.752c-12.856 0-23.277-10.422-23.277-23.277 0-12.856 10.422-23.277 23.277-23.277h103.751c12.856-.001 23.278 10.42 23.278 23.276z" fill="#b4acb7"/><g fill="#b4acb7"><path d="m334.824 109.504c0 12.856-10.422 23.278-23.277 23.278h-103.752c-12.856 0-23.277-10.422-23.277-23.277 0-12.856 10.422-23.278 23.277-23.278h103.751c12.856 0 23.278 10.421 23.278 23.277z"/><path d="m334.824 294.394c0 12.856-10.422 23.278-23.277 23.278h-103.752c-12.856 0-23.277-10.422-23.277-23.277 0-12.856 10.422-23.277 23.277-23.277h103.751c12.856-.001 23.278 10.42 23.278 23.276z"/></g><path d="m67.387 132.804v76.11h-8.013c-9.728 0-15.808 10.531-10.943 18.956l25.682 44.477c4.864 8.424 17.022 8.424 21.887 0l25.684-44.477c4.865-8.425-1.215-18.956-10.943-18.956h-8.016v-76.11c0-4.392-3.56-7.952-7.952-7.952h-19.434c-4.392 0-7.952 3.56-7.952 7.952z" fill="#f9f6f9"/></g><g><path d="m488.525 166.513h-43.781c-.172-6.297-.372-12.587-.635-18.858-.442-10.402-8.245-19.05-18.56-20.563-5.8-.846-11.65-1.305-17.468-1.39-.197-5.788-.41-11.572-.652-17.346-.651-15.356-12.177-28.121-27.409-30.353-3.616-.527-7.243-.958-10.847-1.31-.234-2.515-.467-5.03-.715-7.542-1.861-18.89-16.967-33.793-35.931-35.438l-.163-.014c-1.729-.146-3.459-.293-5.189-.43-3.325-.264-6.395 1.683-7.589 4.778-2.327 6.034-8.243 10.089-14.722 10.089h-103.75c-8.045 0-14.784-6.012-15.677-13.984-.425-3.798-3.636-6.666-7.452-6.666-.015 0-.029 0-.043 0-15.829.089-31.995.41-48.057.954-18.667.644-36.602 5.047-53.305 13.088-3.732 1.797-5.302 6.279-3.505 10.011 1.797 3.733 6.279 5.301 10.011 3.505 14.819-7.134 30.739-11.041 47.312-11.612 3.946-.134 7.898-.25 11.851-.356v317.741c-3.952-.106-7.903-.223-11.848-.356-30.217-1.037-58.629-13.401-80.003-34.814-21.371-21.41-33.687-49.841-34.678-80.059-.961-28.955-.961-58.317 0-87.275 1.125-34.286 17.02-66.411 43.608-88.138 3.208-2.621 3.684-7.346 1.063-10.553-2.62-3.208-7.346-3.684-10.553-1.062-29.943 24.467-47.844 60.646-49.11 99.259-.972 29.285-.972 58.982 0 88.265 1.117 34.03 14.986 66.05 39.054 90.161 20.772 20.81 47.449 34.022 76.242 38.007v29.552c-15.868 3.335-29.397 7.279-40.268 11.748-7.1 2.914-12.815 8.342-16.092 15.281-6.31 13.337-13.831 32.175-13.831 46.177 0 4.142 3.357 7.5 7.5 7.5h361.86c4.143 0 7.5-3.358 7.5-7.5 0-14.002-7.521-32.84-13.828-46.173-3.279-6.943-8.995-12.372-16.091-15.284-10.877-4.472-24.411-8.415-40.281-11.75v-41.125c8.805-6.453 14.833-16.453 15.964-27.932.248-2.506.467-5.028.702-7.542 3.609-.352 7.242-.784 10.865-1.312 15.228-2.232 26.753-14.997 27.404-30.356.243-5.777.455-11.564.652-17.355 5.821-.085 11.67-.531 17.474-1.378 10.309-1.512 18.111-10.16 18.554-20.566.263-6.27.464-12.559.635-18.854h43.781c12.941 0 23.47-10.528 23.47-23.47v-23.93c0-12.942-10.528-23.47-23.469-23.47zm-93.22 270.732c5.907 12.489 9.925 23.767 11.563 32.263h-345.208c1.639-8.497 5.656-19.776 11.566-32.268 1.676-3.55 4.598-6.325 8.229-7.816 11.171-4.593 25.575-8.624 42.811-11.988h219.986c17.238 3.363 31.645 7.394 42.823 11.99 3.629 1.489 6.551 4.264 8.23 7.819zm-57.811-34.809h-206.47v-26.95c15.681.521 31.458.833 46.917.92h.044c3.817 0 7.029-2.871 7.453-6.669.391-3.511 1.996-6.834 4.513-9.351 2.993-2.986 6.957-4.63 11.163-4.63h103.75c6.476 0 12.393 4.059 14.723 10.099 1.199 3.111 4.303 5.055 7.632 4.774l5.323-.451c1.684-.146 3.336-.402 4.952-.75zm54.949-107.533c-.347 8.167-6.483 14.958-14.589 16.146-2.452.358-4.91.668-7.361.939 1.11-13.554 2.04-27.142 2.732-40.617.213-4.137-2.969-7.663-7.105-7.875-4.143-.218-7.663 2.968-7.875 7.105-1.069 20.801-2.655 41.884-4.714 62.669-1.153 11.707-10.525 20.944-22.269 21.962l-.285.024c-5.555-8.854-15.444-14.501-26.112-14.501h-103.75c-8.206 0-15.933 3.2-21.764 9.017-3.279 3.279-5.765 7.261-7.284 11.589-4.915-.046-9.862-.122-14.817-.211v-318.408c4.95-.09 9.892-.165 14.802-.211 4.216 12.115 15.72 20.605 29.063 20.605h103.75c10.673 0 20.565-5.646 26.118-14.5.039.003.077.007.116.01l.148.012c11.758 1.02 21.13 10.257 22.283 21.966 5.588 56.519 7.578 113.78 5.917 170.192-.122 4.14 3.136 7.596 7.276 7.717.075.002.15.003.225.003 4.04 0 7.373-3.214 7.493-7.279 1.457-49.489.13-99.622-3.934-149.349 2.445.271 4.896.58 7.341.937 8.11 1.188 14.247 7.979 14.594 16.144 2.589 61.682 2.589 124.234.001 185.914zm36.679-39.3c-.137 3.216-2.553 5.89-5.739 6.357-4.928.719-9.896 1.123-14.839 1.224 1.113-40.743 1.113-81.729 0-122.473 4.942.1 9.907.504 14.833 1.223 3.192.468 5.608 3.142 5.745 6.354 1.494 35.606 1.494 71.713 0 107.315zm67.872-41.691c0 4.67-3.8 8.47-8.47 8.47h-43.46c.213-13.615.213-27.253 0-40.869h43.46c4.67 0 8.47 3.799 8.47 8.47z"/><path d="m311.546 171.171h-103.751c-16.971 0-30.777 13.807-30.777 30.778s13.807 30.777 30.777 30.777h103.751c16.971 0 30.777-13.807 30.777-30.777 0-16.972-13.806-30.778-30.777-30.778zm0 46.555h-103.751c-8.699 0-15.777-7.078-15.777-15.777s7.078-15.778 15.777-15.778h103.751c8.699 0 15.777 7.078 15.777 15.778s-7.078 15.777-15.777 15.777z"/><path d="m311.546 78.726h-103.751c-16.971 0-30.777 13.807-30.777 30.778s13.807 30.777 30.777 30.777h103.751c16.971 0 30.777-13.807 30.777-30.777s-13.806-30.778-30.777-30.778zm0 46.555h-103.751c-8.699 0-15.777-7.078-15.777-15.777s7.078-15.778 15.777-15.778h103.751c8.699 0 15.777 7.078 15.777 15.778s-7.078 15.777-15.777 15.777z"/><path d="m311.546 263.616h-103.751c-16.971 0-30.777 13.807-30.777 30.777 0 16.971 13.807 30.778 30.777 30.778h103.751c16.971 0 30.777-13.807 30.777-30.778 0-16.97-13.806-30.777-30.777-30.777zm0 46.555h-103.751c-8.699 0-15.777-7.078-15.777-15.778s7.078-15.777 15.777-15.777h103.751c8.699 0 15.777 7.078 15.777 15.777s-7.078 15.778-15.777 15.778z"/><path d="m94.772 117.351h-19.433c-8.521 0-15.452 6.932-15.452 15.452v68.611h-.513c-7.28 0-13.799 3.764-17.439 10.068-3.64 6.305-3.64 13.833.001 20.138l25.682 44.477c3.641 6.304 10.159 10.067 17.438 10.067 7.278 0 13.798-3.764 17.438-10.067l25.685-44.477c3.641-6.304 3.642-13.833.002-20.137-3.641-6.306-10.16-10.07-17.44-10.07h-.517v-68.611c0-8.519-6.932-15.451-15.452-15.451zm15.968 99.063c2.677 0 4.003 1.796 4.449 2.569.445.772 1.338 2.818-.001 5.137l-25.685 44.477c-1.338 2.318-3.557 2.568-4.448 2.568s-3.109-.25-4.448-2.568l-25.682-44.477c-1.339-2.318-.446-4.365 0-5.137.445-.772 1.771-2.568 4.448-2.568h8.013c4.143 0 7.5-3.358 7.5-7.5v-76.111c0-.249.203-.452.452-.452h19.433c.249 0 .452.203.452.452v76.111c0 4.142 3.357 7.5 7.5 7.5h8.017z"/></g></g></svg>