<svg id="Capa_1" enable-background="new 0 0 511.961 511.961" height="512" viewBox="0 0 511.961 511.961" width="512" xmlns="http://www.w3.org/2000/svg"><g><g><path d="m504.344 304.43c-.62 6.73-1.47 14.85-2.59 23.6-1.94 15.16-4.69 32.21-8.49 47.22-2.43 9.62-5.29 18.4-8.63 25.32h-178.19l6.35-243.09c9.36-.12 19.86-.04 30.81.29 24.58.72 51.5 2.66 73.13 6.27 0 0 29.75 54.79 37.58 103.33 0 0 16.22 2.84 32.51 9.03 11.47 4.36 18.66 15.81 17.52 28.03z" fill="#c3bec6"/><path d="m339.364 400.57h-32.92l6.35-243.09c9.36-.12 19.86-.04 30.81.29-7.37 43.591-19.9 142.23-4.24 242.8z" fill="#b4acb7"/><path d="m501.754 328.03c-1.94 15.16-4.69 32.21-8.49 47.22h-6.67c-11.36 0-20.56-9.2-20.56-20.56v-6.09c0-11.36 9.2-20.57 20.56-20.57z" fill="#ffef4a"/><path d="m424.429 267.376h-76.22v-80.328c16.748.459 33.178 1.754 49.091 3.849 8.109 16.924 21.656 47.926 27.129 76.479z" fill="#f9f6f9"/><path d="m158.025 400.57h148.42c10.67-111.46 10.67-222.92 0-334.379-96.99-12.26-193.98-12.26-290.98 0-10.67 111.46-10.67 222.92 0 334.379h33.77z" fill="#da4a54"/><path d="m41.415 400.57h-25.95c-10.67-111.46-10.67-222.92 0-334.379 8.76-1.11 17.51-2.11 26.27-3.01-10.55 112.46-10.65 224.929-.32 337.389z" fill="#d82e3d"/><circle cx="391.244" cy="400.568" fill="#655e66" r="54.397"/><circle cx="103.628" cy="400.568" fill="#655e66" r="54.397"/><circle cx="391.244" cy="400.568" fill="#f9f6f9" r="24.801"/><circle cx="103.628" cy="400.568" fill="#f9f6f9" r="24.801"/><g fill="#d82e3d"><path d="m72.339 321.639c-10.603 0-19.199-8.596-19.199-19.199v-186.657c0-10.603 8.596-19.199 19.199-19.199 10.603 0 19.199 8.596 19.199 19.199v186.657c0 10.603-8.596 19.199-19.199 19.199z"/><path d="m160.957 321.639c-10.603 0-19.199-8.596-19.199-19.199v-186.657c0-10.603 8.596-19.199 19.199-19.199 10.603 0 19.199 8.596 19.199 19.199v186.657c0 10.603-8.596 19.199-19.199 19.199z"/><path d="m249.574 321.639c-10.603 0-19.199-8.596-19.199-19.199v-186.657c0-10.603 8.596-19.199 19.199-19.199 10.603 0 19.199 8.596 19.199 19.199v186.657c0 10.603-8.595 19.199-19.199 19.199z"/></g></g><g><path d="m489.488 269.368c-11.27-4.283-22.387-7.004-28.673-8.364-9.037-47.789-36.294-98.36-37.49-100.563-1.103-2.031-3.079-3.44-5.358-3.819-30.317-5.05-69.184-6.765-98.028-6.712-1.333-28.218-3.341-56.386-6.028-84.454-.334-3.492-3.045-6.286-6.525-6.726-97.16-12.281-195.692-12.281-292.86 0-3.48.44-6.191 3.234-6.525 6.726-10.668 111.412-10.668 224.394-.001 335.808.368 3.848 3.601 6.785 7.466 6.785h26.737c3.717 30.603 29.837 54.395 61.427 54.395 31.589 0 57.709-23.792 61.426-54.395h164.759c3.716 30.6 29.838 54.39 61.43 54.39s57.712-23.79 61.429-54.39h31.963c2.876 0 5.499-1.645 6.752-4.234 12.133-25.082 18.005-72.613 20.426-98.709 1.442-15.497-7.737-30.193-22.327-35.738zm-385.86 178.076c-25.859 0-46.897-21.038-46.897-46.897s21.038-46.897 46.897-46.897c25.858 0 46.896 21.038 46.896 46.897.001 25.859-21.037 46.897-46.896 46.897zm195.987-54.395h-134.56c-3.715-30.605-29.835-54.399-61.426-54.399-31.592 0-57.713 23.795-61.427 54.399h-19.907c-9.753-106.271-9.728-213.913.073-320.177 92.002-11.141 185.179-11.141 277.173 0 9.8 106.264 9.826 213.906.074 320.177zm153.047 0c-1.763-14.301-8.496-27.728-19.103-37.664-3.022-2.833-7.769-2.676-10.601.346-2.832 3.023-2.677 7.769.347 10.601 9.567 8.963 14.837 21.114 14.837 34.216 0 25.855-21.039 46.89-46.899 46.89-25.861 0-46.9-21.035-46.9-46.89 0-25.861 21.039-46.9 46.9-46.9 3.193 0 6.371.321 9.445.956 4.053.834 8.023-1.774 8.86-5.831.836-4.057-1.774-8.023-5.831-8.86-4.068-.839-8.266-1.264-12.475-1.264-31.592 0-57.714 23.794-61.43 54.4h-15.141c6.885-75.687 8.851-152.059 5.905-228.139 26.164-.007 62.618 1.52 91.258 5.921 6.338 12.322 28.606 57.621 35.074 97.712.509 3.154 2.962 5.639 6.107 6.193.156.027 15.758 2.808 31.142 8.654 8.31 3.158 13.539 11.515 12.718 20.326-.456 4.918-1.039 10.629-1.761 16.793h-8.521c-15.473 0-28.061 12.592-28.061 28.07v6.09c0 14.416 10.929 26.322 24.936 27.881-1.152 3.758-2.383 7.292-3.702 10.499zm33.932-25.321c-7.201 0-13.061-5.858-13.061-13.06v-6.09c0-7.207 5.859-13.07 13.061-13.07h6.581c-1.516 10.645-3.427 21.816-5.801 32.22z"/><path d="m404.064 187.635c-1.096-2.286-3.271-3.864-5.784-4.195-16.191-2.132-32.968-3.447-49.865-3.91-2.018-.062-3.984.71-5.436 2.122-1.451 1.412-2.27 3.351-2.27 5.375v80.327c0 4.142 3.357 7.5 7.5 7.5h76.22c2.236 0 4.356-.998 5.781-2.722s2.006-3.994 1.585-6.19c-5.679-29.63-19.812-61.78-27.731-78.307zm-48.355 72.219v-65.058c12.368.535 24.623 1.541 36.57 3.002 6.901 14.753 17.135 38.73 22.833 62.056z"/><path d="m391.245 368.246c-17.811 0-32.301 14.49-32.301 32.301s14.49 32.301 32.301 32.301 32.301-14.49 32.301-32.301-14.491-32.301-32.301-32.301zm0 49.601c-9.54 0-17.301-7.761-17.301-17.301s7.761-17.301 17.301-17.301 17.301 7.761 17.301 17.301-7.761 17.301-17.301 17.301z"/><path d="m103.628 368.246c-17.811 0-32.301 14.49-32.301 32.301s14.49 32.301 32.301 32.301 32.301-14.49 32.301-32.301-14.49-32.301-32.301-32.301zm0 49.601c-9.54 0-17.301-7.761-17.301-17.301s7.761-17.301 17.301-17.301 17.301 7.761 17.301 17.301-7.761 17.301-17.301 17.301z"/><path d="m72.342 89.059c-14.723 0-26.7 11.978-26.7 26.7v24.56c0 4.142 3.357 7.5 7.5 7.5s7.5-3.358 7.5-7.5v-24.56c0-6.451 5.249-11.7 11.7-11.7 3.124 0 6.065 1.218 8.269 3.415 2.213 2.219 3.432 5.161 3.432 8.285v186.66c0 6.452-5.249 11.7-11.7 11.7s-11.7-5.249-11.7-11.7v-132.36c0-4.142-3.357-7.5-7.5-7.5s-7.5 3.358-7.5 7.5v132.36c0 14.723 11.978 26.7 26.7 26.7s26.7-11.978 26.7-26.7v-186.66c0-7.122-2.773-13.825-7.824-18.891-5.051-5.035-11.754-7.809-18.877-7.809z"/><path d="m160.957 89.062c-14.722 0-26.699 11.977-26.699 26.699v186.657c0 14.722 11.978 26.699 26.699 26.699s26.699-11.977 26.699-26.699v-186.657c0-14.722-11.978-26.699-26.699-26.699zm11.699 213.356c0 6.451-5.248 11.699-11.699 11.699s-11.699-5.248-11.699-11.699v-186.657c0-6.451 5.248-11.699 11.699-11.699s11.699 5.248 11.699 11.699z"/><path d="m249.575 89.062c-14.722 0-26.699 11.977-26.699 26.699v186.657c0 14.722 11.978 26.699 26.699 26.699s26.699-11.977 26.699-26.699v-186.657c0-14.722-11.978-26.699-26.699-26.699zm11.699 213.356c0 6.451-5.248 11.699-11.699 11.699s-11.699-5.248-11.699-11.699v-186.657c0-6.451 5.248-11.699 11.699-11.699s11.699 5.248 11.699 11.699z"/></g></g></svg>