<svg id="Capa_1" enable-background="new 0 0 511.95 511.95" height="512" viewBox="0 0 511.95 511.95" width="512" xmlns="http://www.w3.org/2000/svg"><g><g><path d="m56.084 266.075c133.261 9.228 266.522 9.228 399.783 0 12.897-73.807 14.447-147.615 4.651-221.422-2.342-17.646-16.863-31.127-34.633-32.173-113.273-6.667-226.545-6.667-339.818 0-17.77 1.046-32.291 14.527-34.633 32.173-9.797 73.807-8.247 147.615 4.65 221.422z" fill="#655e66"/><path d="m470.159 465.547c-2.45 18.48-17.66 32.599-36.26 33.69-118.619 6.99-237.227 6.99-355.846 0-18.61-1.09-33.81-15.21-36.27-33.69-7.57-57.089-8.67-114.179-3.28-171.268 1.91-20.19 4.62-40.39 8.15-60.589 2.97-.21 5.95-.41 8.92-.6 133.598-8.87 267.207-8.87 400.795 0 2.97.19 5.95.39 8.92.6 3.53 20.2 6.25 40.39 8.15 60.589 5.401 57.09 4.301 114.179-3.279 171.268z" fill="#e27d47"/><path d="m106.398 500.77c-9.45-.46-18.89-.97-28.34-1.53-18.61-1.09-33.82-15.21-36.27-33.69-10.26-77.289-8.63-154.568 4.87-231.857 16.23-1.12 32.46-2.12 48.689-2.97-9.86 80.079-10.94 160.158-3.22 240.227 1.231 12.78 6.661 23.58 14.271 29.82z" fill="#dd6938"/><path d="m473.439 294.28h-434.935c1.91-20.19 4.62-40.39 8.15-60.589 2.97-.21 5.95-.41 8.92-.6h400.795c2.97.19 5.95.39 8.92.6 3.53 20.199 6.25 40.389 8.15 60.589z" fill="#dd6938"/><path d="m471.233 206.488h-430.516c-10.777 0-19.513 8.736-19.513 19.513v22.16c0 10.777 8.736 19.513 19.513 19.513h430.516c10.777 0 19.513-8.736 19.513-19.513v-22.16c0-10.776-8.736-19.513-19.513-19.513z" fill="#ffef4a"/><path d="m108.553 267.682h-67.839c-10.78 0-19.51-8.74-19.51-19.52v-22.16c0-10.78 8.73-19.51 19.51-19.51h67.839c-10.78 0-19.52 8.73-19.52 19.51v22.16c0 10.78 8.74 19.52 19.52 19.52z" fill="#ffd321"/><path d="m436.469 144.171c-.12 2.08-1.03 4.03-2.56 5.45-18.25 16.88-46.379 28.66-46.379 28.66v28.21h-62.849v-28.21s-28.13-11.78-46.37-28.66c-1.53-1.42-2.44-3.37-2.56-5.45-.72-12.11-1.59-56.149 19.87-92.349 0 0 7.08-9.43 29.06-9.43 0 0-7.85 39.38 0 63.679 0 0 15.72 7.65 31.43 7.65s31.42-7.65 31.42-7.65c7.85-24.3 0-63.679 0-63.679 21.99 0 29.06 9.43 29.06 9.43 21.458 36.2 20.588 80.239 19.878 92.349z" fill="#c3bec6"/><path d="m341.66 170.551v35.94h-16.98v-28.21s-28.13-11.78-46.379-28.67c-1.52-1.41-2.43-3.36-2.55-5.43-.72-12.11-1.59-56.149 19.87-92.359 0 0 7.08-9.43 29.06-9.43 0 0-32.29 2.75-30.09 89.889.07 2.82 1.29 5.5 3.37 7.39 6.16 5.59 20.46 17.29 37.42 22.5 3.709 1.13 6.279 4.5 6.279 8.38z" fill="#b4acb7"/><path d="m192.812 116.962-16.22 19.31c-2.87 3.42-4.45 7.75-4.45 12.22v57.999h-39.89v-57.999c0-4.47-1.58-8.8-4.45-12.22l-16.22-19.31c-4.33-5.16-5.61-12.23-3.35-18.58l15.67-44.079c2.69-7.57 9.86-12.63 17.9-12.63h20.79c8.04 0 15.21 5.06 17.91 12.63l15.66 44.079c2.26 6.35.99 13.42-3.35 18.58z" fill="#f9f6f9"/><path d="m146.953 148.491v57.999h-14.7v-57.999c0-4.47-1.57-8.8-4.45-12.22l-16.22-19.31c-4.33-5.16-5.61-12.23-3.35-18.58l15.67-44.079c2.69-7.57 9.86-12.63 17.9-12.63h4.46c-4.58 0-8.67 5.06-10.2 12.63l-8.94 44.079c-1.29 6.35-.56 13.42 1.91 18.58 0 .001 17.92 27.06 17.92 31.53z" fill="#e2dfe2"/><path d="m304.351 406.414h-96.751c-24.31 0-44.088-19.778-44.088-44.088v-33.825c0-9.941 8.059-18 18-18s18 8.059 18 18v33.825c0 4.46 3.628 8.088 8.089 8.088h96.751c4.46 0 8.088-3.628 8.088-8.088v-33.825c0-9.941 8.059-18 18-18s18 8.059 18 18v33.825c-.002 24.311-19.779 44.088-44.089 44.088z" fill="#655e66"/><g fill="#535057"><path d="m327.514 362.326v-33.825c0-7.246 4.291-13.475 10.462-16.329-2.295-1.062-4.843-1.67-7.538-1.67-9.941 0-18 8.059-18 18v33.825c0 4.46-3.628 8.088-8.088 8.088h15.075c4.461 0 8.089-3.629 8.089-8.089z"/><path d="m178.587 362.326v-33.825c0-7.246 4.291-13.475 10.462-16.329-2.295-1.062-4.843-1.67-7.538-1.67-9.941 0-18 8.059-18 18v33.825c0 24.31 19.778 44.088 44.088 44.088h15.075c-24.309-.001-44.087-19.778-44.087-44.089z"/></g></g><g><path d="m471.976 199.007c3.121-38.757 3.153-77.904.085-116.492-.329-4.129-3.938-7.208-8.071-6.882-4.129.329-7.21 3.942-6.882 8.071 3.036 38.188 2.971 76.935-.183 115.285h-61.895v-15.845c9.014-4.189 29.291-14.437 43.981-28.024 2.956-2.744 4.713-6.478 4.946-10.509.768-13.093 1.528-58.754-20.916-96.613-.138-.232-.289-.458-.451-.674-.954-1.272-10.042-12.431-35.061-12.431-2.245 0-4.372 1.007-5.796 2.743-1.425 1.735-1.997 4.019-1.56 6.221.071.358 6.711 34.406 1.119 56.753-4.914 1.996-15.198 5.613-25.183 5.613-9.988 0-20.281-3.62-25.193-5.613-5.59-22.347 1.048-56.395 1.119-56.75.439-2.203-.132-4.486-1.557-6.223-1.425-1.736-3.553-2.743-5.799-2.743-25.006 0-34.103 11.155-35.057 12.427-.164.218-.315.444-.454.678-22.473 37.909-21.683 83.537-20.906 96.606.233 4.037 1.989 7.771 4.953 10.522 14.676 13.582 34.95 23.829 43.964 28.018v15.845h-137.536v-50.497c0-2.708.954-5.332 2.692-7.396l16.217-19.306c6.02-7.157 7.817-17.086 4.687-25.919l-15.672-44.087c-3.757-10.533-13.793-17.61-24.974-17.61h-20.79c-11.181 0-21.217 7.077-24.977 17.619l-15.659 44.076c-3.141 8.826-1.349 18.758 4.673 25.918l16.226 19.318c1.732 2.057 2.687 4.681 2.687 7.388v50.497h-69.727c-4.188-50.931-2.907-102.484 3.844-153.356 1.862-14.045 13.483-24.84 27.636-25.668 112.458-6.622 226.491-6.622 338.931 0 14.156.828 25.781 11.623 27.643 25.667.375 2.836.741 5.682 1.077 8.518.486 4.113 4.211 7.056 8.33 6.566 4.113-.487 7.053-4.216 6.566-8.33-.344-2.904-.718-5.818-1.103-8.724-2.805-21.161-20.316-37.424-41.634-38.671-113.023-6.657-227.648-6.657-340.689 0-21.315 1.247-38.822 17.51-41.627 38.67-6.839 51.528-8.182 103.745-4.026 155.344-14.552.396-26.27 12.349-26.27 26.994v22.161c0 12.272 8.229 22.652 19.457 25.93-7.662 63.886-7.282 128.588 1.189 192.447 2.927 21.989 21.123 38.891 43.264 40.188 59.183 3.483 118.761 5.224 178.36 5.224 59.585 0 119.191-1.742 178.358-5.224 22.143-1.297 40.339-18.198 43.267-40.191 8.471-63.855 8.851-128.557 1.189-192.444 11.228-3.277 19.457-13.658 19.457-25.93v-22.161c.001-14.645-11.717-26.598-26.269-26.994zm-144.395-27.643c-.27-.113-27.157-11.498-44.167-27.24-.133-.124-.168-.277-.175-.397-.709-11.932-1.457-53.321 18.46-87.443.959-.916 5.017-4.285 14.057-5.728-1.908 13.767-4.172 39.369 1.79 57.822.627 1.942 2.02 3.545 3.855 4.438.705.343 17.472 8.406 34.711 8.406 17.24 0 33.998-8.063 34.703-8.407 1.834-.894 3.226-2.496 3.853-4.438 5.961-18.453 3.698-44.056 1.79-57.823 9.045 1.443 13.099 4.813 14.055 5.727 19.891 34.078 19.171 75.506 18.471 87.458-.006.107-.042.261-.166.376-17.028 15.75-43.917 27.136-44.184 27.248-2.788 1.167-4.603 3.895-4.603 6.918v20.708h-47.849v-20.708c-.001-3.021-1.816-5.748-4.601-6.917zm-194.036-39.916-16.223-19.314c-2.611-3.104-3.386-7.41-2.022-11.241l15.657-44.071c1.632-4.575 5.99-7.649 10.846-7.649h20.79c4.855 0 9.214 3.074 10.843 7.642l15.667 44.072c1.358 3.833.581 8.143-2.033 11.251l-16.214 19.303c-4.006 4.758-6.213 10.813-6.213 17.051v50.497h-24.89v-50.497c0-6.239-2.207-12.294-6.208-17.044zm329.185 333.112c-1.98 14.879-14.292 26.315-29.276 27.193-117.766 6.93-237.192 6.932-354.961 0-14.982-.877-27.293-12.313-29.273-27.189-8.337-62.843-8.681-126.521-1.081-189.388h415.672c7.6 62.866 7.256 126.544-1.081 189.384zm20.516-216.398c0 6.624-5.389 12.013-12.013 12.013h-430.516c-6.624 0-12.013-5.389-12.013-12.013v-22.161c0-6.624 5.389-12.013 12.013-12.013h430.516c6.624 0 12.013 5.389 12.013 12.013z"/><path d="m330.435 302.999c-14.061 0-25.5 11.439-25.5 25.5v33.83c0 .32-.266.59-.58.59h-96.76c-.314 0-.58-.27-.58-.59v-33.83c0-14.061-11.439-25.5-25.5-25.5s-25.5 11.439-25.5 25.5v33.83c0 21.758 13.777 41.287 34.282 48.595 3.901 1.39 8.192-.645 9.583-4.547 1.39-3.902-.646-8.192-4.547-9.583-14.545-5.184-24.318-19.034-24.318-34.465v-33.83c0-5.79 4.71-10.5 10.5-10.5s10.5 4.71 10.5 10.5v33.83c0 8.596 6.989 15.59 15.58 15.59h96.76c8.591 0 15.58-6.994 15.58-15.59v-33.83c0-5.79 4.71-10.5 10.5-10.5s10.5 4.71 10.5 10.5v33.83c0 20.17-16.41 36.58-36.58 36.58h-81.76c-4.142 0-7.5 3.358-7.5 7.5s3.358 7.5 7.5 7.5h81.76c28.441 0 51.58-23.139 51.58-51.58v-33.83c0-14.06-11.439-25.5-25.5-25.5z"/></g></g></svg>