<svg id="Capa_1" enable-background="new 0 0 512 512" height="512" viewBox="0 0 512 512" width="512" xmlns="http://www.w3.org/2000/svg"><g><g><path d="m483.96 394.109c-1.01 28.53-5.02 73.68-19.21 110.39h-417.5c-14.19-36.71-18.2-81.86-19.21-110.39-.61-16.94-.16-28.02-.16-28.02l183.23-30.96 36.99-6.25 39.64 6.25 196.38 30.96s.45 11.08-.16 28.02z" fill="#f9f6f9"/><path d="m101.789 504.499h-54.54c-22.61-58.49-19.37-138.41-19.37-138.41l54.38-9.19c-.12 27.33 1.41 100.73 19.53 147.6z" fill="#e2dfe2"/><path d="m422.92 307.109h-385.04c-5.13-13.33-7.5-30.56-3.82-52.61l43.18 11.57s-38.14-44.95 9.43-102.69l31.61 31.61s-10.55-58 59.51-84.22l11.57 43.19s14.95-41.79 67.12-44.79c7.95-.47 16.77-.03 26.53 1.6l-11.57 43.19c0-.01 22.6-19.18 56.32-13.38 13.84 2.37 29.56 8.96 46.37 22.8l-31.61 31.61s58-10.55 84.22 59.51l-43.18 11.57s27.29 9.77 39.36 41.04z" fill="#c3bec6"/><path d="m327.76 140.579-102.89 166.53h-90.69l122.3-197.94c7.95-.47 16.77-.03 26.53 1.6l-11.57 43.19c0-.01 22.6-19.18 56.32-13.38z" fill="#e2dfe2"/><path d="m298.236 307.108h-135.68c0-37.46 30.37-67.84 67.84-67.84s67.84 30.38 67.84 67.84z" fill="#535057"/><path d="m483.96 394.109h-455.92c-.61-16.94-.16-28.02-.16-28.02l183.23-30.96h76.63l196.38 30.96s.45 11.08-.16 28.02z" fill="#e2dfe2"/><path d="m504.5 345.717c0 11.253-9.122 20.376-20.376 20.376h-35.604-124.68-135.68-124.68-35.604c-11.253 0-20.376-9.122-20.376-20.376v-18.233c0-11.253 9.122-20.376 20.376-20.376h35.604 124.68 135.68 124.68 35.604c11.253 0 20.376 9.122 20.376 20.376z" fill="#e27d47"/><path d="m81.08 366.094h-53.2c-11.26 0-20.38-9.13-20.38-20.38v-18.23c0-11.25 9.12-20.38 20.38-20.38h53.2c-11.25 0-20.37 9.13-20.37 20.38v18.23c0 11.25 9.12 20.38 20.37 20.38z" fill="#dd6938"/><g fill="#f9f6f9"><path d="m275.934 66.936-2.444.196c-8.619.691-16.301-5.41-17.579-13.962l-3.934-26.304c-1.409-9.422 5.456-18.066 14.952-18.827l6.072-.487c9.496-.761 17.65 6.68 17.759 16.206l.305 26.594c.1 8.647-6.513 15.893-15.131 16.584z"/><path d="m444.285 212.586-.196-2.444c-.691-8.619 5.41-16.301 13.962-17.58l26.304-3.934c9.422-1.409 18.066 5.456 18.827 14.952l.487 6.072c.761 9.496-6.68 17.65-16.206 17.759l-26.594.305c-8.647.101-15.894-6.512-16.584-15.13z"/><path d="m417.575 135.606-1.391-2.018c-4.908-7.119-3.465-16.822 3.301-22.205l20.813-16.558c7.455-5.931 18.374-4.308 23.78 3.536l3.458 5.015c5.407 7.843 3.04 18.625-5.155 23.483l-22.879 13.561c-7.438 4.408-17.019 2.305-21.927-4.814z"/><path d="m355.954 82.294-2.214-1.052c-7.809-3.711-11.412-12.836-8.243-20.881l9.745-24.746c3.491-8.864 13.758-12.917 22.362-8.828l5.502 2.615c8.604 4.089 11.945 14.61 7.277 22.914l-13.033 23.184c-4.236 7.536-13.586 10.506-21.396 6.794z"/></g><path d="m428.554 452.542c-38.717 2.239-77.434 2.239-116.15 0-11.303-.654-20.444-9.412-21.579-20.677-2.318-22.986-2.318-45.972 0-68.958 1.136-11.265 10.276-20.023 21.579-20.677 38.717-2.239 77.434-2.239 116.15 0 11.303.654 20.444 9.412 21.579 20.677 2.317 22.986 2.317 45.972 0 68.958-1.135 11.265-10.275 20.023-21.579 20.677z" fill="#655e66"/><g><g><path d="m345.285 419.36c-4.658.171-9.316.171-13.973 0-8.121-.298-14.69-6.866-14.987-14.987-.171-4.658-.171-9.316 0-13.974.298-8.121 6.866-14.689 14.987-14.987 4.561-.167 9.122-.171 13.683-.01 8.343.293 14.995 6.945 15.288 15.288.16 4.561.157 9.122-.01 13.683-.298 8.121-6.866 14.689-14.988 14.987z" fill="#ffef4a"/><path d="m409.647 419.36c-4.658.171-9.316.171-13.973 0-8.121-.298-14.689-6.866-14.987-14.987-.171-4.658-.171-9.316 0-13.974.298-8.121 6.866-14.689 14.987-14.987 4.561-.167 9.122-.171 13.683-.01 8.343.293 14.995 6.945 15.288 15.288.16 4.561.157 9.122-.01 13.683-.299 8.121-6.867 14.689-14.988 14.987z" fill="#78d0b1"/></g><g><path d="m344.446 419.363c.14 0 .28.01.42.01-4.52.16-9.04.15-13.55-.01-8.12-.3-14.69-6.87-14.99-14.99-.17-4.66-.17-9.32 0-13.98.3-8.12 6.87-14.69 14.99-14.98 4.52-.17 9.05-.17 13.57-.01-.15 0-.29 0-.44.01-8.12.29-14.69 6.86-14.98 14.98-.18 4.66-.18 9.32 0 13.98.29 8.12 6.86 14.69 14.98 14.99z" fill="#ffd321"/><path d="m408.806 419.363c.14 0 .28.01.42.01-4.52.16-9.03.15-13.55-.01-8.12-.3-14.69-6.87-14.99-14.99-.17-4.66-.17-9.32 0-13.98.3-8.12 6.87-14.69 14.99-14.98 4.52-.17 9.05-.17 13.57-.01-.15 0-.29 0-.44.01-8.12.29-14.69 6.86-14.98 14.98-.17 4.66-.17 9.32 0 13.98.29 8.12 6.86 14.69 14.98 14.99z" fill="#66b49d"/></g></g></g><g><path d="m248.493 54.279c1.759 11.765 11.968 20.405 23.684 20.405.633 0 1.271-.025 1.913-.077l2.444-.196c12.498-1.001 22.176-11.607 22.032-24.145l-.305-26.594c-.076-6.611-2.92-12.958-7.804-17.415s-11.464-6.712-18.054-6.181l-6.073.486c-6.59.528-12.728 3.8-16.839 8.978-4.111 5.177-5.909 11.896-4.931 18.435zm12.743-35.41c1.559-1.962 3.793-3.154 6.291-3.354l6.073-.486c.247-.02.493-.03.738-.03 2.229 0 4.339.816 6.007 2.339 1.852 1.689 2.887 4 2.916 6.506l.305 26.594c.054 4.684-3.562 8.646-8.231 9.021l-2.444.196c-4.67.368-8.871-2.961-9.563-7.595l-3.934-26.303c-.371-2.479.284-4.925 1.842-6.888z"/><path d="m436.613 210.741.196 2.444c.994 12.407 11.452 22.034 23.869 22.034.091 0 .184 0 .275-.001l26.595-.305c6.611-.076 12.958-2.92 17.415-7.804 4.456-4.884 6.709-11.464 6.181-18.054l-.487-6.072c-.528-6.59-3.8-12.728-8.977-16.839-5.177-4.112-11.895-5.909-18.435-4.931l-26.304 3.934c-12.401 1.852-21.33 13.096-20.328 25.594zm48.85-14.695c.453-.068.905-.101 1.354-.101 2.003 0 3.93.669 5.534 1.943 1.963 1.559 3.154 3.793 3.354 6.292l.487 6.072c.2 2.498-.62 4.894-2.31 6.745-1.689 1.851-4 2.887-6.506 2.916l-26.595.305c-4.651.093-8.647-3.562-9.021-8.231l-.196-2.444c-.375-4.669 2.961-8.87 7.595-9.563z"/><path d="m411.401 139.864c4.61 6.688 12.121 10.335 19.772 10.335 4.157 0 8.356-1.077 12.153-3.328l22.879-13.562c5.687-3.371 9.762-9.008 11.179-15.465 1.417-6.458.079-13.283-3.674-18.726l-3.458-5.016c-3.752-5.443-9.655-9.123-16.195-10.095-6.54-.973-13.257.831-18.43 4.947l-20.813 16.558c-9.812 7.806-11.923 22.008-4.807 32.333zm12.754-22.613 20.813-16.558c1.605-1.277 3.534-1.948 5.54-1.948.446 0 .896.033 1.346.1 2.479.369 4.628 1.708 6.051 3.771l3.458 5.016c1.422 2.063 1.91 4.548 1.373 6.996-.538 2.448-2.021 4.5-4.177 5.778l-22.879 13.562c-4.03 2.389-9.269 1.238-11.928-2.619 0 0 0 0 0-.001l-1.391-2.017c-2.661-3.857-1.872-9.163 1.794-12.08z"/><path d="m350.521 88.016 2.214 1.052c3.287 1.563 6.772 2.305 10.215 2.305 8.417 0 16.577-4.441 20.938-12.198l13.033-23.184c3.24-5.763 3.95-12.682 1.949-18.983s-6.573-11.542-12.544-14.38l-5.502-2.615c-5.972-2.838-12.923-3.072-19.073-.645-6.149 2.428-11.065 7.348-13.488 13.499l-9.745 24.747c-4.594 11.666.678 25.02 12.003 30.402zm1.954-24.907 9.745-24.747c.918-2.332 2.708-4.123 5.039-5.043 1.07-.423 2.183-.633 3.292-.633 1.307 0 2.609.292 3.834.874l5.502 2.615c2.264 1.076 3.928 2.984 4.687 5.373s.5 4.907-.728 7.092l-13.033 23.184c-2.296 4.083-7.41 5.706-11.639 3.696l-2.214-1.052c-4.231-2.011-6.201-7-4.485-11.359z"/><path d="m345.258 367.906c-4.718-.166-9.502-.162-14.222.011-12.012.441-21.767 10.196-22.207 22.208-.177 4.818-.177 9.705 0 14.523.441 12.012 10.195 21.767 22.208 22.208 2.409.088 4.835.132 7.262.132 2.426 0 4.852-.044 7.261-.132 12.012-.441 21.767-10.195 22.208-22.208.172-4.719.176-9.503.011-14.222-.429-12.199-10.321-22.091-22.521-22.52zm7.52 36.192c-.154 4.201-3.566 7.613-7.768 7.767-4.453.164-8.969.164-13.423 0-4.201-.154-7.613-3.566-7.767-7.767-.164-4.454-.164-8.97 0-13.424.154-4.202 3.566-7.613 7.767-7.768 2.227-.082 4.469-.123 6.711-.123 2.149 0 4.299.038 6.434.113 4.437.156 7.9 3.619 8.056 8.056.153 4.362.149 8.785-.01 13.146z"/><path d="m409.62 367.906c-4.718-.166-9.502-.161-14.222.011-12.012.441-21.767 10.196-22.207 22.208-.177 4.818-.177 9.705 0 14.523.441 12.012 10.195 21.767 22.208 22.208 2.409.088 4.835.132 7.262.132s4.853-.044 7.262-.132c12.012-.441 21.767-10.195 22.208-22.207.173-4.717.177-9.501.011-14.223-.431-12.199-10.323-22.091-22.522-22.52zm7.519 36.192c-.154 4.201-3.566 7.613-7.767 7.767-4.453.164-8.969.164-13.424 0-4.201-.154-7.613-3.566-7.767-7.767-.164-4.454-.164-8.97 0-13.424.154-4.202 3.566-7.613 7.767-7.768 2.227-.082 4.469-.123 6.712-.123 2.149 0 4.299.038 6.434.113 4.437.156 7.9 3.619 8.056 8.056.152 4.364.149 8.787-.011 13.146z"/><path d="m484.12 299.609h-56.247c-6.764-14.722-16.531-24.635-24.933-30.968l25.741-6.897c2.043-.547 3.76-1.932 4.728-3.812s1.097-4.082.355-6.063c-6.029-16.102-14.199-29.511-24.284-39.855-2.892-2.967-7.641-3.027-10.605-.135-2.966 2.891-3.026 7.64-.135 10.605 7.012 7.192 12.989 16.244 17.824 26.977l-34.944 9.363c-3.157.846-5.388 3.645-5.536 6.911-.148 3.265 1.851 6.256 4.918 7.384.853.314 18.372 6.974 29.965 26.49h-105.607c-3.776-38.035-35.953-67.841-74.965-67.841s-71.189 29.806-74.965 67.841h-112.198c-3.234-10.626-4.201-22.571-2.879-35.659l34.946 9.364c3.157.847 6.489-.464 8.25-3.217 1.761-2.754 1.524-6.344-.569-8.855-1.321-1.585-30.655-37.856 4.414-86.532l25.583 25.583c2.311 2.312 5.851 2.843 8.752 1.339 2.902-1.505 4.492-4.732 3.936-7.953-.352-2.034-7.617-48.114 47.086-72.735l9.364 34.957c.846 3.157 3.646 5.388 6.911 5.536 3.259.163 6.256-1.852 7.384-4.92.712-1.938 17.454-45.482 77.149-39.454l-9.21 34.383c-.265.744-.409 1.572-.409 2.514 0 3.764 2.79 6.945 6.521 7.436 2.181.288 4.286-.396 5.855-1.737 1.917-1.591 38.032-30.464 86.484 4.444l-25.583 25.584c-2.312 2.311-2.843 5.85-1.339 8.752s4.73 4.494 7.951 3.936c.152-.026 15.378-2.536 32.733 4.794 3.815 1.612 8.215-.175 9.827-3.991 1.611-3.815-.175-8.215-3.991-9.827-7.902-3.337-15.42-5.022-21.822-5.81l18.857-18.858c1.495-1.495 2.29-3.552 2.188-5.664s-1.09-4.083-2.722-5.428c-40.931-33.722-76.405-27.236-95.544-19.124l6.9-25.756c.547-2.043.207-4.221-.938-6-1.145-1.778-2.986-2.991-5.072-3.339-41.005-6.846-66.489 6.398-80.653 18.713-4.787 4.162-8.627 8.494-11.655 12.511l-6.902-25.768c-.547-2.042-1.931-3.759-3.812-4.727-1.88-.968-4.081-1.097-6.062-.356-38.928 14.569-54.381 38.78-60.49 56.526-2.065 5.999-3.226 11.67-3.839 16.664l-18.858-18.858c-1.495-1.496-3.556-2.291-5.664-2.188-2.112.102-4.083 1.09-5.428 2.722-26.432 32.083-27.709 60.776-24.127 79.198 1.211 6.227 3.042 11.718 5.006 16.349l-25.76-6.902c-2.042-.546-4.222-.207-6 .938s-2.991 2.987-3.339 5.072c-2.815 16.866-2.463 32.403 1.018 46.35-15.281.106-27.68 12.563-27.68 27.863v18.24c0 12.713 8.564 23.458 20.225 26.793-.255 20.752.697 84.686 20.029 134.692 1.118 2.89 3.897 4.795 6.996 4.795h417.5c3.099 0 5.878-1.905 6.996-4.795 19.332-50.005 20.284-113.939 20.029-134.692 11.662-3.334 20.225-14.079 20.225-26.792v-18.24c0-15.368-12.507-27.871-27.88-27.871zm-253.724-52.841c30.731 0 56.151 23.098 59.857 52.841h-119.715c3.707-29.743 29.127-52.841 59.858-52.841zm266.604 98.952c0 7.096-5.778 12.87-12.88 12.87h-27.1c-2.909-13.238-14.187-23.046-28.032-23.846-38.824-2.245-78.194-2.245-117.017 0-13.846.8-25.123 10.608-28.033 23.846h-205.458c-4.142 0-7.5 3.358-7.5 7.5s3.358 7.5 7.5 7.5h203.942c-1.331 19.65-1.034 39.453.94 59.028 1.514 15.013 13.545 26.541 28.608 27.412 19.412 1.123 38.96 1.684 58.508 1.684s39.097-.562 58.509-1.684c15.063-.871 27.095-12.399 28.609-27.412 1.973-19.575 2.271-39.378.94-59.028h18.228c.142 19.981-.998 77.704-17.231 123.41h-407.065c-16.215-45.66-17.366-103.419-17.229-123.41h13.241c4.142 0 7.5-3.358 7.5-7.5s-3.358-7.5-7.5-7.5h-20.6c-7.102 0-12.88-5.773-12.88-12.87v-18.24c0-7.097 5.778-12.87 12.88-12.87h456.24c7.102 0 12.88 5.773 12.88 12.87zm-54.329 85.392c-.77 7.636-6.889 13.499-14.549 13.942-38.248 2.211-77.035 2.211-115.285 0-7.661-.443-13.78-6.306-14.55-13.942-2.256-22.379-2.256-45.074 0-67.453.77-7.636 6.889-13.499 14.55-13.942 19.124-1.105 38.383-1.659 57.642-1.659s38.518.553 57.643 1.659c7.661.443 13.78 6.306 14.549 13.942 2.257 22.379 2.257 45.074 0 67.453z"/></g></g></svg>