<svg id="Capa_1" enable-background="new 0 0 512 512" height="512" viewBox="0 0 512 512" width="512" xmlns="http://www.w3.org/2000/svg"><g><g><g><path d="m205.73 445.146c-16.395 16.537-33.166 32.712-50.313 48.511-15.281 14.089-38.77 14.522-54.435.859-9.904-8.641-19.183-17.92-27.824-27.824-13.664-15.664-13.231-39.153.859-54.435 15.799-17.147 31.974-33.918 48.511-50.313 7.91-7.853 15.913-15.629 23.993-23.312 25.546-24.27 63.593-26.249 85.827-4.101l.795.795c22.148 22.234 20.169 60.28-4.101 85.827-7.684 8.08-15.459 16.083-23.312 23.993z" fill="#da4a54"/><path d="m205.73 445.146c-31.286-24.177-59.025-51.916-83.202-83.202 7.91-7.853 15.913-15.629 23.993-23.312 25.546-24.27 63.593-26.249 85.827-4.101l.795.795c22.148 22.234 20.169 60.28-4.101 85.827-7.684 8.08-15.459 16.083-23.312 23.993z" fill="#d82e3d"/><path d="m168.158 353.032c-27.838 27.143-55.229 54.732-82.159 82.783-8.017 8.343-13.784 17.445-16.707 25.66-9.549-15.324-7.868-35.549 4.725-49.22 23.369-25.341 47.539-49.88 72.511-73.617 19.538-18.573 46.383-24.092 67.885-15.742-14.061 4.497-30.789 15.054-46.255 30.136z" fill="#d82e3d"/><path d="m408.581 443.232c.163-.162.325-.324.487-.487 13.476-13.55 13.548-35.446.431-49.343-32.126-34.036-65.465-66.858-100.018-98.466-20.651 11.822-36.887 28.058-48.709 48.709 31.608 34.553 64.43 67.892 98.466 100.018 13.897 13.117 35.793 13.046 49.343-.431z" fill="#da4a54"/><path d="m402.087 448.317c-13.337 8.13-31.002 6.527-42.849-4.654-34.038-32.123-66.864-65.459-98.469-100.015 3.753-6.548 7.953-12.663 12.599-18.332 34.797 35.791 69.999 71.163 105.641 106.123 8.024 7.868 16.339 13.813 23.078 16.878z" fill="#d82e3d"/><path d="m351.553 311.879c-15.65 6.215-32.712 9.627-50.575 9.627-17.807 0-34.819-3.391-50.426-9.563-50.823-20.091-86.777-69.666-86.77-127.633 0-7.25.56-14.38 1.66-21.325 10.237-65.643 67.013-115.864 135.536-115.871 68.517 0 125.299 50.228 135.536 115.871 1.1 6.946 1.66 14.075 1.66 21.326-.007 57.91-35.883 107.435-86.621 127.568z" fill="#c3bec6"/><path d="m351.553 311.879c-15.87 5.399-32.882 8.322-50.575 8.322-17.636 0-34.599-2.902-50.426-8.258-50.823-20.091-86.777-69.666-86.77-127.633 0-7.25.56-14.38 1.66-21.325h271.073c1.1 6.946 1.66 14.075 1.66 21.326-.008 57.91-35.884 107.435-86.622 127.568z" fill="#b4acb7"/><path d="m300.978 238.546c-29.952 0-54.236-24.284-54.236-54.236 0-7.562 1.554-14.777 4.356-21.325 8.286-19.353 27.504-32.91 49.88-32.91 22.375 0 41.594 13.557 49.88 32.91 2.809 6.541 4.356 13.749 4.356 21.325-.001 29.952-24.284 54.236-54.236 54.236z" fill="#ffef4a"/><path d="m300.978 238.546c-29.952 0-54.236-24.284-54.236-54.236 0-7.562 1.554-14.777 4.356-21.325h99.76c2.809 6.541 4.356 13.749 4.356 21.325-.001 29.952-24.284 54.236-54.236 54.236z" fill="#ffd321"/><path d="m458.19 184.312c0 86.828-70.388 157.216-157.216 157.216s-157.215-70.388-157.215-157.216z" fill="#655e66"/><path d="m240.581 438.733c-43.615-30.812-80.828-68.026-111.64-111.64 38.025-43.78 78.073-85.537 120.144-125.273 32.291-30.498 83.034-30.196 114.495 1.158.373.372.745.744 1.116 1.116 31.353 31.461 31.656 82.205 1.158 114.495-39.736 42.071-81.493 82.119-125.273 120.144z" fill="#f9f6f9"/><path d="m274.608 221.594c-44.02 41.75-86.139 85.401-126.342 130.968-6.704-8.222-13.146-16.721-19.325-25.468 38.025-43.786 78.073-85.536 120.142-125.278 30.562-28.874 77.668-30.137 109.287-3.597-27.973-7.116-60.032.865-83.762 23.375z" fill="#e2dfe2"/><g fill="#655e66"><path d="m276.767 331.484-40.577-40.577c-5.733-5.733-5.733-15.028 0-20.76 5.733-5.733 15.028-5.733 20.76 0l40.577 40.577c5.733 5.733 5.733 15.028 0 20.76-5.732 5.732-15.027 5.732-20.76 0z"/><path d="m239.909 368.342-40.577-40.577c-5.733-5.733-5.733-15.028 0-20.76 5.733-5.733 15.028-5.733 20.76 0l40.577 40.577c5.733 5.733 5.733 15.028 0 20.76-5.733 5.733-15.027 5.733-20.76 0z"/></g></g><g fill="#f9f48e"><path d="m146.499 54.812-1.7 1.72c-5.997 6.067-15.667 6.454-22.13.886l-19.879-17.126c-7.12-6.134-7.556-17.016-.949-23.7l4.225-4.274c6.607-6.684 17.493-6.374 23.709.675l17.354 19.68c5.642 6.399 5.366 16.073-.63 22.139z"/><path d="m119.155 116.748-.612 2.34c-2.16 8.252-10.341 13.423-18.722 11.832l-25.779-4.892c-9.234-1.752-15.052-10.958-12.672-20.05l1.522-5.814c2.38-9.092 11.962-14.267 20.87-11.27l24.869 8.366c8.086 2.72 12.684 11.236 10.524 19.488z"/><path d="m111.394 184.145.639 2.333c2.255 8.227-2.244 16.795-10.297 19.608l-24.771 8.653c-8.873 3.099-18.514-1.964-20.999-11.028l-1.589-5.796c-2.485-9.064 3.226-18.336 12.439-20.195l25.72-5.189c8.362-1.688 16.603 3.387 18.858 11.614z"/></g></g><g><path d="m364.163 336.439c61.123-25.362 101.511-85.247 101.519-152.14 0-1.989-.79-3.897-2.196-5.304-1.406-1.406-3.314-2.197-5.303-2.197h-12.734c-1.58-30.235-12.662-59.47-31.62-83.036-2.596-3.227-7.316-3.74-10.544-1.143-3.227 2.597-3.739 7.317-1.143 10.544 16.823 20.911 26.724 46.811 28.288 73.634h-68.194c-3.715-30.51-29.763-54.227-61.264-54.227s-57.549 23.717-61.265 54.227h-68.207c1.803-31.816 15.049-61.48 37.771-84.202 22.748-22.748 52.952-36.178 85.048-37.816 31.851-1.628 63.042 8.437 87.789 28.338 3.228 2.596 7.949 2.083 10.544-1.144s2.083-7.949-1.144-10.544c-27.619-22.21-62.405-33.444-97.953-31.628-35.811 1.827-69.51 16.81-94.889 42.189-25.557 25.556-40.374 58.983-42.192 94.808h-12.705c-4.142 0-7.5 3.358-7.5 7.5 0 33.166 9.718 64.887 28.159 92.142-14 15.027-27.735 30.279-41.142 45.715-2.265 2.607-2.456 6.424-.463 9.245 2.747 3.888 5.568 7.713 8.423 11.508-9.939 9.61-19.688 19.274-29.02 28.8-2.898 2.959-2.849 7.707.109 10.606 1.46 1.43 3.354 2.142 5.248 2.142 1.945 0 3.889-.752 5.358-2.251 8.868-9.054 18.119-18.235 27.552-27.375 21.439 26.689 45.639 50.889 72.327 72.328-20.14 20.785-41.123 41.266-62.482 60.957-12.544 11.558-31.637 11.869-44.413.725-9.646-8.42-18.766-17.54-27.108-27.108-11.146-12.778-10.835-31.872.723-44.415 4.577-4.966 8.738-9.42 12.723-13.618 2.851-3.004 2.728-7.75-.276-10.602-3.003-2.851-7.75-2.729-10.602.276-4.036 4.251-8.248 8.759-12.875 13.78-16.753 18.181-17.181 45.883-.997 64.437 8.786 10.078 18.392 19.684 28.551 28.551 9.077 7.918 20.342 11.86 31.612 11.86 11.767 0 23.54-4.299 32.828-12.857 21.974-20.258 43.552-41.343 64.238-62.739 3.797 2.856 7.623 5.678 11.512 8.426 1.302.92 2.816 1.374 4.326 1.374 1.761 0 3.515-.618 4.919-1.837 18.281-15.878 36.307-32.213 54.002-48.911 17.707 18.105 36.039 36.123 54.587 53.633 8.409 7.936 19.062 11.894 29.682 11.894 10.895 0 21.753-4.167 30.108-12.478l.496-.497c16.396-16.483 16.647-42.74.569-59.774-16.593-17.583-33.64-34.967-50.78-51.796zm17.563-26.055c9.408-14.649 14.391-31.717 14.234-49.436-.208-23.496-9.427-45.571-25.954-62.156l-1.14-1.14c-2.074-2.067-4.234-4.02-6.472-5.855h88.1c-2.437 48.852-28.544 92.816-68.768 118.587zm-80.754-172.813c23.217 0 42.526 17.016 46.127 39.228h-11.308c-9.223-3.262-19.021-5.016-29.085-5.105-10.608-.098-20.982 1.667-30.75 5.105h-21.112c3.601-22.212 22.911-39.228 46.128-39.228zm-149.522 54.226h97.728c-1.792 1.453-3.551 2.958-5.244 4.557-23.501 22.197-46.546 45.21-68.941 68.833-14.192-22.031-22.257-47.109-23.543-73.39zm88.675 237.357c-39.102-28.377-73.249-62.525-101.626-101.626 36.561-41.805 75.474-82.243 115.735-120.269 14.225-13.436 32.83-20.739 52.339-20.568 19.55.173 37.912 7.838 51.707 21.586l1.097 1.097c13.746 13.794 21.412 32.157 21.585 51.706.173 19.527-7.131 38.114-20.566 52.339-38.028 40.262-78.467 79.175-120.271 115.735zm163.638 8.255-.477.476c-10.706 10.65-27.794 10.781-38.901.297-18.353-17.325-36.492-35.15-54.014-53.063 13.827-13.27 27.429-26.762 40.775-40.429 17.85 17.458 35.615 35.538 52.889 53.839 10.31 10.923 10.177 28.374-.272 38.88z"/><path d="m262.254 264.826c-8.647-8.648-22.718-8.647-31.365 0s-8.647 22.717 0 31.365l40.574 40.575h.001c4.189 4.189 9.758 6.496 15.683 6.496s11.493-2.307 15.682-6.496 6.497-9.758 6.497-15.683-2.307-11.494-6.496-15.683zm29.968 61.333c-1.355 1.356-3.158 2.103-5.076 2.103s-3.721-.747-5.078-2.103h.001l-40.575-40.575c-2.799-2.799-2.799-7.354 0-10.153 2.799-2.798 7.353-2.799 10.153 0l40.575 40.575c1.355 1.356 2.102 3.158 2.102 5.076.001 1.918-.745 3.721-2.102 5.077z"/><path d="m225.397 301.682c-4.189-4.189-9.759-6.496-15.683-6.496s-11.493 2.307-15.682 6.496-6.496 9.759-6.496 15.683 2.307 11.493 6.496 15.682l40.575 40.575c4.324 4.323 10.003 6.484 15.683 6.484 5.679 0 11.359-2.161 15.682-6.484 4.19-4.189 6.497-9.759 6.497-15.683s-2.307-11.494-6.496-15.683zm29.969 61.333c-2.799 2.8-7.355 2.799-10.153 0l-40.575-40.576c-1.356-1.355-2.103-3.159-2.103-5.076 0-1.918.747-3.72 2.103-5.077 1.355-1.356 3.159-2.103 5.076-2.103 1.918 0 3.721.747 5.077 2.103l40.575 40.575c1.356 1.356 2.103 3.158 2.103 5.076 0 1.92-.747 3.723-2.103 5.078z"/><path d="m97.904 45.971 19.878 17.124c4.447 3.831 9.965 5.725 15.472 5.725 6.147 0 12.279-2.361 16.886-7.021l1.699-1.719c8.733-8.834 9.138-23.053.922-32.37l-17.353-19.678c-4.332-4.912-10.572-7.837-17.119-8.023-6.533-.18-12.943 2.377-17.549 7.037l-4.223 4.273c-4.605 4.658-7.095 11.082-6.834 17.627.262 6.545 3.258 12.75 8.221 17.025zm9.28-24.108 4.223-4.273c1.658-1.677 3.849-2.592 6.196-2.592.086 0 .172.001.258.003 2.443.07 4.679 1.118 6.296 2.951l17.353 19.678c3.021 3.427 2.872 8.656-.339 11.904 0 0 0 0-.001.001l-1.7 1.72c-3.212 3.25-8.438 3.457-11.9.477l-19.877-17.124c-1.852-1.596-2.926-3.819-3.024-6.262-.096-2.442.796-4.744 2.515-6.483z"/><path d="m72.655 133.388 25.777 4.892c1.475.28 2.947.415 4.401.415 10.579 0 20.208-7.15 22.974-17.716l.612-2.339c3.146-12.017-3.613-24.533-15.387-28.494l-24.868-8.366c-6.207-2.089-13.074-1.501-18.836 1.611-5.763 3.112-10.02 8.531-11.678 14.867l-1.522 5.814c-1.659 6.337-.603 13.146 2.896 18.682 3.499 5.537 9.196 9.413 15.631 10.634zm-4.018-25.518 1.522-5.814c.619-2.365 2.144-4.306 4.295-5.468 1.298-.701 2.707-1.055 4.131-1.055.936 0 1.878.153 2.797.462l24.867 8.365c4.33 1.457 6.816 6.06 5.659 10.479l-.612 2.339c-1.157 4.42-5.582 7.215-10.068 6.363l-25.777-4.892c-2.401-.456-4.443-1.844-5.749-3.91-1.305-2.064-1.683-4.504-1.065-6.869z"/><path d="m71.638 223.125c2.638 0 5.282-.437 7.811-1.32l24.769-8.652c11.727-4.096 18.341-16.69 15.056-28.67l-.64-2.332c-3.284-11.98-15.393-19.44-27.572-16.983l-25.719 5.189c-6.421 1.296-12.073 5.237-15.507 10.814-3.435 5.577-4.412 12.398-2.68 18.715l1.589 5.796c1.731 6.317 6.05 11.686 11.849 14.732 3.429 1.798 7.231 2.711 11.044 2.711zm-9.03-34.089c1.282-2.081 3.307-3.493 5.703-3.977l25.719-5.189c.575-.116 1.149-.172 1.716-.172 3.852 0 7.371 2.577 8.424 6.418l.64 2.332c1.208 4.406-1.225 9.038-5.537 10.544l-24.77 8.652c-2.306.807-4.771.625-6.934-.512-2.164-1.136-3.712-3.06-4.358-5.418l-1.589-5.796c-.646-2.356-.296-4.801.986-6.882z"/><path d="m383.137 136.199v.501c0 4.142 3.357 7.5 7.5 7.5 4.142 0 7.5-3.358 7.5-7.5v-.501c0-4.142-3.357-7.5-7.5-7.5-4.143.001-7.5 3.358-7.5 7.5z"/><path d="m369.953 139.375c-4.142 0-7.5 3.358-7.5 7.5v.501c0 4.142 3.357 7.5 7.5 7.5 4.142 0 7.5-3.358 7.5-7.5v-.501c0-4.142-3.357-7.5-7.5-7.5z"/><path d="m378.792 122.855c0-4.142-3.357-7.5-7.5-7.5s-7.5 3.358-7.5 7.5v.501c0 4.142 3.357 7.5 7.5 7.5s7.5-3.358 7.5-7.5z"/><path d="m234.715 120.995v.502c0 4.142 3.358 7.5 7.5 7.5s7.5-3.358 7.5-7.5v-.502c0-4.142-3.358-7.5-7.5-7.5s-7.5 3.358-7.5 7.5z"/><path d="m221.531 124.171c-4.142 0-7.5 3.358-7.5 7.5v.502c0 4.142 3.358 7.5 7.5 7.5s7.5-3.358 7.5-7.5v-.502c-.001-4.143-3.358-7.5-7.5-7.5z"/><path d="m230.369 107.65c0-4.142-3.358-7.5-7.5-7.5s-7.5 3.358-7.5 7.5v.502c0 4.142 3.358 7.5 7.5 7.5s7.5-3.358 7.5-7.5z"/></g></g></svg>