<svg id="Capa_1" enable-background="new 0 0 511.955 511.955" height="512" viewBox="0 0 511.955 511.955" width="512" xmlns="http://www.w3.org/2000/svg"><g><g><path d="m19.014 240.756 62.416-177.743c5.8-16.502 24.349-24.649 40.422-17.76l45.115 19.328c13.657 5.86 10.632 26.036-4.143 27.624l-46.782 5.052-21.934 125.818" fill="#c3bec6"/><path d="m417.847 223.075-21.934-125.819-46.782-5.052c-14.775-1.587-17.8-21.764-4.143-27.624l45.115-19.328c16.073-6.888 34.622 1.258 40.422 17.76l62.416 177.743" fill="#b4acb7"/><path d="m79.406 466.411c28.827 1.196 57.655 2.098 86.48 2.707 26.401.557 51.002-13.345 64.205-36.215 11.505-19.928 40.269-19.928 51.774 0 13.203 22.869 37.804 36.772 64.205 36.215 28.827-.608 57.653-1.511 86.48-2.707 35.923-1.49 65.268-29.176 68.99-64.937 5.257-50.506 3.458-101.011-5.398-151.518-2.409-13.74-14.032-23.977-27.964-24.671-141.463-7.049-282.927-7.049-424.398 0-13.932.694-25.555 10.931-27.964 24.671-8.856 50.507-10.656 101.012-5.398 151.518 3.72 35.762 33.065 63.447 68.988 64.937z" fill="#c3bec6"/><path d="m82.056 466.515c-.88-.04-1.77-.07-2.65-.11-35.93-1.49-65.27-29.17-68.99-64.93-5.26-50.51-3.46-101.01 5.4-151.52 2.4-13.74 14.03-23.98 27.96-24.67 3.81-.19 7.62-.37 11.43-.55-6.7 4.66-11.53 11.87-13.02 20.35-9.31 53.11-11.2 106.21-5.67 159.31 2.92 28.09 20.89 51.449 45.54 62.12z" fill="#b4acb7"/><path d="m464.737 397.649c-1.81 17.4-16.31 31.07-33.72 31.79-26.93 1.13-54.19 1.99-81.11 2.59-1.54.03-3.08.07-4.62.1-.25 0-.5.01-.75.01-12.58 0-24.32-6.8-30.63-17.73-12.09-20.95-33.75-33.45-57.93-33.45-7.46 0-14.68 1.19-21.46 3.46-15.18 5.06-28.11 15.5-36.47 29.99-6.31 10.93-18.05 17.73-30.63 17.73-.25 0-.5-.01-.75-.01-6.14-.13-12.29-.27-18.46-.44-22.41-.57-44.96-1.32-67.27-2.25-5.61-.23-10.93-1.81-15.61-4.44-9.84-5.49-16.88-15.56-18.11-27.35-4.68-45-3.31-90.62 4.09-135.69 30.73-1.49 61.65-2.65 92.58-3.46 28.94-.77 57.89-1.25 86.71-1.42 8.47-.05 16.93-.08 25.38-.08 12.83 0 25.69.06 38.58.18 45.33.42 90.92 1.57 136.23 3.44 9.97.41 19.92.86 29.86 1.34 7.4 45.07 8.77 90.69 4.09 135.69z" fill="#e2dfe2"/><g fill="#f9f6f9"><path d="m230.598 257.079-82.39 174.609c-22.41-.57-44.96-1.32-67.27-2.25-5.61-.23-10.93-1.81-15.61-4.44l78.56-166.499c28.94-.77 57.89-1.25 86.71-1.42z"/><path d="m430.787 260.619-80.88 171.41c-1.54.03-3.08.07-4.62.1-.25 0-.5.01-.75.01-12.58 0-24.32-6.8-30.63-17.73-12.09-20.95-33.75-33.45-57.93-33.45-7.46 0-14.68 1.19-21.46 3.46l60.04-127.24c45.33.42 90.92 1.57 136.23 3.44z"/></g></g><g><path d="m503.529 248.661c-.686-3.912-1.958-7.585-3.71-10.943l-29.716-84.636c-1.371-3.908-5.653-5.964-9.561-4.592-3.908 1.373-5.964 5.653-4.592 9.561l21.511 61.267c-2.844-.844-5.827-1.369-8.911-1.523-14.762-.736-29.55-1.376-44.352-1.958l-20.892-119.868c-.574-3.294-3.26-5.811-6.584-6.169l-46.792-5.05c-4.938-.532-5.931-4.626-6.117-5.868-.187-1.243-.44-5.452 4.126-7.411l45.123-19.321c5.848-2.506 12.272-2.477 18.093.08 5.821 2.558 10.188 7.271 12.296 13.271l22.601 64.37c1.372 3.909 5.656 5.965 9.561 4.592 3.908-1.373 5.964-5.653 4.592-9.561l-22.602-64.372c-3.449-9.818-10.89-17.85-20.414-22.034-9.525-4.185-20.472-4.233-30.034-.134l-45.125 19.322c-9.31 3.994-14.555 13.408-13.051 23.424 1.503 10.015 9.277 17.472 19.344 18.555l41.176 4.444 19.373 111.153c-101.684-3.628-204.1-3.628-305.787 0l19.377-111.154 41.163-4.445c10.068-1.082 17.845-8.535 19.349-18.547 1.506-10.017-3.738-19.431-13.053-23.427l-45.114-19.327c-9.563-4.098-20.51-4.049-30.035.136-9.527 4.184-16.968 12.214-20.418 22.032l-62.232 177.218c-1.745 3.35-3.011 7.014-3.695 10.915-8.935 50.956-10.775 102.631-5.471 153.59 1.987 19.091 10.772 36.849 24.736 50.003 13.979 13.167 32.234 20.856 51.402 21.651 28.751 1.192 57.898 2.105 86.633 2.711.565.012 1.126.018 1.689.018 28.477-.001 54.866-15.207 69.169-39.981 4.048-7.011 11.297-11.196 19.392-11.196s15.344 4.185 19.392 11.196c14.304 24.775 40.689 39.981 69.169 39.98.562 0 1.126-.006 1.689-.018 28.735-.607 57.883-1.519 86.632-2.711 19.169-.795 37.424-8.484 51.402-21.651 13.965-13.153 22.75-30.911 24.737-50.003 5.305-50.961 3.464-102.636-5.469-153.589zm-415.023-183.161c2.108-6 6.477-10.714 12.298-13.271 5.822-2.559 12.247-2.587 18.095-.082l45.111 19.326c4.57 1.961 4.316 6.169 4.13 7.412-.187 1.241-1.179 5.332-6.122 5.863l-46.781 5.052c-3.323.359-6.009 2.875-6.583 6.168l-20.896 119.87c-14.801.582-29.589 1.222-44.352 1.958-3.086.154-6.07.68-8.915 1.524zm405.573 335.198c-1.615 15.516-8.754 29.948-20.103 40.637-11.352 10.693-26.175 16.937-41.738 17.583-28.648 1.188-57.693 2.098-86.327 2.702-23.684.495-45.703-11.942-57.552-32.465-6.759-11.708-18.864-18.697-32.382-18.697s-25.623 6.989-32.382 18.696c-11.85 20.525-33.878 32.968-57.552 32.466-28.633-.604-57.678-1.513-86.328-2.702-15.563-.646-30.386-6.89-41.738-17.583-11.348-10.689-18.487-25.121-20.102-40.637-5.161-49.577-3.369-99.858 5.326-149.446 1.815-10.354 10.43-17.951 20.949-18.476 140.563-7.004 283.098-7.004 423.652 0 10.52.524 19.134 8.122 20.949 18.476 8.697 49.584 10.489 99.866 5.328 149.446z"/><path d="m461.009 254.465c-68.09-3.297-137.072-4.969-205.032-4.969-67.949 0-136.932 1.672-205.032 4.969-3.533.171-6.466 2.787-7.039 6.276-7.502 45.699-8.897 92.021-4.148 137.68 1.506 14.498 10.2 27.151 23.257 33.848 3.686 1.89 8.205.435 10.096-3.25 1.891-3.686.436-8.206-3.25-10.096-8.399-4.309-14.217-12.758-15.183-22.052-4.404-42.341-3.365-85.275 3.085-127.713 65.88-3.093 132.532-4.661 198.215-4.661 65.693 0 132.345 1.568 198.215 4.661 6.45 42.438 7.489 85.372 3.085 127.713-1.427 13.724-12.852 24.507-26.57 25.082-28.333 1.175-57.126 2.075-85.578 2.675-.045.001-.09.002-.135.004-.152.005-.305.004-.457.004-9.908 0-19.156-5.357-24.134-13.979-13.443-23.294-37.527-37.201-64.426-37.201s-50.982 13.907-64.425 37.2c-4.979 8.623-14.227 13.98-24.135 13.98-.151 0-.305.002-.457-.004-.046-.002-.091-.003-.136-.004-23.475-.491-47.234-1.192-70.621-2.086-4.14-.144-7.622 3.069-7.78 7.208s3.068 7.623 7.208 7.781c23.453.896 47.28 1.601 70.822 2.093.321.011.643.013.964.013 15.25 0 29.476-8.23 37.126-21.481 10.731-18.596 29.959-29.698 51.434-29.698s40.702 11.102 51.435 29.7c7.649 13.25 21.875 21.48 37.125 21.48.322 0 .646-.001.968-.013 28.535-.603 57.408-1.506 85.827-2.684 21.105-.885 38.674-17.444 40.865-38.518 4.749-45.659 3.354-91.982-4.148-137.681-.575-3.49-3.508-6.106-7.041-6.277z"/></g></g></svg>