<svg id="Capa_1" enable-background="new 0 0 511.991 511.991" height="512" viewBox="0 0 511.991 511.991" width="512" xmlns="http://www.w3.org/2000/svg"><g><g><path d="m44.969 332.787h-36.395v-61.317c0-29.611 24.09-53.701 53.701-53.701h89.458v36.394h-89.457c-9.543 0-17.307 7.764-17.307 17.307z" fill="#e27d47"/><g><path d="m44.969 257.943v13.526c0-9.543 7.764-17.307 17.307-17.307h89.458v-13.526h-89.458c-9.544.001-17.307 7.765-17.307 17.307z" fill="#dd6938"/></g><path d="m180.511 408.255 10.001 29.743c2.957 8.794 11.199 14.718 20.477 14.718h100.269c9.278 0 17.52-5.924 20.477-14.718l10.001-29.743-82.201-144.88z" fill="#655e66"/><path d="m235.16 452.717h-24.17c-9.28 0-17.523-5.919-20.477-14.718l-9.998-29.736 79.019-144.882.514.91-40.665 143.972 5.181 29.736c1.529 8.798 5.789 14.718 10.596 14.718z" fill="#535057"/><path d="m261.128 266.196-1.081-1.906.257-.91z" fill="#535057"/><path d="m151.862 388.092c-6.29 4.1-12.26 9.22-17.92 15.07-26.44 27.38-45.87 70.85-57.21 101.33h-36.75c1.94-74.5 25.18-125.84 41.14-152.59 8.56-14.32 15.02-21.6 15.02-21.6z" fill="#655e66"/><path d="m113.892 348.702c-21.44 25.73-55.43 78.21-59.6 155.79h-14.32c2.98-114.38 56.17-174.19 56.17-174.19z" fill="#535057"/><path d="m482.282 504.492h-36.78c-13.75-36.99-39.44-93.14-75.11-116.4l55.71-57.79s53.19 59.81 56.18 174.19z" fill="#655e66"/><path d="m460.622 504.492h-15.12c-13.75-36.99-39.44-93.14-75.11-116.4l20.18-20.94c33.87 28.76 57.85 95.87 70.05 137.34z" fill="#535057"/><path d="m384.325 9.074c-82.134-2.11-164.268-2.11-246.402 0-11.102.285-20.708 8.097-22.977 18.969-2.628 12.587-2.628 25.174 0 37.761 2.27 10.872 11.875 18.683 22.977 18.969 82.134 2.11 164.268 2.11 246.402 0 11.102-.285 20.708-8.097 22.977-18.969 2.628-12.587 2.628-25.174 0-37.761-2.269-10.872-11.874-18.684-22.977-18.969z" fill="#655e66"/><path d="m169.976 70.599c.61 5.834 2.045 10.972 4.046 14.964-12.032-.214-24.063-.482-36.095-.792-11.1-.278-20.713-8.092-22.982-18.968-2.623-12.588-2.623-25.176 0-37.764 2.269-10.865 11.882-18.679 22.982-18.968 12.032-.31 24.063-.578 36.095-.792-1.991 3.993-3.436 9.12-4.046 14.965-1.638 15.788-1.638 31.577 0 47.355z" fill="#535057"/><path d="m151.86 388.091c-6.283 4.1-12.256 9.216-17.919 15.072-24.416-18.668-42.817-39.092-52.815-51.263 8.553-14.322 15.018-21.601 15.018-21.601z" fill="#535057"/><path d="m426.103 330.299s-33.108 46.991-84.371 77.959h-161.216c-51.263-30.967-84.371-77.959-84.371-77.959-19.685-90.761-7.804-211.729-2.312-256.109h334.582c5.491 44.38 17.373 165.348-2.312 256.109z" fill="#f9f6f9"/><path d="m210.948 408.258h-30.432c-51.263-30.967-84.371-77.959-84.371-77.959-19.685-90.761-7.803-211.729-2.312-256.109h63.166c-3.415 44.38-10.811 165.348 1.445 256.109-.001 0 20.605 46.992 52.504 77.959z" fill="#e2dfe2"/><path d="m299.065 86.485c.407 12.93.755 25.86 1.043 38.79-25.989-1.942-51.978-1.942-77.967 0 .288-12.93.635-25.86 1.043-38.79-10.704 1.162-21.409 2.815-32.113 4.96-4.884 80.883-5.125 161.767-.722 242.65.408 7.492 6.01 13.672 13.414 14.887.107.018.214.035.321.053 9.901 1.615 18.82-6.204 18.549-16.232-.184-6.806-.351-13.613-.502-20.419 25.996 1.932 51.992 1.932 77.988 0-.151 6.806-.318 13.613-.502 20.419-.271 10.028 8.648 17.848 18.549 16.232.107-.017.214-.035.321-.053 7.404-1.215 13.006-7.395 13.414-14.887 4.403-80.883 4.162-161.767-.722-242.65-10.705-2.145-21.409-3.798-32.114-4.96zm1.654 72.151c.208 14.504.341 29.008.4 43.513-26.663-.35-53.325-.35-79.988 0 .058-14.504.191-29.008.4-43.513 26.395-1.251 52.791-1.251 79.188 0zm-79.196 120.386c-.207-14.504-.338-29.009-.395-43.513 26.664.341 53.328.341 79.992 0-.057 14.504-.188 29.009-.395 43.513-26.401 1.242-52.801 1.242-79.202 0z" fill="#9dc6fb"/><path d="m223.125 88.594c.021-.706.043-1.402.064-2.109-10.704 1.156-21.408 2.815-32.113 4.956-4.881 80.881-5.127 161.762-.728 242.654.418 7.493 6.016 13.669 13.423 14.879.107.021.214.043.321.054 3.789.621 7.429-.139 10.458-1.873-4.667-2.612-7.868-7.472-8.167-13.059-4.41-80.892-4.164-161.773.717-242.654 5.342-1.071 10.683-2.013 16.025-2.848z" fill="#80b4fb"/><path d="m287.697 488.697h-53.146c-9.936 0-17.99-8.054-17.99-17.99 0-9.936 8.054-17.99 17.99-17.99h53.146c9.936 0 17.99 8.054 17.99 17.99 0 9.935-8.054 17.99-17.99 17.99z" fill="#e27d47"/><path d="m261.487 488.701h-26.932c-9.934 0-17.994-8.05-17.994-17.994 0-4.967 2.012-9.463 5.277-12.717 3.254-3.254 7.75-5.267 12.717-5.267h26.932c-4.967 0-9.462 2.012-12.717 5.267-3.265 3.254-5.277 7.75-5.277 12.717 0 9.944 8.06 17.994 17.994 17.994z" fill="#dd6938"/><path d="m431.81 91.446h-341.372c-9.533 0-17.262-7.728-17.262-17.262 0-9.533 7.728-17.262 17.262-17.262h341.372c9.533 0 17.262 7.728 17.262 17.262 0 9.534-7.729 17.262-17.262 17.262z" fill="#c3bec6"/><path d="m435.779 254.16h4.346c34.211 0 62.759-27.157 63.283-61.367.525-34.81-27.638-63.305-62.331-63.305h-7.193-30.143c-5.031 0-9.57 2.034-12.866 5.331-3.297 3.286-5.331 7.846-5.331 12.866 0 10.051 8.146 18.197 18.197 18.197h32.305 5.031c14.151 0 25.701 11.4 25.936 25.497.246 14.515-12.021 26.386-26.525 26.386h-3.522" fill="#e27d47"/><g fill="#dd6938"><path d="m440.125 239.922h-3.881l-.465 14.238h4.346c34.211 0 62.759-27.157 63.283-61.367.041-2.718-.113-5.392-.411-8.022-3.643 31.226-30.762 55.151-62.872 55.151z"/><path d="m441.078 165.882c11.803 0 21.79 7.933 24.918 18.745.699-2.376 1.062-4.887 1.018-7.486-.235-14.097-11.785-25.497-25.936-25.497h-5.031-32.306c-7.525 0-13.98-4.566-16.75-11.079-.931 2.188-1.447 4.595-1.447 7.12 0 10.051 8.146 18.197 18.197 18.197h32.306z"/></g><path d="m157.173 91.451h-66.73c-9.537 0-17.266-7.728-17.266-17.266 0-4.763 1.927-9.077 5.052-12.203 3.126-3.115 7.45-5.052 12.213-5.052h66.73c-4.763 0-9.088 1.937-12.214 5.052-3.126 3.126-5.052 7.439-5.052 12.203.001 9.537 7.729 17.266 17.267 17.266z" fill="#b4acb7"/></g><g><path d="m434.183 328.32c4.092-19.839 6.992-42.24 8.644-66.729 37.221-1.406 67.512-31.668 68.08-68.687.284-18.84-6.854-36.62-20.099-50.066-13.246-13.447-30.907-20.852-49.731-20.852h-.264c-.649-8-1.378-16.025-2.183-24.004 10.346-2.97 17.942-12.511 17.942-23.799 0-13.654-11.108-24.761-24.762-24.761h-15.088c.191-7.639-.497-15.314-2.075-22.915-2.988-14.309-15.379-24.562-30.126-24.934-7.842-.205-15.002-.369-21.892-.501-4.129-.079-7.563 3.213-7.643 7.354s3.213 7.563 7.354 7.643c6.854.132 13.981.295 21.795.499 7.637.193 14.294 5.662 15.826 12.998 1.368 6.589 1.957 13.242 1.762 19.856h-281.207c-.194-6.617.397-13.268 1.771-19.848 1.533-7.343 8.19-12.813 15.83-13.006 64.542-1.652 129.917-2.001 194.306-1.039 4.144.098 7.55-3.245 7.611-7.387.062-4.142-3.245-7.549-7.387-7.611-64.591-.965-130.169-.615-194.911 1.042-14.753.372-27.145 10.625-30.133 24.935-1.584 7.591-2.275 15.267-2.085 22.914h-15.08c-13.654 0-24.762 11.108-24.762 24.762 0 11.285 7.592 20.825 17.934 23.797-2.938 29.113-5.935 69.419-5.879 112.29h-15.456c-33.746 0-61.2 27.454-61.2 61.2v61.32c0 4.142 3.358 7.5 7.5 7.5h36.39c4.142 0 7.5-3.358 7.5-7.5v-61.32c0-5.409 4.4-9.81 9.81-9.81h17.143c1.55 22.875 4.281 45.516 8.647 66.672-4.632 5.872-15.044 20.255-25.673 42.995-12.775 27.333-28.336 72.59-29.915 132.967-.053 2.022.714 3.98 2.125 5.43 1.412 1.449 3.349 2.266 5.372 2.266h36.77c3.136 0 5.94-1.951 7.032-4.891 6.92-18.651 14.522-35.825 22.594-51.045 1.94-3.659.547-8.199-3.112-10.14-3.659-1.94-8.199-.547-10.14 3.112-7.667 14.458-14.91 30.571-21.563 47.964h-23.8c2.539-53.609 16.436-93.918 27.936-118.689 7.74-16.673 15.417-28.64 20.415-35.657 7.838 9.862 22.901 27.407 43.546 45.095-10.597 8.579-20.923 20.258-30.792 34.862-2.319 3.432-1.417 8.094 2.015 10.414 1.287.87 2.748 1.286 4.192 1.286 2.407 0 4.772-1.157 6.221-3.302 9.846-14.572 20.013-25.833 30.284-33.554 7.068 5.459 14.651 10.796 22.698 15.782l9.132 27.16c3.988 11.86 15.074 19.828 27.586 19.828h.34c-1.452 3.202-2.268 6.751-2.268 10.49 0 14.055 11.435 25.49 25.49 25.49h53.146c14.055 0 25.49-11.435 25.49-25.49 0-3.739-.816-7.288-2.268-10.49h.34c12.512 0 23.598-7.968 27.586-19.828l9.133-27.16c8.042-4.983 15.619-10.316 22.683-15.771 15.807 12 42.3 41.016 67.812 109.647 1.092 2.938 3.896 4.887 7.03 4.887h36.78c2.023 0 3.96-.817 5.372-2.266s2.178-3.407 2.125-5.43c-1.578-60.377-17.139-105.633-29.914-132.967-10.635-22.756-21.055-37.144-25.682-43.008zm10.324-118.502c.012-11.708-.205-23.827-.65-36.202 8.706 1.342 15.507 8.84 15.658 17.889.082 4.805-1.796 9.406-5.288 12.958-2.662 2.709-6.074 4.559-9.72 5.355zm51.403-17.141c-.439 28.594-23.552 52.053-52.233 53.857.321-7.014.545-14.205.68-21.503 7.719-.899 15.056-4.446 20.568-10.051 6.334-6.442 9.739-14.869 9.589-23.726-.303-18.126-15.302-32.872-33.436-32.872h-37.336c-5.898 0-10.697-4.799-10.697-10.697 0-2.863 1.11-5.546 3.134-7.563 2.021-2.021 4.707-3.134 7.563-3.134h37.336c14.775 0 28.641 5.817 39.045 16.378 10.403 10.56 16.009 24.522 15.787 39.311zm-415.233-118.493c0-5.383 4.379-9.761 9.762-9.761h341.371c5.383 0 9.762 4.379 9.762 9.762s-4.379 9.761-9.762 9.761h-341.372c-5.382-.001-9.761-4.38-9.761-9.762zm243.734 259.504c-.214 3.929-3.216 7.249-7.118 7.89l-.334.055c-2.498.408-5.023-.315-6.933-1.982-1.918-1.676-2.98-4.097-2.912-6.643.183-6.821.348-13.643.499-20.461.047-2.115-.801-4.15-2.335-5.606s-3.61-2.195-5.72-2.039c-25.502 1.901-51.363 1.901-76.865 0-2.113-.158-4.187.583-5.72 2.039-1.534 1.456-2.382 3.491-2.335 5.606.15 6.818.318 13.639.502 20.46.068 2.546-.993 4.968-2.912 6.644-1.909 1.667-4.436 2.391-6.94 1.982l-.311-.051c-3.922-.644-6.925-3.964-7.139-7.893-4.24-77.867-4.122-156.802.319-234.742h17.154c-.232 8.194-.451 16.818-.663 26.153-.048 2.115.799 4.152 2.333 5.609s3.613 2.199 5.722 2.041c25.501-1.901 51.355-1.901 76.843 0 .187.014.373.021.558.021 1.914 0 3.763-.732 5.162-2.059 1.534-1.455 2.382-3.49 2.336-5.605-.183-8.398-.406-17.169-.662-26.16h17.153c4.44 77.939 4.557 156.873.318 234.741zm-32.479-234.743c.178 6.219.341 12.337.484 18.295-20.798-1.223-41.777-1.223-62.581 0 .155-6.388.315-12.449.481-18.295zm-229.657 147.716c-13.68 0-24.81 11.13-24.81 24.81v53.82h-21.39v-53.82c0-25.475 20.725-46.2 46.2-46.2h15.605c.132 7.101.355 14.243.684 21.39zm40.869 80.507c-16.1-75.907-10.167-172.872-4.554-228.222h84.542c-4.425 78.217-4.527 157.421-.273 235.558.593 10.902 8.872 20.104 19.7 21.882l.317.052c1.27.207 2.54.309 3.804.309 5.63 0 11.095-2.027 15.414-5.799 5.298-4.628 8.228-11.315 8.038-18.346-.109-4.064-.213-8.129-.311-12.193 20.808 1.223 41.8 1.223 62.606 0-.097 4.065-.199 8.131-.308 12.196-.188 7.031 2.742 13.716 8.04 18.343 5.288 4.618 12.292 6.619 19.224 5.487l.32-.052c10.813-1.776 19.092-10.977 19.686-21.879 4.255-78.137 4.153-157.34-.273-235.558h84.535c.776 7.657 1.486 15.359 2.117 23.042h-22.025c-6.863 0-13.316 2.673-18.161 7.519-4.86 4.844-7.536 11.3-7.536 18.178 0 14.169 11.528 25.697 25.697 25.697h25.098c.56 15.265.772 30.139.628 44.31-.121 12.382-.517 24.507-1.176 36.042-1.552 27.301-4.643 51.997-9.188 73.434-5.417 7.31-35.661 46.565-79.479 73.59h-157c-43.824-27.027-74.07-66.287-79.482-73.59zm195.043 143.538c0 5.784-4.706 10.49-10.49 10.49h-53.146c-5.784 0-10.49-4.706-10.49-10.49s4.706-10.49 10.49-10.49h53.146c5.784 0 10.49 4.706 10.49 10.49zm13.072-25.49h-23.562-53.146-23.562c-6.063 0-11.436-3.862-13.368-9.609l-6.674-19.85h140.355l-6.675 19.85c-1.933 5.748-7.305 9.609-13.368 9.609zm139.431 51.775c-23.945-62.623-49.023-93.765-68.097-109.249 20.651-17.692 35.718-35.243 43.554-45.103 4.998 7.016 12.677 18.985 20.42 35.663 11.5 24.771 25.396 65.08 27.935 118.689z"/><path d="m301.024 228.009c-26.477.338-53.325.338-79.8 0-2.002-.024-3.948.757-5.375 2.173-1.428 1.416-2.228 3.345-2.22 5.356.057 14.478.189 29.144.396 43.59.056 3.964 3.187 7.199 7.146 7.385 13.256.624 26.605.935 39.954.935s26.698-.312 39.954-.935c3.959-.186 7.09-3.421 7.146-7.385.207-14.478.339-29.144.396-43.59.008-2.011-.792-3.94-2.22-5.356-1.429-1.415-3.37-2.202-5.377-2.173zm-7.703 43.822c-21.397.823-42.996.823-64.394 0-.12-9.551-.208-19.168-.262-28.735 21.573.223 43.345.223 64.918 0-.054 9.553-.143 19.171-.262 28.735z"/><path d="m301.074 151.143c-26.509-1.256-53.391-1.256-79.899 0-3.958.188-7.087 3.422-7.144 7.384-.208 14.478-.342 29.144-.4 43.59-.008 2.011.792 3.942 2.221 5.357 1.428 1.416 3.358 2.202 5.377 2.172 26.474-.347 53.319-.347 79.791 0 .033 0 .066.001.099.001 1.976 0 3.874-.78 5.279-2.173 1.429-1.416 2.229-3.346 2.221-5.357-.058-14.447-.192-29.113-.4-43.59-.058-3.961-3.187-7.196-7.145-7.384zm-39.95 43.243c-10.834 0-21.671.057-32.456.172.056-9.553.145-19.17.266-28.735 21.392-.829 42.989-.829 64.381 0 .121 9.565.21 19.181.266 28.735-10.786-.114-21.622-.172-32.457-.172z"/></g></g></svg>