<svg id="Capa_1" enable-background="new 0 0 511.99 511.99" height="512" viewBox="0 0 511.99 511.99" width="512" xmlns="http://www.w3.org/2000/svg"><g><g><path d="m258.734 483.233c-33.453 0-73.303-4.789-118.444-14.234-46.746-9.782-82.155-48.059-88.111-95.247-7.856-62.237 1.679-119.852 2.089-122.274 1.286-7.604 8.496-12.723 16.098-11.439 7.604 1.286 12.726 8.493 11.439 16.098-.093.548-9.239 56.109-1.918 114.118 4.464 35.369 31.037 64.066 66.123 71.408 42.654 8.925 81.634 13.643 112.723 13.643 31.09 0 70.07-4.717 112.723-13.643 35.086-7.342 61.66-36.039 66.123-71.408 7.321-58.009-1.826-113.571-1.919-114.125-1.279-7.603 3.846-14.807 11.448-16.089 7.597-1.285 14.805 3.836 16.09 11.437.41 2.422 9.945 60.037 2.089 122.274-5.956 47.188-41.365 85.465-88.111 95.247-45.139 9.444-84.989 14.234-118.442 14.234z" fill="#c3bec6"/><g fill="#b4acb7"><path d="m273.944 455.305c31.09 0 70.07-4.717 112.723-13.643 35.086-7.342 61.66-36.039 66.123-71.408 7.321-58.009-1.825-113.571-1.919-114.125-.951-5.652 1.641-11.078 6.155-14.02-2.832-1.84-6.327-2.676-9.917-2.069-7.602 1.282-12.727 8.486-11.448 16.089.094.554 9.24 56.116 1.919 114.125-4.464 35.369-31.037 64.066-66.123 71.408-39.252 8.213-75.375 12.853-105.118 13.542 2.578.06 5.126.101 7.605.101z"/><path d="m155.501 468.998c-46.746-9.782-82.155-48.059-88.111-95.247-7.856-62.237 1.679-119.852 2.089-122.274.679-4.011 3.014-7.317 6.177-9.371-1.557-1.015-3.34-1.739-5.289-2.069-7.602-1.284-14.811 3.836-16.098 11.439-.41 2.422-9.945 60.037-2.089 122.274 5.956 47.188 41.365 85.465 88.111 95.247 45.141 9.445 84.991 14.235 118.444 14.235 2.496 0 5.039-.035 7.605-.089-31.835-.66-69.066-5.404-110.839-14.145z"/></g><path d="m458.571 162.79v93.478h-405.155v-93.478c0-44.282 23.988-82.983 59.69-103.759 13.279-7.751 28.178-13.012 44.068-15.153 5.314-.723 10.736-1.098 16.251-1.098h165.149c5.515 0 10.937.375 16.251 1.098 15.89 2.142 30.789 7.403 44.068 15.153 35.69 20.79 59.678 59.477 59.678 103.759z" fill="#e27d47"/><g fill="#dd6938"><path d="m398.894 59.031v45.835c0 12.168-9.866 22.034-22.034 22.034s-22.034-9.866-22.034-22.034v-60.988c15.89 2.142 30.789 7.403 44.068 15.153z"/><path d="m157.175 43.878v60.989c0 12.168-9.866 22.034-22.034 22.034s-22.034-9.866-22.034-22.034v-45.836c13.279-7.75 28.178-13.011 44.068-15.153z"/></g><path d="m201.454 197.238c-3.555-54.721-3.95-109.442-1.185-164.163.618-11.224 10.422-22.228 21.691-23.607 22.69-2.637 45.38-2.637 68.07 0 11.271 1.38 21.072 12.384 21.691 23.607 2.766 54.721 2.371 109.442-1.185 164.163l-63.039 22.997z" fill="#e27d47"/><g fill="#dd6938"><path d="m228.3 28.778c-2.838 56.156-2.436 128.791 1.218 184.934l-28.071-16.479c-3.561-54.711-3.949-109.434-1.178-164.158.616-11.218 10.415-22.222 21.686-23.614 6.479-.75 12.945-1.285 19.41-1.593-7.268 4.458-12.609 12.624-13.065 20.91z"/><path d="m227.968 42.783c-66.279 0-120.011 53.731-120.011 120.011v93.48h-54.545v-93.48c0-66.28 53.731-120.011 120.011-120.011z"/><path d="m308.045 310.996h-104.1c-12.066 0-22.935-7.291-27.512-18.455l-11.6-28.295 91.162-33.504 91.162 33.504-11.6 28.295c-4.577 11.164-15.446 18.455-27.512 18.455z"/></g><path d="m453.827 197.238h-395.664c-18.504 0-33.504 15-33.504 33.504 0 18.504 15 33.504 33.504 33.504h395.664c18.504 0 33.504-15 33.504-33.504 0-18.504-15-33.504-33.504-33.504z" fill="#e27d47"/><path d="m125.446 264.234h-67.281c-18.506 0-33.506-14.999-33.506-33.492v-.014c0-18.493 15-33.492 33.506-33.492h67.281c-18.506 0-33.506 14.999-33.506 33.492v.014c.001 18.493 15 33.492 33.506 33.492z" fill="#dd6938"/><path d="m278.726 504.49h-39.984c-19.573 0-35.44-15.867-35.44-35.44v-15.586c0-6.914 5.605-12.518 12.518-12.518h85.827c6.914 0 12.518 5.605 12.518 12.518v15.586c.001 19.573-15.866 35.44-35.439 35.44z" fill="#f9f6f9"/><path d="m265.334 504.483h-26.589c-19.576 0-35.442-15.866-35.442-35.432v-15.592c0-6.912 5.6-12.512 12.512-12.512h26.589c-6.911 0-12.512 5.6-12.512 12.512v15.592c0 19.565 15.866 35.432 35.442 35.432z" fill="#e2dfe2"/></g><path d="m494.831 230.742c0-18.347-12.112-33.916-28.76-39.136v-28.816c0-70.309-57.194-127.51-127.496-127.51h-19.243c-.042-.872-.079-1.746-.123-2.618-.832-15.088-13.513-28.833-28.313-30.644-23.157-2.691-46.643-2.692-69.847.005-14.758 1.807-27.438 15.552-28.27 30.673-.043.861-.079 1.723-.121 2.584h-19.233c-40.613 0-79.147 19.609-103.081 52.453-2.439 3.348-1.703 8.039 1.645 10.479 1.333.971 2.879 1.439 4.411 1.439 2.315 0 4.6-1.069 6.067-3.083 6.575-9.024 14.4-16.914 23.14-23.503v31.802c0 16.285 13.249 29.534 29.534 29.534s29.534-13.249 29.534-29.534v-54.23c2.901-.229 5.818-.356 8.75-.356h18.583c-1.766 46.36-1.273 93.154 1.472 139.458h-132.565v-26.949c0-14.384 2.674-28.388 7.948-41.624 1.532-3.848-.344-8.21-4.191-9.743-3.847-1.531-8.21.342-9.744 4.191-5.98 15.01-9.013 30.882-9.013 47.176v28.817c-16.646 5.221-28.756 20.79-28.756 39.135 0 17.774 11.371 32.938 27.219 38.613-2.485 23.323-4.955 63.187.365 105.34 6.358 50.362 44.137 91.208 94.008 101.64 21.477 4.492 41.908 7.954 60.849 10.333 6.739 14.913 21.744 25.323 39.144 25.323h39.984c17.4 0 32.405-10.409 39.144-25.323 18.941-2.379 39.372-5.841 60.848-10.333 49.872-10.432 87.65-51.278 94.009-101.64 5.477-43.39 2.738-84.235.125-107.646 13.051-6.868 21.977-20.561 21.977-36.307zm-345.156-125.875c0 8.014-6.52 14.534-14.534 14.534s-14.534-6.52-14.534-14.534v-41.352c9.126-4.855 18.908-8.461 29.068-10.671zm212.651-52.055c10.279 2.218 20.039 5.844 29.068 10.667v41.388c0 8.014-6.52 14.534-14.534 14.534s-14.534-6.52-14.534-14.534zm-23.751-2.532c2.945 0 5.863.115 8.751.338v54.248c0 16.285 13.249 29.534 29.534 29.534s29.534-13.249 29.534-29.534v-31.78c27.123 20.561 44.677 53.119 44.677 89.704v26.948h-132.56c2.745-46.292 3.237-93.078 1.471-139.458zm-130.817-16.793c.427-7.758 7.631-15.658 15.067-16.569 22.011-2.557 44.33-2.558 66.294-.005 7.481.916 14.685 8.817 15.111 16.542 2.621 51.842 2.363 104.381-.748 156.284h-94.975c-3.11-51.909-3.368-104.447-.749-156.252zm-65.937 428.165c-43.608-9.122-76.641-44.822-82.196-88.835-5.078-40.229-2.794-78.384-.416-101.07h13.033c-2.21 20.812-4.831 59.562.208 99.452 4.864 38.544 33.808 69.813 72.023 77.806 17.753 3.712 34.984 6.723 51.329 8.976v11.071c0 .672.02 1.339.051 2.004-16.948-2.291-35.063-5.436-54.032-9.404zm164.845 7.398c0 15.406-12.533 27.94-27.939 27.94h-39.984c-15.406 0-27.939-12.534-27.939-27.94v-15.586c0-2.767 2.251-5.018 5.018-5.018h85.828c2.767 0 5.018 2.251 5.018 5.018v15.586zm151.178-96.234c-5.556 44.014-38.588 79.714-82.197 88.836-18.968 3.968-37.083 7.113-54.031 9.402.031-.664.051-1.332.051-2.004v-11.067c16.294-2.241 33.523-5.255 51.319-8.98 3.033-.632 6.077-1.431 9.048-2.373 3.948-1.253 6.133-5.469 4.88-9.417-1.252-3.948-5.465-6.134-9.417-4.881-2.487.79-5.035 1.458-7.578 1.988-17.758 3.717-34.912 6.705-51.098 8.909-3.499-5.847-9.876-9.782-17.171-9.782h-85.83c-7.294 0-13.67 3.934-17.17 9.78-16.241-2.217-33.398-5.203-51.107-8.905-31.951-6.683-56.148-32.805-60.212-65.002-4.987-39.472-2.171-77.898-.004-97.573h72.474l9.691 23.64c5.756 14.039 19.279 23.11 34.451 23.11h104.102c15.172 0 28.695-9.071 34.451-23.11l9.691-23.64h77.952c2.167 19.663 4.983 58.072-.006 97.575-2.535 20.07-12.771 37.997-28.823 50.479-3.271 2.543-3.859 7.255-1.317 10.525 1.479 1.901 3.69 2.896 5.926 2.896 1.609 0 3.23-.516 4.599-1.58 19.21-14.938 31.462-36.403 34.497-60.441 5.042-39.919 2.422-78.653.211-99.454h8.6c1.494 0 2.968-.085 4.42-.242 2.429 23.033 4.677 61.083-.402 101.311zm-281.83-101.07h159.963l-7.358 17.95c-3.438 8.383-11.513 13.8-20.572 13.8h-104.103c-9.06 0-17.135-5.417-20.572-13.8zm277.813-15h-106.67-182.324-106.67c-14.339 0-26.004-11.666-26.004-26.004 0-14.339 11.665-26.004 26.004-26.004h395.664c14.339 0 26.004 11.666 26.004 26.004 0 14.339-11.665 26.004-26.004 26.004z"/></g></svg>