<svg id="Capa_1" enable-background="new 0 0 511.996 511.996" height="512" viewBox="0 0 511.996 511.996" width="512" xmlns="http://www.w3.org/2000/svg"><g><g><path d="m312.44 306.521c-14.021 16.917-27.891 34.193-41.37 50.862-7.756 9.591-22.379 9.591-30.136 0-13.48-16.669-27.35-33.945-41.37-50.862-6.434-7.763-10.024-17.477-10.204-27.559-1.107-62.067-.085-124.134 3.065-186.201 42.385-10.105 84.769-10.105 127.153 0 3.15 62.067 4.172 124.134 3.065 186.201-.179 10.082-3.769 19.796-10.203 27.559z" fill="#c3bec6"/><path d="m232.12 309.578c5.887 17.921 11.714 36.212 17.37 53.872-3.224-1.141-6.207-3.164-8.55-6.067-13.486-16.669-27.352-33.949-41.378-50.869-6.427-7.759-10.022-17.47-10.202-27.552-1.101-62.072-.08-124.134 3.063-186.206 12.194-2.903 24.388-4.976 36.572-6.207-1.251 64.535-1.652 129.069-1.191 193.604.071 10.763 1.592 21.135 4.316 29.425z" fill="#b4acb7"/><path d="m396.589 504.496h-281.166c-6.928-28.453-9.201-56.906-6.808-85.359 1.151-13.896 3.424-27.782 6.808-41.678l142.335 62.062 138.831-62.062c3.374 13.886 5.647 27.782 6.798 41.668 2.393 28.453.13 56.916-6.798 85.369z" fill="#655e66"/><path d="m403.387 419.127c-42.559 26.271-95.28 54.253-147.391 69.991-52.1-15.738-104.821-43.711-147.381-69.981 1.151-13.896 3.424-27.782 6.808-41.678l142.335 62.062 138.831-62.062c3.374 13.886 5.647 27.782 6.798 41.668z" fill="#535057"/><path d="m164.356 504.5h-48.936c-10.312-42.339-10.312-84.688 0-127.037l44.912 19.583c-6.047 35.821-4.696 71.642 4.024 107.454z" fill="#535057"/><path d="m255.998 464.791c94.11-28.425 190.243-96.783 224.86-122.931 7.76-5.861 10.007-16.542 5.258-25.028l-6.451-11.529c-5.357-9.573-17.559-12.827-26.97-7.191-41.218 24.683-146.16 86.263-196.697 104.307-50.537-18.043-155.479-79.624-196.697-104.307-9.411-5.636-21.613-2.382-26.97 7.191l-6.451 11.529c-4.749 8.486-2.501 19.167 5.258 25.028 34.617 26.148 130.75 94.506 224.86 122.931z" fill="#da4a54"/><path d="m25.838 318.391c33.12 25.02 150.24 110.17 242.73 142.37-4.19 1.42-8.38 2.77-12.57 4.03-94.11-28.42-190.24-96.78-224.86-122.93-7.42-5.6-9.8-15.62-5.85-23.91.18.16.36.3.55.44z" fill="#d82e3d"/><path d="m379.16 112.142c-1.647 16.65-15.498 29.427-32.225 29.95-61.289 1.905-122.571 1.905-183.86 0-16.727-.523-30.578-13.3-32.225-29.95-.935-9.434-.935-18.876 0-28.31.167-1.668.454-3.294.851-4.871h246.607c.398 1.577.684 3.203.851 4.871.936 9.434.936 18.875.001 28.31z" fill="#f9f6f9"/><path d="m193.59 142.88c-10.174-.209-20.341-.475-30.515-.789-16.727-.523-30.578-13.3-32.225-29.95-.935-9.434-.935-18.876 0-28.31.167-1.668.454-3.294.851-4.871h43.271c-.426 1.689-.733 3.433-.914 5.227-.998 10.118-.998 20.251 0 30.369 1.243 12.505 8.898 22.979 19.532 28.324z" fill="#e2dfe2"/><g><path d="m433.131 55.105c-2.363 23.888-22.236 42.219-46.234 42.97-87.932 2.733-175.854 2.733-263.786 0-23.998-.751-43.871-19.082-46.234-42.97-1.342-13.536-1.342-27.081 0-40.617.24-2.393.651-4.725 1.221-6.988h353.81c.571 2.263.981 4.595 1.221 6.988 1.344 13.536 1.344 27.082.002 40.617z" fill="#655e66"/><path d="m166.893 99.206c-14.597-.3-29.184-.681-43.781-1.131-23.998-.751-43.871-19.082-46.234-42.97-1.342-13.536-1.342-27.081 0-40.617.24-2.393.651-4.725 1.221-6.988h62.082c-.611 2.423-1.051 4.926-1.312 7.499-1.432 14.517-1.432 29.054 0 43.571 1.784 17.94 12.766 32.967 28.024 40.636z" fill="#535057"/><g><g><path d="m325.472 71.98c-4.663.171-9.326.171-13.99 0-8.131-.298-14.707-6.874-15.005-15.005-.171-4.663-.171-9.327 0-13.99.298-8.131 6.874-14.707 15.005-15.005 4.566-.168 9.133-.171 13.699-.01 8.353.294 15.012 6.953 15.306 15.306.161 4.566.157 9.133-.01 13.699-.299 8.131-6.875 14.707-15.005 15.005z" fill="#ffef4a"/><path d="m389.907 71.98c-4.663.171-9.326.171-13.99 0-8.131-.298-14.707-6.874-15.005-15.005-.171-4.663-.171-9.327 0-13.99.298-8.131 6.874-14.707 15.005-15.005 4.566-.168 9.133-.171 13.699-.01 8.353.294 15.012 6.953 15.306 15.306.161 4.566.157 9.133-.01 13.699-.298 8.131-6.874 14.707-15.005 15.005z" fill="#78d0b1"/></g><g><path d="m324.631 71.983c.14 0 .28.01.421.01-4.525.16-9.05.15-13.566-.01-8.13-.3-14.707-6.878-15.007-15.007-.17-4.665-.17-9.331 0-13.996.3-8.129 6.878-14.707 15.007-14.997 4.525-.17 9.06-.17 13.586-.01-.15 0-.29 0-.441.01-8.129.29-14.707 6.868-14.997 14.997-.18 4.666-.18 9.331 0 13.996.29 8.129 6.868 14.706 14.997 15.007z" fill="#ffd321"/><path d="m389.066 71.983c.14 0 .28.01.42.01-4.525.16-9.041.15-13.566-.01-8.129-.3-14.707-6.878-15.007-15.007-.17-4.665-.17-9.331 0-13.996.3-8.129 6.878-14.707 15.007-14.997 4.525-.17 9.061-.17 13.586-.01-.15 0-.29 0-.44.01-8.13.29-14.707 6.868-14.997 14.997-.17 4.666-.17 9.331 0 13.996.29 8.129 6.867 14.706 14.997 15.007z" fill="#66b49d"/></g></g></g><g fill="#f9f6f9"><path d="m118.296 194.064-1.244 2.154c-4.387 7.598-13.908 10.503-21.789 6.646l-24.241-11.863c-8.683-4.249-11.951-14.963-7.117-23.335l3.091-5.353c4.833-8.372 15.746-10.899 23.768-5.504l22.394 15.062c7.279 4.897 9.525 14.595 5.138 22.193z"/><path d="m96.275 248.732v2.488c0 8.774-6.794 16.05-15.547 16.65l-26.925 1.847c-9.644.662-17.831-6.983-17.831-16.65v-6.182c0-9.667 8.187-17.312 17.831-16.65l26.925 1.847c8.753.6 15.547 7.876 15.547 16.65z"/><path d="m415.729 251.22v-2.488c0-8.774 6.794-16.05 15.547-16.65l26.925-1.847c9.644-.662 17.831 6.983 17.831 16.65v6.182c0 9.667-8.187 17.312-17.831 16.65l-26.925-1.847c-8.753-.6-15.547-7.876-15.547-16.65z"/><path d="m394.952 196.219-1.244-2.154c-4.387-7.598-2.141-17.296 5.139-22.193l22.394-15.062c8.021-5.395 18.934-2.868 23.768 5.504l3.091 5.353c4.833 8.372 1.566 19.086-7.117 23.335l-24.241 11.863c-7.882 3.856-17.403.952-21.79-6.646z"/></g></g><g><path d="m492.664 313.168-6.452-11.534c-3.59-6.411-9.478-10.984-16.577-12.876-7.099-1.893-14.482-.857-20.791 2.917-41.469 24.839-142.204 83.919-192.846 102.761-50.643-18.842-151.377-77.922-192.85-102.763-6.305-3.773-13.688-4.809-20.787-2.916s-12.986 6.465-16.579 12.88l-6.45 11.53c-6.542 11.693-3.41 26.601 7.285 34.676 15.53 11.732 42.863 31.529 76.675 52.48-5.328 35.179-3.714 70.794 4.844 105.945.818 3.361 3.828 5.726 7.287 5.726h281.166c3.459 0 6.47-2.366 7.288-5.728 8.547-35.146 10.159-70.753 4.838-105.922 33.422-20.718 60.637-40.396 76.663-52.501 10.695-8.074 13.828-22.982 7.286-34.675zm-16.327 22.707c-106.122 80.159-187.999 111.051-220.342 121.073-24.621-7.594-51.314-18.561-79.379-32.614-3.704-1.856-8.21-.356-10.064 3.348-1.855 3.704-.356 8.209 3.348 10.064 29.655 14.85 57.894 26.365 83.931 34.224.707.213 1.437.32 2.167.32s1.461-.107 2.168-.32c47.802-14.436 95.925-38.889 136.589-63.136 3.701 29.29 2.327 58.87-4.126 88.162h-269.247c-6.462-29.297-7.837-58.886-4.131-88.187 8.424 5.022 17.166 10.056 26.171 15.011 3.63 1.998 8.19.673 10.187-2.955 1.997-3.629.674-8.189-2.955-10.187-51.171-28.158-94.012-58.953-114.996-74.805-4.746-3.583-6.136-10.196-3.234-15.383l6.448-11.527c1.593-2.844 4.205-4.873 7.354-5.713 3.149-.838 6.424-.38 9.219 1.292 42.551 25.487 147.028 86.733 198.033 104.939 1.631.582 3.412.582 5.043 0 51.005-18.206 155.481-79.452 198.029-104.938 2.798-1.675 6.073-2.132 9.222-1.294 3.149.84 5.76 2.869 7.352 5.709l6.45 11.531c2.901 5.189 1.51 11.802-3.237 15.386z"/><path d="m122.836 105.569c.125 2.437.309 4.879.551 7.309 2 20.281 18.962 36.065 39.459 36.715 6.584.204 13.183.376 19.785.536-1.26 42.657-1.529 85.997-.772 128.965.209 11.73 4.443 23.168 11.926 32.213 11.395 13.742 22.771 27.83 33.772 41.455l7.547 9.342c5.123 6.339 12.737 9.976 20.891 9.979h.009c8.155 0 15.774-3.635 20.907-9.979l7.029-8.706c11.165-13.833 22.709-28.138 34.269-42.089 7.489-9.024 11.728-20.465 11.938-32.216.342-19.231.48-38.597.411-57.561-.015-4.133-3.37-7.473-7.5-7.473-.009 0-.019 0-.028 0-4.142.015-7.488 3.385-7.473 7.527.069 18.857-.069 38.115-.409 57.239-.148 8.357-3.161 16.492-8.486 22.908-11.625 14.03-23.201 28.373-34.396 42.243l-7.02 8.695c-2.268 2.803-5.637 4.41-9.244 4.41-.001 0-.003 0-.004 0-3.603-.001-6.967-1.607-9.23-4.408l-7.542-9.336c-11.032-13.662-22.439-27.789-33.891-41.599-5.319-6.43-8.331-14.567-8.48-22.912-.754-42.774-.485-85.92.771-128.384 19.092.367 38.23.573 57.376.573 19.814 0 39.623-.218 59.382-.611.409 13.744.719 27.589.913 41.271.058 4.106 3.404 7.394 7.497 7.394.036 0 .072 0 .108-.001 4.142-.058 7.452-3.463 7.393-7.605-.194-13.721-.505-27.605-.914-41.389 5.934-.148 11.867-.299 17.787-.482 20.492-.65 37.453-16.434 39.453-36.707.243-2.435.427-4.879.552-7.317 27.742-.889 50.705-22.258 53.421-49.726 1.384-13.966 1.384-28.129-.001-42.104-.274-2.731-.749-5.448-1.412-8.074-.839-3.33-3.835-5.664-7.271-5.664h-353.81c-3.436 0-6.432 2.334-7.272 5.666-.663 2.626-1.138 5.342-1.413 8.083-1.385 13.966-1.385 28.13 0 42.095 2.716 27.466 25.678 48.835 53.421 49.725zm223.863 29.031c-60.845 1.889-122.545 1.888-183.383 0-12.99-.412-23.738-10.384-25.002-23.204-.179-1.793-.313-3.592-.421-5.388 38.894 1.069 78.002 1.607 117.112 1.607 39.109 0 78.218-.538 117.113-1.607-.108 1.798-.243 3.599-.422 5.396-1.264 12.812-12.012 22.784-24.997 23.196zm-262.358-119.363c.008-.079.016-.158.024-.237h341.279c.008.076.016.152.023.228 1.287 12.985 1.287 26.152 0 39.137v.001c-1.979 20.011-18.747 35.578-39.003 36.211-87.363 2.716-175.956 2.716-263.318 0-20.257-.633-37.025-16.201-39.004-36.213-1.287-12.984-1.287-26.151-.001-39.127z"/><path d="m311.207 79.475c2.412.088 4.841.132 7.27.132s4.858-.044 7.27-.132c12.022-.441 21.784-10.204 22.225-22.224.173-4.722.177-9.513.011-14.239-.43-12.209-10.33-22.108-22.538-22.538-4.724-.166-9.515-.163-14.238.011-12.022.441-21.784 10.204-22.225 22.225-.177 4.824-.177 9.716 0 14.54.441 12.021 10.204 21.784 22.225 22.225zm-7.235-36.215c.154-4.211 3.574-7.63 7.785-7.785 2.229-.082 4.474-.123 6.718-.123 2.153 0 4.305.038 6.443.113 4.446.156 7.917 3.627 8.073 8.074.154 4.368.15 8.796-.01 13.161-.154 4.21-3.573 7.63-7.784 7.784-4.458.164-8.98.164-13.44 0-4.211-.154-7.63-3.574-7.785-7.785-.163-4.458-.163-8.98 0-13.439z"/><path d="m375.643 79.475c2.412.088 4.841.132 7.27.132s4.857-.044 7.27-.132c12.021-.441 21.784-10.204 22.225-22.225.173-4.724.177-9.514.011-14.237-.429-12.209-10.329-22.109-22.538-22.538-4.724-.166-9.514-.163-14.238.011-12.022.441-21.784 10.204-22.225 22.225-.177 4.824-.177 9.716 0 14.54.44 12.02 10.203 21.783 22.225 22.224zm-7.235-36.215c.154-4.21 3.573-7.63 7.784-7.784 2.229-.082 4.474-.123 6.718-.123 2.153 0 4.305.038 6.443.113 4.446.156 7.917 3.627 8.073 8.074.154 4.366.15 8.794-.01 13.161-.154 4.211-3.574 7.63-7.785 7.785-4.459.164-8.981.164-13.44 0-4.211-.154-7.63-3.574-7.784-7.785-.163-4.46-.163-8.981.001-13.441z"/><path d="m67.725 197.738 24.242 11.863c3.39 1.659 7 2.447 10.568 2.447 8.405 0 16.567-4.38 21.014-12.081l1.244-2.154c6.333-10.969 3.061-25.098-7.449-32.167l-22.394-15.062c-5.542-3.727-12.451-5.001-18.957-3.494-6.506 1.506-12.152 5.688-15.492 11.471l-3.091 5.354c-3.339 5.783-4.137 12.764-2.188 19.151s6.505 11.737 12.503 14.672zm2.674-26.321 3.091-5.354c1.287-2.229 3.377-3.777 5.885-4.358.7-.162 1.404-.242 2.102-.242 1.801 0 3.56.534 5.1 1.569l22.394 15.062c3.992 2.686 5.235 8.053 2.83 12.22l-1.243 2.154c-2.406 4.167-7.676 5.774-11.998 3.659l-24.241-11.863c-2.313-1.131-4-3.11-4.75-5.573s-.457-5.045.83-7.274z"/><path d="m36.151 270.747c4.481 4.184 10.427 6.509 16.527 6.509.544 0 1.092-.019 1.638-.056l26.925-1.847c12.636-.867 22.534-11.467 22.534-24.133v-2.487c0-12.666-9.898-23.266-22.534-24.133l-26.925-1.847c-6.656-.458-13.283 1.895-18.164 6.453s-7.68 11.001-7.68 17.68v6.182c-.001 6.677 2.799 13.121 7.679 17.679zm7.32-23.862c0-2.574 1.036-4.959 2.917-6.716 1.723-1.608 3.921-2.474 6.251-2.474.215 0 .432.007.649.022l26.925 1.847c4.8.33 8.561 4.356 8.561 9.168v2.487c0 4.812-3.76 8.838-8.561 9.168l-26.924 1.847c-2.568.171-5.02-.694-6.901-2.452-1.881-1.757-2.917-4.142-2.917-6.716z"/><path d="m430.763 224.6c-12.636.867-22.534 11.467-22.534 24.133v2.487c0 12.666 9.898 23.266 22.534 24.133l26.925 1.847c.547.038 1.093.056 1.638.056 6.099 0 12.046-2.325 16.526-6.509 4.881-4.558 7.68-11.002 7.68-17.68v-6.182c0-6.678-2.799-13.122-7.68-17.68s-11.507-6.916-18.165-6.453zm28.601 13.095c2.33 0 4.529.866 6.251 2.474 1.881 1.757 2.917 4.142 2.917 6.716v6.182c0 2.574-1.036 4.959-2.917 6.716-1.882 1.757-4.334 2.633-6.901 2.452l-26.925-1.847c-4.8-.33-8.561-4.356-8.561-9.168v-2.487c0-4.812 3.76-8.838 8.561-9.168l26.925-1.847c.218-.015.434-.023.65-.023z"/><path d="m417.056 150.586-22.395 15.062c-10.509 7.069-13.781 21.198-7.448 32.167l1.244 2.154c4.446 7.7 12.607 12.08 21.012 12.079 3.567 0 7.179-.789 10.568-2.448l24.241-11.863c5.999-2.936 10.557-8.283 12.505-14.67s1.151-13.368-2.188-19.151l-3.091-5.354c-3.339-5.784-8.986-9.965-15.492-11.471-6.506-1.507-13.416-.233-18.956 3.495zm21.458 15.477 3.091 5.354c1.287 2.229 1.583 4.813.832 7.275s-2.438 4.441-4.751 5.573l-24.241 11.863c-4.324 2.115-9.592.508-11.998-3.659 0 0 0 0 0-.001l-1.244-2.153c-2.405-4.167-1.163-9.535 2.83-12.22l22.395-15.062c1.54-1.035 3.298-1.569 5.1-1.569.698 0 1.402.08 2.102.242 2.506.58 4.597 2.127 5.884 4.357z"/></g></g></svg>