<svg id="Capa_1" enable-background="new 0 0 511.989 511.989" height="512" viewBox="0 0 511.989 511.989" width="512" xmlns="http://www.w3.org/2000/svg"><g><g><path d="m252.801 504.485c-18.026 0-35.354-5.363-50.191-15.548-14.796-10.156-26.05-24.337-32.547-41.011-1.813-4.653-6.166-7.66-11.09-7.66-13.566 0-24.563-10.997-24.563-24.563s10.997-24.563 24.563-24.563c12.366 0 24.293 3.703 34.492 10.709 10.155 6.976 17.892 16.742 22.372 28.242 5.977 15.34 21.041 25.478 37.545 25.264 20.532-.286 38.794-18.547 39.079-39.08.214-15.397-8.217-29.23-22.003-36.1-12.683-6.321-23.331-16.023-30.792-28.059-7.471-12.052-11.421-25.915-11.421-40.09v-43.368c0-13.566 10.997-24.563 24.563-24.563s24.563 10.997 24.563 24.563v43.368c0 10.304 5.747 19.57 14.999 24.18 14.736 7.344 27.131 18.623 35.845 32.617 8.982 14.426 13.604 31.071 13.367 48.136-.318 22.848-9.655 44.592-26.29 61.228-16.636 16.635-38.38 25.972-61.227 26.29-.421.005-.844.008-1.264.008z" fill="#f9f6f9"/><g fill="#e2dfe2"><path d="m270.459 380.175c13.786 6.87 22.217 20.703 22.003 36.1-.243 17.433-13.446 33.223-29.993 37.769 3.413.901 6.977 1.358 10.611 1.311 20.532-.286 38.794-18.547 39.079-39.08.214-15.397-8.217-29.23-22.003-36.1-12.683-6.321-23.331-16.023-30.792-28.059-7.471-12.051-11.421-25.915-11.421-40.09v-43.368c0-10.062 6.053-18.706 14.714-22.502-3.016-1.322-6.345-2.06-9.849-2.06-13.566 0-24.563 10.997-24.563 24.563v43.368c0 14.176 3.949 28.039 11.421 40.09 7.463 12.035 18.11 21.737 30.793 28.058z"/><path d="m222.306 488.937c-14.796-10.156-26.05-24.338-32.547-41.011-1.813-4.653-6.166-7.66-11.09-7.66-13.566 0-24.563-10.998-24.563-24.563 0-10.906 7.11-20.147 16.946-23.353-3.948-.796-7.989-1.21-12.08-1.21-13.566 0-24.563 10.997-24.563 24.563 0 13.565 10.997 24.563 24.563 24.563 4.924 0 9.277 3.007 11.09 7.66 6.496 16.674 17.751 30.856 32.547 41.011 14.838 10.185 32.165 15.548 50.191 15.548.421 0 .843-.003 1.265-.009 2.86-.04 5.703-.221 8.52-.54-14.433-1.601-28.183-6.697-40.279-14.999z"/></g><path d="m377.516 124.441c-3.7-155.936-237.414-155.936-241.114 0-.042 1.783-.064 3.572-.064 5.365 0 75.908 38.117 142.912 96.255 182.919 14.662 10.089 34.071 10.089 48.732 0 58.137-40.008 96.255-107.011 96.255-182.919-.001-1.794-.022-3.582-.064-5.365z" fill="#e27d47"/><path d="m209.045 294.054 139.067-53.699c-16.588 28.827-39.478 53.588-66.787 72.371-14.666 10.094-34.076 10.094-48.733 0-8.274-5.695-16.143-11.926-23.547-18.672z" fill="#655e66"/><path d="m377.576 129.114-224.02 86.511c-11.096-26.399-17.215-55.388-17.215-85.813 0-1.8.02-3.591.061-5.371.02-.698.04-1.386.061-2.074l208.029-80.341c19.349 19.35 32.185 46.821 33.024 82.414.029 1.548.05 3.106.06 4.674z" fill="#655e66"/><circle cx="256.959" cy="127.272" fill="#f9f6f9" r="62.444"/></g><path d="m295.719 329.496c-4.615-2.299-8.045-6.216-9.71-10.897 62.039-42.904 99.065-113.435 99.065-188.791 0-1.856-.021-3.691-.062-5.547-.737-31.124-10.044-57.775-27.662-79.213-15.701-19.107-37.381-32.925-62.695-39.96-26.388-7.333-55.189-6.722-81.097 1.722-27.817 9.067-50.372 26.221-65.226 49.608-2.221 3.497-1.187 8.131 2.31 10.352s8.131 1.186 10.352-2.31c12.963-20.411 32.747-35.414 57.212-43.388 23.132-7.541 48.856-8.084 72.432-1.532 15.197 4.224 28.544 10.988 39.749 19.893l-53.705 20.745c-6.26-1.844-12.875-2.851-19.724-2.851-25.228 0-47.375 13.429-59.68 33.511l-52.403 20.239c.897-7.375 2.387-14.457 4.456-21.169 1.221-3.958-.999-8.156-4.957-9.377-3.956-1.222-8.156.999-9.377 4.957-3.715 12.046-5.764 25.091-6.09 38.74-.049 1.755-.073 3.58-.073 5.58 0 72.409 34.207 140.356 91.935 183.629.254 15.081 4.561 29.793 12.521 42.634 8.201 13.226 19.9 23.883 33.828 30.819 11.179 5.573 18.017 16.795 17.847 29.282-.231 16.355-15.337 31.454-31.691 31.676-13.368.195-25.605-8.05-30.452-20.473-5.031-12.914-13.714-23.879-25.114-31.711-11.464-7.867-24.862-12.026-38.744-12.026-17.673 0-32.05 14.382-32.05 32.06s14.377 32.06 32.05 32.06c1.841 0 3.417 1.107 4.111 2.891 7.039 18.08 19.245 33.456 35.293 44.461 16.08 11.042 34.903 16.877 54.436 16.877l1.26-.01c.035 0 .07 0 .104-.001 19.394-.27 38.092-6.488 54.074-17.98 3.363-2.418 4.129-7.105 1.711-10.468-2.417-3.363-7.104-4.128-10.468-1.711-13.477 9.691-29.219 14.933-45.526 15.16l-1.155.009c-16.487 0-32.375-4.925-45.948-14.245-13.556-9.297-23.862-22.277-29.803-37.536-2.944-7.563-10.044-12.449-18.089-12.449-9.401 0-17.05-7.653-17.05-17.06s7.649-17.06 17.05-17.06c10.839 0 21.301 3.249 30.253 9.392 8.907 6.119 15.694 14.691 19.629 24.794 7.107 18.22 25.018 30.264 44.629 30.024 24.419-.333 46.143-22.044 46.488-46.467.25-18.303-9.772-34.747-26.156-42.916-11.435-5.695-21.038-14.443-27.769-25.298-4.689-7.565-7.835-15.922-9.315-24.613 6.425 2.792 13.33 4.189 20.236 4.188 5.26 0 10.518-.819 15.567-2.439 3.137 7.554 8.911 13.835 16.5 17.616 13.491 6.731 24.841 17.059 32.821 29.862 8.229 13.222 12.457 28.46 12.228 44.077-.218 16.301-5.457 32.042-15.15 45.522-2.418 3.363-1.652 8.049 1.711 10.468 1.325.953 2.855 1.411 4.372 1.411 2.332 0 4.63-1.084 6.096-3.122 11.496-15.988 17.71-34.688 17.97-54.068.271-18.489-4.74-36.544-14.494-52.217-9.45-15.158-22.886-27.383-38.861-35.354zm46.799-278.668c16.937 18.79 26.656 43.929 27.474 73.17l-44.481 17.176c.91-4.495 1.392-9.143 1.392-13.902 0-24.314-12.477-45.761-31.358-58.299zm-85.559 21.5c30.296 0 54.944 24.648 54.944 54.944s-24.647 54.944-54.944 54.944-54.944-24.648-54.944-54.944 24.647-54.944 54.944-54.944zm-113.112 55.227 45.318-17.503c-1.401 5.511-2.151 11.28-2.151 17.22 0 23.102 11.265 43.615 28.584 56.359l-57.779 22.313c-9.125-24-13.985-49.751-13.985-76.135 0-.78.005-1.525.013-2.254zm19.808 92.215 69.349-26.781c7.476 2.734 15.544 4.227 23.954 4.227 26.816 0 50.142-15.177 61.876-37.385l50.966-19.68c-1.613 33.448-11.003 65.623-26.967 94.199l-132.109 51.024c-19.83-18.815-35.742-41.12-47.069-65.604zm73.191 86.781c-4.613-3.175-9.061-6.53-13.374-10.02l105.718-40.831c-14.165 19.528-31.69 36.794-52.118 50.851-12.03 8.28-28.196 8.279-40.226 0z"/></g></svg>