<svg id="Capa_1" enable-background="new 0 0 512 512" height="512" viewBox="0 0 512 512" width="512" xmlns="http://www.w3.org/2000/svg"><g><g><path d="m89.946 117.308h332.541v50.546h-332.541z" fill="#f9f6f9"/><path d="m89.946 142.581h332.541v25.273h-332.541z" fill="#e2dfe2"/><g><path d="m90.905 197.391h-43.207v-114.394h43.207c9.93 0 17.981 8.05 17.981 17.981v78.433c0 9.93-8.051 17.98-17.981 17.98z" fill="#655e66"/><path d="m421.095 197.391h43.207v-114.394h-43.207c-9.93 0-17.981 8.05-17.981 17.981v78.433c0 9.93 8.051 17.98 17.981 17.98z" fill="#655e66"/><g fill="#535057"><path d="m403.115 143.491v35.91c0 9.94 8.05 17.99 17.98 17.99h43.21v-35.92h-43.21c-9.93 0-17.98-8.05-17.98-17.98z"/><path d="m108.885 143.491v35.91c0 9.94-8.05 17.99-17.98 17.99h-43.21v-35.92h43.21c9.93 0 17.98-8.05 17.98-17.98z"/></g></g><path d="m55.362 225.061h401.71v36.695h-401.71z" fill="#f9f6f9"/><path d="m55.362 243.408h401.71v18.348h-401.71z" fill="#e2dfe2"/><g fill="#ffef4a"><path d="m316.052 79.427-1.839-1.062c-6.485-3.744-8.964-11.871-5.672-18.597l10.125-20.69c3.627-7.411 12.771-10.2 19.917-6.075l4.569 2.638c7.145 4.125 9.302 13.44 4.698 20.286l-12.856 19.114c-4.18 6.214-12.457 8.13-18.942 4.386z"/><path d="m248.029 60.631h-2.123c-7.489 0-13.699-5.799-14.211-13.27l-1.576-22.981c-.565-8.231 5.96-15.219 14.211-15.219h5.276c8.251 0 14.776 6.988 14.211 15.219l-1.576 22.981c-.513 7.472-6.723 13.27-14.212 13.27z"/><path d="m179.723 78.365-1.839 1.062c-6.485 3.744-14.763 1.828-18.942-4.386l-12.856-19.114c-4.605-6.846-2.448-16.161 4.698-20.286l4.569-2.638c7.145-4.125 16.29-1.336 19.917 6.075l10.125 20.69c3.292 6.726.813 14.853-5.672 18.597z"/></g><path d="m491.54 502.835h-471.08c-17.28-138.83-17.28-292.66 0-431.5 22.1-2.15 44.19-3.99 66.29-5.53-8.57 72.15-7.42 159.3 3.45 231.44 110.53 8.88 221.07 8.88 331.6 0 10.87-72.14 12.02-159.29 3.45-231.44 22.1 1.54 44.19 3.38 66.29 5.53 17.28 138.841 17.28 292.671 0 431.5z" fill="#9dc6fb"/><path d="m48.08 502.835h-27.62c-17.28-138.83-17.28-292.66 0-431.5 9.32-.91 18.63-1.76 27.94-2.55-16 139.981-16.11 293.891-.32 434.05z" fill="#80b4fb"/><path d="m275.67 215.475c0-20.771-11.19-39.93-29.281-50.135l-9.627-5.43v55.566h-13.174c-7.876 0-14.261 6.385-14.261 14.261v27.346c0 7.876 6.385 14.261 14.261 14.261h65.256c7.876 0 14.261-6.385 14.261-14.261v-27.346c0-7.876-6.385-14.261-14.261-14.261h-13.174z" fill="#da4a54"/><path d="m303.109 236.822v20.26c0 7.87-6.39 14.26-14.26 14.26h-65.26c-7.88 0-14.26-6.39-14.26-14.26v-20.26c0 7.88 6.38 14.26 14.26 14.26h65.26c7.87 0 14.26-6.38 14.26-14.26z" fill="#d82e3d"/><g><g><path d="m102.662 387.061c-4.658.171-9.316.171-13.973 0-8.121-.298-14.689-6.866-14.987-14.987-.171-4.658-.171-9.316 0-13.974.298-8.121 6.866-14.689 14.987-14.987 4.561-.167 9.122-.171 13.683-.01 8.343.293 14.995 6.945 15.288 15.288.16 4.561.157 9.122-.01 13.683-.299 8.121-6.867 14.689-14.988 14.987z" fill="#ffef4a"/><path d="m167.023 387.061c-4.658.171-9.316.171-13.973 0-8.121-.298-14.689-6.866-14.987-14.987-.171-4.658-.171-9.316 0-13.974.298-8.121 6.866-14.689 14.987-14.987 4.561-.167 9.122-.171 13.683-.01 8.343.293 14.995 6.945 15.288 15.288.16 4.561.157 9.122-.01 13.683-.299 8.121-6.867 14.689-14.988 14.987z" fill="#da4a54"/></g><g><path d="m101.822 387.064c.14 0 .28.01.42.01-4.52.16-9.04.15-13.55-.01-8.12-.3-14.69-6.87-14.99-14.99-.17-4.66-.17-9.32 0-13.98.3-8.12 6.87-14.69 14.99-14.98 4.52-.17 9.05-.17 13.57-.01-.15 0-.29 0-.44.01-8.12.29-14.69 6.86-14.98 14.98-.18 4.66-.18 9.32 0 13.98.29 8.12 6.86 14.69 14.98 14.99z" fill="#ffd321"/><path d="m166.182 387.064c.14 0 .28.01.42.01-4.52.16-9.03.15-13.55-.01-8.12-.3-14.69-6.87-14.99-14.99-.17-4.66-.17-9.32 0-13.98.3-8.12 6.87-14.69 14.99-14.98 4.52-.17 9.05-.17 13.57-.01-.15 0-.29 0-.44.01-8.12.29-14.69 6.86-14.98 14.98-.17 4.66-.17 9.32 0 13.98.29 8.12 6.86 14.69 14.98 14.99z" fill="#d82e3d"/></g></g><g><g><path d="m102.662 452.904c-4.658.171-9.316.171-13.973 0-8.121-.298-14.689-6.866-14.987-14.987-.171-4.658-.171-9.316 0-13.974.298-8.121 6.866-14.69 14.987-14.987 4.561-.167 9.122-.171 13.683-.01 8.343.293 14.995 6.945 15.288 15.288.16 4.561.157 9.122-.01 13.683-.299 8.121-6.867 14.689-14.988 14.987z" fill="#ffef4a"/><path d="m167.023 452.904c-4.658.171-9.316.171-13.973 0-8.121-.298-14.689-6.866-14.987-14.987-.171-4.658-.171-9.316 0-13.974.298-8.121 6.866-14.69 14.987-14.987 4.561-.167 9.122-.171 13.683-.01 8.343.293 14.995 6.945 15.288 15.288.16 4.561.157 9.122-.01 13.683-.299 8.121-6.867 14.689-14.988 14.987z" fill="#da4a54"/></g><g><path d="m101.822 452.907c.14 0 .28.01.42.01-4.52.16-9.04.15-13.55-.01-8.12-.3-14.69-6.87-14.99-14.99-.17-4.66-.17-9.32 0-13.98.3-8.12 6.87-14.69 14.99-14.98 4.52-.17 9.05-.17 13.57-.01-.15 0-.29 0-.44.01-8.12.29-14.69 6.86-14.98 14.98-.18 4.66-.18 9.32 0 13.98.29 8.12 6.86 14.69 14.98 14.99z" fill="#ffd321"/><path d="m166.182 452.907c.14 0 .28.01.42.01-4.52.16-9.03.15-13.55-.01-8.12-.3-14.69-6.87-14.99-14.99-.17-4.66-.17-9.32 0-13.98.3-8.12 6.87-14.69 14.99-14.98 4.52-.17 9.05-.17 13.57-.01-.15 0-.29 0-.44.01-8.12.29-14.69 6.86-14.98 14.98-.17 4.66-.17 9.32 0 13.98.29 8.12 6.86 14.69 14.98 14.99z" fill="#d82e3d"/></g></g><g fill="#535057"><path d="m258.079 448.442c-9.183 0-16.627-7.444-16.627-16.627v-61.188c0-9.183 7.444-16.627 16.627-16.627 9.183 0 16.627 7.444 16.627 16.627v61.188c.001 9.182-7.444 16.627-16.627 16.627z"/><path d="m315.554 448.442c-9.183 0-16.627-7.444-16.627-16.627v-61.188c0-9.183 7.444-16.627 16.627-16.627 9.183 0 16.627 7.444 16.627 16.627v61.188c0 9.182-7.444 16.627-16.627 16.627z"/><path d="m373.028 448.442c-9.183 0-16.627-7.444-16.627-16.627v-61.188c0-9.183 7.444-16.627 16.627-16.627 9.183 0 16.627 7.444 16.627 16.627v61.188c0 9.182-7.444 16.627-16.627 16.627z"/><path d="m430.503 448.442c-9.183 0-16.627-7.444-16.627-16.627v-61.188c0-9.183 7.444-16.627 16.627-16.627 9.183 0 16.627 7.444 16.627 16.627v61.188c0 9.182-7.444 16.627-16.627 16.627z"/></g></g><g><path d="m310.465 84.885 1.839 1.061c3.394 1.96 7.125 2.897 10.818 2.897 7.033 0 13.928-3.397 18.093-9.591l12.855-19.112c3.349-4.98 4.493-11.191 3.14-17.038-1.354-5.848-5.113-10.923-10.311-13.925l-4.569-2.637c-5.198-3.002-11.474-3.719-17.213-1.967-5.741 1.751-10.547 5.848-13.185 11.239l-10.126 20.688c-5.002 10.225-1.199 22.694 8.659 28.385zm4.813-21.793 10.126-20.688c.83-1.696 2.282-2.934 4.088-3.485.655-.2 1.321-.298 1.983-.298 1.164 0 2.313.306 3.356.909l4.569 2.637c1.636.945 2.772 2.479 3.199 4.32.426 1.84.08 3.717-.974 5.284l-12.855 19.112c-1.969 2.928-5.908 3.842-8.966 2.076l-1.839-1.061c-3.059-1.767-4.238-5.635-2.687-8.806z"/><path d="m224.228 47.904c.778 11.357 10.305 20.254 21.69 20.254h2.123c11.385 0 20.912-8.897 21.69-20.253l1.576-22.977c.411-5.988-1.702-11.939-5.798-16.326-4.097-4.388-9.889-6.904-15.892-6.904h-5.275c-6.002 0-11.795 2.516-15.891 6.903-4.097 4.387-6.211 10.337-5.8 16.326zm15.184-29.067c1.29-1.381 3.041-2.141 4.93-2.141h5.275c1.889 0 3.64.761 4.93 2.141 1.289 1.381 1.927 3.179 1.798 5.064l-1.576 22.978c-.241 3.522-3.197 6.281-6.728 6.281h-2.123c-3.531 0-6.486-2.759-6.728-6.282l-1.577-22.977c-.128-1.885.51-3.683 1.799-5.064z"/><path d="m152.743 79.252c4.167 6.194 11.061 9.59 18.094 9.59 3.693 0 7.424-.936 10.818-2.896l1.839-1.061c9.858-5.691 13.661-18.16 8.658-28.386l-10.124-20.686c-2.638-5.391-7.444-9.488-13.185-11.24-5.742-1.751-12.017-1.034-17.215 1.967l-4.568 2.637c-5.198 3.001-8.957 8.076-10.311 13.924-1.353 5.847-.209 12.058 3.14 17.038zm-1.383-32.766c.427-1.841 1.562-3.375 3.199-4.32l4.568-2.637c1.044-.602 2.192-.909 3.357-.909.662 0 1.328.099 1.983.298 1.806.551 3.258 1.789 4.089 3.486l10.124 20.686c1.553 3.172.373 7.04-2.685 8.805l-1.839 1.062c-3.057 1.765-6.997.853-8.967-2.076l-12.855-19.111c-1.054-1.567-1.4-3.444-.974-5.284z"/><path d="m498.958 70.438c-.434-3.482-3.223-6.198-6.715-6.538-21.953-2.135-44.322-4.001-66.486-5.546-2.227-.157-4.41.691-5.951 2.309s-2.28 3.838-2.016 6.057c.35 2.946.677 5.921.994 8.909-12.977 1.163-23.184 12.093-23.184 25.368v8.832h-37.605c-4.142 0-7.499 3.357-7.499 7.499s3.357 7.499 7.499 7.499h37.605v35.545h-142.948c-.845-.53-1.692-1.058-2.566-1.551l-9.626-5.429c-2.322-1.31-5.163-1.288-7.466.056-2.302 1.345-3.717 3.81-3.717 6.476v.449h-112.857v-35.545h211.6c4.142 0 7.499-3.357 7.499-7.499s-3.357-7.499-7.499-7.499h-211.6v-8.832c0-13.275-10.207-24.205-23.184-25.368.317-2.988.645-5.964.994-8.909.264-2.218-.476-4.439-2.016-6.057-1.542-1.618-3.721-2.467-5.951-2.309-22.164 1.545-44.533 3.411-66.486 5.546-3.492.34-6.281 3.056-6.715 6.537-14.425 115.875-16.957 240.832-7.323 361.363.33 4.128 3.936 7.207 8.073 6.877 4.128-.33 7.208-3.944 6.878-8.073-9.39-117.467-7.13-239.154 6.524-352.352 16.918-1.602 34.05-3.042 51.11-4.295-7.613 71.671-5.99 154.82 4.494 224.401.518 3.445 3.342 6.078 6.814 6.357 110.4 8.869 222.353 8.869 332.754 0 3.472-.279 6.296-2.913 6.814-6.357 10.485-69.581 12.108-152.73 4.494-224.401 17.06 1.253 34.192 2.692 51.11 4.295 16.241 134.726 16.265 282.296.073 417.051h-457.736c-1.4-11.65-2.679-23.415-3.813-35.061-.4-4.122-4.067-7.139-8.19-6.737-4.121.401-7.139 4.068-6.737 8.19 1.36 13.974 2.928 28.116 4.661 42.034.468 3.754 3.658 6.572 7.441 6.572h471.013c3.784 0 6.975-2.818 7.441-6.573 17.39-139.7 17.39-293.579.001-433.291zm-88.359 30.56c0-5.489 4.244-9.997 9.621-10.435 2.76 31.951 3.733 65.78 2.951 99.342h-2.094c-5.777 0-10.478-4.705-10.478-10.488zm10.478 103.905h1.628c-.165 4.234-.359 8.458-.58 12.668h-115.247c-3.915-5.781-10.535-9.589-18.028-9.589h-6.108c-1.397-11.998-6.129-23.261-13.451-32.612h126.31v4.047c0 14.053 11.428 25.486 25.476 25.486zm-110.47 27.666h110.606c-.504 7.296-1.092 14.532-1.767 21.687h-108.839zm-66.332-59.769c14.79 9.064 23.904 25.253 23.904 42.681 0 4.141 3.357 7.499 7.499 7.499h13.172c3.727 0 6.76 3.032 6.76 6.759v27.342c0 3.727-3.033 6.759-6.76 6.759h-65.246c-3.727 0-6.76-3.032-6.76-6.759v-27.342c0-3.727 3.033-6.759 6.76-6.759h13.172c4.142 0 7.499-3.357 7.499-7.499zm-14.998 2.57v32.612h-5.673c-7.493 0-14.113 3.808-18.028 9.589h-115.68c-.221-4.211-.415-8.434-.58-12.668h1.628c14.048 0 25.476-11.433 25.476-25.486v-4.047zm-27.431 78.886h-109.272c-.674-7.155-1.263-14.391-1.767-21.687h111.038v21.687zm-100.424-153.258v78.419c0 5.783-4.701 10.488-10.478 10.488h-2.094c-.782-33.563.191-67.392 2.951-99.342 5.377.438 9.621 4.946 9.621 10.435zm-4.634 189.239c-.975-6.876-1.861-13.881-2.664-20.984h111.455c3.915 5.779 10.534 9.585 18.025 9.585h65.246c7.491 0 14.11-3.806 18.025-9.585h111.022c-.803 7.103-1.689 14.107-2.664 20.984-105.683 8.179-212.763 8.179-318.445 0z"/><path d="m125.173 372.332c.173-4.727.177-9.512.01-14.219-.428-12.197-10.318-22.088-22.516-22.517-4.717-.165-9.501-.161-14.22.011-12.01.441-21.764 10.195-22.204 22.205-.177 4.818-.177 9.703 0 14.521.44 12.01 10.194 21.764 22.204 22.204 2.409.088 4.835.132 7.261.132s4.852-.044 7.262-.132h-.001c12.01-.441 21.764-10.194 22.204-22.205zm-14.988-.55c-.154 4.201-3.565 7.612-7.766 7.766-.001 0-.001 0-.001 0-4.452.164-8.967.164-13.422 0-4.201-.154-7.611-3.565-7.766-7.766-.163-4.453-.163-8.969 0-13.422.154-4.201 3.565-7.612 7.766-7.766 2.226-.082 4.468-.123 6.711-.123 2.149 0 4.298.038 6.433.113 4.436.156 7.898 3.619 8.055 8.056.153 4.352.15 8.773-.01 13.142z"/><path d="m189.525 372.332c.173-4.713.176-9.497.01-14.219-.428-12.197-10.319-22.088-22.516-22.517-4.718-.165-9.502-.161-14.22.011-12.01.441-21.764 10.195-22.204 22.205-.177 4.818-.177 9.703 0 14.521.44 12.01 10.194 21.764 22.204 22.204 2.409.088 4.835.132 7.261.132s4.852-.044 7.261-.132h-.001c12.01-.441 21.763-10.194 22.205-22.205zm-14.988-.551c-.154 4.202-3.566 7.613-7.766 7.767-.001 0-.001 0-.001 0-4.452.164-8.967.164-13.421 0-4.201-.154-7.611-3.565-7.765-7.766-.163-4.453-.163-8.969 0-13.422.154-4.201 3.565-7.612 7.765-7.766 2.226-.082 4.468-.123 6.71-.123 2.149 0 4.298.038 6.433.113 4.437.156 7.899 3.619 8.055 8.055.153 4.365.15 8.787-.01 13.142z"/><path d="m66.243 438.166c.44 12.01 10.194 21.764 22.204 22.205 2.409.088 4.835.132 7.261.132s4.852-.044 7.262-.132c12.01-.441 21.764-10.195 22.204-22.205.173-4.727.177-9.511.01-14.219-.428-12.197-10.318-22.088-22.515-22.517-4.719-.166-9.503-.163-14.22.01-12.011.441-21.764 10.194-22.205 22.204-.178 4.818-.178 9.704-.001 14.522zm14.988-13.972c.154-4.201 3.565-7.612 7.766-7.766 2.225-.082 4.467-.123 6.709-.123 2.149 0 4.299.038 6.434.113 4.436.156 7.898 3.619 8.055 8.056.153 4.351.15 8.773-.01 13.142-.154 4.201-3.565 7.612-7.766 7.766-4.452.164-8.968.164-13.421 0-4.202-.154-7.612-3.566-7.766-7.766-.164-4.453-.164-8.969-.001-13.422z"/><path d="m130.595 438.166c.44 12.01 10.194 21.764 22.204 22.205 2.409.088 4.835.132 7.261.132s4.852-.044 7.261-.132c12.009-.441 21.763-10.194 22.205-22.205.173-4.713.176-9.497.01-14.219-.428-12.197-10.319-22.088-22.516-22.517-4.717-.166-9.502-.163-14.219.01-12.011.44-21.764 10.194-22.205 22.204-.177 4.818-.177 9.704-.001 14.522zm14.988-13.972c.154-4.201 3.565-7.612 7.766-7.766 2.225-.082 4.467-.123 6.709-.123 2.149 0 4.298.038 6.433.113 4.437.156 7.899 3.619 8.055 8.055.153 4.365.149 8.787-.01 13.142-.154 4.202-3.566 7.613-7.767 7.767-4.452.164-8.967.164-13.42 0-4.202-.154-7.612-3.565-7.766-7.766-.163-4.453-.163-8.969 0-13.422z"/><path d="m282.213 431.79v-61.179c0-13.302-10.822-24.124-24.124-24.124s-24.124 10.822-24.124 24.124v61.179c0 13.302 10.822 24.124 24.124 24.124 13.302-.001 24.124-10.823 24.124-24.124zm-33.25 0v-61.179c0-5.032 4.094-9.126 9.126-9.126 5.031 0 9.126 4.094 9.126 9.126v61.179c0 5.032-4.094 9.126-9.126 9.126-5.032-.001-9.126-4.094-9.126-9.126z"/><path d="m339.679 431.79v-61.179c0-13.302-10.822-24.124-24.124-24.124s-24.124 10.822-24.124 24.124v61.179c0 13.302 10.822 24.124 24.124 24.124 13.302-.001 24.124-10.823 24.124-24.124zm-33.249 0v-61.179c0-5.032 4.094-9.126 9.126-9.126s9.126 4.094 9.126 9.126v61.179c0 5.032-4.094 9.126-9.126 9.126-5.032-.001-9.126-4.094-9.126-9.126z"/><path d="m397.145 431.79v-61.179c0-13.302-10.822-24.124-24.124-24.124s-24.124 10.822-24.124 24.124v61.179c0 13.302 10.822 24.124 24.124 24.124s24.124-10.823 24.124-24.124zm-33.249 0v-61.179c0-5.032 4.094-9.126 9.126-9.126s9.126 4.094 9.126 9.126v61.179c0 5.032-4.094 9.126-9.126 9.126-5.032-.001-9.126-4.094-9.126-9.126z"/><path d="m454.612 431.79v-61.179c0-13.302-10.822-24.124-24.124-24.124s-24.124 10.822-24.124 24.124v61.179c0 13.302 10.822 24.124 24.124 24.124s24.124-10.823 24.124-24.124zm-33.249 0v-61.179c0-5.032 4.094-9.126 9.126-9.126s9.126 4.094 9.126 9.126v61.179c0 5.032-4.094 9.126-9.126 9.126s-9.126-4.094-9.126-9.126z"/></g></g></svg>