<svg id="Capa_1" enable-background="new 0 0 511.966 511.966" height="512" viewBox="0 0 511.966 511.966" width="512" xmlns="http://www.w3.org/2000/svg"><g><g><path d="m216.741 7.5h78.477v47.499h-78.477z" fill="#c3bec6"/><path d="m216.741 7.5h28.198v47.499h-28.198z" fill="#b4acb7"/><path d="m310.825 43.028h-109.692c-11.167 0-20.22 9.053-20.22 20.22v28.541h150.132v-28.541c.001-11.167-9.052-20.22-20.22-20.22z" fill="#655e66"/><path d="m244.939 43.028c-11.171 0-20.22 9.049-20.22 20.22v28.535h-43.806v-28.535c0-11.171 9.049-20.22 20.22-20.22z" fill="#535057"/><path d="m380.867 82.364c-83.258-9.676-166.517-9.676-249.775 0-17.624 2.048-31.289 16.36-32.553 34.057-8.256 115.589-8.256 231.177 0 346.765 1.264 17.697 14.93 32.009 32.553 34.057 83.258 9.676 166.517 9.676 249.775 0 17.624-2.048 31.289-16.36 32.553-34.057 8.256-115.589 8.256-231.177 0-346.765-1.264-17.697-14.929-32.009-32.553-34.057z" fill="#e27d47"/><path d="m135.929 476.044c.608 8.624 3.965 16.496 9.213 22.728-4.679-.472-9.367-.993-14.046-1.534-17.625-2.045-31.294-16.361-32.558-34.053-8.258-115.588-8.258-231.175 0-346.763 1.264-17.702 14.933-32.008 32.558-34.063 4.688-.55 9.367-1.061 14.055-1.534-5.258 6.232-8.605 14.104-9.222 22.728-8.875 124.163-8.875 248.327 0 372.491z" fill="#dd6938"/><path d="m255.979 468.807c-40.063 0-80.695-2.361-120.768-7.018-.578-.067-1.028-.549-1.071-1.145-8.098-113.362-8.098-228.319 0-341.68.042-.597.493-1.079 1.071-1.146 40.072-4.657 80.704-7.018 120.767-7.018s80.695 2.361 120.768 7.018c.578.067 1.028.549 1.071 1.145 8.098 113.362 8.098 228.319 0 341.68-.042.597-.493 1.078-1.071 1.146-40.071 4.657-80.704 7.018-120.767 7.018z" fill="#655e66"/><path d="m377.818 460.643c-.048.598-.502 1.08-1.071 1.148-8.2.955-16.419 1.813-24.648 2.566 8.161-115.838 8.161-233.259 0-349.098 8.229.752 16.448 1.601 24.648 2.556.569.068 1.023.55 1.071 1.148 8.093 113.36 8.093 228.321 0 341.68z" fill="#535057"/><path d="m312.024 145.212c-37.363-1.738-74.726-1.738-112.089 0-18.446.858-33.418 15.341-34.778 33.757-1.237 16.754-1.237 33.508 0 50.262 1.36 18.416 16.332 32.899 34.778 33.757 37.363 1.738 74.726 1.738 112.089 0 18.446-.858 33.418-15.341 34.778-33.757 1.237-16.754 1.237-33.508 0-50.262-1.36-18.416-16.332-32.899-34.778-33.757z" fill="#78d0b1"/><path d="m224.176 263.871c-8.084-.212-16.158-.502-24.242-.878-18.445-.858-33.416-15.338-34.777-33.754-1.244-16.756-1.244-33.513 0-50.27 1.36-18.416 16.332-32.895 34.777-33.754 8.084-.376 16.158-.666 24.242-.878-13.438 5.354-23.201 17.982-24.32 33.108-1.312 17.769-1.312 35.548 0 53.318 1.119 15.126 10.882 27.754 24.32 33.108z" fill="#66b49d"/><path d="m312.024 304.938c-37.363-1.738-74.726-1.738-112.089 0-18.446.858-33.418 15.341-34.778 33.757-1.237 16.754-1.237 33.508 0 50.262 1.36 18.416 16.332 32.899 34.778 33.757 37.363 1.738 74.726 1.738 112.089 0 18.446-.858 33.418-15.341 34.778-33.757 1.237-16.754 1.237-33.508 0-50.262-1.36-18.415-16.332-32.899-34.778-33.757z" fill="#da4a54"/><path d="m224.176 423.597c-8.084-.212-16.158-.502-24.242-.878-18.445-.858-33.416-15.338-34.777-33.754-1.244-16.756-1.244-33.513 0-50.27 1.36-18.416 16.332-32.895 34.777-33.754 8.084-.376 16.158-.666 24.242-.878-13.438 5.354-23.201 17.982-24.32 33.108-1.312 17.769-1.312 35.548 0 53.318 1.119 15.126 10.882 27.754 24.32 33.108z" fill="#d82e3d"/></g><g><path d="m424.26 172.008c-.2-4.137-3.715-7.316-7.854-7.129-4.137.2-7.329 3.716-7.129 7.854 4.656 96.246 3.533 193.79-3.34 289.925-1.004 14.098-11.91 25.509-25.935 27.133-82.296 9.567-165.751 9.568-248.051 0-14.022-1.624-24.928-13.035-25.932-27.135-8.196-114.695-8.196-231.005 0-345.703 1.003-14.096 11.911-25.511 25.934-27.143 82.295-9.558 165.752-9.559 248.048 0 14.025 1.632 24.932 13.047 25.936 27.146.614 8.587 1.188 17.31 1.705 25.924.248 4.135 3.801 7.285 7.936 7.037s7.285-3.801 7.037-7.936c-.52-8.671-1.097-17.451-1.715-26.093-1.515-21.28-17.985-38.513-39.166-40.978-14.365-1.668-28.766-3.042-43.188-4.136v-7.522c0-15.285-12.435-27.72-27.719-27.72h-8.108v-28.032c0-4.142-3.358-7.5-7.5-7.5s-7.5 3.358-7.5 7.5v28.032h-63.478v-28.032c0-4.142-3.358-7.5-7.5-7.5s-7.5 3.358-7.5 7.5v28.032h-8.108c-15.285 0-27.72 12.435-27.72 27.72v7.522c-14.424 1.094-28.825 2.468-43.191 4.136-21.179 2.464-37.65 19.698-39.164 40.975-8.247 115.405-8.247 232.435 0 347.837 1.516 21.286 17.988 38.516 39.165 40.967 41.728 4.852 83.736 7.277 125.757 7.276 42.011 0 84.036-2.425 125.752-7.275 21.18-2.452 37.652-19.682 39.168-40.966 6.915-96.727 8.045-194.875 3.36-291.716zm-235.847-108.756c0-7.014 5.706-12.72 12.72-12.72h109.694c7.013 0 12.719 5.706 12.719 12.72v6.488c-44.984-2.788-90.148-2.788-135.133 0z"/><path d="m199.587 270.48c18.709.87 37.551 1.305 56.393 1.305s37.683-.435 56.393-1.305c22.255-1.035 40.272-18.531 41.909-40.697 1.259-17.042 1.259-34.324 0-51.366-1.637-22.166-19.654-39.662-41.909-40.697-37.419-1.74-75.366-1.74-112.786 0-22.255 1.035-40.272 18.531-41.909 40.697-1.259 17.042-1.259 34.324 0 51.366 1.636 22.166 19.653 39.662 41.909 40.697zm-26.951-90.959c1.079-14.605 12.964-26.135 27.647-26.818 18.479-.859 37.087-1.289 55.696-1.289s37.217.43 55.696 1.289c14.683.683 26.569 12.212 27.647 26.818 1.204 16.309 1.204 32.848 0 49.157-1.079 14.605-12.964 26.135-27.647 26.818-36.958 1.718-74.435 1.718-111.392 0-14.683-.683-26.569-12.212-27.647-26.818-1.204-16.308-1.204-32.847 0-49.157z"/><path d="m157.677 389.51c1.637 22.167 19.654 39.662 41.909 40.696 18.71.871 37.552 1.306 56.393 1.306s37.683-.435 56.393-1.306c22.256-1.034 40.273-18.53 41.91-40.696 1.259-17.042 1.259-34.324 0-51.367-1.637-22.166-19.654-39.662-41.909-40.696-37.42-1.741-75.366-1.741-112.786 0-22.255 1.035-40.272 18.531-41.909 40.696-1.26 17.043-1.26 34.325-.001 51.367zm14.959-50.262c1.079-14.605 12.964-26.134 27.647-26.817 18.479-.859 37.087-1.289 55.696-1.289s37.217.43 55.696 1.289c14.683.683 26.569 12.212 27.647 26.817 1.204 16.31 1.204 32.849 0 49.158-1.079 14.606-12.964 26.135-27.647 26.817-36.957 1.719-74.434 1.719-111.392 0-14.683-.683-26.568-12.211-27.647-26.817-1.204-16.31-1.204-32.849 0-49.158z"/><path d="m140.045 436.28c-.248-4.134-3.789-7.285-7.937-7.036-4.135.249-7.285 3.802-7.036 7.937.463 7.705.997 15.778 1.583 23.959.28 4.191 3.5 7.596 7.687 8.1 40.349 4.691 81.273 7.07 121.636 7.07 40.373 0 81.297-2.379 121.667-7.074 4.157-.5 7.377-3.906 7.654-8.062 8.125-113.711 8.125-229.029.002-342.723-.284-4.178-3.501-7.575-7.687-8.082-40.343-4.691-81.268-7.07-121.636-7.07-40.358 0-81.283 2.379-121.672 7.075-4.149.503-7.367 3.9-7.648 8.051-6.83 95.592-7.92 192.738-3.24 288.74.202 4.137 3.708 7.323 7.856 7.126 4.137-.202 7.328-3.719 7.126-7.856-4.565-93.657-3.604-188.418 2.855-281.754 38.099-4.235 76.668-6.381 114.724-6.381 38.075 0 76.656 2.147 114.724 6.38 7.587 109.588 7.587 220.637 0 330.25-38.086 4.234-76.654 6.38-114.723 6.38s-76.646-2.147-114.724-6.38c-.443-6.373-.848-12.626-1.211-18.65z"/><path d="m250.676 392.565c1.464 1.464 3.384 2.197 5.303 2.197s3.839-.732 5.303-2.197l46.871-46.871c2.929-2.929 2.929-7.678 0-10.606-2.929-2.929-7.678-2.929-10.606 0l-41.567 41.567-41.567-41.567c-2.929-2.929-7.678-2.929-10.606 0-2.929 2.929-2.929 7.678 0 10.606z"/><path d="m214.412 232.839 41.567-41.568 41.567 41.568c1.464 1.465 3.384 2.197 5.303 2.197s3.839-.732 5.303-2.197c2.929-2.929 2.929-7.678 0-10.606l-46.871-46.871c-1.406-1.407-3.314-2.197-5.303-2.197s-3.897.79-5.303 2.197l-46.871 46.871c-2.929 2.929-2.929 7.678 0 10.606 2.93 2.929 7.679 2.929 10.608 0z"/></g></g></svg>