<svg id="Capa_1" enable-background="new 0 0 512 512" height="512" viewBox="0 0 512 512" width="512" xmlns="http://www.w3.org/2000/svg"><g><g><path d="m503.631 407.37-5.22 56.82v40.31h-152.96l-49.7-40.31v40.31h-83.89v-95.99l107.95-182.251 49.485 48.35-2.525 15.701c-3.62 22.51 11.17 43.85 33.51 48.37l61.52 12.45c26.25 5.32 44.29 29.57 41.83 56.24z" fill="#c3bec6"/><path d="m211.861 464.191v-55.681-51.55l51.694 31.921 2.386 103.739z" fill="#b4acb7"/><path d="m211.861 464.19h83.89v40.31h-83.89z" fill="#655e66"/><path d="m211.861 464.19h53.336v40.31h-53.336z" fill="#535057"/><path d="m498.411 464.19v40.31h-152.96l-49.7-40.31z" fill="#655e66"/><path d="m389.411 149.53-20.11 125.08h-6.94c-22.66 0-39.02 21.69-32.81 43.48l4.25 14.87c4.86 17.04 1.84 35.37-8.23 49.95-5.53 8.01-12.86 14.41-21.24 18.81s-17.81 6.79-27.55 6.79h-64.92v-51.55l-38.67-207.43z" fill="#655e66"/><path d="m211.861 408.51v-51.55l-38.67-207.43h84.86l5.95 258.98z" fill="#535057"/><g><path d="m257.626 78.737v172.083c0 18.164-9.185 34.185-23.158 43.68l14.472 42.529h-212.8l14.472-42.537v-26.666l-5.192-6.002v-216.923c0-7.328 2.969-13.957 7.772-18.752 4.795-4.803 11.424-7.772 18.752-7.772 14.647 0 26.524 11.877 26.524 26.524v-10.868c0-7.328 2.969-13.956 7.772-18.76 4.795-4.803 11.424-7.772 18.752-7.772 14.655 0 26.532 11.877 26.532 26.524v20.022c0-7.327 2.969-13.956 7.772-18.751 4.795-4.803 11.432-7.772 18.752-7.772 14.647 0 26.524 11.877 26.524 26.524v24.69c0-14.655 11.877-26.524 26.532-26.524 14.646-.001 26.522 11.868 26.522 26.523z" fill="#9dc6fb"/><g fill="#80b4fb"><path d="m103.947 302.311v34.715h-67.807l14.473-42.535v-8.235c5.811 1.85 12.003 2.842 18.434 2.842h21.687c7.297.001 13.213 5.916 13.213 13.213z"/><path d="m45.416 261.824v-216.922c0-7.323 2.971-13.958 7.767-18.762 4.803-4.796 11.432-7.767 18.762-7.767 4.022 0 7.842.896 11.257 2.499-2.802 1.314-5.342 3.106-7.505 5.268-4.796 4.803-7.767 11.439-7.767 18.762v216.922z"/><path d="m98.469 159.593v-125.564c0-7.323 2.971-13.958 7.767-18.762 4.803-4.796 11.432-7.767 18.762-7.767 4.022 0 7.842.896 11.257 2.499-2.802 1.314-5.342 3.106-7.505 5.268-4.796 4.803-7.767 11.439-7.767 18.762v103.049c0 12.435-10.08 22.515-22.514 22.515z"/><path d="m151.521 152.166v-98.118c0-7.323 2.971-13.958 7.767-18.762 4.803-4.796 11.432-7.767 18.762-7.767 4.022 0 7.842.896 11.257 2.499-2.803 1.314-5.342 3.106-7.505 5.268-4.796 4.803-7.767 11.439-7.767 18.762v75.603c0 12.435-10.08 22.515-22.514 22.515z"/><path d="m204.574 160.011v-81.276c0-7.323 2.971-13.958 7.767-18.762 4.803-4.796 11.432-7.767 18.762-7.767 4.022 0 7.842.896 11.257 2.499-2.802 1.314-5.342 3.106-7.505 5.268-4.796 4.803-7.767 11.439-7.767 18.762v58.762c0 12.434-10.08 22.514-22.514 22.514z"/></g><path d="m38.594 125.885c-16.817 0-30.45 13.633-30.45 30.45v71.87c0 33.634 27.266 60.9 60.9 60.9v-132.77c0-16.817-13.633-30.45-30.45-30.45z" fill="#9dc6fb"/><path d="m61.647 288.657c-30.147-3.645-53.503-29.318-53.503-60.449v-71.874c0-16.815 13.635-30.45 30.45-30.45 4.298 0 8.387.889 12.092 2.493-10.799 4.682-18.358 15.441-18.358 27.957v80.241c.001 22.076 11.743 41.404 29.319 52.082z" fill="#80b4fb"/></g></g><g><path d="m479.438 349.541c-3.663-1.938-8.2-.541-10.137 3.121s-.541 8.2 3.121 10.137c16.097 8.519 25.415 25.744 23.739 43.885l-4.594 50.007h-272.207v-40.683h57.422c21.944 0 42.49-10.781 54.958-28.838 11.384-16.488 14.762-36.995 9.267-56.263l-4.242-14.875c-2.311-8.104-.725-16.609 4.351-23.335 4.695-6.221 11.675-9.981 19.364-10.512l-1.115 6.933c-4.274 26.575 13.044 51.574 39.427 56.912l46.81 9.47c.502.102 1.002.15 1.495.15 3.495 0 6.624-2.457 7.343-6.014.821-4.06-1.804-8.017-5.864-8.838l-46.81-9.47c-18.463-3.736-30.583-21.23-27.592-39.828l22.64-140.78c.349-2.169-.271-4.383-1.696-6.055s-3.512-2.636-5.709-2.636h-124.279v-63.289c0-18.764-15.266-34.03-34.03-34.03-6.953 0-13.588 2.071-19.201 5.922-1.719-17.166-16.244-30.612-33.85-30.612-7.251 0-14.148 2.25-19.885 6.409-3.463-15.116-17.022-26.429-33.174-26.429-9.084 0-17.626 3.54-24.059 9.972-2.753 2.759-4.977 5.905-6.618 9.314-5.986-5.232-13.816-8.406-22.374-8.406-9.083 0-17.625 3.54-24.048 9.961-6.43 6.418-9.971 14.962-9.971 24.059v13.72c0 4.142 3.358 7.5 7.5 7.5s7.5-3.358 7.5-7.5v-13.72c0-5.084 1.978-9.858 5.573-13.446 3.594-3.594 8.37-5.574 13.447-5.574 10.489 0 19.022 8.525 19.03 19.006 0 .005-.001.01-.001.015v114.691c0 4.142 3.358 7.5 7.5 7.5s7.5-3.358 7.5-7.5v-114.663c0-.01.001-.019.001-.029v-10.87c0-5.076 1.981-9.857 5.573-13.457 3.594-3.594 8.37-5.573 13.447-5.573 10.493 0 19.03 8.537 19.03 19.03v20.02c0 .01.001.019.001.029v101.329c0 4.142 3.358 7.5 7.5 7.5s7.5-3.358 7.5-7.5v-101.36c0-.005-.001-.009-.001-.014.004-5.08 1.982-9.845 5.593-13.442 3.579-3.593 8.351-5.572 13.436-5.572 10.488 0 19.02 8.537 19.02 19.03v24.69c0 .029.004.058.004.087v84.078c0 4.142 3.358 7.5 7.5 7.5s7.5-3.358 7.5-7.5v-84.17c0-.014-.002-.028-.002-.042.012-5.066 1.988-9.827 5.571-13.41 3.594-3.594 8.374-5.574 13.457-5.574 10.493 0 19.03 8.537 19.03 19.03v172.08c0 15.012-7.429 29.018-19.872 37.465-2.793 1.896-3.975 5.424-2.888 8.62l11.097 32.625h-191.853l11.097-32.625c.134-.392.233-.795.3-1.202 3.594.585 7.277.903 11.034.903 4.142 0 7.5-3.358 7.5-7.5s-3.358-7.5-7.5-7.5c-29.445 0-53.4-23.955-53.4-53.4v-71.871c0-12.654 10.295-22.95 22.95-22.95 12.654 0 22.95 10.295 22.95 22.95v68.759c0 4.142 3.358 7.5 7.5 7.5s7.5-3.358 7.5-7.5v-68.759c0-15.858-9.781-29.468-23.625-35.133v-32.581c0-4.142-3.358-7.5-7.5-7.5s-7.5 3.358-7.5 7.5v29.782c-20.615.362-37.275 17.233-37.275 37.933v71.871c0 28.539 17.575 53.04 42.465 63.279v1.765l-14.07 41.365c-.779 2.29-.405 4.815 1.003 6.782s3.679 3.133 6.098 3.133h165.77l2.449 13.124v146.846c0 4.142 3.358 7.5 7.5 7.5h83.89c4.142 0 7.5-3.358 7.5-7.5v-24.57l37.476 30.395c1.336 1.084 3.004 1.675 4.725 1.675h152.96c4.142 0 7.5-3.358 7.5-7.5v-39.966l5.188-56.474c2.234-24.188-10.193-47.158-31.66-58.519zm-230.498-5.011c2.419 0 4.689-1.167 6.098-3.133s1.782-4.492 1.003-6.782l-12.722-37.401c13.753-11.397 21.811-28.348 21.811-46.394v-93.79h115.478l-17.703 110.084h-.541c-13.175 0-25.283 6.031-33.219 16.548-7.937 10.516-10.417 23.814-6.803 36.484l4.242 14.875c4.261 14.94 1.642 30.841-7.186 43.626-9.668 14.002-25.599 22.361-42.614 22.361h-57.424v-44.048c0-.461-.042-.922-.127-1.376l-2.063-11.054zm-29.58 152.47v-25.309h68.89v25.309zm128.749 0-31.204-25.309h174.005v25.309z"/><circle cx="187.949" cy="184.32" r="7.5"/><circle cx="128.27" cy="184.32" r="7.5"/><circle cx="158.11" cy="184.32" r="7.5"/><circle cx="141.84" cy="209.42" r="7.5"/><circle cx="174.38" cy="209.42" r="7.5"/><circle cx="128.27" cy="234.53" r="7.5"/><circle cx="187.949" cy="234.53" r="7.5"/><circle cx="158.11" cy="234.53" r="7.5"/><circle cx="174.38" cy="259.63" r="7.5"/><circle cx="141.84" cy="259.63" r="7.5"/><circle cx="206.929" cy="259.63" r="7.5"/><circle cx="217.78" cy="234.53" r="7.5"/><circle cx="206.929" cy="209.42" r="7.5"/><circle cx="217.78" cy="184.32" r="7.5"/><circle cx="98.429" cy="184.32" r="7.5"/><circle cx="109.29" cy="209.42" r="7.5"/><circle cx="98.429" cy="234.53" r="7.5"/><circle cx="109.29" cy="259.63" r="7.5"/></g></g></svg>