<svg id="Capa_1" enable-background="new 0 0 512 512" height="512" viewBox="0 0 512 512" width="512" xmlns="http://www.w3.org/2000/svg"><g><g><path d="m448.349 367.387c-2.625 0-5.293-.498-7.875-1.548-10.692-4.352-15.832-16.548-11.48-27.24.13-.32 13.186-32.507 26.074-72.348 12.083-37.351 9.728-77.572-6.63-113.252-16.368-35.699-45.29-63.621-81.444-78.624-32.768-13.6-70.112-20.495-110.994-20.495-40.881 0-78.226 6.895-110.997 20.495-36.152 15.002-65.076 42.925-81.442 78.623-16.358 35.681-18.714 75.902-6.631 113.253 12.888 39.841 25.945 72.027 26.075 72.347 4.351 10.693-.789 22.889-11.482 27.24s-22.887-.787-27.24-11.479c-.555-1.363-13.744-33.858-27.131-75.242-15.313-47.341-12.328-98.319 8.406-143.543 20.774-45.31 57.503-80.758 103.421-99.814 37.877-15.718 80.612-23.687 127.021-23.687s89.145 7.969 127.02 23.687c45.919 19.056 82.648 54.504 103.422 99.814 20.734 45.225 23.719 96.202 8.405 143.543-13.387 41.384-26.575 73.879-27.131 75.241-3.301 8.113-11.117 13.029-19.367 13.029z" fill="#655e66"/><g fill="#535057"><path d="m60.486 354.36c-.555-1.363-13.744-33.858-27.131-75.242-15.313-47.341-12.328-98.319 8.406-143.543 20.774-45.311 57.503-80.759 103.422-99.815 35.661-14.799 75.633-22.723 118.919-23.6-2.689-.054-5.388-.087-8.102-.087-46.409 0-89.144 7.969-127.021 23.687-45.918 19.056-82.647 54.504-103.421 99.815-20.734 45.224-23.719 96.202-8.406 143.543 13.387 41.384 26.576 73.879 27.131 75.242 4.353 10.692 16.548 15.829 27.24 11.479.072-.029.137-.067.209-.097-4.93-2.078-9.069-6.035-11.246-11.382z"/><path d="m445.199 338.598c.13-.32 13.186-32.507 26.074-72.348 12.083-37.351 9.728-77.572-6.63-113.252-16.368-35.699-45.29-63.621-81.444-78.624-32.77-13.599-70.113-20.495-110.995-20.495-2.717 0-5.416.035-8.102.096 37.722.855 72.302 7.703 102.894 20.398 36.153 15.003 65.076 42.925 81.444 78.624 16.358 35.68 18.713 75.901 6.63 113.252-12.888 39.841-25.945 72.028-26.074 72.348-4.352 10.693.788 22.888 11.48 27.24 2.581 1.051 5.249 1.548 7.875 1.548 2.807 0 5.559-.582 8.105-1.653-10.536-4.43-15.578-16.518-11.257-27.134z"/></g><path d="m115.332 474.406h-57.93c-19.329 0-34.998-15.669-34.998-34.998v-115.602c0-19.329 15.669-34.998 34.998-34.998h57.93z" fill="#e27d47"/><path d="m85.57 431.303v43.103h-28.168c-19.325 0-35.003-15.667-35.003-35.003v-43.092c0 19.325 15.678 34.992 35.003 34.992z" fill="#dd6938"/><path d="m397.832 474.406h56.766c19.329 0 34.998-15.669 34.998-34.998v-115.602c0-19.329-15.669-34.998-34.998-34.998h-56.766z" fill="#e27d47"/><path d="m137.611 263.286h-20.675c-17.325 0-31.37 14.045-31.37 31.37v173.901c0 17.325 14.045 31.37 31.37 31.37h20.675c17.325 0 31.37-14.045 31.37-31.37v-173.901c0-17.325-14.045-31.37-31.37-31.37z" fill="#c3bec6"/><path d="m168.987 410.158v58.394c0 17.329-14.047 31.376-31.376 31.376h-20.674c-17.329 0-31.366-14.047-31.366-31.376v-58.394c0 17.329 14.037 31.376 31.366 31.376h20.674c17.329 0 31.376-14.047 31.376-31.376z" fill="#b4acb7"/><path d="m374.389 263.286h20.675c17.325 0 31.37 14.045 31.37 31.37v173.901c0 17.325-14.045 31.37-31.37 31.37h-20.675c-17.325 0-31.37-14.045-31.37-31.37v-173.901c-.001-17.325 14.044-31.37 31.37-31.37z" fill="#c3bec6"/><path d="m426.436 431.309v43.103h28.167c19.325 0 35.003-15.667 35.003-35.003v-43.092c0 19.325-15.678 34.992-35.003 34.992z" fill="#dd6938"/><path d="m343.018 410.163v58.394c0 17.329 14.047 31.376 31.376 31.376h20.674c17.329 0 31.366-14.047 31.366-31.376v-58.394c0 17.329-14.037 31.376-31.366 31.376h-20.674c-17.328 0-31.376-14.047-31.376-31.376z" fill="#b4acb7"/></g><path d="m493.258 132.448c-21.563-47.038-59.693-83.836-107.363-103.612-38.796-16.1-82.498-24.263-129.895-24.263s-91.099 8.163-129.894 24.263c-47.672 19.777-85.801 56.574-107.363 103.611-21.519 46.929-24.619 99.839-8.729 148.983 2.693 8.329 5.55 16.814 8.498 25.27-2.313 5.238-3.607 11.022-3.607 17.106v115.601c0 23.434 19.065 42.498 42.498 42.498h23.031c5.458 14.875 19.763 25.517 36.507 25.517h20.67c21.433 0 38.87-17.437 38.87-38.87v-173.9c0-21.433-17.437-38.87-38.87-38.87h-20.67c-16.747 0-31.054 10.645-36.51 25.525h-10.578c-2.034-5.947-3.976-11.77-5.786-17.363-11.502-35.562-9.26-73.855 6.311-107.824 15.585-33.978 43.107-60.55 77.498-74.82 31.844-13.216 68.223-19.917 108.124-19.917 39.902 0 76.28 6.701 108.129 19.919 4.118 1.706 8.164 3.603 12.026 5.637 3.668 1.932 8.201.523 10.131-3.141 1.931-3.665.524-8.201-3.141-10.131-4.268-2.248-8.734-4.341-13.27-6.221-33.677-13.976-71.989-21.063-113.875-21.063-41.885 0-80.198 7.086-113.874 21.063-37.893 15.724-68.216 44.994-85.383 82.422-17.141 37.394-19.609 79.547-6.948 118.694 1.354 4.183 2.785 8.5 4.266 12.889-9.453.74-18.043 4.58-24.756 10.509-1.72-5.078-3.4-10.141-5.018-15.145-14.731-45.56-11.858-94.611 8.092-138.117 19.981-43.588 55.308-77.684 99.476-96.008 36.963-15.339 78.732-23.117 124.145-23.117s87.181 7.778 124.145 23.118c44.167 18.323 79.496 52.419 99.477 96.008 19.949 43.506 22.822 92.557 8.09 138.117-1.617 5.004-3.297 10.067-5.017 15.144-6.711-5.928-15.3-9.768-24.751-10.509 1.492-4.427 2.905-8.699 4.262-12.891 12.662-39.147 10.194-81.297-6.948-118.685-10.505-22.9-26.347-43.287-45.815-58.956-3.227-2.596-7.948-2.086-10.545 1.14-2.597 3.227-2.087 7.948 1.141 10.545 17.665 14.219 32.046 32.727 41.585 53.523 15.572 33.963 17.813 72.253 6.312 107.814-1.806 5.577-3.711 11.302-5.781 17.364h-10.582c-5.457-14.878-19.763-25.521-36.508-25.521h-20.675c-21.433 0-38.87 17.437-38.87 38.87v173.901c0 21.433 17.437 38.87 38.87 38.87h20.675c16.745 0 31.051-10.644 36.508-25.521h23.026c23.434 0 42.498-19.065 42.498-42.498v-115.6c0-6.084-1.295-11.868-3.607-17.106 2.947-8.454 5.804-16.939 8.497-25.269 15.889-49.144 12.789-102.054-8.729-148.983zm-435.855 163.86h20.667v119.995c0 4.142 3.358 7.5 7.5 7.5s7.5-3.358 7.5-7.5v-121.65c0-13.162 10.708-23.87 23.87-23.87h20.67c13.162 0 23.87 10.708 23.87 23.87v173.9c0 13.162-10.708 23.87-23.87 23.87h-20.67c-13.162 0-23.87-10.708-23.87-23.87v-22.25c0-4.142-3.358-7.5-7.5-7.5s-7.5 3.358-7.5 7.5v20.603h-20.667c-15.163 0-27.498-12.336-27.498-27.498v-115.602c0-15.163 12.335-27.498 27.498-27.498zm337.66 196.119h-20.675c-13.162 0-23.87-10.708-23.87-23.87v-173.901c0-13.162 10.708-23.87 23.87-23.87h20.675c13.162 0 23.87 10.708 23.87 23.87v173.901c.001 13.162-10.707 23.87-23.87 23.87zm87.032-53.02c0 15.163-12.336 27.498-27.498 27.498h-20.664v-170.597h20.664c15.162 0 27.498 12.335 27.498 27.498z"/></g></svg>