<svg id="Capa_1" enable-background="new 0 0 512 512" height="512" viewBox="0 0 512 512" width="512" xmlns="http://www.w3.org/2000/svg"><g><g><path d="m231.937 426.984c-3.821 0-7.642-1.458-10.557-4.373-32.612-32.611-12.412-80.647-11.536-82.676 3.267-7.57 12.055-11.059 19.626-7.79 7.553 3.26 11.041 12.013 7.813 19.571-.256.616-12.902 31.666 5.212 49.78 5.831 5.83 5.831 15.284 0 21.115-2.916 2.915-6.737 4.373-10.558 4.373z" fill="#655e66"/><path d="m196.4 322.906-15.01 60.828-26.915 109.063h-106.127l27.313-110.686 14.612-59.205z" fill="#655e66"/><path d="m196.4 322.906-15.01 60.827c-30.707 1.274-68.034 1.463-105.729-1.622l14.612-59.205z" fill="#535057"/><path d="m121.705 322.906-41.935 169.891h-31.424l41.925-169.891z" fill="#535057"/><path d="m364.987 259.133v32.708l-30.707 12.143-21.918-29.184 21.918-27.811z" fill="#da4a54"/><path d="m364.987 276.343v15.498l-30.707 12.143-21.918-29.184z" fill="#d82e3d"/><g><path d="m140.17 126.587h43.561v155.903h-43.561z" fill="#655e66" transform="matrix(.931 -.364 .364 .931 -63.358 73.009)"/><path d="m140.905 130.483h22.163v155.903h-22.163z" fill="#535057" transform="matrix(.931 -.364 .364 .931 -65.46 69.648)"/><g><path d="m174.228 183.015c-11.804 5.092-23.769 9.769-35.896 14.033-27.087 9.524-56.889-3.422-68.304-29.767-14.016-32.348-25.829-65.557-35.441-99.627 40.645-21.968 83.352-38.664 128.119-50.088 16.044 31.555 29.886 63.971 41.527 97.248 9.479 27.103-3.641 56.829-30.005 68.201z" fill="#da4a54"/><path d="m113.071 160.669c6.477 15.937 14.829 29.094 22.919 37.133-26.444 8.006-54.882-4.934-65.96-30.522-14.016-32.348-25.827-65.558-35.444-99.625 20.328-10.995 41.164-20.658 62.515-29.005-8.765 3.427-16.969 8.287-24.602 14.578 12.62 36.163 26.139 71.974 40.572 107.441z" fill="#d82e3d"/><path d="m159.053 8.725-127.78 49.955c-9.143 3.574-13.657 13.883-10.082 23.026 3.574 9.143 13.883 13.657 23.026 10.082l127.78-49.955c9.143-3.574 13.657-13.883 10.082-23.026-3.574-9.142-13.883-13.656-23.026-10.082z" fill="#f9f6f9"/><path d="m82.221 71.344c4.168 1.825 9.034 2.057 13.603.271l-51.605 20.175c-4.57 1.787-9.435 1.554-13.603-.271s-7.639-5.243-9.425-9.813c-3.573-9.14.944-19.455 10.083-23.028l51.605-20.175c-9.15 3.577-13.657 13.889-10.083 23.029 1.786 4.569 5.257 7.987 9.425 9.812z" fill="#e2dfe2"/></g></g><path d="m45.456 270.414h106.791v-29.125h-106.791c-8.043 0-14.562 6.52-14.562 14.562-.001 8.043 6.519 14.563 14.562 14.563z" fill="#655e66"/><path d="m152.25 259.873v10.541h-106.794c-4.021 0-7.664-1.632-10.292-4.27-2.638-2.628-4.27-6.271-4.27-10.292 0-1.861.348-3.633.985-5.265.737 1.901 1.871 3.613 3.285 5.027 2.628 2.628 6.271 4.26 10.292 4.26h106.794z" fill="#535057"/><path d="m140.685 222.354c33.479-3.875 92.368-11.303 175.399-.63 10.404 1.337 18.192 10.215 18.192 20.704v62.554c0 10.799-8.23 19.862-18.99 20.789-12.442 1.072-30.689 1.087-53.822-3.175v11.994c0 14.739-11.278 27.015-25.963 28.286-35.932 3.109-103.901 6.967-170.067-.284-10.677-1.17-18.765-10.188-18.765-20.929v-24.717c0-11.624 9.423-21.047 21.047-21.047h27.494l24.516-57.857c3.653-8.623 11.657-14.612 20.959-15.688z" fill="#c3bec6"/><path d="m72.485 316.945v24.725c0 7.923 4.4 17.628 11.009 22.635-6.022-.488-12.054-1.055-18.066-1.712-10.67-1.164-18.763-10.183-18.763-20.923v-24.725c0-11.616 9.426-21.042 21.052-21.042h25.81c-11.615 0-21.042 9.426-21.042 21.042z" fill="#b4acb7"/><path d="m140.679 222.354c5.494-.637 11.666-1.364 18.514-2.1-6.062 4.051-10.999 11.536-13.647 17.787l-20.117 47.48c-2.667 6.293-8.839 10.381-15.674 10.381h-14.545l24.516-57.861c3.653-8.619 11.656-14.602 20.953-15.687z" fill="#b4acb7"/><circle cx="278.596" cy="236.07" fill="#f9f6f9" r="31.776"/><g fill="#da4a54"><path d="m410.181 353.051 1.237-2.142c4.362-7.555 13.828-10.442 21.663-6.607l24.101 11.794c8.633 4.225 11.882 14.877 7.076 23.2l-3.073 5.323c-4.806 8.323-15.655 10.836-23.63 5.472l-22.265-14.975c-7.238-4.868-9.47-14.51-5.109-22.065z"/><path d="m432.075 273.815v-2.473c0-8.723 6.755-15.957 15.457-16.554l26.769-1.836c9.589-.658 17.728 6.943 17.728 16.554v6.146c0 9.611-8.14 17.212-17.728 16.554l-26.769-1.836c-8.702-.598-15.457-7.832-15.457-16.555z"/><path d="m411.418 194.247-1.237-2.142c-4.362-7.555-2.129-17.196 5.109-22.065l22.265-14.975c7.975-5.364 18.825-2.851 23.63 5.472l3.073 5.323c4.806 8.323 1.556 18.976-7.076 23.2l-24.101 11.794c-7.835 3.835-17.301.948-21.663-6.607z"/></g><path d="m192.428 444.065c-47.418-1.358-94.835-1.358-142.252 0-11.729.336-21.364 9.344-22.537 21.018-.582 5.793-.582 11.586 0 17.379 1.173 11.675 10.808 20.682 22.537 21.018 47.418 1.358 94.835 1.358 142.253 0 11.729-.336 21.364-9.344 22.537-21.018.582-5.793.582-11.586 0-17.379-1.174-11.674-10.81-20.682-22.538-21.018z" fill="#c3bec6"/><path d="m86.773 504.252c-12.203-.159-24.397-.418-36.6-.776-11.726-.329-21.361-9.337-22.535-21.013-.577-5.793-.577-11.586 0-17.379 1.174-11.676 10.81-20.684 22.535-21.022 12.193-.348 24.397-.607 36.59-.766-9.824 2.469-17.329 10.89-18.385 21.341-.617 6.092-.617 12.183 0 18.265 1.056 10.46 8.571 18.891 18.395 21.35z" fill="#b4acb7"/></g><g><path d="m367.745 252.169-25.979-10.274c-.267-13.999-10.804-25.815-24.716-27.599-1.982-.258-4.087-.518-6.338-.785-7.115-10.096-18.854-16.71-32.116-16.71-11.163 0-21.246 4.689-28.403 12.192-20.399-.588-38.666-.159-54.768.747l-9.551-24.43c23.958-15.225 35.056-45.48 25.439-72.944-.992-2.854-2.005-5.699-3.037-8.533-1.417-3.892-5.723-5.897-9.613-4.481-3.892 1.417-5.898 5.722-4.48 9.614 1.007 2.766 1.994 5.541 2.969 8.342 8.128 23.214-3.246 49.058-25.886 58.832-11.67 5.02-23.59 9.678-35.424 13.844-23.271 8.183-49.153-3.097-58.93-25.676-9.485-21.89-18.047-44.485-25.517-67.261l118.882-46.477c4.652 10.18 9.103 20.46 13.243 30.661 1.183 2.915 3.989 4.682 6.952 4.682.938 0 1.894-.178 2.817-.552 3.838-1.558 5.686-5.932 4.129-9.77-4.379-10.79-9.1-21.666-14.036-32.423 6.875-6.887 9.447-17.452 5.683-27.08-2.458-6.288-7.218-11.242-13.402-13.949-6.186-2.709-13.054-2.846-19.341-.387h.001l-127.779 49.952c-12.979 5.074-19.411 19.762-14.337 32.742 3.763 9.625 12.814 15.632 22.533 16.034 7.707 23.632 16.569 47.083 26.407 69.789 10.053 23.213 33.006 37.37 57.169 37.368 3.658 0 7.344-.337 11.018-1.004l3.608 9.229c-9.377 2.538-17.281 9.068-21.504 17.932h-67.985c-12.165 0-22.062 9.897-22.062 22.062 0 5.893 2.297 11.434 6.467 15.605 4.164 4.164 9.703 6.457 15.596 6.457h49.236l-4.446 10.492h-22.525c-15.743 0-28.552 12.804-28.552 28.542v24.715c0 14.588 10.942 26.792 25.456 28.388 2.045.224 4.094.415 6.142.619l-16.237 65.791c-1.519.041-3.043.071-4.56.114-15.441.435-28.249 12.368-29.792 27.761-.627 6.267-.627 12.617 0 18.874 1.542 15.396 14.349 27.335 29.787 27.769 23.576.678 47.376 1.017 71.203 1.017 18.834 0 37.684-.212 56.443-.637 4.141-.094 7.422-3.527 7.328-7.667-.093-4.083-3.432-7.331-7.495-7.331-.057 0-.115 0-.173.002-42.233.956-84.921.828-126.879-.379-7.923-.223-14.496-6.358-15.288-14.27-.527-5.266-.527-10.61 0-15.884.792-7.907 7.365-14.038 15.292-14.261 47.048-1.35 94.763-1.35 141.823 0 7.916.223 14.489 6.356 15.288 14.26.527 5.275.527 10.62.001 15.875-.431 4.24-2.476 8.05-5.758 10.726-3.21 2.618-3.689 7.342-1.072 10.552s7.341 3.691 10.553 1.073c6.387-5.209 10.365-12.608 11.202-20.845.627-6.257.627-12.607-.001-18.882-1.556-15.388-14.363-27.319-29.787-27.753-5.48-.157-10.971-.292-16.467-.412l15.527-62.932c1.246-.055 2.479-.111 3.702-.169-.448 16.802 3.489 37.671 20.668 54.849 4.227 4.24 9.859 6.575 15.862 6.575 5.995 0 11.63-2.332 15.865-6.566 4.237-4.238 6.571-9.871 6.571-15.864s-2.334-11.626-6.574-15.867c-7.288-7.281-8.213-17.678-7.219-26.506 16.462-3.461 28.39-17.833 28.39-35.087v-3.151c20.491 3.011 36.598 2.701 46.963 1.804 13.069-1.124 23.582-11.33 25.523-24.032l26.292-10.397c2.862-1.132 4.742-3.897 4.742-6.975v-32.704c0-3.079-1.88-5.844-4.743-6.976zm-339.567-173.185c-2.062-5.276.552-11.247 5.827-13.309l127.779-49.955h.001c1.213-.474 2.479-.711 3.744-.711 1.399 0 2.797.29 4.117.868 2.515 1.101 4.449 3.115 5.448 5.67 2.062 5.277-.552 11.248-5.828 13.31l-127.778 49.955c-5.279 2.063-11.248-.551-13.31-5.828zm250.419 132.817c13.386 0 24.275 10.89 24.275 24.276s-10.89 24.276-24.275 24.276c-13.386 0-24.276-10.89-24.276-24.276s10.89-24.276 24.276-24.276zm-128.388 1.911-4.445-11.369c8.893-3.224 17.795-6.704 26.599-10.397l7.374 18.86c-11.096.884-20.945 1.931-29.528 2.906zm-104.756 49.205c-1.887 0-3.658-.733-4.988-2.063-1.338-1.337-2.074-3.113-2.074-4.998 0-3.894 3.168-7.062 7.062-7.062h61.577l-5.985 14.124h-55.592zm115.345 172.965c-30.212-.477-60.565-.409-90.727.209l15.813-64.076c21.062 1.599 41.933 2.21 61.518 2.21 9.952 0 19.569-.158 28.713-.423zm76.396-18.566c-1.402 1.401-3.27 2.173-5.259 2.173-1.987 0-3.848-.769-5.247-2.173-11.624-11.624-17.058-26.771-16.238-45.07 5.324-.327 10.317-.674 14.927-1.023-.776 11.686 1.389 25.16 11.816 35.578 2.899 2.899 2.899 7.616.001 10.515zm77.448-99.008c-10.898.942-28.734 1.172-51.816-3.079-2.193-.404-4.446.187-6.157 1.612-1.712 1.425-2.701 3.537-2.701 5.764v11.995c0 10.924-8.217 19.868-19.117 20.806-34.643 3.004-102.612 6.964-168.59-.261-6.894-.758-12.093-6.553-12.093-13.478v-24.715c0-7.467 6.079-13.542 13.552-13.542h27.492c3.012 0 5.73-1.801 6.905-4.574l24.516-57.86c2.595-6.122 8.31-10.399 14.919-11.163l2.819-.327c22.109-2.57 54.579-6.338 96.925-5.684-1.276 3.865-1.976 7.99-1.976 12.277 0 21.657 17.619 39.276 39.276 39.276 21.656 0 39.275-17.619 39.275-39.276 0-2.187-.188-4.329-.533-6.419 5.511 1.693 9.44 6.838 9.44 12.78v62.549c.001 6.882-5.329 12.733-12.136 13.319zm42.846-31.559-15.709 6.212v-34.93l15.709 6.212z"/><path d="m460.478 349.366-24.101-11.794c-11.328-5.545-25.147-1.332-31.454 9.592l-1.237 2.142c-.001 0-.001.001-.001.002-6.308 10.925-3.048 24.998 7.42 32.037l22.264 14.975c3.999 2.69 8.713 4.097 13.472 4.097 1.809 0 3.624-.203 5.408-.617 6.48-1.5 12.104-5.665 15.431-11.425l3.073-5.323c3.326-5.761 4.12-12.713 2.18-19.076-1.941-6.361-6.48-11.686-12.455-14.61zm-2.716 26.187-3.073 5.323c-1.273 2.206-3.342 3.737-5.824 4.312-2.479.576-5.011.108-7.125-1.313l-22.264-14.975c-3.95-2.657-5.181-7.967-2.802-12.09l1.238-2.144c2.38-4.123 7.593-5.715 11.871-3.621l24.101 11.794c2.288 1.12 3.957 3.078 4.7 5.514.744 2.437.452 4.994-.822 7.2z"/><path d="m491.879 251.903c-4.862-4.539-11.446-6.876-18.093-6.427l-26.768 1.836c-12.586.863-22.444 11.421-22.444 24.036v2.474c0 12.615 9.858 23.173 22.443 24.036l26.769 1.836c.545.038 1.089.056 1.633.056 6.074 0 11.997-2.315 16.46-6.482 4.861-4.54 7.649-10.958 7.649-17.61v-6.145c.001-6.652-2.788-13.071-7.649-17.61zm-7.35 23.755c0 2.547-1.025 4.908-2.887 6.646-1.861 1.738-4.287 2.599-6.828 2.425l-26.77-1.836c-4.749-.326-8.47-4.31-8.47-9.071v-2.474c0-4.761 3.721-8.746 8.471-9.071l26.769-1.836c.215-.015.43-.022.643-.022 2.306 0 4.481.856 6.185 2.447 1.861 1.739 2.887 4.099 2.887 6.646z"/><path d="m404.922 198.005c4.428 7.67 12.556 12.033 20.929 12.032 3.553 0 7.15-.786 10.526-2.438l24.101-11.794c5.975-2.924 10.514-8.249 12.454-14.612 1.94-6.362 1.146-13.315-2.18-19.076l-3.073-5.322c-3.326-5.761-8.95-9.925-15.431-11.425-6.476-1.502-13.361-.232-18.88 3.48l-22.264 14.974c-10.468 7.04-13.727 21.113-7.419 32.04zm14.553-21.734 22.264-14.975c1.523-1.024 3.264-1.553 5.046-1.553.69 0 1.387.079 2.079.24 2.482.575 4.551 2.106 5.824 4.312l3.073 5.322c1.273 2.206 1.565 4.763.822 7.2s-2.412 4.395-4.7 5.514l-24.101 11.795c-4.278 2.092-9.491.501-11.871-3.621 0 0 0-.001-.001-.001l-1.236-2.14c-2.379-4.124-1.15-9.436 2.801-12.093z"/><path d="m278.597 243.577c4.143 0 7.5-3.358 7.5-7.5v-.498c0-4.142-3.357-7.5-7.5-7.5s-7.5 3.358-7.5 7.5v.498c0 4.142 3.357 7.5 7.5 7.5z"/></g></g></svg>