<svg id="Capa_1" enable-background="new 0 0 512 512" height="512" viewBox="0 0 512 512" width="512" xmlns="http://www.w3.org/2000/svg"><g><g><g><path d="m193.064 479.606c-.12.31-.24.61-.36.91-5.86 14.51-19.99 23.98-35.64 23.98h-59.38c-15.65 0-29.78-9.47-35.63-23.98-.13-.3-.25-.6-.37-.91-10.09-25.27-13.98-52.6-11.6-79.71 2.59-29.64 7.34-59.47 10.58-77.86 1.98-11.28 3.4-18.26 3.4-18.26l63.31-20.05 63.32 20.05s1.42 7.01 3.41 18.33c3.24 18.4 7.98 48.19 10.57 77.79 2.37 27.11-1.52 54.44-11.61 79.71z" fill="#9dc6fb"/><path d="m99.99 493.343c.66 4.13 1.56 7.88 2.66 11.15h-4.96c-15.65 0-29.78-9.47-35.64-23.98-.12-.3-.25-.6-.37-.91-10.09-25.27-13.97-52.6-11.6-79.71 4.18-47.81 13.98-96.12 13.98-96.12l63.31-20.05-26.53 21.36s-4.11 51.46-5.86 102.38c-1 28.88.63 58 4.86 84.92.05.32.1.64.15.96z" fill="#80b4fb"/><path d="m141.673 7.497h-28.594c-11.058 0-20.919 6.96-24.623 17.379l-21.55 60.616c-3.106 8.736-1.35 18.463 4.613 25.562l22.304 26.553c3.955 4.708 6.123 10.66 6.123 16.808v129.161h54.863v-129.16c0-6.149 2.168-12.1 6.123-16.808l22.303-26.553c5.963-7.099 7.718-16.827 4.613-25.562l-21.55-60.616c-3.706-10.42-13.567-17.38-24.625-17.38z" fill="#f9f6f9"/><path d="m120.157 154.416v129.16h-20.22v-129.16c0-6.15-2.16-12.1-6.12-16.81l-22.3-26.55c-5.96-7.1-7.72-16.83-4.61-25.56l21.55-60.62c3.7-10.42 13.56-17.38 24.62-17.38h6.14c-6.3 0-11.93 6.96-14.04 17.38l-12.29 60.62c-1.77 8.73-.77 18.46 2.63 25.56 0 0 24.64 37.21 24.64 43.36z" fill="#e2dfe2"/><path d="m194.104 322.106h-131.9c-.52 0-1.03-.02-1.54-.07 1.98-11.28 3.4-18.26 3.4-18.26l63.31-20.05 63.32 20.05s1.42 7.01 3.41 18.33z" fill="#80b4fb"/><path d="m197.24 263.668h-139.728c-11.076 0-20.054 8.979-20.054 20.054 0 11.076 8.979 20.054 20.054 20.054h139.728c11.076 0 20.054-8.979 20.054-20.054 0-11.075-8.979-20.054-20.054-20.054z" fill="#9dc6fb"/><path d="m97.161 297.898c3.63 3.64 8.64 5.88 14.18 5.88h-53.83c-5.53 0-10.55-2.24-14.18-5.88-3.63-3.62-5.87-8.64-5.87-14.18 0-11.07 8.98-20.05 20.05-20.05h53.83c-11.07 0-20.05 8.98-20.05 20.05 0 5.54 2.25 10.56 5.87 14.18z" fill="#80b4fb"/></g><path d="m414.983 339.754v-16.847-134.084-16.847s34.049-14.254 56.136-34.692c1.85-1.712 2.949-4.076 3.098-6.591.864-14.665 1.915-67.961-24.06-111.783 0 0-8.559-11.412-35.173-11.412 0 0 9.504 47.67 0 77.08 0 0-19.017 9.261-38.035 9.261s-38.035-9.261-38.035-9.261c-9.504-29.41 0-77.08 0-77.08-26.613 0-35.173 11.412-35.173 11.412-25.975 43.822-24.925 97.119-24.06 111.783.148 2.516 1.248 4.88 3.098 6.591 22.086 20.438 56.136 34.692 56.136 34.692v16.847 134.084 16.847s-34.049 14.254-56.136 34.692c-1.85 1.712-2.949 4.076-3.098 6.591-.864 14.665-1.915 67.961 24.06 111.783 0 0 8.559 11.412 35.173 11.412 0 0-9.504-47.67 0-77.081 0 0 19.017-9.261 38.035-9.261s38.035 9.261 38.035 9.261c9.504 29.41 0 77.081 0 77.081 26.613 0 35.173-11.412 35.173-11.412 25.976-43.822 24.925-97.119 24.06-111.783-.148-2.516-1.248-4.88-3.098-6.591-22.087-20.439-56.136-34.692-56.136-34.692z" fill="#c3bec6"/><path d="m302.492 116.302c-2.667-105.472 36.421-108.806 36.421-108.806-26.613 0-35.173 11.412-35.173 11.412-25.98 43.83-24.924 97.137-24.06 111.791.148 2.511 1.246 4.87 3.092 6.578 22.086 20.441 56.141 34.697 56.141 34.697v16.847 134.084 16.847s-34.055 14.256-56.141 34.697c-1.846 1.708-2.943 4.068-3.091 6.578-.864 14.654-1.92 67.961 24.06 111.791 0 0 8.559 11.412 35.173 11.412 0 0-39.088-3.334-36.421-108.806.087-3.435 1.589-6.684 4.133-8.992 7.478-6.785 24.756-20.893 45.236-27.178 4.486-1.377 7.593-5.455 7.593-10.147v-186.488c0-4.692-3.107-8.77-7.593-10.147-20.53-6.3-37.841-20.461-45.29-27.227-2.524-2.293-3.993-5.534-4.08-8.943z" fill="#b4acb7"/></g><g><path d="m197.24 256.172h-34.93v-101.752c0-4.383 1.549-8.639 4.363-11.986l22.297-26.547c7.646-9.092 9.924-21.698 5.947-32.899l-21.552-60.624c-4.762-13.376-17.5-22.364-31.695-22.364h-28.59c-14.195 0-26.933 8.988-31.697 22.368l-21.55 60.622c-3.977 11.199-1.698 23.804 5.944 32.894l22.302 26.553c2.812 3.345 4.361 7.601 4.361 11.983v14.28c0 4.142 3.358 7.5 7.5 7.5s7.5-3.358 7.5-7.5v-14.28c0-7.909-2.798-15.593-7.877-21.634l-22.303-26.553c-4.234-5.036-5.496-12.019-3.293-18.221l21.549-60.617c2.639-7.414 9.698-12.395 17.564-12.395h28.59c7.866 0 14.925 4.981 17.563 12.392l21.55 60.618c2.203 6.205.941 13.188-3.296 18.227l-22.297 26.547c-5.081 6.043-7.879 13.727-7.879 21.636v101.752h-39.87v-57.472c0-4.142-3.358-7.5-7.5-7.5s-7.5 3.358-7.5 7.5v57.472h-34.929c-15.193 0-27.554 12.361-27.554 27.554 0 14.35 11.029 26.168 25.054 27.436-3.018 16.269-9.287 52.482-12.403 88.081-2.481 28.344 1.708 57.098 12.112 83.151l.374.931c7.03 17.419 23.749 28.675 42.593 28.675h59.375c18.845 0 35.564-11.256 42.595-28.677l.373-.927c10.405-26.054 14.593-54.808 12.112-83.153-3.116-35.598-9.385-71.811-12.403-88.081 14.026-1.268 25.054-13.085 25.054-27.436 0-15.193-12.361-27.554-27.554-27.554zm-11.141 220.662-.352.876c-4.729 11.719-15.988 19.29-28.684 19.29h-59.375c-12.696 0-23.955-7.571-28.684-19.287l-.353-.88c-9.539-23.886-13.377-50.264-11.1-76.282 3.247-37.094 9.99-74.923 12.698-89.27h114.252c2.708 14.342 9.448 52.152 12.698 89.27 2.278 26.018-1.56 52.396-11.1 76.283zm11.141-180.553h-139.728c-6.922 0-12.554-5.632-12.554-12.554s5.632-12.554 12.554-12.554h139.728c6.922 0 12.554 5.632 12.554 12.554s-5.632 12.554-12.554 12.554z"/><path d="m476.212 368.943c-3.825-3.537-8.226-7.115-13.078-10.634-3.352-2.432-8.043-1.687-10.475 1.667-2.432 3.353-1.686 8.042 1.668 10.475 4.373 3.172 8.311 6.371 11.702 9.506.418.387.668.929.703 1.522.855 14.588 1.731 65.245-22.672 106.919-1.141 1.146-6.825 6.17-20.131 7.817 2.335-15.909 5.629-48.347-1.813-71.363-.627-1.941-2.018-3.542-3.852-4.435-.84-.409-20.802-10.017-41.314-10.017-20.514 0-40.483 9.608-41.323 10.017-1.835.893-3.227 2.496-3.854 4.438-7.435 23.014-4.144 55.452-1.811 71.361-13.301-1.647-18.984-6.672-20.123-7.817-24.401-41.653-23.528-92.326-22.674-106.912.036-.599.286-1.142.709-1.533 20.813-19.268 53.604-33.138 53.931-33.275 2.789-1.167 4.604-3.895 4.604-6.918v-167.781c0-3.022-1.815-5.749-4.603-6.918-.328-.138-33.119-14.008-53.938-33.281-.412-.381-.668-.938-.703-1.52-.855-14.596-1.73-65.274 22.672-106.928 1.142-1.146 6.824-6.164 20.124-7.809-2.333 15.909-5.624 48.347 1.811 71.361.627 1.942 2.019 3.544 3.854 4.438.84.409 20.81 10.017 41.323 10.017s40.475-9.608 41.314-10.017c1.834-.893 3.225-2.495 3.852-4.435 7.442-23.015 4.148-55.454 1.813-71.363 13.304 1.645 18.99 6.663 20.133 7.809 24.404 41.675 23.526 92.337 22.672 106.921-.035.59-.292 1.147-.707 1.531-20.823 19.268-53.615 33.139-53.941 33.276-2.789 1.167-4.604 3.895-4.604 6.918v167.78c0 3.021 1.815 5.749 4.602 6.917.076.032 7.702 3.244 17.841 8.666 3.651 1.954 8.197.576 10.15-3.076 1.954-3.653.576-8.197-3.076-10.151-5.976-3.196-11.085-5.65-14.517-7.229v-158.029c10.308-4.732 35.594-17.278 53.731-34.061 3.276-3.029 5.228-7.167 5.495-11.658.923-15.734 1.84-70.604-25.095-116.053-.139-.234-.29-.46-.453-.677-1.106-1.475-11.662-14.409-41.179-14.409-2.246 0-4.374 1.007-5.799 2.744s-1.996 4.021-1.557 6.224c.088.44 8.367 42.703 1.139 70.159-5.727 2.38-18.942 7.214-31.813 7.214-12.873 0-26.097-4.835-31.822-7.214-7.203-27.411 1.051-69.722 1.138-70.161.438-2.203-.133-4.486-1.557-6.223-1.425-1.736-3.553-2.743-5.799-2.743-29.508 0-40.063 12.934-41.169 14.409-.163.217-.314.443-.452.676-26.934 45.428-26.019 100.314-25.096 116.063.269 4.485 2.221 8.623 5.492 11.645 18.132 16.785 43.417 29.332 53.725 34.064v158.024c-10.308 4.732-35.592 17.278-53.72 34.06-3.277 3.028-5.229 7.166-5.498 11.66-.922 15.738-1.837 70.616 25.097 116.043.138.232.288.457.45.673 1.106 1.476 11.661 14.422 41.171 14.422 2.245 0 4.372-1.007 5.797-2.742s1.996-4.019 1.559-6.221c-.087-.441-8.341-42.751-1.138-70.162 5.73-2.381 18.951-7.214 31.822-7.214 12.873 0 26.092 4.835 31.813 7.214 7.21 27.409-1.051 69.72-1.139 70.159-.439 2.203.132 4.487 1.557 6.224s3.553 2.744 5.799 2.744c29.519 0 40.074-12.945 41.181-14.421.162-.217.313-.442.451-.675 26.935-45.448 26.018-100.311 25.095-116.048-.267-4.485-2.218-8.624-5.495-11.654z"/></g></g></svg>