<svg id="Capa_1" enable-background="new 0 0 511.998 511.998" height="512" viewBox="0 0 511.998 511.998" width="512" xmlns="http://www.w3.org/2000/svg"><g><g><path d="m503.553 142.842c-55.795-24.946-115.937-32.283-115.937-32.283-7.337-45.501-35.229-96.86-35.229-96.86-70.182-11.706-136.569-4.711-180.724 3.486-33.398 6.179-54.085 13.063-54.085 13.063-30.827 44.023-51.37 109.66-51.37 109.66-23.479 7.337-58.708 23.478-58.708 23.478 0 7.458.21 14.652.585 21.526l28.775-4.281 4.402 33.022-29.668 7.094c3.442 24.361 7.845 39.499 7.845 39.499h35.03c0-30.838 21.129-56.733 49.705-64.004 5.23-1.324 10.702-2.03 16.34-2.03 36.476 0 66.034 29.558 66.034 66.034h120.361c0-36.476 29.569-66.034 66.045-66.034s66.034 29.558 66.034 66.034h34.688c10.625-13.957 17.686-29.006 22.331-43.515-11.276-1.534-19.959-11.199-19.959-22.894 0-12.765 10.349-23.115 23.115-23.115 1.732 0 3.42.188 5.042.552.937-17.023-.652-28.432-.652-28.432zm-144.425 19.231c-36.972 5.186-67.468 30.827-79.638 65.074h-65.526c-13.659-38.44-50.389-66.034-93.451-66.034-4.06 0-8.054.254-11.993.728-5.296.629-10.471 1.699-15.48 3.144l4.755-15.193c.177-.541 16.627-52.408 40.724-91.189 3.321-.905 7.37-1.953 12.07-3.089 25.796-6.223 71.352-14.917 124.256-14.917 19.043 0 37.689 1.125 55.641 3.354 7.977 16.958 20.29 46.042 24.449 71.881.001.001 4.877 39.754 4.193 46.241z" fill="#da4a54"/><path d="m171.663 17.185c-5.417 9.257-12.964 22.618-21.073 38.329-4.7 1.136-8.749 2.185-12.07 3.089-24.097 38.782-40.547 90.649-40.724 91.189l-4.755 15.193c5.009-1.445 10.184-2.516 15.48-3.144-2.78 12.159-4.38 23.799-4.347 34.402-28.576 7.271-49.705 33.166-49.705 64.004h-35.03s-4.402-15.138-7.845-39.499l29.668-7.094-4.402-33.022-28.775 4.281c-.375-6.875-.585-14.068-.585-21.527 0 0 35.229-16.142 58.708-23.479 0 0 20.544-65.637 51.371-109.659-.001.001 20.686-6.884 54.084-13.063z" fill="#d82e3d"/><path d="m320.158 312.504h-142.375c-10.994 0-18.576-11.02-14.646-21.288l7.996-20.893c2.323-6.069 8.148-10.077 14.646-10.077h126.382c6.498 0 12.324 4.008 14.646 10.077l7.996 20.893c3.931 10.268-3.65 21.288-14.645 21.288z" fill="#655e66"/><circle cx="120.478" cy="260.247" fill="#c3bec6" r="24.176"/><circle cx="372.953" cy="260.247" fill="#c3bec6" r="24.176"/><path d="m144.555 500.972c-5.859 0-11.424-3.454-13.836-9.194-3.209-7.638.382-16.43 8.019-19.639l178.595-75.034-174.835-57.846c-7.864-2.602-12.131-11.087-9.529-18.953 2.603-7.865 11.083-12.132 18.953-9.529l212.826 70.416c5.937 1.964 10.032 7.406 10.276 13.654.245 6.249-3.413 11.993-9.178 14.416l-215.487 90.534c-1.898.797-3.868 1.175-5.804 1.175z" fill="#b4acb7"/><path d="m360.028 500.972c-1.937 0-3.905-.377-5.804-1.175l-215.487-90.534c-5.765-2.422-9.423-8.167-9.178-14.416.244-6.249 4.34-11.69 10.276-13.654l212.827-70.416c7.869-2.605 16.352 1.665 18.953 9.529s-1.665 16.35-9.529 18.952l-174.836 57.846 178.595 75.034c7.637 3.209 11.228 12.001 8.019 19.639-2.411 5.741-7.976 9.195-13.836 9.195z" fill="#c3bec6"/><path d="m211.144 330.372-45.355 16.594 120.785 39.963 45.807-16.444z" fill="#b4acb7"/></g><g><path d="m510.979 141.81c-.357-2.56-2.007-4.756-4.367-5.812-46.993-21.016-96.248-29.672-112.559-32.119-8.604-44.682-33.954-91.705-35.072-93.763-1.103-2.03-3.079-3.439-5.357-3.819-71.604-11.936-139.219-4.677-183.329 3.513-33.515 6.204-54.217 13.031-55.081 13.318-1.529.508-2.854 1.495-3.777 2.815-9.847 14.064-19.648 31.645-29.13 52.257-1.731 3.763-.084 8.217 3.679 9.948 3.766 1.731 8.218.084 9.948-3.679 8.641-18.782 17.499-34.862 26.354-47.844 6.248-1.915 24.617-7.231 50.742-12.066 42.172-7.83 106.367-14.793 174.457-4.061 6.065 11.805 26.704 53.901 32.729 91.251.532 3.296 3.18 5.844 6.494 6.25.576.071 56.881 7.161 109.818 29.955.267 3.365.549 8.666.449 15.348-15.864 1.123-28.428 14.388-28.428 30.533 0 12.151 7.233 22.906 17.813 27.806-4.278 11.352-9.8 21.775-16.477 31.104h-23.775c-3.77-37.035-35.142-66.03-73.16-66.03s-69.391 28.995-73.16 66.03h-106.12c-3.77-37.035-35.142-66.03-73.16-66.03-6.169 0-12.288.761-18.189 2.261-30.143 7.67-51.878 33.32-54.972 63.769h-22.107c-1.303-5.353-3.321-14.455-5.211-26.306l22.972-5.489c3.741-.894 6.199-4.473 5.691-8.285l-4.399-33.02c-.266-1.992-1.318-3.793-2.924-5.001-1.604-1.208-3.623-1.722-5.614-1.427l-20.544 3.055c-.088-2.686-.149-5.373-.183-8.051 10.114-4.506 35.487-15.553 53.417-21.158 2.347-.733 4.186-2.571 4.92-4.917.04-.127 4.048-12.871 11.011-30.542 1.519-3.854-.374-8.208-4.228-9.727-3.854-1.52-8.209.374-9.728 4.228-4.988 12.657-8.454 22.707-10.16 27.839-23.393 7.771-54.505 21.989-55.887 22.623-2.665 1.221-4.375 3.885-4.375 6.818 0 7.265.199 14.644.591 21.933.113 2.108 1.11 4.071 2.746 5.407s3.757 1.918 5.847 1.609l21.248-3.16 2.5 18.76-23.085 5.516c-3.764.899-6.226 4.515-5.683 8.346 3.485 24.605 7.889 39.902 8.074 40.541.932 3.203 3.866 5.407 7.202 5.407h35.03c4.143 0 7.5-3.358 7.5-7.5 0-26.803 18.114-50.132 44.049-56.731 4.692-1.193 9.568-1.798 14.491-1.798 30.126 0 55.002 22.874 58.187 52.162-6.562 2.131-12.031 7.136-14.569 13.766l-7.996 20.893c-1.942 5.075-2.008 10.594-.329 15.624l-1.53-.506c-11.776-3.887-24.527 2.523-28.424 14.299-3.893 11.783 2.522 24.534 14.295 28.422l40.525 13.41-43.179 14.289c-8.867 2.926-15.065 11.158-15.424 20.472-.373 9.33 5.162 18.025 13.77 21.634l58.368 24.522-58.368 24.519c-5.542 2.328-9.845 6.676-12.117 12.242s-2.241 11.682.087 17.215c.337.803.729 1.57 1.148 2.317h-31.195c-4.143 0-7.5 3.358-7.5 7.5s3.357 7.5 7.5 7.5h314.482c4.143 0 7.5-3.358 7.5-7.5s-3.357-7.5-7.5-7.5h-28.614c.418-.745.81-1.51 1.146-2.312 2.329-5.537 2.362-11.652.092-17.218-2.271-5.566-6.57-9.914-12.111-12.244l-58.359-24.515 23.129-9.716c3.819-1.604 5.614-6 4.011-9.819-1.604-3.819-6.002-5.612-9.819-4.01l-36.69 15.412-19.38-8.143 48.588-20.41c2.883-1.211 4.712-4.083 4.59-7.208s-2.17-5.845-5.139-6.827l-174.833-57.852c-3.923-1.296-6.06-5.547-4.763-9.472 1.299-3.924 5.548-6.06 9.474-4.766l212.833 70.421c2.948.975 5.01 3.714 5.129 6.829.124 3.106-1.717 6.002-4.58 7.205l-7.739 3.25c-3.818 1.604-5.614 6-4.011 9.819 1.604 3.82 6 5.615 9.819 4.011l7.739-3.25c8.604-3.614 14.133-12.308 13.76-21.622-.356-9.323-6.55-17.555-15.408-20.483l-43.188-14.29 40.527-13.409c11.774-3.894 18.188-16.644 14.294-28.434-3.908-11.766-16.657-18.175-28.435-14.287l-9.179 3.037c2.665-5.66 2.959-12.213.685-18.156l-7.997-20.893c-3.082-8.053-10.49-13.7-18.928-14.715 3.615-28.83 28.267-51.212 58.066-51.212 32.279 0 58.54 26.256 58.54 58.53 0 4.142 3.357 7.5 7.5 7.5h34.68c2.342 0 4.549-1.093 5.967-2.957 10.14-13.316 18.052-28.714 23.516-45.765.676-2.111.384-4.413-.798-6.289-1.183-1.875-3.134-3.131-5.33-3.431-7.682-1.049-13.475-7.699-13.475-15.469 0-8.607 7.003-15.61 15.61-15.61 1.156 0 2.305.125 3.414.372 2.152.477 4.401-.014 6.156-1.345 1.755-1.33 2.837-3.365 2.958-5.563.969-17.546-.641-29.384-.709-29.879zm-373.375 341.322c.758-1.856 2.193-3.306 4.04-4.083l71.921-30.213 19.365 8.136-85.482 35.91c-.933.393-1.908.592-2.899.592-3.026 0-5.74-1.807-6.917-4.608-.775-1.843-.784-3.879-.028-5.734zm38.785 13.863 75.905-31.887 75.898 31.887zm190.587-13.865c.757 1.856.747 3.893-.03 5.741-1.175 2.796-3.889 4.604-6.915 4.604-.991 0-1.967-.199-2.905-.595l-215.484-90.532c-2.868-1.203-4.711-4.098-4.587-7.215.119-3.103 2.184-5.841 5.143-6.818l62.346-20.631 23.874 7.9-43.522 14.401c-2.969.982-5.017 3.703-5.139 6.827s1.707 5.997 4.59 7.208l178.596 75.029c1.843.775 3.276 2.225 4.033 4.081zm-114.692-66.837-43.68-18.354 43.688-14.455 43.685 14.455zm102.729-98.397c3.929-1.298 8.185.844 9.486 4.761 1.297 3.927-.84 8.179-4.765 9.477l-59.693 19.75-23.875-7.9zm-102.722 18.189-48.601-16.081h97.201zm67.513-63.081 7.996 20.893c.978 2.554.649 5.31-.9 7.563-1.55 2.252-4.007 3.544-6.741 3.544h-142.376c-2.734 0-5.191-1.292-6.741-3.544-1.55-2.253-1.878-5.009-.9-7.563l7.995-20.892c1.204-3.145 4.275-5.258 7.643-5.258h126.383c3.366 0 6.438 2.113 7.641 5.257z"/><path d="m95.119 172.192c4.717-1.361 9.522-2.337 14.298-2.904 43.083-5.19 83.282 20.415 97.479 60.371 1.063 2.991 3.894 4.989 7.067 4.989h65.526c3.174 0 6.004-1.998 7.067-4.989 11.496-32.351 39.702-55.401 73.612-60.158 3.409-.478 6.056-3.216 6.417-6.64.718-6.81-3.039-38.416-4.207-47.94-.012-.093-.024-.186-.04-.279-4.164-25.87-15.93-54.456-25.066-73.882-1.096-2.329-3.309-3.934-5.863-4.25-18.232-2.264-37.264-3.411-56.564-3.411-52.332 0-97.412 8.226-126.019 15.127-4.372 1.057-8.504 2.114-12.278 3.143-1.828.498-3.399 1.669-4.399 3.278-23.509 37.834-39.703 87.274-41.473 92.787-.006.017-.033.103-.038.12l-4.756 15.193c-.825 2.635-.136 5.51 1.795 7.484 1.929 1.972 4.789 2.727 7.442 1.961zm230.326-121.287c7.278 15.894 18.268 42.561 22.063 65.983 1.732 14.135 3.438 30.348 4.003 38.893-16.933 3.475-32.813 11.057-46.271 22.142-13.615 11.214-24.222 25.558-30.901 41.724h-25.268v-170.853c8.346-.442 16.958-.696 25.774-.696 17.235 0 34.236.944 50.6 2.807zm-220.52 101.219c.004-.013.03-.095.034-.108 1.673-5.21 16.661-50.979 38.392-86.942 2.836-.747 5.851-1.507 8.998-2.268 16.724-4.035 46.094-10.074 81.723-12.998v169.839h-14.955c-16.392-39.711-55.36-66.034-98.604-66.034-4.247 0-8.584.263-12.878.78-1.189.142-2.382.305-3.574.489z"/><path d="m120.478 291.923c17.467 0 31.677-14.21 31.677-31.676s-14.21-31.676-31.677-31.676-31.677 14.21-31.677 31.676 14.21 31.676 31.677 31.676zm0-48.352c9.195 0 16.677 7.481 16.677 16.676s-7.481 16.676-16.677 16.676-16.677-7.481-16.677-16.676c0-9.196 7.481-16.676 16.677-16.676z"/><path d="m341.276 260.247c0 17.466 14.21 31.676 31.677 31.676 17.466 0 31.676-14.21 31.676-31.676s-14.21-31.676-31.676-31.676c-17.467 0-31.677 14.209-31.677 31.676zm48.353 0c0 9.195-7.48 16.676-16.676 16.676s-16.677-7.481-16.677-16.676 7.481-16.676 16.677-16.676 16.676 7.48 16.676 16.676z"/></g></g></svg>