<svg id="Capa_1" enable-background="new 0 0 511.98 511.98" height="512" viewBox="0 0 511.98 511.98" width="512" xmlns="http://www.w3.org/2000/svg"><g><g><path d="m413.556 345.031h-23.882v-138.332h23.882c10.317 0 18.681 8.364 18.681 18.681v100.97c.001 10.317-8.363 18.681-18.681 18.681z" fill="#e27d47"/><path d="m169.111 7.502h-21.752c-13.093 0-23.707 10.614-23.707 23.707v136.917h69.166v-136.917c0-13.093-10.614-23.707-23.707-23.707z" fill="#e27d47"/><path d="m169.55 7.51c-12.9.22-23.279 10.75-23.279 23.699v136.915h-22.619v-136.915c0-13.09 10.62-23.709 23.709-23.709h21.759c.14 0 .29 0 .43.01z" fill="#dd6938"/><path d="m406.075 373.308c-.7 22.929-30.753 24.61-32.283 47.539-2.07 30.839-26.409 55.518-57.198 58.118-68.097 5.73-92.811 3.677-160.918-2.053-30.789-2.6-55.128-27.279-57.198-58.118-1.54-22.929-17.121-22.558-17.821-45.487-1.94-62.217-.81-124.445 3.36-186.663 2.07-30.839 26.409-55.518 57.198-58.118 68.107-5.73 136.205-5.73 204.302 0 30.789 2.6 55.128 27.279 57.198 58.118 4.17 62.219 5.3 124.446 3.36 186.664z" fill="#655e66"/><path d="m170.206 478.042c-4.84-.35-9.69-.72-14.529-1.13-30.789-2.6-55.128-27.279-57.198-58.118-1.54-22.929-17.121-22.558-17.821-45.487-1.94-62.217-.81-124.445 3.36-186.663 2.07-30.839 26.409-55.518 57.198-58.118 4.84-.41 9.69-.79 14.529-1.13-17.849 10.87-30.099 29.939-31.579 51.988-4.41 65.757-5.6 131.515-3.55 197.272.74 24.229 1.92 48.448 3.55 72.687 1.48 22.051 28.19 17.829 46.04 28.699z" fill="#535057"/><path d="m406.075 373.308c-.7 22.929-1.83 45.848-3.36 68.777-2.07 30.839-26.409 55.518-57.198 58.118-63.258 5.32-126.515 5.7-189.773 1.13h-.1c-4.81-.35-9.62-.73-14.429-1.13-30.789-2.6-55.128-27.279-57.198-58.118-1.54-22.929-2.66-45.848-3.36-68.777 8.18-2.34 22.409-5.95 39.628-8.38 2.75-.39 5.58-.75 8.48-1.07 16.379-1.81 31.769 8.049 37.019 23.669 1.78 5.31 3.52 11.159 4.95 17.239 3.7 15.709 17.839 26.719 33.969 26.719h77.327c16.129 0 30.279-11.01 33.969-26.719 1.43-6.08 3.17-11.929 4.96-17.239 5.25-15.62 20.639-25.479 37.009-23.669 20.998 2.31 38.618 6.73 48.107 9.45z" fill="#e27d47"/><path d="m155.745 501.333h-.1c-4.81-.35-9.62-.73-14.429-1.13-30.789-2.6-55.128-27.279-57.198-58.118-1.54-22.929-2.66-45.848-3.36-68.777 8.18-2.34 22.409-5.95 39.628-8.38.7 28.139 2 56.278 3.88 84.417 1.48 22.049 13.73 41.118 31.579 51.988z" fill="#dd6938"/><path d="m333.852 163.154c-60.323-2.239-120.646-2.239-180.97 0-21.018.78-38.309 17.025-40.149 37.976-1.261 14.354-1.261 28.707 0 43.061 1.84 20.951 19.132 37.196 40.149 37.976 60.323 2.239 120.646 2.239 180.97 0 21.018-.78 38.309-17.025 40.149-37.976 1.261-14.354 1.261-28.707 0-43.061-1.84-20.951-19.131-37.196-40.149-37.976z" fill="#78d0b1"/><path d="m174.571 282.867c-7.23-.2-14.459-.43-21.689-.7-21.009-.78-38.308-17.029-40.148-37.978-1.26-14.36-1.26-28.709 0-43.058 1.84-20.959 19.139-37.199 40.148-37.979 7.23-.27 14.459-.5 21.689-.71-16.199 5.37-28.309 19.889-29.869 37.629-1.33 15.059-1.33 30.119 0 45.168 1.56 17.739 13.67 32.258 29.869 37.628z" fill="#66b49d"/></g><g><path d="m413.555 199.194h-2.531c-.262-4.354-.534-8.705-.826-13.052-1.121-16.7-8.213-32.471-19.969-44.409-11.746-11.927-27.401-19.271-44.083-20.68-48.352-4.068-97.189-5.237-145.829-3.536v-86.307c0-17.209-14-31.21-31.21-31.21h-21.75c-17.209 0-31.21 14-31.21 31.21v23.26c0 4.142 3.358 7.5 7.5 7.5s7.5-3.358 7.5-7.5v-23.26c0-8.938 7.272-16.21 16.21-16.21h21.75c8.938 0 16.21 7.272 16.21 16.21v86.926c-14.943.706-29.861 1.667-44.733 2.918-3.19.269-6.342.76-9.437 1.454v-38.238c0-4.142-3.358-7.5-7.5-7.5s-7.5 3.358-7.5 7.5v43.45c-7.253 3.48-13.916 8.197-19.645 14.014-11.756 11.938-18.848 27.709-19.969 44.41-4.173 62.273-5.308 125.323-3.373 187.393.699 22.896 1.833 46.128 3.373 69.051 1.121 16.7 8.213 32.471 19.969 44.409 11.746 11.927 27.401 19.271 44.083 20.68 34.103 2.869 68.443 4.304 102.783 4.304s68.68-1.435 102.778-4.304c16.681-1.409 32.336-8.753 44.082-20.68 11.756-11.938 18.848-27.709 19.969-44.412 1.548-23.203 2.683-46.432 3.373-69.043.218-6.997.392-14.008.532-21.027 14.182-.294 25.631-11.914 25.631-26.165v-100.966c.001-14.441-11.743-26.19-26.178-26.19zm-34.013 277.277c-9.234 9.377-21.542 15.151-34.654 16.258-67.359 5.668-135.673 5.669-203.042 0-13.114-1.107-25.421-6.881-34.656-16.258-9.237-9.38-14.809-21.771-15.689-34.889-1.396-20.778-2.438-41.801-3.139-62.606 9.511-2.488 24.254-5.795 41.229-7.662 12.959-1.436 24.923 6.218 29.085 18.6 1.917 5.717 3.519 11.293 4.761 16.575 4.507 19.136 21.478 32.501 41.271 32.501h77.32c19.805 0 36.776-13.367 41.263-32.469.222-.925.443-1.841.674-2.748 1.024-4.014-1.4-8.097-5.414-9.121s-8.097 1.4-9.121 5.414c-.249.974-.487 1.958-.734 2.989-2.895 12.326-13.862 20.935-26.668 20.935h-77.32c-12.799 0-23.766-8.611-26.669-20.938-1.348-5.729-3.077-11.753-5.142-17.913-6.329-18.829-25.231-30.915-44.95-28.735-15.99 1.759-30.087 4.73-40.058 7.215-1.527-58.527-.317-117.846 3.612-176.472.88-13.118 6.452-25.508 15.689-34.889 9.234-9.377 21.542-15.151 34.654-16.258 33.689-2.834 67.603-4.25 101.526-4.25 33.916 0 67.841 1.417 101.516 4.25 13.114 1.107 25.421 6.881 34.656 16.258 9.237 9.38 14.809 21.771 15.689 34.888 3.929 58.627 5.139 117.946 3.612 176.473-9.97-2.484-24.065-5.456-40.052-7.214-13.181-1.457-26.486 3.445-35.586 13.115-2.838 3.016-2.694 7.763.322 10.602 1.448 1.363 3.295 2.038 5.138 2.038 1.996 0 3.987-.792 5.463-2.36 5.887-6.256 14.494-9.43 23.018-8.485 16.98 1.868 31.727 5.176 41.237 7.665-.695 20.567-1.751 41.593-3.153 62.603-.879 13.118-6.45 25.508-15.688 34.888zm45.192-150.121c0 5.897-4.593 10.73-10.388 11.139.493-40.989-.342-82.251-2.485-123.294h1.693c6.164 0 11.179 5.02 11.179 11.189v100.966z"/><path d="m381.473 244.847c1.293-14.722 1.293-29.651 0-44.373-2.163-24.627-22.515-43.893-47.342-44.814-60.227-2.235-121.3-2.235-181.526 0-24.827.921-45.18 20.188-47.342 44.814-1.293 14.722-1.293 29.651 0 44.373 2.163 24.627 22.515 43.893 47.342 44.814 30.113 1.118 60.438 1.676 90.763 1.676s60.65-.559 90.763-1.676c24.826-.921 45.179-20.187 47.342-44.814zm-228.312 29.825c-17.286-.642-31.454-14.028-32.957-31.138-1.217-13.851-1.217-27.897 0-41.748 1.502-17.11 15.671-30.496 32.957-31.138 29.928-1.11 60.067-1.666 90.207-1.666s60.278.555 90.207 1.666c17.286.642 31.454 14.028 32.956 31.138 1.216 13.851 1.216 27.897 0 41.748-1.502 17.11-15.67 30.496-32.956 31.138-59.857 2.221-120.558 2.221-180.414 0z"/><path d="m279.28 333.268c4.142 0 7.5-3.358 7.5-7.5s-3.358-7.5-7.5-7.5h-71.826c-4.142 0-7.5 3.358-7.5 7.5s3.358 7.5 7.5 7.5z"/><path d="m295.242 350.19h-103.749c-4.142 0-7.5 3.358-7.5 7.5s3.358 7.5 7.5 7.5h103.749c4.142 0 7.5-3.358 7.5-7.5s-3.358-7.5-7.5-7.5z"/><path d="m279.28 382.113h-71.826c-4.142 0-7.5 3.358-7.5 7.5s3.358 7.5 7.5 7.5h71.826c4.142 0 7.5-3.358 7.5-7.5s-3.358-7.5-7.5-7.5z"/><path d="m228.155 181.575h-13.884c-11.584 0-21.008 9.424-21.008 21.008v35.831c0 11.584 9.424 21.008 21.008 21.008h13.884c11.584 0 21.008-9.424 21.008-21.008v-35.831c0-11.583-9.424-21.008-21.008-21.008zm6.008 56.84c0 3.313-2.695 6.008-6.008 6.008h-13.884c-3.313 0-6.008-2.695-6.008-6.008v-35.831c0-3.313 2.695-6.008 6.008-6.008h13.884c3.313 0 6.008 2.695 6.008 6.008z"/><path d="m292.491 181.575h-13.884c-11.584 0-21.008 9.424-21.008 21.008v35.831c0 11.584 9.424 21.008 21.008 21.008h13.884c11.584 0 21.008-9.424 21.008-21.008v-35.831c0-11.583-9.424-21.008-21.008-21.008zm6.008 56.84c0 3.313-2.695 6.008-6.008 6.008h-13.884c-3.313 0-6.008-2.695-6.008-6.008v-35.831c0-3.313 2.695-6.008 6.008-6.008h13.884c3.313 0 6.008 2.695 6.008 6.008z"/><path d="m331.083 181.575c-4.142 0-7.5 3.358-7.5 7.5v62.848c0 4.142 3.358 7.5 7.5 7.5s7.5-3.358 7.5-7.5v-62.848c0-4.142-3.358-7.5-7.5-7.5z"/></g></g></svg>