<svg id="Capa_1" enable-background="new 0 0 511.921 511.921" height="512" viewBox="0 0 511.921 511.921" width="512" xmlns="http://www.w3.org/2000/svg"><g><g><g><path d="m179.093 450.625 10.628-55.3 66.24-24.677 66.239 24.677 10.628 55.3-76.867 17.292z" fill="#535057"/><path d="m50.521 388.764c136.96 9.766 273.919 9.766 410.879 0 17.727-1.264 32.033-14.889 34.193-32.529 11.824-96.564 11.824-193.129 0-289.693-2.16-17.64-16.466-31.265-34.192-32.529-136.96-9.766-273.919-9.766-410.879 0-17.727 1.264-32.032 14.889-34.192 32.529-11.824 96.564-11.824 193.128 0 289.693 2.159 17.64 16.464 31.265 34.191 32.529z" fill="#655e66"/><path d="m59.349 389.374c-2.94-.2-5.88-.4-8.82-.61-17.73-1.27-32.04-14.89-34.2-32.53-11.82-96.57-11.82-193.13 0-289.7 2.16-17.64 16.47-31.26 34.2-32.53 2.94-.21 5.88-.41 8.82-.61-6.44 6.14-10.8 14.45-11.95 23.81-12.59 102.79-12.59 205.57 0 308.36 1.15 9.361 5.51 17.671 11.95 23.81z" fill="#535057"/><path d="m42.725 321.453c.826 8.684 7.854 15.468 16.559 16.039 65.367 4.291 131.445 6.467 196.677 6.467s131.31-2.176 196.677-6.467c8.705-.571 15.733-7.355 16.559-16.039 7.947-83.561 6.822-167.935-3.381-251.264-.414-3.381-3.168-6.011-6.549-6.252-67.453-4.81-135.854-7.249-203.306-7.249s-135.853 2.439-203.306 7.249c-3.381.241-6.135 2.871-6.549 6.252-10.203 83.33-11.328 167.703-3.381 251.264z" fill="#f9f6f9"/><path d="m373.37 485.209h-234.819c-9.55 0-17.292-7.742-17.292-17.292 0-9.55 7.742-17.292 17.292-17.292h234.819c9.55 0 17.292 7.742 17.292 17.292 0 9.55-7.742 17.292-17.292 17.292z" fill="#655e66"/><path d="m185.179 485.207h-46.63c-9.55 0-17.29-7.74-17.29-17.29 0-4.77 1.94-9.1 5.06-12.23 3.13-3.12 7.46-5.06 12.23-5.06h46.63c-4.78 0-9.1 1.94-12.23 5.06-3.13 3.13-5.06 7.46-5.06 12.23 0 9.55 7.74 17.29 17.29 17.29z" fill="#535057"/></g><path d="m114.383 210.644c-17.998 0-32.589 14.591-32.589 32.589v57.862h65.178v-57.862c0-17.998-14.59-32.589-32.589-32.589z" fill="#9dc6fb"/><path d="m353.148 250.549h-65.178c-13.958 0-25.273 11.315-25.273 25.273 0 13.958 11.315 25.273 25.273 25.273h65.178c13.958 0 25.273-11.315 25.273-25.273 0-13.958-11.315-25.273-25.273-25.273z" fill="#9dc6fb"/><path d="m278.659 194.682-35.359-25.12c-7.099-5.044-16.932.032-16.932 8.741v32.759c0 8.709 9.833 13.784 16.932 8.741z" fill="#da4a54"/><path d="m278.659 194.682 35.359 25.12c7.099 5.044 16.932-.032 16.932-8.741v-32.759c0-8.709-9.833-13.784-16.932-8.741z" fill="#da4a54"/><path d="m397.261 153.447h-40.341c-9.43 0-17.074-7.644-17.074-17.074v-32.36c0-9.43 7.644-17.074 17.074-17.074h40.341c9.43 0 17.074 7.644 17.074 17.074v32.36c0 9.43-7.644 17.074-17.074 17.074z" fill="#9dc6fb"/></g><g><path d="m503.035 65.627c-2.587-21.135-19.872-37.579-41.101-39.099-118.549-8.453-238.772-9.585-357.326-3.369-4.137.217-7.314 3.746-7.097 7.882.217 4.137 3.769 7.309 7.882 7.097 117.939-6.185 237.538-5.058 355.472 3.351 14.089 1.009 25.563 11.927 27.281 25.961 11.7 95.51 11.7 192.366 0 287.876-1.718 14.033-13.191 24.951-27.279 25.96-135.966 9.689-273.847 9.69-409.811 0-14.09-1.009-25.563-11.927-27.281-25.961-11.7-95.51-11.7-192.366 0-287.876 1.718-14.033 13.192-24.951 27.275-25.96 8.174-.579 16.429-1.132 24.535-1.646 4.134-.262 7.272-3.826 7.01-7.959-.262-4.134-3.823-7.276-7.959-7.01-8.142.516-16.434 1.073-24.651 1.654-21.226 1.52-38.511 17.964-41.099 39.098-11.849 96.721-11.849 194.804 0 291.524 2.587 21.135 19.872 37.579 41.101 39.099 43.415 3.094 87.023 5.201 130.703 6.33l-7.793 40.55h-34.346c-6.611 0-12.835 2.574-17.542 7.266-4.674 4.689-7.248 10.913-7.248 17.524 0 13.669 11.121 24.79 24.79 24.79h190c4.142 0 7.5-3.358 7.5-7.5s-3.358-7.5-7.5-7.5h-190c-5.398 0-9.79-4.392-9.79-9.79 0-2.614 1.02-5.077 2.854-6.918 1.858-1.852 4.321-2.872 6.936-2.872h234.82c5.398 0 9.79 4.392 9.79 9.79 0 2.614-1.02 5.077-2.854 6.917-1.858 1.852-4.322 2.872-6.936 2.872h-14.92c-4.142 0-7.5 3.358-7.5 7.5s3.358 7.5 7.5 7.5h14.92c6.611 0 12.834-2.574 17.542-7.266 4.674-4.689 7.248-10.913 7.248-17.524 0-13.669-11.121-24.79-24.79-24.79h-34.346l-7.793-40.55c43.68-1.128 87.29-3.235 130.705-6.329 21.226-1.521 38.511-17.964 41.098-39.099 11.849-96.72 11.849-194.802 0-291.523zm-179.285 377.502h-135.579l7.726-40.199c20.013.412 40.037.625 60.063.625 20.025 0 40.051-.213 60.064-.625z"/><path d="m476.663 322.163c7.995-84.068 6.85-169.151-3.403-252.886-.849-6.933-6.509-12.326-13.46-12.821-67.632-4.822-136.214-7.268-203.839-7.268s-136.207 2.445-203.839 7.268c-6.95.496-12.61 5.888-13.459 12.821-10.253 83.735-11.398 168.818-3.403 252.886 1.18 12.401 11.077 21.995 23.534 22.813 65.53 4.302 131.867 6.483 197.168 6.483s131.638-2.181 197.168-6.483c12.456-.817 22.353-10.412 23.533-22.813zm-220.702 14.296c-64.975 0-130.981-2.17-196.186-6.451-5.074-.333-9.105-4.229-9.584-9.266-7.883-82.894-6.766-166.781 3.323-249.349 67.176-4.782 135.282-7.206 202.446-7.206s135.271 2.424 202.446 7.207c10.089 82.568 11.207 166.455 3.323 249.348-.479 5.036-4.51 8.933-9.584 9.266-65.203 4.281-131.21 6.451-196.184 6.451z"/><path d="m248.461 370.648v.5c0 4.142 3.358 7.5 7.5 7.5s7.5-3.358 7.5-7.5v-.5c0-4.142-3.358-7.5-7.5-7.5s-7.5 3.358-7.5 7.5z"/><path d="m391.439 187.182h-52.99v-8.879c0-6.847-3.78-13.051-9.864-16.192-6.084-3.142-13.331-2.629-18.912 1.337l-31.015 22.034-31.015-22.034c-5.581-3.966-12.827-4.479-18.912-1.337-6.084 3.141-9.864 9.345-9.864 16.192v8.879h-33.96c-7.981 0-14.474-6.493-14.474-14.474v-42.513c0-7.981 6.493-14.474 14.474-14.474h79.223l-16.196 11.506c-3.376 2.399-4.169 7.081-1.771 10.458 1.463 2.059 3.774 3.157 6.121 3.157 1.502 0 3.02-.45 4.337-1.386l33.408-23.734h42.315v20.651c0 13.55 11.024 24.574 24.574 24.574h40.341c13.55 0 24.574-11.024 24.574-24.574v-32.36c0-13.55-11.024-24.574-24.574-24.574h-40.339c-12.434 0-22.733 9.284-24.347 21.283h-42.542l-33.408-23.735c-3.376-2.399-8.059-1.606-10.458 1.771s-1.606 8.059 1.771 10.458l16.196 11.506h-79.223c-16.252 0-29.474 13.222-29.474 29.474v42.513c0 16.252 13.222 29.474 29.474 29.474h33.96v8.879c0 6.847 3.779 13.051 9.864 16.192 2.647 1.366 5.514 2.041 8.368 2.041 3.706 0 7.391-1.138 10.544-3.378l31.015-22.034 31.015 22.034c3.153 2.241 6.838 3.379 10.544 3.379 2.854 0 5.721-.675 8.367-2.041 6.084-3.141 9.864-9.345 9.864-16.192v-8.879h52.99c9.223 0 16.727 7.503 16.727 16.726v32.688c0 9.223-7.503 16.726-16.727 16.726h-6.394c-3.402-14.467-16.407-25.273-31.897-25.273h-65.179c-15.962 0-29.287 11.473-32.183 26.604h-101.315v-26.419c0-22.105-17.984-40.089-40.089-40.089s-40.089 17.984-40.089 40.089v57.862c0 4.142 3.358 7.5 7.5 7.5h65.178c4.142 0 7.5-3.358 7.5-7.5v-16.443h101.942c3.866 13.794 16.543 23.943 31.555 23.943h65.178c15.49 0 28.496-10.806 31.897-25.273h6.394c17.494 0 31.727-14.232 31.727-31.726v-32.688c.001-17.496-14.232-31.729-31.726-31.729zm5.822-41.235h-38.578l48.151-40.751v31.177c.001 5.279-4.294 9.574-9.573 9.574zm-40.341-51.508h39.405l-48.98 41.452v-31.879c.001-5.278 4.296-9.573 9.575-9.573zm-117.964 119.249c-1.392.989-2.692.573-3.344.236-.651-.336-1.744-1.155-1.744-2.863v-32.759c0-1.708 1.093-2.527 1.744-2.863.347-.179.878-.381 1.51-.381.553 0 1.184.155 1.834.618l26.752 19.006zm84.493-2.627c0 1.708-1.093 2.527-1.744 2.863-.65.337-1.952.753-3.344-.237l-26.753-19.006 26.753-19.006c1.392-.988 2.692-.573 3.344-.236s1.744 1.155 1.744 2.863zm-209.065 7.083c11.222 0 20.747 7.407 23.943 17.589h-47.887c3.197-10.182 12.721-17.589 23.944-17.589zm-25.09 75.451v-42.862h50.178v42.862zm263.854 0h-65.178c-9.8 0-17.773-7.973-17.773-17.773s7.973-17.773 17.773-17.773h65.178c9.8 0 17.773 7.973 17.773 17.773s-7.973 17.773-17.773 17.773z"/><path d="m79.134 117.717h36.912c4.142 0 7.5-3.358 7.5-7.5s-3.358-7.5-7.5-7.5h-36.912c-4.142 0-7.5 3.358-7.5 7.5s3.358 7.5 7.5 7.5z"/><path d="m79.134 142.657h36.912c4.142 0 7.5-3.358 7.5-7.5s-3.358-7.5-7.5-7.5h-36.912c-4.142 0-7.5 3.358-7.5 7.5s3.358 7.5 7.5 7.5z"/><path d="m116.046 167.931c4.142 0 7.5-3.358 7.5-7.5s-3.358-7.5-7.5-7.5h-36.912c-4.142 0-7.5 3.358-7.5 7.5s3.358 7.5 7.5 7.5z"/></g></g></svg>