<svg id="Capa_1" enable-background="new 0 0 512 512" height="512" viewBox="0 0 512 512" width="512" xmlns="http://www.w3.org/2000/svg"><g><g><path d="m330.489 326.42c-22.613 0-121.932 0-148.978 0-19.898-38.874-19.898-98.275 0-137.149h148.978c19.898 38.874 19.898 98.275 0 137.149z" fill="#da4a54"/><path d="m334.749 7.5c-.12 18.13-1.55 36.25-4.26 54.39-51.88 4.2-103.75 4.2-155.63 0-2.72-18.14-4.14-36.26-4.26-54.39z" fill="#655e66"/><path d="m250.209 65.03c-25.11-.06-50.23-1.11-75.35-3.14-2.72-18.14-4.14-36.26-4.26-54.39h40.51c.06 18.13.78 36.25 2.16 54.39 12.32 1.97 24.63 3.01 36.94 3.14z" fill="#535057"/><path d="m450.429 427.51-7.72 33.92-9.8 43.07h-360.47l-17.52-76.99 171.19-45.45 39.2-10.41 42.97 12.97z" fill="#c3bec6"/><path d="m442.709 461.43h-307.09l4.1 43.07h-67.28l-17.52-76.99 171.19-45.45 82.17 2.56 142.15 42.89z" fill="#b4acb7"/><g fill="#f9f6f9"><g><path d="m439.927 279.237.653-1.949c2.302-6.873 9.533-10.789 16.547-8.963l21.575 5.618c7.728 2.012 12.135 10.148 9.599 17.72l-1.622 4.842c-2.536 7.572-10.955 11.412-18.336 8.363l-20.606-8.511c-6.699-2.765-10.112-10.247-7.81-17.12z"/><path d="m444.65 211.099-.409-2.014c-1.443-7.103 2.861-14.11 9.848-16.035l21.493-5.922c7.699-2.121 15.583 2.721 17.173 10.547l1.016 5.004c1.589 7.826-3.781 15.361-11.698 16.411l-22.101 2.932c-7.183.953-13.879-3.82-15.322-10.923z"/></g><g><path d="m72.073 279.237-.653-1.949c-2.302-6.873-9.533-10.789-16.547-8.963l-21.575 5.618c-7.728 2.012-12.135 10.148-9.599 17.72l1.622 4.842c2.536 7.572 10.955 11.412 18.336 8.363l20.606-8.511c6.699-2.765 10.112-10.247 7.81-17.12z"/><path d="m67.35 211.099.409-2.014c1.443-7.103-2.861-14.11-9.848-16.035l-21.493-5.922c-7.699-2.121-15.583 2.721-17.173 10.547l-1.016 5.004c-1.589 7.826 3.781 15.361 11.698 16.411l22.101 2.932c7.183.953 13.879-3.82 15.322-10.923z"/></g></g><path d="m450.43 427.512h-395.511c-15.302 0-27.707-12.405-27.707-27.707v-45.678c0-15.302 12.405-27.707 27.707-27.707h395.511c15.302 0 27.707 12.405 27.707 27.707v45.678c0 15.302-12.405 27.707-27.707 27.707z" fill="#655e66"/><path d="m138.722 427.507h-83.8c-15.3 0-27.71-12.4-27.71-27.71v-45.67c0-15.31 12.41-27.71 27.71-27.71h83.8c-15.3 0-27.71 12.4-27.71 27.71v45.67c0 15.31 12.41 27.71 27.71 27.71z" fill="#535057"/><path d="m404.418 189.27h-303.487c-11.742 0-21.261-9.519-21.261-21.261v-35.05c0-11.742 9.519-21.261 21.261-21.261h303.487c11.742 0 21.261 9.519 21.261 21.261v35.05c0 11.742-9.519 21.261-21.261 21.261z" fill="#655e66"/><path d="m162.78 189.269h-61.85c-11.74 0-21.26-9.52-21.26-21.26v-35.05c0-11.74 9.52-21.26 21.26-21.26h61.85c-11.74 0-21.26 9.52-21.26 21.26v35.05c0 11.74 9.52 21.26 21.26 21.26z" fill="#535057"/><path d="m370.967 112.072c-78.862 1.712-157.723 1.712-236.585 0-10.985-.238-20.36-8.126-22.395-18.923-1.455-7.719-1.455-15.438 0-23.156 2.036-10.797 11.41-18.685 22.395-18.923 78.862-1.712 157.723-1.712 236.585 0 10.985.238 20.36 8.126 22.395 18.923 1.455 7.719 1.455 15.438 0 23.156-2.035 10.797-11.41 18.684-22.395 18.923z" fill="#c3bec6"/><path d="m193.967 113.032c-19.86-.21-39.72-.53-59.58-.96-10.99-.24-20.36-8.12-22.4-18.92-1.45-7.72-1.45-15.44 0-23.16 2.04-10.79 11.41-18.68 22.4-18.92 19.87-.43 39.74-.75 59.62-.96-9.56 1.94-17.26 9.48-19.12 19.33-1.52 8.09-1.52 16.17 0 24.26 1.86 9.84 9.54 17.38 19.08 19.33z" fill="#b4acb7"/><path d="m234.381 326.42h-52.87c-19.9-38.878-19.9-98.271 0-137.15h52.87c-19.9 38.879-19.9 98.272 0 137.15z" fill="#d82e3d"/></g><g><path d="m480.591 266.686-21.574-5.618c-10.786-2.806-22.009 3.271-25.549 13.84l-.652 1.948c-3.539 10.568 1.756 22.18 12.058 26.435l20.605 8.511c2.595 1.072 5.359 1.606 8.124 1.606 3.022 0 6.044-.639 8.837-1.913 5.347-2.439 9.483-7.034 11.35-12.606l1.622-4.842c1.867-5.573 1.332-11.732-1.467-16.899-2.8-5.169-7.667-8.981-13.354-10.462zm.598 22.596-1.622 4.842c-.56 1.669-1.75 2.992-3.353 3.723-1.601.731-3.381.764-5.009.09l-20.605-8.511c-3.042-1.256-4.606-4.686-3.561-7.806 0 0 0-.001.001-.001l.651-1.948c.874-2.607 3.33-4.289 5.972-4.289.521 0 1.05.065 1.574.202l21.574 5.618c1.704.444 3.104 1.541 3.943 3.089.84 1.549.993 3.321.435 4.991z"/><path d="m501.122 201.186-1.017-5.004c-1.17-5.759-4.713-10.826-9.721-13.902-5.009-3.076-11.131-3.944-16.794-2.383l-21.493 5.922c-10.745 2.96-17.425 13.836-15.206 24.759l.409 2.014c2.029 9.997 10.906 17.05 20.867 17.049.923 0 1.855-.061 2.792-.185l22.101-2.932c5.825-.773 11.123-3.961 14.534-8.746 3.412-4.785 4.698-10.832 3.528-16.592zm-15.741 7.886c-1.022 1.434-2.547 2.352-4.293 2.583l-22.102 2.932c-3.258.432-6.331-1.754-6.986-4.98l-.409-2.014c-.654-3.226 1.318-6.438 4.491-7.312l21.493-5.922c.56-.154 1.125-.23 1.687-.23 1.143 0 2.267.316 3.273.934 1.5.921 2.521 2.38 2.871 4.106l1.017 5.003c.349 1.725-.021 3.466-1.042 4.9z"/><path d="m29.562 311.495c2.793 1.274 5.813 1.913 8.836 1.913 2.764 0 5.53-.534 8.124-1.605l20.605-8.511c10.302-4.254 15.599-15.866 12.059-26.436l-.652-1.947c-3.54-10.568-14.766-16.649-25.548-13.839l-21.575 5.618c-5.688 1.48-10.555 5.293-13.354 10.461-2.799 5.167-3.334 11.327-1.467 16.899l1.622 4.842c1.865 5.571 6.002 10.166 11.35 12.605zm1.683-27.203c.838-1.549 2.239-2.646 3.943-3.09l21.575-5.618c.525-.136 1.053-.202 1.574-.202 2.642 0 5.098 1.682 5.971 4.29l.653 1.948c1.045 3.121-.519 6.55-3.562 7.806l-20.606 8.512c-1.627.672-3.406.64-5.008-.091-1.603-.731-2.793-2.053-3.353-3.723l-1.622-4.842c-.558-1.67-.404-3.442.435-4.99z"/><path d="m28.939 226.525 22.1 2.931c.938.125 1.869.185 2.792.185 9.96 0 18.838-7.053 20.869-17.049l.409-2.015c2.218-10.923-4.461-21.798-15.207-24.758l-21.493-5.922c-5.666-1.562-11.787-.693-16.794 2.383-5.008 3.076-8.551 8.143-9.721 13.902l-1.016 5.003c-1.17 5.759.116 11.807 3.526 16.592 3.411 4.786 8.709 7.975 14.535 8.748zm-3.361-22.354 1.016-5.004c.351-1.726 1.37-3.184 2.871-4.105 1.006-.618 2.13-.934 3.273-.934.562 0 1.127.076 1.687.23l21.493 5.922c3.173.875 5.146 4.086 4.491 7.312l-.409 2.014c-.656 3.226-3.73 5.417-6.987 4.98l-22.101-2.932c-1.746-.231-3.27-1.149-4.292-2.583-1.023-1.433-1.392-3.174-1.042-4.9z"/><path d="m450.43 318.92h-108.362c9.405-23.812 12.938-52.961 9.695-81.896-.462-4.117-4.175-7.08-8.289-6.618-4.116.461-7.079 4.172-6.617 8.289 3.188 28.439-.942 58.027-11.069 80.225h-139.576c-16.074-35.22-16.074-86.93 0-122.15h139.578c2.003 4.381 3.785 9.073 5.317 14.005 1.229 3.955 5.426 6.167 9.388 4.937 3.955-1.229 6.166-5.432 4.937-9.388-1.019-3.279-2.145-6.466-3.36-9.554h62.346c15.858 0 28.761-12.902 28.761-28.761v-35.05c0-15.859-12.902-28.761-28.761-28.761h-7.315c1.719-2.951 2.976-6.198 3.624-9.655 1.628-8.608 1.628-17.338.002-25.939-2.669-14.188-15.115-24.715-29.598-25.032-10.234-.222-20.488-.412-30.754-.576 1.163-11.844 1.798-23.733 1.872-35.448.026-4.142-3.311-7.521-7.453-7.547-.016 0-.031 0-.048 0-4.12 0-7.473 3.327-7.499 7.453-.073 11.676-.725 23.534-1.925 35.34-48.353-.639-96.945-.639-145.301 0-1.2-11.807-1.851-23.664-1.924-35.34-.025-4.127-3.378-7.454-7.498-7.454-.016 0-.032 0-.048 0-4.142.026-7.479 3.405-7.453 7.547.074 11.716.709 23.604 1.873 35.449-10.268.164-20.523.354-30.758.576-14.48.317-26.928 10.844-29.595 25.025-1.628 8.608-1.628 17.338-.002 25.937.65 3.462 1.907 6.712 3.628 9.666h-7.315c-15.859 0-28.761 12.902-28.761 28.761v35.05c0 15.859 12.902 28.761 28.761 28.761h69.007c-14.467 36.751-14.467 85.398 0 122.15h-115.019c-19.414 0-35.208 15.794-35.208 35.207v45.678c0 17.33 12.589 31.765 29.1 34.667l16.315 71.693c.777 3.414 3.812 5.836 7.313 5.836h37.36c4.142 0 7.5-3.358 7.5-7.5s-3.358-7.5-7.5-7.5h-31.374l-14.106-61.988h376.711l-14.105 61.985h-287.125c-4.142 0-7.5 3.358-7.5 7.5s3.358 7.5 7.5 7.5h293.11c3.501 0 6.536-2.422 7.313-5.836l16.314-71.693c16.511-2.902 29.1-17.337 29.1-34.666v-45.678c.001-19.413-15.793-35.207-35.207-35.207zm-331.072-227.164c-1.278-6.759-1.278-13.613.001-20.379 1.366-7.259 7.751-12.646 15.182-12.809 78.392-1.699 157.882-1.7 236.263 0 7.433.163 13.817 5.549 15.185 12.816 1.278 6.759 1.278 13.613-.002 20.383-1.16 6.183-6.021 11.109-12.177 12.432h-242.273c-6.156-1.324-11.017-6.249-12.179-12.443zm-32.188 76.253v-35.05c0-7.588 6.173-13.761 13.761-13.761h303.487c7.588 0 13.761 6.173 13.761 13.761v35.05c0 7.588-6.173 13.761-13.761 13.761h-303.487c-7.588 0-13.761-6.173-13.761-13.761zm383.468 231.796c0 11.143-9.065 20.208-20.208 20.208h-395.511c-11.143 0-20.208-9.065-20.208-20.208v-45.678c0-11.142 9.065-20.207 20.208-20.207h395.51c11.143 0 20.208 9.065 20.208 20.207v45.678z"/></g></g></svg>