<svg id="Capa_1" enable-background="new 0 0 512 512" height="512" viewBox="0 0 512 512" width="512" xmlns="http://www.w3.org/2000/svg"><g><g><path d="m92.155 99.772h41.316v123.227h-41.316z" fill="#f9f6f9"/><path d="m92.155 99.772h17.391v123.227h-17.391z" fill="#e2dfe2"/><path d="m165.146 46.002h41.316v190.963h-41.316z" fill="#f9f6f9"/><path d="m165.146 46.002h19.406v190.963h-19.406z" fill="#e2dfe2"/><path d="m485.896 504.497h-196.039c0-69.4-1.38-229.439 13.16-364.788 1.56-14.56 3.3-28.84 5.25-42.7 1.61-11.41 3.37-22.53 5.27-33.28 1.05-5.92 2.14-11.73 3.28-17.41l71.06-19.41 71.06 19.41c1.14 5.68 2.24 11.49 3.28 17.41 1.91 10.75 3.65 21.87 5.26 33.28 1.96 13.86 3.71 28.14 5.27 42.7 14.529 135.35 13.149 295.389 13.149 364.788z" fill="#f9f6f9"/><path d="m462.216 63.73c-1 .16-2.02.24-3.06.24h-142.57c-1.04 0-2.05-.08-3.05-.24 1.05-5.92 2.14-11.73 3.28-17.41l71.06-19.41 71.06 19.41c1.14 5.68 2.24 11.49 3.28 17.41z" fill="#e2dfe2"/><path d="m387.881 26.912-32.44 19.41c-1.46 16-2.76 33-3.9 50.69-.89 13.86-1.68 28.14-2.4 42.7-6.63 135.349-6 295.389-6 364.788h-53.28c0-69.4-1.38-229.439 13.15-364.788 1.57-14.56 3.31-28.84 5.26-42.7 2.5-17.69 5.34-34.69 8.55-50.69z" fill="#e2dfe2"/><path d="m472.747 139.712h-169.735c1.563-14.567 3.303-28.845 5.26-42.698h159.206c1.956 13.853 3.706 28.131 5.269 42.698z" fill="#da4a54"/><path d="m351.542 97.014h-43.27c-1.95 13.86-3.69 28.139-5.26 42.698h46.13c.72-14.559 1.51-28.838 2.4-42.698z" fill="#d82e3d"/><path d="m399.616 504.497h-351.848c-11.88-74.34-12.82-148.669-2.82-223.009.86-6.4 1.8-12.81 2.82-19.21 117.279-8.88 234.559-8.88 351.848 0 1.02 6.4 1.96 12.81 2.82 19.21 10 74.34 9.06 148.67-2.82 223.009z" fill="#da4a54"/><path d="m402.436 281.489c-.92.13-1.86.19-2.82.19h-351.848c-.96 0-1.9-.06-2.82-.19.86-6.4 1.8-12.81 2.82-19.21 117.279-8.88 234.559-8.88 351.848 0 1.02 6.4 1.96 12.809 2.82 19.21z" fill="#d82e3d"/><path d="m87.665 504.497h-39.9c-12.9-80.74-12.9-161.479 0-242.219 13.06-.99 26.11-1.87 39.17-2.63-12.17 81.62-11.92 163.23.73 244.849z" fill="#d82e3d"/><path d="m399.612 262.28h-351.847c-11.979 0-21.691-9.711-21.691-21.691v-11.706c0-11.979 9.711-21.691 21.691-21.691h351.846c11.979 0 21.691 9.711 21.691 21.691v11.706c.001 11.979-9.711 21.691-21.69 21.691z" fill="#655e66"/><path d="m94.745 262.283h-46.98c-11.98 0-21.69-9.71-21.69-21.69v-11.71c0-11.98 9.71-21.69 21.69-21.69h46.98c-11.98 0-21.69 9.71-21.69 21.69v11.71c0 11.98 9.709 21.69 21.69 21.69z" fill="#535057"/><path d="m353.575 304.973c-86.591-5.202-173.182-1.558-259.773 3.644-9.525 47.283-9.525 90.923 0 138.206 86.591 5.202 173.182 5.202 259.773 0 9.525-47.284 9.525-94.567 0-141.85z" fill="#f9f6f9"/><path d="m316.59 7.5h142.565c10.72 0 19.411 8.69 19.411 19.411 0 10.72-8.69 19.411-19.411 19.411h-142.565c-10.72 0-19.411-8.69-19.411-19.411 0-10.721 8.691-19.411 19.411-19.411z" fill="#da4a54"/><path d="m382.579 46.321h-65.99c-10.72 0-19.41-8.69-19.41-19.41 0-5.36 2.17-10.21 5.68-13.73 3.52-3.51 8.37-5.68 13.73-5.68h65.99c-5.36 0-10.21 2.17-13.72 5.68-3.52 3.52-5.69 8.37-5.69 13.73-.001 10.72 8.69 19.41 19.41 19.41z" fill="#d82e3d"/><path d="m165.146 75.347h41.316v29.344h-41.316z" fill="#da4a54"/><path d="m165.146 75.347h19.406v29.344h-19.406z" fill="#d82e3d"/><path d="m92.155 130.811h41.316v29.344h-41.316z" fill="#da4a54"/><path d="m92.155 130.811h17.391v29.344h-17.391z" fill="#d82e3d"/></g><g><path d="m485 191.423c-.319-4.129-3.922-7.226-8.055-6.9-4.13.318-7.22 3.925-6.9 8.055 8.607 111.536 8.448 231.028 8.363 295.223-.005 3.193-.009 6.262-.012 9.2h-70.042c11.246-75.862 11.187-152.65-.187-228.502 11.933-3.666 20.635-14.789 20.635-27.908v-11.71c0-16.095-13.095-29.19-29.189-29.19h-94.442c1.339-18.179 2.88-35.768 4.598-52.478h156.222c.508 4.942 1.011 10.097 1.524 15.612.383 4.125 4.047 7.155 8.162 6.773 4.124-.383 7.157-4.038 6.773-8.162-.756-8.126-1.492-15.496-2.251-22.525-1.604-14.965-3.388-29.416-5.301-42.946-2.173-15.445-4.571-30.051-7.14-43.563 10.63-3.598 18.306-13.662 18.306-25.492.001-14.838-12.071-26.91-26.909-26.91h-142.565c-14.838 0-26.91 12.072-26.91 26.911 0 11.831 7.678 21.896 18.309 25.493-2.578 13.576-4.98 28.182-7.153 43.562-1.887 13.41-3.664 27.859-5.28 42.946-2.056 19.178-3.875 39.598-5.423 60.779h-76.172v-153.689c0-4.142-3.357-7.5-7.5-7.5h-41.315c-4.143 0-7.5 3.358-7.5 7.5v153.688h-16.675v-99.919c0-4.142-3.357-7.5-7.5-7.5h-41.316c-4.143 0-7.5 3.358-7.5 7.5v99.918h-36.892c-16.095 0-29.189 13.095-29.189 29.19v11.71c0 13.122 8.705 24.247 20.643 27.91-11.808 78.747-11.427 158.501 1.144 237.182.582 3.639 3.721 6.317 7.406 6.317h334.927c.016 0 .032.002.048.002h103.149c4.143 0 7.5-3.358 7.5-7.5 0-5.088.008-10.663.016-16.68.086-64.401.245-184.275-8.407-296.397zm-32.236-137.602c2.142 11.152 4.164 23.113 6.04 35.693h-141.868c1.876-12.53 3.9-24.491 6.048-35.693zm-137.962 50.693h146.135c1.206 8.907 2.354 18.175 3.431 27.698h-152.983c1.081-9.574 2.224-18.844 3.417-27.698zm1.788-89.514h142.565c6.567 0 11.91 5.343 11.91 11.911s-5.343 11.911-11.91 11.911h-.189c-.011 0-.022-.001-.033-.001h-142.12c-.011 0-.022.001-.033.001h-.189c-6.567 0-11.91-5.343-11.91-11.911s5.341-11.911 11.909-11.911zm-143.945 67.847h26.315v14.344h-26.315zm26.316-29.345v14.345h-26.315v-14.345zm-26.316 58.689h26.315v87.499h-26.315zm-72.99 26.12h26.315v14.344h-26.315zm26.316-31.04v16.04h-26.316v-16.04zm-26.316 60.384h26.315v32.035h-26.315zm-45.46 102.125h48.378c4.143 0 7.5-3.358 7.5-7.5s-3.357-7.5-7.5-7.5h-54.81c-7.824 0-14.189-6.366-14.189-14.19v-11.71c0-7.824 6.365-14.19 14.189-14.19h351.851c7.824 0 14.189 6.366 14.189 14.19v11.71c0 7.824-6.365 14.19-14.189 14.19h-267.08c-4.143 0-7.5 3.358-7.5 7.5s3.357 7.5 7.5 7.5h260.655c11.405 75.423 11.41 151.794.004 227.218h-339.002c-11.405-75.424-11.4-151.795.004-227.218z"/><path d="m354.024 297.486c-86.485-5.195-174.187-5.195-260.672 0-3.396.204-6.23 2.669-6.902 6.005-9.679 48.045-9.679 96.767 0 144.812.672 3.336 3.506 5.801 6.902 6.005 43.243 2.598 86.79 3.896 130.337 3.896 43.546 0 87.093-1.299 130.335-3.896 3.397-.204 6.231-2.669 6.903-6.005 9.679-48.045 9.679-96.767 0-144.812-.671-3.335-3.505-5.801-6.903-6.005zm-.925 70.91h-48.303c-.166-19.498-.974-38.985-2.431-58.377 15.01.545 29.999 1.241 44.952 2.099 3.453 18.691 5.377 37.479 5.782 56.278zm-136.907 0h-58.614c.17-19.665 1.011-39.317 2.518-58.871 18.679-.547 37.386-.845 56.096-.909zm0 15v59.783c-18.71-.064-37.417-.362-56.096-.909-1.507-19.554-2.348-39.208-2.518-58.874zm15 0h58.604c-.17 19.666-1.011 39.319-2.518 58.873-18.676.547-37.379.845-56.086.909zm0-15v-59.78c18.707.065 37.41.362 56.086.909 1.507 19.553 2.348 39.206 2.518 58.871zm-86.182-58.376c-1.458 19.392-2.266 38.879-2.431 58.377h-48.3c.405-18.8 2.329-37.588 5.783-56.278 14.951-.858 29.939-1.555 44.948-2.099zm-50.732 73.376h48.3c.166 19.499.974 38.987 2.432 58.38-15.009-.545-29.997-1.242-44.949-2.099-3.453-18.691-5.377-37.48-5.783-56.281zm208.086 58.38c1.458-19.393 2.266-38.881 2.432-58.38h48.303c-.405 18.801-2.329 37.59-5.783 56.281-14.953.857-29.942 1.554-44.952 2.099z"/></g></g></svg>