<svg id="Capa_1" enable-background="new 0 0 512 512" height="512" viewBox="0 0 512 512" width="512" xmlns="http://www.w3.org/2000/svg"><g><g><path d="m303.847 419.203c-12.378-54.789-16.235-105.942-17.437-132.437-.542-11.957 2.981-23.739 10.004-33.431l21.317-29.422c6.538-9.024 10.058-19.882 10.058-31.026v-28.747h53.849v28.747c0 11.143 3.52 22.002 10.058 31.026l21.317 29.422c7.023 9.693 10.546 21.474 10.004 33.431-1.202 26.495-5.059 77.648-17.437 132.437l-58.849 16.955z" fill="#78d0b1"/><path d="m343.96 164.136v28.75c0 11.14-1.4 22-4.02 31.02l-8.51 29.42c-2.8 9.7-4.21 21.48-3.99 33.44.48 26.49 2.02 77.64 6.96 132.43h-30.55c-12.38-54.79-16.24-105.94-17.44-132.43-.54-11.96 2.98-23.74 10-33.44l21.32-29.42c6.54-9.02 10.06-19.88 10.06-31.02v-28.75z" fill="#66b49d"/><path d="m317.025 106.278h75.379v57.862h-75.379z" fill="#da4a54"/><path d="m317.025 106.278h27.713v57.862h-27.713z" fill="#d82e3d"/><path d="m85.356 419.203c-12.378-54.789-16.235-105.942-17.437-132.437-.542-11.957 2.981-23.739 10.004-33.431l21.317-29.422c6.538-9.024 10.058-19.882 10.058-31.026v-28.747h53.849v28.747c0 11.143 3.52 22.002 10.058 31.026l21.317 29.422c7.023 9.693 10.546 21.474 10.004 33.431-1.202 26.495-5.059 77.648-17.437 132.437l-49.373 23.892z" fill="#78d0b1"/><path d="m125.469 164.136v28.75c0 11.14-1.4 22-4.02 31.02l-8.51 29.42c-2.8 9.7-4.21 21.48-3.99 33.44.48 26.49 2.02 77.64 6.96 132.43h-30.55c-12.38-54.79-16.24-105.94-17.44-132.43-.54-11.96 2.98-23.74 10-33.44l21.32-29.42c6.54-9.02 10.06-19.88 10.06-31.02v-28.75z" fill="#66b49d"/><path d="m461.852 419.203h-411.703c-23.554 0-42.649 19.094-42.649 42.648 0 23.554 19.094 42.648 42.649 42.648h411.703c23.554 0 42.648-19.094 42.648-42.648 0-23.554-19.094-42.648-42.648-42.648z" fill="#c3bec6"/><g fill="#655e66"><circle cx="50.149" cy="461.851" r="19.472"/><circle cx="461.851" cy="461.851" r="19.472"/><circle cx="379.511" cy="461.851" r="19.472"/><circle cx="297.17" cy="461.851" r="19.472"/><circle cx="214.83" cy="461.851" r="19.472"/><circle cx="132.489" cy="461.851" r="19.472"/></g><path d="m392.404 121.242h-75.379c-15.549 0-28.154-12.605-28.154-28.154v-38.687l60.855-24.941 70.831 24.941v38.687c0 15.549-12.604 28.154-28.153 28.154z" fill="#c3bec6"/><path d="m363.221 121.238h-46.2c-15.55 0-28.15-12.6-28.15-28.15v-38.69h46.2v38.69c0 15.551 12.6 28.15 28.15 28.15z" fill="#b4acb7"/><path d="m159.668 135.209h-46.888c-7.989 0-14.466 6.476-14.466 14.466 0 7.989 6.476 14.466 14.466 14.466h46.888c7.989 0 14.466-6.476 14.466-14.466-.001-7.99-6.477-14.466-14.466-14.466z" fill="#c3bec6"/><path d="m481.049 54.401h-450.098c-12.952 0-23.451-10.499-23.451-23.45 0-12.952 10.499-23.451 23.451-23.451h450.099c12.951 0 23.451 10.499 23.451 23.451-.001 12.951-10.5 23.45-23.452 23.45z" fill="#655e66"/></g><g><path d="m479.211 414.792c-3.887-1.433-8.198.56-9.629 4.447s.56 8.198 4.447 9.629c4.701 1.731 9.087 4.542 12.678 8.125 6.638 6.638 10.293 15.465 10.293 24.857 0 19.382-15.769 35.15-35.15 35.15h-411.7c-9.392 0-18.22-3.656-24.857-10.294-6.638-6.637-10.293-15.464-10.293-24.856 0-19.382 15.769-35.15 35.15-35.15h396.7c4.143 0 7.5-3.358 7.5-7.5s-3.357-7.5-7.5-7.5h-31.958c10.99-52.144 14.502-99.965 15.619-124.594.617-13.598-3.439-27.154-11.423-38.172l-21.317-29.422c-5.646-7.794-8.632-17-8.632-26.625v-21.247h3.265c4.143 0 7.5-3.358 7.5-7.5v-36.198c16.07-3.455 28.154-17.766 28.154-34.853v-31.188h52.992c17.066 0 30.95-13.884 30.95-30.951s-13.884-30.95-30.95-30.95h-450.1c-17.066 0-30.95 13.884-30.95 30.951s13.884 30.951 30.95 30.951h250.421v31.187c0 17.086 12.084 31.398 28.153 34.853v36.198c0 4.142 3.357 7.5 7.5 7.5h3.266v21.248c0 9.625-2.984 18.831-8.632 26.625l-21.317 29.421c-7.983 11.018-12.04 24.574-11.424 38.172 1.117 24.635 4.631 72.462 15.62 124.595h-98.137c10.996-52.16 14.507-99.97 15.623-124.592.614-13.604-3.445-27.163-11.429-38.178l-21.312-29.423c-5.647-7.788-8.632-16.992-8.632-26.618v-24.206c6.559-3.804 10.982-10.898 10.982-19.01 0-12.112-9.854-21.966-21.965-21.966h-46.889c-12.112 0-21.966 9.854-21.966 21.966 0 8.114 4.426 15.209 10.986 19.012v24.204c0 9.625-2.984 18.83-8.632 26.618l-12.521 17.27c-2.431 3.354-1.684 8.043 1.67 10.475 3.353 2.431 8.043 1.684 10.475-1.67l12.521-17.27c7.515-10.365 11.487-22.614 11.487-35.422v-21.25h38.851v21.25c0 12.809 3.973 25.058 11.485 35.419l21.312 29.422c6.001 8.281 9.053 18.473 8.591 28.699-1.117 24.642-4.676 72.956-15.975 125.27h-89.675c-11.299-52.314-14.858-100.627-15.975-125.266-.266-5.924.606-11.745 2.591-17.301 1.394-3.901-.639-8.193-4.539-9.586s-8.192.639-9.586 4.54c-2.644 7.398-3.804 15.143-3.45 23.023 1.116 24.621 4.627 72.431 15.623 124.591h-25.9c-27.654-.002-50.151 22.495-50.151 50.148 0 13.399 5.216 25.993 14.687 35.463 9.47 9.471 22.065 14.687 35.463 14.687h411.7c27.653 0 50.15-22.497 50.15-50.15 0-13.398-5.216-25.993-14.692-35.469-5.12-5.108-11.377-9.115-18.097-11.589zm-366.432-272.084h46.889c3.841 0 6.965 3.125 6.965 6.966s-3.124 6.965-6.965 6.965h-46.889c-3.841 0-6.966-3.125-6.966-6.965s3.125-6.966 6.966-6.966zm211.745 13.932v-27.898h60.379v27.898zm-309.524-125.689c0-8.796 7.155-15.951 15.95-15.951h450.1c8.795 0 15.95 7.155 15.95 15.951s-7.155 15.951-15.95 15.951h-60.492-131.687-257.921c-8.795-.001-15.95-7.156-15.95-15.951zm281.371 62.137v-31.187h116.687v31.187c0 11.388-9.266 20.653-20.654 20.653h-75.379c-11.389.001-20.654-9.264-20.654-20.653zm-2.47 193.338c-.463-10.221 2.586-20.41 8.586-28.691l21.317-29.422c7.514-10.37 11.485-22.62 11.485-35.426v-21.247h38.849v21.248c0 12.806 3.972 25.056 11.485 35.426l21.317 29.422c6 8.28 9.049 18.47 8.585 28.69-1.118 24.652-4.678 72.979-15.97 125.274h-89.684c-11.288-52.284-14.851-100.617-15.97-125.274z"/><path d="m23.177 461.852c0 14.873 12.1 26.972 26.972 26.972 14.873 0 26.973-12.1 26.973-26.972s-12.1-26.972-26.973-26.972c-14.873-.001-26.972 12.099-26.972 26.972zm38.944 0c0 6.602-5.371 11.972-11.973 11.972s-11.972-5.371-11.972-11.972 5.37-11.972 11.972-11.972 11.973 5.37 11.973 11.972z"/><path d="m434.879 461.852c0 14.873 12.1 26.972 26.973 26.972 14.872 0 26.972-12.1 26.972-26.972s-12.1-26.972-26.972-26.972c-14.873-.001-26.973 12.099-26.973 26.972zm26.973-11.973c6.602 0 11.972 5.371 11.972 11.972s-5.37 11.972-11.972 11.972-11.973-5.371-11.973-11.972 5.371-11.972 11.973-11.972z"/><path d="m379.511 434.879c-14.872 0-26.972 12.1-26.972 26.972s12.1 26.972 26.972 26.972c14.873 0 26.973-12.1 26.973-26.972s-12.1-26.972-26.973-26.972zm0 38.945c-6.602 0-11.972-5.371-11.972-11.972s5.37-11.972 11.972-11.972 11.973 5.371 11.973 11.972-5.372 11.972-11.973 11.972z"/><path d="m270.198 461.852c0 14.873 12.1 26.972 26.972 26.972 14.873 0 26.973-12.1 26.973-26.972s-12.1-26.972-26.973-26.972c-14.872-.001-26.972 12.099-26.972 26.972zm38.945 0c0 6.602-5.371 11.972-11.973 11.972s-11.972-5.371-11.972-11.972 5.37-11.972 11.972-11.972 11.973 5.37 11.973 11.972z"/><path d="m187.857 461.852c0 14.873 12.1 26.972 26.973 26.972 14.872 0 26.972-12.1 26.972-26.972s-12.1-26.972-26.972-26.972c-14.873-.001-26.973 12.099-26.973 26.972zm38.945 0c0 6.602-5.37 11.972-11.972 11.972s-11.973-5.371-11.973-11.972 5.371-11.972 11.973-11.972 11.972 5.37 11.972 11.972z"/><path d="m105.517 461.852c0 14.873 12.1 26.972 26.973 26.972 14.872 0 26.972-12.1 26.972-26.972s-12.1-26.972-26.972-26.972c-14.874-.001-26.973 12.099-26.973 26.972zm38.944 0c0 6.602-5.37 11.972-11.972 11.972s-11.973-5.371-11.973-11.972 5.371-11.972 11.973-11.972 11.972 5.37 11.972 11.972z"/></g></g></svg>