<svg id="Capa_1" enable-background="new 0 0 511.992 511.992" height="512" viewBox="0 0 511.992 511.992" width="512" xmlns="http://www.w3.org/2000/svg"><g><g><g><path d="m265.123 429.066h22.652c27.99 0 52.121 19.68 57.751 47.098l5.816 28.328h-238.404l5.816-28.328c5.629-27.418 29.761-47.098 57.751-47.098h22.652" fill="#f9f6f9"/><path d="m216.408 429.062c-27.99 0-52.12 19.68-57.75 47.1l-5.82 28.33h-39.9l5.81-28.33c5.63-27.42 29.77-47.1 57.76-47.1z" fill="#e2dfe2"/><path d="m201.921 474.16 30.219 30.332 30.219-30.332-9.993-33.731-50.546 4.433" fill="#da4a54"/><path d="m287.778 429.066-6.692 52.598-48.943-19.615h-.003l-48.943 19.615-6.692-52.598" fill="#e2dfe2"/><path d="m265.121 373.988v55.08c0 18.211-14.767 32.978-32.978 32.978-18.221 0-32.988-14.767-32.988-32.978v-55.08z" fill="#ffddce"/><g fill="#ffcbbe"><path d="m242.913 460.248c-3.374 1.161-6.997 1.796-10.768 1.796-18.221 0-32.988-14.767-32.988-32.978v-55.08h21.536v55.08c0 14.45 9.289 26.726 22.22 31.182z"/><path d="m94.357 328.125c-23.78 0-43.057-19.277-43.057-43.057 0-3.273.365-6.46 1.057-9.524 5.586-24.738 42-20.681 42 4.68h275.567c0-25.361 36.415-29.418 42-4.68.692 3.064 1.057 6.251 1.057 9.524 0 23.78-19.277 43.057-43.057 43.057"/><path d="m199.155 373.988h65.967v50.743h-65.967z"/></g><path d="m269.5 407.272h-74.719c-55.463 0-100.424-44.961-100.424-100.424v-141.634h275.567v141.633c0 55.463-44.962 100.425-100.424 100.425z" fill="#ffddce"/><path d="m341.887 191.932s-6.551 71.414 28.035 71.414v-88.239z" fill="#655e66"/><path d="m260.747 407.271h-65.967c-55.457 0-100.424-44.967-100.424-100.424v-141.639h65.967v141.639c0 55.458 44.957 100.424 100.424 100.424z" fill="#ffcbbe"/><path d="m122.392 191.932s6.551 71.414-28.035 71.414v-88.239z" fill="#535057"/><g fill="#eab1b7"><ellipse cx="313.302" cy="313.987" rx="22.554" ry="13.714"/><ellipse cx="150.979" cy="313.987" rx="22.554" ry="13.714"/></g><path d="m382.323 122.626v69.301h-300.368v-69.301c0-32.829 17.784-61.521 44.252-76.923 9.845-5.746 20.891-9.646 32.671-11.234 3.94-.536 7.959-.814 12.048-.814h122.436c4.089 0 8.108.278 12.048.814 11.78 1.588 22.826 5.488 32.671 11.234 26.457 15.413 44.242 44.094 44.242 76.923z" fill="#f9f6f9"/><g fill="#e2dfe2"><path d="m338.08 45.703v33.981c0 9.021-7.314 16.335-16.335 16.335s-16.335-7.314-16.335-16.335v-45.215c11.78 1.588 22.825 5.488 32.67 11.234z"/><path d="m158.878 34.469v45.215c0 9.021-7.314 16.335-16.335 16.335s-16.335-7.314-16.335-16.335v-33.981c9.844-5.746 20.89-9.646 32.67-11.234z"/></g><path d="m191.705 148.165c-2.636-40.568-2.929-81.136-.878-121.705.458-8.321 7.726-16.479 16.081-17.502 16.822-1.955 33.643-1.955 50.465 0 8.356 1.023 15.622 9.181 16.081 17.502 2.051 40.568 1.758 81.136-.878 121.705l-46.735 17.05z" fill="#f9f6f9"/><path d="m211.608 23.274c-2.104 41.632-1.806 95.481.903 137.104l-20.811-12.216c-2.64-40.561-2.928-81.131-.873-121.701.456-8.317 7.721-16.474 16.077-17.506 4.803-.556 9.597-.953 14.39-1.181-5.389 3.304-9.349 9.357-9.686 15.5z" fill="#e2dfe2"/><path d="m211.361 33.657c-49.137 0-88.972 39.834-88.972 88.972v69.303h-40.437v-69.303c0-49.138 39.835-88.972 88.972-88.972z" fill="#e2dfe2"/><path d="m270.728 232.501h-77.177c-8.945 0-17.003-5.405-20.396-13.682l-8.6-20.977 67.584-24.839 67.584 24.839-8.6 20.977c-3.392 8.277-11.45 13.682-20.395 13.682z" fill="#f9f6f9"/><path d="m393.313 156.564v32.872c0 4.646-3.759 8.405-8.404 8.405h-305.544c-4.634 0-8.392-3.759-8.392-8.405v-32.872c0-4.633 3.759-8.405 8.392-8.405h305.544c4.646 0 8.404 3.772 8.404 8.405z" fill="#f9f6f9"/><path d="m118.104 197.843h-38.74c-4.64 0-8.39-3.76-8.39-8.41v-32.87c0-4.63 3.75-8.4 8.39-8.4h38.74c-4.64 0-8.39 3.77-8.39 8.4v32.87c0 4.649 3.75 8.41 8.39 8.41z" fill="#e2dfe2"/></g><g><path d="m393.183 489.645h-39.138v-183.331h49.903l49.921 13.77c4.032 1.112 6.824 4.779 6.824 8.961 0 5.134-4.162 9.296-9.296 9.296h-58.214z" fill="#c3bec6"/><g fill="#f9f6f9"><path d="m364.813 370.729v40.733c0 5.505-4.462 9.967-9.967 9.967h-8.341c-5.505 0-9.967-4.462-9.967-9.967v-40.733c0-5.505 4.462-9.967 9.967-9.967h8.341c5.504 0 9.967 4.463 9.967 9.967z"/><path d="m460.693 368.269v3.301c0 3.307-2.165 6.225-5.331 7.183l-41.084 12.432c-3.166.958-5.331 3.875-5.331 7.183v15.554c0 4.145-3.36 7.505-7.505 7.505h-8.26c-4.145 0-7.505-3.36-7.505-7.505v-45.653c0-4.145 3.36-7.505 7.505-7.505h10.765 49.241c4.145 0 7.505 3.36 7.505 7.505z"/></g></g><path d="m385.256 446.595h-30.23c-10.893 0-19.723 8.83-19.723 19.723v18.451c0 10.893 8.83 19.723 19.723 19.723h30.23c10.893 0 19.723-8.83 19.723-19.723v-18.451c0-10.893-8.83-19.723-19.723-19.723z" fill="#ffddce"/><path d="m377.833 504.488h-22.8c-10.9 0-19.73-8.83-19.73-19.72v-18.45c0-10.9 8.83-19.73 19.73-19.73h22.8c-10.89 0-19.72 8.83-19.72 19.73v18.45c0 10.89 8.83 19.72 19.72 19.72z" fill="#ffcbbe"/></g><g><ellipse cx="161.453" cy="272.083" rx="12.999" ry="21.582"/><path d="m302.827 293.664c7.167 0 12.999-9.682 12.999-21.582s-5.831-21.582-12.999-21.582-12.999 9.682-12.999 21.582 5.832 21.582 12.999 21.582z"/><path d="m232.143 343.875c14.454 0 27.424-8.609 33.042-21.934 1.609-3.816-.18-8.215-3.997-9.824-3.816-1.609-8.215.18-9.824 3.997-3.269 7.752-10.813 12.761-19.22 12.761s-15.951-5.009-19.22-12.761c-1.608-3.817-6.006-5.607-9.824-3.997-3.817 1.609-5.606 6.008-3.997 9.824 5.616 13.325 18.586 21.934 33.04 21.934z"/><path d="m218.723 298.69h26.834c4.142 0 7.5-3.358 7.5-7.5s-3.358-7.5-7.5-7.5h-26.834c-4.142 0-7.5 3.358-7.5 7.5s3.358 7.5 7.5 7.5z"/><path d="m453.189 353.264h-52.506v-7.422h50.714c9.261 0 16.796-7.535 16.796-16.796 0-7.53-5.07-14.188-12.33-16.191l-38.396-10.591c1.984-5.489 3.017-11.307 3.017-17.201 0-3.751-.418-7.509-1.245-11.173-3.34-14.779-16.186-23.929-31.246-22.248-3.854.43-7.408 1.524-10.567 3.163v-49.462h7.49c8.767 0 15.9-7.133 15.9-15.9v-32.88c0-7.053-4.62-13.041-10.99-15.115v-18.825c0-6.723-.694-13.412-2.062-19.882-.857-4.052-4.841-6.644-8.89-5.786-4.053.857-6.643 4.837-5.786 8.89 1.153 5.452 1.738 11.097 1.738 16.778v18.04h-94.306c1.894-33.039 2.272-66.402 1.075-99.51h11.771c1.523 0 3.037.05 4.543.132v38.399c0 13.143 10.692 23.835 23.835 23.835s23.835-10.692 23.835-23.835v-19.663c6.757 5.664 12.661 12.485 17.429 20.321 1.412 2.321 3.882 3.602 6.414 3.602 1.328 0 2.674-.353 3.892-1.094 3.539-2.153 4.661-6.767 2.508-10.306-17.678-29.049-48.503-46.391-82.457-46.391h-12.42c-.002-.035-.003-.071-.005-.106-.667-12.08-10.832-23.085-22.704-24.538-17.318-2.013-34.88-2.013-52.242.005-11.829 1.448-21.994 12.453-22.66 24.567-.001.024-.002.049-.003.073h-12.407c-53.194 0-96.471 43.277-96.471 96.471v18.821c-6.369 2.075-10.988 8.062-10.988 15.115v32.88c0 8.767 7.133 15.9 15.9 15.9h7.49v49.464c-3.16-1.639-6.716-2.734-10.572-3.164-15.056-1.671-27.906 7.47-31.244 22.25-.823 3.648-1.241 7.408-1.241 11.175 0 26.652 20.734 48.539 46.918 50.412 12.311 44.697 52.711 77.869 100.939 79.245v6.838h-15.152c-31.403 0-58.78 22.328-65.097 53.091l-5.82 28.33c-.454 2.208.11 4.502 1.534 6.249s3.559 2.76 5.813 2.76h238.41c.42 0 .833-.046 1.241-.115.805.072 1.618.115 2.441.115h30.23c15.011 0 27.223-12.212 27.223-27.223v-18.452c0-9.286-4.677-17.497-11.795-22.413v-14.979h.759c8.273 0 15.004-6.731 15.004-15.005l.003-15.558 41.084-12.433c6.375-1.929 10.658-7.701 10.658-14.361v-3.301c.002-8.271-6.729-15.002-15.002-15.002zm-122.609-273.58c0 4.872-3.963 8.835-8.835 8.835s-8.835-3.963-8.835-8.835v-36.186c6.165 1.504 12.089 3.711 17.67 6.572zm59.077 186.865c5.639-.632 12.948 1.78 14.951 10.643.582 2.58.876 5.228.876 7.871 0 4.744-.952 9.418-2.768 13.751h-25.29v-2.287c2.318-2.537 7.307-6.946 12.501-4.849 3.841 1.551 8.212-.308 9.761-4.149 1.55-3.841-.308-8.212-4.149-9.761-5.829-2.352-12.049-2.177-17.982.405.918-7.63 6.904-11.044 12.1-11.624zm-27.231-12.868c-.868-.58-1.7-1.267-2.495-2.094-7.073-7.36-11.081-24.37-11.051-46.244h13.545v48.338zm-164.111-226.809c.265-4.816 4.883-9.904 9.458-10.464 16.168-1.878 32.565-1.879 48.688-.005 4.619.565 9.238 5.654 9.502 10.436.051 1.01.083 2.025.131 3.037-.65 1.11-1.028 2.398-1.028 3.777 0 1.612.513 3.101 1.378 4.324 1.356 34.133 1.035 68.585-.949 102.686h-66.711c-2.2-37.813-2.375-76.063-.469-113.791zm-64.608 23.319c5.553-2.865 11.47-5.115 17.67-6.649v36.142c0 4.872-3.963 8.835-8.835 8.835s-8.835-3.963-8.835-8.835zm-55.241 139.252v-32.88c0-.496.404-.9.9-.9h42.03c4.142 0 7.5-3.358 7.5-7.5s-3.358-7.5-7.5-7.5h-31.941v-18.036c0-25.067 11.388-47.519 29.252-62.475v19.533c0 13.143 10.692 23.835 23.835 23.835s23.835-10.692 23.835-23.835v-38.396c1.506-.083 3.021-.134 4.548-.134h11.758c-1.197 33.093-.819 66.462 1.075 99.507h-32.563c-4.142 0-7.5 3.358-7.5 7.5s3.358 7.5 7.5 7.5h233.72c.496 0 .9.404.9.9v32.88c0 .496-.404.9-.9.9h-305.549c-.496.001-.9-.403-.9-.899zm210.077 15.9-4.359 10.631c-2.248 5.484-7.53 9.027-13.457 9.027h-77.177c-5.926 0-11.208-3.543-13.457-9.027l-4.359-10.631zm-173.151 0c.031 21.879-3.975 38.889-11.046 46.246-.794.826-1.623 1.512-2.49 2.091v-48.337zm-56.593 79.724c0-2.658.293-5.307.873-7.872 2.001-8.864 9.304-11.271 14.95-10.645 5.197.58 11.184 3.994 12.101 11.623-5.933-2.583-12.154-2.758-17.983-.406-3.841 1.55-5.699 5.92-4.149 9.761s5.921 5.7 9.761 4.149c5.173-2.087 10.168 2.314 12.503 4.862v10.313c0 4.445.276 8.825.8 13.131-16.412-3.144-28.856-17.6-28.856-34.916zm43.057 21.785v-36.963c5.018-1.316 9.534-3.983 13.305-7.907 12.739-13.255 15.233-38.693 15.225-56.64h29.139l6.692 16.322c4.567 11.139 15.296 18.336 27.335 18.336h77.177c12.039 0 22.769-7.198 27.335-18.336l6.692-16.322h29.132c-.007 17.945 2.488 43.379 15.23 56.638 3.772 3.925 8.29 6.592 13.31 7.909v28.924h-8.382c-4.142 0-7.5 3.358-7.5 7.5v46.948h-.04c-9.631 0-17.467 7.836-17.467 17.467v7.443c-16.688 13.943-37.696 21.6-59.541 21.6h-4.363c-.003 0-.006 0-.01 0h-65.966c-.003 0-.006 0-.01 0h-4.371c-51.238.001-92.922-41.682-92.922-92.919zm152.512 156.024c8.993-5.932 15.485-15.349 17.548-26.314h7.348l-4.394 34.531zm3.255-48.104v14.294c0 14.051-11.432 25.483-25.483 25.483-14.052 0-25.483-11.432-25.483-25.483v-14.294zm-47.71 48.105-20.5 8.216-4.394-34.531h7.345c2.062 10.966 8.556 20.383 17.549 26.315zm22.228 7.252 16.9 6.773-16.901 16.964-16.9-16.964zm32.032 12.837 14.122 5.66c.899.36 1.846.538 2.79.538 1.32 0 2.635-.349 3.802-1.035 2.002-1.177 3.346-3.215 3.639-5.519l5.807-45.636c13.982 1.765 26.534 9.145 34.921 20.597-.935 2.747-1.45 5.687-1.45 8.746v18.452c0 4.394 1.053 8.545 2.91 12.223h-80.514zm74.144-38.116c-12.528-14.728-30.803-23.288-50.542-23.288h-15.151v-6.84c20.219-.583 39.716-6.8 56.414-17.856v14.596c0 9.631 7.836 17.467 17.467 17.467h.04v11.525c-3.008.99-5.784 2.489-8.228 4.396zm5.72-33.388v-40.733c0-1.36 1.107-2.467 2.467-2.467h8.341c1.36 0 2.467 1.107 2.467 2.467v40.733c0 1.36-1.107 2.467-2.467 2.467h-8.341c-1.36 0-2.467-1.106-2.467-2.467zm-217.936 66.209c4.445-21.651 22.365-37.903 43.851-40.683l5.805 45.623c.293 2.304 1.637 4.341 3.639 5.519 2.001 1.176 4.436 1.359 6.591.497l14.121-5.659 13.973 14.026h-91.95zm271.379 7.098c0 6.74-5.483 12.223-12.223 12.223h-30.23c-6.74 0-12.223-5.483-12.223-12.223v-18.452c0-6.74 5.483-12.223 12.223-12.223h30.23c6.74 0 12.223 5.483 12.223 12.223zm-12.224-45.675h-23.712v-11.505c6.316-2.633 10.769-8.868 10.769-16.127v-40.733c0-7.259-4.453-13.493-10.769-16.127v-40.789h41.387l48.942 13.5c.776.214 1.319.926 1.319 1.731 0 .991-.806 1.796-1.796 1.796h-58.214c-4.142 0-7.5 3.358-7.5 7.5v16.951c-4.479 2.599-7.505 7.436-7.505 12.976v45.652c0 5.541 3.027 10.378 7.506 12.977v12.207c-.142 0-.283-.009-.427-.009zm67.934-67.52-41.084 12.433c-6.375 1.929-10.659 7.701-10.659 14.361l-.004 15.558-8.265-.005.005-45.657 60.01-.005v.01z"/></g></g></svg>