<svg id="Capa_1" enable-background="new 0 0 512 512" height="512" viewBox="0 0 512 512" width="512" xmlns="http://www.w3.org/2000/svg"><g><g><path d="m413.612 190.375c-77.302 5.043-154.612 5.043-231.922 0-8.505-45.876-8.505-91.743 0-137.619 24.468-1.597 48.945-2.684 73.413-3.27 28.365-.686 56.73-.686 85.095 0 24.468.586 48.945 1.672 73.413 3.27 8.505 45.876 8.505 91.743.001 137.619z" fill="#da4a54"/><path d="m212.497 192.115c-10.269-.485-20.538-1.07-30.807-1.739-8.505-45.876-8.505-91.743 0-137.619 10.269-.669 20.538-1.254 30.807-1.739-8.421 47.037-8.421 94.067 0 141.097z" fill="#d82e3d"/><path d="m340.199 49.486v74.4c0 7.484-8.538 11.774-14.542 7.3l-19.066-14.208c-5.302-3.947-12.569-3.947-17.879 0l-19.058 14.208c-6.004 4.474-14.55.184-14.55-7.3v-74.4c28.364-.685 56.73-.685 85.095 0z" fill="#f9f6f9"/><path d="m436.32 354.203c-92.44 6.03-184.889 6.03-277.339 0-10.17-54.86-10.17-109.71 0-164.569 29.26-1.91 58.53-3.21 87.79-3.91 33.92-.82 67.84-.82 101.76 0 29.26.7 58.53 2 87.79 3.91 10.169 54.86 10.169 109.71-.001 164.569z" fill="#e27d47"/><path d="m195.821 356.283c-12.28-.58-24.56-1.28-36.84-2.08-10.17-54.86-10.17-109.71 0-164.569 12.28-.8 24.56-1.5 36.84-2.08-10.07 56.25-10.07 112.489 0 168.729z" fill="#dd6938"/><path d="m348.531 185.724v88.97c0 8.95-10.21 14.08-17.39 8.73l-22.8-16.99c-6.34-4.72-15.03-4.72-21.38 0l-22.79 16.99c-7.18 5.35-17.4.22-17.4-8.73v-88.97c33.92-.82 67.84-.82 101.76 0z" fill="#f9f6f9"/><path d="m91.354 404.136c-11.046 0-20-8.954-20-20v-303.622l-48.698-12.175c-10.716-2.679-17.231-13.537-14.552-24.253s13.539-17.231 24.253-14.552l63.847 15.962c8.903 2.226 15.149 10.226 15.149 19.403v319.238c.001 11.045-8.953 19.999-19.999 19.999z" fill="#655e66"/><path d="m484.514 420.051h-405.306c-11.038 0-19.986-8.948-19.986-19.986v-25.872c0-11.038 8.948-19.986 19.986-19.986h405.306c11.038 0 19.986 8.948 19.986 19.986v25.872c0 11.038-8.948 19.986-19.986 19.986z" fill="#c3bec6"/><path d="m131.082 420.043h-51.87c-11.04 0-19.99-8.94-19.99-19.98v-25.87c0-11.04 8.95-19.99 19.99-19.99h51.87c-11.03 0-19.98 8.95-19.98 19.99v25.87c0 11.04 8.95 19.98 19.98 19.98z" fill="#b4acb7"/><g fill="#655e66"><circle cx="153.356" cy="438.869" r="44.202"/><circle cx="410.367" cy="438.869" r="44.202"/></g><g fill="#c3bec6"><circle cx="153.356" cy="438.869" r="15.89"/><circle cx="410.367" cy="438.869" r="15.89"/></g></g><g><path d="m484.511 346.702h-39.272c.918-5.542 1.736-11.031 2.422-16.39.526-4.108-2.378-7.865-6.487-8.391-4.111-.518-7.865 2.379-8.391 6.487-.764 5.967-1.684 12.097-2.744 18.295h-264.746c-8.519-49.788-8.522-100.175.041-149.96 24.575-1.534 49.24-2.623 73.942-3.298v81.249c0 6.995 3.886 13.29 10.142 16.43 2.631 1.321 5.459 1.972 8.272 1.972 3.874 0 7.717-1.236 10.968-3.659l22.781-16.984c3.722-2.767 8.715-2.767 12.424-.005l22.8 16.99c5.609 4.18 12.978 4.825 19.231 1.687 6.254-3.139 10.139-9.435 10.139-16.431v-81.249c24.702.676 49.366 1.764 73.939 3.298 5.851 34.022 7.743 68.413 5.623 102.32-.258 4.134 2.883 7.695 7.017 7.953 4.12.254 7.695-2.883 7.953-7.017 2.316-37.041.004-74.634-6.871-111.733-.625-3.374-3.461-5.894-6.886-6.117-4.676-.305-9.357-.584-14.039-.858 6.803-43.136 6.21-86.793-1.784-129.9-.625-3.374-3.461-5.893-6.886-6.116-77.262-5.038-155.619-5.038-232.891 0-3.425.223-6.262 2.743-6.887 6.118-7.984 43.106-8.577 86.762-1.782 129.898-4.683.274-9.366.553-14.043.858-3.424.223-6.261 2.743-6.886 6.117-9.742 52.554-10.254 105.808-1.548 158.437h-31.206v-281.809c0-12.637-8.565-23.606-20.831-26.675l-63.839-15.96c-14.712-3.681-29.673 5.296-33.354 20.006-1.782 7.128-.682 14.523 3.099 20.822 3.781 6.3 9.787 10.748 16.907 12.523l43.019 10.759v39.614c0 4.142 3.358 7.5 7.5 7.5s7.5-3.358 7.5-7.5v-45.469c0-3.441-2.342-6.441-5.68-7.276l-48.705-12.181c-3.235-.806-5.962-2.827-7.679-5.688-1.718-2.864-2.219-6.225-1.409-9.464 1.674-6.687 8.478-10.765 15.165-9.095l63.837 15.96c5.576 1.396 9.471 6.381 9.471 12.124v281.807h-24.638c-.121 0-.241.008-.362.009v-190.827c0-4.142-3.358-7.5-7.5-7.5s-7.5 3.358-7.5 7.5v195.522c-7.312 4.945-12.128 13.314-12.128 22.787v25.869c0 15.157 12.332 27.489 27.49 27.489h23.704c-.817 3.644-1.263 7.428-1.263 11.316 0 28.508 23.193 51.701 51.701 51.701s51.701-23.193 51.701-51.701c0-3.888-.445-7.671-1.263-11.316h156.13c-.817 3.644-1.263 7.428-1.263 11.316 0 28.508 23.193 51.701 51.701 51.701s51.701-23.193 51.701-51.701c0-3.888-.445-7.671-1.263-11.316h23.704c15.157 0 27.489-12.332 27.489-27.489v-25.869c.002-15.158-12.33-27.49-27.487-27.49zm-143.477-72.009c0 1.816-1.171 2.675-1.869 3.025-.697.351-2.085.775-3.54-.309l-22.802-16.991c-9.065-6.75-21.255-6.75-30.341.002l-22.789 16.989c-1.457 1.086-2.848.659-3.547.308s-1.871-1.21-1.871-3.024v-81.607c28.907-.587 57.852-.587 86.758 0v81.607zm-8.332-217.841v67.036c0 .655-.298 1.137-.885 1.432-.587.294-1.15.246-1.675-.146l-19.069-14.21c-8.019-5.97-18.802-5.972-26.84.003l-19.055 14.206c-.526.392-1.092.44-1.682.145-.589-.296-.887-.777-.887-1.431v-67.035c23.354-.458 46.738-.458 70.093 0zm-144.649 3.017c19.796-1.224 39.66-2.103 59.555-2.66v66.68c0 6.316 3.509 12.001 9.158 14.837 2.376 1.192 4.93 1.781 7.47 1.78 3.498 0 6.969-1.116 9.906-3.304l19.047-14.202c2.673-1.987 6.261-1.988 8.923-.006l19.067 14.208c5.066 3.774 11.72 4.359 17.366 1.523 5.648-2.835 9.156-8.52 9.156-14.838v-66.68c19.895.558 39.76 1.437 59.555 2.66 6.786 40.061 6.927 80.569.445 120.598-73.15-3.761-146.938-3.761-220.093 0-6.474-40.027-6.333-80.535.445-120.596zm-34.692 415.698c-20.237 0-36.701-16.464-36.701-36.701s16.464-36.702 36.701-36.702 36.702 16.464 36.702 36.702c0 20.237-16.464 36.701-36.702 36.701zm257.008 0c-20.237 0-36.702-16.464-36.702-36.701s16.464-36.702 36.702-36.702c20.237 0 36.701 16.464 36.701 36.702 0 20.237-16.464 36.701-36.701 36.701zm86.631-75.506c0 6.887-5.603 12.49-12.49 12.49h-29.664c-9.017-15.183-25.575-25.386-44.478-25.386s-35.461 10.203-44.478 25.386h-168.051c-9.017-15.183-25.575-25.386-44.478-25.386s-35.461 10.203-44.478 25.386h-29.664c-6.887 0-12.49-5.603-12.49-12.49v-25.869c0-6.887 5.603-12.49 12.49-12.49h405.292c6.887 0 12.49 5.603 12.49 12.49v25.869z"/><path d="m153.361 415.476c-12.897 0-23.39 10.492-23.39 23.39 0 12.897 10.493 23.39 23.39 23.39s23.39-10.492 23.39-23.39c0-12.897-10.493-23.39-23.39-23.39zm0 31.78c-4.626 0-8.39-3.764-8.39-8.39s3.764-8.39 8.39-8.39 8.39 3.764 8.39 8.39-3.763 8.39-8.39 8.39z"/><path d="m410.369 415.476c-12.897 0-23.39 10.492-23.39 23.39 0 12.897 10.492 23.39 23.39 23.39 12.897 0 23.39-10.492 23.39-23.39 0-12.897-10.493-23.39-23.39-23.39zm0 31.78c-4.626 0-8.39-3.764-8.39-8.39s3.764-8.39 8.39-8.39 8.39 3.764 8.39 8.39-3.764 8.39-8.39 8.39z"/></g></g></svg>