<svg id="Capa_1" enable-background="new 0 0 511.965 511.965" height="512" viewBox="0 0 511.965 511.965" width="512" xmlns="http://www.w3.org/2000/svg"><g><g><g><path d="m407.065 496.613c-100.726 10.515-201.452 10.515-302.178 0-19.315-2.016-34.476-17.478-36.032-36.835-9.652-120.128-9.652-240.256 0-360.385 1.555-19.357 16.717-34.819 36.032-36.835 100.726-10.515 201.452-10.515 302.178 0 19.315 2.016 34.476 17.478 36.032 36.835 9.652 120.128 9.652 240.256 0 360.385-1.555 19.358-16.717 34.819-36.032 36.835z" fill="#e27d47"/><path d="m111.505 497.287c-2.21-.21-4.41-.44-6.62-.67-19.31-2.02-34.47-17.48-36.03-36.84-9.65-120.129-9.65-240.259 0-360.388 1.56-19.35 16.72-34.81 36.03-36.83 2.2-.23 4.39-.45 6.59-.67-13.04 6.13-22.29 18.86-23.5 33.89-9.85 122.539-9.85 245.079 0 367.618 1.21 15.041 10.47 27.78 23.53 33.89z" fill="#dd6938"/><path d="m397.712 443.603c-94.49 12.028-188.98 12.028-283.47 0-10.394-109.345-10.394-216.627 0-325.972 94.49-12.028 188.98-14.09 283.47-2.062 10.393 109.345 10.393 218.689 0 328.034z" fill="#f9f6f9"/><path d="m355.801 72.52c-1.44-13.58-12.54-24.13-26.19-24.6-1.6-.06-3.21-.11-4.81-.17-9.4-.3-18.04-5.36-22.72-13.51-9.15-15.98-26.37-26.74-46.11-26.74-19.73 0-36.95 10.76-46.1 26.74-4.68 8.15-13.32 13.21-22.72 13.51-1.6.06-3.21.11-4.81.17-13.65.47-24.75 11.02-26.19 24.6-1.11 10.47-1.11 20.95 0 31.42 1.44 13.59 12.55 24.13 26.2 24.61 49.08 1.72 98.169 1.72 147.249 0 13.65-.48 24.76-11.02 26.2-24.61 1.111-10.47 1.111-20.95.001-31.42zm-99.829 13.38c-13.96 0-25.28-11.32-25.28-25.29 0-13.96 11.32-25.28 25.28-25.28 13.97 0 25.29 11.32 25.29 25.28 0 13.97-11.32 25.29-25.29 25.29z" fill="#ffef4a"/></g><g><path d="m355.956 267.951c-1.117-3.487-4.192-5.98-7.823-6.45-4.595-.594-9.191-1.051-13.782-1.364-3.619-.251-6.747-2.559-8.132-5.914-.012-.037-.029-.074-.045-.111-1.389-3.351-.816-7.192 1.57-9.929 3.021-3.47 5.951-7.04 8.779-10.712 2.238-2.897 2.646-6.838.969-10.094-4.909-9.517-12.121-16.729-21.638-21.638-3.256-1.677-7.196-1.269-10.094.969-3.672 2.827-7.241 5.758-10.712 8.779-2.737 2.386-6.578 2.959-9.929 1.57-.037-.016-.074-.033-.111-.045-3.355-1.385-5.663-4.513-5.914-8.132-.313-4.591-.771-9.187-1.364-13.782-.47-3.631-2.963-6.706-6.45-7.823-10.201-3.256-20.406-3.256-30.606 0-3.487 1.117-5.98 4.192-6.45 7.823-.593 4.595-1.051 9.191-1.364 13.782-.251 3.619-2.559 6.747-5.914 8.132-.037.012-.074.029-.111.045-3.351 1.389-7.192.816-9.929-1.57-3.47-3.021-7.04-5.951-10.712-8.779-2.897-2.238-6.838-2.646-10.094-.969-9.517 4.909-16.729 12.121-21.638 21.638-1.677 3.256-1.269 7.196.969 10.094 2.827 3.672 5.758 7.241 8.779 10.712 2.386 2.737 2.959 6.578 1.57 9.929-.016.037-.033.074-.045.111-1.385 3.355-4.513 5.663-8.132 5.914-4.591.313-9.187.771-13.782 1.364-3.631.47-6.706 2.963-7.823 6.45-3.256 10.201-3.256 20.406 0 30.606 1.117 3.487 4.192 5.98 7.823 6.45 4.595.593 9.191 1.051 13.782 1.364 3.619.251 6.747 2.559 8.132 5.914.012.037.029.074.045.111 1.389 3.351.816 7.192-1.57 9.929-3.021 3.47-5.951 7.04-8.779 10.712-2.238 2.897-2.646 6.838-.969 10.094 4.909 9.517 12.121 16.729 21.638 21.638 3.256 1.677 7.196 1.269 10.094-.969 3.672-2.827 7.241-5.758 10.712-8.779 2.737-2.386 6.578-2.959 9.929-1.57.037.016.074.033.111.045 3.355 1.385 5.663 4.513 5.914 8.132.313 4.591.771 9.187 1.364 13.782.47 3.631 2.963 6.706 6.45 7.823 10.201 3.256 20.406 3.256 30.606 0 3.487-1.117 5.98-4.192 6.45-7.823.593-4.595 1.051-9.191 1.364-13.782.251-3.619 2.559-6.747 5.914-8.132.037-.012.074-.029.111-.045 3.351-1.389 7.192-.816 9.929 1.57 3.47 3.021 7.04 5.951 10.712 8.779 2.897 2.238 6.838 2.646 10.094.969 9.517-4.909 16.729-12.121 21.638-21.638 1.677-3.256 1.269-7.196-.969-10.094-2.827-3.672-5.758-7.241-8.779-10.712-2.386-2.737-2.959-6.578-1.57-9.929.016-.037.033-.074.045-.111 1.385-3.355 4.513-5.663 8.132-5.914 4.591-.313 9.187-.771 13.782-1.364 3.631-.47 6.706-2.963 7.823-6.45 3.256-10.201 3.256-20.406 0-30.606zm-99.979 56.954c-23.004 0-41.652-18.648-41.652-41.652s18.648-41.652 41.652-41.652 41.652 18.648 41.652 41.652-18.648 41.652-41.652 41.652z" fill="#c3bec6"/><path d="m185.798 345.648c-1.678-3.392-1.269-7.497.969-10.518 2.827-3.825 5.758-7.547 8.779-11.161 2.386-2.852 2.959-6.854 1.57-10.345-.016-.041-.033-.078-.045-.12-1.385-3.495-4.513-5.898-8.132-6.162-4.591-.326-9.187-.804-13.783-1.422-3.631-.49-6.706-3.087-7.823-6.722-3.256-10.63-3.256-21.263 0-31.893 1.117-3.635 4.192-6.232 7.823-6.722 4.596-.618 9.191-1.096 13.783-1.422 3.619-.264 6.747-2.667 8.132-6.162.012-.041.029-.078.045-.12 1.389-3.491.816-7.493-1.57-10.345-3.021-3.615-5.952-7.336-8.779-11.161-2.238-3.021-2.646-7.126-.969-10.518 4.093-8.268 9.789-14.871 17.084-19.8-2.23-.618-4.653-.412-6.784.684-9.517 4.909-16.725 12.118-21.634 21.634-1.678 3.256-1.269 7.196.969 10.094 2.827 3.672 5.758 7.242 8.775 10.712 2.386 2.737 2.959 6.578 1.57 9.929-.016.037-.033.074-.045.111-1.385 3.355-4.509 5.663-8.128 5.915-4.591.313-9.187.771-13.783 1.364-3.631.47-6.706 2.963-7.823 6.45-3.256 10.201-3.256 20.406 0 30.607 1.117 3.487 4.192 5.98 7.823 6.45 4.596.594 9.191 1.051 13.783 1.364 3.619.251 6.743 2.56 8.128 5.915.012.037.029.074.045.111 1.389 3.351.816 7.192-1.57 9.929-3.017 3.47-5.947 7.04-8.775 10.712-2.238 2.898-2.646 6.838-.969 10.094 4.909 9.517 12.118 16.725 21.634 21.634 2.131 1.096 4.554 1.302 6.784.684-7.295-4.929-12.991-11.532-17.084-19.8zm59.76 33.641c-.593-4.789-1.051-9.579-1.364-14.364-.251-3.771-2.56-7.031-5.915-8.474-.037-.012-.074-.029-.111-.045-2.399-1.039-5.049-1.026-7.365-.025 1.183 1.471 1.921 3.285 2.057 5.243.313 4.591.771 9.187 1.364 13.783.47 3.631 2.963 6.706 6.45 7.823 2.531.808 5.065 1.418 7.596 1.826-1.464-1.526-2.436-3.545-2.712-5.767zm-4.885-196.016c-3.487 1.117-5.98 4.192-6.45 7.823-.593 4.596-1.051 9.191-1.364 13.783-.136 1.958-.874 3.771-2.057 5.243 2.316 1.002 4.967 1.014 7.365-.025.037-.016.074-.033.111-.045 3.355-1.443 5.663-4.703 5.915-8.474.313-4.785.771-9.574 1.364-14.364.276-2.222 1.249-4.241 2.712-5.766-2.53.408-5.065 1.017-7.596 1.825z" fill="#b4acb7"/></g></g><g><path d="m454.726 161.356c-.217-4.137-3.765-7.303-7.883-7.096-4.137.217-7.313 3.747-7.096 7.883 5.179 98.542 3.79 198.479-4.126 297.034-1.268 15.729-13.609 28.338-29.343 29.983-99.731 10.408-200.871 10.407-300.611 0-15.73-1.646-28.067-14.255-29.334-29.981-9.573-119.17-9.573-240.019 0-359.187 1.267-15.721 13.604-28.327 29.332-29.972 14.628-1.525 29.411-2.835 44.108-3.92-.504 1.822-.874 3.7-1.078 5.629-1.142 10.773-1.154 21.695-.049 32.472-11.818 1.132-23.67 2.442-35.346 3.929-3.479.443-6.187 3.238-6.519 6.73-10.396 109.302-10.396 220.148 0 329.46.332 3.492 3.04 6.287 6.52 6.73 11.309 1.439 22.647 2.706 33.701 3.766.244.023.485.035.725.035 3.819 0 7.085-2.905 7.457-6.785.396-4.123-2.626-7.786-6.75-8.182-8.959-.859-18.109-1.856-27.279-2.973-9.561-104.427-9.561-210.226 0-314.644 10.678-1.301 21.471-2.448 32.219-3.445 5.913 9.999 16.604 16.797 28.716 17.223 24.514.859 49.2 1.289 73.887 1.289s49.375-.43 73.889-1.289c12.112-.426 22.803-7.224 28.715-17.222 10.766.999 21.56 2.146 32.218 3.445 9.552 104.419 9.552 210.217 0 314.645-70.648 8.596-142.167 10.436-212.685 5.467-4.129-.286-7.718 2.823-8.009 6.954-.291 4.132 2.822 7.718 6.954 8.009 26.121 1.84 52.366 2.759 78.665 2.759 47.685 0 95.52-3.022 142.93-9.051 3.479-.442 6.188-3.238 6.521-6.73 10.386-109.312 10.386-220.157 0-329.459-.332-3.492-3.04-6.287-6.52-6.73-11.655-1.485-23.508-2.796-35.346-3.929 1.106-10.778 1.093-21.699-.049-32.472-.205-1.929-.574-3.808-1.078-5.63 14.677 1.083 29.455 2.394 44.096 3.92 15.735 1.645 28.076 14.251 29.345 29.971.86 10.723 1.655 21.63 2.361 32.42.26 3.966 3.559 7.01 7.477 7.01.165 0 .331-.005.498-.017 4.133-.271 7.265-3.841 6.994-7.974-.712-10.863-1.512-21.844-2.379-32.643-1.848-22.918-19.821-41.291-42.737-43.687-18.242-1.902-36.69-3.468-54.899-4.682-6.032-5.934-14.157-9.688-23.043-9.994l-4.853-.171c-6.821-.218-13.127-3.954-16.45-9.741-10.778-18.821-30.94-30.513-52.62-30.513-21.673 0-41.832 11.692-52.604 30.505-3.328 5.795-9.633 9.53-16.495 9.75l-4.789.169c-8.899.306-17.03 4.06-23.065 9.995-18.238 1.216-36.691 2.781-54.913 4.681-22.908 2.397-40.877 20.77-42.725 43.69-9.637 119.967-9.637 241.624 0 361.593 1.847 22.923 19.816 41.3 42.728 43.697 50.387 5.257 101.127 7.886 151.867 7.886s101.479-2.628 151.862-7.886c22.915-2.396 40.888-20.773 42.735-43.699 7.969-99.216 9.367-199.822 4.153-299.025zm-272.103-105.941 4.768-.168c11.981-.383 23.087-7.001 28.989-17.279 8.112-14.168 23.283-22.968 39.592-22.968 16.315 0 31.49 8.8 39.605 22.975 5.898 10.271 17.005 16.888 28.944 17.27l4.832.171c9.779.336 17.943 8.03 18.989 17.895 1.05 9.9 1.05 19.938 0 29.839-1.045 9.863-9.215 17.56-19.004 17.904-48.679 1.707-98.044 1.707-146.723 0-9.79-.344-17.96-8.042-19.006-17.905-1.049-9.899-1.049-19.939 0-29.838 1.048-9.866 9.212-17.559 19.014-17.896z"/><path d="m255.972 93.399c18.08 0 32.79-14.709 32.79-32.79 0-18.075-14.71-32.78-32.79-32.78-18.075 0-32.78 14.705-32.78 32.78 0 18.081 14.705 32.79 32.78 32.79zm0-15c-9.234 0-16.841-7.081-17.694-16.101 11.779-.15 23.626-.15 35.399 0-.855 9.02-8.466 16.101-17.705 16.101zm11.673-31.174c-7.771-.064-15.565-.064-23.338 0 3.126-2.728 7.201-4.395 11.666-4.395 4.467 0 8.544 1.666 11.672 4.395z"/><path d="m255.977 332.405c27.103 0 49.152-22.049 49.152-49.152s-22.05-49.152-49.152-49.152-49.152 22.049-49.152 49.152 22.049 49.152 49.152 49.152zm0-83.303c18.832 0 34.152 15.32 34.152 34.152s-15.32 34.152-34.152 34.152-34.152-15.32-34.152-34.152 15.32-34.152 34.152-34.152z"/><path d="m169.49 328.457c-4.016 5.209-4.681 12.318-1.693 18.11 5.615 10.887 13.981 19.253 24.866 24.867 5.793 2.988 12.9 2.323 18.111-1.693 3.767-2.904 7.488-5.955 11.058-9.065.564-.493 1.38-.605 2.129-.295.003.001.118.049.121.05.747.309 1.242.965 1.293 1.712.326 4.735.8 9.523 1.409 14.23.843 6.523 5.4 12.02 11.608 14.004 5.833 1.863 11.708 2.795 17.583 2.795s11.75-.932 17.585-2.796c6.207-1.984 10.764-7.48 11.607-14.004.609-4.72 1.084-9.508 1.409-14.229.052-.748.547-1.403 1.263-1.699l.151-.063c.752-.311 1.564-.197 2.128.294 3.573 3.113 7.294 6.163 11.059 9.066 5.211 4.016 12.319 4.681 18.11 1.694 10.887-5.615 19.254-13.981 24.868-24.867 2.987-5.792 2.322-12.901-1.694-18.111-2.905-3.768-5.955-7.488-9.066-11.059-.491-.564-.604-1.38-.31-2.091l.065-.158c.309-.746.965-1.242 1.713-1.293 4.729-.326 9.516-.8 14.229-1.41 6.524-.843 12.021-5.399 14.004-11.607 3.729-11.668 3.729-23.5 0-35.167-1.982-6.208-7.479-10.765-14.003-11.608-4.705-.609-9.493-1.083-14.23-1.41-.748-.051-1.404-.547-1.713-1.293l-.05-.122c-.311-.748-.197-1.564.295-2.128 3.111-3.572 6.162-7.293 9.065-11.059 4.017-5.209 4.682-12.318 1.694-18.11-5.614-10.886-13.98-19.253-24.868-24.868-5.792-2.988-12.902-2.321-18.109 1.694-3.759 2.897-7.479 5.947-11.061 9.066-.563.491-1.379.604-2.091.31l-.157-.066c-.746-.308-1.241-.964-1.293-1.711-.325-4.721-.8-9.509-1.409-14.23-.844-6.524-5.4-12.021-11.608-14.003-11.669-3.728-23.5-3.729-35.167 0-6.208 1.983-10.765 7.48-11.609 14.004-.609 4.708-1.083 9.496-1.409 14.229-.051.748-.547 1.404-1.262 1.7l-.152.063c-.748.31-1.563.198-2.128-.295-3.578-3.117-7.299-6.167-11.059-9.066-5.209-4.016-12.318-4.682-18.11-1.694-10.886 5.614-19.252 13.981-24.867 24.867-2.988 5.792-2.323 12.901 1.693 18.11 2.896 3.757 5.946 7.478 9.066 11.06.492.564.604 1.38.294 2.128-.001.003-.049.118-.05.122-.308.746-.964 1.242-1.711 1.293-4.738.327-9.526.801-14.231 1.41-6.523.843-12.02 5.4-14.004 11.608-3.727 11.668-3.727 23.5 0 35.167 1.983 6.208 7.48 10.765 14.003 11.608 4.713.609 9.501 1.084 14.231 1.41.748.051 1.403.546 1.711 1.292.011.027.039.096.051.123.31.748.197 1.563-.295 2.128-3.116 3.577-6.166 7.298-9.063 11.056zm8.629-29.567c-4.433-.305-8.92-.75-13.337-1.321-.776-.101-1.419-.609-1.639-1.297-2.799-8.76-2.799-17.277 0-26.038.22-.688.863-1.196 1.64-1.297 4.409-.571 8.896-1.015 13.337-1.321 6.473-.447 12.045-4.482 14.544-10.531l.041-.1c2.509-6.046 1.421-12.84-2.839-17.729-2.924-3.356-5.783-6.844-8.497-10.365-.478-.619-.572-1.434-.242-2.075 4.216-8.174 10.238-14.197 18.411-18.412.642-.332 1.457-.235 2.077.242 3.524 2.717 7.011 5.575 10.364 8.496 4.891 4.26 11.683 5.349 17.729 2.839.023-.009.078-.032.101-.042 6.049-2.499 10.084-8.072 10.531-14.545.305-4.437.75-8.924 1.32-13.337.101-.776.609-1.419 1.297-1.639 8.76-2.799 17.276-2.799 26.038 0 .688.219 1.196.863 1.296 1.638.572 4.426 1.017 8.913 1.321 13.337.445 6.473 4.48 12.046 10.531 14.545l.1.041c6.044 2.508 12.84 1.421 17.729-2.839 3.354-2.922 6.842-5.78 10.366-8.497.619-.478 1.432-.572 2.075-.242 8.174 4.216 14.196 10.238 18.411 18.412.331.641.236 1.456-.241 2.075-2.722 3.531-5.581 7.018-8.496 10.365-4.26 4.889-5.349 11.682-2.844 17.72.015.037.029.073.045.109 2.498 6.049 8.071 10.085 14.545 10.531 4.44.306 8.927.75 13.337 1.321.776.101 1.419.609 1.639 1.297 2.8 8.76 2.8 17.277 0 26.037v.001c-.22.687-.862 1.196-1.639 1.296-4.418.571-8.905 1.016-13.336 1.321-6.474.445-12.047 4.481-14.546 10.531-.011.026-.031.075-.042.101-2.508 6.046-1.419 12.839 2.84 17.729 2.915 3.346 5.774 6.833 8.497 10.364.478.62.572 1.435.241 2.077-4.215 8.173-10.237 14.195-18.412 18.411-.64.331-1.455.235-2.075-.242-3.529-2.721-7.017-5.58-10.364-8.497-4.89-4.26-11.683-5.348-17.688-2.856l-.141.058c-6.051 2.5-10.086 8.073-10.531 14.545-.305 4.425-.749 8.912-1.321 13.337-.1.776-.609 1.419-1.296 1.639-8.76 2.799-17.277 2.799-26.038 0-.688-.22-1.197-.863-1.297-1.639-.57-4.412-1.015-8.899-1.32-13.338-.446-6.472-4.481-12.045-10.531-14.544l-2.864 6.932 2.763-6.973c-6.046-2.508-12.839-1.42-17.73 2.839-3.346 2.916-6.833 5.774-10.363 8.496-.621.478-1.436.572-2.077.242-8.173-4.214-14.195-10.237-18.411-18.411-.331-.642-.236-1.457.242-2.076 2.715-3.521 5.574-7.009 8.497-10.364 4.26-4.89 5.348-11.683 2.856-17.688l-.058-.141c-2.499-6.046-8.072-10.082-14.546-10.528z"/></g></g></svg>