<svg id="Capa_1" enable-background="new 0 0 512 512" height="512" viewBox="0 0 512 512" width="512" xmlns="http://www.w3.org/2000/svg"><g><g><circle cx="104.602" cy="128.284" fill="#655e66" r="97.102"/><circle cx="104.602" cy="128.284" fill="#c3bec6" r="42.976"/><path d="m117.906 169.164c-4.18 1.36-8.66 2.1-13.3 2.1-23.74 0-42.98-19.24-42.98-42.98 0-23.73 19.24-42.97 42.98-42.97 4.64 0 9.12.74 13.3 2.1-17.23 5.6-29.68 21.78-29.68 40.87 0 19.1 12.45 35.28 29.68 40.88z" fill="#b4acb7"/><circle cx="407.398" cy="128.284" fill="#655e66" r="97.102"/><circle cx="407.398" cy="128.284" fill="#c3bec6" r="42.976"/><path d="m420.702 169.164c-4.18 1.36-8.66 2.1-13.3 2.1-23.74 0-42.98-19.24-42.98-42.98 0-23.73 19.24-42.97 42.98-42.97 4.64 0 9.12.74 13.3 2.1-17.23 5.6-29.68 21.78-29.68 40.87 0 19.1 12.45 35.28 29.68 40.88z" fill="#b4acb7"/><circle cx="256" cy="340.057" fill="#655e66" r="97.102"/><path d="m479.118 369.489c-6.983 0-13.765-3.663-17.439-10.18-20.215-35.847-49.586-65.948-84.938-87.049-36.374-21.709-78.125-33.185-120.74-33.185s-84.366 11.475-120.74 33.185c-35.353 21.101-64.724 51.202-84.938 87.049-5.424 9.621-17.622 13.025-27.244 7.597-9.622-5.425-13.023-17.623-7.598-27.245 23.628-41.902 57.959-77.086 99.28-101.749 42.569-25.408 91.41-38.837 141.24-38.837s98.671 13.43 141.24 38.837c41.321 24.663 75.652 59.847 99.28 101.749 5.426 9.622 2.024 21.819-7.598 27.245-3.105 1.752-6.478 2.583-9.805 2.583z" fill="#f9f6f9"/><g fill="#e2dfe2"><path d="m44.102 339.662c23.628-41.902 57.959-77.086 99.28-101.749 38.485-22.97 82.096-36.147 126.929-38.465-4.758-.246-9.53-.372-14.311-.372-49.83 0-98.671 13.43-141.24 38.837-41.321 24.663-75.652 59.847-99.28 101.749-5.426 9.622-2.024 21.819 7.598 27.245 8.075 4.555 17.95 2.871 24.127-3.47-6.043-6.197-7.57-15.855-3.103-23.775z"/><path d="m490.301 359.309c-20.215-35.847-49.586-65.948-84.938-87.049-36.374-21.709-78.125-33.185-120.74-33.185-4.784 0-9.556.153-14.311.44 37.609 2.273 74.138 13.472 106.429 32.745 35.353 21.101 64.724 51.202 84.938 87.049 3.675 6.517 10.456 10.18 17.439 10.18 3.327 0 6.7-.832 9.805-2.583 1.696-.957 3.188-2.132 4.483-3.458-1.182-1.214-2.233-2.593-3.105-4.139z"/></g><circle cx="256" cy="340.057" fill="#c3bec6" r="42.976"/><path d="m269.304 380.937c-4.18 1.36-8.66 2.1-13.3 2.1-23.74 0-42.98-19.24-42.98-42.98 0-23.73 19.24-42.97 42.98-42.97 4.64 0 9.12.74 13.3 2.1-17.23 5.6-29.68 21.78-29.68 40.87 0 19.1 12.45 35.28 29.68 40.88z" fill="#b4acb7"/><g fill="#f9f6f9"><g><path d="m369.464 431.028 2.045-.201c7.213-.708 13.743 4.29 14.943 11.438l3.692 21.986c1.322 7.875-4.302 15.223-12.249 16.003l-5.082.499c-7.947.78-14.893-5.333-15.128-13.316l-.655-22.285c-.212-7.243 5.221-13.416 12.434-14.124z"/><path d="m433.581 407.487 1.671-1.197c5.893-4.22 14.047-3.156 18.66 2.434l14.19 17.195c5.083 6.159 3.886 15.335-2.606 19.984l-4.152 2.973c-6.492 4.649-15.565 2.828-19.759-3.968l-11.709-18.971c-3.807-6.168-2.188-14.23 3.705-18.45z"/></g><g><path d="m142.536 431.028-2.045-.201c-7.213-.708-13.743 4.29-14.943 11.438l-3.692 21.986c-1.322 7.875 4.302 15.223 12.249 16.003l5.082.499c7.947.78 14.893-5.333 15.128-13.316l.655-22.285c.212-7.243-5.221-13.416-12.434-14.124z"/><path d="m78.419 407.487-1.671-1.197c-5.893-4.22-14.047-3.156-18.66 2.434l-14.19 17.195c-5.083 6.159-3.886 15.335 2.606 19.984l4.152 2.973c6.492 4.649 15.565 2.828 19.759-3.968l11.709-18.971c3.807-6.168 2.188-14.23-3.705-18.45z"/></g></g></g><g><path d="m104.602 178.76c27.833 0 50.477-22.643 50.477-50.476s-22.644-50.476-50.477-50.476c-27.832 0-50.476 22.643-50.476 50.476s22.644 50.476 50.476 50.476zm0-85.951c19.562 0 35.477 15.914 35.477 35.476s-15.915 35.476-35.477 35.476-35.476-15.914-35.476-35.476 15.914-35.476 35.476-35.476z"/><path d="m407.398 178.76c27.832 0 50.476-22.643 50.476-50.476s-22.644-50.476-50.476-50.476c-27.833 0-50.477 22.643-50.477 50.476s22.644 50.476 50.477 50.476zm0-85.951c19.562 0 35.476 15.914 35.476 35.476s-15.914 35.476-35.476 35.476-35.477-15.914-35.477-35.476 15.916-35.476 35.477-35.476z"/><path d="m403.264 232.797c1.372.054 2.749.089 4.134.089 57.678 0 104.602-46.924 104.602-104.602s-46.924-104.602-104.602-104.602-104.602 46.924-104.602 104.602c0 28.929 11.806 55.15 30.851 74.105-25.117-7.137-51.246-10.818-77.647-10.818-26.405 0-52.537 3.682-77.657 10.821 19.049-18.955 30.858-45.179 30.858-74.111 0-57.676-46.924-104.6-104.601-104.6s-104.6 46.924-104.6 104.6c0 26.562 9.971 51.881 28.074 71.295 2.825 3.029 7.57 3.196 10.601.37 3.029-2.825 3.195-7.57.37-10.6-15.506-16.627-24.045-38.314-24.045-61.065 0-49.405 40.194-89.6 89.6-89.6s89.601 40.194 89.601 89.6-40.194 89.6-89.601 89.6c-15.396 0-30.571-3.967-43.887-11.474-3.608-2.034-8.183-.757-10.216 2.851-2.034 3.608-.758 8.183 2.851 10.217 15.559 8.771 33.281 13.406 51.252 13.406 1.388 0 2.769-.036 4.144-.089-41.463 25.254-75.938 60.88-99.794 103.183-3.611 6.397-4.513 13.82-2.537 20.899 1.975 7.074 6.585 12.958 12.986 16.572 13.211 7.443 30.015 2.755 37.454-10.45 19.579-34.714 48.021-63.863 82.251-84.295 17.723-10.579 36.766-18.645 56.571-24.051-26.769 18.963-44.276 50.178-44.276 85.407 0 57.678 46.924 104.602 104.602 104.602s104.602-46.924 104.602-104.602c0-35.229-17.507-66.444-44.276-85.407 19.805 5.406 38.848 13.472 56.571 24.051 13.826 8.252 26.828 18.01 38.646 29.002 3.035 2.822 7.78 2.649 10.6-.384 2.821-3.033 2.649-7.778-.383-10.6-12.591-11.71-26.443-22.106-41.175-30.898-37.537-22.407-80.617-34.25-124.584-34.25s-87.047 11.843-124.584 34.25c-36.468 21.767-66.769 52.822-87.63 89.809-1.638 2.906-4.31 5-7.525 5.897-3.218.899-6.591.489-9.494-1.147-2.91-1.643-5.008-4.32-5.906-7.539-.897-3.217-.489-6.588 1.153-9.496 22.994-40.773 56.395-75.005 96.59-98.994 41.408-24.716 88.919-37.78 137.396-37.78s95.988 13.064 137.396 37.781c40.195 23.989 73.596 58.22 96.592 98.997 1.641 2.905 2.049 6.276 1.151 9.493-.898 3.218-2.996 5.896-5.907 7.539-1.894 1.069-3.95 1.611-6.112 1.611-4.515 0-8.694-2.438-10.907-6.363-7.232-12.829-15.716-25.101-25.217-36.475-2.655-3.178-7.385-3.604-10.563-.948-3.18 2.655-3.604 7.385-.948 10.564 8.916 10.675 16.877 22.19 23.662 34.225 4.867 8.634 14.054 13.997 23.974 13.997 4.711 0 9.375-1.227 13.486-3.549 6.396-3.611 11.007-9.495 12.981-16.569 1.976-7.079 1.074-14.501-2.535-20.896-23.86-42.303-58.332-77.928-99.791-103.181zm-85.468-104.513c0-49.407 40.195-89.602 89.603-89.602 49.406 0 89.602 40.195 89.602 89.602s-40.195 89.602-89.602 89.602c-49.408 0-89.603-40.195-89.603-89.602zm27.806 211.773c0 49.407-40.195 89.602-89.602 89.602s-89.602-40.195-89.602-89.602c0-49.406 40.195-89.602 89.602-89.602s89.602 40.196 89.602 89.602z"/><path d="m205.524 340.057c0 27.833 22.644 50.476 50.476 50.476s50.476-22.644 50.476-50.476-22.644-50.475-50.476-50.475-50.476 22.643-50.476 50.475zm85.952 0c0 19.562-15.914 35.476-35.476 35.476s-35.476-15.915-35.476-35.476 15.914-35.476 35.476-35.476 35.476 15.915 35.476 35.476z"/><path d="m393.849 441.023c-1.845-10.992-11.978-18.751-23.073-17.66l-2.046.201c-11.091 1.09-19.523 10.669-19.196 21.81l.655 22.284c.173 5.874 2.802 11.47 7.213 15.353 3.894 3.427 8.934 5.308 14.084 5.308.686 0 1.373-.033 2.061-.101l5.082-.499c5.849-.574 11.252-3.58 14.824-8.247 3.571-4.667 5.062-10.667 4.089-16.463zm-12.309 29.332c-1.07 1.398-2.625 2.263-4.377 2.435l-5.082.499c-1.745.172-3.446-.374-4.769-1.538-1.322-1.164-2.078-2.773-2.13-4.534l-.655-22.284c-.097-3.291 2.394-6.12 5.669-6.441h.002l2.044-.201c.206-.021.41-.03.613-.03 3.028 0 5.689 2.204 6.2 5.246l3.692 21.986c.293 1.737-.137 3.464-1.207 4.862z"/><path d="m459.697 403.951c-7.096-8.598-19.75-10.247-28.812-3.758l-1.671 1.196s0 0-.001 0c-9.062 6.49-11.574 19.002-5.72 28.486l11.709 18.972c3.087 5.001 8.161 8.533 13.923 9.689 1.38.277 2.775.413 4.167.413 4.417 0 8.784-1.374 12.417-3.976l4.153-2.974c4.777-3.422 7.953-8.726 8.713-14.553.761-5.828-.949-11.77-4.689-16.302zm4.005 31.557c-.228 1.746-1.142 3.272-2.572 4.297l-4.153 2.974c-1.432 1.025-3.168 1.399-4.897 1.052-1.727-.347-3.187-1.363-4.112-2.861l-11.709-18.972c-1.729-2.801-.986-6.497 1.69-8.413l1.671-1.196c2.676-1.917 6.414-1.428 8.508 1.109l14.19 17.195c1.12 1.358 1.613 3.068 1.384 4.815z"/><path d="m143.271 423.564-2.048-.202c-11.075-1.083-21.226 6.668-23.071 17.66l-3.692 21.987c-.973 5.795.518 11.796 4.089 16.462 3.572 4.667 8.976 7.673 14.824 8.247l5.082.499c.688.067 1.374.101 2.061.101 5.15 0 10.191-1.881 14.084-5.308 4.411-3.883 7.04-9.479 7.213-15.353l.655-22.284c.326-11.139-8.107-20.719-19.197-21.809zm3.546 43.654c-.052 1.76-.808 3.37-2.13 4.534s-3.016 1.714-4.769 1.538l-5.082-.499c-1.752-.172-3.307-1.037-4.377-2.435-1.07-1.399-1.5-3.125-1.208-4.862l3.692-21.987c.511-3.042 3.172-5.246 6.199-5.246.203 0 .407.01.612.03l2.046.201h.002c3.275.321 5.766 3.15 5.669 6.441z"/><path d="m82.786 401.389c-.001 0-.001 0 0 0l-1.671-1.196c-9.063-6.489-21.717-4.839-28.813 3.758l-14.188 17.194c-3.741 4.533-5.451 10.475-4.69 16.302.76 5.827 3.936 11.131 8.714 14.554l4.151 2.973c3.635 2.603 8.001 3.977 12.419 3.977 1.39 0 2.786-.136 4.166-.413 5.762-1.157 10.836-4.688 13.923-9.69l11.709-18.972c5.854-9.484 3.342-21.997-5.72-28.487zm-7.044 20.609-11.709 18.971c-.926 1.499-2.386 2.515-4.112 2.862-1.729.347-3.466-.027-4.898-1.053l-4.151-2.973c-1.432-1.025-2.346-2.551-2.573-4.297-.229-1.747.264-3.457 1.386-4.815l14.188-17.195c1.234-1.495 3.038-2.279 4.859-2.279 1.271 0 2.551.382 3.65 1.17l1.67 1.196c2.677 1.916 3.419 5.611 1.69 8.413z"/></g></g></svg>