<svg id="Capa_1" enable-background="new 0 0 512 512" height="512" viewBox="0 0 512 512" width="512" xmlns="http://www.w3.org/2000/svg"><g><g><path d="m258.235 11.302c-1.49-.002-2.98-.002-4.47 0-128.832.141-233.429 104.739-233.571 233.571-.083 75.25 4.015 150.5 12.292 225.75 149.009 16.391 298.019 16.391 447.028 0 8.277-75.25 12.375-150.5 12.292-225.75-.141-128.832-104.739-233.43-233.571-233.571z" fill="#f9f6f9"/><path d="m62.011 470.62c62.64 7.94 125.28 12.03 187.93 12.28-72.49-.21-144.98-4.3-217.46-12.28-8.28-75.25-12.37-150.5-12.29-225.75.14-128.06 103.489-232.17 231.249-233.55-110.6 1.76-199.97 105.73-200.1 233.55-.07 75.25 3.49 150.5 10.671 225.75z" fill="#e2dfe2"/><path d="m394.357 184.414c-112.274-10.827-171.798-.769-284.072 10.059-3.088 24.608-28.099 26.521-29.642 51.129-4.631 73.824-2.316 147.648 6.947 221.472 112.274 10.828 224.548 10.828 336.822 0 9.186-73.211 11.539-146.423 7.061-219.635-1.544-25.22-33.952-37.804-37.116-63.025z" fill="#535057"/><path d="m431.469 247.437h-.01c-116.97-9.15-233.95-9.15-350.92 0h-.01c1.54-25.22 3.89-50.44 7.06-75.66 112.28-10.83 224.55-10.83 336.82 0 3.17 25.22 5.52 50.44 7.06 75.66z" fill="#e2dfe2"/><path d="m251.897 369.006c-41.011 2.675-82.026 2.675-123.041 0-4.512-24.338-4.512-48.673 0-73.011 12.981-.847 25.967-1.424 38.948-1.735 15.049-.364 30.097-.364 45.146 0 12.981.311 25.967.887 38.948 1.735 4.511 24.339 4.511 48.673-.001 73.011z" fill="#da4a54"/><path d="m145.2 369.929c-5.448-.257-10.896-.568-16.344-.923-4.512-24.338-4.512-48.673 0-73.011 5.448-.355 10.896-.665 16.344-.923-4.468 24.956-4.468 49.906 0 74.857z" fill="#d82e3d"/><path d="m212.949 294.261v39.471c0 3.971-4.53 6.246-7.715 3.873l-10.115-7.538c-2.813-2.094-6.668-2.094-9.485 0l-10.111 7.538c-3.185 2.373-7.719.098-7.719-3.873v-39.471c15.048-.364 30.097-.364 45.145 0z" fill="#f9f6f9"/><path d="m263.945 455.922c-49.042 3.199-98.089 3.199-147.136 0-5.395-29.105-5.395-58.204 0-87.309 15.523-1.013 31.052-1.703 46.575-2.074 17.995-.435 35.991-.435 53.986 0 15.523.371 31.052 1.061 46.575 2.074 5.395 29.105 5.395 58.204 0 87.309z" fill="#e27d47"/><path d="m136.353 457.025c-6.515-.308-13.03-.679-19.545-1.104-5.395-29.105-5.395-58.204 0-87.309 6.515-.424 13.03-.796 19.545-1.104-5.342 29.844-5.342 59.68 0 89.517z" fill="#dd6938"/><path d="m217.37 366.539v47.201c0 4.748-5.417 7.47-9.226 4.631l-12.096-9.014c-3.364-2.504-7.974-2.504-11.343 0l-12.091 9.014c-3.809 2.838-9.231.117-9.231-4.631v-47.201c17.996-.435 35.991-.435 53.987 0z" fill="#f9f6f9"/><g><path d="m394.99 455.38c-49.04 3.92-98.09 3.92-147.14 0-5.39-35.69-5.39-71.38 0-107.07 15.53-1.24 31.05-2.09 46.58-2.55 17.99-.53 35.99-.53 53.98 0 15.53.46 31.06 1.31 46.58 2.55 5.39 35.69 5.39 71.38 0 107.07z" fill="#ffef4a"/><path d="m348.41 345.76v35.83c0 4.75-5.41 7.47-9.22 4.63l-12.1-9.01c-3.36-2.51-7.97-2.51-11.34 0l-12.09 9.01c-3.81 2.84-9.23.12-9.23-4.63v-35.83c17.99-.53 35.99-.53 53.98 0z" fill="#f9f6f9"/></g><path d="m481.049 500.7h-450.098c-12.951 0-23.45-10.499-23.45-23.451 0-12.951 10.499-23.451 23.451-23.451h450.098c12.951 0 23.451 10.499 23.451 23.451-.001 12.952-10.5 23.451-23.452 23.451z" fill="#78d0b1"/><path d="m504.499 477.25c0 6.47-2.62 12.34-6.87 16.58-4.24 4.25-10.11 6.87-16.58 6.87h-450.099c-12.95 0-23.45-10.5-23.45-23.45 0-3.3.68-6.45 1.92-9.31 3.6 8.32 11.89 14.14 21.53 14.14h450.1c6.47 0 12.34-2.62 16.58-6.87 2.08-2.07 3.77-4.54 4.95-7.27 1.239 2.86 1.919 6.01 1.919 9.31z" fill="#66b49d"/></g><path d="m489.45 447.47c6.6-67.22 9.93-135.34 9.86-202.61-.07-64.31-25.19-124.8-70.73-170.34-45.53-45.53-106.02-70.65-170.34-70.72h-4.49c-42.81.05-84.87 11.48-121.64 33.06-2.29 1.35-3.7 3.81-3.7 6.47v.01c0 4.14 3.36 7.49 7.5 7.49 1.47 0 2.84-.42 4-1.15 34.42-20.16 73.79-30.83 113.85-30.88h4.47c124.52.14 225.94 101.55 226.08 226.08.07 66.87-3.24 134.6-9.82 201.42h-40.139c7.093-66.157 8.654-133.167 4.606-199.318-.005-.085-.012-.17-.02-.255-1.553-25.332-3.936-50.862-7.084-75.883-.438-3.48-3.23-6.192-6.721-6.529-112.222-10.825-226.028-10.825-338.261 0-3.492.337-6.284 3.05-6.721 6.531-3.08 24.531-5.425 49.42-6.968 73.982-.017.159-.028.318-.034.477l-.013.244c-.008.149-.017.298-.023.446l-.067 1.018c-.007.121-.011.242-.012.363-4.021 66.06-2.455 132.934 4.619 198.925h-40.142c-6.58-66.82-9.89-134.55-9.82-201.42.04-35.57 8.12-69.62 24-101.2 15.15-30.121 37.31-56.981 64.07-77.681 3.27-2.53 3.88-7.24 1.34-10.52-2.53-3.27-7.24-3.88-10.52-1.34-28.52 22.05-52.14 50.68-68.29 82.8-16.94 33.68-25.55 69.99-25.6 107.92-.07 67.27 3.26 135.39 9.86 202.61-13 3.67-22.55 15.63-22.55 29.78 0 17.07 13.88 30.95 30.95 30.95h450.1c17.07 0 30.95-13.88 30.95-30.95 0-14.15-9.55-26.11-22.55-29.78zm-395.152-268.792c107.336-9.977 216.079-9.977 323.405 0 .968 8.031 1.852 16.111 2.658 24.212-109.116-7.97-219.606-7.97-328.722 0 .805-8.086 1.69-16.166 2.659-24.212zm-4.066 39.354c110.034-8.163 221.498-8.163 331.534 0 .615 7.099 1.172 14.204 1.658 21.3-111.146-8.261-223.699-8.261-334.846 0 .485-7.084 1.038-14.188 1.654-21.3zm-2.57 36.406c111.745-8.409 224.941-8.409 336.687.001 3.537 63.723 1.828 128.196-5.085 191.861h-15.474c1.06-8.65 1.82-17.34 2.26-25.94.21-4.14-2.97-7.66-7.11-7.87-4.15-.22-7.66 2.97-7.87 7.11-.45 8.85-1.26 17.8-2.4 26.7h-134.5c-3.86-30.23-3.79-60.76.26-90.97 10.8-.8 21.64-1.39 32.5-1.8v28.06c0 5.05 2.81 9.6 7.32 11.86 1.9.96 3.94 1.43 5.97 1.43 2.8 0 5.57-.9 7.92-2.65l12.09-9.01c.71-.53 1.67-.53 2.38.01l12.1 9c4.05 3.02 9.37 3.49 13.88 1.23 4.51-2.27 7.32-6.82 7.32-11.87v-28.06c10.86.41 21.7 1 32.5 1.8 1.56 11.64 2.54 23.38 2.92 34.98.14 4.14 3.59 7.36 7.75 7.25 4.14-.14 7.38-3.61 7.25-7.75-.47-14.13-1.79-28.47-3.92-42.62-.52-3.44-3.35-6.08-6.82-6.36-44.09-3.53-88.75-3.89-132.97-1.09.54-15.01-.57-30.15-3.35-45.12-.62-3.37-3.46-5.89-6.88-6.11-41.15-2.68-82.87-2.68-124.02 0-3.42.22-6.26 2.74-6.88 6.11-4.08 22-4.58 44.25-1.53 66.28-1.21.08-2.43.15-3.64.23-3.42.22-6.26 2.74-6.88 6.11-4.87 26.22-5.46 52.77-1.79 79.06h-14.914c-6.909-63.631-8.614-128.105-5.074-191.862zm214.268 123.722v-25.07c12.99-.27 25.99-.27 38.98 0v25.06l-9.33-6.95c-5.97-4.46-14.33-4.46-20.31 0zm-138.72 47.44c1.89.96 3.94 1.43 5.97 1.43 2.79 0 5.57-.9 7.92-2.65l12.08-9c.72-.54 1.68-.54 2.39-.01l12.09 9.02c4.05 3.01 9.37 3.48 13.89 1.21 4.51-2.26 7.32-6.81 7.32-11.86v-39.47c4.16.13 8.31.28 12.47.45-1.78 23.85-1.2 47.8 1.72 71.58h-116.24c-3.49-23.45-3.38-47.13.37-70.57 10.87-.66 21.78-1.14 32.69-1.47v39.48c0 5.05 2.81 9.6 7.33 11.86zm7.67-15.29v-36.41c13-.23 26.01-.22 38.99.01v36.39l-9.34-6.96c-6.07-4.51-14.23-4.52-20.31 0zm67.89-50.56c-34.45-1.47-69.25-1.36-103.78.32-2.74-18.92-2.66-38.03.27-56.96 8.33-.49 16.68-.85 25.04-1.12v31.74c0 4.69 2.61 8.91 6.8 11.02 4.2 2.11 9.14 1.67 12.91-1.13l10.1-7.53c.16-.12.38-.12.53-.01l10.11 7.54c2.18 1.62 4.76 2.45 7.36 2.45 1.88 0 3.78-.43 5.54-1.32 4.19-2.1 6.8-6.33 6.8-11.02v-31.74c8.37.27 16.72.63 25.05 1.12 1.94 12.54 2.63 25.17 2.08 37.7-.11.01-.22.02-.33.02-3.47.28-6.3 2.92-6.82 6.36-.63 4.18-1.18 8.37-1.66 12.56zm-63.47-31.34v-26.79c10.05-.16 20.1-.16 30.15 0v26.79l-5.85-4.36c-5.51-4.1-12.92-4.1-18.45 0zm305.75 164.79h-450.1c-8.79 0-15.95-7.16-15.95-15.95 0-8.8 7.16-15.95 15.95-15.95h450.1c8.79 0 15.95 7.15 15.95 15.95 0 8.79-7.16 15.95-15.95 15.95z"/></g></svg>