<svg id="Capa_1" enable-background="new 0 0 511.984 511.984" height="512" viewBox="0 0 511.984 511.984" width="512" xmlns="http://www.w3.org/2000/svg"><g><g><g><path d="m315.616 136.487c-1.654-5.163-6.206-8.855-11.583-9.551-6.804-.879-13.609-1.556-20.407-2.02-5.358-.372-9.99-3.79-12.04-8.757-.018-.055-.043-.11-.067-.165-2.057-4.961-1.208-10.649 2.325-14.701 4.473-5.138 8.812-10.423 12.999-15.861 3.314-4.29 3.918-10.124 1.434-14.945-7.268-14.091-17.948-24.77-32.039-32.039-4.821-2.484-10.655-1.88-14.945 1.434-5.437 4.186-10.722 8.525-15.861 12.999-4.052 3.533-9.74 4.382-14.701 2.325-.055-.024-.11-.049-.165-.067-4.968-2.051-8.385-6.682-8.757-12.04-.464-6.798-1.141-13.603-2.02-20.407-.696-5.376-4.388-9.929-9.551-11.583-15.104-4.821-30.214-4.821-45.318 0-5.163 1.654-8.855 6.206-9.551 11.583-.879 6.804-1.556 13.609-2.02 20.407-.372 5.358-3.79 9.99-8.757 12.04-.055.018-.11.043-.165.067-4.961 2.057-10.649 1.208-14.701-2.325-5.138-4.473-10.423-8.812-15.861-12.999-4.29-3.314-10.124-3.918-14.945-1.434-14.091 7.268-24.77 17.948-32.039 32.039-2.484 4.821-1.88 10.655 1.434 14.945 4.186 5.437 8.525 10.722 12.999 15.861 3.533 4.052 4.382 9.74 2.325 14.701-.024.055-.049.11-.067.165-2.05 4.968-6.682 8.385-12.04 8.757-6.798.464-13.603 1.141-20.407 2.02-5.376.696-9.929 4.388-11.583 9.551-4.821 15.104-4.821 30.214 0 45.318 1.654 5.163 6.206 8.855 11.583 9.551 6.804.879 13.609 1.556 20.407 2.02 5.358.372 9.99 3.79 12.04 8.757.018.055.043.11.067.165 2.057 4.961 1.208 10.649-2.325 14.701-4.473 5.138-8.812 10.423-12.999 15.861-3.314 4.29-3.918 10.124-1.434 14.945 7.268 14.091 17.948 24.771 32.039 32.039 4.821 2.484 10.655 1.88 14.945-1.434 5.437-4.186 10.722-8.525 15.861-12.999 4.052-3.533 9.74-4.382 14.701-2.325.055.024.11.049.165.067 4.968 2.05 8.385 6.682 8.757 12.04.464 6.798 1.141 13.603 2.02 20.407.696 5.376 4.388 9.929 9.551 11.583 15.104 4.821 30.214 4.821 45.318 0 5.163-1.654 8.855-6.206 9.551-11.583.879-6.804 1.556-13.609 2.02-20.407.372-5.358 3.79-9.99 8.757-12.04.055-.018.11-.043.165-.067 4.961-2.057 10.649-1.208 14.701 2.325 5.138 4.473 10.423 8.812 15.861 12.999 4.29 3.314 10.124 3.918 14.945 1.434 14.091-7.268 24.77-17.948 32.039-32.039 2.484-4.821 1.88-10.655-1.434-14.945-4.186-5.437-8.525-10.722-12.999-15.861-3.533-4.052-4.382-9.74-2.325-14.701.024-.055.049-.11.067-.165 2.05-4.968 6.682-8.385 12.04-8.757 6.798-.464 13.603-1.141 20.407-2.02 5.376-.696 9.929-4.388 11.583-9.551 4.821-15.104 4.821-30.214 0-45.318zm-148.038 84.332c-34.061 0-61.673-27.612-61.673-61.673s27.612-61.673 61.673-61.673 61.673 27.612 61.673 61.673-27.611 61.673-61.673 61.673z" fill="#f9f6f9"/><path d="m63.666 251.533c-2.484-5.023-1.88-11.101 1.434-15.574 4.187-5.663 8.526-11.174 12.999-16.526 3.534-4.223 4.382-10.149 2.325-15.318-.024-.061-.049-.116-.067-.177-2.051-5.175-6.683-8.733-12.041-9.124-6.798-.482-13.603-1.19-20.408-2.105-5.377-.726-9.929-4.571-11.583-9.954-4.821-15.739-4.821-31.484 0-47.223 1.654-5.383 6.207-9.227 11.583-9.954 6.805-.915 13.609-1.623 20.408-2.105 5.358-.391 9.99-3.949 12.041-9.124.018-.061.043-.116.067-.177 2.057-5.169 1.208-11.095-2.325-15.318-4.473-5.352-8.812-10.863-12.999-16.526-3.314-4.473-3.918-10.552-1.434-15.574 6.06-12.242 14.494-22.019 25.296-29.318-3.302-.915-6.89-.61-10.045 1.013-14.091 7.267-24.765 17.941-32.033 32.032-2.484 4.821-1.88 10.655 1.434 14.946 4.187 5.438 8.526 10.723 12.993 15.861 3.533 4.052 4.382 9.74 2.325 14.702-.024.055-.049.11-.067.165-2.051 4.968-6.676 8.385-12.035 8.757-6.798.464-13.603 1.141-20.408 2.02-5.377.696-9.929 4.388-11.583 9.551-4.821 15.104-4.821 30.215 0 45.319 1.654 5.163 6.207 8.855 11.583 9.551 6.805.879 13.609 1.556 20.408 2.02 5.358.372 9.984 3.79 12.035 8.758.018.055.043.11.067.165 2.057 4.962 1.208 10.649-2.325 14.702-4.467 5.139-8.806 10.424-12.993 15.861-3.314 4.29-3.918 10.125-1.434 14.946 7.268 14.091 17.942 24.765 32.034 32.034 3.155 1.623 6.744 1.928 10.045 1.013-10.802-7.301-19.237-17.077-25.297-29.319zm88.485 49.811c-.879-7.091-1.556-14.183-2.02-21.268-.372-5.584-3.79-10.411-8.757-12.547-.055-.018-.11-.043-.165-.067-3.552-1.538-7.476-1.52-10.906-.037 1.751 2.179 2.844 4.864 3.045 7.763.464 6.799 1.141 13.603 2.02 20.408.696 5.377 4.388 9.929 9.551 11.583 3.747 1.196 7.5 2.099 11.247 2.704-2.166-2.26-3.606-5.25-4.015-8.539zm-7.232-290.237c-5.163 1.654-8.855 6.207-9.551 11.583-.879 6.805-1.556 13.609-2.02 20.408-.201 2.899-1.294 5.584-3.045 7.763 3.43 1.483 7.354 1.501 10.906-.037.055-.024.11-.049.165-.067 4.968-2.136 8.385-6.963 8.757-12.547.464-7.085 1.141-14.177 2.02-21.268.409-3.289 1.849-6.28 4.016-8.538-3.748.604-7.501 1.507-11.248 2.703z" fill="#e2dfe2"/></g><g><path d="m414.787 375.587c-1.223-3.818-4.59-6.548-8.565-7.063-5.032-.65-10.064-1.151-15.091-1.494-3.962-.275-7.388-2.802-8.904-6.476-.014-.041-.032-.081-.05-.122-1.521-3.669-.894-7.875 1.719-10.872 3.308-3.8 6.517-7.708 9.612-11.729 2.451-3.173 2.897-7.487 1.061-11.052-5.375-10.42-13.272-18.318-23.693-23.693-3.565-1.837-7.88-1.39-11.052 1.061-4.021 3.096-7.929 6.305-11.729 9.612-2.997 2.613-7.203 3.24-10.872 1.719-.041-.018-.081-.036-.122-.05-3.673-1.516-6.201-4.942-6.476-8.904-.343-5.027-.844-10.059-1.494-15.091-.514-3.976-3.245-7.342-7.063-8.565-11.169-3.565-22.343-3.565-33.513 0-3.818 1.223-6.548 4.59-7.063 8.565-.65 5.032-1.151 10.064-1.494 15.091-.275 3.962-2.802 7.388-6.476 8.904-.041.014-.081.032-.122.05-3.669 1.521-7.875.894-10.872-1.719-3.8-3.308-7.708-6.517-11.729-9.612-3.173-2.451-7.487-2.897-11.052-1.061-10.42 5.375-18.318 13.272-23.693 23.693-1.837 3.565-1.39 7.88 1.061 11.052 3.096 4.021 6.305 7.929 9.612 11.729 2.613 2.997 3.24 7.203 1.719 10.872-.018.041-.036.081-.05.122-1.516 3.674-4.942 6.201-8.904 6.476-5.027.343-10.059.844-15.091 1.494-3.976.514-7.342 3.245-8.565 7.063-3.565 11.169-3.565 22.343 0 33.513 1.223 3.818 4.59 6.548 8.565 7.063 5.032.65 10.064 1.151 15.091 1.494 3.962.275 7.388 2.803 8.904 6.476.014.041.032.081.05.122 1.521 3.669.894 7.875-1.719 10.872-3.308 3.8-6.517 7.708-9.612 11.729-2.451 3.173-2.897 7.487-1.061 11.052 5.375 10.42 13.272 18.318 23.693 23.693 3.565 1.837 7.88 1.39 11.052-1.061 4.021-3.096 7.929-6.305 11.729-9.612 2.997-2.613 7.203-3.24 10.872-1.719.041.018.081.036.122.05 3.673 1.516 6.201 4.942 6.476 8.904.343 5.027.844 10.059 1.494 15.091.514 3.976 3.245 7.342 7.063 8.565 11.169 3.565 22.343 3.565 33.513 0 3.818-1.223 6.548-4.59 7.063-8.565.65-5.032 1.151-10.064 1.494-15.091.275-3.962 2.802-7.388 6.476-8.904.041-.014.081-.032.122-.05 3.669-1.521 7.875-.894 10.872 1.719 3.8 3.308 7.708 6.517 11.729 9.612 3.173 2.451 7.487 2.897 11.052 1.061 10.42-5.375 18.318-13.272 23.693-23.693 1.837-3.565 1.39-7.879-1.061-11.052-3.096-4.021-6.305-7.929-9.612-11.729-2.613-2.997-3.24-7.203-1.719-10.872.018-.041.036-.081.05-.122 1.516-3.674 4.942-6.201 8.904-6.476 5.027-.343 10.059-.844 15.091-1.494 3.976-.514 7.342-3.245 8.565-7.063 3.565-11.17 3.565-22.344 0-33.513zm-109.474 47.676c-17.077 0-30.92-13.843-30.92-30.92s13.843-30.92 30.92-30.92 30.92 13.843 30.92 30.92-13.843 30.92-30.92 30.92z" fill="#c3bec6"/><path d="m228.47 460.663c-1.837-3.714-1.39-8.209 1.061-11.517 3.096-4.188 6.305-8.263 9.613-12.221 2.613-3.123 3.24-7.505 1.719-11.328-.018-.045-.036-.086-.05-.131-1.516-3.827-4.942-6.458-8.904-6.747-5.027-.357-10.06-.88-15.092-1.557-3.976-.537-7.343-3.38-8.566-7.361-3.565-11.639-3.565-23.283 0-34.922 1.223-3.98 4.59-6.824 8.566-7.361 5.032-.677 10.064-1.2 15.092-1.557 3.962-.289 7.388-2.92 8.904-6.747.014-.045.032-.086.05-.131 1.521-3.823.894-8.205-1.719-11.328-3.308-3.958-6.517-8.033-9.613-12.221-2.451-3.308-2.897-7.803-1.061-11.517 4.481-9.053 10.718-16.283 18.706-21.681-2.442-.677-5.095-.451-7.428.749-10.421 5.375-18.314 13.268-23.689 23.689-1.837 3.565-1.39 7.88 1.061 11.052 3.096 4.021 6.305 7.929 9.608 11.729 2.613 2.997 3.24 7.203 1.719 10.872-.018.041-.036.081-.05.122-1.516 3.674-4.937 6.201-8.9 6.476-5.027.343-10.06.844-15.092 1.494-3.976.514-7.343 3.245-8.566 7.063-3.565 11.17-3.565 22.344 0 33.514 1.223 3.818 4.59 6.548 8.566 7.063 5.032.65 10.064 1.151 15.092 1.494 3.962.275 7.383 2.803 8.9 6.476.014.041.032.081.05.122 1.521 3.669.894 7.875-1.719 10.872-3.304 3.8-6.512 7.708-9.608 11.729-2.451 3.173-2.897 7.487-1.061 11.052 5.375 10.421 13.268 18.314 23.689 23.689 2.333 1.201 4.987 1.426 7.428.749-7.988-5.396-14.225-12.626-18.706-21.679zm65.434 36.835c-.65-5.244-1.151-10.488-1.494-15.728-.275-4.129-2.803-7.699-6.476-9.279-.041-.014-.081-.032-.122-.05-2.627-1.137-5.528-1.124-8.065-.027 1.295 1.611 2.103 3.597 2.252 5.741.343 5.027.844 10.06 1.494 15.092.514 3.976 3.245 7.343 7.063 8.566 2.771.885 5.546 1.552 8.318 1.999-1.603-1.67-2.668-3.881-2.97-6.314zm-5.348-214.63c-3.818 1.223-6.548 4.59-7.063 8.566-.65 5.032-1.151 10.064-1.494 15.092-.149 2.144-.957 4.129-2.252 5.741 2.536 1.097 5.438 1.11 8.065-.027.041-.018.081-.036.122-.05 3.674-1.58 6.201-5.149 6.476-9.279.343-5.24.844-10.484 1.494-15.728.302-2.433 1.367-4.644 2.97-6.314-2.772.447-5.547 1.114-8.318 1.999z" fill="#b4acb7"/></g><g><path d="m494.171 192.815c-.86-2.685-3.228-4.606-6.024-4.967-3.539-.457-7.078-.809-10.614-1.051-2.787-.194-5.196-1.971-6.262-4.555-.01-.029-.022-.057-.035-.086-1.07-2.581-.628-5.539 1.209-7.646 2.327-2.673 4.583-5.421 6.761-8.249 1.724-2.231 2.038-5.266.746-7.773-3.78-7.329-9.335-12.884-16.664-16.664-2.508-1.292-5.542-.978-7.773.746-2.828 2.177-5.577 4.434-8.249 6.761-2.108 1.838-5.066 2.279-7.646 1.209-.029-.013-.057-.025-.086-.035-2.584-1.067-4.361-3.476-4.555-6.262-.241-3.536-.594-7.075-1.051-10.614-.362-2.796-2.282-5.164-4.967-6.024-7.856-2.508-15.715-2.508-23.571 0-2.685.86-4.606 3.228-4.967 6.024-.457 3.539-.809 7.078-1.051 10.614-.194 2.787-1.971 5.196-4.555 6.262-.029.01-.057.022-.086.035-2.581 1.07-5.539.628-7.646-1.209-2.673-2.327-5.421-4.583-8.249-6.761-2.231-1.724-5.266-2.038-7.773-.746-7.329 3.78-12.884 9.335-16.664 16.664-1.292 2.508-.978 5.542.746 7.773 2.177 2.828 4.434 5.577 6.761 8.249 1.838 2.108 2.279 5.066 1.209 7.646-.013.029-.025.057-.035.086-1.066 2.584-3.476 4.361-6.262 4.555-3.536.241-7.075.594-10.614 1.051-2.796.362-5.164 2.282-6.024 4.967-2.508 7.856-2.508 15.715 0 23.571.86 2.685 3.228 4.606 6.024 4.967 3.539.457 7.078.809 10.614 1.051 2.787.194 5.196 1.971 6.262 4.555.009.029.022.057.035.086 1.07 2.581.628 5.539-1.209 7.646-2.327 2.673-4.583 5.421-6.761 8.249-1.724 2.231-2.038 5.266-.746 7.773 3.78 7.329 9.335 12.884 16.664 16.664 2.508 1.292 5.542.978 7.773-.746 2.828-2.177 5.577-4.434 8.249-6.761 2.108-1.838 5.066-2.279 7.646-1.209.029.013.057.025.086.035 2.584 1.066 4.361 3.476 4.555 6.262.241 3.536.594 7.075 1.051 10.614.362 2.796 2.282 5.164 4.967 6.024 7.856 2.508 15.715 2.508 23.571 0 2.685-.86 4.606-3.228 4.967-6.024.457-3.539.809-7.078 1.051-10.614.194-2.787 1.971-5.196 4.555-6.262.029-.01.057-.022.086-.035 2.581-1.07 5.539-.628 7.646 1.209 2.673 2.327 5.421 4.583 8.249 6.761 2.231 1.724 5.266 2.038 7.773.746 7.329-3.78 12.884-9.335 16.664-16.664 1.292-2.508.978-5.542-.746-7.773-2.177-2.828-4.434-5.577-6.761-8.249-1.838-2.108-2.279-5.066-1.209-7.646.013-.029.025-.057.035-.086 1.066-2.584 3.476-4.361 6.262-4.555 3.536-.241 7.075-.594 10.614-1.051 2.796-.362 5.164-2.282 6.024-4.967 2.508-7.856 2.508-15.715 0-23.571zm-76.996 32.919c-11.671 0-21.133-9.461-21.133-21.133 0-11.671 9.461-21.133 21.133-21.133 11.671 0 21.133 9.461 21.133 21.133 0 11.671-9.462 21.133-21.133 21.133z" fill="#655e66"/><path d="m363.128 252.653c-1.292-2.612-.978-5.774.746-8.1 2.177-2.946 4.434-5.812 6.761-8.596 1.838-2.197 2.279-5.279 1.209-7.967-.013-.032-.025-.06-.035-.092-1.067-2.692-3.476-4.542-6.263-4.745-3.536-.251-7.075-.619-10.614-1.095-2.796-.378-5.164-2.377-6.025-5.177-2.508-8.186-2.508-16.376 0-24.562.86-2.8 3.228-4.799 6.025-5.177 3.539-.476 7.078-.844 10.614-1.095 2.787-.203 5.196-2.054 6.263-4.745.01-.032.022-.06.035-.092 1.07-2.689.628-5.771-1.209-7.967-2.327-2.784-4.583-5.65-6.761-8.596-1.724-2.327-2.038-5.488-.746-8.1 3.152-6.367 7.539-11.452 13.157-15.249-1.717-.476-3.584-.317-5.225.527-7.329 3.78-12.881 9.332-16.661 16.661-1.292 2.508-.978 5.542.746 7.774 2.177 2.828 4.434 5.577 6.758 8.25 1.838 2.108 2.279 5.066 1.209 7.647-.013.029-.025.057-.035.086-1.067 2.584-3.473 4.361-6.259 4.555-3.536.241-7.075.594-10.614 1.051-2.796.362-5.164 2.282-6.025 4.968-2.508 7.856-2.508 15.715 0 23.571.86 2.685 3.228 4.606 6.025 4.968 3.539.457 7.078.809 10.614 1.051 2.787.194 5.193 1.971 6.259 4.555.009.029.022.057.035.086 1.07 2.581.628 5.539-1.209 7.647-2.323 2.673-4.58 5.421-6.758 8.25-1.724 2.231-2.038 5.266-.746 7.774 3.78 7.329 9.332 12.881 16.661 16.661 1.641.844 3.507 1.003 5.225.527-5.618-3.802-10.005-8.887-13.157-15.254zm46.022 25.907c-.457-3.688-.809-7.377-1.051-11.062-.194-2.904-1.971-5.415-4.555-6.526-.029-.01-.057-.022-.086-.035-1.847-.8-3.888-.79-5.672-.019.911 1.133 1.479 2.53 1.584 4.038.241 3.536.594 7.075 1.051 10.614.362 2.796 2.282 5.164 4.968 6.025 1.949.622 3.901 1.092 5.85 1.406-1.127-1.175-1.876-2.73-2.089-4.441zm-3.761-150.957c-2.685.86-4.606 3.228-4.968 6.025-.457 3.539-.809 7.078-1.051 10.614-.105 1.508-.673 2.904-1.584 4.038 1.784.771 3.825.781 5.672-.019.029-.013.057-.025.086-.035 2.584-1.111 4.361-3.622 4.555-6.526.241-3.685.594-7.374 1.051-11.062.213-1.711.962-3.266 2.089-4.441-1.949.314-3.901.784-5.85 1.406z" fill="#535057"/></g><g fill="#f9f6f9"><path d="m75.527 339.564.328 2.378c1.156 8.388-4.38 16.239-12.67 17.966l-25.498 5.313c-9.133 1.903-17.967-4.327-19.241-13.569l-.814-5.91c-1.274-9.242 5.546-17.629 14.854-18.267l25.984-1.782c8.447-.578 15.901 5.482 17.057 13.871z"/><path d="m107.795 398.515 1.473 1.896c5.195 6.686 4.326 16.254-1.989 21.894l-19.425 17.35c-6.958 6.215-17.724 5.237-23.448-2.13l-3.66-4.711c-5.724-7.367-4.011-18.04 3.73-23.247l21.612-14.535c7.026-4.725 16.512-3.203 21.707 3.483z"/><path d="m156.194 445.34 2.224.905c7.842 3.193 11.873 11.913 9.225 19.956l-8.147 24.738c-2.918 8.861-12.731 13.397-21.371 9.879l-5.525-2.25c-8.64-3.518-12.494-13.618-8.393-21.997l11.449-23.394c3.72-7.605 12.696-11.03 20.538-7.837z"/></g></g><g><g><path d="m167.578 228.319c-38.142 0-69.173-31.031-69.173-69.173s31.031-69.173 69.173-69.173 69.173 31.031 69.173 69.173-31.031 69.173-69.173 69.173zm0-123.346c-29.871 0-54.173 24.302-54.173 54.173s24.302 54.173 54.173 54.173 54.173-24.302 54.173-54.173-24.302-54.173-54.173-54.173z"/><path d="m167.577 318.286c-8.333 0-16.664-1.319-24.938-3.958-7.86-2.513-13.631-9.483-14.708-17.758-.887-6.856-1.582-13.873-2.064-20.86-.169-2.456-1.717-4.587-4.047-5.586-.09-.034-.179-.068-.268-.105-2.379-.987-5.02-.585-6.895 1.047-5.171 4.507-10.624 8.976-16.207 13.284-6.625 5.1-15.64 5.944-22.973 2.156-15.433-7.963-27.298-19.828-35.263-35.265-3.787-7.359-2.932-16.373 2.174-22.969 4.144-5.394 8.616-10.85 13.277-16.198 1.622-1.861 2.03-4.479 1.071-6.847-.046-.104-.089-.205-.126-.297-.957-2.315-3.104-3.898-5.575-4.064-6.885-.475-13.902-1.173-20.869-2.075-8.264-1.06-15.242-6.828-17.768-14.695-5.286-16.559-5.286-33.337-.004-49.884 2.527-7.869 9.5-13.641 17.768-14.717 6.868-.889 13.885-1.583 20.861-2.065 2.48-.171 4.633-1.755 5.616-4.133.015-.036.029-.071.044-.106.01-.025.021-.05.031-.075.988-2.378.586-5.021-1.048-6.896-4.659-5.346-9.132-10.802-13.293-16.218-5.088-6.593-5.94-15.602-2.163-22.942 7.101-13.752 17.296-24.683 30.307-32.498 3.551-2.133 8.159-.983 10.291 2.567 2.133 3.551.983 8.158-2.567 10.291-10.589 6.36-18.898 15.28-24.698 26.512-1.122 2.18-.843 4.899.714 6.917 3.983 5.184 8.258 10.399 12.716 15.513 5.405 6.203 6.782 14.826 3.592 22.505-.013.032-.026.063-.039.094-.009.021-.018.043-.026.064-3.174 7.677-10.241 12.799-18.444 13.367-6.681.461-13.397 1.126-19.965 1.976-2.53.329-4.656 2.063-5.412 4.415-4.373 13.698-4.373 27.026.004 40.736.751 2.339 2.872 4.067 5.399 4.392 6.681.865 13.397 1.533 19.972 1.987 8.163.549 15.214 5.637 18.411 13.286.049.109.093.213.132.309 3.159 7.604 1.782 16.231-3.625 22.435-4.459 5.116-8.734 10.332-12.707 15.502-1.571 2.03-1.847 4.746-.718 6.939 6.595 12.783 16.021 22.208 28.81 28.807 2.189 1.13 4.909.853 6.936-.708 5.341-4.122 10.561-8.4 15.508-12.711 6.154-5.364 14.693-6.761 22.329-3.665.077.029.152.059.227.088 7.78 3.208 12.908 10.281 13.474 18.495.462 6.69 1.127 13.407 1.976 19.963.329 2.529 2.055 4.65 4.396 5.399 13.709 4.373 27.043 4.374 40.756-.001 2.336-.747 4.062-2.868 4.392-5.402.849-6.552 1.513-13.269 1.976-19.959.567-8.213 5.695-15.286 13.383-18.457.113-.045.214-.085.311-.122 7.637-3.1 16.18-1.705 22.336 3.662 4.945 4.31 10.165 8.588 15.514 12.716 2.021 1.555 4.742 1.833 6.926.704 12.792-6.601 22.218-16.026 28.817-28.815 1.125-2.186.849-4.901-.707-6.911-3.992-5.195-8.268-10.411-12.722-15.522-5.407-6.203-6.784-14.83-3.593-22.514.028-.066.079-.184.117-.27 3.243-7.656 10.268-12.7 18.406-13.247 6.562-.453 13.278-1.122 19.951-1.985 2.536-.325 4.657-2.054 5.412-4.404 4.373-13.698 4.373-27.027-.003-40.737-.751-2.34-2.878-4.074-5.413-4.403-6.563-.85-13.279-1.514-19.959-1.975-8.205-.568-15.271-5.69-18.445-13.368 0-.001 0-.002-.001-.003-.038-.087-.074-.174-.109-.263-3.132-7.653-1.743-16.224 3.638-22.396 4.454-5.11 8.729-10.325 12.707-15.502 1.57-2.03 1.846-4.746.718-6.938-6.595-12.782-16.021-22.208-28.81-28.807-2.188-1.131-4.91-.852-6.937.708-5.342 4.122-10.562 8.4-15.507 12.71-6.157 5.367-14.701 6.763-22.339 3.66-.194-.074-.383-.153-.568-.24-7.543-3.222-12.563-10.224-13.123-18.338-.462-6.69-1.126-13.407-1.976-19.963-.329-2.53-2.055-4.65-4.396-5.399-13.711-4.382-27.041-4.383-40.752 0-2.341.749-4.067 2.87-4.396 5.404-.848 6.551-1.513 13.268-1.976 19.959-.559 8.113-5.579 15.115-13.124 18.338-.184.086-.372.165-.566.239-7.638 3.102-16.182 1.707-22.339-3.66-2.599-2.267-5.345-4.582-8.165-6.884-3.209-2.619-3.687-7.344-1.067-10.553 2.619-3.208 7.343-3.687 10.553-1.067 2.946 2.404 5.818 4.826 8.538 7.198 1.864 1.624 4.49 2.031 6.859 1.059.069-.031.14-.062.21-.09 2.381-.982 3.967-3.133 4.138-5.613.483-6.988 1.178-14.005 2.064-20.856 1.078-8.28 6.849-15.25 14.704-17.761 16.552-5.291 33.336-5.291 49.888 0 7.856 2.512 13.627 9.482 14.704 17.757.888 6.856 1.582 13.873 2.065 20.86.171 2.481 1.757 4.632 4.138 5.614.071.029.141.059.21.09 2.37.97 4.996.565 6.862-1.061 5.169-4.505 10.622-8.975 16.206-13.284 6.626-5.102 15.641-5.945 22.974-2.156 15.433 7.963 27.298 19.829 35.263 35.265 3.787 7.359 2.932 16.372-2.173 22.969-4.15 5.4-8.622 10.857-13.278 16.198-1.634 1.875-2.035 4.517-1.047 6.896.002.005.004.01.006.015.034.078.066.155.097.234.995 2.34 3.13 3.895 5.588 4.065 6.976.481 13.992 1.176 20.855 2.064 8.274 1.077 15.246 6.849 17.769 14.706 5.286 16.558 5.286 33.337.004 49.883-2.529 7.878-9.507 13.647-17.781 14.708-6.958.901-13.976 1.599-20.848 2.074-2.484.167-4.63 1.75-5.615 4.132-.022.054-.059.139-.093.215-.958 2.427-.543 5.016 1.064 6.861 4.657 5.343 9.13 10.8 13.294 16.219 5.089 6.577 5.944 15.59 2.162 22.941-7.969 15.443-19.834 27.309-35.27 35.273-7.331 3.786-16.346 2.942-22.964-2.152-5.591-4.315-11.043-8.784-16.213-13.29-1.875-1.634-4.517-2.034-6.895-1.047-.095.04-.19.077-.286.112-2.296.969-3.858 3.11-4.029 5.578-.483 6.988-1.177 14.004-2.064 20.856-1.077 8.279-6.848 15.249-14.704 17.761-8.279 2.64-16.615 3.961-24.948 3.961zm45.536-48.083c-.004.001-.008.003-.013.004.005-.002.009-.003.013-.004zm-91.071-.001c.005.001.01.003.015.005-.005-.002-.01-.004-.015-.005zm92.362-221.515c.004.003.009.005.014.008-.004-.003-.009-.005-.014-.008zm-.007-.005c.001 0 .002.001.003.002-.001-.001-.002-.001-.003-.002zm-93.617-.011c-.004.002-.009.005-.013.008.004-.003.009-.006.013-.008zm.009-.006c-.002.001-.003.002-.005.003.001-.001.003-.002.005-.003zm92.311-.579c.004.001.007.002.011.004-.003-.001-.007-.002-.011-.004zm-91.043 0c-.003.001-.007.002-.01.003.003 0 .006-.001.01-.003z"/></g><g><path d="m305.313 430.763c-21.185 0-38.42-17.235-38.42-38.42s17.235-38.42 38.42-38.42 38.42 17.235 38.42 38.42-17.235 38.42-38.42 38.42zm0-61.84c-12.914 0-23.42 10.506-23.42 23.42s10.506 23.42 23.42 23.42 23.42-10.506 23.42-23.42-10.507-23.42-23.42-23.42z"/><path d="m305.314 511.984c-6.362 0-12.722-1.009-19.039-3.028-6.528-2.084-11.327-7.868-12.224-14.732-.653-5.054-1.169-10.279-1.535-15.541-.075-1.101-.78-2.048-1.841-2.484-.026-.011-.053-.022-.079-.033-.025-.01-.049-.02-.074-.03-1.069-.446-2.245-.274-3.07.446-3.924 3.418-7.987 6.75-12.074 9.901-5.473 4.231-12.961 4.934-19.066 1.787-11.793-6.088-20.849-15.148-26.92-26.93-3.145-6.085-2.446-13.571 1.785-19.063 3.201-4.152 6.53-8.215 9.896-12.079.722-.827.89-2.002.446-3.075-.01-.024-.021-.048-.03-.072-.006-.016-.013-.031-.02-.047-.444-1.072-1.395-1.784-2.481-1.858-5.163-.359-10.388-.878-15.541-1.544-6.871-.88-12.665-5.676-14.753-12.217-4.037-12.631-4.037-25.441 0-38.075 2.084-6.527 7.871-11.326 14.742-12.224 5.224-.675 10.454-1.191 15.556-1.536 1.072-.076 2.028-.79 2.475-1.861.023-.059.047-.117.072-.175.418-1.057.24-2.213-.469-3.029-3.359-3.856-6.688-7.919-9.891-12.072-4.236-5.481-4.938-12.97-1.784-19.073 6.071-11.781 15.128-20.838 26.917-26.913 6.106-3.148 13.593-2.444 19.073 1.792 4.042 3.107 8.109 6.438 12.069 9.889.801.697 1.937.881 2.984.485.092-.041.198-.084.314-.13 1.019-.459 1.691-1.385 1.762-2.439.368-5.287.884-10.515 1.535-15.552.9-6.876 5.699-12.659 12.226-14.744 12.633-4.037 25.444-4.037 38.076 0 6.537 2.088 11.333 7.877 12.216 14.748.664 5.14 1.184 10.369 1.543 15.536.073 1.064.745 1.991 1.763 2.451.117.045.222.089.314.13 1.047.394 2.184.211 2.988-.489 3.936-3.428 7.996-6.757 12.065-9.892 5.487-4.229 12.973-4.931 19.074-1.786 11.788 6.075 20.845 15.132 26.92 26.92 3.151 6.096 2.449 13.585-1.792 19.073-3.2 4.149-6.529 8.212-9.889 12.069-.716.823-.889 2-.449 3.069.009.021.018.042.026.062.009.021.018.042.027.064.445 1.074 1.403 1.79 2.5 1.868 5.08.343 10.31.859 15.521 1.533 6.882.899 12.669 5.698 14.753 12.227 3.517 11 3.972 22.172 1.353 33.204-.958 4.03-5.002 6.52-9.03 5.565-4.03-.957-6.521-5-5.565-9.03 2.008-8.456 1.666-16.69-1.047-25.174-.325-1.018-1.266-1.77-2.397-1.917-4.9-.633-9.824-1.119-14.624-1.443-6.826-.483-12.688-4.731-15.322-11.088-.009-.021-.018-.042-.026-.063s-.017-.041-.026-.062c-2.635-6.363-1.489-13.514 2.991-18.664 3.168-3.636 6.306-7.466 9.329-11.387.694-.897.824-2.083.336-3.026-4.686-9.092-11.378-15.785-20.463-20.467-.95-.489-2.146-.36-3.046.334-3.833 2.953-7.658 6.09-11.372 9.325-5.153 4.483-12.308 5.629-18.675 2.994-.029-.012-.059-.025-.088-.037-.011-.005-.022-.009-.033-.014-6.371-2.639-10.618-8.509-11.082-15.319-.339-4.863-.829-9.795-1.456-14.649-.145-1.122-.892-2.053-1.904-2.376-9.738-3.113-19.206-3.112-28.945 0-1.017.325-1.769 1.263-1.917 2.39-.611 4.732-1.098 9.665-1.445 14.646-.463 6.799-4.709 12.669-11.082 15.309-.012.005-.023.009-.034.014-.029.012-.058.024-.087.037-6.367 2.635-13.521 1.49-18.671-2.992-3.734-3.253-7.562-6.388-11.378-9.322-.906-.7-2.094-.829-3.044-.34-9.085 4.682-15.777 11.375-20.459 20.459-.491.951-.361 2.136.328 3.028 3.025 3.923 6.164 7.753 9.331 11.39 4.48 5.15 5.627 12.298 2.997 18.658-.03.077-.062.153-.095.23-2.654 6.304-8.491 10.511-15.258 10.99-4.823.326-9.747.812-14.658 1.446-1.121.146-2.062.898-2.386 1.914-3.113 9.74-3.113 19.208 0 28.945.324 1.014 1.257 1.761 2.378 1.904 4.87.629 9.798 1.119 14.658 1.458 6.799.463 12.669 4.71 15.309 11.082.009.022.018.043.027.065.008.019.016.037.023.055 2.64 6.374 1.491 13.529-2.999 18.672-3.166 3.634-6.303 7.465-9.321 11.378-.69.896-.823 2.085-.336 3.027 4.685 9.09 11.378 15.786 20.468 20.479.944.486 2.133.358 3.022-.33 3.858-2.975 7.688-6.115 11.391-9.341 5.106-4.442 12.166-5.606 18.483-3.063.194.073.362.145.496.206 6.272 2.665 10.441 8.487 10.9 15.245.345 4.956.832 9.884 1.445 14.637.146 1.115.897 2.052 1.913 2.376 9.74 3.114 19.208 3.113 28.945 0 1.015-.324 1.762-1.254 1.905-2.37.629-4.868 1.119-9.797 1.457-14.657.459-6.746 4.628-12.567 10.899-15.232.134-.061.301-.132.496-.205 6.314-2.545 13.377-1.381 18.48 3.06 3.687 3.212 7.516 6.354 11.383 9.344.89.686 2.085.817 3.038.328 9.085-4.69 15.779-11.387 20.459-20.469.49-.949.357-2.138-.334-3.037-3.019-3.914-6.156-7.744-9.324-11.382-4.485-5.136-5.634-12.291-2.994-18.666.004-.01.008-.021.013-.031.026-.063.052-.126.08-.19 2.659-6.315 8.502-10.52 15.277-10.981.03-.002.059-.004.089-.006.191-.014.384-.021.591-.021 4.142 0 7.5 3.358 7.5 7.5 0 4.021-3.165 7.303-7.139 7.491-.014.001-.028.002-.042.003-1.078.082-2.019.791-2.459 1.855-.003.008-.007.016-.01.023-.021.05-.041.1-.063.15-.417 1.058-.242 2.208.462 3.015 3.369 3.868 6.698 7.931 9.899 12.083 4.233 5.495 4.933 12.98 1.784 19.074-6.068 11.774-15.124 20.834-26.912 26.92-6.105 3.145-13.592 2.445-19.079-1.783-4.107-3.174-8.165-6.504-12.068-9.905-.824-.716-2.001-.887-3.068-.443-.025.01-.05.021-.075.031-.026.011-.052.022-.078.033-1.061.437-1.767 1.384-1.84 2.473-.36 5.165-.879 10.39-1.545 15.542-.88 6.865-5.676 12.655-12.217 14.744-6.313 2.014-12.674 3.024-19.034 3.024zm33.697-35.489c-.005.001-.01.002-.015.004.005-.002.01-.004.015-.004zm-67.395 0c.005.001.01.002.015.004-.005-.002-.01-.004-.015-.004zm-.01-.003h.003c-.001.001-.002 0-.003 0zm67.414 0c-.001 0-.001 0-.002 0 0 .001.001.001.002 0zm-68.846-.522c.003.002.006.003.009.005-.003-.002-.006-.003-.009-.005zm70.281-.001c-.002 0-.003.001-.005.002.002-.001.003-.002.005-.002zm48.756-118.15s.001 0 0 0zm-53.989-35.126c.005.001.01.002.015.004-.004-.001-.01-.003-.015-.004zm-59.818 0c-.005.001-.01.002-.015.004.005-.001.01-.003.015-.004zm59.804-.004c.004.001.008.002.013.003-.005-.001-.009-.002-.013-.003zm-59.789 0c-.004.001-.008.002-.012.003.004-.001.008-.002.012-.003zm59.776-.003c.002 0 .005.001.007.002-.002-.001-.005-.002-.007-.002zm-1.331-.496c.002.001.004.002.006.003-.001-.001-.004-.002-.006-.003zm-57.099-.001c-.002 0-.004.001-.005.002.001-.001.003-.002.005-.002z"/></g><g><path d="m417.174 233.234c-15.788 0-28.633-12.845-28.633-28.633 0-15.789 12.845-28.633 28.633-28.633 15.789 0 28.633 12.845 28.633 28.633.001 15.788-12.844 28.633-28.633 28.633zm0-42.266c-7.517 0-13.633 6.116-13.633 13.633s6.116 13.633 13.633 13.633c7.518 0 13.633-6.116 13.633-13.633.001-7.518-6.115-13.633-13.633-13.633z"/><path d="m417.174 290.977c-4.7 0-9.399-.746-14.066-2.237-5.416-1.73-9.39-6.521-10.125-12.206-.467-3.606-.832-7.277-1.085-10.912-2.746 2.388-5.6 4.726-8.483 6.949-4.541 3.5-10.739 4.077-15.791 1.471-8.708-4.491-15.401-11.184-19.893-19.893-2.606-5.052-2.029-11.25 1.471-15.79 2.224-2.884 4.561-5.737 6.949-8.483-3.636-.253-7.306-.618-10.913-1.085-5.684-.735-10.475-4.709-12.205-10.125-2.981-9.333-2.981-18.799 0-28.132 1.73-5.416 6.521-9.39 12.206-10.125 3.614-.467 7.285-.833 10.912-1.085-2.386-2.744-4.723-5.597-6.948-8.483-3.5-4.54-4.077-10.738-1.471-15.791 4.492-8.709 11.185-15.402 19.893-19.893 5.05-2.607 11.249-2.029 15.79 1.471 2.882 2.222 5.735 4.559 8.483 6.949.253-3.636.618-7.306 1.085-10.913.735-5.684 4.709-10.475 10.125-12.205 9.333-2.983 18.799-2.983 28.133 0 5.415 1.73 9.389 6.521 10.125 12.206.467 3.614.833 7.284 1.085 10.911 2.746-2.388 5.599-4.725 8.483-6.948 4.54-3.5 10.737-4.078 15.79-1.471 8.708 4.491 15.401 11.184 19.893 19.893 2.606 5.052 2.028 11.25-1.471 15.79-2.224 2.885-4.561 5.738-6.948 8.483 3.627.252 7.297.618 10.911 1.085 5.685.735 10.476 4.709 12.206 10.125 2.982 9.333 2.982 18.799 0 28.133-1.73 5.416-6.521 9.39-12.206 10.125-3.605.467-7.276.832-10.912 1.085 2.39 2.748 4.727 5.602 6.949 8.483 3.5 4.54 4.077 10.738 1.471 15.79-4.491 8.708-11.184 15.401-19.893 19.893-5.053 2.607-11.251 2.029-15.79-1.471-2.887-2.226-5.74-4.563-8.483-6.949-.252 3.627-.618 7.297-1.085 10.912-.735 5.685-4.709 10.476-10.125 12.206-4.667 1.492-9.366 2.237-14.067 2.237zm-9.328-16.47c6.274 1.969 12.382 1.969 18.657 0 .429-3.335.764-6.721.994-10.064.389-5.643 3.903-10.501 9.173-12.677 5.341-2.214 11.26-1.264 15.521 2.449 2.527 2.201 5.157 4.358 7.819 6.414 5.83-3.045 10.148-7.363 13.192-13.193-2.051-2.657-4.208-5.288-6.414-7.819-3.714-4.264-4.664-10.183-2.479-15.448 2.207-5.343 7.064-8.857 12.707-9.246 3.352-.23 6.738-.565 10.064-.994 1.97-6.275 1.97-12.381 0-18.657-3.334-.429-6.72-.764-10.064-.994-5.643-.389-10.5-3.903-12.677-9.173-2.215-5.338-1.265-11.257 2.449-15.521 2.203-2.529 4.36-5.159 6.414-7.819-3.044-5.83-7.362-10.148-13.192-13.192-2.66 2.053-5.291 4.21-7.819 6.414-4.262 3.713-10.183 4.663-15.447 2.479-5.343-2.207-8.857-7.064-9.246-12.707-.23-3.344-.564-6.729-.994-10.064-6.274-1.97-12.381-1.97-18.657 0-.429 3.328-.763 6.712-.994 10.064-.389 5.643-3.903 10.5-9.173 12.677-.012.005-.11.045-.122.05-5.217 2.165-11.135 1.214-15.399-2.499-2.531-2.205-5.162-4.363-7.819-6.414-5.83 3.044-10.148 7.363-13.193 13.192 2.055 2.662 4.212 5.292 6.414 7.819 3.713 4.263 4.663 10.181 2.479 15.446-2.207 5.344-7.065 8.858-12.708 9.247-3.344.23-6.729.564-10.064.994-1.969 6.275-1.969 12.382 0 18.657 3.328.429 6.713.763 10.064.994 5.643.389 10.501 3.903 12.677 9.173.005.012.045.11.05.122 2.165 5.217 1.214 11.136-2.499 15.399-2.204 2.53-4.361 5.16-6.414 7.819 3.045 5.83 7.363 10.148 13.193 13.193 2.659-2.053 5.289-4.21 7.819-6.414 4.263-3.714 10.181-4.664 15.447-2.479 5.344 2.207 8.858 7.065 9.247 12.708.231 3.351.566 6.737.994 10.064zm79.18-60.407c0 .001 0 .001-.001.002.001-.001.001-.001.001-.002z"/></g><g><path d="m34.428 373.057c-4.841 0-9.627-1.487-13.631-4.311-5.326-3.756-8.891-9.613-9.78-16.069l-.814-5.91c-.89-6.456.958-13.059 5.069-18.115 4.112-5.057 10.199-8.213 16.701-8.659l25.984-1.782c12.339-.844 23.313 8.083 25 20.328l.328 2.377c1.687 12.246-6.47 23.813-18.569 26.334l-25.498 5.313c-1.585.331-3.191.494-4.79.494zm25.144-39.9c-.195 0-.392.006-.589.02l-25.984 1.782c-2.406.165-4.568 1.286-6.089 3.157s-2.177 4.216-1.848 6.604l.814 5.91c.329 2.388 1.595 4.469 3.565 5.858 1.97 1.39 4.356 1.883 6.716 1.392l25.498-5.313c4.411-.919 7.385-5.137 6.77-9.601l-.328-2.377v-.001c-.589-4.269-4.274-7.431-8.525-7.431z"/><path d="m77.105 451.248c-.704 0-1.41-.032-2.116-.096-6.49-.59-12.506-3.879-16.505-9.026l-3.66-4.711c-3.999-5.146-5.7-11.788-4.667-18.223s4.726-12.212 10.134-15.849l21.612-14.536c10.257-6.898 24.23-4.656 31.814 5.105l1.473 1.895c7.584 9.762 6.304 23.857-2.915 32.091l-19.425 17.35c-4.332 3.87-9.975 6-15.745 6zm17.955-51.449c-1.656 0-3.324.474-4.786 1.457l-21.612 14.536c-2 1.345-3.313 3.397-3.695 5.778-.382 2.38.223 4.74 1.702 6.644l3.66 4.711c1.479 1.904 3.616 3.072 6.017 3.291 2.405.22 4.714-.546 6.512-2.153l19.425-17.35c3.361-3.002 3.828-8.141 1.063-11.699l-1.473-1.895s0 0 0-.001c-1.684-2.169-4.233-3.319-6.813-3.319z"/><path d="m144.192 509.5c-3.025 0-6.051-.577-8.897-1.735l-5.525-2.25c-6.036-2.457-10.83-7.359-13.153-13.448-2.324-6.089-2.013-12.938.852-18.792l11.449-23.394c5.433-11.103 18.657-16.147 30.104-11.487l2.224.905c11.447 4.661 17.386 17.508 13.52 29.248l-8.147 24.739c-2.039 6.19-6.601 11.309-12.516 14.043-3.128 1.445-6.518 2.171-9.911 2.171zm5.951-57.845c-3.2 0-6.271 1.792-7.752 4.82l-11.449 23.394c-1.06 2.166-1.17 4.599-.311 6.851s2.563 3.994 4.796 4.903l5.525 2.25c2.233.909 4.668.852 6.856-.159 2.188-1.012 3.809-2.83 4.563-5.12l8.147-24.738c1.409-4.28-.756-8.964-4.929-10.663l-2.224-.905c-1.051-.43-2.144-.633-3.222-.633z"/></g></g></g></svg>