<svg id="Capa_1" enable-background="new 0 0 512 512" height="512" viewBox="0 0 512 512" width="512" xmlns="http://www.w3.org/2000/svg"><g><g><path d="m477.065 352.472c-8.284 0-15-6.716-15-15v-183.562c0-8.284 6.716-15 15-15s15 6.716 15 15v183.563c0 8.284-6.715 14.999-15 14.999z" fill="#c3bec6"/><path d="m468.879 352.472c-3.763 0-6.814-6.716-6.814-15v-183.562c0-8.284 3.051-15 6.814-15s6.814 6.716 6.814 15v183.563c.001 8.284-3.05 14.999-6.814 14.999z" fill="#b4acb7"/><path d="m491.961 269.634h-83.706v-47.886h83.706c6.925 0 12.539 5.614 12.539 12.539v22.809c0 6.924-5.614 12.538-12.539 12.538z" fill="#655e66"/><path d="m504.491 240.964v16.13c0 6.93-5.61 12.54-12.53 12.54h-83.71v-16.13h83.71c6.92 0 12.53-5.61 12.53-12.54z" fill="#535057"/><path d="m431.7 108.715v156.87c0 22.99-18.63 41.63-41.62 41.63h-367.34l-6.91-33.92-8.33-40.91h356.79c11.34 0 20.52-9.18 20.52-20.52v-30.45c0-11.33-9.18-20.52-20.52-20.52h-39v-85.13h73.46c18.2 0 32.95 14.75 32.95 32.95z" fill="#c3bec6"/><path d="m361.565 129.965c12.838 0 23.245 10.407 23.245 23.245v28.205c0-11.33-9.18-20.52-20.52-20.52h-34.25v-30.93z" fill="#b4acb7"/><path d="m384.81 211.865v33.65c0 15.34-12.44 27.78-27.78 27.78h-341.2l-8.33-40.91h356.79c11.34 0 20.52-9.18 20.52-20.52z" fill="#e2dfe2"/><path d="m232.24 363.075h-104.75v-45.61c0-24.4-19.78-44.17-44.17-44.17h-29.66l-7.98-58.86h9.07c29.09 0 54.86-18.75 63.82-46.42l24.48-75.62c3.21-9.92 12.45-16.63 22.87-16.63h50.36v85.13h-26.29c-11.94 0-19.85 12.39-14.83 23.22l33.58 72.41c7.74 16.69 13.62 34.13 17.56 52 3.94 17.86 5.94 36.15 5.94 54.55z" fill="#9dc6fb"/><path d="m162.94 357.925c-.17 1.75-.38 3.47-.61 5.15h-34.84v-45.61c0-24.4-19.78-44.17-44.17-44.17h-29.66l-7.98-58.86h9.07c29.09 0 54.86-18.75 63.82-46.42l24.48-75.62c3.21-9.92 12.45-16.63 22.87-16.63-18.44 65.18-18.44 113.06-62.34 145.98s69.83 29.93 59.36 136.18z" fill="#80b4fb"/><path d="m234.18 195.478h-17.852c-10.498 0-19.008-8.51-19.008-19.008v-117.614c0-10.498 8.51-19.008 19.008-19.008h17.852c10.498 0 19.008 8.51 19.008 19.008v117.614c0 10.497-8.51 19.008-19.008 19.008z" fill="#655e66"/><path d="m253.18 138.277v38.19c0 10.5-8.51 19.01-19 19.01h-17.85c-10.5 0-19.01-8.51-19.01-19.01v-38.19c0 10.49 8.51 19 19.01 19h17.85c10.49 0 19-8.51 19-19z" fill="#535057"/><path d="m330.225 195.478h-17.852c-10.498 0-19.008-8.51-19.008-19.008v-117.614c0-10.498 8.51-19.008 19.008-19.008h17.852c10.498 0 19.008 8.51 19.008 19.008v117.614c0 10.497-8.51 19.008-19.008 19.008z" fill="#655e66"/><path d="m349.225 138.277v38.19c0 10.5-8.51 19.01-19 19.01h-17.85c-10.5 0-19.01-8.51-19.01-19.01v-38.19c0 10.49 8.51 19 19.01 19h17.85c10.49 0 19-8.51 19-19z" fill="#535057"/><path d="m372.367 343.187h-264.32c-16.812 0-30.441 13.629-30.441 30.441v37.397l182.601 30.2 142.601-30.2v-37.397c0-16.812-13.629-30.441-30.441-30.441z" fill="#655e66"/><path d="m167.906 343.188c-16.81 0-30.44 13.63-30.44 30.44v37.4h-59.86v-37.4c0-16.81 13.63-30.44 30.44-30.44z" fill="#535057"/><g fill="#9dc6fb"><circle cx="477.065" cy="141.388" r="27.435"/><circle cx="477.065" cy="349.994" r="27.435"/></g><g fill="#80b4fb"><path d="m487.041 166.945c-3.09 1.22-6.45 1.88-9.97 1.88-15.15 0-27.44-12.29-27.44-27.44s12.29-27.43 27.44-27.43c3.52 0 6.88.66 9.97 1.88-10.22 3.99-17.45 13.92-17.45 25.55s7.23 21.569 17.45 25.56z"/><path d="m487.041 375.555c-3.09 1.21-6.45 1.87-9.97 1.87-15.15 0-27.44-12.28-27.44-27.43s12.29-27.44 27.44-27.44c3.52 0 6.88.66 9.97 1.88-10.22 3.99-17.45 13.93-17.45 25.56s7.23 21.56 17.45 25.56z"/></g><path d="m7.5 472.152h467.769v-22.693c0-21.226-17.207-38.433-38.433-38.433h-390.903c-21.226 0-38.433 17.207-38.433 38.433z" fill="#c3bec6"/><path d="m120.75 411.022c-21.22 0-38.43 17.21-38.43 38.44v22.69h-74.82v-22.69c0-21.23 17.21-38.44 38.43-38.44z" fill="#b4acb7"/></g><path d="m499.57 215.758v-47.679c7.594-6.414 12.43-15.996 12.43-26.691 0-19.263-15.672-34.935-34.935-34.935s-34.935 15.671-34.935 34.935c0 10.7 4.84 20.286 12.439 26.699v46.161h-15.369v-105.543c0-22.304-18.146-40.45-40.45-40.45h-42.018v-9.399c0-14.616-11.891-26.508-26.507-26.508h-17.852c-12.011 0-22.177 8.034-25.42 19.008h-2.602c-4.143 0-7.5 3.358-7.5 7.5s3.357 7.5 7.5 7.5h1.515v8.523h-1.515c-4.143 0-7.5 3.358-7.5 7.5s3.357 7.5 7.5 7.5h1.515v8.522h-1.515c-4.143 0-7.5 3.358-7.5 7.5s3.357 7.5 7.5 7.5h1.515v8.523h-1.515c-4.143 0-7.5 3.358-7.5 7.5s3.357 7.5 7.5 7.5h1.515v8.523h-1.515c-4.143 0-7.5 3.358-7.5 7.5s3.357 7.5 7.5 7.5h1.515v8.522h-1.515c-4.143 0-7.5 3.358-7.5 7.5s3.357 7.5 7.5 7.5h2.602c3.244 10.975 13.409 19.008 25.42 19.008h17.852c14.616 0 26.507-11.891 26.507-26.508v-8.075h7.558c7.179 0 13.02 5.845 13.02 13.03v30.44c0 7.179-5.841 13.02-13.02 13.02h-161.956l-20.37-43.924c-1.295-2.793-1.087-5.885.571-8.481 1.627-2.548 4.277-4.021 7.285-4.075v8.064c0 14.617 11.892 26.508 26.508 26.508h17.852c12.012 0 22.176-8.033 25.42-19.008h2.602c4.143 0 7.5-3.358 7.5-7.5s-3.357-7.5-7.5-7.5h-1.515v-8.522h1.515c4.143 0 7.5-3.358 7.5-7.5s-3.357-7.5-7.5-7.5h-1.515v-8.523h1.515c4.143 0 7.5-3.358 7.5-7.5s-3.357-7.5-7.5-7.5h-1.515v-8.523h1.515c4.143 0 7.5-3.358 7.5-7.5s-3.357-7.5-7.5-7.5h-1.515v-8.522h1.515c4.143 0 7.5-3.358 7.5-7.5s-3.357-7.5-7.5-7.5h-1.515v-8.523h1.515c4.143 0 7.5-3.358 7.5-7.5s-3.357-7.5-7.5-7.5h-2.602c-3.244-10.974-13.408-19.008-25.42-19.008h-17.852c-14.616 0-26.508 11.892-26.508 26.508v9.414h-23.9c-13.724 0-25.782 8.769-30.005 21.819l-7.21 22.26c-1.276 3.94.883 8.17 4.824 9.446.768.249 1.546.367 2.313.367 3.164 0 6.105-2.018 7.133-5.191l7.211-22.262c2.214-6.842 8.537-11.439 15.734-11.439h23.901v70.13c-8.114.057-15.554 4.159-19.927 11.006-4.403 6.895-4.979 15.442-1.538 22.864l33.58 72.41c7.481 16.132 13.214 33.109 17.04 50.462 1.851 8.38 3.266 16.943 4.231 25.547h-88.217v-18.22c0-28.491-23.179-51.67-51.67-51.67v-.005h-23.109l-5.946-43.855h.484c32.444 0 60.96-20.74 70.956-51.61l8.04-24.84c1.275-3.941-.886-8.169-4.826-9.445-3.939-1.273-8.17.885-9.445 4.826l-8.039 24.839c-7.986 24.661-30.767 41.23-56.686 41.23h-9.07c-2.165 0-4.224.936-5.648 2.566s-2.074 3.796-1.783 5.942l1.28 9.44h-32.028c-2.252 0-4.384 1.012-5.809 2.755-1.424 1.744-1.99 4.035-1.54 6.242l15.24 74.82c.711 3.493 3.783 6.003 7.349 6.003h97.135c.068.913.115 1.832.115 2.762v18.22h-11.94c-20.92 0-37.939 17.02-37.939 37.94v29.896h-24.177c-25.329.001-45.934 20.607-45.934 45.934v22.693c0 4.142 3.357 7.5 7.5 7.5h467.769c4.143 0 7.5-3.358 7.5-7.5v-22.693c0-25.328-20.605-45.933-45.933-45.933h-26.526v-29.895c0-20.92-17.02-37.94-37.939-37.94h-21.34c-4.143 0-7.5 3.358-7.5 7.5s3.357 7.5 7.5 7.5h21.34c12.648 0 22.939 10.291 22.939 22.94v29.896h-310.2v-29.896c0-12.649 10.291-22.94 22.939-22.94h212.98c4.143 0 7.5-3.358 7.5-7.5s-3.357-7.5-7.5-7.5h-82.74c-.744-7.039-1.771-14.056-3.078-20.985h154.869c23.107 0 42.526-16.042 47.736-37.571h16.754v46.161c-7.6 6.414-12.439 16-12.439 26.7 0 19.263 15.672 34.935 34.935 34.935s34.934-15.672 34.934-34.935c0-10.695-4.835-20.277-12.43-26.691v-47.679c7.285-3.003 12.43-10.173 12.43-18.529v-22.809c0-8.356-5.145-15.526-12.43-18.529zm-157.838-39.288c0 6.345-5.162 11.508-11.507 11.508h-17.852c-6.346 0-11.508-5.163-11.508-11.508v-117.614c0-6.345 5.162-11.508 11.508-11.508h17.852c6.345 0 11.507 5.163 11.507 11.508zm-136.911-117.614c0-6.345 5.162-11.508 11.508-11.508h17.852c6.345 0 11.507 5.163 11.507 11.508v117.614c0 6.345-5.162 11.508-11.507 11.508h-17.852c-6.346 0-11.508-5.163-11.508-11.508zm-163.259 181.032 3.513 25.907h-23.117l-5.277-25.907zm-12.696 59.82-3.852-18.913 58.306.005c13.779 0 25.801 7.643 32.066 18.908zm438.903 149.75v15.193h-452.769v-15.193c0-17.057 13.877-30.933 30.934-30.933h390.902c17.057 0 30.933 13.877 30.933 30.933zm9.296-328.004c10.992 0 19.935 8.942 19.935 19.935s-8.942 19.935-19.935 19.935-19.935-8.942-19.935-19.935 8.943-19.935 19.935-19.935zm-7.495 54.05c2.416.531 4.922.818 7.495.818 2.577 0 5.086-.289 7.505-.82v38.746h-15zm-260.279 64.381h16.363v8.799c0 4.142 3.357 7.5 7.5 7.5s7.5-3.358 7.5-7.5v-8.799h20.621v8.799c0 4.142 3.357 7.5 7.5 7.5s7.5-3.358 7.5-7.5v-8.799h20.621v8.799c0 4.142 3.357 7.5 7.5 7.5s7.5-3.358 7.5-7.5v-8.799h20.621v8.799c0 4.142 3.357 7.5 7.5 7.5s7.5-3.358 7.5-7.5v-8.799h16.773c4.698 0 9.127-1.168 13.02-3.22v8.85c0 11.182-9.098 20.28-20.279 20.28h-136.121c-1.683-4.188-3.468-8.333-5.366-12.425zm180.789 59.82h-158.157c-1.596-6.367-3.443-12.676-5.516-18.91h130.623c19.453 0 35.279-15.827 35.279-35.28v-64.09c0-15.456-12.569-28.03-28.02-28.03h-7.558v-70.14h42.018c14.033 0 25.45 11.417 25.45 25.45v113.043 43.837c.001 18.814-15.305 34.12-34.119 34.12zm49.12-70.457h52.762c2.778 0 5.038 2.26 5.038 5.039v22.809c0 2.778-2.26 5.039-5.038 5.039h-52.762zm37.865 140.681c-10.992 0-19.935-8.942-19.935-19.935s8.942-19.935 19.935-19.935 19.935 8.943 19.935 19.936-8.942 19.934-19.935 19.934zm0-54.869c-2.573 0-5.079.288-7.495.818v-38.744h15v38.746c-2.419-.532-4.928-.82-7.505-.82z"/></g></svg>