<svg id="Capa_1" enable-background="new 0 0 512 512" height="512" viewBox="0 0 512 512" width="512" xmlns="http://www.w3.org/2000/svg"><g><g><g><path d="m461.732 14.146c-1.192-1.38-2.479-2.666-3.859-3.859-4.447-3.842-11.086-3.691-15.352.349-17.938 16.989-35.337 34.517-52.195 52.585 4.005 8.309 10.163 14.467 18.472 18.472 18.068-16.859 35.596-34.257 52.585-52.196 4.041-4.265 4.191-10.904.349-15.351z" fill="#f9f6f9"/><path d="m451.598 14.719c-18.925 18.642-37.687 37.433-56.302 56.387-1.924-2.363-3.58-4.995-4.974-7.889 16.86-18.062 34.264-35.594 52.198-52.58 4.125-3.912 10.478-4.182 14.921-.715-1.782 1.16-3.819 2.816-5.843 4.797z" fill="#e2dfe2"/><path d="m431.467 49.173c-2.664-3.083-5.537-5.957-8.62-8.62-9.934-8.582-24.765-8.246-34.296.781-40.072 37.952-78.939 77.109-116.6 117.471 8.947 18.563 22.702 32.318 41.265 41.265 40.362-37.661 79.519-76.528 117.471-116.6 9.026-9.532 9.361-24.363.78-34.297z" fill="#f9f6f9"/><path d="m280.277 172.812c-3.127-4.316-5.9-8.985-8.327-14.015 37.667-40.355 76.529-79.514 116.6-117.463 8.044-7.62 19.859-9.049 29.325-4.153-3.53 2.13-7.223 4.988-10.754 8.447-42.809 41.862-85.095 84.261-126.844 127.184z" fill="#e2dfe2"/><path d="m326.593 180.286c-10.852-12.388-22.472-24.008-34.86-34.86-9.036-7.916-22.509-7.911-31.489.068-19.827 17.618-38.167 36.721-55.022 57.31 18.743 23.919 40.074 45.25 63.993 63.993 20.589-16.855 39.692-35.196 57.31-55.022 7.979-8.979 7.983-22.453.068-31.489z" fill="#655e66"/><path d="m235.277 236.739c-10.662-10.662-20.68-21.968-30.054-33.931 16.852-20.588 35.197-39.697 55.021-57.313 8.985-7.981 22.456-7.981 31.49-.064 2.172 1.903 4.316 3.82 6.438 5.773-4.316 1.797-9.41 5.249-14.305 9.933-20.453 19.562-40.305 39.725-59.556 60.49 2.971 5.731 6.622 10.768 10.966 15.112z" fill="#535057"/><path d="m143.87 421.095c-.304.134-.601.262-.899.389-14.411 6.12-31.108 2.823-42.18-8.249l-42.01-42.01c-11.072-11.072-14.369-27.769-8.242-42.173.12-.304.248-.601.382-.906 10.74-25.017 27.323-47.104 48.187-64.6 22.802-19.137 47.267-36.881 62.57-47.599 9.381-6.58 15.324-10.513 15.324-10.513l58.976 30.606 30.613 58.983s-3.955 5.964-10.556 15.381c-10.725 15.31-28.448 39.739-47.557 62.513-17.504 20.855-39.591 37.438-64.608 48.178z" fill="#da4a54"/><path d="m68.304 364.965c-2.455 3.389-4.471 6.679-6.007 9.77l-3.509-3.509c-11.072-11.072-14.369-27.769-8.249-42.18.127-.297.248-.601.382-.906 10.74-25.017 27.33-47.097 48.187-64.6 36.782-30.868 77.894-58.113 77.894-58.113l58.976 30.606-33.881-3.658s-39.315 33.499-76.578 68.286c-21.14 19.725-40.588 41.48-56.641 63.518-.192.263-.384.524-.574.786z" fill="#d82e3d"/><path d="m256.035 310.402-93.317-93.317c-.368-.368-.715-.743-1.04-1.139 9.381-6.58 15.324-10.513 15.324-10.513l58.976 30.606 30.613 58.983c-.001-.001-3.956 5.963-10.556 15.38z" fill="#d82e3d"/><path d="m299.597 271.277-98.855-98.855c-7.836-7.836-20.54-7.836-28.376 0-7.836 7.836-7.836 20.54 0 28.376l98.855 98.855c7.836 7.836 20.54 7.836 28.376 0 7.836-7.836 7.836-20.54 0-28.376z" fill="#da4a54"/><path d="m204.575 224.69c-.007 5.143 1.953 10.273 5.872 14.192l-38.084-38.084c-3.912-3.912-5.879-9.049-5.872-14.192-.007-5.129 1.96-10.266 5.879-14.185 7.832-7.832 20.538-7.832 28.37 0l38.084 38.084c-7.832-7.832-20.538-7.832-28.37 0-3.919 3.919-5.879 9.063-5.879 14.185z" fill="#d82e3d"/></g></g><g><path d="m467.407 9.265c-1.427-1.654-2.988-3.215-4.64-4.639-7.4-6.386-18.324-6.133-25.407.583-7.848 7.434-15.632 15.019-23.213 22.593-10.632-2.67-22.263.059-30.754 8.096-33.395 31.63-66.292 64.452-97.869 97.61-10.242-3.248-21.814-1.113-30.259 6.393-13.428 11.923-26.331 24.681-38.443 38.002l-10.776-10.776c-10.747-10.747-28.235-10.746-38.981 0-10.152 10.152-10.708 26.316-1.68 37.134-13.646 9.376-43.703 30.562-71.099 53.542-6.519 5.475-12.668 11.403-18.275 17.619-2.774 3.076-2.529 7.818.546 10.592 1.435 1.293 3.23 1.931 5.021 1.931 2.049 0 4.091-.835 5.571-2.477 5.144-5.704 10.792-11.148 16.78-16.177 28.544-23.944 60.079-45.938 72.146-54.173l80.833 80.833c-8.23 12.062-30.222 43.599-54.178 72.141-16.798 20.024-38.176 35.971-61.819 46.117-.036.015-.869.371-.869.371-11.636 4.948-24.956 2.339-33.94-6.652l-42.006-41.996c-8.981-8.99-11.592-22.314-6.674-33.897l.401-.926c3.34-7.791 7.369-15.452 11.974-22.77 2.206-3.505 1.152-8.136-2.352-10.342-3.508-2.207-8.136-1.153-10.342 2.353-5.021 7.979-9.418 16.339-13.056 24.826l-.409.946c-7.343 17.288-3.476 37.075 9.85 50.414l16.626 16.622c-22.149 29.25-19.693 70.619 6.804 97.105 14.016 14.017 32.647 21.737 52.46 21.737s38.444-7.72 52.462-21.736l161.194-161.194c17.444-17.436 45.824-17.433 63.262-.001 8.443 8.443 13.093 19.679 13.093 31.636 0 11.951-4.65 23.183-13.093 31.626l-65.378 65.378c-2.929 2.929-2.929 7.678 0 10.606 2.93 2.929 7.678 2.929 10.607 0l65.377-65.378c11.277-11.276 17.487-26.274 17.487-42.232 0-15.964-6.21-30.966-17.488-42.244-23.287-23.277-61.181-23.278-84.472.001l-161.195 161.196c-11.184 11.183-26.049 17.342-41.856 17.342s-30.672-6.159-41.856-17.344c-20.63-20.621-22.983-52.542-6.664-75.756l14.636 14.632c8.839 8.846 20.515 13.527 32.438 13.526 6.059 0 12.183-1.209 18.028-3.696 0 0 .711-.3.916-.391 25.772-11.068 49.057-28.439 67.346-50.238 22.987-27.389 44.171-57.446 53.544-71.09 4.945 4.135 11.12 6.39 17.644 6.39 7.363 0 14.285-2.867 19.491-8.073 5.207-5.206 8.074-12.128 8.074-19.491s-2.867-14.285-8.073-19.491l-10.776-10.776c13.273-12.07 26.032-24.97 38.005-38.435 7.51-8.45 9.644-20.028 6.391-30.274 20.387-19.394 40.86-39.514 60.916-59.884 2.905-2.952 2.869-7.7-.083-10.606s-7.7-2.87-10.606.082c-19.179 19.479-38.741 38.73-58.241 57.328-9.964-11.221-20.673-21.931-31.894-31.894 30.721-32.179 62.67-64.022 95.094-94.733 6.767-6.405 17.184-6.641 24.23-.553 2.801 2.42 5.441 5.061 7.846 7.846 6.094 7.059 5.858 17.48-.547 24.241-5.597 5.907-10.725 11.275-15.681 16.409-2.877 2.98-2.792 7.728.188 10.605 2.978 2.876 7.727 2.792 10.604-.188 4.988-5.169 10.149-10.569 15.777-16.509 8.039-8.485 10.769-20.117 8.099-30.754 7.542-7.543 15.128-15.326 22.604-23.218 6.715-7.096 6.962-18.019.579-25.4zm-169.434 276.206c0 3.356-1.307 6.512-3.681 8.885-4.898 4.899-12.87 4.898-17.768 0l-98.853-98.852c-4.899-4.899-4.899-12.87-.001-17.769 2.45-2.45 5.667-3.674 8.885-3.674 3.217 0 6.434 1.225 8.884 3.674l98.853 98.853c2.374 2.372 3.681 5.527 3.681 8.883zm22.978-100.23c5.414 6.18 5.399 15.451-.033 21.564-11.779 13.247-24.342 25.929-37.413 37.781l-56.062-56.061c11.892-13.117 24.575-25.679 37.785-37.408 6.115-5.434 15.386-5.449 21.566-.033 12.083 10.581 23.575 22.073 34.157 34.157zm134.983-160.885c-6.3 6.65-12.682 13.233-19.046 19.65-2.734-3.139-5.712-6.118-8.863-8.864 6.446-6.389 13.03-12.771 19.654-19.045 1.476-1.398 3.75-1.444 5.292-.113 1.097.946 2.133 1.981 3.086 3.086 1.327 1.536 1.274 3.81-.123 5.286z"/><path d="m343.272 153.063c1.919 0 3.839-.732 5.304-2.197l11.312-11.312c2.929-2.929 2.929-7.678 0-10.606-2.93-2.929-7.677-2.929-10.607 0l-11.312 11.312c-2.929 2.929-2.929 7.678 0 10.606 1.465 1.464 3.384 2.197 5.303 2.197z"/><path d="m343.078 112.137c-2.93-2.929-7.678-2.929-10.607 0l-11.312 11.312c-2.929 2.929-2.929 7.678 0 10.606 1.465 1.464 3.385 2.197 5.304 2.197s3.839-.732 5.304-2.197l11.312-11.312c2.928-2.928 2.928-7.677-.001-10.606z"/></g></g></svg>