<svg id="Capa_1" enable-background="new 0 0 512 512" height="512" viewBox="0 0 512 512" width="512" xmlns="http://www.w3.org/2000/svg"><g><g><g><path d="m424.93 404.63c-112.62 8.39-225.24 8.39-337.86 0-9.6-59.11-11.76-118.22-6.47-177.34 1.53-17.15 3.69-34.3 6.47-51.45 74.46-5.54 148.92 12.857 223.38 14.636 38.16.92 76.32-17.476 114.48-14.636 12.39 76.27 12.39 152.53 0 228.79z" fill="#e27d47"/><path d="m126.252 173.275c-8.48 77.98-8.48 155.96 0 233.93-13.06-.74-26.12-1.6-39.18-2.57-12.39-76.26-12.39-152.52 0-228.79 13.06-.97 26.12-1.831 39.18-2.57z" fill="#dd6938"/><path d="m406.31 198.68s-11 41.24-50.9 79.81c0 0-54.45 11.98-118.03 11.98s-118.02-11.98-118.02-11.98c-18.59-17.96-30.91-36.51-38.76-51.2 1.53-17.15 3.69-34.3 6.47-51.45 74.46-5.54 148.92-7.42 223.38-5.64 35.2 14.44 68.68 26.46 95.86 28.48z" fill="#dd6938"/><path d="m424.93 175.84s-11 41.24-50.9 79.81c0 0-54.45 11.98-118.03 11.98s-118.02-11.98-118.02-11.98c-39.9-38.57-50.91-79.81-50.91-79.81 112.62-8.38 225.24-8.38 337.86 0z" fill="#eaaa89"/></g><path d="m461.852 404.633h-411.703c-23.554 0-42.649 19.094-42.649 42.649 0 23.554 19.094 42.649 42.649 42.649h411.703c23.554 0 42.648-19.094 42.648-42.649 0-23.555-19.094-42.649-42.648-42.649z" fill="#c3bec6"/><g fill="#655e66"><circle cx="50.149" cy="447.281" r="19.472"/><circle cx="461.851" cy="447.281" r="19.472"/><circle cx="379.511" cy="447.281" r="19.472"/><circle cx="297.17" cy="447.281" r="19.472"/><circle cx="214.83" cy="447.281" r="19.472"/><circle cx="132.489" cy="447.281" r="19.472"/></g><circle cx="401.709" cy="124.862" fill="#78d0b1" r="102.791"/><path d="m416.187 226.632c-4.73.67-9.56 1.02-14.48 1.02-56.77 0-102.79-46.02-102.79-102.79s46.02-102.79 102.79-102.79c4.92 0 9.75.35 14.48 1.02-49.92 7.03-88.31 49.92-88.31 101.77s38.39 94.74 88.31 101.77z" fill="#66b49d"/></g><g><path d="m461.852 397.133h-28.177c8.392-55.959 10.186-112.562 5.349-168.485 42.505-15.329 72.976-56.065 72.976-103.788 0-23.224-7.133-45.432-20.628-64.225-2.416-3.365-7.103-4.134-10.466-1.717-3.365 2.416-4.133 7.102-1.717 10.466 11.652 16.228 17.811 35.411 17.811 55.476 0 52.543-42.747 95.29-95.29 95.29s-95.29-42.747-95.29-95.29 42.747-95.29 95.29-95.29c21.258 0 41.372 6.853 58.167 19.817 3.28 2.531 7.989 1.925 10.52-1.354s1.925-7.989-1.354-10.52c-19.445-15.01-42.728-22.943-67.333-22.943-60.814 0-110.29 49.476-110.29 110.29 0 13.192 2.331 25.85 6.599 37.585-70.319-1.288-141.409.694-211.506 5.915-3.458.258-6.29 2.854-6.846 6.277-11.991 73.812-12.438 148.618-1.353 222.496h-28.166c-27.651 0-50.148 22.496-50.148 50.148s22.497 50.148 50.148 50.148h411.703c27.652 0 50.148-22.497 50.148-50.149.001-27.651-22.496-50.147-50.147-50.147zm-371.252-192.927c8.012 15.781 21.251 36.618 42.167 56.836.999.965 2.247 1.635 3.604 1.933.5.11 12.457 2.72 31.781 5.527.366.053.729.079 1.087.079 3.665 0 6.871-2.689 7.413-6.423.595-4.099-2.245-7.905-6.344-8.5-14.219-2.065-24.478-4.052-28.652-4.902-26.084-25.762-38.996-52.688-44.29-66.133 68.848-4.826 138.577-6.518 207.497-5.035 16.04 29.343 45.028 50.634 79.228 56.148-4.32 5.225-8.909 10.249-13.737 15.019-10.464 2.124-59.227 11.375-114.354 11.375-18.127 0-37.226-.987-56.767-2.933-4.128-.411-7.795 2.598-8.206 6.72s2.598 7.796 6.72 8.206c20.033 1.995 39.632 3.007 58.253 3.007 63.664 0 117.386-11.659 119.642-12.155 1.356-.298 2.604-.968 3.602-1.934 8.282-8.009 15.942-16.709 22.822-25.896 7.627-.024 15.073-.827 22.265-2.332 4.491 54.557 2.528 109.757-5.832 164.319h-325.017c-9.812-64.015-10.772-128.761-2.882-192.926zm371.252 278.224h-411.704c-19.38 0-35.148-15.768-35.148-35.149s15.768-35.148 35.148-35.148h411.703c19.381 0 35.148 15.768 35.148 35.149.001 19.38-15.767 35.148-35.147 35.148z"/><path d="m50.148 420.309c-14.873 0-26.972 12.1-26.972 26.972s12.1 26.972 26.972 26.972 26.972-12.1 26.972-26.972c.001-14.872-12.099-26.972-26.972-26.972zm0 38.944c-6.602 0-11.972-5.371-11.972-11.972 0-6.602 5.371-11.972 11.972-11.972s11.972 5.371 11.972 11.972c.001 6.602-5.37 11.972-11.972 11.972z"/><path d="m461.852 420.309c-14.873 0-26.972 12.1-26.972 26.972s12.1 26.972 26.972 26.972 26.972-12.1 26.972-26.972-12.1-26.972-26.972-26.972zm0 38.944c-6.602 0-11.972-5.371-11.972-11.972 0-6.602 5.371-11.972 11.972-11.972s11.972 5.371 11.972 11.972c0 6.602-5.371 11.972-11.972 11.972z"/><path d="m379.511 420.309c-14.873 0-26.972 12.1-26.972 26.972s12.1 26.972 26.972 26.972 26.972-12.1 26.972-26.972-12.1-26.972-26.972-26.972zm0 38.944c-6.602 0-11.972-5.371-11.972-11.972 0-6.602 5.371-11.972 11.972-11.972s11.972 5.371 11.972 11.972c0 6.602-5.371 11.972-11.972 11.972z"/><path d="m297.17 420.309c-14.873 0-26.972 12.1-26.972 26.972s12.1 26.972 26.972 26.972 26.972-12.1 26.972-26.972c.001-14.872-12.099-26.972-26.972-26.972zm0 38.944c-6.602 0-11.972-5.371-11.972-11.972 0-6.602 5.371-11.972 11.972-11.972s11.972 5.371 11.972 11.972c.001 6.602-5.37 11.972-11.972 11.972z"/><path d="m214.83 420.309c-14.873 0-26.972 12.1-26.972 26.972s12.1 26.972 26.972 26.972 26.972-12.1 26.972-26.972-12.1-26.972-26.972-26.972zm0 38.944c-6.602 0-11.972-5.371-11.972-11.972 0-6.602 5.371-11.972 11.972-11.972s11.972 5.371 11.972 11.972c0 6.602-5.371 11.972-11.972 11.972z"/><path d="m132.489 420.309c-14.873 0-26.972 12.1-26.972 26.972s12.1 26.972 26.972 26.972 26.972-12.1 26.972-26.972-12.099-26.972-26.972-26.972zm0 38.944c-6.602 0-11.972-5.371-11.972-11.972 0-6.602 5.371-11.972 11.972-11.972s11.972 5.371 11.972 11.972c0 6.602-5.37 11.972-11.972 11.972z"/><path d="m441.465 79.856-43.289 79.864-31.293-35.369c-2.745-3.102-7.484-3.391-10.587-.647-3.103 2.745-3.392 7.485-.647 10.587l38.396 43.396c1.433 1.619 3.482 2.53 5.617 2.53.283 0 .567-.016.852-.048 2.432-.278 4.576-1.726 5.742-3.877l48.397-89.287c1.974-3.642.622-8.194-3.02-10.168-3.643-1.975-8.194-.622-10.168 3.019z"/></g></g></svg>