<svg id="Capa_1" enable-background="new 0 0 511.996 511.996" height="512" viewBox="0 0 511.996 511.996" width="512" xmlns="http://www.w3.org/2000/svg"><g><g><path d="m504.496 268.507v206.539c0 4.758-1.93 9.067-5.044 12.181s-7.423 5.044-12.181 5.044c-9.516 0-17.225-7.709-17.225-17.225v-89.7c0-8.26-6.688-14.948-14.938-14.948h-.01c-3.38 0-6.504 1.123-9.006 3.022-3.604 2.716-5.932 7.045-5.932 11.926v59.752c0 5.044-2.042 9.598-5.34 12.906-3.308 3.298-7.872 5.34-12.906 5.34-10.078 0-18.246-8.168-18.246-18.246v-188.456l-79.06 5.667-96.5 6.913 32.051-165.156h79.898c90.821-.001 164.439 73.628 164.439 164.441z" fill="#da4a54"/><path d="m446.092 274.519v98.902c-3.604 2.716-5.932 7.045-5.932 11.926v59.752c0 5.044-2.042 9.598-5.34 12.906-3.347 3.337-7.98 5.388-13.085 5.339-10.085-.097-18.068-8.632-18.068-18.718v-187.984l-79.06 5.667 7.403-60.324h41.549c40.058 0 72.533 32.475 72.533 72.534z" fill="#d82e3d"/><g><path d="m277.231 370.077c-61.225 61.095-160.572 61.095-221.79.007l-2.123-2.123c-61.095-61.226-61.095-160.572 0-221.798 26.115-26.172 53.291-51.283 81.535-75.326 10.346-8.816 20.844-17.494 31.479-26.021 7.112 5.696 14.144 11.458 21.125 17.285 63.168 52.727 121.108 110.668 173.835 173.835 5.827 6.982 11.588 14.014 17.285 21.125-8.527 10.635-17.205 21.133-26.021 31.479-24.042 28.246-49.153 55.422-75.325 81.537z" fill="#655e66"/><path d="m31.18 340.108c-37.753-60.54-30.367-141.324 22.137-193.943 35.688-35.761 73.362-69.55 113.014-101.347 18.714 15.003 36.981 30.454 54.807 46.345-39.046 35.291-77.153 71.521-114.299 108.711-47.284 47.342-75.103 101.485-75.659 140.234z" fill="#535057"/><path d="m352.556 288.542c-.469-.383-.909-.795-1.343-1.228l-215.126-215.126c-.433-.433-.852-.881-1.235-1.35 10.346-8.816 20.844-17.494 31.479-26.021 7.112 5.696 14.144 11.458 21.125 17.285l173.835 173.835c5.827 6.982 11.588 14.014 17.285 21.125-8.525 10.635-17.204 21.133-26.02 31.48z" fill="#535057"/><path d="m397.305 241.216-215.124-215.124c-8.486-8.486-22.246-8.486-30.732 0-8.486 8.486-8.486 22.246 0 30.732l215.124 215.124c8.486 8.486 22.246 8.486 30.732 0 8.487-8.487 8.487-22.246 0-30.732z" fill="#655e66"/><path d="m202.841 99.216c0 5.559 2.123 11.119 6.368 15.364l-57.76-57.76c-4.245-4.245-6.368-9.805-6.368-15.364.007-5.567 2.13-11.126 6.368-15.364 8.483-8.483 22.237-8.491 30.728 0l57.76 57.76c-8.483-8.483-22.245-8.484-30.728 0-4.238 4.238-6.361 9.797-6.368 15.364z" fill="#535057"/></g></g><path d="m504.496 341.399c4.143 0 7.5-3.358 7.5-7.5v-65.39c0-94.808-77.132-171.94-171.94-171.94h-76.791l-75.781-75.78c-5.521-5.521-12.861-8.562-20.669-8.562s-15.148 3.041-20.669 8.562-8.562 12.861-8.562 20.669c0 5.054 1.281 9.909 3.677 14.205-32.35 26.967-63.705 55.593-93.255 85.208-29.025 29.086-46.016 67.732-47.843 108.82-1.814 40.822 11.431 80.573 37.296 111.931 1.483 1.798 3.628 2.728 5.79 2.728 1.68 0 3.371-.562 4.768-1.714 3.195-2.636 3.649-7.363 1.013-10.558-23.497-28.49-35.53-64.615-33.88-101.721 1.66-37.34 17.1-72.46 43.475-98.891 29.284-29.349 60.36-57.716 92.425-84.436l205.315 205.315c-26.652 31.995-55.016 63.071-84.426 92.424-26.787 26.728-62.389 42.188-100.248 43.532-37.661 1.343-74.089-11.364-102.554-35.767-3.145-2.695-7.879-2.332-10.575.813s-2.333 7.879.813 10.575c29.833 25.577 67.594 39.476 106.914 39.476 1.973 0 3.955-.035 5.935-.105 41.657-1.48 80.833-18.493 110.311-47.905 29.679-29.622 58.303-60.979 85.206-93.262 4.4 2.443 9.298 3.673 14.199 3.673 4.911 0 9.82-1.235 14.227-3.688v162.989c0 6.887 2.683 13.354 7.539 18.196 4.857 4.872 11.325 7.554 18.211 7.554 14.193 0 25.74-11.551 25.74-25.75v-59.76c0-1.987.771-3.851 2.192-5.266 1.396-1.402 3.264-2.174 5.258-2.174 4.103 0 7.439 3.337 7.439 7.44v89.71c0 6.592 2.566 12.797 7.245 17.492 4.677 4.661 10.883 7.228 17.475 7.228 13.637 0 24.73-11.089 24.73-24.72v-111.15c0-4.142-3.357-7.5-7.5-7.5s-7.5 3.358-7.5 7.5v111.15c0 5.36-4.365 9.72-9.73 9.72-2.595 0-5.04-1.013-6.867-2.834-1.84-1.846-2.853-4.292-2.853-6.886v-89.71c0-12.374-10.066-22.44-22.439-22.44-6.011 0-11.651 2.339-15.864 6.567-4.247 4.232-6.586 9.869-6.586 15.873v59.76c0 5.928-4.818 10.75-10.74 10.75-2.871 0-5.566-1.117-7.604-3.161-2.028-2.022-3.146-4.717-3.146-7.589v-188.46c0-.029-.008-.051-.01-.08-.005-7.478-2.854-14.954-8.547-20.647l-124.345-124.344h61.791c86.537 0 156.94 70.403 156.94 156.94v65.39c0 4.142 3.357 7.5 7.5 7.5zm-112.494-74.754c-5.549 5.549-14.576 5.549-20.125 0l-215.125-215.125c-5.548-5.549-5.548-14.577 0-20.125 2.774-2.774 6.418-4.161 10.063-4.161 3.644 0 7.288 1.387 10.063 4.161l215.124 215.124c5.549 5.548 5.549 14.577 0 20.126z"/></g></svg>