<svg id="Capa_1" enable-background="new 0 0 512 512" height="512" viewBox="0 0 512 512" width="512" xmlns="http://www.w3.org/2000/svg"><g><g><path d="m227.069 33.025h57.862v445.949h-57.862z" fill="#da4a54" transform="matrix(.707 -.707 .707 .707 -106.039 256)"/><path d="m232.26 45.557h22.417v445.949h-22.417z" fill="#d82e3d" transform="matrix(.707 -.707 .707 .707 -118.571 250.809)"/><path d="m227.069 38.169h57.862v435.663h-57.862z" fill="#da4a54" transform="matrix(.707 .707 -.707 .707 256 -106.039)"/><path d="m231.684 27.026h26.346v435.663h-26.346z" fill="#d82e3d" transform="matrix(.707 .707 -.707 .707 244.857 -101.423)"/><path d="m256 7.5c-137.24 0-248.5 111.26-248.5 248.5s111.26 248.5 248.5 248.5 248.5-111.26 248.5-248.5-111.26-248.5-248.5-248.5zm0 423.23c-96.5 0-174.73-78.23-174.73-174.73s78.23-174.73 174.73-174.73 174.73 78.23 174.73 174.73-78.23 174.73-174.73 174.73z" fill="#da4a54"/><g fill="#d82e3d"><path d="m273.614 429.85c5.793.58 11.668.88 17.614.88 96.5 0 174.73-78.23 174.73-174.73s-78.23-174.73-174.73-174.73c-5.946 0-11.821.3-17.614.88 88.228 8.832 157.116 83.296 157.116 173.85s-68.888 165.018-157.116 173.85z"/><path d="m42.728 256c0-131.317 101.867-238.833 230.886-247.871-5.82-.407-11.691-.629-17.614-.629-137.24 0-248.5 111.26-248.5 248.5s111.26 248.5 248.5 248.5c5.923 0 11.794-.222 17.614-.629-129.019-9.038-230.886-116.554-230.886-247.871z"/></g><circle cx="256" cy="256" fill="#655e66" r="59.747"/><circle cx="256" cy="256" fill="#f9f6f9" r="27.103"/></g><g><path d="m437.019 74.981c-48.353-48.352-112.64-74.981-181.019-74.981s-132.666 26.629-181.019 74.981c-48.352 48.353-74.981 112.64-74.981 181.019 0 30.012 5.151 59.417 15.311 87.399 1.414 3.894 5.716 5.903 9.609 4.49 3.894-1.414 5.903-5.716 4.49-9.609-9.561-26.336-14.41-54.019-14.41-82.28 0-64.372 25.068-124.892 70.588-170.412s106.04-70.588 170.412-70.588 124.893 25.069 170.412 70.588 70.588 106.04 70.588 170.412-25.068 124.892-70.588 170.412-106.04 70.588-170.412 70.588c-45.385 0-89.596-12.681-127.852-36.671-37.23-23.347-67.394-56.37-87.229-95.5-1.874-3.695-6.39-5.172-10.08-3.298-3.695 1.873-5.172 6.386-3.299 10.081 21.066 41.559 53.101 76.631 92.638 101.425 40.648 25.49 87.614 38.963 135.822 38.963 68.379 0 132.666-26.629 181.019-74.981 48.352-48.353 74.981-112.64 74.981-181.019s-26.629-132.666-74.981-181.019z"/><path d="m256 438.23c100.481 0 182.229-81.748 182.229-182.23s-81.748-182.23-182.229-182.23c-100.482 0-182.23 81.748-182.23 182.23s81.748 182.23 182.23 182.23zm-132.376-80.167 72.168-72.16c6.534 13.101 17.214 23.779 30.317 30.311l-72.171 72.163c-11.349-8.771-21.543-18.964-30.314-30.314zm132.376-154.31c28.81 0 52.247 23.438 52.247 52.247s-23.437 52.247-52.247 52.247-52.247-23.438-52.247-52.247 23.437-52.247 52.247-52.247zm-89.609 193.383 75.418-75.409c4.578.987 9.322 1.52 14.191 1.52 4.874 0 9.624-.534 14.206-1.524l75.409 75.409c-25.92 16.517-56.668 26.098-89.615 26.098-32.944 0-63.69-9.58-89.609-26.094zm191.678-8.764-72.164-72.164c13.097-6.532 23.772-17.207 30.303-30.303l72.164 72.164c-8.769 11.345-18.959 21.535-30.303 30.303zm30.307-234.435-23.769 23.77c-2.929 2.929-2.929 7.678 0 10.606 1.465 1.464 3.385 2.197 5.304 2.197s3.839-.732 5.304-2.197l21.922-21.922c16.514 25.918 26.094 56.665 26.094 89.609 0 32.947-9.582 63.695-26.098 89.615l-75.408-75.409c.99-4.583 1.524-9.333 1.524-14.207 0-4.868-.533-9.612-1.52-14.189l32.287-32.287c2.929-2.929 2.929-7.678 0-10.606-2.93-2.929-7.678-2.929-10.607 0l-27.192 27.192c-6.531-13.103-17.209-23.783-30.311-30.317l72.159-72.168c11.347 8.771 21.54 18.964 30.311 30.313zm-42.767-39.073-75.404 75.412c-4.582-.989-9.332-1.523-14.206-1.523s-9.624.534-14.206 1.524l-75.409-75.409c25.92-16.516 56.669-26.098 89.616-26.098 32.944 0 63.691 9.58 89.609 26.094zm-191.678 8.764 72.165 72.164c-13.097 6.532-23.772 17.207-30.303 30.303l-72.164-72.164c8.767-11.345 18.957-21.535 30.302-30.303zm-39.063 42.757 75.409 75.409c-.99 4.583-1.524 9.333-1.524 14.207s.534 9.624 1.524 14.207l-75.412 75.404c-16.515-25.921-26.095-56.667-26.095-89.612 0-32.947 9.581-63.696 26.098-89.615z"/><path d="m256 290.603c19.08 0 34.604-15.523 34.604-34.603s-15.524-34.603-34.604-34.603-34.604 15.523-34.604 34.603 15.524 34.603 34.604 34.603zm0-54.206c10.81 0 19.604 8.794 19.604 19.603s-8.794 19.603-19.604 19.603-19.604-8.794-19.604-19.603 8.794-19.603 19.604-19.603z"/></g></g></svg>