<svg id="Capa_1" enable-background="new 0 0 512 512" height="512" viewBox="0 0 512 512" width="512" xmlns="http://www.w3.org/2000/svg"><g><g><g><path d="m257.405 75.602h-2.81c-9.909 0-18.126-7.673-18.805-17.559l-2.086-30.409c-.747-10.892 7.887-20.139 18.805-20.139h6.981c10.918 0 19.552 9.247 18.805 20.139l-2.086 30.409c-.678 9.887-8.895 17.559-18.804 17.559z" fill="#f9f48e"/></g><g><path d="m404.551 109.432-1.987-1.987c-7.007-7.007-7.392-18.243-.881-25.713l20.027-22.977c7.174-8.23 19.817-8.663 27.537-.943l4.937 4.937c7.72 7.72 7.287 20.363-.943 27.537l-22.977 20.027c-7.47 6.511-18.706 6.126-25.713-.881z" fill="#f9f48e"/></g><g fill="#f9f48e"><path d="m436.394 257.401v-2.81c0-9.909 7.673-18.126 17.559-18.805l30.409-2.086c10.892-.747 20.139 7.887 20.139 18.805v6.981c0 10.918-9.247 19.552-20.139 18.805l-30.409-2.086c-9.886-.678-17.559-8.895-17.559-18.804z"/><path d="m75.606 254.591v2.81c0 9.909-7.673 18.126-17.559 18.805l-30.409 2.086c-10.891.747-20.138-7.887-20.138-18.805v-6.981c0-10.918 9.247-19.552 20.139-18.805l30.409 2.086c9.885.678 17.558 8.895 17.558 18.804z"/></g><g><path d="m109.436 107.445-1.987 1.987c-7.007 7.007-18.243 7.392-25.713.881l-22.977-20.028c-8.23-7.174-8.663-19.817-.943-27.537l4.937-4.937c7.72-7.72 20.363-7.287 27.537.943l20.027 22.977c6.51 7.471 6.126 18.707-.881 25.714z" fill="#f9f48e"/></g><g><path d="m107.449 387.561 1.987 1.987c7.007 7.007 7.392 18.243.881 25.713l-20.027 22.977c-7.174 8.23-19.817 8.663-27.537.943l-4.937-4.937c-7.72-7.72-7.287-20.363.943-27.537l22.977-20.027c7.47-6.511 18.706-6.126 25.713.881z" fill="#f9f48e"/></g><g><path d="m402.564 389.547 1.987-1.987c7.007-7.007 18.243-7.392 25.713-.881l22.977 20.027c8.23 7.174 8.663 19.817.943 27.537l-4.937 4.937c-7.72 7.72-20.363 7.287-27.537-.943l-20.027-22.977c-6.51-7.47-6.126-18.706.881-25.713z" fill="#f9f48e"/></g><g><path d="m320.875 433.184c0-20.949 11.58-40.38 30.32-49.744 27.858-13.922 47.283-42.073 48.842-75.029 2.062-43.604 1.835-87.207-.681-130.811-2.197-38.065-32.709-68.42-70.775-70.612-47.81-2.752-95.621-2.752-143.431 0-38.066 2.191-68.578 32.547-70.775 70.612-2.516 43.604-2.743 87.207-.681 130.811 1.559 32.955 20.984 61.107 48.842 75.029 18.739 9.365 30.32 28.795 30.32 49.744l67.715 21.64z" fill="#ffef4a"/><path d="m215.294 440.36-22.44-7.17c0-20.95-11.58-40.38-30.32-49.75-27.86-13.92-47.29-42.07-48.84-75.03-2.07-43.6-1.84-87.2.68-130.81 2.19-38.06 32.71-68.42 70.77-70.61 1.88-.11 3.75-.21 5.63-.3-14.94 12.44-25.4 36.96-26.42 65.64-1.64 45.85-1.79 91.7-.45 137.56 1.02 34.65 13.63 64.25 31.71 78.89 12.041 9.74 19.52 29.83 19.68 51.58z" fill="#ffd321"/><path d="m283.904 504.496h-54.078c-20.419 0-36.971-16.553-36.971-36.971v-34.341h128.021v34.341c-.001 20.419-16.553 36.971-36.972 36.971z" fill="#c3bec6"/><path d="m269.505 504.494h-39.68c-20.42 0-36.97-16.55-36.97-36.97v-34.34h39.68v34.34c0 20.42 16.55 36.97 36.97 36.97z" fill="#b4acb7"/><g><path d="m273.55 374.005h-33.37c-12.698 0-22.991 10.293-22.991 22.991v36.187h79.352v-36.187c0-12.697-10.293-22.991-22.991-22.991z" fill="#e27d47"/><path d="m268.849 374.006c-12.7 0-22.99 10.29-22.99 22.99v36.19h-28.67v-36.19c0-12.7 10.29-22.99 22.99-22.99z" fill="#dd6938"/></g><g><path d="m356.845 226.277c-1.117-3.487-4.192-5.98-7.823-6.45-4.595-.594-9.191-1.051-13.782-1.364-3.619-.251-6.747-2.559-8.132-5.914-.012-.037-.029-.074-.045-.111-1.389-3.351-.816-7.192 1.57-9.929 3.021-3.47 5.951-7.04 8.779-10.712 2.238-2.897 2.646-6.838.969-10.094-4.909-9.517-12.121-16.729-21.638-21.638-3.256-1.677-7.196-1.269-10.094.969-3.672 2.827-7.242 5.758-10.712 8.779-2.737 2.386-6.578 2.959-9.929 1.57-.037-.016-.074-.033-.111-.045-3.355-1.385-5.663-4.513-5.914-8.132-.313-4.591-.771-9.187-1.364-13.782-.47-3.631-2.963-6.706-6.45-7.823-10.201-3.256-20.406-3.256-30.606 0-3.487 1.117-5.98 4.192-6.45 7.823-.593 4.595-1.051 9.191-1.364 13.782-.251 3.619-2.559 6.747-5.914 8.132-.037.012-.074.029-.111.045-3.351 1.389-7.192.816-9.929-1.57-3.47-3.021-7.04-5.951-10.712-8.779-2.897-2.238-6.838-2.646-10.094-.969-9.517 4.909-16.729 12.121-21.638 21.638-1.677 3.256-1.269 7.196.969 10.094 2.827 3.672 5.758 7.242 8.779 10.712 2.386 2.737 2.959 6.578 1.57 9.929-.016.037-.033.074-.045.111-1.385 3.355-4.513 5.663-8.132 5.914-4.591.313-9.187.771-13.782 1.364-3.631.47-6.706 2.963-7.823 6.45-3.256 10.201-3.256 20.406 0 30.606 1.117 3.487 4.192 5.98 7.823 6.45 4.595.594 9.191 1.051 13.782 1.364 3.619.251 6.747 2.559 8.132 5.914.012.037.029.074.045.111 1.389 3.351.816 7.192-1.57 9.929-3.021 3.47-5.951 7.04-8.779 10.712-2.238 2.897-2.646 6.838-.969 10.094 4.909 9.517 12.121 16.729 21.638 21.638 3.256 1.677 7.196 1.269 10.094-.969 3.672-2.827 7.242-5.758 10.712-8.779 2.737-2.386 6.578-2.959 9.929-1.57.037.016.074.033.111.045 3.355 1.385 5.663 4.513 5.914 8.132.313 4.591.771 9.187 1.364 13.782.47 3.631 2.963 6.706 6.45 7.823 10.201 3.256 20.406 3.256 30.606 0 3.487-1.117 5.98-4.192 6.45-7.823.593-4.595 1.051-9.191 1.364-13.782.251-3.619 2.559-6.747 5.914-8.132.037-.012.074-.029.111-.045 3.351-1.389 7.192-.816 9.929 1.57 3.47 3.021 7.04 5.951 10.712 8.779 2.897 2.238 6.838 2.646 10.094.969 9.517-4.909 16.729-12.121 21.638-21.638 1.677-3.256 1.269-7.196-.969-10.094-2.827-3.672-5.758-7.242-8.779-10.712-2.386-2.737-2.959-6.578-1.57-9.929.016-.037.033-.074.045-.111 1.385-3.355 4.513-5.663 8.132-5.914 4.591-.313 9.187-.771 13.782-1.364 3.631-.47 6.706-2.963 7.823-6.45 3.256-10.2 3.256-20.405 0-30.606zm-99.98 56.955c-23.004 0-41.652-18.648-41.652-41.652s18.648-41.652 41.652-41.652 41.652 18.648 41.652 41.652-18.648 41.652-41.652 41.652z" fill="#f9f6f9"/><path d="m186.686 303.975c-1.678-3.392-1.269-7.497.969-10.518 2.827-3.825 5.758-7.547 8.779-11.161 2.386-2.852 2.959-6.854 1.57-10.345-.016-.041-.033-.078-.045-.12-1.385-3.495-4.513-5.898-8.132-6.162-4.591-.326-9.187-.804-13.783-1.422-3.631-.49-6.706-3.087-7.823-6.722-3.256-10.63-3.256-21.264 0-31.893 1.117-3.635 4.192-6.232 7.823-6.722 4.596-.618 9.191-1.096 13.783-1.422 3.619-.264 6.747-2.667 8.132-6.162.012-.041.029-.078.045-.12 1.389-3.491.816-7.493-1.57-10.345-3.021-3.615-5.952-7.337-8.779-11.161-2.238-3.021-2.646-7.126-.969-10.518 4.093-8.268 9.789-14.871 17.084-19.8-2.23-.618-4.653-.412-6.784.684-9.517 4.909-16.726 12.118-21.634 21.634-1.678 3.256-1.269 7.196.969 10.094 2.827 3.672 5.758 7.242 8.775 10.712 2.386 2.737 2.959 6.578 1.57 9.929-.016.037-.033.074-.045.111-1.385 3.355-4.509 5.663-8.128 5.915-4.591.313-9.187.771-13.783 1.364-3.631.47-6.706 2.963-7.823 6.45-3.256 10.201-3.256 20.406 0 30.607 1.117 3.487 4.192 5.98 7.823 6.45 4.596.594 9.191 1.051 13.783 1.364 3.619.251 6.743 2.56 8.128 5.915.012.037.029.074.045.111 1.389 3.351.816 7.192-1.57 9.929-3.017 3.47-5.948 7.04-8.775 10.712-2.238 2.898-2.646 6.838-.969 10.094 4.909 9.517 12.118 16.726 21.634 21.634 2.131 1.096 4.554 1.302 6.784.684-7.295-4.929-12.991-11.532-17.084-19.8zm59.76 33.641c-.593-4.789-1.051-9.579-1.364-14.364-.251-3.771-2.56-7.032-5.915-8.474-.037-.012-.074-.029-.111-.045-2.399-1.039-5.049-1.026-7.365-.025 1.183 1.471 1.921 3.285 2.057 5.243.313 4.591.771 9.187 1.364 13.783.47 3.631 2.963 6.706 6.45 7.823 2.531.808 5.065 1.418 7.596 1.826-1.464-1.526-2.436-3.545-2.712-5.767zm-4.885-196.016c-3.487 1.117-5.98 4.192-6.45 7.823-.593 4.596-1.051 9.191-1.364 13.783-.136 1.958-.874 3.771-2.057 5.243 2.316 1.002 4.967 1.014 7.365-.025.037-.016.074-.033.111-.045 3.355-1.443 5.663-4.703 5.915-8.474.313-4.785.771-9.575 1.364-14.364.276-2.222 1.249-4.241 2.712-5.766-2.53.407-5.065 1.017-7.596 1.825z" fill="#e2dfe2"/></g></g></g><g><path d="m407.622 192.239c-.189-4.138-3.701-7.347-7.834-7.151-4.138.188-7.339 3.696-7.15 7.833 1.741 38.211 1.711 76.948-.089 115.134-1.386 29.273-18.518 55.588-44.714 68.677-18.714 9.362-31.499 28.071-33.998 48.958h-9.796v-28.69c0-16.813-13.679-30.491-30.491-30.491h-33.37c-16.813 0-30.491 13.678-30.491 30.491v28.69h-9.796c-2.5-20.887-15.284-39.596-34-48.959-26.193-13.087-43.325-39.402-44.711-68.675-2.036-43.097-1.809-86.844.676-130.023 1.98-34.257 29.376-61.58 63.724-63.555 47.301-2.72 95.267-2.72 142.567 0 29.369 1.692 54.124 21.872 61.6 50.215 1.057 4.004 5.154 6.397 9.165 5.339 4.005-1.056 6.396-5.16 5.339-9.165-9.136-34.637-39.373-59.298-75.241-61.365-47.873-2.754-96.42-2.754-144.291 0-41.954 2.413-75.417 35.802-77.837 77.667-2.516 43.702-2.745 87.977-.684 131.595 1.641 34.69 21.945 65.875 52.985 81.383 15.895 7.952 26.165 24.847 26.165 43.042v34.34c0 11.182 4.17 21.875 11.74 30.107 2.803 3.049 7.547 3.248 10.598.444 3.049-2.804 3.247-7.549.443-10.597-3.286-3.574-5.598-7.849-6.808-12.454h111.087c-3.327 12.629-14.846 21.971-28.51 21.971h-54.28c-4.143 0-7.5 3.358-7.5 7.5s3.357 7.5 7.5 7.5h54.28c24.526 0 44.479-19.949 44.479-44.47v-34.34c0-18.196 10.271-35.091 26.163-43.041 31.043-15.511 51.348-46.696 52.988-81.386 1.824-38.648 1.854-77.852.092-116.524zm-182.934 204.761c0-8.542 6.949-15.491 15.491-15.491h33.37c8.542 0 15.491 6.949 15.491 15.491v28.687h-64.353v-28.687zm88.692 63.029h-113.03v-19.339h113.03z"/><path d="m256.865 192.432c-27.103 0-49.152 22.05-49.152 49.152s22.05 49.152 49.152 49.152 49.152-22.049 49.152-49.152-22.049-49.152-49.152-49.152zm0 83.304c-18.832 0-34.152-15.321-34.152-34.152 0-18.832 15.32-34.152 34.152-34.152s34.152 15.321 34.152 34.152c.001 18.832-15.32 34.152-34.152 34.152z"/><path d="m335.754 272.185c4.732-.326 9.521-.8 14.231-1.409 6.521-.844 12.019-5.4 14.002-11.607 0 0 .001-.001.001-.001 3.728-11.668 3.728-23.5-.001-35.169-1.983-6.207-7.48-10.763-14.003-11.607-4.71-.609-9.498-1.083-14.23-1.409-.748-.052-1.404-.547-1.713-1.293l-.05-.121c-.311-.748-.197-1.564.294-2.129 3.119-3.579 6.169-7.3 9.066-11.059 4.017-5.209 4.682-12.318 1.694-18.11-5.614-10.886-13.98-19.252-24.867-24.867-5.791-2.987-12.899-2.323-18.11 1.694-3.763 2.901-7.484 5.951-11.06 9.066-.564.491-1.379.605-2.128.294-.004-.002-.118-.049-.121-.051-.746-.308-1.241-.964-1.293-1.712-.325-4.721-.8-9.509-1.409-14.23-.844-6.524-5.401-12.021-11.609-14.004-11.666-3.728-23.499-3.728-35.167 0-6.208 1.983-10.765 7.48-11.607 14.003-.609 4.705-1.084 9.493-1.41 14.232-.052.748-.547 1.403-1.293 1.711-.003.001-.118.049-.122.051-.746.31-1.563.198-2.128-.295-3.583-3.121-7.305-6.172-11.06-9.066-5.209-4.016-12.318-4.682-18.109-1.694-10.886 5.614-19.253 13.981-24.868 24.867-2.986 5.791-2.321 12.899 1.694 18.11 2.898 3.759 5.948 7.479 9.065 11.059.492.565.605 1.38.317 2.076l-.072.174c-.309.746-.964 1.242-1.712 1.293-4.732.326-9.521.8-14.23 1.409-6.524.844-12.021 5.401-14.004 11.608-3.728 11.667-3.728 23.5 0 35.167 1.982 6.208 7.479 10.765 14.004 11.609 4.71.609 9.498 1.083 14.23 1.409.748.052 1.403.547 1.712 1.293.001.003.049.118.05.121.311.748.197 1.564-.295 2.129-3.117 3.579-6.167 7.299-9.066 11.06-4.015 5.21-4.68 12.318-1.693 18.109 5.615 10.886 13.982 19.253 24.867 24.867 5.793 2.987 12.899 2.323 18.109-1.693 3.756-2.895 7.478-5.945 11.06-9.066.565-.492 1.381-.606 2.131-.294l.12.05c.746.308 1.241.964 1.293 1.712.326 4.738.801 9.526 1.409 14.23.844 6.523 5.4 12.02 11.608 14.004 5.834 1.864 11.709 2.796 17.584 2.796s11.75-.932 17.583-2.796c6.209-1.983 10.766-7.48 11.609-14.004.609-4.721 1.084-9.508 1.409-14.23.052-.748.547-1.403 1.293-1.711.012-.005.109-.046.121-.05.746-.31 1.563-.198 2.128.295 3.575 3.115 7.297 6.165 11.06 9.066 5.209 4.016 12.317 4.681 18.109 1.694 10.888-5.615 19.254-13.982 24.868-24.867 2.987-5.792 2.322-12.901-1.693-18.109-2.898-3.76-5.948-7.481-9.066-11.06-.492-.565-.605-1.381-.307-2.101l.062-.149c.309-.748.965-1.243 1.713-1.295zm-15.576-4.433c-.013.031-.029.069-.042.101-2.508 6.046-1.42 12.84 2.841 17.729 2.922 3.354 5.78 6.841 8.496 10.364.478.62.572 1.434.241 2.076-4.215 8.173-10.237 14.195-18.412 18.411-.639.33-1.455.236-2.075-.242-3.526-2.719-7.014-5.578-10.364-8.496-4.889-4.26-11.682-5.349-17.728-2.841l-.102.042c-6.05 2.499-10.086 8.072-10.531 14.545-.305 4.425-.749 8.912-1.321 13.337-.1.776-.609 1.419-1.297 1.639-8.762 2.799-17.279 2.799-26.037 0-.688-.22-1.197-.863-1.298-1.64-.57-4.409-1.015-8.896-1.32-13.336-.445-6.473-4.481-12.047-10.531-14.546-.011-.004-.091-.037-.101-.041-2.154-.894-4.401-1.331-6.625-1.331-4.019 0-7.956 1.428-11.104 4.17-3.357 2.925-6.845 5.784-10.364 8.497-.62.478-1.434.573-2.076.242-8.173-4.215-14.195-10.238-18.411-18.411-.331-.641-.235-1.457.241-2.076 2.717-3.524 5.576-7.011 8.497-10.365 4.26-4.889 5.348-11.683 2.84-17.729l-.042-.101c-2.499-6.05-8.071-10.085-14.544-10.531-4.436-.306-8.923-.75-13.338-1.321-.776-.1-1.419-.609-1.639-1.297-2.799-8.76-2.799-17.278 0-26.039.22-.687.862-1.196 1.639-1.296 4.415-.571 8.902-1.015 13.338-1.321 6.473-.446 12.045-4.481 14.518-10.468l.067-.163c2.51-6.046 1.422-12.84-2.839-17.73-2.921-3.354-5.78-6.842-8.496-10.364-.478-.62-.573-1.436-.242-2.077 4.216-8.174 10.238-14.196 18.412-18.412.642-.332 1.456-.235 2.076.242 3.519 2.713 7.006 5.571 10.364 8.497 4.888 4.258 11.682 5.347 17.729 2.839l.101-.041c6.05-2.499 10.086-8.072 10.531-14.545.306-4.44.75-8.927 1.321-13.337.1-.776.609-1.419 1.296-1.639 8.762-2.799 17.278-2.799 26.038 0 .688.22 1.197.863 1.297 1.638.572 4.426 1.017 8.913 1.321 13.338.445 6.473 4.481 12.047 10.457 14.514l.174.073c6.048 2.509 12.841 1.42 17.729-2.84 3.351-2.919 6.838-5.777 10.364-8.497.62-.478 1.434-.573 2.076-.242 8.174 4.216 14.196 10.238 18.411 18.411.331.641.236 1.456-.242 2.077-2.715 3.523-5.573 7.01-8.496 10.364-4.259 4.889-5.348 11.683-2.836 17.736.013.031.025.063.038.094 2.499 6.05 8.072 10.085 14.545 10.531 4.436.305 8.923.75 13.337 1.321.776.1 1.42.61 1.64 1.297 2.799 8.76 2.799 17.277.001 26.037-.221.688-.864 1.198-1.64 1.298-4.415.571-8.902 1.015-13.338 1.321-6.473.449-12.046 4.484-14.545 10.534z"/><path d="m228.309 58.56c.943 13.764 12.49 24.546 26.286 24.546h2.811c13.796 0 25.343-10.782 26.286-24.546l2.086-30.409c.498-7.257-2.064-14.469-7.028-19.786-4.966-5.316-11.985-8.365-19.26-8.365h-6.98c-7.274 0-14.294 3.049-19.259 8.366-4.964 5.317-7.526 12.528-7.028 19.786zm15.906-39.957c2.17-2.323 5.115-3.603 8.295-3.603h6.98c3.18 0 6.125 1.28 8.295 3.603 2.17 2.324 3.245 5.35 3.027 8.522l-2.086 30.409c-.406 5.928-5.379 10.572-11.321 10.572h-2.811c-5.942 0-10.915-4.644-11.321-10.572l-2.086-30.409c-.217-3.171.858-6.198 3.028-8.522z"/><path d="m399.247 114.739c5.108 5.108 11.868 7.689 18.645 7.689 6.166 0 12.345-2.139 17.3-6.458l22.978-20.028c5.483-4.78 8.771-11.691 9.021-18.961s-2.559-14.389-7.701-19.533l-4.938-4.937c-5.145-5.144-12.284-7.951-19.533-7.702-7.27.249-14.181 3.537-18.96 9.021l-20.028 22.978c-9.064 10.4-8.523 26.188 1.231 35.943zm8.091-28.075 20.026-22.977c2.09-2.397 4.989-3.776 8.167-3.885 3.194-.109 6.166 1.07 8.413 3.317l4.937 4.937c2.248 2.248 3.426 5.236 3.317 8.413-.108 3.177-1.488 6.078-3.885 8.167l-22.978 20.027c-4.48 3.904-11.28 3.671-15.481-.53l-1.986-1.987c-4.202-4.202-4.434-11.002-.53-15.482z"/><path d="m503.634 233.251c-5.316-4.965-12.528-7.525-19.786-7.028l-30.408 2.086c-13.765.944-24.546 12.49-24.546 26.287v2.81c0 13.796 10.781 25.343 24.545 26.287l30.409 2.086c.596.041 1.191.061 1.786.061 6.643 0 13.12-2.532 18-7.089 5.316-4.965 8.366-11.984 8.366-19.259v-6.981c0-7.276-3.05-14.296-8.366-19.26zm-6.634 26.24c0 3.179-1.279 6.125-3.604 8.295-2.324 2.17-5.355 3.244-8.521 3.027l-30.41-2.086c-5.928-.406-10.571-5.38-10.571-11.322v-2.81c0-5.942 4.644-10.916 10.572-11.322l30.409-2.086c.269-.019.536-.028.803-.028 2.876 0 5.592 1.069 7.719 3.055 2.324 2.17 3.604 5.115 3.604 8.295v6.982z"/><path d="m83.106 257.405v-2.81c0-13.796-10.781-25.343-24.545-26.287l-30.409-2.086c-7.249-.497-14.47 2.063-19.786 7.028-5.316 4.965-8.366 11.985-8.366 19.259v6.981c0 7.274 3.05 14.294 8.366 19.259 4.881 4.557 11.356 7.089 18 7.089.594 0 1.19-.02 1.786-.061l30.408-2.086c13.765-.943 24.546-12.49 24.546-26.286zm-55.981 13.408c-3.16.219-6.197-.857-8.521-3.027s-3.604-5.115-3.604-8.295v-6.981c0-3.179 1.279-6.125 3.604-8.295 2.127-1.986 4.842-3.055 7.719-3.055.267 0 .534.009.803.028l30.41 2.086c5.928.406 10.571 5.38 10.571 11.322v2.81c0 5.942-4.644 10.916-10.572 11.322z"/><path d="m53.831 95.943 22.978 20.027c4.955 4.319 11.133 6.458 17.3 6.458 6.775 0 13.537-2.582 18.645-7.689l1.986-1.987c9.755-9.755 10.296-25.543 1.23-35.944l-20.028-22.977c-4.779-5.484-11.69-8.771-18.96-9.021-7.249-.252-14.389 2.557-19.534 7.702l-4.937 4.937c-5.143 5.144-7.95 12.263-7.701 19.533s3.538 14.181 9.021 18.961zm9.288-27.888 4.936-4.936c2.153-2.153 4.984-3.324 8.011-3.324.134 0 .269.002.403.007 3.178.109 6.077 1.489 8.166 3.885l20.027 22.977c3.904 4.479 3.672 11.28-.53 15.481l-1.986 1.986c-4.201 4.202-11.002 4.434-15.481.53l-22.978-20.025c-2.396-2.089-3.776-4.99-3.885-8.167-.109-3.178 1.069-6.166 3.317-8.414z"/><path d="m112.753 382.261c-9.758-9.756-25.544-10.297-35.944-1.232l-22.978 20.028c-5.483 4.78-8.771 11.691-9.021 18.961s2.559 14.389 7.701 19.533l4.938 4.937c4.934 4.933 11.684 7.717 18.641 7.717.298 0 .595-.005.893-.015 7.27-.249 14.181-3.537 18.96-9.021l20.028-22.978c9.064-10.4 8.523-26.188-1.231-35.943zm-8.091 28.075-20.026 22.977c-2.09 2.397-4.989 3.776-8.167 3.885-3.19.11-6.166-1.07-8.413-3.317l-4.937-4.937c-2.248-2.248-3.426-5.236-3.317-8.413.108-3.177 1.488-6.078 3.885-8.167l22.978-20.027c2.135-1.86 4.796-2.781 7.452-2.781 2.918 0 5.83 1.112 8.029 3.312l1.986 1.987c4.202 4.201 4.434 11.001.53 15.481z"/><path d="m458.169 401.057-22.978-20.027c-10.399-9.065-26.188-8.524-35.944 1.232l-1.986 1.987c-9.755 9.755-10.296 25.543-1.23 35.944l20.027 22.977c4.779 5.484 11.69 8.771 18.96 9.021.298.01.595.015.893.015 6.956 0 13.708-2.784 18.642-7.717l4.937-4.937c5.143-5.144 7.95-12.263 7.701-19.533s-3.539-14.182-9.022-18.962zm-9.288 27.888-4.936 4.936c-2.248 2.248-5.22 3.427-8.414 3.317-3.178-.109-6.077-1.489-8.166-3.885l-20.027-22.977c-3.904-4.479-3.672-11.28.53-15.481l1.986-1.986c2.199-2.2 5.111-3.312 8.029-3.312 2.656 0 5.317.921 7.452 2.781l22.978 20.027c2.396 2.089 3.776 4.99 3.885 8.167s-1.069 6.165-3.317 8.413z"/></g></g></svg>