<svg id="Capa_1" enable-background="new 0 0 512 512" height="512" viewBox="0 0 512 512" width="512" xmlns="http://www.w3.org/2000/svg"><g><g><path d="m391.224 499.425s-2.854-40.087-22.331-83.205c-6.268-13.876-18.73-23.971-33.557-27.434-28.828-6.734-81.776-17.032-135.974-17.032s-107.146 10.298-135.974 17.032c-14.827 3.463-27.289 13.558-33.557 27.434-19.477 43.117-22.331 83.205-22.331 83.205z" fill="#c3bec6"/><path d="m63.398 388.779c10.519-2.455 24.263-5.386 40.097-8.125-9.951 4.037-18.268 14.698-22.518 29.193-13.602 46.416-15.59 89.576-15.59 89.576h-57.879s2.85-40.086 22.325-83.206c6.269-13.877 18.735-23.969 33.565-27.438z" fill="#b4acb7"/><path d="m281.701 101.734h68.811v206.333h-68.811z" fill="#c3bec6" transform="matrix(.707 .707 -.707 .707 237.472 -163.507)"/><path d="m289.482 86.288h23.74v202.993h-23.74z" fill="#b4acb7" transform="matrix(.707 .707 -.707 .707 221.048 -158.087)"/><path d="m125.753 311.349c0-40.653 32.956-73.609 73.609-73.609s73.609 32.956 73.609 73.609v66.036h-147.218z" fill="#f9f6f9"/><path d="m210.328 238.56c-35.451 5.285-62.645 35.857-62.645 72.789v66.043h-21.93v-66.043c0-40.654 32.956-73.61 73.61-73.61 3.723 0 7.395.274 10.965.821z" fill="#e2dfe2"/><circle cx="199.362" cy="311.349" fill="#655e66" r="23.718"/><path d="m470.901 150.296c-19.837 12.494-41.858 21.325-53.975 25.715-6.005 2.175-12.658 1.502-18.15-1.758-18.433-10.944-29.756-22.267-29.756-22.267s-11.323-11.323-22.267-29.756c-3.261-5.492-3.934-12.145-1.758-18.15 4.39-12.117 13.221-34.138 25.715-53.975 1.684-2.674 3.949-4.939 6.623-6.623 19.837-12.494 41.858-21.325 53.975-25.715 6.005-2.175 12.659-1.502 18.15 1.758 18.433 10.944 29.756 22.267 29.756 22.267s11.323 11.323 22.267 29.756c3.261 5.492 3.934 12.145 1.758 18.15-4.39 12.117-13.221 34.138-25.715 53.975-1.684 2.674-3.949 4.939-6.623 6.623z" fill="#da4a54"/><path d="m459.556 25.994c-1.532.68-3.124 1.552-4.747 2.607-11.482 7.445-32.621 21.686-53.08 38.301-2.759 2.242-5.356 4.838-7.597 7.597-16.615 20.459-30.866 41.598-38.311 53.08-1.055 1.623-1.927 3.205-2.607 4.737-2.11-3.063-4.291-6.431-6.461-10.082-3.266-5.498-3.935-12.152-1.755-18.157 4.382-12.111 13.217-34.132 25.713-53.973 1.684-2.678 3.946-4.94 6.624-6.624 19.83-12.497 41.851-21.321 53.973-25.713 6.005-2.181 12.659-1.501 18.146 1.755 3.661 2.171 7.039 4.362 10.102 6.472z" fill="#d82e3d"/></g><g><path d="m199.359 280.13c-17.214 0-31.218 14.004-31.218 31.218s14.004 31.218 31.218 31.218 31.218-14.004 31.218-31.218c0-17.213-14.004-31.218-31.218-31.218zm0 47.436c-8.943 0-16.218-7.275-16.218-16.218s7.275-16.218 16.218-16.218 16.218 7.275 16.218 16.218-7.275 16.218-16.218 16.218z"/><path d="m51.939 58.931c1.256 0 2.529-.316 3.699-.981 43.583-24.774 93.281-37.868 143.721-37.868 41.434 0 81.457 8.518 118.957 25.318 3.782 1.694 8.217.002 9.911-3.778 1.693-3.78.002-8.217-3.778-9.911-39.442-17.67-81.528-26.629-125.09-26.629-53.034 0-105.296 13.772-151.133 39.828-3.601 2.047-4.861 6.625-2.814 10.226 1.382 2.431 3.917 3.795 6.527 3.795z"/><path d="m39.962 114.822c1.616 0 3.245-.52 4.616-1.593 44.553-34.857 98.075-53.282 154.781-53.282 27.953 0 55.405 4.554 81.593 13.534 3.919 1.343 8.184-.743 9.527-4.662 1.344-3.918-.743-8.183-4.661-9.527-27.757-9.519-56.846-14.345-86.459-14.345-60.088 0-116.807 19.526-164.024 56.468-3.262 2.552-3.838 7.266-1.285 10.528 1.479 1.891 3.684 2.879 5.912 2.879z"/><path d="m199.359 132.893c-38.985 0-76.022 12.346-107.105 35.702-3.311 2.488-3.979 7.19-1.491 10.501 1.474 1.961 3.724 2.995 6.002 2.995 1.568 0 3.149-.49 4.499-1.505 28.465-21.389 62.384-32.694 98.094-32.694 22.07 0 43.475 4.321 63.622 12.842 3.818 1.615 8.216-.171 9.829-3.986s-.171-8.215-3.986-9.829c-22.004-9.306-45.376-14.026-69.464-14.026z"/><path d="m507.924 67.727c-11.291-19.033-22.929-30.749-23.417-31.236-.489-.489-12.203-12.114-31.223-23.415-7.481-4.443-16.425-5.299-24.533-2.353-11.84 4.289-34.784 13.422-55.419 26.413-3.603 2.267-6.706 5.37-8.973 8.972-12.991 20.636-22.125 43.581-26.412 55.414-2.557 7.038-2.247 14.699.778 21.491l-111.986 111.994c-8.558-3.079-17.775-4.767-27.38-4.767-44.723 0-81.108 36.385-81.108 81.108v59.351c-13.828 2.049-27.844 4.561-41.758 7.492-4.053.854-6.647 4.831-5.793 8.885.744 3.532 3.86 5.956 7.331 5.956.512 0 1.032-.053 1.553-.162 15.214-3.204 30.547-5.895 45.606-8.014.186.014.371.028.56.028h147.216c.19 0 .376-.015.562-.028 24.989 3.523 46.447 8.037 60.149 11.237 12.521 2.927 23.128 11.602 28.372 23.204 5.078 11.24 8.995 22.309 12.009 32.475h-349.398c3.014-10.167 6.93-21.236 12.006-32.477 3.489-7.731 9.235-14.12 16.616-18.476 3.567-2.105 4.752-6.704 2.647-10.271-2.105-3.568-6.704-4.752-10.271-2.647-10.059 5.936-17.896 14.659-22.663 25.222-19.793 43.835-22.855 84.07-22.976 85.762-.148 2.077.574 4.121 1.992 5.645 1.419 1.524 3.407 2.389 5.489 2.389h383.715c2.082 0 4.069-.865 5.488-2.388 1.418-1.523 2.141-3.567 1.993-5.644-.12-1.691-3.173-41.929-22.976-85.766-7.154-15.826-21.594-27.651-38.628-31.634-13.11-3.062-33.166-7.301-56.624-10.783v-59.355c0-3.664-.268-7.264-.741-10.801l118.271-118.281c3.723 1.658 7.708 2.511 11.715 2.511 3.289 0 6.591-.567 9.769-1.714 11.846-4.294 34.798-13.438 55.396-26.416 3.615-2.266 6.725-5.375 8.978-8.971 2.051-3.249 4.109-6.735 6.292-10.657 2.014-3.619.713-8.186-2.907-10.2-3.619-2.014-8.186-.713-10.201 2.906-2.046 3.677-3.966 6.93-5.881 9.963-1.087 1.733-2.516 3.163-4.264 4.258-19.425 12.238-41.248 20.925-52.518 25.011-3.885 1.402-8.176.982-11.777-1.156-17.312-10.271-28.178-21.019-28.277-21.117-.107-.108-10.848-10.976-21.13-28.281-2.138-3.601-2.557-7.887-1.147-11.766 4.083-11.274 12.762-33.09 25.006-52.539 1.078-1.713 2.554-3.189 4.268-4.268 19.449-12.244 41.265-20.922 52.545-25.008 3.874-1.407 8.161-.988 11.758 1.149 17.307 10.283 28.175 21.024 28.274 21.122.107.108 10.855 10.974 21.128 28.289 2.136 3.597 2.557 7.889 1.158 11.763-1.979 5.458-4.141 10.951-6.423 16.325-1.619 3.813.159 8.216 3.972 9.835 3.814 1.62 8.216-.159 9.835-3.972 2.387-5.62 4.647-11.365 6.721-17.085 2.932-8.117 2.069-17.057-2.364-24.522zm-492.019 424.192c.811-5.88 2.264-14.648 4.757-25.147h357.397c2.493 10.5 3.945 19.267 4.754 25.147zm249.562-122.035h-132.216v-58.536c0-36.452 29.656-66.108 66.108-66.108s66.108 29.656 66.108 66.108zm119.348-195.648-109.269 109.278c-6.411-17.492-18.687-32.176-34.43-41.67l105.649-105.658c8.888 12.981 16.552 20.705 16.945 21.098.395.395 8.12 8.067 21.105 16.952z"/></g></g></svg>