<svg id="Capa_1" enable-background="new 0 0 512 512" height="512" viewBox="0 0 512 512" width="512" xmlns="http://www.w3.org/2000/svg"><g><g><path d="m413.662 175.371c4.118-9.124 36.419-11.655 36.711-21.074.302-9.764-31.92-14.322-35.321-23.318-3.4-8.996 17.75-33.728 11.065-40.851-6.449-6.871-32.348 12.597-41.471 8.479-9.124-4.118-11.655-36.419-21.074-36.711-9.764-.302-14.322 31.92-23.318 35.321-8.996 3.4-33.728-17.75-40.851-11.065-6.871 6.449 12.597 32.348 8.479 41.471-4.118 9.124-36.419 11.655-36.711 21.074-.302 9.764 31.92 14.322 35.321 23.318 3.4 8.996-17.75 33.728-11.065 40.851 6.449 6.871 32.348-12.597 41.471-8.479 9.124 4.118 11.655 36.419 21.074 36.711 9.764.302 14.322-31.92 23.318-35.321 8.996-3.4 33.728 17.75 40.851 11.065 6.871-6.449-12.597-32.347-8.479-41.471z" fill="#ffef4a"/><path d="m488.93 312.78c-50.57-22.61-105.08-29.26-105.08-29.26-6.65-41.24-31.93-87.79-31.93-87.79-63.61-10.61-123.78-4.27-163.8 3.16-30.27 5.6-49.02 11.84-49.02 11.84-27.94 39.9-46.56 99.39-46.56 99.39-21.28 6.65-53.21 21.28-53.21 21.28 0 6.76.19 13.28.53 19.51l26.08-3.88 3.99 29.93-26.89 6.43c3.12 22.08 7.11 35.8 7.11 35.8h31.75c0-27.95 19.15-51.42 45.05-58.01 4.74-1.2 9.7-1.84 14.81-1.84 33.06 0 59.85 26.79 59.85 59.85h109.09c0-33.06 26.8-59.85 59.86-59.85s59.85 26.79 59.85 59.85h31.44c9.63-12.65 16.03-26.29 20.24-39.44-10.22-1.39-18.09-10.15-18.09-20.75 0-11.57 9.38-20.95 20.95-20.95 1.57 0 3.1.17 4.57.5.85-15.43-.59-25.77-.59-25.77zm-130.9 17.43c-33.51 4.7-61.15 27.94-72.18 58.98h-59.39c-12.38-34.84-45.67-59.85-84.7-59.85-3.68 0-7.3.23-10.87.66-4.8.57-9.49 1.54-14.03 2.85l4.31-13.77c.16-.49 15.07-47.5 36.91-82.65 3.01-.82 6.68-1.77 10.94-2.8 23.38-5.64 64.67-13.52 112.62-13.52 17.26 0 34.16 1.02 50.43 3.04 7.23 15.37 18.39 41.73 22.16 65.15 0 0 4.42 36.03 3.8 41.91z" fill="#9dc6fb"/><path d="m188.12 198.89c-4.91 8.39-11.75 20.5-19.1 34.74-4.26 1.03-7.93 1.98-10.94 2.8-21.84 35.15-36.75 82.16-36.91 82.65l-4.31 13.77c4.54-1.31 9.23-2.28 14.03-2.85-2.52 11.02-3.97 21.57-3.94 31.18-25.9 6.59-45.05 30.06-45.05 58.01h-31.75s-3.99-13.72-7.11-35.8l26.89-6.43-3.99-29.93-26.08 3.88c-.34-6.23-.53-12.75-.53-19.51 0 0 31.93-14.63 53.21-21.28 0 0 18.62-59.49 46.56-99.39 0 0 18.75-6.24 49.02-11.84z" fill="#80b4fb"/><path d="m461.852 419.193h-411.703c-23.554 0-42.649 19.094-42.649 42.648 0 23.554 19.094 42.648 42.649 42.648h411.703c23.554 0 42.648-19.094 42.648-42.648 0-23.554-19.094-42.648-42.648-42.648z" fill="#c3bec6"/><g><path d="m348.42 163.571c-5.952-5.952-5.952-15.602 0-21.553l38.133-38.133 21.553 21.553-38.133 38.133c-5.952 5.951-15.602 5.951-21.553 0z" fill="#655e66"/><path d="m374.05 137.94c-13.506-13.506-13.506-35.404 0-48.91l71.411-71.411 48.91 48.91-71.411 71.411c-13.507 13.506-35.404 13.506-48.91 0z" fill="#da4a54"/><path d="m374.046 137.938c-13.506-13.506-13.506-35.398 0-48.904l71.415-71.415 15.804 15.804-71.415 71.415c-13.505 13.506-20.577 28.327-15.804 33.1z" fill="#d82e3d"/><circle cx="469.916" cy="42.074" fill="#655e66" r="34.584"/></g><path d="m148.647 217.749c11.089.432 27.141 32.564 36.94 28.941 10.157-3.756 1.422-38.76 9.248-46s42.045 4.19 46.579-5.644c4.374-9.487-26.414-27.989-25.982-39.077.432-11.089 32.564-27.141 28.941-36.94-3.756-10.157-38.76-1.422-46-9.248s4.19-42.045-5.644-46.579c-9.487-4.374-27.989 26.414-39.077 25.982-11.089-.432-27.141-32.564-36.94-28.941-10.157 3.756-1.422 38.76-9.248 46s-42.045-4.19-46.579 5.644c-4.374 9.487 26.414 27.989 25.982 39.077-.432 11.089-32.564 27.141-28.941 36.94 3.756 10.157 38.76 1.422 46 9.248s-4.19 42.045 5.644 46.579c9.487 4.374 27.988-26.414 39.077-25.982z" fill="#ffef4a"/><g><path d="m163.581 163.571c-5.952 5.952-15.602 5.952-21.553 0l-38.133-38.133 21.553-21.553 38.133 38.133c5.951 5.951 5.951 15.601 0 21.553z" fill="#655e66"/><path d="m137.95 137.94c-13.506 13.506-35.404 13.506-48.91 0l-71.411-71.411 48.91-48.91 71.411 71.411c13.506 13.507 13.506 35.404 0 48.91z" fill="#da4a54"/><path d="m137.948 137.944c-13.506 13.506-35.398 13.506-48.904 0l-71.414-71.415 15.804-15.804 71.415 71.415c13.505 13.506 28.326 20.577 33.099 15.804z" fill="#d82e3d"/><circle cx="42.084" cy="42.074" fill="#655e66" r="34.584"/></g><g fill="#655e66"><circle cx="50.149" cy="461.842" r="19.472"/><circle cx="461.851" cy="461.842" r="19.472"/><circle cx="379.511" cy="461.842" r="19.472"/><circle cx="297.17" cy="461.842" r="19.472"/><circle cx="214.83" cy="461.842" r="19.472"/><circle cx="132.489" cy="461.842" r="19.472"/></g></g><g><path d="m474.886 413.407c5.908-9.562 10.726-20.061 14.346-31.37.677-2.112.384-4.414-.8-6.289-1.183-1.875-3.135-3.131-5.332-3.429-6.613-.899-11.601-6.625-11.601-13.318 0-7.416 6.034-13.45 13.45-13.45 1.003 0 1.987.107 2.926.318 2.155.484 4.408-.005 6.167-1.335s2.844-3.367 2.965-5.57c.881-15.973-.587-26.766-.649-27.218-.357-2.56-2.008-4.757-4.367-5.812-42.206-18.871-86.419-26.764-101.716-29.084-3.175-16.242-8.756-32.791-14.366-46.905.555-1.314 1.102-2.635 1.636-3.937 1.732-4.225 4.562-11.127 6.438-13.092 2.709.232 9.401 3.535 13.499 5.557 10.918 5.389 22.209 10.961 29.791 3.836 7.382-6.931 2.657-18.289-1.912-29.272-1.74-4.183-4.917-11.819-4.797-14.547 1.967-1.894 9.794-4.562 14.082-6.024 11.263-3.839 22.908-7.809 23.22-17.934.275-8.935-8.977-13.597-12.459-15.352-3.699-1.863-8.208-.376-10.072 3.323s-.377 8.209 3.322 10.073c1.026.517 1.829.969 2.455 1.354-2.991 1.504-7.975 3.203-11.306 4.339-10.121 3.45-19.681 6.708-22.981 14.016-3.303 7.31.578 16.639 4.687 26.515 1.355 3.258 3.386 8.137 4.231 11.376-3.294-1.042-8.297-3.511-11.622-5.152-9.376-4.627-18.233-8.998-25.473-6.26-4.81 1.81-8.076 6.437-10.887 12.16-4.994-10.882-8.848-18.03-9.25-18.771-1.103-2.03-3.078-3.438-5.356-3.818-13.263-2.213-26.884-3.784-40.806-4.714 2.018-5.379 2.761-10.006 1.157-14.249-2.74-7.255-11.879-11.007-21.554-14.979-3.429-1.408-8.587-3.526-11.548-5.307 2.987-1.507 7.984-3.211 11.322-4.349 10.125-3.453 19.688-6.715 22.988-14.027 3.303-7.31-.578-16.639-4.687-26.515-1.354-3.257-3.384-8.133-4.23-11.371 3.296 1.043 8.301 3.514 11.628 5.156 9.374 4.628 18.229 8.998 25.475 6.258 7.255-2.741 11.007-11.879 14.979-21.553 1.447-3.524 3.644-8.874 5.454-11.789 2.481 2.408 6.386 2.847 9.38.852 3.446-2.298 4.377-6.955 2.079-10.401-3.716-5.572-8.027-6.85-10.991-6.941-.141-.004-.278-.007-.416-.007-10.105 0-14.821 11.481-19.382 22.589-1.735 4.227-4.569 11.13-6.448 13.099-2.711-.236-9.396-3.536-13.488-5.557-10.916-5.389-22.205-10.962-29.8-3.845-7.382 6.931-2.657 18.289 1.912 29.272 1.741 4.184 4.919 11.823 4.797 14.55-1.963 1.897-9.799 4.569-14.091 6.033-11.259 3.839-22.899 7.81-23.211 17.932-.319 10.394 11.322 15.174 22.581 19.797 4.228 1.735 11.13 4.569 13.1 6.448-.156 1.73-1.577 5.123-2.968 8.131-16.318-.512-33.007-.168-49.984 1.035-2.874-4.649-7.456-9.29-12.17-14.062-3.734-3.78-10.617-10.747-11.277-13.558.877-2.751 8.281-9.163 12.297-12.641 10.209-8.841 19.853-17.192 16.155-27.193-3.804-10.288-17.474-10.349-30.694-10.407-5.021-.022-14.214-.063-16.789-1.375-1.108-2.669-.434-11.838-.066-16.845.97-13.184 1.972-26.818-7.989-31.41-9.682-4.463-18.757 4.5-28.366 13.992-1.651 1.631-3.358 3.317-4.982 4.842-3.02 2.835-3.17 7.581-.336 10.601 2.835 3.02 7.581 3.17 10.602.336 1.764-1.656 3.541-3.411 5.258-5.108 3.171-3.133 8.082-7.984 11.147-9.952.577 3.764.028 11.233-.293 15.599-.836 11.378-1.627 22.125 3.969 28.174 5.596 6.048 16.371 6.096 27.78 6.146 4.378.02 11.867.052 15.575.92-2.201 2.903-7.419 7.422-10.789 10.34-8.826 7.644-17.163 14.863-17.495 23.396-.333 8.533 7.418 16.378 15.624 24.685 3.133 3.171 7.984 8.082 9.953 11.147-3.762.578-11.232.029-15.599-.293-11.379-.837-22.125-1.627-28.173 3.969-6.049 5.595-6.096 16.371-6.147 27.779-.02 4.378-.052 11.867-.92 15.575-2.903-2.201-7.422-7.419-10.34-10.789-7.644-8.826-14.863-17.163-23.396-17.496-8.542-.338-16.379 7.418-24.685 15.624-3.171 3.133-8.083 7.984-11.147 9.953-.577-3.764-.028-11.233.293-15.599.836-11.378 1.627-22.125-3.969-28.173-5.595-6.049-16.371-6.096-27.779-6.146-4.378-.02-11.867-.052-15.575-.921 2.201-2.903 7.419-7.422 10.789-10.339 2.302-1.993 4.682-4.054 6.87-6.112 3.017-2.838 3.163-7.584.325-10.602-2.839-3.017-7.584-3.163-10.602-.325-1.963 1.847-4.225 3.805-6.412 5.699-10.209 8.841-19.853 17.192-16.155 27.192 3.804 10.288 17.474 10.349 30.694 10.407 5.021.022 14.214.063 16.789 1.375 1.108 2.669.434 11.838.066 16.845-.97 13.184-1.972 26.818 7.989 31.41.46.212.918.384 1.375.537-10.963 23.375-18.421 44.697-21.213 53.084-21.2 7.079-49.138 19.848-50.385 20.419-2.667 1.222-4.376 3.885-4.376 6.818 0 6.637.182 13.339.541 19.918.115 2.107 1.112 4.069 2.748 5.403s3.758 1.918 5.845 1.607l18.548-2.76 2.089 15.671-20.305 4.855c-3.762.9-6.223 4.513-5.682 8.344 1.714 12.132 3.677 21.769 5.142 28.146-23.18 4.412-40.76 24.814-40.76 49.255 0 13.398 5.216 25.992 14.687 35.463s22.065 14.687 35.463 14.687h411.7c27.653 0 50.15-22.497 50.15-50.15 0-13.399-5.216-25.993-14.69-35.467-6.32-6.311-14.026-10.719-22.424-12.966zm-291.073-158.876c1.426 0 2.882-.255 4.375-.807 7.087-2.621 9.32-9.924 10.043-18.537 15.319-2.738 30.605-4.736 45.751-5.992v152.495h-12.384c-15.07-36.011-50.52-59.85-89.839-59.85-4.673 0-9.319.332-13.905.99l.444-1.42c.004-.013.028-.087.032-.099 1.509-4.702 15.006-45.917 34.583-78.411.725-.19 1.479-.385 2.246-.582 6.054 6.727 12.034 12.213 18.654 12.213zm97.827-26.921c15.458 0 30.705.839 45.388 2.495 6.579 14.406 16.374 38.279 19.776 59.25 1.525 12.455 3.034 26.734 3.582 34.584-31.33 6.595-57.297 28.082-69.678 57.751h-21.726v-153.499c7.603-.384 15.16-.581 22.658-.581zm-209.966 156.645c3.741-.895 6.198-4.473 5.69-8.286l-3.99-29.93c-.265-1.991-1.318-3.793-2.923-5.001-1.604-1.208-3.627-1.722-5.614-1.427l-17.838 2.654c-.062-2.007-.107-4.019-.135-6.029 9.419-4.189 31.94-13.966 47.914-18.958 2.347-.733 4.185-2.571 4.92-4.918.114-.362 11.437-36.228 29.247-70.154 1.935-1.79 3.882-3.712 5.852-5.657 3.78-3.734 10.748-10.617 13.559-11.278 1.333.425 3.528 2.387 5.83 4.75-.998.606-1.849 1.442-2.475 2.45-21.354 34.369-36.055 79.251-37.661 84.256-.005.017-.031.095-.036.113l-4.31 13.77c-.825 2.636-.134 5.512 1.797 7.486 1.932 1.974 4.792 2.727 7.446 1.958 7.367-2.133 15.043-3.214 22.814-3.214 34.775 0 65.973 22.047 77.633 54.861 1.063 2.991 3.893 4.989 7.067 4.989h59.39c3.174 0 6.004-1.998 7.067-4.989 10.331-29.074 35.681-49.79 66.155-54.064 3.409-.478 6.056-3.217 6.417-6.641.658-6.245-2.753-34.958-3.814-43.61-.012-.093-.024-.186-.04-.279-3.787-23.528-14.478-49.503-22.777-67.15-1.096-2.329-3.309-3.934-5.863-4.251-16.552-2.055-33.83-3.097-51.354-3.097-27.148 0-55.033 2.455-83.023 7.287.058-5.051.283-11.556 1.353-13.656 2.669-1.109 11.838-.434 16.845-.066 12.901.949 26.224 1.922 31.094-7.366 34.571-2.42 67.866-1.174 99.104 3.725 5.678 11.082 24.041 48.745 29.432 82.18.531 3.298 3.181 5.846 6.496 6.251.52.063 51.109 6.408 98.952 26.922.221 2.941.441 7.343.383 12.788-14.44 1.352-25.778 13.54-25.778 28.326 0 11.066 6.452 20.883 15.961 25.555-3.776 9.881-8.601 18.972-14.403 27.135h-20.563c-3.741-33.621-32.332-59.85-66.936-59.85-34.607 0-63.203 26.229-66.944 59.85h-94.92c-3.741-33.621-32.332-59.85-66.935-59.85-34.608 0-63.204 26.229-66.945 59.85h-18.855c-1.153-4.793-2.859-12.582-4.475-22.608zm121.89 27.435h-103.618c3.651-25.324 25.491-44.85 51.814-44.85 26.318 0 48.154 19.526 51.804 44.85zm268.286 85.3h-411.7c-9.391 0-18.219-3.656-24.856-10.293-6.638-6.638-10.294-15.465-10.294-24.857 0-19.382 15.768-35.15 35.15-35.15h317.05c4.143 0 7.5-3.358 7.5-7.5s-3.357-7.5-7.5-7.5h-48.454c3.651-25.324 25.49-44.85 51.814-44.85 26.319 0 48.155 19.526 51.805 44.85h-25.205c-4.143 0-7.5 3.358-7.5 7.5s3.357 7.5 7.5 7.5h64.689c9.383 0 18.212 3.657 24.857 10.293 6.639 6.638 10.294 15.465 10.294 24.857 0 19.382-15.769 35.15-35.15 35.15z"/><path d="m368.743 83.731c-10.486 10.487-14.258 25.175-11.339 38.695l-14.29 14.291c-8.864 8.865-8.864 23.29.001 32.156 4.431 4.431 10.253 6.646 16.078 6.646 5.823 0 11.65-2.216 16.089-6.646l14.265-14.265c2.911.628 5.906.962 8.954.962h.009c11.238 0 21.806-4.376 29.752-12.323l71.415-71.415-.002-.002c7.947-7.947 12.325-18.515 12.325-29.756s-4.378-21.81-12.326-29.758c-16.411-16.409-43.107-16.408-59.517 0-.002.002-.003.003-.005.005zm120.323-22.505c-10.559 10.56-27.741 10.56-38.302 0-3.356-3.356-5.642-7.383-6.865-11.652h52.046c-1.248 4.36-3.583 8.357-6.879 11.652zm-124.387 97.036c-3.025 3.021-7.94 3.022-10.958.005-3.017-3.017-3.017-7.927 0-10.944l10.065-10.065c1.443 2.106 3.088 4.114 4.957 5.983 1.858 1.859 3.865 3.514 5.985 4.972zm52.974-25.62c-5.113 5.113-11.912 7.929-19.145 7.929-.002 0-.004 0-.006 0-7.235-.001-14.037-2.82-19.152-7.936-10.559-10.559-10.559-27.739 0-38.297l48.662-48.662c.813 9.547 4.856 18.867 12.145 26.157 7.291 7.29 16.613 11.333 26.16 12.146zm52.262-117.639c6.937 0 13.872 2.64 19.152 7.92 3.295 3.295 5.63 7.292 6.879 11.651h-52.046c1.222-4.267 3.506-8.291 6.86-11.647l.005-.005c5.279-5.279 12.214-7.919 19.15-7.919z"/><path d="m12.327 71.833 71.41 71.41c7.95 7.951 18.519 12.329 29.758 12.329 3.052 0 6.051-.334 8.965-.963l14.267 14.267c4.433 4.433 10.255 6.649 16.078 6.649s11.646-2.217 16.079-6.649c8.86-8.861 8.862-23.289 0-32.166l-14.288-14.288c2.917-13.52-.856-28.208-11.342-38.695l-20.2-20.2c-2.929-2.929-7.678-2.929-10.606 0-2.929 2.929-2.929 7.678 0 10.606l20.2 20.2c10.56 10.56 10.56 27.743 0 38.303-5.118 5.117-11.919 7.936-19.152 7.936s-14.034-2.818-19.152-7.936l-48.66-48.658c9.547-.813 18.869-4.856 26.158-12.146 7.29-7.29 11.333-16.611 12.146-26.158l7.439 7.439c1.464 1.465 3.384 2.197 5.303 2.197s3.839-.732 5.303-2.197c2.929-2.929 2.929-7.677 0-10.606l-30.19-30.19c-.001-.001-.002-.001-.003-.002-16.408-16.408-43.106-16.406-59.514.001-16.408 16.408-16.409 43.106-.002 59.515.001 0 .002.002.003.002zm130.926 71.41c1.871-1.871 3.517-3.881 4.962-5.989l10.057 10.057c3.02 3.025 3.022 7.941.005 10.958s-7.926 3.018-10.944 0l-10.059-10.059c2.118-1.456 4.122-3.11 5.979-4.967zm-82.017-82.017c-3.356 3.356-7.383 5.641-11.651 6.864v-52.032c4.269 1.223 8.295 3.508 11.651 6.864 10.56 10.561 10.56 27.744 0 38.304zm-38.303-38.303c3.356-3.356 7.383-5.642 11.652-6.865v52.032c-4.269-1.223-8.295-3.508-11.652-6.864-10.56-10.56-10.56-27.743 0-38.303z"/><path d="m50.148 434.87c-14.873 0-26.972 12.1-26.972 26.972s12.1 26.972 26.972 26.972 26.972-12.1 26.972-26.972c.001-14.873-12.099-26.972-26.972-26.972zm0 38.944c-6.602 0-11.972-5.371-11.972-11.972 0-6.602 5.371-11.972 11.972-11.972s11.972 5.371 11.972 11.972c.001 6.601-5.37 11.972-11.972 11.972z"/><path d="m461.852 434.87c-14.873 0-26.973 12.1-26.973 26.972s12.1 26.972 26.973 26.972c14.872 0 26.972-12.1 26.972-26.972-.001-14.873-12.1-26.972-26.972-26.972zm0 38.944c-6.602 0-11.973-5.371-11.973-11.972 0-6.602 5.371-11.972 11.973-11.972s11.972 5.371 11.972 11.972c-.001 6.601-5.371 11.972-11.972 11.972z"/><path d="m379.511 434.87c-14.872 0-26.972 12.1-26.972 26.972s12.1 26.972 26.972 26.972c14.873 0 26.973-12.1 26.973-26.972-.001-14.873-12.1-26.972-26.973-26.972zm0 38.944c-6.602 0-11.972-5.371-11.972-11.972 0-6.602 5.37-11.972 11.972-11.972s11.973 5.371 11.973 11.972c-.001 6.601-5.372 11.972-11.973 11.972z"/><path d="m297.17 434.87c-14.872 0-26.972 12.1-26.972 26.972s12.1 26.972 26.972 26.972c14.873 0 26.973-12.1 26.973-26.972 0-14.873-12.1-26.972-26.973-26.972zm0 38.944c-6.602 0-11.972-5.371-11.972-11.972 0-6.602 5.37-11.972 11.972-11.972s11.973 5.371 11.973 11.972-5.372 11.972-11.973 11.972z"/><path d="m214.83 434.87c-14.873 0-26.972 12.1-26.972 26.972s12.1 26.972 26.972 26.972 26.972-12.1 26.972-26.972c0-14.873-12.1-26.972-26.972-26.972zm0 38.944c-6.602 0-11.972-5.371-11.972-11.972 0-6.602 5.371-11.972 11.972-11.972s11.972 5.371 11.972 11.972-5.371 11.972-11.972 11.972z"/><path d="m132.489 434.87c-14.873 0-26.972 12.1-26.972 26.972s12.1 26.972 26.972 26.972 26.972-12.1 26.972-26.972c0-14.873-12.099-26.972-26.972-26.972zm0 38.944c-6.602 0-11.972-5.371-11.972-11.972 0-6.602 5.371-11.972 11.972-11.972s11.972 5.371 11.972 11.972-5.37 11.972-11.972 11.972z"/></g></g></svg>