<svg id="Capa_1" enable-background="new 0 0 512 512" height="512" viewBox="0 0 512 512" width="512" xmlns="http://www.w3.org/2000/svg"><g><path d="m504.5 368.734h-12.894l-15.263-15.262c-2.928-2.929-7.677-2.929-10.606 0s-2.929 7.678 0 10.606l15.263 15.261v12.896c0 4.142 3.357 7.5 7.5 7.5s7.5-3.358 7.5-7.5v-8.501h8.501c4.143 0 7.5-3.358 7.5-7.5s-3.358-7.5-7.501-7.5z" fill="#c4bcb7"/><path d="m490.093 468.487h-12.894l-16.043-16.043c-2.93-2.929-7.678-2.929-10.607 0s-2.929 7.678 0 10.606l16.044 16.044v12.894c0 4.142 3.357 7.5 7.5 7.5s7.5-3.358 7.5-7.5v-8.501h8.501c4.143 0 7.5-3.358 7.5-7.5s-3.359-7.5-7.501-7.5z" fill="#c4bcb7"/><path d="m61.452 452.444c-2.93-2.929-7.678-2.929-10.607 0l-16.043 16.043h-12.895c-4.143 0-7.5 3.358-7.5 7.5s3.357 7.5 7.5 7.5h8.501v8.501c0 4.142 3.357 7.5 7.5 7.5s7.5-3.358 7.5-7.5v-12.894l16.044-16.044c2.929-2.929 2.929-7.678 0-10.606z" fill="#c4bcb7"/><path d="m46.924 352.812c-2.929-2.929-7.677-2.93-10.607 0l-15.921 15.922h-12.896c-4.143 0-7.5 3.358-7.5 7.5s3.357 7.5 7.5 7.5h8.501v8.501c0 4.142 3.357 7.5 7.5 7.5s7.5-3.358 7.5-7.5v-12.895l15.922-15.922c2.93-2.929 2.93-7.677.001-10.606z" fill="#c4bcb7"/><path d="m387.929 468.445c14.831 0 26.854-12.023 26.854-26.854s-12.022-26.854-26.854-26.854c-21.623 0-39.215-17.592-39.215-39.215v-112.253c0-36.231-29.476-65.707-65.707-65.707h-26.87c-14.831 0-26.854 12.023-26.854 26.854s12.022 26.854 26.854 26.854h26.87c6.617 0 12 5.383 12 12v112.254c.001 51.237 41.686 92.921 92.922 92.921z" fill="#d8cec9"/><path d="m441.637 468.445c14.831 0 26.854-12.023 26.854-26.854s-12.022-26.854-26.854-26.854c-21.623 0-39.215-17.592-39.215-39.215v-112.253c0-36.231-29.476-65.707-65.707-65.707h-26.87c-14.831 0-26.854 12.023-26.854 26.854s12.022 26.854 26.854 26.854h26.87c6.617 0 12 5.383 12 12v112.254c0 51.237 41.685 92.921 92.922 92.921z" fill="#ede6e3"/><path d="m450.189 467.051c-2.685.913-5.564 1.396-8.55 1.396-51.237 0-92.924-41.688-92.924-92.924v-112.248c0-6.617-5.381-11.998-11.998-11.998h24.641c6.617 0 12.009 5.381 12.009 11.998v112.248c-.001 45.748 33.223 83.88 76.822 91.528z" fill="#d8cec9"/><path d="m458.142 369.307c14.831 0 26.854-12.023 26.854-26.854s-12.022-26.854-26.854-26.854c-12.146 0-22.027-9.881-22.027-22.027v-129.442c0-36.231-29.476-65.707-65.707-65.707h-26.87c-14.831 0-26.854 12.023-26.854 26.854s12.022 26.854 26.854 26.854h26.87c6.617 0 12 5.383 12 12v129.442c-.001 41.759 33.973 75.734 75.734 75.734z" fill="#ede6e3"/><path d="m466.112 368.114c-2.524.773-5.199 1.192-7.97 1.192-41.752 0-75.727-33.975-75.727-75.738l-41.041-129.445c0-6.626-5.372-11.998-11.998-11.998h14.77c-15.059 0-27.742-12.324-27.453-27.38.28-14.591 12.191-26.327 26.849-26.327h26.875c.12 0 .241 0 .361.001 18.18.098 32.768 15.097 32.825 33.277.158 50.477.242 161.872.242 161.872-.001 37.166 26.906 68.166 62.267 74.546z" fill="#d8cec9"/><path d="m442.765 449.091h-.537c-4.143 0-7.5-3.358-7.5-7.5s3.357-7.5 7.5-7.5h.537c4.143 0 7.5 3.358 7.5 7.5s-3.358 7.5-7.5 7.5z" fill="#c4bcb7"/><path d="m457.132 349.953h-.537c-4.143 0-7.5-3.358-7.5-7.5s3.357-7.5 7.5-7.5h.537c4.143 0 7.5 3.358 7.5 7.5s-3.358 7.5-7.5 7.5z" fill="#c4bcb7"/><path d="m124.071 468.445c-14.831 0-26.854-12.023-26.854-26.854s12.022-26.854 26.854-26.854c21.623 0 39.215-17.592 39.215-39.215v-112.253c0-36.231 29.476-65.707 65.707-65.707h26.87c14.831 0 26.854 12.023 26.854 26.854s-12.022 26.854-26.854 26.854h-26.87c-6.617 0-12 5.383-12 12v112.254c-.001 51.237-41.686 92.921-92.922 92.921z" fill="#d8cec9"/><path d="m70.363 468.445c-14.831 0-26.854-12.023-26.854-26.854s12.022-26.854 26.854-26.854c21.623 0 39.215-17.592 39.215-39.215v-112.253c0-36.231 29.476-65.707 65.707-65.707h26.87c14.831 0 26.854 12.023 26.854 26.854s-12.022 26.854-26.854 26.854h-26.87c-6.617 0-12 5.383-12 12v112.254c0 51.237-41.685 92.921-92.922 92.921z" fill="#ede6e3"/><path d="m201.012 197.567c-36.231 0-65.706 29.475-65.706 65.706v112.248c0 21.623-17.594 39.217-39.217 39.217-14.834 0-26.854 12.02-26.854 26.854 0 11.708 7.487 21.666 17.938 25.328-5.446.999-11.074 1.525-16.81 1.525-14.823 0-26.854-12.02-26.854-26.854s12.03-26.854 26.854-26.854c21.633 0 39.217-17.594 39.217-39.217v-112.247c0-36.231 29.474-65.706 65.705-65.706z" fill="#d8cec9"/><path d="m53.858 369.307c-14.831 0-26.854-12.023-26.854-26.854s12.022-26.854 26.854-26.854c12.146 0 22.027-9.881 22.027-22.027v-129.442c0-36.231 29.476-65.707 65.707-65.707h26.87c14.831 0 26.854 12.023 26.854 26.854s-12.022 26.854-26.854 26.854h-11.992c-6.617 0-12 5.383-12 12l-14.877 129.442c0 41.759-33.974 75.734-75.735 75.734z" fill="#ede6e3"/><path d="m168.813 98.429c-35.93.344-65.061 29.679-65.061 65.695v129.445c0 12.149-9.882 22.031-22.031 22.031-14.834 0-26.854 12.02-26.854 26.854 0 11.171 6.821 20.752 16.531 24.802-5.629 1.343-11.504 2.052-17.541 2.052-14.834 0-26.854-12.031-26.854-26.854 0-14.834 12.02-26.854 26.854-26.854 12.149 0 22.031-9.882 22.031-22.031v-129.446c0-36.231 29.475-65.706 65.706-65.706h26.875c.119.001.226.001.344.012z" fill="#d8cec9"/><path d="m382.495 74.877v24.665 86.069h-252.897v-110.734c0-8.314 3.362-15.833 8.808-21.279s12.965-8.808 21.268-8.808c13.223 0 24.437 8.518 28.465 20.366.387 1.128.709 2.288.956 3.469v-22.653c0-9.249 3.749-17.605 9.796-23.663 6.058-6.058 14.426-9.796 23.663-9.796 3.91 0 7.659.666 11.15 1.912 12.986 4.587 22.299 16.972 22.299 31.548h.075c0-9.249 3.749-17.605 9.796-23.663 6.058-6.058 14.426-9.796 23.663-9.796 18.475 0 33.46 14.974 33.46 33.46v22.6c1.225-5.779 4.125-10.946 8.142-14.974 5.446-5.446 12.975-8.808 21.279-8.808 16.618-.002 30.077 13.468 30.077 30.085z" fill="#ede6e3"/><g fill="#d8cec9"><path d="m159.679 44.79c5.317 0 10.312 1.386 14.651 3.803-2.438 1.353-4.662 3.04-6.627 5.006-5.446 5.446-8.808 12.965-8.808 21.279v135.365l-29.292-46.112v-89.254c0-8.314 3.362-15.833 8.808-21.279 5.446-5.445 12.965-8.808 21.268-8.808z"/><path d="m352.419 44.79c5.317 0 10.312 1.386 14.651 3.803-2.438 1.353-4.662 3.04-6.627 5.006-5.446 5.446-8.808 12.965-8.808 21.279v110.734h-29.292v-110.735c0-8.314 3.362-15.833 8.808-21.279s12.965-8.808 21.268-8.808z"/><path d="m233.704 14.424c-2.127 1.289-4.071 2.825-5.822 4.587-5.682 5.682-9.194 13.524-9.194 22.192v115.503h-29.593v-110.734c0-9.249 3.749-17.605 9.796-23.663 6.058-6.058 14.426-9.796 23.663-9.796 3.911-.001 7.659.665 11.15 1.911z"/><path d="m300.688 14.424c-2.127 1.289-4.071 2.825-5.822 4.587-5.682 5.682-9.194 13.524-9.194 22.192v115.503h-29.593v-110.734c0-9.249 3.749-17.605 9.796-23.663 6.058-6.058 14.426-9.796 23.663-9.796 3.91-.001 7.659.665 11.15 1.911z"/><g><circle cx="108.288" cy="283.473" r="42.55"/><circle cx="403.725" cy="283.473" r="42.55"/></g></g><path d="m134.604 294.382c-2.635 0-5.19-1.391-6.562-3.856-2.574-4.628-6.942-7.232-13.354-7.959-5.541-.627-10.367.488-10.415.5-4.018.947-8.064-1.526-9.031-5.541-.966-4.015 1.478-8.051 5.488-9.035.711-.174 7.176-1.681 15.094-.888 11.526 1.158 20.284 6.563 25.328 15.632 2.013 3.62.711 8.187-2.909 10.2-1.155.642-2.406.947-3.639.947z" fill="#c4bcb7"/><path d="m377.409 294.382c-1.233 0-2.484-.305-3.639-.947-3.62-2.014-4.922-6.58-2.909-10.2 5.044-9.068 13.802-14.474 25.328-15.632 7.911-.793 14.383.713 15.094.888 4.023.987 6.484 5.048 5.497 9.071-.984 4.014-5.033 6.474-9.044 5.503-.162-.037-4.935-1.118-10.411-.499-6.412.727-10.78 3.331-13.354 7.959-1.372 2.466-3.927 3.857-6.562 3.857z" fill="#c4bcb7"/><path d="m382.413 164.13v122.753c0 64.33-52.149 116.479-116.479 116.479h-19.85c-64.33 0-116.49-52.149-116.49-116.479v-122.753c4.672 1.568 9.678 2.428 14.877 2.428 22.117 0 40.613-15.467 45.286-36.166 7.777 5.876 17.465 9.366 27.96 9.366 15.897 0 29.915-7.992 38.293-20.162 8.367 12.17 22.385 20.162 38.282 20.162 10.494 0 20.183-3.491 27.96-9.366 4.673 20.699 23.169 36.166 45.286 36.166 5.197 0 10.202-.86 14.875-2.428z" fill="#f5f0f0"/><path d="m290.929 400.666c-8.045 1.772-16.413 2.696-24.995 2.696h-19.85c-64.33 0-116.49-52.149-116.49-116.479v-122.753c4.672 1.568 9.678 2.428 14.877 2.428 22.117 0 40.613-15.467 45.286-36.166 2.965 2.234 6.219 4.135 9.678 5.618v150.873c-.002 55.747 39.172 102.354 91.494 113.783z" fill="#ede6e3"/><path d="m287.793 336.763c19.079 0 27.46-24.126 12.453-35.907-12.184-9.564-27.543-15.267-44.236-15.267-16.692 0-32.06 5.702-44.248 15.265-15.011 11.778-6.631 35.909 12.45 35.909z" fill="#c4bcb7"/><path d="m69.772 449.091h-.537c-4.143 0-7.5-3.358-7.5-7.5s3.357-7.5 7.5-7.5h.537c4.143 0 7.5 3.358 7.5 7.5s-3.357 7.5-7.5 7.5z" fill="#c4bcb7"/><path d="m55.405 349.953h-.537c-4.143 0-7.5-3.358-7.5-7.5s3.357-7.5 7.5-7.5h.537c4.143 0 7.5 3.358 7.5 7.5s-3.357 7.5-7.5 7.5z" fill="#c4bcb7"/><g fill="#c4bcb7"><path d="m320.454 242.248 9.097-9.097c2.929-2.929 2.929-7.678 0-10.606-2.93-2.929-7.678-2.929-10.607 0l-9.097 9.097-9.097-9.097c-2.93-2.929-7.678-2.929-10.607 0s-2.929 7.678 0 10.606l9.097 9.097-9.097 9.097c-2.929 2.929-2.929 7.678 0 10.606 1.465 1.464 3.385 2.197 5.304 2.197s3.839-.732 5.304-2.197l9.097-9.097 9.097 9.097c1.465 1.464 3.385 2.197 5.304 2.197s3.839-.732 5.304-2.197c2.929-2.929 2.929-7.678 0-10.606z"/><path d="m221.861 222.545c-2.928-2.93-7.677-2.929-10.606 0l-9.096 9.097-9.096-9.097c-2.929-2.929-7.678-2.93-10.606 0-2.93 2.929-2.93 7.677-.001 10.606l9.097 9.097-9.097 9.097c-2.929 2.929-2.929 7.678.001 10.606 1.464 1.465 3.384 2.197 5.303 2.197s3.839-.732 5.304-2.197l9.096-9.097 9.096 9.097c1.465 1.465 3.384 2.197 5.304 2.197 1.919 0 3.839-.732 5.303-2.197 2.93-2.929 2.93-7.677.001-10.606l-9.097-9.097 9.097-9.097c2.927-2.929 2.927-7.678-.003-10.606z"/></g></g></svg>