<svg id="Capa_1" enable-background="new 0 0 512 512" height="512" viewBox="0 0 512 512" width="512" xmlns="http://www.w3.org/2000/svg"><g><path d="m387.517 121.657h-186.38c-30.728 0-55.638 24.91-55.638 55.638v268.618c0 30.728 24.91 55.638 55.638 55.638h186.381c30.728 0 55.638-24.91 55.638-55.638v-268.618c-.001-30.728-24.911-55.638-55.639-55.638z" fill="#365e7d"/><path d="m290.176 501.554h-89.038c-30.73 0-55.64-24.91-55.64-55.64v-268.619c0-30.73 24.91-55.64 55.64-55.64 0 0 33.398 24.91 33.398 55.64v268.618c0 30.731 24.91 55.641 55.64 55.641z" fill="#2b4d66"/><g><path d="m94.826.002h50.359c7.757 0 14.046 6.288 14.046 14.046 0 7.757 6.288 14.046 14.046 14.046h44.648v35.628h-108.026c-9.838 0-17.814-7.976-17.814-17.814 0-3.832 1.221-7.372 3.28-10.277h-.539c-9.838 0-17.814-7.976-17.814-17.814 0-9.839 7.975-17.815 17.814-17.815z" fill="#ffc250"/><path d="m148.268 63.719h-38.374c-9.838 0-17.812-7.974-17.812-17.812 0-1.916.309-3.76.865-5.491.567-1.72 1.391-3.338 2.421-4.79h-.546c-9.838 0-17.812-7.974-17.812-17.812 0-4.914 1.988-9.374 5.213-12.599 3.224-3.214 7.675-5.213 12.599-5.213h38.374c-4.914 0-9.375 1.999-12.599 5.213-3.214 3.225-5.213 7.685-5.213 12.599 0 9.838 7.974 17.812 17.812 17.812h.536c-1.03 1.453-1.844 3.07-2.411 4.79-.567 1.731-.865 3.575-.865 5.491 0 9.838 7.974 17.812 17.812 17.812z" fill="#e7a52e"/><path d="m494.165.002h-50.359c-7.757 0-14.046 6.288-14.046 14.046 0 7.757-6.288 14.046-14.046 14.046h-44.648v35.628h108.025c9.838 0 17.814-7.976 17.814-17.814 0-3.832-1.221-7.372-3.28-10.277h.539c9.838 0 17.814-7.976 17.814-17.814.001-9.839-7.974-17.815-17.813-17.815z" fill="#ffc250"/><path d="m453.853 17.817c0 1.916.299 3.76.865 5.491.567 1.731 1.381 3.338 2.411 4.79h-.536c-9.838 0-17.822 7.974-17.822 17.812 0 4.924 1.999 9.375 5.223 12.599 3.224 3.225 7.685 5.213 12.599 5.213h-85.525v-35.624h44.648c3.884 0 7.386-1.576 9.931-4.121 2.544-2.545 4.121-6.047 4.121-9.931 0-7.757 6.284-14.041 14.041-14.041h27.856c-9.839 0-17.812 7.974-17.812 17.812z" fill="#e7a52e"/></g><path d="m424.848 512h-66.756l-43.391-12.795-94.519 12.795h-57.721c21.181-35.799 56.578-62.182 98.444-71.35.237-.052.484-.103.721-.155v-55.516h64.067v55.516c.247.052.494.103.731.165 7.85 1.72 15.463 4.038 22.808 6.923 3.873 1.514-2.617 13.485 1.092 15.298 3.317 1.628 16.864-6.913 20.047-5.058 22.449 13.114 41.239 31.801 54.477 54.177z" fill="#ffddce"/><path d="m373.155 459.482v.01l-15.062 52.508h-137.91l129.184-64.365c8.314 3.265 16.267 7.242 23.788 11.847z" fill="#ede6e3"/><path d="m275.722 384.979v55.516c-23.622 9.024-43.607 35.5-55.537 71.505h-57.721c21.304-36.005 56.989-62.48 99.165-71.505v-55.516z" fill="#ffcbbe"/><path d="m134.567 122.202c3.863-14.289 9.591-27.804 16.905-40.28 28.721-49.005 81.94-81.92 142.854-81.92 60.904 0 114.133 32.914 142.854 81.92 7.448 12.712 13.258 26.517 17.111 41.104z" fill="#ede6e3"/><path d="m454.292 123.026-319.726-.824c3.863-14.289 9.591-27.804 16.905-40.28h285.709c7.449 12.712 13.26 26.517 17.112 41.104z" fill="#d8cec9"/><path d="m134.57 122.2c19.017-70.403 83.341-122.2 159.75-122.2 20.81 0 40.733 3.843 59.081 10.868-49.017 18.729-86.834 60.111-100.68 111.332z" fill="#d8cec9"/><g fill="#ffcbbe"><circle cx="152.655" cy="272.882" r="40.809"/><circle cx="436.001" cy="272.882" r="40.809"/></g><path d="m173.099 283.877c-2.714 0-5.347-1.433-6.76-3.972-2.375-4.271-6.424-6.678-12.374-7.359-5.223-.597-9.788.455-9.833.465-4.137.974-8.307-1.576-9.301-5.711s1.522-8.291 5.652-9.305c.692-.169 6.984-1.635 14.657-.864 11.235 1.129 19.778 6.407 24.704 15.263 2.073 3.729.732 8.434-2.997 10.508-1.189.661-2.477.975-3.748.975z" fill="#eaac9d"/><path d="m415.557 283.877c-1.271 0-2.559-.314-3.749-.976-3.729-2.074-5.07-6.779-2.997-10.508 4.927-8.857 13.469-14.135 24.704-15.263 7.678-.771 13.965.695 14.657.864 4.144 1.017 6.679 5.201 5.662 9.345-1.015 4.134-5.188 6.665-9.314 5.67-.154-.035-4.668-1.055-9.83-.465-5.951.681-9.999 3.089-12.374 7.359-1.412 2.542-4.046 3.974-6.759 3.974z" fill="#eaac9d"/><path d="m325.693 384.979v18.1c-.412.093-.824.175-1.236.247h-.01c-6.676 1.246-13.557 1.896-20.593 1.896h-19.038c-7.953 0-15.71-.834-23.189-2.411v-17.832z" fill="#ffcbbe"/><path d="m415.563 143.145v133.006c0 54.661-39.25 100.143-91.109 109.817h-.01c-6.676 1.247-13.557 1.896-20.593 1.896h-19.038c-61.708 0-111.723-50.015-111.723-111.712v-38.612l47.203-94.395 13.042 6.14 47.388 22.303c18.471 8.684 40.527 1.669 50.571-16.102l28.031 11.909c15.885 6.748 34.326 2.256 45.317-11.044z" fill="#ffddce"/><path d="m324.444 385.968c-6.676 1.247-13.557 1.896-20.593 1.896h-19.038c-61.708 0-111.723-50.015-111.723-111.712v-38.612l47.203-94.395 13.042 6.14v126.866c0 54.662 39.25 100.144 91.109 109.817z" fill="#ffcbbe"/><g fill="#2b4d66"><path d="m236.746 231.915c-7.455 0-13.519 8.309-13.519 18.522s6.064 18.522 13.519 18.522c7.454 0 13.518-8.309 13.518-18.522s-6.064-18.522-13.518-18.522z"/><path d="m351.91 231.915c-7.454 0-13.518 8.309-13.518 18.522s6.064 18.522 13.518 18.522c7.455 0 13.519-8.309 13.519-18.522s-6.064-18.522-13.519-18.522z"/></g><g fill="#eaac9d"><path d="m254.125 218.335c-1.978 0-3.955-.754-5.464-2.263-2.969-2.97-6.918-4.605-11.117-4.605-4.2 0-8.148 1.636-11.119 4.605-3.017 3.017-7.909 3.017-10.927 0-3.017-3.017-3.017-7.909.001-10.927 5.888-5.888 13.717-9.131 22.044-9.131s16.156 3.243 22.044 9.131c3.017 3.017 3.017 7.909-.001 10.927-1.506 1.508-3.484 2.263-5.461 2.263z"/><path d="m368.857 218.335c-1.978 0-3.955-.754-5.464-2.263-2.969-2.97-6.918-4.605-11.117-4.605-4.2 0-8.148 1.636-11.119 4.605-3.017 3.017-7.909 3.017-10.927 0-3.017-3.017-3.017-7.909.001-10.927 5.888-5.888 13.717-9.131 22.044-9.131s16.156 3.243 22.044 9.131c3.017 3.017 3.017 7.909-.001 10.927-1.507 1.508-3.485 2.263-5.461 2.263z"/><path d="m294.327 314.974c-14.268 0-27.077-9.542-31.15-23.203-1.219-4.089 1.108-8.393 5.197-9.612 4.093-1.22 8.392 1.108 9.612 5.197 2.135 7.162 8.855 12.165 16.341 12.165 7.495 0 14.214-4.999 16.34-12.157 1.214-4.091 5.517-6.423 9.606-5.207 4.091 1.215 6.423 5.515 5.207 9.606-4.057 13.666-16.868 23.211-31.153 23.211z"/></g><path d="m464.929 101.102h-341.205c-11.352 0-20.555 9.203-20.555 20.555 0 11.352 9.203 20.555 20.555 20.555h341.206c11.352 0 20.555-9.203 20.555-20.555-.001-11.352-9.204-20.555-20.556-20.555z" fill="#ede6e3"/><path d="m209.226 136.193c3.719 3.719 8.859 6.016 14.536 6.016h-100.04c-5.676 0-10.807-2.297-14.525-6.016-3.719-3.719-6.027-8.86-6.027-14.536 0-11.353 9.21-20.552 20.552-20.552h100.04c-11.353 0-20.562 9.2-20.562 20.552 0 5.676 2.307 10.817 6.026 14.536z" fill="#d8cec9"/><g><path d="m91.018 228.587h27.094v256.241h-27.094z" fill="#ffc250"/><path d="m91.018 228.587h12.859v256.241h-12.859z" fill="#e7a52e"/><path d="m107.196 446.843h-5.26c-12.759 0-23.102 10.343-23.102 23.102v18.953c0 12.759 10.343 23.102 23.102 23.102h5.26c12.759 0 23.102-10.343 23.102-23.102v-18.953c0-12.759-10.343-23.102-23.102-23.102z" fill="#ffddce"/><path d="m115.353 510.513c-2.534.958-5.285 1.483-8.159 1.483h-5.264c-12.754 0-23.097-10.343-23.097-23.097v-18.955c0-12.754 10.343-23.097 23.097-23.097h5.264c2.874 0 5.625.525 8.159 1.483-8.726 3.297-14.938 11.734-14.938 21.613v18.957c.001 9.88 6.213 18.317 14.938 21.613z" fill="#ffcbbe"/><g><path d="m183.074 178.532h-47.403c-7.302 0-13.221 5.919-13.221 13.221 0 7.302-5.919 13.221-13.221 13.221h-18.594c-7.302 0-13.221-5.919-13.221-13.221 0-7.302-5.919-13.221-13.221-13.221h-47.403c-9.261 0-16.768 7.507-16.768 16.768 0 9.261 7.507 16.768 16.768 16.768h.507c-1.938 2.735-3.087 6.067-3.087 9.674 0 9.261 7.507 16.768 16.768 16.768h50.77 36.368 50.77c9.261 0 16.768-7.507 16.768-16.768 0-3.607-1.15-6.939-3.087-9.674h.507c9.261 0 16.768-7.507 16.768-16.768.001-9.261-7.507-16.768-16.768-16.768z" fill="#ffc250"/><path d="m67.096 238.508h-36.122c-9.261 0-16.766-7.506-16.766-16.766 0-1.804.291-3.539.815-5.169.533-1.619 1.309-3.142 2.279-4.509h-.514c-9.261 0-16.766-7.506-16.766-16.766 0-4.626 1.871-8.824 4.907-11.86 3.035-3.025 7.224-4.907 11.86-4.907h36.122c-4.626 0-8.824 1.881-11.86 4.907-3.025 3.035-4.907 7.234-4.907 11.86 0 9.261 7.506 16.766 16.766 16.766h.504c-.97 1.367-1.736 2.89-2.269 4.509-.533 1.629-.815 3.365-.815 5.169-.001 9.261 7.505 16.766 16.766 16.766z" fill="#e7a52e"/></g></g></g></svg>