<svg id="Capa_1" enable-background="new 0 0 511.999 511.999" height="512" viewBox="0 0 511.999 511.999" width="512" xmlns="http://www.w3.org/2000/svg"><g><path d="m322.587 418.341 141.786 35.65c17.721 7.179 37.905-1.367 45.084-19.088 3.589-8.861 3.249-18.334-.209-26.501-3.453-8.156-10.019-14.994-18.879-18.583l-39.085-15.833-47.125-137.691 50.61-124.935-137.837-55.836-69.347 171.19c-24.878 6.539-46.477 24.319-56.88 50-9.113 22.497-7.838 46.624 1.578 67.055" fill="#ffddce"/><path d="m509.456 434.902c-7.179 17.721-27.362 26.267-45.084 19.088l-118.848-18.346-153.241-91.874c-9.416-20.431-10.691-44.558-1.578-67.055 1.758-4.34 3.836-8.455 6.198-12.323-4.202 18.508-1.903 37.411 5.698 53.908l272.09 110.22c13.193 5.345 27.76 1.971 37.297-7.418.107 4.589-.697 9.272-2.532 13.8z" fill="#ffcbbe"/><path d="m273.717 256.785c-14.626 9.11-26.607 22.762-33.573 39.958-9.113 22.497-7.838 46.624 1.578 67.055l-49.44-20.027c-9.416-20.431-10.691-44.558-1.578-67.055 10.403-25.681 32.002-43.461 56.88-50l69.347-171.19 49.44 20.027-55.899 137.993c-7.285 17.983-20.275 32.983-36.755 43.239z" fill="#ffcbbe"/><path d="m409.164 272.361.66.162-.638-.11z" fill="#e04b66"/><g fill="#9d6b6b"><path d="m496.099 388.227-27.358 67.535-43.451-17.601 27.358-67.535c2.819-6.958 10.755-10.324 17.72-7.502l18.229 7.384c6.964 2.821 10.32 10.761 7.502 17.719z"/><path d="m438.899 183.798-4.761 11.752c-3.627 8.954-13.835 13.276-22.796 9.646l-128.538-52.069c-8.961-3.63-13.276-13.835-9.649-22.789l4.761-11.752c3.63-8.961 13.831-13.286 22.792-9.656l128.538 52.069c8.961 3.63 13.283 13.838 9.653 22.799z"/><path d="m444.361 320.328-121.148 46.83-37.46 14.479-64.569-26.156 37.453-14.481 31.845-12.309 44.556-17.234 92.129-35.602c6.352-2.464 13.489.695 15.943 7.051l8.305 21.473c2.454 6.355-.705 13.492-7.054 15.949z"/></g><path d="m258.637 340.999 64.576 26.159-37.46 14.478-45.325 3.33-19.244-29.486z" fill="#8b5e5e"/><path d="m479.181 429.989-10.319 25.473c-1.513-.377-12.911 11.946-14.39 11.347l-17.988-1.613-11.195-27.035 10.319-25.473 39.082 15.832c1.48.599 2.986 1.095 4.491 1.469z" fill="#8b5e5e"/><path d="m335.037 311.455-44.556 17.234-28.925-62.705-20.104-43.589c-1.964-4.256-2.085-9.132-.327-13.472l16.047-39.612c2.18-5.381 9.739-5.552 12.172-.285l29.774 64.56z" fill="#9d6b6b"/><path d="m269.344 169.025 29.774 64.56c-6.892 9.191-15.517 17.047-25.402 23.198-4.302 2.677-8.376 5.755-12.161 9.202l-20.104-43.589c-1.964-4.256-2.085-9.132-.327-13.472l16.047-39.612c2.181-5.382 9.741-5.553 12.173-.287z" fill="#8b5e5e"/><path d="m345.498 127.074-17.904 44.198-44.791-18.144c-8.961-3.63-13.276-13.835-9.649-22.789l4.761-11.752c3.63-8.961 13.831-13.286 22.792-9.656z" fill="#8b5e5e"/><path d="m484.881 462.301-309.429-125.346c-10.335-4.186-22.106.798-26.292 11.132-4.186 10.335.798 22.106 11.132 26.292l309.429 125.346c10.335 4.186 22.106-.798 26.292-11.132 4.187-10.334-.797-22.105-11.132-26.292z" fill="#9d6b6b"/><path d="m200.106 384.128c2.014 4.756 5.848 8.747 11.013 10.839l-50.828-20.59c-5.172-2.095-8.999-6.083-11.013-10.839s-2.21-10.287-.118-15.451c4.187-10.336 15.954-15.318 26.29-11.131l50.828 20.59c-10.336-4.187-22.103.795-26.29 11.131-2.092 5.165-1.896 10.696.118 15.451z" fill="#8b5e5e"/><g><path d="m68.612 16.97-10.765 20.609 4.669 41.503 41.653 26.536 9.374-17.945c6.335-12.127 5.482-26.756-2.217-38.065l-23.001-33.786c-4.894-7.188-15.687-6.56-19.713 1.148z" fill="#d8cec9"/><path d="m10.303 56.668 23.12-2.461 36.902 19.558 9.42 48.481-20.132 2.143c-13.605 1.448-26.903-4.707-34.603-16.017l-23.001-33.785c-4.894-7.188-.353-16.999 8.294-17.919z" fill="#ede6e3"/><path d="m99.655 24.698h29.547v244.483h-29.547z" fill="#9d6b6b" transform="matrix(.827 -.563 .563 .827 -62.853 89.874)"/><path d="m100.98 28.996h14.271v244.483h-14.271z" fill="#8b5e5e" transform="matrix(.827 -.563 .563 .827 -66.366 87.067)"/><path d="m212.532 274.597-3.349-45.096c-.609-8.201-9.867-12.667-16.665-8.039l-37.38 25.449c-6.798 4.628-6.036 14.879 1.37 18.452l40.729 19.647c7.407 3.573 15.904-2.212 15.295-10.413z" fill="#ffc250"/><path d="m207.817 284.258c-2.967 1.998-6.902 2.524-10.58.752l-40.732-19.645c-7.407-3.575-8.169-13.825-1.37-18.45l11.404-7.767c-2.648 1.803.711 10.281 6.047 15.267l29.318 27.412c2.606 2.441 4.728 3.152 5.913 2.431z" fill="#e7a52e"/></g><g fill="#e04b66"><path d="m118.465 356.769-1.43-1.675c-5.045-5.907-13.802-6.899-20.041-2.27l-19.188 14.239c-6.873 5.1-7.989 14.954-2.431 21.462l3.554 4.162c5.558 6.508 15.466 6.947 21.578.956l17.064-16.725c5.549-5.438 5.939-14.242.894-20.149z"/><path d="m94.81 306.201-.401-2.166c-1.416-7.638-8.504-12.876-16.221-11.986l-23.737 2.737c-8.502.98-14.396 8.956-12.836 17.372l.997 5.381c1.56 8.415 9.921 13.749 18.209 11.617l23.141-5.952c7.524-1.935 12.264-9.365 10.848-17.003z"/><path d="m97.53 250.411.735-2.076c2.593-7.323-.927-15.402-8.055-18.49l-21.925-9.498c-7.853-3.402-16.945.558-19.802 8.626l-1.827 5.159c-2.857 8.068 1.717 16.867 9.961 19.165l23.017 6.416c7.483 2.085 15.303-1.979 17.896-9.302z"/></g></g></svg>