<svg id="Capa_1" enable-background="new 0 0 512 512" height="512" viewBox="0 0 512 512" width="512" xmlns="http://www.w3.org/2000/svg"><g><path d="m56.958 279.406c-6.593-1.473-12.486-4.801-17.101-9.416-6.336-6.346-10.261-15.102-10.261-24.776 0-19.347 15.679-35.026 35.026-35.026h22.839c-9.673 0-18.43-3.925-24.766-10.261-6.346-6.346-10.261-15.102-10.261-24.776 0-19.347 15.679-35.026 35.026-35.026h39.58c-9.673 0-18.43-3.925-24.766-10.261-6.346-6.346-10.261-15.102-10.261-24.776 0-19.347 15.679-35.026 35.026-35.026h54.507c-9.673 0-18.43-3.925-24.776-10.261-6.336-6.346-10.261-15.102-10.261-24.776.003-19.346 15.693-35.025 35.04-35.025h116.194c9.673 0 18.43 3.915 24.776 10.261 6.336 6.336 10.261 15.092 10.261 24.766 0 19.347-15.69 35.036-35.036 35.036h54.507c9.673 0 18.43 3.925 24.766 10.261s10.261 15.092 10.261 24.766c0 19.347-15.679 35.036-35.026 35.036h39.58c9.673 0 18.43 3.915 24.766 10.261 6.336 6.336 10.261 15.092 10.261 24.766 0 19.347-15.679 35.036-35.026 35.036h22.839c9.673 0 18.43 3.925 24.766 10.261 6.346 6.336 10.261 15.092 10.261 24.766 0 16.72-11.703 30.71-27.372 34.192" fill="#ede6e3"/><path d="m244.482 59.802c6.336 6.336 15.092 10.261 24.766 10.261h-54.507c-19.347 0-35.026 15.679-35.026 35.026 0 9.673 3.925 18.43 10.261 24.776 6.336 6.336 15.092 10.261 24.766 10.261h-39.58c-19.347 0-35.026 15.679-35.026 35.026 0 9.673 3.925 18.43 10.261 24.776 6.336 6.336 15.092 10.261 24.766 10.261h-22.829c-19.347 0-35.036 15.679-35.036 35.026 0 9.673 3.925 18.43 10.261 24.766 6.346 6.336 15.102 10.261 24.776 10.261h-87.71c-9.673 0-18.43-3.925-24.765-10.261-6.336-6.336-10.261-15.092-10.261-24.766 0-19.347 15.679-35.026 35.026-35.026h22.839c-9.674 0-18.43-3.925-24.766-10.261-6.346-6.346-10.261-15.102-10.261-24.776 0-19.347 15.679-35.026 35.026-35.026h39.579c-9.673 0-18.43-3.925-24.766-10.261-6.346-6.346-10.261-15.102-10.261-24.776 0-19.347 15.679-35.026 35.026-35.026h54.507c-9.673 0-18.43-3.925-24.776-10.261-6.336-6.346-10.261-15.102-10.261-24.776.001-19.347 15.691-35.026 35.037-35.026h87.699c-19.347 0-35.026 15.679-35.026 35.026.001 9.674 3.915 18.43 10.261 24.776z" fill="#d8cec9"/><g fill="#ffcbbe"><circle cx="97.249" cy="271.659" r="41.018"/><circle cx="382.044" cy="271.659" r="41.018"/></g><path d="m122.949 282.672c-2.714 0-5.347-1.432-6.76-3.973-2.394-4.305-6.473-6.731-12.47-7.417-5.256-.601-9.849.458-9.895.469-4.143.973-8.307-1.576-9.301-5.711s1.522-8.291 5.652-9.305c.694-.171 7.004-1.643 14.719-.868 11.28 1.133 19.855 6.431 24.8 15.322 2.074 3.729.732 8.434-2.997 10.508-1.189.66-2.477.974-3.748.975z" fill="#eaac9d"/><path d="m356.344 282.672c-1.271 0-2.559-.314-3.749-.976-3.729-2.074-5.071-6.779-2.996-10.508 4.945-8.89 13.52-14.188 24.8-15.321 7.714-.774 14.025.697 14.718.868 4.144 1.017 6.679 5.201 5.662 9.345-1.015 4.134-5.178 6.666-9.314 5.67-.149-.034-4.696-1.063-9.891-.468-5.997.686-10.076 3.112-12.471 7.418-1.413 2.539-4.045 3.971-6.759 3.972z" fill="#eaac9d"/><path d="m370.834 512h-66.755l-43.388-12.795-94.522 12.795h-57.722c21.181-35.799 56.578-62.182 98.444-71.35.237-.052.484-.103.721-.155v-55.516h64.067v55.516c.247.052.494.103.731.165 7.846 1.719 15.466 4.043 22.807 6.921 3.875 1.519-2.619 13.483 1.093 15.302 3.322 1.628 16.866-6.918 20.047-5.06 22.448 13.111 41.239 31.803 54.477 54.177z" fill="#ffddce"/><path d="m319.14 459.481v.01l-15.061 52.509h-137.91l129.185-64.366c8.313 3.266 16.266 7.242 23.786 11.847z" fill="#ede6e3"/><path d="m272.41 440.66c-3.441 2.668-7.757 4.265-12.445 4.265h-.01c-11.208 0-20.305-9.097-20.305-20.315 0 11.219-9.096 20.315-20.305 20.315h-.01c-4.687 0-9.004-1.597-12.445-4.275.237-.052.484-.103.721-.155v-55.516h64.067v55.516c.248.052.496.103.732.165z" fill="#ffcbbe"/><path d="m221.707 384.979v55.516c-23.622 9.024-43.608 35.5-55.537 71.505h-57.721c21.304-36.005 56.99-62.48 99.165-71.505v-55.516z" fill="#ffcbbe"/><path d="m271.681 384.979v25.353c-7.263 1.473-14.773 2.246-22.468 2.246h-19.13c-7.695 0-15.205-.773-22.468-2.246v-25.353z" fill="#ffcbbe"/><path d="m117.791 183.8v178.053c0 11.217 9.093 20.31 20.31 20.31 11.217 0 20.31-9.093 20.31-20.31v22.677c0 11.217 9.093 20.31 20.31 20.31 11.217 0 20.31-9.093 20.31-20.31v14.731c0 11.217 9.093 20.31 20.31 20.31 11.217 0 20.31-9.093 20.31-20.31 0 11.217 9.093 20.31 20.31 20.31 11.217 0 20.31-9.093 20.31-20.31v-14.731c0 11.217 9.093 20.31 20.31 20.31 11.217 0 20.31-9.093 20.31-20.31v-22.677c0 11.217 9.093 20.31 20.31 20.31 11.217 0 20.31-9.093 20.31-20.31v-178.053" fill="#ede6e3"/><path d="m184.933 388.674c0 4.945 1.762 9.457 4.698 12.98-3.152 2.019-6.892 3.183-10.91 3.183-11.219 0-20.315-9.096-20.315-20.315v-22.674c0 5.615-2.277 10.683-5.944 14.361-3.678 3.678-8.757 5.954-14.361 5.954-11.219 0-20.315-9.096-20.315-20.315v-185.718h67.147z" fill="#d8cec9"/><path d="m336.57 176.13v86.36c0 21.644-22.479 35.953-42.083 26.805-17.379-8.108-36.108-12.156-54.837-12.156-18.687 0-37.365 4.028-54.713 12.094-.041.021-.082.041-.124.062h-.01c-19.604 9.148-42.083-5.161-42.083-26.805v-86.36c14.845-.927 29.051-4.244 42.217-9.57 21.541-8.705 40.332-22.777 54.713-40.579 23.17 28.68 57.804 47.708 96.92 50.149z" fill="#ffddce"/><path d="m184.938 166.56v122.674c-.041.021-.082.041-.124.062h-.01c-19.604 9.148-42.083-5.161-42.083-26.805v-86.36c14.845-.928 29.051-4.245 42.217-9.571z" fill="#ffcbbe"/><g fill="#2b4d66"><path d="m181.77 230.484c-7.492 0-13.587 8.351-13.587 18.616s6.095 18.615 13.587 18.615 13.588-8.351 13.588-18.615c-.001-10.265-6.096-18.616-13.588-18.616z"/><ellipse cx="297.523" cy="249.099" rx="13.587" ry="18.616"/></g><g fill="#d8cec9"><path d="m199.238 205.999c-1.977 0-3.955-.754-5.463-2.263-6.177-6.177-16.227-6.178-22.405 0-3.018 3.017-7.91 3.017-10.927 0-3.018-3.017-3.018-7.909 0-10.927 12.203-12.202 32.056-12.201 44.258 0 3.018 3.017 3.018 7.909 0 10.927-1.508 1.509-3.485 2.263-5.463 2.263z"/><path d="m314.556 205.999c-1.977 0-3.955-.754-5.463-2.263-6.177-6.177-16.227-6.177-22.404 0-3.018 3.017-7.91 3.017-10.927 0-3.018-3.017-3.018-7.909 0-10.927 12.202-12.201 32.055-12.201 44.258 0 3.018 3.017 3.018 7.909 0 10.927-1.509 1.509-3.486 2.263-5.464 2.263z"/><path d="m239.646 326.933c-14.323 0-27.183-9.578-31.272-23.293-1.219-4.089 1.108-8.393 5.197-9.612s8.392 1.107 9.612 5.196c2.151 7.216 8.921 12.256 16.463 12.256 7.551 0 14.32-5.036 16.461-12.247 1.215-4.091 5.516-6.421 9.606-5.207 4.091 1.215 6.422 5.515 5.208 9.606-4.074 13.719-16.935 23.301-31.275 23.301z"/></g><g><path d="m408.142 334.175-30.089 85.15c-2.226 6.299 2.447 12.906 9.128 12.906h35.293l-11.381 54.24c-1.413 6.733 7.276 10.716 11.455 5.251l53.978-70.587c4.871-6.37.329-15.561-7.69-15.561h-28.284l40.698-64.937c3.121-4.98-.459-11.449-6.336-11.449h-59.721c-3.17.001-5.995 1.999-7.051 4.987z" fill="#eca900"/><g fill="#e7a52e"><path d="m421.975 492.384c-4.345 4.451-12.231.528-10.883-5.913l11.381-54.24h3.355c2.98 0 5.205 2.741 4.593 5.657l-10.194 48.583c-.511 2.438.303 4.518 1.748 5.913z"/><path d="m435.868 329.189c-3.169 0-5.996 1.996-7.052 4.986l-30.09 85.15c-2.226 6.298 2.448 12.906 9.129 12.906h-20.672c-6.68 0-11.354-6.607-9.129-12.906l30.09-85.15c1.056-2.99 3.88-4.986 7.049-4.986z"/></g></g></g></svg>