<svg id="Capa_1" enable-background="new 0 0 497 497" height="512" viewBox="0 0 497 497" width="512" xmlns="http://www.w3.org/2000/svg"><g><g><path d="m397.728 483.466h-204.18c9.397-15.881-.512-16.318 13.931-27.657 17.342-13.617 37.804-23.439 60.142-28.219v-53.89h62.19v53.89c22.407 4.796 42.929 14.668 60.308 28.356 14.366 11.315-1.749 11.704 7.609 27.52z" fill="#ffddce"/><path d="m281.301 373.7v53.89c-18.207 6.956-34.189 24.592-45.797 49.059-3.011 6.347-42.468-9.5-28.025-20.84 17.342-13.617 37.804-23.439 60.142-28.219v-53.89z" fill="#ffcbbe"/><path d="m329.806 373.7v24.61c-7.05 1.43-14.34 2.18-21.81 2.18h-18.57c-7.47 0-14.76-.75-21.81-2.18v-24.61z" fill="#ffcbbe"/><path d="m426.056 497h-254.69c9.37-15.86 21.63-29.82 36.05-41.15l.37.35c11.06 3.79 22.29 6.86 33.64 9.22 49.13 10.25 100.33 7.17 148.21-9.22l.48-.25c14.37 11.31 26.58 25.23 35.94 41.05z" fill="#ede6e3"/><path d="m241.426 465.42c-5.45 9.31-10.17 19.93-14.04 31.58h-56.02c9.37-15.86 21.63-29.82 36.05-41.15l.37.35c11.06 3.79 22.29 6.86 33.64 9.22z" fill="#d8cec9"/></g><path d="m441.284 146.549c11.307-15.273 17.996-34.171 17.996-54.632 0-50.765-41.153-91.917-91.917-91.917-27.301 0-51.817 11.907-68.652 30.806-16.835-18.899-41.351-30.806-68.652-30.806-50.764 0-91.917 41.152-91.917 91.917 0 20.462 6.689 39.359 17.996 54.632-19.203 4.135-33.598 21.205-33.598 41.644 0 23.531 19.076 42.607 42.607 42.607h267.126c23.531 0 42.607-19.076 42.607-42.607.001-20.439-14.394-37.509-33.596-41.644z" fill="#9d6b6b"/><path d="m263.522 91.917c0 20.459 6.692 39.358 17.993 54.632-19.204 4.139-33.599 21.208-33.599 41.641 0 11.763 4.775 22.419 12.477 30.131 7.72 7.711 18.368 12.477 30.131 12.477h-125.375c-11.763 0-22.411-4.766-30.122-12.477s-12.477-18.368-12.477-30.131c0-20.433 14.394-37.502 33.59-41.641-11.301-15.274-17.993-34.174-17.993-54.632-.001-50.764 41.152-91.917 91.916-91.917 24.223 0 46.268 9.384 62.684 24.711-17.985 16.773-29.225 40.674-29.225 67.206z" fill="#8b5e5e"/><g fill="#ffcbbe"><circle cx="161.191" cy="264.886" r="39.614"/><circle cx="436.237" cy="264.886" r="39.614"/></g><path d="m186.037 275.56c-2.634 0-5.19-1.391-6.562-3.856-2.354-4.233-6.401-6.583-12.371-7.182-4.885-.491-9.113.472-9.153.482-4.025.986-8.084-1.474-9.071-5.496-.987-4.023 1.473-8.084 5.496-9.072.671-.165 6.771-1.589 14.228-.839 10.906 1.095 19.199 6.219 23.98 14.816 2.013 3.62.71 8.187-2.909 10.2-1.154.642-2.405.947-3.638.947z" fill="#eaac9d"/><path d="m411.391 275.56c-1.233 0-2.484-.305-3.639-.947-3.62-2.013-4.922-6.58-2.909-10.2 4.782-8.597 13.074-13.721 23.98-14.816 7.458-.749 13.558.674 14.228.839 4.023.987 6.484 5.049 5.497 9.072-.985 4.013-5.029 6.469-9.041 5.504-.139-.032-4.523-1.024-9.542-.451-5.777.661-9.707 2.998-12.013 7.144-1.37 2.464-3.927 3.854-6.561 3.855z" fill="#eaac9d"/><path d="m416.396 159.45v108.61c0 50.61-34.68 93.13-81.57 105.09h-.01c-8.59 2.19-17.59 3.35-26.86 3.35h-18.48c-59.89 0-108.45-48.55-108.45-108.44v-108.62c6.48 5.465 13.905 9.845 21.995 12.859s16.845 45.533 25.985 45.533c8.49 0 16.64-1.42 24.25-4.04 20.95-7.21 37.67-23.5 45.46-44.18 10.62 28.18 37.82 48.22 69.71 48.22 8.246 0 16.176-42.21 23.588-44.683 9.018-3.01 17.268-7.699 24.382-13.699z" fill="#9d6b6b"/><path d="m334.816 373.15c-8.59 2.19-17.59 3.35-26.86 3.35h-18.48c-59.89 0-108.45-48.55-108.45-108.44v-108.62c6.48 5.465 13.905 9.845 21.995 12.859s16.845 32.138 25.985 32.138c8.49 0 16.64-1.42 24.25-4.04v67.663c0 50.61 34.68 93.12 81.56 105.09z" fill="#8b5e5e"/><path d="m392.011 173.15v81.22c0 20.95-22.33 34.33-40.8 24.45l-1.94-1.04c-29.89-15.98-65.46-16.84-95.97-2.57-1.73.81-3.44 1.66-5.14 2.57l-1.95 1.04c-18.47 9.88-40.79-3.5-40.79-24.45v-81.23c7.41 2.48 15.34 3.82 23.59 3.82 8.5 0 16.67-1.43 24.29-4.05 20.93-7.22 37.63-23.51 45.42-44.17 10.62 28.18 37.82 48.22 69.71 48.22 8.24 0 16.17-1.33 23.58-3.81z" fill="#ffddce"/><path d="m253.301 172.91v102.3c-1.73.81-3.44 1.66-5.14 2.57l-1.95 1.04c-18.47 9.88-40.79-3.5-40.79-24.45v-81.23c7.41 2.48 15.34 3.82 23.59 3.82 8.5 0 16.67-1.43 24.29-4.05z" fill="#ffcbbe"/><g fill="#2b4d66"><path d="m242.819 225.119c-7.236 0-13.123 8.065-13.123 17.979s5.887 17.979 13.123 17.979 13.123-8.065 13.123-17.979-5.887-17.979-13.123-17.979z"/><path d="m354.609 225.119c-7.235 0-13.122 8.065-13.122 17.979s5.887 17.979 13.122 17.979c7.236 0 13.123-8.065 13.123-17.979s-5.886-17.979-13.123-17.979z"/></g><path d="m259.689 211.937c-1.919 0-3.839-.732-5.303-2.197-5.951-5.951-15.634-5.951-21.584 0-2.929 2.929-7.678 2.929-10.606 0-2.929-2.929-2.929-7.678 0-10.607 11.799-11.799 30.999-11.799 42.796 0 2.93 2.929 2.93 7.677.001 10.606-1.465 1.465-3.385 2.198-5.304 2.198z" fill="#eaac9d"/><path d="m371.06 211.937c-1.92 0-3.839-.732-5.304-2.197-2.882-2.883-6.715-4.47-10.791-4.47s-7.909 1.587-10.791 4.47c-2.93 2.929-7.678 2.929-10.607 0s-2.929-7.678 0-10.607c5.716-5.716 13.315-8.864 21.398-8.864s15.683 3.148 21.398 8.864c2.929 2.929 2.929 7.678 0 10.607-1.465 1.464-3.384 2.197-5.303 2.197z" fill="#eaac9d"/><path d="m298.714 314.12c-13.85 0-26.284-9.262-30.237-22.523-1.184-3.969 1.075-8.147 5.045-9.33 3.973-1.183 8.146 1.075 9.33 5.045 2.072 6.953 8.596 11.809 15.862 11.809 7.275 0 13.798-4.853 15.861-11.801 1.178-3.971 5.355-6.235 9.324-5.055 3.971 1.179 6.234 5.354 5.055 9.324-3.938 13.266-16.374 22.531-30.24 22.531z" fill="#8b5e5e"/><path d="m77.667 369.213h27.941v101.412h-27.941z" fill="#365e7d"/><path d="m77.667 369.213h13.26v101.412h-13.26z" fill="#2b4d66"/><path d="m94.191 433.752h-5.106c-12.385 0-22.425 10.04-22.425 22.425v18.398c0 12.385 10.04 22.425 22.425 22.425h5.106c12.385 0 22.425-10.04 22.425-22.425v-18.398c0-12.385-10.04-22.425-22.425-22.425z" fill="#ffddce"/><path d="m102.11 495.555c-2.46.93-5.13 1.44-7.92 1.44h-5.11c-12.38 0-22.42-10.04-22.42-22.42v-18.4c0-12.38 10.04-22.42 22.42-22.42h5.11c2.79 0 5.46.51 7.92 1.44-8.47 3.2-14.5 11.39-14.5 20.98v18.4c0 9.59 6.03 17.78 14.5 20.98z" fill="#ffcbbe"/><path d="m135.574 287.665h-87.872c-14.664 0-26.552 11.888-26.552 26.552v38.677c0 14.664 11.888 26.552 26.552 26.552h87.873c14.664 0 26.552-11.888 26.552-26.552v-38.677c-.001-14.664-11.889-26.552-26.553-26.552z" fill="#ede6e3"/><path d="m75.63 379.454h-27.93c-14.66 0-26.55-11.89-26.55-26.56v-38.67c0-14.67 11.89-26.55 26.55-26.55h27.93c-14.66 0-26.55 11.88-26.55 26.55v38.67c0 14.67 11.89 26.56 26.55 26.56z" fill="#d8cec9"/></g></svg>