<svg id="Capa_1" enable-background="new 0 0 512 512" height="512" viewBox="0 0 512 512" width="512" xmlns="http://www.w3.org/2000/svg"><g><g><path d="m373.179 453.664c-13.805-31.66-40.392-57.291-74.165-69.382h-55.298l-51.253 30.706v78.614l-10.899 10.898h74.55 74.534 53.11c.001-18.061-3.783-35.25-10.579-50.836z" fill="#efedff"/><path d="m224.487 384.282h-11.289c-32.505 11.641-59.806 36.489-74.148 69.383-6.796 15.585-10.579 32.774-10.579 50.834h96.016v-43.511c0-7.533 4.019-14.494 10.543-18.26l21.085-12.174v-46.272z" fill="#d4d4ff"/></g><path d="m256.115 361.202-42.917 23.08c7.535 19.763 22.611 35.415 42.917 46.272 20.305-10.857 35.363-26.511 42.899-46.272z" fill="#c8866a"/><g><path d="m281.474 86.466h-29.226c-19.431 0-37.783 8.93-49.774 24.22l-99.362 126.693 99.362 126.693c11.991 15.289 30.344 24.211 49.774 24.211h29.226c5.971-.998 11.825-2.335 17.54-4.001 51.745-15.093 92.106-56.738 105.409-109.145 3.066-12.078 4.695-24.729 4.695-37.758 0-75.863-55.211-138.831-127.644-150.913z" fill="#db9e82"/><path d="m153.831 237.379c0-75.862 55.214-138.829 127.643-150.913-8.25-1.376-16.72-2.092-25.36-2.092-84.499 0-153.002 68.502-153.002 153.005 0 13.026 1.628 25.671 4.691 37.744 13.305 52.439 53.689 94.079 105.396 109.159 13.615 3.971 28.018 6.099 42.916 6.099 8.641 0 17.11-.721 25.36-2.098-61.812-10.313-111.086-57.68-124.203-118.495-2.255-10.446-3.441-21.289-3.441-32.409z" fill="#c8866a"/></g><g fill="#ffdbe0"><ellipse cx="176.997" cy="316.5" rx="28.882" ry="23"/><ellipse cx="335.115" cy="316.5" rx="29" ry="23"/></g><path d="m303.985 315.693c-6.886 0-13.343-2.954-18.204-7.83-3.614-3.625-8.611-5.868-14.134-5.868-6.275 0-11.871 2.896-15.532 7.423-3.661-4.526-9.257-7.423-15.532-7.423-5.523 0-10.52 2.243-14.134 5.868-4.862 4.876-11.319 7.83-18.204 7.83-3.099 0-5.409 2.842-4.804 5.881 2.733 13.727 14.847 24.073 29.377 24.073 9.412 0 17.806-4.345 23.297-11.134 5.491 6.789 13.885 11.134 23.297 11.134 14.53 0 26.644-10.346 29.377-24.073.605-3.039-1.705-5.881-4.804-5.881z" fill="#ac6757"/><g><path d="m370.206 49.552c-9.653-8.3-19.989-15.372-30.801-21.229l-83.301 101.695v91.523c41.437 34.438 93.843 53.596 148.319 53.596 45.922-73.316 31.38-169.185-34.217-225.585z" fill="#ffce71"/><g><path d="m338.935 28.528c-25.88-14.02-54.509-21.029-83.139-21.028l-126.085 59.088v175.546l27.421 27.421c36.165-7.894 70.031-24.375 98.654-48.16 7.318-6.081 14.3-12.63 20.883-19.645 9.953-10.606 18.796-22.049 26.491-34.138 26.156-41.096 38.912-89.74 35.775-139.084z" fill="#ffb357"/><g><path d="m255.796 7.5c-28.632.002-57.264 7.014-83.145 21.038-10.783 5.843-21.093 12.893-30.722 21.17-65.483 56.292-80.007 151.985-34.175 225.171 16.741 0 33.287-1.813 49.378-5.325-35.735-99.727 6.031-210.658 98.664-262.054z" fill="#fc8a3d"/></g></g></g><g><path d="m201.166 299.5v-12c0-4.142-3.358-7.5-7.5-7.5s-7.5 3.358-7.5 7.5v12c0 4.142 3.358 7.5 7.5 7.5s7.5-3.358 7.5-7.5z"/><path d="m318.564 280c-4.142 0-7.5 3.358-7.5 7.5v12c0 4.142 3.358 7.5 7.5 7.5s7.5-3.358 7.5-7.5v-12c0-4.142-3.358-7.5-7.5-7.5z"/><path d="m303.984 308.193c-4.697 0-9.276-1.998-12.893-5.625-9.579-9.609-24.347-10.574-34.977-3.268-10.625-7.302-25.392-6.347-34.977 3.267-3.616 3.628-8.195 5.625-12.893 5.625-7.824 0-13.69 7.163-12.159 14.845 5.449 27.373 38.191 39.388 60.029 21.985 21.824 17.391 54.578 5.402 60.029-21.984 1.533-7.687-4.339-14.845-12.159-14.845zm-42.038 21.603c-3.001-3.712-8.666-3.706-11.663 0-11.113 13.741-32.982 9.819-38.7-6.778 7.489-.789 14.555-4.22 20.178-9.86 5.229-5.246 13.846-4.806 18.522.977 3.002 3.713 8.667 3.705 11.663 0 4.677-5.783 13.293-6.222 18.523-.976 5.623 5.64 12.688 9.071 20.177 9.859-5.707 16.566-27.571 20.539-38.7 6.778z"/><path d="m411.381 278.129c26.166-42.379 33.906-94.234 21.208-142.476-22.014-83.64-98.013-135.653-176.794-135.653-56.836.003-106.384 25.053-139.909 65.64-2.638 3.194-2.187 7.921 1.006 10.559 3.194 2.638 7.921 2.187 10.559-1.006 32.059-38.814 77.64-60.191 128.345-60.193 26.406 0 52.604 6.292 76.037 18.229 5.445 126.035-93.979 231.856-219.869 234.233-2.896-4.877-5.539-9.877-7.921-14.96h3.735c74.457 0 146.66-40.274 184.257-110.431 1.957-3.651.583-8.197-3.068-10.153-3.649-1.955-8.196-.583-10.153 3.068-34.834 65.002-101.772 102.516-171.036 102.516l-9.898.001c-16.662-46.881-10.667-97.228 13.217-138.72 2.066-3.59.832-8.175-2.758-10.242-3.59-2.066-8.175-.832-10.242 2.758-31.949 55.501-34.732 126.08 2.724 186.701 12.595 48.116 47.091 87.66 92.258 107.002-26.914 14.271-48.6 37.446-60.905 65.667-7.434 17.051-11.204 35.162-11.204 53.832 0 4.142 3.358 7.5 7.5 7.5h255.288c4.143 0 7.5-3.358 7.5-7.5 0-13.057-1.875-25.982-5.573-38.417-1.18-3.97-5.358-6.23-9.326-5.051-3.971 1.181-6.231 5.356-5.051 9.327 2.575 8.661 4.155 17.592 4.718 26.641h-28.877c-1.162-13.17-5.184-25.982-11.822-37.453-2.074-3.586-6.663-4.809-10.248-2.734s-4.809 6.663-2.734 10.248c5.318 9.189 8.624 19.411 9.739 29.939h-100.097v-36.012c0-4.838 2.603-9.346 6.792-11.765l20.981-12.113c19.786-10.606 34.606-25.445 43.253-43.211 23.891 10.172 44.011 27.934 57.139 50.599 2.078 3.584 6.668 4.807 10.249 2.73 3.585-2.076 4.808-6.665 2.731-10.249-12.837-22.161-31.628-40.146-53.985-51.983 45.168-19.339 79.655-58.833 92.234-106.868zm-132.706-67.631c27.276 20.453 59.262 34.037 92.935 39.408.4.064.798.095 1.19.095 3.622 0 6.809-2.629 7.397-6.32.652-4.09-2.135-7.935-6.225-8.587-30.779-4.91-60.031-17.225-85.099-35.725 38.561-44.903 58.37-101.135 58.159-157.389 77.893 50.162 97.69 150.442 53.2 225.618-47.829-.905-94.422-17.293-132.544-46.527 3.771-3.403 7.436-6.928 10.987-10.573zm-47.396 225.735c-8.816 5.09-14.292 14.576-14.292 24.755v36.012h-35.686c1.114-10.529 4.421-20.751 9.738-29.939 2.075-3.585.851-8.173-2.734-10.248-3.584-2.074-8.173-.85-10.248 2.734-6.638 11.471-10.659 24.283-11.822 37.453h-30.035c.858-13.945 4.119-27.482 9.724-40.337 12.302-28.215 35.138-50.768 63.274-62.762 6.951 14.277 17.902 26.659 32.213 36.482zm24.836-14.27c-12.241-7.154-21.998-16.208-28.877-26.682 9.487 1.723 19.147 2.6 28.876 2.6 9.722 0 19.378-.877 28.863-2.6-6.879 10.478-16.631 19.532-28.862 26.682zm-.002-39.082c-65.059 0-119.567-42.619-138.424-100.593 50.132-2.103 98.687-20.101 138.294-51.322 39.693 31.303 88.333 49.351 138.526 51.458-18.86 57.913-73.436 100.457-138.396 100.457z"/><circle cx="256.115" cy="474.5" r="7.5"/></g></g></svg>