<svg id="Capa_1" enable-background="new 0 0 512 512" height="512" viewBox="0 0 512 512" width="512" xmlns="http://www.w3.org/2000/svg"><g><g><path d="m256 309.039v168.19c55.288 0 110.576-5.634 164.999-16.901l.001-.001c16.503-3.416 28.338-17.953 28.338-34.805v-116.483z" fill="#676fb2"/><path d="m62.662 309.039v116.484c0 16.852 11.835 31.389 28.338 34.805l.001.001c54.423 11.267 109.711 16.901 164.999 16.901v-168.19h-193.338z" fill="#4c5699"/></g><g><g><path d="m256 374.421v-.001c-.001 0 .001 0 0 0-18.332 0-35.577 4.841-50.533 13.337-11.617 6.599-21.852 15.412-30.144 25.824v64.626h80.677l20.526-20.526v-62.734z" fill="#ff8e9e"/></g><g><path d="m356.769 455.293c-3.53-15.443-10.577-29.686-20.079-41.677-8.306-10.43-18.542-19.243-30.19-25.859l-50.5-.004v100.454l19.124 16.293h43.191 18.376 22.712v-25.771c0-8.056-.911-15.901-2.634-23.436z" fill="#fce3a0"/><path d="m288.335 423.665h-32.335v21.645l-80.677 32.897v26.293h80.677 19.124v-46.201c0-12.775 4.703-25.104 13.211-34.634z" fill="#ffce71"/></g><g><path d="m175.323 413.581c-9.501 11.991-16.563 26.269-20.092 41.712-1.147 5.014-1.924 10.168-2.322 15.427h40.776v-12.008c0-16.851-6.53-33.149-18.362-45.131z" fill="#ea5b70"/><path d="m152.597 478.729v25.771h41.087v-33.78h-40.776c-.2 2.644-.311 5.314-.311 8.009z" fill="#c8866a"/></g><path d="m256 345.243-50.533 42.514c5.634 26.696 24.791 48.511 50.533 57.553 12.648-4.443 23.698-11.97 32.335-21.645 2.555-2.862 4.899-5.911 7.01-9.124.64-.975 1.26-1.964 1.857-2.968 4.326-7.272 7.5-15.293 9.299-23.817z" fill="#c8866a"/></g><path d="m449.463 180.956h-386.926c-25.791 0-46.698 20.907-46.698 46.698s20.907 46.698 46.698 46.698h386.926c25.791 0 46.698-20.907 46.698-46.698s-20.907-46.698-46.698-46.698z" fill="#c8866a"/><g><path d="m288.218 20.192h-59.099l-166.582 180.778 166.582 190.778h59.099c6.199-1.039 12.298-2.377 18.283-3.991 82.354-22.21 142.962-97.413 142.962-186.787 0-95.868-69.736-165.436-161.245-180.778z" fill="#db9e82"/><path d="m126.712 201.239c0-96.038 69.862-165.749 161.506-181.046-10.479-1.757-21.24-2.686-32.218-2.686-106.596 0-193.463 76.404-193.463 183.463 0 89.567 60.763 164.588 142.93 186.787 16.119 4.355 33.063 6.676 50.533 6.676 10.978 0 21.739-.929 32.218-2.686-91.644-15.298-161.506-94.473-161.506-190.508z" fill="#c8866a"/></g><g><g><g><g><ellipse cx="167.832" cy="279.374" fill="#ffdbe0" rx="30" ry="23.793"/></g><g><ellipse cx="345.168" cy="279.374" fill="#ffdbe0" rx="30" ry="23.793"/></g></g></g></g><g><g><path d="m441.515 127.553c-17.259-38.209-46.034-70.385-82.128-91.783h-147.149v146.976c35.808-8.93 69.75-24.957 99.468-47.259l35.145 35.145c10.73 10.731 24.354 17.518 39.11 19.634v160.051h63.376v-186.455c.001-12.521-2.668-24.898-7.822-36.309z" fill="#676fb2"/></g><path d="m359.387 35.77c-20.973-12.434-44.412-21.238-69.514-25.447-11.177-1.873-22.573-2.823-33.873-2.823-11.299 0-22.696.95-33.872 2.824-68.302 11.451-124.354 56.817-151.643 117.229-5.154 11.41-7.823 23.788-7.823 36.308v186.456h63.376v-159.34h19.431c22.593 0 45.025-2.809 66.769-8.231 3.198-20.383 9.707-40.333 19.487-59.023 26.079-49.836 72.774-75.664 127.662-87.953z" fill="#4c5699"/></g><g><path d="m456.838 173.972v-10.11c0-13.673-2.855-26.928-8.488-39.396-34.381-76.114-109.313-124.466-192.35-124.466-50.494 0-97.36 17.906-133.925 48.07-3.195 2.636-3.648 7.363-1.012 10.558 2.637 3.196 7.366 3.647 10.558 1.012 33.875-27.945 77.36-44.64 124.379-44.64 77.027 0 146.685 44.81 178.68 115.641 4.75 10.515 7.158 21.692 7.158 33.221v202.765c0 4.142 3.357 7.5 7.5 7.5s7.5-3.358 7.5-7.5v-85.289c26.407-3.611 46.823-26.301 46.823-53.683s-20.416-50.073-46.823-53.683zm0 92.185c0-26.99 0-49.273 0-77.004 18.102 3.459 31.823 19.408 31.823 38.502s-13.722 35.043-31.823 38.502z"/><path d="m449.338 389.226c-4.143 0-7.5 3.358-7.5 7.5v28.796c0 13.23-9.403 24.779-22.359 27.462-17.728 3.67-35.792 6.774-53.806 9.248-4.231-28.657-19.336-54.388-42.032-72.018 19.643-7.042 38.211-17.184 54.821-29.95v30.052c0 4.142 3.357 7.5 7.5 7.5s7.5-3.358 7.5-7.5v-200.05c0-3.731-2.742-6.895-6.436-7.424-13.257-1.901-25.315-7.958-34.871-17.514l-29.123-29.123c15.361-12.288 29.443-26.145 41.937-41.285 2.637-3.195 2.185-7.922-1.011-10.559-3.193-2.635-7.921-2.185-10.558 1.011-13.568 16.441-29.11 31.288-46.188 44.125-46.383 34.809-103.825 53.979-161.743 53.979h-19.431c-4.142 0-7.5 3.358-7.5 7.5v199.34c0 4.142 3.358 7.5 7.5 7.5s7.5-3.358 7.5-7.5v-30.055c16.605 12.761 35.164 22.903 54.795 29.948-20.906 16.279-34.879 39.195-40.414 63.411-.649 2.84-1.182 5.734-1.609 8.657-17.693-2.44-35.75-5.559-53.79-9.294-12.956-2.682-22.358-14.231-22.358-27.461 0-11.142 0-233.573 0-244.566v-17.095c0-11.529 2.408-22.706 7.158-33.221 8.419-18.639 19.667-35.813 33.429-51.044 2.777-3.073 2.537-7.816-.537-10.593-3.075-2.777-7.817-2.537-10.593.537-14.807 16.387-26.909 34.867-35.969 54.926-5.632 12.468-8.488 25.723-8.488 39.396v10.11c-26.407 3.611-46.823 26.301-46.823 53.683s20.417 50.073 46.823 53.683v144.185c0 20.307 14.433 38.033 34.318 42.15 18.651 3.861 37.325 7.073 55.617 9.575v27.252c0 4.142 3.358 7.5 7.5 7.5h206.805c4.143 0 7.5-3.358 7.5-7.5v-25.771c0-.498-.023-1.019-.031-1.524 18.628-2.539 37.315-5.736 55.649-9.532 19.885-4.117 34.317-21.843 34.317-42.15v-28.796c.001-4.143-3.357-7.501-7.499-7.501zm-394.176-123.069c-18.102-3.459-31.823-19.408-31.823-38.502s13.722-35.043 31.823-38.502zm78.376 74.709v-142.388h11.931c58.972 0 117.47-18.83 165.484-53.137l30.595 30.595c10.304 10.304 22.962 17.333 36.914 20.554v144.379c-33.756 29.551-76.944 46.064-122.462 46.064-46.626 0-89.51-17.224-122.462-46.067zm162.019 57.157c-7.373 18.301-21.816 32.279-39.557 39.279-18.025-7.119-32.35-21.507-39.566-39.272 12.976 2.593 26.234 3.904 39.566 3.904 13.309-.001 26.563-1.314 39.557-3.911zm-94.584 1.497c6.537 18.841 19.57 34.901 36.507 45.242l-36.296 14.8c0-18.113-6.109-33.992-15.926-46.1 4.741-5.236 10.003-9.887 15.715-13.942zm-14.788 97.48h-26.087v-18.78h26.087zm0-33.78h-24.853c.336-2.111.74-4.2 1.21-6.255 2.507-10.967 7.037-21.582 13.237-31.152 6.677 9.49 10.406 21.071 10.406 32.9zm165.717 33.78h-150.717v-21.239l57.487-23.441c23.955-8.477 43.657-27.55 52.349-52.811 26.142 18.528 40.882 48.258 40.882 79.22v18.271z"/><circle cx="256" cy="208.086" r="10.007"/><path d="m180.852 234.691c-4.142 0-7.5 3.358-7.5 7.5v14.44c0 4.142 3.358 7.5 7.5 7.5s7.5-3.358 7.5-7.5v-14.44c0-4.142-3.358-7.5-7.5-7.5z"/><path d="m331.147 264.132c4.143 0 7.5-3.358 7.5-7.5v-14.44c0-4.142-3.357-7.5-7.5-7.5s-7.5 3.358-7.5 7.5v14.44c0 4.142 3.358 7.5 7.5 7.5z"/><path d="m281.466 261.13c2.722-3.123 2.396-7.86-.726-10.582-3.124-2.722-7.861-2.396-10.582.726-7.499 8.604-20.825 8.596-28.317 0-2.721-3.123-7.46-3.448-10.582-.726-3.123 2.721-3.448 7.459-.726 10.582 13.478 15.464 37.47 15.448 50.933 0z"/></g></g></svg>