<svg id="Capa_1" enable-background="new 0 0 512 512" height="512" viewBox="0 0 512 512" width="512" xmlns="http://www.w3.org/2000/svg"><g><g><g><path d="m255.999 364.187c-16.546 0-32.424 2.883-47.176 8.167-54.892 19.658-93.134 72.04-93.134 132.147h140.311v-140.314z" fill="#ffce71"/><path d="m256 364.187v21.88c-35.265 27.461-57.974 70.287-58.028 118.433h58.028 140.312c0-60.798-38.94-112.719-93.155-132.147-14.75-5.285-30.62-8.166-47.157-8.166z" fill="#fce3a0"/></g><path d="m294.008 423.216h-76.024c-18.635 0-29.651-20.876-19.134-36.259l9.973-14.603 47.177-25.373 47.157 25.373 9.984 14.603c10.518 15.383-.498 36.259-19.133 36.259z" fill="#ffb357"/><path d="m256 346.981-47.177 25.373c8.283 21.724 24.856 38.927 47.177 50.862 22.32-11.935 38.874-29.14 47.157-50.862z" fill="#c8866a"/></g><g fill="#c8866a"><circle cx="87.812" cy="230.869" r="41.815"/><circle cx="424.188" cy="230.869" r="41.815"/></g><g><path d="m283.876 44.979h-32.127c-21.359 0-41.533 9.816-54.714 26.623l-109.223 139.267 109.223 139.267c13.181 16.807 33.355 26.614 54.714 26.614h32.127c6.564-1.097 12.999-2.564 19.281-4.396 69.989-20.415 121.031-85.018 121.031-161.485 0-83.392-60.69-152.609-140.312-165.89z" fill="#db9e82"/><path d="m143.565 210.869c0-83.391 60.694-152.607 140.311-165.89-9.069-1.513-18.379-2.3-27.877-2.3-92.885 0-168.187 75.301-168.187 168.19 0 76.509 51.088 141.091 121.011 161.485 14.967 4.365 30.799 6.702 47.176 6.702 9.498 0 18.808-.793 27.877-2.306-79.618-13.283-140.311-82.493-140.311-165.881z" fill="#c8866a"/></g><path d="m311.004 286.572c-1.486-5.718-3.643-11.263-6.434-16.487-6.749-12.628-18.874-21.427-33.266-24.14-6.125-1.154-12.076 1.591-15.305 6.484-3.229-4.894-9.182-7.639-15.306-6.484-14.392 2.713-26.516 11.512-33.265 24.14-2.791 5.223-4.948 10.768-6.434 16.487-2.478 9.537 4.644 18.863 14.497 18.863 6.782 0 12.806-4.529 14.479-11.102.893-3.508 2.206-6.908 3.916-10.107 2.407-4.505 7.029-7.794 12.364-8.8 4.163-.785 7.589-3.226 9.747-6.507 2.157 3.281 5.583 5.722 9.747 6.507 5.336 1.006 9.958 4.296 12.365 8.799 1.709 3.2 3.022 6.601 3.916 10.108 1.673 6.573 7.697 11.102 14.479 11.102 9.856 0 16.978-9.326 14.5-18.863z" fill="#4c5699"/><path d="m277.184 2.471c-2.777-3.072-7.52-3.312-10.593-.534-4.798 4.338-8.728 9.459-11.695 15.072-1.616-2.148-3.432-4.161-5.453-5.989-8.933-8.077-20.93-12.017-32.913-10.804-4.121.416-7.125 4.095-6.708 8.216s4.099 7.125 8.216 6.708c7.768-.786 15.551 1.769 21.345 7.007s9.117 12.722 9.117 20.532c0 4.142 3.358 7.5 7.5 7.5s7.5-3.358 7.5-7.5c0-11.266 4.793-22.06 13.15-29.616 3.073-2.777 3.312-7.52.534-10.592z" fill="#676fb2"/><g><path d="m406.464 60.405c-40.012-40.012-102.25-47.343-150.464-17.726-6.323-3.884-12.887-7.132-19.61-9.755h-65.664l-45.273 45.273v93.463l35.816 23.895c42.346-18.471 76.619-52.393 94.731-94.807 27.776 65.045 93.562 110.118 168.187 110.119h.001.001c29.618-48.213 22.286-110.451-17.725-150.462z" fill="#676fb2"/><path d="m163.209 102.221c13.678-32.274 40.212-57.393 73.181-69.297-44.542-17.369-96.094-7.28-130.854 27.481-40.011 40.013-47.343 102.25-17.724 150.464 25.962 0 50.864-5.459 73.457-15.313-11.296-30.115-10.69-63.532 1.94-93.335z" fill="#4c5699"/></g><path d="m271 203.373c0 8.284-6.716 15-15 15s-15-6.716-15-15c0-4.766 4.964-25.561 9.181-42.365 1.518-6.049 10.119-6.049 11.637 0 4.218 16.804 9.182 37.599 9.182 42.365z" fill="#ea5b70"/><g><circle cx="291" cy="450.745" r="8.692"/><circle cx="291" cy="488.308" r="8.692"/><path d="m183.551 229c-4.142 0-7.5 3.358-7.5 7.5v12c0 4.142 3.358 7.5 7.5 7.5s7.5-3.358 7.5-7.5v-12c0-4.142-3.358-7.5-7.5-7.5z"/><path d="m328.448 229c-4.142 0-7.5 3.358-7.5 7.5v12c0 4.142 3.358 7.5 7.5 7.5 4.143 0 7.5-3.358 7.5-7.5v-12c0-4.142-3.357-7.5-7.5-7.5z"/><path d="m272.693 238.575c-5.796-1.092-11.814.154-16.694 3.421-4.881-3.267-10.899-4.514-16.694-3.421-21.444 4.042-38.301 18.933-45.415 45.53-3.59 13.418 4.663 26.903 18.79 28.655 11.246 1.397 21.799-5.731 24.562-16.578.747-2.937 1.845-5.771 3.262-8.422 1.326-2.482 4.062-4.384 7.139-4.964 3.026-.571 5.832-1.719 8.357-3.42 2.525 1.701 5.331 2.849 8.357 3.42 3.077.58 5.813 2.482 7.139 4.963 1.417 2.652 2.515 5.486 3.263 8.424 2.766 10.867 13.344 17.973 24.561 16.578 14.111-1.751 22.385-15.22 18.791-28.655-7.103-26.55-23.924-41.479-45.418-45.531zm24.779 59.3c-3.753.468-7.275-1.852-8.177-5.393-1.046-4.108-2.583-8.075-4.569-11.793-3.468-6.488-10.044-11.211-17.59-12.633-1.139-.215-2.18-.673-3.095-1.362-4.734-3.564-11.348-3.565-16.082 0-.916.689-1.957 1.147-3.095 1.362-7.546 1.423-14.122 6.146-17.589 12.635-1.987 3.718-3.524 7.686-4.569 11.792-.902 3.54-4.42 5.855-8.178 5.392-5.008-.622-7.397-5.216-6.146-9.892 4.786-17.89 15.27-31.192 33.703-34.667 2.087-.391 4.176.091 5.881 1.365 4.732 3.537 11.341 3.535 16.072-.001 1.704-1.273 3.792-1.756 5.879-1.364 18.437 3.476 28.917 16.774 33.704 34.667 1.248 4.668-1.133 9.269-6.149 9.892z"/><path d="m256 225.873c12.407 0 22.5-10.093 22.5-22.5 0-1.834 0-6.705-9.407-44.19-1.533-6.107-6.794-10.211-13.093-10.211s-11.561 4.104-13.093 10.211c-9.407 37.485-9.407 42.356-9.407 44.19 0 12.406 10.093 22.5 22.5 22.5zm0-57.196c7.081 28.653 7.493 33.909 7.5 34.698-.001 4.135-3.365 7.498-7.5 7.498-4.136 0-7.5-3.364-7.5-7.497.007-.789.418-6.042 7.5-34.699z"/><path d="m443.833 185.625c12.875-41.038 4.415-85.899-22.096-119.338-2.573-3.245-7.291-3.792-10.536-1.217-3.246 2.573-3.791 7.291-1.218 10.536 28.51 35.963 33.195 86.461 9.948 127.711-67.87-1.604-128.416-41.452-155.881-102.695 3.745-9.231 6.791-18.964 9.056-28.989.913-4.04-1.622-8.056-5.663-8.968-4.037-.915-8.055 1.623-8.968 5.663-18.02 79.745-88.686 133.157-166.408 134.991-43.467-77.136 12.814-171.226 99.977-171.226 21.87 0 41.3 5.841 60.133 17.03 2.455 1.459 5.442 1.358 7.749-.053 40.974-25.172 92.779-21.885 130.047 6.807 3.282 2.527 7.993 1.915 10.518-1.368 2.527-3.282 1.915-7.991-1.367-10.518-37.359-28.763-88.619-35.509-133.147-15.106 2.212-5.999 5.843-11.453 10.674-15.821 3.073-2.778 3.312-7.521.534-10.593s-7.521-3.312-10.593-.534c-4.798 4.338-8.728 9.459-11.695 15.072-9.17-12.186-23.858-18.261-38.367-16.793-4.121.416-7.125 4.095-6.708 8.216s4.1 7.125 8.216 6.708c7.767-.786 15.551 1.769 21.345 7.007 1.95 1.763 3.612 3.784 4.97 5.983-102.031-45.079-209.392 51.641-176.186 157.495-17.806 7.696-29.67 25.298-29.67 45.244 0 30.564 26.41 53.294 55.786 48.742 12.901 30.36 33.948 56.322 61.174 75.351 10.39 7.262 21.423 13.316 32.933 18.121-25.801 13.326-47.327 34.085-61.581 59.676-2.016 3.619-.716 8.186 2.903 10.202 3.623 2.017 8.188.713 10.202-2.903 11.783-21.156 29.096-38.634 49.837-50.623-6.413 20.484 6.471 41.281 28.232 41.281h30.517v66.284h-79.957c.239-18.742 1.377-36.905 3.465-55.292.467-4.116-2.49-7.831-6.606-8.298-4.114-.463-7.831 2.49-8.298 6.606-2.153 18.953-3.321 37.671-3.561 56.985h-30.144c.589-10.487 2.414-20.836 5.447-30.856 1.2-3.964-1.041-8.151-5.005-9.351-3.964-1.201-8.151 1.04-9.351 5.005-4.181 13.812-6.301 28.179-6.301 42.702 0 4.142 3.358 7.5 7.5 7.5h280.623c4.143 0 7.5-3.358 7.5-7.5 0-30.439-9.233-59.701-26.703-84.62-13.933-19.875-32.237-35.833-53.516-46.798 11.43-4.771 22.392-10.774 32.723-17.968 27.334-19.033 48.459-45.048 61.401-75.503 29.357 4.551 55.788-18.152 55.788-48.742-.002-19.946-11.866-37.549-29.672-45.245zm-390.336 45.244c0-13.633 7.965-25.689 19.986-31.187 2.039 4.583 4.33 9.031 6.852 13.296.209 17.844 3.071 35.331 8.527 52.136-18.956 1.142-35.365-13.939-35.365-34.245zm252.989 159.545c5.943 11.441.553 25.302-12.479 25.302h-13.417c10.017-8.366 18.113-18.068 24.059-28.837zm-50.486 24.219c-14.294-8.283-25.572-18.892-33.303-31.223 10.885 2.084 22.024 3.146 33.302 3.146 11.27 0 22.404-1.061 33.287-3.146-7.73 12.337-19.002 22.946-33.286 31.223zm-50.496-24.215 1.834-3.527c5.946 10.763 14.045 20.46 24.066 28.825h-13.42c-13.036 0-18.426-13.868-12.48-25.298zm183.092 106.582h-30.156c-.248-18.987-1.433-38.116-3.541-56.972-.459-4.116-4.15-7.082-8.286-6.621-4.116.46-7.081 4.17-6.621 8.287 2.046 18.305 3.201 36.874 3.448 55.306h-52.44-27.5v-66.284h30.507c21.863 0 34.579-20.882 28.246-41.231 38.355 22.264 63.767 62.874 66.343 107.515zm-132.597-125.444c-83.643 0-156.614-66.005-160.522-153.353 66.245-2.609 128.369-39.843 160.43-100.142 30.421 57.037 90.901 97.378 160.617 100.149-3.91 87.23-76.782 153.346-160.525 153.346zm167.137-106.441c5.458-16.806 8.319-34.293 8.528-52.136 2.522-4.265 4.813-8.712 6.852-13.296 12.02 5.497 19.986 17.553 19.986 31.187.001 20.311-16.415 35.39-35.366 34.245z"/></g></g></svg>