<svg id="Capa_1" enable-background="new 0 0 512 512" height="512" viewBox="0 0 512 512" width="512" xmlns="http://www.w3.org/2000/svg"><g><path d="m488.024 357.972-20.85-162.659c-7.755-60.501-40.574-112.99-87.564-146.981l-42.16-20.774h-80.549v476.942h102.178c78.358 0 138.908-68.806 128.945-146.528z" fill="#ff8e9e"/><g><path d="m67.023 223.018-13.651 141.906c-2.733 28.41 6.331 55.69 25.521 76.815 19.191 21.126 45.478 32.76 74.019 32.76h103.088v-251.481z" fill="#d34459"/><path d="m458.268 361.786-17.788-138.768h-184.48v251.482h103.079c28.729 0 56.092-12.37 75.071-33.937s27.77-50.281 24.118-78.777z" fill="#ea5b70"/></g><ellipse cx="441.63" cy="282.021" fill="#ffce71" rx="44.781" ry="44.781" transform="matrix(.987 -.16 .16 .987 -39.472 74.383)"/><g><g><path d="m304.464 402.146c-14.59-8.281-31.116-12.796-48.465-12.796-3.425 0-6.81.176-10.146.52l-4.842 4.842v109.789h67.592c0-3.653 0-73.231 0-95.998z" fill="#fed2a4"/><path d="m257.073 493.38c-12.818-42.346-11.149-72.519-11.149-103.508-13.838 1.416-26.834 5.702-38.408 12.274l-4.144 6.395v95.959h57.066z" fill="#ffbd86"/></g><g><path d="m241.01 431.25v52.834h67.592c0-13.935 0-35.66 0-52.834z" fill="#fed2a4"/><path d="m246.766 438.324-5.755-7.074h-37.638v52.834h48.782v-9.574c-2.921-13.04-4.553-24.941-5.389-36.186z" fill="#ffbd86"/></g><g><path d="m256 474.541c-1.241 0-2.599-.012-3.845-.031l-11.145 11.169v18.821h67.592v-35.455c-17.205 3.645-34.857 5.496-52.602 5.496z" fill="#ff8e9e"/><path d="m203.372 504.5h57.066l-3.365-11.12c-1.988-6.567-3.568-12.839-4.918-18.87-16.248-.259-32.922-2.136-48.782-5.479-.001 17.324-.001 32.343-.001 35.469z" fill="#ea5b70"/></g><g><path d="m304.464 402.146c-14.59-8.281-31.116-12.796-48.465-12.796-3.401 0-6.762.174-10.075.513v.01l-4.914 4.839v36.539l5.755 7.074c3.069.129 6.145.217 9.234.217 17.971 0 35.606-2.185 52.602-6.428 0-9.582 0-18.013 0-23.61z" fill="#ffce71"/><path d="m245.924 389.872v-.01c-.024.002-.048.004-.072.006l-.013.013c-13.806 1.425-26.773 5.705-38.323 12.264l-4.144 6.395v23.563c14.083 3.519 28.607 5.6 43.393 6.22-1.27-17.082-.841-32.662-.841-48.451z" fill="#ffb357"/></g><g><path d="m178.674 426.837c-13.65 17.14-21.832 38.892-21.832 62.539v15.124h63.493c-8.483-28.024-12.795-57.145-12.795-86.425l-.024-15.929c-11.12 6.313-20.896 14.714-28.842 24.691z" fill="#ff8e9e"/><path d="m333.326 426.837c13.65 17.14 21.832 38.892 21.832 62.539v15.124h-63.493c8.483-28.024 12.794-57.145 12.794-86.425l.005-15.929c11.121 6.313 20.916 14.714 28.862 24.691z" fill="#ffb5c0"/></g></g><path d="m441.63 178.24h-31.986v89.562h31.986c24.732 0 44.781-20.049 44.781-44.781s-20.049-44.781-44.781-44.781z" fill="#ffbd86"/><g><g><path d="m256 97.243-185.521 125.777 159.743 182.946h56.673c5.952-.998 11.823-2.27 17.568-3.82 78.963-21.305 137.057-93.428 137.057-179.125 0-.001 0-.002 0-.003z" fill="#fed2a4"/><path d="m132.236 214.233-19.715-19.715-42.042 28.502c0 85.887 58.248 157.836 137.037 179.126 15.46 4.178 31.728 6.395 48.483 6.395 10.528 0 20.847-.89 30.896-2.575-91.028-15.195-154.659-95.297-154.659-191.733z" fill="#ffbd86"/></g><g><path d="m326.61 197.869c3.173-1.335 3.503-1.509 18.367-8.259l-12.406-27.315c-23.04 10.465-34.234 16.138-51.953 18.491h-.001l-14.629 5.184v25.524h5.012c9.098-.752 18.153-2.193 27.087-4.316 3.15 10.086 11.877 13.193 19.128 10.931 7.908-2.47 12.316-10.882 9.847-18.79z" fill="#ffce71"/><path d="m280.616 180.785c-6.868.912-14.717 1.325-24.616 1.325-35.972-.155-59.579-12.098-76.568-19.817l-12.409 27.313c14.846 6.745 15.186 6.924 18.368 8.262l-.453 1.45c-2.469 7.908 1.939 16.32 9.847 18.79 6.9 2.152 15.872-.505 19.127-10.928 8.934 2.123 17.988 3.563 27.088 4.315v3.008c0 8.284 6.716 15 15 15s15-6.716 15-15v-3.01-14.798c0-6.678 3.703-12.805 9.616-15.91z" fill="#ffb357"/></g></g><g><path d="m286.896 40.075h-30.896v82.757c39.117 60.016 108.126 100.129 185.52 100.185-.001-91.93-66.873-168.23-154.624-182.942z" fill="#676fb2"/><path d="m199.646 40.075-67.405 79.787v94.37c51.621-14.756 95.494-47.363 123.759-91.4 15.701-24.462 25.686-52.938 30.896-82.757z" fill="#4c5699"/></g><path d="m253.416 7.5c-111.725 0-203.995 85.206-214.52 194.614l-15.386 159.938c-7.346 76.363 52.687 142.448 129.402 142.448h67.423c-48.412-8.081-85.693-49.068-88.097-99.206-.001 0-.002 0-.003 0v-191.061c.002 0 .003-.001.005-.001 4.22-88.016 69.668-159.97 154.655-174.156 29.9-4.919 62.121-2.626 92.715 8.256-35.528-25.701-79.154-40.832-126.194-40.832z" fill="#ea5b70"/><g><g><g><g><ellipse cx="161.443" cy="279.839" fill="#ff8e9e" rx="29.355" ry="23.377"/></g><g><ellipse cx="350.557" cy="279.839" fill="#ff8e9e" rx="29.355" ry="23.377"/></g></g></g></g><g><path d="m495.464 357.018-6.706-52.315c7.953-16.512 6.761-36.48-3.992-52.185 5.764-8.402 9.145-18.561 9.145-29.497 0-17.321-8.473-32.693-21.486-42.212-19.916-103.903-111.382-180.809-219.009-180.809-60.343 0-116.876 23.736-159.184 66.837-2.902 2.956-2.858 7.705.098 10.606 2.956 2.902 7.705 2.857 10.606-.098 39.465-40.204 92.196-62.345 148.48-62.345 28.113 0 55.066 5.584 79.712 15.772-109.598-8.983-203.058 75.178-208.366 182.84-.039.487-.025 191.193-.025 191.682 0 .12.005.24.011.36 1.736 36.217 21.113 71.122 54.386 91.346h-26.221c-67.554 0-122.513-54.863-122.513-122.298 0-3.954.193-7.968.575-11.932l15.386-159.938c3.602-37.441 17.359-73.229 39.785-103.493 2.466-3.328 1.768-8.025-1.561-10.491s-8.025-1.767-10.491 1.561c-24.048 32.454-38.802 70.833-42.664 110.987l-15.386 159.937c-.427 4.439-.644 8.938-.644 13.369 0 75.706 61.688 137.298 137.513 137.298h206.167c39.83 0 77.659-17.244 103.789-47.311 2.717-3.126 2.385-7.863-.741-10.581-3.125-2.715-7.861-2.386-10.581.742-22.495 25.885-54.725 41.099-88.889 42.095v-7.568c0-33.175-15.461-64.509-41.112-84.75 40.163-14.476 73.551-41.653 96.071-76.168 8.955 4.649 19.128 6.658 29.526 5.522l3.686 28.76c3.379 26.36-4.752 52.919-22.308 72.869-2.737 3.109-2.435 7.849.675 10.585 3.112 2.737 7.85 2.433 10.585-.676 20.403-23.185 29.853-54.051 25.927-84.686l-3.929-30.652c5.069-2.127 9.697-4.917 14.017-8.623l4.79 37.369c.674 5.249 1.015 10.569 1.015 15.812 0 19.728-4.877 39.385-14.104 56.846-1.936 3.662-.535 8.2 3.127 10.135 3.658 1.935 8.198.538 10.135-3.126 10.362-19.614 15.841-41.694 15.841-63.856 0-5.879-.382-11.841-1.136-17.72zm-16.553-133.997c0 19.279-14.711 35.187-33.497 37.09 2.365-12.056 3.606-24.463 3.606-37.091 0-12.525-1.23-24.942-3.61-37.089 18.788 1.9 33.501 17.809 33.501 37.09zm-159.008-21.467c2.805 8.987-11.058 14.916-14.657 3.388-1.174-3.761-5.06-5.976-8.893-5.062-8.528 2.026-17.266 3.418-25.972 4.138-3.889.322-6.882 3.572-6.882 7.475v3.01c0 4.136-3.364 7.5-7.5 7.5s-7.5-3.364-7.5-7.5v-3.008c0-3.903-2.993-7.153-6.883-7.475-8.704-.719-17.442-2.111-25.972-4.137-3.832-.913-7.719 1.3-8.893 5.062-3.586 11.485-17.466 5.607-14.656-3.391.506-1.621 1.248-3.399.434-5.955 6.299-3.928 12.396-8.15 18.259-12.664 32.036 9.608 68.341 8.272 91.484.449 5.582 4.255 11.349 8.238 17.277 11.948-.955 2.661-.154 4.596.354 6.222zm-63.858-65.446c9.405 12.97 20.179 24.918 32.207 35.689-14.979 3.425-40.808 4.388-63.359-.683 11.551-10.508 22.005-22.224 31.152-35.006zm8.88-13.425c12.966-21.389 22.339-46.179 27.939-73.845 79.739 16.705 137.568 85.028 140.992 166.525-67.9-2.514-130.973-37.239-168.931-92.68zm190.351 49.875c-4.304-1.165-8.823-1.8-13.487-1.814-7.51-26.687-20.722-51.652-38.963-73.007-19.329-22.629-43.507-40.356-70.417-51.98 15.062 1.278 29.944 4.45 44.225 9.485 38.235 28.045 66.674 69.015 78.642 117.316zm-177.896-122.938c-17.214 79.073-71.364 131.792-136.784 154.125 8.237-74.73 63.654-137.165 136.784-154.125zm-137.644 327.483c15.583 11.791 32.657 21.027 50.664 27.539-16.06 12.653-28.186 29.656-34.953 48.951-9.358-14.458-14.86-31.246-15.711-48.53zm86.225 119.897c-1.685-5.961-3.12-11.722-4.329-17.266 23.085 3.063 45.691 3.076 68.717.026-1.205 5.548-2.634 11.302-4.311 17.24zm67.317-32.81c-24.909 3.81-49.535 3.794-74.582-.025-1.235-7.726-2.062-14.968-2.613-21.714 25.48 4.568 52.434 4.909 79.82.001-.555 6.731-1.388 13.992-2.625 21.738zm3.721-52.513c.009 4.564-.021 9.694-.209 15.365-26.801 5.287-54.773 5.288-81.575.002-.181-5.556-.216-10.67-.215-15.331 27.92 6.043 56.122 5.586 81.999-.036zm-130.162 56.356c4.848-20.642 16.607-38.935 33.177-51.869.129 18.856 1.31 45.653 9.692 78.17-16.22-4.868-31.059-13.942-42.869-26.301zm180.82 21.343v7.624h-46.055c9.083-33.905 10.292-61.534 10.391-80.808 22.246 17.415 35.664 44.498 35.664 73.184zm-91.591-88.31c-42.382 0-83.639-15.025-116.329-43.251v-138.003c12.867-4.022 25.256-9.129 37.045-15.233.335 9.273 6.42 17.769 15.77 20.689 8.71 2.716 19.602.046 25.609-9.472 5.183 1.055 10.419 1.896 15.662 2.515 1.815 10.599 11.069 18.691 22.178 18.691s20.364-8.094 22.178-18.694c5.244-.619 10.479-1.46 15.661-2.515 6.007 9.521 16.902 12.191 25.612 9.474 9.435-2.947 15.554-11.573 15.783-20.948 30.414 15.861 64.225 24.862 98.634 26.051-3.767 91.372-78.248 170.696-177.803 170.696zm169.27-85.509c6.936-12.678 12.48-26.173 16.454-40.26 12.24-.037 23.495-4.308 32.395-11.413 18.234 32.679-17.351 67.253-48.849 51.673z"/><path d="m188.551 248.767c-4.142 0-7.5 3.358-7.5 7.5v12c0 4.142 3.358 7.5 7.5 7.5s7.5-3.358 7.5-7.5v-12c0-4.142-3.358-7.5-7.5-7.5z"/><path d="m323.449 248.767c-4.142 0-7.5 3.358-7.5 7.5v12c0 4.142 3.358 7.5 7.5 7.5s7.5-3.358 7.5-7.5v-12c0-4.142-3.358-7.5-7.5-7.5z"/><path d="m277.392 262.255c-3.123-2.721-7.861-2.396-10.582.727-5.725 6.57-15.901 6.564-21.62 0-2.722-3.123-7.459-3.448-10.582-.727-3.123 2.722-3.448 7.459-.727 10.582 11.705 13.43 32.544 13.416 44.237 0 2.722-3.123 2.397-7.86-.726-10.582z"/></g></g></svg>