<svg id="Capa_1" enable-background="new 0 0 512 512" height="512" viewBox="0 0 512 512" width="512" xmlns="http://www.w3.org/2000/svg"><g><g><path d="m296.649 390.471c-2.534-.907-5.108-1.729-7.716-2.468-10.49-2.976-21.552-4.577-32.983-4.577l-55.072 40.537v80.537h176.147c0-52.026-33.18-97.133-80.376-114.029z" fill="#db9e82"/><path d="m255.951 383.425c-29.359 0-56.315 10.514-77.302 27.972v43.762l32.775-.005c14.484-32.29 42.736-57.28 77.51-67.151-10.491-2.977-21.553-4.578-32.983-4.578z" fill="#c8866a"/></g><g><path d="m211.424 455.154-36.415 23.476 25.87 25.87h131.232c-45.487 0-88.772-18.4-120.687-49.346z" fill="#d4d4ff"/><path d="m178.648 411.398c-26.727 22.231-43.77 55.72-43.77 93.103h66c0-17.51 3.764-34.229 10.545-49.346-13.026-12.632-24.16-27.331-32.775-43.757z" fill="#9ea2e3"/></g><g><g fill="#c8866a"><circle cx="110.824" cy="251.129" r="36.081"/><circle cx="401.08" cy="251.129" r="36.081"/></g><g><path d="m280.005 107.984h-27.722c-18.43 0-35.838 8.47-47.212 22.973l-94.247 120.172 94.247 120.172c11.374 14.502 28.782 22.965 47.212 22.965h27.722c5.664-.947 11.217-2.212 16.638-3.794 60.393-17.616 104.437-73.361 104.437-139.343 0-12.358-1.545-24.356-4.451-35.81-14.019-55.239-59.718-97.842-116.624-107.335z" fill="#db9e82"/><path d="m158.933 251.129c0-71.957 52.372-131.683 121.073-143.145-7.825-1.306-15.859-1.984-24.055-1.984-67.792 0-124.729 46.484-140.675 109.32-2.907 11.454-4.451 23.451-4.451 35.809 0 66.019 44.083 121.746 104.419 139.343 12.915 3.767 26.576 5.783 40.708 5.783 8.196 0 16.229-.684 24.055-1.99-68.702-11.461-121.074-71.181-121.074-143.136z" fill="#c8866a"/></g></g><g><path d="m115.295 84.11-.019 131.209c86.647-51.925 194.705-51.925 281.353 0l.159-131.209z" fill="#9ea2e3"/><path d="m441.422 131.534c-3.641-23.077-27.79-51.409-63.348-66.072l-82.036-.029-40 45.519c57.77 26.75 100.534 53.876 140.59 104.368 17.211-8.71 32.39-21.418 40.267-39.696 5.407-12.546 7.45-27.275 4.527-44.09z" fill="#d4d4ff"/><g><path d="m349.599 24.462c-20.582-7.549-44.414-12.912-66.461-15.433-8.745-.99-17.785-1.529-27.12-1.528l-124.944 46.611 36.269 109.269c28.262-21.861 60.416-40.629 96.785-55.919 36.831-15.895 78.072-28.149 113.946-42 0-18.272-11.321-34.708-28.475-41z" fill="#efedff"/><path d="m256.018 7.501c-37.636-.098-74.559 9.123-103.008 24.43-55.87 29.226-81.346 74.631-83.639 109.827-2.519 33.491 15.838 58.099 45.905 73.561 14.509-18.861 30.309-35.107 52.068-51.938-6.088-61.267 27.194-121.64 88.674-155.88z" fill="#d4d4ff"/></g></g><g><path d="m285.952 309.667h-60c-16.569 0-30 12.386-30 40 0 31.094 16.953 65.006 35.617 59.112 5.444 12.643 14.333 20.888 24.383 20.888s18.939-8.245 24.383-20.888c18.663 5.894 35.617-28.016 35.617-59.112 0-27.615-13.432-40-30-40z" fill="#d4d4ff"/><path d="m319.759 330.206c-1.723-6.645-4.228-13.088-7.471-19.157-7.828-14.646-21.891-24.852-38.583-27.999-7.104-1.339-14.007 1.845-17.751 7.521-3.745-5.676-10.65-8.86-17.752-7.521-16.692 3.146-30.754 13.352-38.582 27.999-3.243 6.068-5.747 12.511-7.471 19.156-2.866 11.048 5.409 21.844 16.822 21.844 7.864 0 14.856-5.252 16.795-12.874 1.036-4.069 2.559-8.015 4.542-11.726 2.792-5.225 8.153-9.04 14.341-10.207 4.829-.911 8.803-3.771 11.305-7.577 2.502 3.806 6.476 6.667 11.305 7.577 6.189 1.167 11.55 4.983 14.342 10.205 1.983 3.712 3.506 7.658 4.542 11.727 1.94 7.622 8.931 12.874 16.795 12.874 11.413.002 19.687-10.794 16.821-21.842z" fill="#efedff"/></g><path d="m270.952 226.373c0 8.284-6.716 15-15 15s-15-6.716-15-15c0-4.766 4.964-25.561 9.181-42.365 1.518-6.049 10.119-6.049 11.637 0 4.217 16.804 9.182 37.599 9.182 42.365z" fill="#ea5b70"/><g><path d="m417.86 210.927c26.261-20.03 36.447-48.949 30.962-80.621-4.204-26.447-30.023-54.646-63.505-69.867-1.911-19.356-14.738-36.27-33.135-43.019-27.703-10.16-63.519-17.42-96.147-17.42-58.778-.044-109.343 20.074-145.511 52.064-3.103 2.744-3.394 7.484-.649 10.586 2.743 3.103 7.483 3.394 10.586.649 33.766-29.865 80.939-48.341 135.557-48.299 30.491 0 64.514 6.788 90.998 16.502 12.509 4.589 21.374 15.86 23.207 28.927-12.691 4.787-25.875 9.369-39.733 14.186-49.878 17.337-152.799 50.654-217.183 131.063-47.407-27.904-45.65-79.135-12.48-121.607 2.549-3.265 1.97-7.978-1.295-10.527s-7.978-1.969-10.527 1.295c-35.105 44.951-39.352 101.266 5.264 135.999-16.557 6.789-27.026 22.828-27.026 40.291 0 23.503 18.71 42.94 42.466 43.556 12.593 42.098 43.104 78.108 85.561 96.5-41.543 22.303-67.891 65.77-67.891 113.315 0 4.142 3.358 7.5 7.5 7.5h242.146c4.143 0 7.5-3.358 7.5-7.5 0-19.783-4.413-38.794-13.115-56.503-1.828-3.718-6.322-5.249-10.039-3.423-3.718 1.827-5.25 6.321-3.424 10.039 6.577 13.384 10.378 27.61 11.336 42.388h-30.027c-1.343-14.906-6.614-29.062-15.467-41.316-2.427-3.358-7.114-4.113-10.472-1.687-3.357 2.426-4.112 7.114-1.687 10.472 6.948 9.617 11.212 20.661 12.534 32.309-55.789-2.791-107.908-34.723-135.89-83.43 5.062-3.765 10.475-7.134 16.199-10.055 5.648 7.554 13.359 13.66 22.749 13.67 14.789 26.925 42.654 26.954 57.458 0 9.388-.014 17.096-6.117 22.742-13.665 13.348 6.829 25.401 16.363 35.131 27.834 2.677 3.156 7.41 3.549 10.571.868 3.158-2.679 3.548-7.412.868-10.571-10.426-12.292-23.219-22.611-37.379-30.235 42.468-18.389 72.986-54.404 85.58-96.509 23.799-.619 42.466-20.092 42.466-43.556.002-17.255-10.253-33.309-26.799-40.203zm-335.617 40.202c0-14.017 10.212-25.886 23.679-28.177-3.573 19.044-3.41 38.119.043 56.362-13.403-2.258-23.722-14.069-23.722-28.185zm178.339 245.871h-117.955c1.873-28.261 14.259-54.432 34.055-73.759 19.701 33.11 49.466 58.743 83.9 73.759zm-4.589-377.793c42.159 19.712 76.773 39.933 108.675 71.543-69.64-29.264-148.041-29.232-217.662.096 30.469-29.476 69.926-53.961 108.987-71.639zm7.459 107.168c-.001 4.135-3.365 7.498-7.5 7.498-4.136 0-7.5-3.364-7.5-7.497.007-.789.418-6.042 7.5-34.699 7.081 28.653 7.493 33.909 7.5 34.698zm19.142 175.252c-3.673-1.161-7.625.65-9.147 4.186-9.358 21.733-25.629 21.736-34.988 0-1.522-3.536-5.477-5.343-9.147-4.186-9.668 3.062-22.44-17.783-25.302-42.578 13.126 2.638 25.811-5.394 29.024-18.023.892-3.501 2.2-6.879 3.889-10.041 1.731-3.24 5.139-5.621 9.116-6.371 3.637-.686 6.999-2.141 9.915-4.249 2.916 2.108 6.278 3.563 9.916 4.249 3.977.75 7.385 3.131 9.116 6.369 1.689 3.162 2.998 6.541 3.89 10.043 3.219 12.649 15.917 20.653 29.021 18.023-2.848 24.646-15.58 45.653-25.303 42.578zm20.343-57.077c-4.527 0-8.445-2.97-9.527-7.224-1.189-4.672-2.937-9.184-5.196-13.413-3.854-7.208-11.168-12.456-19.566-14.039-2.638-.498-4.92-2.034-6.428-4.327-2.963-4.506-9.577-4.497-12.534 0-1.507 2.293-3.79 3.83-6.427 4.327-8.399 1.583-15.714 6.833-19.566 14.042-2.258 4.226-4.007 8.738-5.196 13.411-1.082 4.253-5 7.223-9.526 7.223-6.495 0-11.201-6.147-9.562-12.461 1.582-6.1 3.879-11.989 6.826-17.504 6.751-12.633 18.909-21.44 33.356-24.164 3.932-.742 7.898.939 10.103 4.282 2.958 4.482 9.556 4.493 12.52 0 2.205-3.341 6.17-5.021 10.102-4.281 14.448 2.724 26.606 11.531 33.357 24.163 2.948 5.518 5.245 11.407 6.826 17.505 1.638 6.312-3.066 12.46-9.562 12.46zm17.887 27.981c2.461-10.739 2.837-21.417 2.575-23.722 4.141-5.982 5.465-13.372 3.62-20.486-1.879-7.245-4.61-14.246-8.116-20.809-8.905-16.661-24.873-28.264-43.809-31.833-6.837-1.289-13.715.333-19.141 4.235-5.425-3.902-12.305-5.523-19.142-4.235-18.936 3.569-34.903 15.172-43.808 31.834-3.506 6.561-6.237 13.562-8.116 20.808-1.845 7.113-.523 14.501 3.617 20.483-.151 1.318-.199 11.625 2.574 23.725-54.241-28.976-83.304-91.355-69.253-152.362 37.45-21.855 78.8-33.858 120.536-35.997-8.903 35.649-8.909 40.4-8.909 42.201 0 12.407 10.093 22.5 22.5 22.5s22.5-10.093 22.5-22.5c0-1.801-.007-6.552-8.909-42.2 41.736 2.139 83.086 14.141 120.536 35.997 14.048 61.006-15.015 123.386-69.255 152.361zm77.72-166.781c-36.977-45.052-75.832-70.813-124.252-94.432 19.917-8.19 39.054-14.862 61.123-22.533 14.826-5.154 28.879-10.044 42.496-15.233 34.399 15.141 53.46 41.738 56.123 59.267 5.193 29.88-5.789 55.818-35.49 72.931zm7.395 73.563c3.453-18.242 3.615-37.317.043-56.361 13.458 2.289 23.679 14.149 23.679 28.177 0 14.156-10.354 25.932-23.722 28.184z"/><path d="m193.427 252.771c-4.142 0-7.5 3.358-7.5 7.5v12c0 4.142 3.358 7.5 7.5 7.5s7.5-3.358 7.5-7.5v-12c0-4.143-3.358-7.5-7.5-7.5z"/><path d="m318.324 252.771c-4.142 0-7.5 3.358-7.5 7.5v12c0 4.142 3.358 7.5 7.5 7.5s7.5-3.358 7.5-7.5v-12c0-4.143-3.358-7.5-7.5-7.5z"/></g></g></svg>