<svg id="Capa_1" enable-background="new 0 0 512 512" height="512" viewBox="0 0 512 512" width="512" xmlns="http://www.w3.org/2000/svg"><g><path d="m284.413 28.844-16.725-16.456c-3.213-3.259-7.292-4.888-11.688-4.888-4.395 0-9.107 1.629-12.319 4.888l-16.094 16.456c-7.678 7.648-15.316 18.835-15.316 30.701 0 28.777 21.306 45.921 43.729 45.921 18.569 0 34.423-11.579 40.766-27.907 2.837-7.304 2.964-12.912 2.964-18.014-.001-11.866-7.64-23.053-15.317-30.701z" fill="#4c5699"/><g><path d="m365.637 382.522h-14.611c-9.206 0-17.773-4.654-22.914-12.448-6.723-10.193-15.357-18.741-24.841-24.865h-80.721v53.632h87.156c11.057 10.427 25.811 16.479 41.32 16.479h14.611c9.057 0 16.399-7.342 16.399-16.398s-7.343-16.4-16.399-16.4z" fill="#fed2a4"/><path d="m208.752 345.208c-9.733 6.371-18.236 14.816-24.864 24.864-5.142 7.796-13.708 12.449-22.914 12.449h-14.611c-9.057 0-16.399 7.342-16.399 16.398s7.342 16.399 16.399 16.399h14.611c20.262 0 39.062-10.164 50.292-27.188z" fill="#ffbd86"/></g><g><path d="m309.706 398.84-27.06-8.531c-17.302-5.456-32.386-16.34-43.015-31.042h-17.081v84.363h87.371v-32.799c0-4.013-.079-8.144-.215-11.991z" fill="#ff8f71"/><path d="m287.648 421.955c-26.515-.001-48.018-21.496-48.018-48.012v-14.676c-4.637-5.563-8.497-13.803-10.831-24.654-7.212 2.586-13.957 6.2-20.047 10.595-4.243 21.329-6.683 41.948-6.683 65.624v.001 14.708c-18.375 6.386-30.898 20.675-30.898 37.683l169.657.002c0-22.88-22.688-41.271-53.18-41.271z" fill="#ff6f4d"/></g><g><path d="m376.256 220.417h-240.512c-18.113 0-32.797 14.684-32.797 32.797 0 18.114 14.684 32.797 32.797 32.797h240.512c18.113 0 32.797-14.683 32.797-32.797 0-18.113-14.684-32.797-32.797-32.797z" fill="#ffbd86"/><path d="m277.29 99.023h-24.537c-16.313 0-31.721 7.497-41.788 20.334l-83.42 106.366 83.42 106.366c10.067 12.836 25.475 20.327 41.788 20.327h24.537c9.008-1.506 17.714-3.935 25.98-7.207 47.594-18.841 81.184-65.261 81.184-119.486.001-63.692-46.352-116.556-107.164-126.7z" fill="#fed2a4"/><path d="m170.127 225.723c0-63.69 46.355-116.555 107.163-126.7-6.926-1.156-14.037-1.756-21.291-1.756-70.942 0-128.454 57.511-128.454 128.456 0 70.942 57.512 128.454 128.454 128.454 7.254 0 14.365-.606 21.291-1.761-60.808-10.145-107.163-63.005-107.163-126.693z" fill="#ffbd86"/></g><g><path d="m223.919 504.498c-29.578 0-52.747-18.131-52.747-41.273 0-9.057 7.342-16.397 16.399-16.397 9.051 0 16.391 7.349 16.4 16.398.223 2.058 6.615 8.475 19.949 8.475 17.458 0 25.345-9.6 32.973-18.885 2.894-3.523 9.406-11.465 9.406-11.465 5.713-6.967 16.046-8.059 23.091-2.273l12.688 10.425c4.235 3.481 6.278 8.64 5.955 13.722-.21 3.314-1.427 6.597-3.696 9.358-5.749 6.998-16.083 8.009-23.081 2.26l-.01-.009c-9.085 11.01-25.558 29.664-57.327 29.664z" fill="#ffbd86"/><path d="m288.081 504.5c-31.772 0-48.244-18.657-57.327-29.663l-.01.009c-6.998 5.75-17.331 4.737-23.081-2.26-2.27-2.762-3.483-6.046-3.693-9.36-.323-5.083 1.717-10.24 5.952-13.721l12.688-10.425c7.031-5.775 17.37-4.705 23.091 2.273.001 0 6.512 7.942 9.408 11.467 7.626 9.283 15.514 18.883 32.972 18.883 13.353 0 19.745-6.428 19.951-8.477 0-9.058 7.342-16.409 16.399-16.409s16.398 7.353 16.398 16.41c0 23.142-23.17 41.273-52.748 41.273z" fill="#fed2a4"/></g><g><path d="m405.227 179.259c0-10.586-7.001-19.533-16.624-22.476 1.529-3.119 2.412-6.613 2.412-10.321 0-12.068-9.098-21.999-20.807-23.339.007-.239.036-.472.036-.713 0-12.981-10.523-23.505-23.505-23.505-1.546 0-3.055.159-4.518.444-2.504-10.288-11.754-17.936-22.813-17.936-2.908 0-5.68.553-8.251 1.518-3.752-7.994-11.851-13.544-21.267-13.544-5.891 0-11.262 2.183-15.387 5.764h-44.414l-43.729 43.729v44.288c45.503-11.365 93.919-11.36 139.488.049 11.467 2.871 21.052 10.873 25.696 21.743 3.436 8.043 5.886 16.609 7.198 25.545 1.054 7.178 6.839 12.913 14.028 13.886 10.751 1.432 20.005-7.939 18.431-18.671-.228-1.558-.488-3.105-.77-4.645 8.666-3.46 14.796-11.915 14.796-21.816z" fill="#676fb2"/><path d="m253.197 105.565c12.736-4.797 21.307-16.803 21.307-30.412-4.302-5.497-10.982-9.043-18.504-9.043-7.521 0-14.201 3.546-18.503 9.043-4.125-3.581-9.496-5.764-15.387-5.764-9.415 0-17.515 5.549-21.266 13.544-2.571-.965-5.343-1.518-8.251-1.518-11.059 0-20.309 7.648-22.813 17.936-1.463-.285-2.971-.444-4.518-.444-12.981 0-23.505 10.523-23.505 23.505 0 .241.029.474.036.713-11.709 1.34-20.807 11.271-20.807 23.339 0 3.708.882 7.202 2.412 10.321-9.623 2.943-16.624 11.889-16.624 22.476 0 9.901 6.13 18.355 14.795 21.818-.281 1.541-.542 3.09-.77 4.648-1.573 10.731 7.681 20.1 18.431 18.669 7.189-.974 12.974-6.709 14.027-13.886 1.312-8.936 3.762-17.502 7.199-25.547 4.562-10.679 14.043-18.88 25.904-21.791 14.699-26.293 38.33-46.872 66.837-57.607z" fill="#4c5699"/></g><g fill="#ff8e9e"><ellipse cx="182.821" cy="271.242" rx="27.03" ry="21.526"/><ellipse cx="329.334" cy="271.242" rx="27.03" ry="21.526"/></g><g><path d="m374.04 293.178c.7.217 1.444.333 2.216.333 22.22 0 40.297-18.077 40.297-40.297 0-14.598-7.863-27.714-20.032-34.792 1.964-4.057 2.742-8.607 2.179-13.209 19.127-12.361 18.456-40.849-.821-52.453 3.25-15.263-5.668-30.76-20.618-35.719-2.532-14.625-15.176-25.394-29.968-25.629-5.897-12.188-19.063-19.217-32.608-17.116-2.138-2.868-4.742-5.313-7.696-7.262 1.443-12.831-1.964-24.058-9.425-34.384-2.427-3.358-7.116-4.112-10.472-1.688-3.357 2.426-4.113 7.114-1.687 10.472 4.549 6.297 7.025 12.953 6.889 20.554-5.881-.477-11.695.731-16.86 3.479-5.451-4.414-12.25-6.856-19.433-6.856-7.185 0-13.984 2.442-19.436 6.856-5.125-2.726-10.89-3.938-16.726-3.491-.411-11.221 5.145-19.952 13.109-27.886l16.074-16.435c2.548-2.585 8.826-4.416 13.405.081l3.067 3.018c2.954 2.905 7.701 2.866 10.606-.086 2.905-2.953 2.867-7.701-.086-10.606l-3.031-2.982c-4.522-4.567-10.551-7.08-16.983-7.08-6.761 0-13.198 2.596-17.681 7.144l-16.026 16.387c-12.468 12.422-19.195 26.239-17.099 43.375-3.03 1.968-5.696 4.459-7.88 7.389-13.69-2.123-26.768 5.065-32.606 17.116-14.78.237-27.436 10.995-29.969 25.633-14.88 4.948-23.859 20.426-20.616 35.715-19.278 11.606-19.954 40.09-.823 52.454-.564 4.602.214 9.152 2.179 13.209-12.168 7.077-20.032 20.194-20.032 34.792 0 22.22 18.077 40.297 40.297 40.297.763 0 1.5-.114 2.193-.326 4.535 7.926 9.887 15.427 16.009 22.374 2.74 3.109 7.479 3.407 10.586.669s3.407-7.478.669-10.585c-18.09-20.53-28.622-46.489-30.025-73.682 12.779.993 23.723-8.247 25.501-20.362 1.197-8.152 3.443-16.123 6.676-23.69 3.691-8.64 11.464-15.164 20.824-17.461 44.429-11.097 91.405-11.08 135.849.048 9.242 2.314 16.951 8.824 20.621 17.414 3.232 7.565 5.478 15.536 6.675 23.688 1.782 12.143 12.764 21.362 25.508 20.365-3.258 63.806-56.209 114.715-120.831 114.715-25.206 0-49.355-7.671-69.839-22.183-3.379-2.394-8.06-1.596-10.455 1.784s-1.596 8.062 1.784 10.456c5.371 3.805 10.973 7.173 16.754 10.13-6.312 5.535-11.885 11.907-16.616 19.079-3.75 5.685-9.975 9.079-16.653 9.079h-14.611c-13.178 0-23.898 10.721-23.898 23.898s10.721 23.898 23.898 23.898h14.611c11.923 0 23.45-3.117 33.595-8.955v6.58c-18.937 8.396-30.897 24.725-30.897 42.78 0 27.524 26.711 48.773 60.248 48.773 11.545 0 22.314-2.298 32.076-6.824 9.77 4.631 20.302 6.826 32.086 6.826 28.397 0 53.938-15.535 59.375-40.206.894-4.052 1.04-6.852.871-8.795-.001-.088-.007-.175-.009-.263-.214-17.78-11.986-33.938-30.842-42.254-.023-.01-.056-.054-.056-.115v-6.509c10.163 5.841 21.696 8.961 33.606 8.961h14.61c13.178 0 23.898-10.721 23.898-23.898s-10.721-23.898-23.898-23.898h-14.61c-6.679 0-12.904-3.394-16.654-9.077-4.71-7.142-10.344-13.606-16.609-19.123 23.548-12.052 43.144-30.765 56.276-53.644zm7.515-15.226c5.799-13.882 9.36-28.934 10.228-44.681 16.914 13.144 10.757 40.192-10.228 44.681zm-261.336-44.681c.859 15.46 4.344 30.558 10.226 44.681-20.937-4.478-27.172-31.514-10.226-44.681zm253.558-16.31c-3.847-.521-7.049-3.692-7.614-7.543-1.385-9.43-3.982-18.648-7.722-27.402-5.502-12.878-17.006-22.625-30.771-26.071-23.453-5.872-47.567-8.807-71.682-8.807-24.033 0-48.066 2.917-71.416 8.749-13.886 3.407-25.479 13.175-31.014 26.129-3.74 8.754-6.338 17.975-7.723 27.404-.565 3.85-3.767 7.021-7.597 7.54-5.768.775-10.878-4.302-10.021-10.146.203-1.382.44-2.817.728-4.387.642-3.511-1.28-6.988-4.595-8.313-7.743-3.094-10.258-10.045-10.029-15.518.229-5.481 3.309-12.206 11.268-14.641 4.41-1.349 6.573-6.331 4.541-10.474-2.31-4.711-2.187-10.06.338-14.676 2.535-4.635 6.973-7.635 12.176-8.23 3.874-.443 6.762-3.78 6.644-7.677-.311-10.323 8.972-18.151 19.056-16.186 3.932.767 7.773-1.695 8.721-5.588 2.186-8.976 11.806-14.675 21.141-11.17 3.661 1.375 7.764-.295 9.426-3.835 2.156-4.594 6.234-7.83 11.19-8.879 4.925-1.042 9.939.261 13.757 3.576 3.247 2.819 8.185 2.329 10.823-1.041 3.066-3.918 7.659-6.166 12.599-6.166 4.938 0 9.529 2.247 12.596 6.166 2.623 3.351 7.555 3.878 10.823 1.041 3.817-3.313 8.827-4.617 13.744-3.576 4.965 1.051 9.049 4.287 11.204 8.878 1.662 3.541 5.763 5.212 9.426 3.835 4.354-1.633 8.997-1.346 13.074.811 4.044 2.139 6.985 5.915 8.067 10.36.948 3.893 4.791 6.356 8.722 5.587 10.103-1.964 19.367 5.877 19.055 16.185-.117 3.897 2.771 7.234 6.645 7.678 10.948 1.254 17.387 12.967 12.515 22.905-2.031 4.141.127 9.125 4.54 10.475 14.372 4.396 15.266 24.553 1.24 30.159-3.314 1.324-5.236 4.801-4.595 8.312.286 1.564.523 2.999.727 4.385.853 5.832-4.241 10.919-10.007 10.151zm-212.803 190.858h-14.611c-4.907 0-8.898-3.992-8.898-8.898s3.992-8.898 8.898-8.898h14.611c11.735 0 22.642-5.914 29.175-15.82 2.339-3.546 4.922-6.858 7.725-9.935-1.504 10.52-2.453 20.714-2.93 31.052-9.511 8.077-21.461 12.499-33.97 12.499zm62.945 89.179c-25.607 0-45.248-15.116-45.248-33.773 0-4.905 3.992-8.896 8.898-8.896 4.872 0 8.842 3.947 8.896 8.816.65 16.539 17.47 27.243 32.647 21.261 3.605 3.974 7.262 7.485 11 10.563-5.12 1.334-10.525 2.029-16.193 2.029zm109.409-33.772c0 19.805-21.143 33.774-45.247 33.774-20.82 0-35.753-7.804-51.542-26.936-2.636-3.194-7.365-3.635-10.555-1.014-5.737 4.714-14.34.628-14.529-6.433-.139-2.847 1.029-5.51 3.23-7.318l12.687-10.424c3.818-3.134 9.422-2.559 12.532 1.232.004.006.009.011.014.017l9.397 11.455c7.911 9.634 17.757 21.623 38.768 21.623 14.406 0 27.09-7.202 27.453-16.016.022-4.894 4.003-8.869 8.896-8.869 4.904 0 8.895 3.996 8.896 8.909zm-67.524-9.448 6.283-7.657c.003-.005.007-.01.011-.015 3.069-3.742 8.667-4.407 12.53-1.233l12.688 10.426c1.732 1.423 2.836 3.449 3.148 5.635-1.549 1.16-5.334 3.27-12.382 3.27-10.489-.001-16.253-3.857-22.278-10.426zm54.885-14.143c-4.589.726-8.746 2.749-12.078 5.701-1.239-1.249-.569-.637-14.462-12.053-10.227-8.398-25.279-6.897-33.651 3.314l.024.02c-.645.71-1.316 1.555-4.523 5.464-3.233-3.941-3.891-4.771-4.522-5.464l.024-.02c-8.361-10.197-23.414-11.718-33.652-3.312-13.905 11.425-13.231 10.812-14.462 12.053-3.335-2.953-7.493-4.992-12.084-5.716 3.72-2.856 8.169-5.238 13.228-6.996 3.016-1.048 5.038-3.891 5.038-7.084 0-19.571-.555-39.059 4.943-70.301 5.977 1.912 12.094 3.385 18.31 4.45.807 3.184 2.304 6.18 4.422 8.737 11.311 13.66 26.231 23.699 43.147 29.034l21.965 6.925c.043 2.175.065 4.347.065 6.443v9.536c0 5.995 3.534 11.428 9.003 13.84 3.453 1.524 6.555 3.353 9.265 5.429zm1.162-65.431c6.534 9.905 17.441 15.818 29.175 15.818h14.61c4.906 0 8.898 3.992 8.898 8.898s-3.992 8.898-8.898 8.898h-14.61c-12.414 0-24.302-4.372-33.821-12.355v-6.07c0-4.143-3.358-7.5-7.5-7.5-3.883 0-7.076 2.95-7.461 6.731l-17.344-5.467c-13.003-4.101-24.589-11.531-33.726-21.572 17.593.61 34.758-2.106 51.042-8.008 7.535 5.436 14.276 12.502 19.635 20.627z"/><circle cx="256" cy="205.885" r="7.5"/><path d="m218.175 248.065c2.721-3.122 2.396-7.86-.727-10.581-3.124-2.721-7.861-2.396-10.582.728-4.392 5.04-12.196 5.035-16.584 0-2.722-3.123-7.459-3.448-10.582-.728-3.123 2.721-3.448 7.459-.727 10.581 10.371 11.902 28.842 11.89 39.202 0z"/><path d="m333.181 248.065c2.722-3.123 2.396-7.86-.728-10.581-3.122-2.721-7.86-2.396-10.582.728-4.392 5.04-12.195 5.035-16.583 0-2.721-3.123-7.459-3.448-10.582-.728-3.123 2.721-3.448 7.459-.727 10.581 10.371 11.902 28.843 11.89 39.202 0z"/><path d="m244.36 246.375c-2.721-3.122-7.458-3.447-10.582-.727-3.123 2.722-3.448 7.459-.727 10.582 12.145 13.935 33.765 13.92 45.896 0 2.721-3.123 2.396-7.86-.727-10.582-3.124-2.722-7.86-2.396-10.582.727-6.165 7.075-17.118 7.067-23.278 0z"/></g></g></svg>