<svg id="Capa_1" enable-background="new 0 0 512 512" height="512" viewBox="0 0 512 512" width="512" xmlns="http://www.w3.org/2000/svg"><g><g><circle cx="92.393" cy="178.87" fill="#ffb357" r="35.308"/><circle cx="419.514" cy="178.868" fill="#ffce71" r="35.308"/></g><g fill="#7ce3ff"><path d="m110.847 275.047c-19.927 0-36.081 16.154-36.081 36.082s16.154 36.082 36.081 36.082c10.675 0 20.264-4.637 26.871-12.005 5.726-6.386 9.211-14.824 9.211-24.077-.001-19.927-16.155-36.082-36.082-36.082z"/><path d="m401.102 275.047c-19.927 0-36.081 16.154-36.081 36.082 0 9.245 3.478 17.678 9.196 24.063 6.607 7.377 16.203 12.019 26.885 12.019 19.927 0 36.081-16.154 36.081-36.082s-16.154-36.082-36.081-36.082z"/></g><path d="m284.387 28.844-16.725-16.456c-3.212-3.259-7.292-4.888-11.687-4.888s-9.107 1.629-12.319 4.888l-16.094 16.456c-7.678 7.648-15.316 18.835-15.316 30.701 0 28.777 21.306 45.921 43.729 45.921 18.569 0 34.423-11.579 40.766-27.907 2.837-7.304 2.964-12.912 2.964-18.014-.001-11.866-7.64-23.053-15.318-30.701z" fill="#ffb357"/><g><g><path d="m288.956 388.002h-53.255l-34.8 40.131v76.367h125.771 50.376c0-54.882-36.902-101.978-88.092-116.498z" fill="#b9f0ff"/><path d="m326.672 504.5c-30.004 0-58.74-12.099-79.709-33.559-10.324-10.566-18.318-22.969-23.708-36.412h-22.354v69.971z" fill="#ff8e9e"/></g><g><path d="m255.973 383.425c-14.276 0-27.981 2.493-40.712 7.055l-14.36 18.653v25.395h22.34c15.777-22.201 38.844-38.898 65.714-46.526-10.489-2.976-21.551-4.577-32.982-4.577z" fill="#7ce3ff"/><path d="m215.262 390.48c-46.785 16.765-80.361 61.559-80.361 114.02h66c0-20.623 5.215-40.072 14.377-57.111-.005-.002-.011-.005-.017-.007 2.396-4.458 5.063-8.749 7.98-12.853-5.555-13.858-8.332-28.825-7.979-44.049z" fill="#ea5b70"/></g></g><g><path d="m215.974 394.278c0-9.214 3.139-17.703 8.393-24.473h-33.969c-2.854 7.622-4.424 15.866-4.424 24.473 0 38.598 31.402 70 70 70v-30c-22.056 0-40-17.944-40-40z" fill="#ffb357"/><path d="m321.55 369.805h-33.969c5.254 6.77 8.393 15.259 8.393 24.473 0 22.056-17.944 40-40 40-12.183 5.979-12.757 23.502 0 30 38.598 0 70-31.402 70-70 0-8.606-1.57-16.851-4.424-24.473z" fill="#ffce71"/></g><g><path d="m165.974 355.206c0 16.569-13.431 30-30 30s-30-13.431-30-30 13.431-50 30-50 30 33.431 30 50z" fill="#ffb357"/><path d="m405.974 355.206c0 16.569-13.431 30-30 30s-30-13.431-30-30 13.431-50 30-50 30 33.431 30 50z" fill="#ffce71"/></g><g><g><path d="m280.028 107.984h-27.722c-18.43 0-35.838 8.47-47.212 22.973l-94.247 120.172 94.247 120.172c11.374 14.502 28.782 22.965 47.212 22.965h27.722c38.771-6.48 72.307-28.354 94.189-59.076 10.26-14.405 17.959-30.755 22.432-48.375 2.908-11.457 4.453-23.327 4.453-35.685 0-71.959-52.369-131.685-121.074-143.146z" fill="#b9f0ff"/><path d="m158.955 251.129c0-71.957 52.372-131.683 121.073-143.145-7.825-1.306-15.859-1.984-24.055-1.984-80.15 0-145.127 64.976-145.127 145.129 0 12.355 1.521 24.234 4.426 35.685 4.474 17.632 12.179 33.987 22.444 48.391 26.32 36.932 69.484 61.05 118.256 61.05 8.196 0 16.229-.684 24.055-1.99-58.63-9.782-105.368-54.711-117.81-112.396-2.136-9.908-3.262-20.192-3.262-30.74z" fill="#7ce3ff"/></g><g fill="#ff8e9e"><ellipse cx="176.856" cy="320.5" rx="28.882" ry="23"/><ellipse cx="334.974" cy="320.5" rx="29" ry="23"/></g></g><g><path d="m334.686 73.073c.002.027.004.054 0 0-24.548-13.298-51.858-19.991-79.014-19.99l-109.595 45.046v129.134h14.83c26.51-21.019 59.809-33.127 95.07-33.126 61.236.003 116.574 36.382 140.672 92.677 22.362-35.702 29.672-73.203 22.865-107.946-8.224-41.968-37.048-79.911-84.828-105.795z" fill="#ffce71"/><path d="m115.273 286.814c10.138-23.563 26.033-44.011 45.634-59.552v-22.812c0-64.853 33.769-117.529 94.765-151.368-80.504.004-149.79 54.584-163.279 125.788-6.366 33.608-.303 70.924 22.88 107.944z" fill="#ffb357"/></g><g><path d="m57.218 233.466c-6.007 22.418 7.297 45.461 29.715 51.467l8.42 2.256 19.92-.375 5.772-21.542c-5.807-.96-10.516-4.199-13.678-9.163s-4.064-11.04-2.478-16.708l2.471-9.224-45.962-12.315z" fill="#ffb357"/><path d="m77.73 269.497c-9.157-11.115-12.76-25.791-9.793-39.883 3.729 13.918 18.035 22.177 31.952 18.448 17.397-4.662 27.721-22.543 23.059-39.94-4.069-15.188-16.201-26.057-30.555-29.251-6.199-1.379-12.811-1.331-19.37.426-27.183 7.284-43.314 35.224-36.03 62.407 9.104 33.978 44.302 54.215 78.28 45.111-14.399.215-28.386-6.204-37.543-17.318z" fill="#ffce71"/></g><g><path d="m454.704 233.466c6.007 22.418-7.297 45.461-29.715 51.467l-8.42 2.256-19.92-.375-5.772-21.542c5.807-.96 10.516-4.199 13.678-9.163s4.064-11.04 2.478-16.708l-2.471-9.224 45.962-12.315z" fill="#ffce71"/><path d="m434.192 269.497c9.157-11.115 12.76-25.791 9.793-39.883-3.729 13.918-18.035 22.177-31.952 18.448-17.397-4.662-27.721-22.543-23.059-39.94 4.068-15.183 16.192-26.056 30.541-29.253 6.203-1.382 12.821-1.33 19.385.429 27.183 7.284 43.314 35.224 36.03 62.407-9.104 33.978-44.302 54.215-78.28 45.111 14.398.214 28.385-6.205 37.542-17.319z" fill="#ffb357"/></g><g><path d="m270.145 91.498 9.708 21.982 23.921-2.597c13.384-1.453 22.123 13.66 14.17 24.505l-14.213 19.385 14.213 19.385c7.952 10.846-.787 25.958-14.17 24.505l-23.921-2.597-9.708 21.982c-5.431 12.299-22.909 12.299-28.341 0l-9.708-21.982-23.921 2.597c-13.384 1.453-22.123-13.66-14.17-24.505l14.213-19.385-14.213-19.385c-7.952-10.846.787-25.958 14.17-24.505l23.921 2.597 9.708-21.982c5.431-12.299 22.909-12.299 28.341 0z" fill="#ffb357"/><g><path d="m266.912 130.912h-11.375l-15.312 23.862 15.312 23.862h11.375c9.035-4.148 15.313-13.269 15.313-23.862s-6.278-19.713-15.313-23.862z" fill="#ff8e9e"/><path d="m251.599 154.774c0-10.593 6.278-19.714 15.312-23.862-3.331-1.529-7.033-2.388-10.937-2.388-14.498 0-26.25 11.752-26.25 26.25 0 14.497 11.752 26.25 26.25 26.25 3.905 0 7.607-.859 10.937-2.388-9.034-4.148-15.312-13.269-15.312-23.862z" fill="#ea5b70"/></g></g><g><path d="m127.748 416.043-14.942 4.981c-9.199 3.066-15.405 11.676-15.405 21.373v21.762c0 11.046 8.954 20 20 20l40-25.743v-21c0-15.377-15.065-26.236-29.653-21.373z" fill="#7ce3ff"/><path d="m157.401 438.416c-8.249 0-15 6.741-15 15v5.743c-13.807 0-25 11.193-25 25h25c16.569 0 30-13.431 30-30v-.32c0-8.261-6.444-15.423-15-15.423z" fill="#b9f0ff"/></g><g><path d="m359.513 435.211c-11.046 0-20 8.954-20 20v21.762c0 9.697 6.205 18.306 15.405 21.373l14.942 4.981c2.406.802 4.819 1.173 7.188 1.173 11.96 0 22.465-9.705 22.465-22.546v-21z" fill="#7ce3ff"/><path d="m399.513 480.954c-8.249 0-15-6.741-15-15v-5.743c-13.807 0-25-11.193-25-25h25c16.569 0 30 13.431 30 30v.32c0 8.261-6.444 15.423-15 15.423z" fill="#b9f0ff"/></g><g><path d="m255.974 188.524c18.61 0 33.75-15.141 33.75-33.75s-15.14-33.75-33.75-33.75-33.75 15.141-33.75 33.75 15.141 33.75 33.75 33.75zm0-52.5c10.339 0 18.75 8.411 18.75 18.75s-8.411 18.75-18.75 18.75-18.75-8.411-18.75-18.75 8.412-18.75 18.75-18.75z"/><path d="m462.127 182.844c2.732-28.292-22.611-51.193-50.206-46.104-21.506-38.985-60.936-69.523-105.246-83.248-2.235-13.429-11.33-24.319-17.027-29.995l-16.689-16.419c-4.522-4.564-10.552-7.078-16.985-7.078-6.761 0-13.198 2.596-17.681 7.144l-16.025 16.386c-5.5 5.481-14.335 16.009-16.827 29.044-15.414 4.376-30.221 10.754-44.002 19.056-3.548 2.138-4.691 6.747-2.554 10.295 2.137 3.547 6.745 4.689 10.294 2.555 25.951-15.633 55.859-23.896 86.493-23.896 62.671 0 125.276 40.013 148.861 95.142 1.629 3.808 6.035 5.574 9.846 3.945 3.401-1.455 5.166-5.127 4.345-8.609 13.918-.445 25.89 9.711 28.197 22.967-44.112-17.107-82.315 30.102-60.068 64.397 17.649 27.208 56.545 22.36 64.376-6.872 1.072-4.001-1.303-8.113-5.304-9.185-3.996-1.076-8.113 1.302-9.185 5.304-4.495 16.775-26.815 18.76-37.304 2.59-10.966-16.91 1.617-39.597 21.708-44.074 25.645-5.719 55.2 21.252 46.54 53.573-7.701 28.737-36.61 46.52-65.707 40.595-16.478-36.096-45.469-64.335-81.092-80.019 8.396-7.683 10.421-20.64 3.108-30.613l-10.962-14.95 10.962-14.951c11.806-16.102-1.155-38.559-21.028-36.396l-18.467 2.005-7.492-16.965c-8.077-18.289-33.999-18.258-42.063 0l-7.492 16.965-18.467-2.005c-19.85-2.164-32.847 20.276-21.028 36.396l10.962 14.951-10.962 14.95c-7.256 9.896-5.368 22.875 3.125 30.629-35.581 15.687-64.583 43.92-81.129 80.002-49.499 10.084-87.883-47.638-54.982-81.977 9.815-10.246 23.529-14.917 35.795-12.186 20.085 4.469 32.702 27.144 21.71 44.093-10.421 16.068-32.776 14.25-37.293-2.613-1.072-4.001-5.185-6.379-9.186-5.303-4.001 1.071-6.375 5.185-5.304 9.186 7.84 29.259 46.761 34.04 64.367 6.893 22.266-34.331-15.936-81.512-60.07-64.428 2.293-13.125 14.04-23.203 27.806-22.962-.839 3.542.999 7.262 4.477 8.67 3.846 1.556 8.214-.304 9.767-4.138 8.199-20.248 21.691-38.997 39.02-54.221 3.112-2.734 3.418-7.473.684-10.585-2.733-3.111-7.472-3.418-10.584-.685-15.227 13.378-27.767 29.271-36.826 46.533-27.402-4.61-52.242 18.196-49.555 46.201-38.595 31.071-23.297 90.086 22.273 108.469-12.405 24.242.259 53.972 26.491 61.636-1.195 22.204 16.378 39.768 37.432 39.768 13.077 0 24.777-6.603 31.533-17.152 3.805 2.705 7.738 5.233 11.783 7.582-.913 6.226-1.062 12.471-.47 18.615-7.141 5.372-13.671 11.45-19.541 18.158-7.509-10.435-21.08-15.252-33.903-10.981l-14.942 4.98c-12.282 4.094-20.533 15.542-20.533 28.488v21.762c0 15.163 12.336 27.5 27.5 27.5h10.654c-.431 4.283-.654 8.577-.654 12.841 0 4.143 3.358 7.5 7.5 7.5h242.13c15.3 0 26.979-9.855 29.516-24.692 8.972-3.017 15.466-11.639 15.466-21.777v-.319c0-20.678-16.822-37.5-37.5-37.5h-25c-.174 0-.346.01-.519.013-7.358-9.862-16.029-18.569-25.864-25.966.592-6.151.442-12.402-.473-18.635 4.042-2.349 7.973-4.877 11.777-7.582 8.287 12.952 23.581 19.356 38.583 16.503 4.069-.775 6.74-4.702 5.965-8.771-.774-4.07-4.706-6.735-8.77-5.966-9.662 1.841-19.209-2.861-23.872-11.159 13.168-11.489 24.39-25.262 33.034-40.822 5.767 10.096 11.848 27.423 7.488 38.271-1.546 3.843.316 8.211 4.16 9.756 3.842 1.547 8.212-.318 9.756-4.16 2.165-5.383 2.924-10.764 2.629-16.256 26.253-7.67 38.89-37.42 26.486-61.647 20.081-8.11 36.262-25.184 42.281-47.646 6.093-22.74-1.929-46.227-20.047-60.801zm-206.455-137.261c-11.216 0-22.339 1.042-33.246 3.042 2.229-4.863 5.798-9.854 10.497-14.537l16.074-16.435c2.685-2.725 9.099-4.303 13.405.081l16.692 16.423c2.642 2.632 7.684 8.205 10.682 14.979-11.236-2.322-22.669-3.553-34.104-3.553zm91.341 409.628c0-6.904 5.596-12.5 12.5-12.5h25c12.426 0 22.5 10.073 22.5 22.5v.319c0 4.988-4.385 8.914-9.296 7.702-3.406-.841-5.704-4.042-5.704-7.55 0-4.126-3.359-7.471-7.486-7.471-4.142 0-7.514 3.358-7.514 7.5v.243c0 9.496 5.913 17.638 14.252 20.935-2.794 9.241-12.239 11.585-19.033 9.323l-14.942-4.981c-6.137-2.046-10.276-7.789-10.276-14.258v-21.762zm-146.96-276.617 11.049-15.068c3.838-5.234 3.838-12.268 0-17.502l-11.049-15.069c-4.096-5.587.422-13.374 7.312-12.614l18.612 2.021c6.436.698 12.521-2.81 15.137-8.734l7.551-17.098c2.804-6.349 11.814-6.352 14.619 0l7.551 17.097c2.616 5.925 8.706 9.439 15.136 8.735l18.613-2.021c6.896-.759 11.406 7.031 7.312 12.614l-11.049 15.069c-3.838 5.234-3.838 12.268 0 17.502l11.049 15.068c4.086 5.573-.405 13.374-7.311 12.615l-18.618-2.021c-6.441-.704-12.518 2.812-15.133 8.734l-7.551 17.098c-2.793 6.326-11.808 6.366-14.619 0l-7.551-17.097c-2.642-5.983-8.768-9.432-15.128-8.735l-18.62 2.021c-6.929.742-11.393-7.05-7.312-12.615zm-98.862 159.446c-17.462-6.227-24.306-27.174-14.271-42.526 7.345 1.238 15.054 1.366 23.026.091 1.472 4.839 3.167 9.565 5.077 14.166-6.178 7.719-11.022 18.287-13.832 28.269zm12.909 10.7c.24-1 1.889-11.867 8.461-23.386 8.645 15.556 19.869 29.325 33.039 40.81-11.925 21.18-46.569 11.96-41.5-17.424zm28.301 127.918h-25c-6.904 0-12.5-5.597-12.5-12.5v-21.762c0-6.469 4.139-12.212 10.276-14.257l14.942-4.98c8.046-2.68 16.386 1.815 18.972 9.348-8.306 3.312-14.19 11.438-14.19 20.91v1.243c0 4.142 3.358 7.5 7.5 7.5s7.5-3.358 7.5-7.5v-.972c0-3.508 2.298-6.709 5.703-7.55 4.911-1.212 9.297 2.714 9.297 7.702v.19c0 4.562-1.292 9.069-3.898 12.814-4.366 6.276-11.211 9.814-18.601 9.814 0 0 0 0-.001 0zm.252 20.342c.12-1.787.286-3.575.49-5.36 20.336-.398 36.759-17.052 36.759-37.481v-.319c0-8.924-5.033-16.669-12.357-20.454 4.437-5.511 9.353-10.58 14.713-15.165 7.791 23.846 27.225 43.556 52.846 50.705 9.542 11.535 20.949 20.992 33.627 28.074zm113.321-55.223c25.079 0 46.346-19.747 47.437-45.551 5.094-1.664 10.077-3.591 14.934-5.765 2.231 35.565-26.142 66.316-62.371 66.316-36.256 0-64.591-30.786-62.371-66.307 4.857 2.173 9.839 4.099 14.934 5.761 1.095 25.805 22.363 45.546 47.437 45.546zm-31.926-41.374c10.333 2.201 21.019 3.353 31.926 3.353s21.594-1.153 31.928-3.355c-2.877 15.18-16.362 26.376-31.927 26.376-15.581 0-29.051-11.21-31.927-26.374zm119.767 32.248c-7.127 4.974-11.802 13.229-11.802 22.56v21.763c0 7.587 2.851 14.647 7.67 20.026h-13.011c-25.331 0-49.242-9.044-67.946-25.277 33.264-1.165 61.098-23.281 70.969-53.501 5.127 4.384 9.844 9.204 14.12 14.429zm-87.842-43.895c-62.06 0-116.415-41.45-132.78-101.317 19.373-42.955 58.163-73.794 104.414-82.97l7.336 16.611c2.674 6.055 7.574 10.452 13.531 12.468v22.452c0 4.143 3.358 7.5 7.5 7.5s7.5-3.357 7.5-7.5v-22.452c5.958-2.016 10.857-6.413 13.531-12.468l7.337-16.613c46.326 9.17 85.108 40.005 104.388 82.964-16.25 59.443-70.231 101.325-132.757 101.325zm154.786-50.716c-2.812-9.993-7.665-20.571-13.853-28.292 1.906-4.594 3.599-9.311 5.069-14.142 7.513 1.201 15.222 1.225 23.051-.098 10.046 15.362 3.181 36.309-14.267 42.532z"/><path d="m193.526 284c-4.142 0-7.5 3.357-7.5 7.5v12c0 4.143 3.358 7.5 7.5 7.5s7.5-3.357 7.5-7.5v-12c0-4.143-3.358-7.5-7.5-7.5z"/><path d="m318.423 284c-4.142 0-7.5 3.357-7.5 7.5v12c0 4.143 3.358 7.5 7.5 7.5s7.5-3.357 7.5-7.5v-12c0-4.143-3.358-7.5-7.5-7.5z"/><path d="m277.367 292.488c-3.123-2.721-7.861-2.396-10.582.727-5.724 6.57-15.9 6.566-21.62 0-2.722-3.122-7.459-3.447-10.582-.727-3.123 2.722-3.448 7.459-.727 10.582 11.706 13.431 32.544 13.416 44.237 0 2.721-3.123 2.396-7.86-.726-10.582z"/></g></g></svg>