<svg id="Capa_1" enable-background="new 0 0 512 512" height="512" viewBox="0 0 512 512" width="512" xmlns="http://www.w3.org/2000/svg"><g><g><circle cx="102.5" cy="311.19" fill="#ff8e9e" r="95"/><path d="m504.5 311.19c0 52.467-42.533 95-95 95s-95-42.533-95-95c0-37.09 21.256-69.211 52.25-84.857 12.85-6.486 27.372-10.143 42.75-10.143 52.467 0 95 42.533 95 95z" fill="#ffb5c0"/></g><g><path d="m312.2 157.779h-93.363v232.134l37.163 37.164c77.381 0 140.5-62.718 140.5-140.5 0-57.612-34.681-107.116-84.3-128.798z" fill="#ffdbe0"/><path d="m227.9 274.401c0-57.612 34.681-94.939 84.3-116.621-17.211-7.521-36.216-11.702-56.2-11.702-77.596 0-140.5 62.904-140.5 140.5s62.904 140.5 140.5 140.5v-74.919c-17.634-23.478-28.1-46.135-28.1-77.758z" fill="#ffb5c0"/></g><g fill="#efedff"><path d="m218.588 401.948c-13.468 6.28-27.523 9.764-41.51 10.692-14.308.949-17.481 20.851-4.176 26.2 19.34 7.776 41.725 7.834 62.11-1.672z"/><path d="m293.412 401.948c13.468 6.28 27.523 9.764 41.51 10.692 14.308.949 17.481 20.851 4.176 26.2-19.34 7.776-41.725 7.834-62.11-1.672z"/></g><g><path d="m256 357.593c-23.52 0-41.378 21.172-37.412 44.355l12.412 72.552h25z" fill="#ffb5c0"/><path d="m256 357.593v116.907h25l12.412-72.552c3.966-23.183-13.892-44.355-37.412-44.355z" fill="#ffdbe0"/></g><path d="m271 444.5h-30c-16.568 0-30 13.432-30 30s13.432 30 30 30h30c16.568 0 30-13.432 30-30s-13.432-30-30-30z" fill="#ffb5c0"/><g><circle cx="92.419" cy="178.87" fill="#ffb357" r="35.308"/><circle cx="419.539" cy="178.868" fill="#ffce71" r="35.308"/></g><path d="m284.413 28.844-16.725-16.456c-3.213-3.259-7.292-4.888-11.688-4.888-4.395 0-9.107 1.629-12.319 4.888l-16.094 16.456c-7.678 7.648-15.316 18.835-15.316 30.701 0 28.777 21.306 45.921 43.729 45.921 18.569 0 34.423-11.579 40.766-27.907 2.837-7.304 2.964-12.912 2.964-18.014-.001-11.866-7.64-23.053-15.317-30.701z" fill="#ffb357"/><g><path d="m334.712 73.073c.001.027.003.054 0 0-24.548-13.298-51.858-19.991-79.014-19.99l-109.595 45.046v129.134h14.83c26.51-21.019 59.809-33.127 95.07-33.126 61.236.003 116.4 36.145 140.498 92.44 22.362-35.702 29.847-72.966 23.039-107.709-8.224-41.968-37.048-79.911-84.828-105.795z" fill="#ffce71"/><path d="m115.5 286.577c10.138-23.563 25.832-43.774 45.433-59.314v-22.812c0-64.853 33.769-117.529 94.765-151.368-80.504.004-149.79 54.584-163.279 125.788-6.367 33.607-.102 70.686 23.081 107.706z" fill="#ffb357"/></g><g><circle cx="151" cy="163.87" fill="#30cd9c" r="15"/><circle cx="361" cy="163.87" fill="#70dcba" r="15"/></g><g><path d="m57.243 233.466c-6.007 22.418 7.297 45.461 29.715 51.467l8.42 2.256 20.122-.612 5.571-21.305c-5.807-.96-10.516-4.199-13.678-9.163s-4.064-11.04-2.478-16.708l2.472-9.224-45.962-12.315z" fill="#ffb357"/><path d="m77.755 269.497c-9.157-11.115-12.76-25.791-9.793-39.883 3.729 13.918 18.035 22.177 31.952 18.448 17.397-4.662 27.721-22.543 23.059-39.94-4.069-15.188-16.201-26.057-30.555-29.251-6.199-1.379-12.811-1.331-19.37.426-27.183 7.284-43.314 35.224-36.03 62.407 9.104 33.978 44.503 53.978 78.481 44.874-14.398.215-28.587-5.967-37.744-17.081z" fill="#ffce71"/></g><g><path d="m454.73 233.466c6.007 22.418-7.297 45.461-29.715 51.467l-8.42 2.256-20.095-.612-5.598-21.305c5.807-.96 10.516-4.199 13.678-9.163s4.064-11.04 2.478-16.708l-2.471-9.224 45.962-12.315z" fill="#ffce71"/><path d="m434.217 269.497c9.157-11.115 12.76-25.791 9.793-39.883-3.729 13.918-18.035 22.177-31.952 18.448-17.397-4.662-27.721-22.543-23.059-39.94 4.068-15.183 16.192-26.056 30.541-29.253 6.203-1.382 12.821-1.33 19.384.429 27.183 7.284 43.314 35.224 36.03 62.407-9.104 33.978-44.476 53.978-78.454 44.874 14.399.214 28.561-5.968 37.717-17.082z" fill="#ffb357"/></g><g><path d="m271 107.898h-20l-45 58.102 45 58.102h20c25.849-6.678 45-30.195 45-58.102s-19.151-51.424-45-58.102z" fill="#ffce71"/><path d="m226 166c0-27.906 19.151-51.424 45-58.102 0-8.284-6.716-15-15-15s-15 6.716-15 15c-25.849 6.678-45 30.195-45 58.102 0 33.084 26.916 60 60 60 5.178 0 10.204-.66 15-1.898-25.849-6.678-45-30.196-45-58.102z" fill="#ffb357"/></g><g><path d="m268.5 138.729h-13l-17.5 27.271 17.5 27.271h13c10.325-4.741 17.5-15.165 17.5-27.271s-7.175-22.529-17.5-27.271z" fill="#70dcba"/><path d="m251 166c0-12.106 7.174-22.53 17.5-27.271-3.806-1.748-8.038-2.729-12.5-2.729-16.569 0-30 13.431-30 30 0 16.568 13.431 30 30 30 4.462 0 8.694-.982 12.5-2.729-10.326-4.741-17.5-15.165-17.5-27.271z" fill="#30cd9c"/></g><g><g><g><ellipse cx="178.443" cy="351.437" fill="#ff8e9e" rx="29.355" ry="23.377"/></g><g><ellipse cx="333.557" cy="351.437" fill="#ff8e9e" rx="29.355" ry="23.377"/></g></g></g><g><path d="m233.5 474.5c0 4.142 3.357 7.5 7.5 7.5h30c4.143 0 7.5-3.358 7.5-7.5s-3.357-7.5-7.5-7.5h-30c-4.143 0-7.5 3.358-7.5 7.5z"/><path d="m186.051 320.934v12c0 4.143 3.358 7.5 7.5 7.5s7.5-3.357 7.5-7.5v-12c0-4.143-3.358-7.5-7.5-7.5s-7.5 3.357-7.5 7.5z"/><path d="m310.949 320.934v12c0 4.143 3.358 7.5 7.5 7.5s7.5-3.357 7.5-7.5v-12c0-4.143-3.358-7.5-7.5-7.5s-7.5 3.357-7.5 7.5z"/><path d="m263.5 377h-15c-4.142 0-7.5 3.357-7.5 7.5s3.358 7.5 7.5 7.5h15c4.142 0 7.5-3.357 7.5-7.5s-3.358-7.5-7.5-7.5z"/><path d="m263.5 407h-15c-4.142 0-7.5 3.357-7.5 7.5s3.358 7.5 7.5 7.5h15c4.142 0 7.5-3.357 7.5-7.5s-3.358-7.5-7.5-7.5z"/><path d="m293.198 262.758c0-4.143-3.358-7.5-7.5-7.5s-7.5 3.357-7.5 7.5c0 9.777-6.271 18.114-15 21.21v-26.21c0-4.143-3.358-7.5-7.5-7.5s-7.5 3.357-7.5 7.5v26.21c-8.729-3.096-15-11.433-15-21.21 0-4.143-3.358-7.5-7.5-7.5s-7.5 3.357-7.5 7.5c0 20.678 16.822 37.5 37.5 37.5s37.5-16.822 37.5-37.5z"/><path d="m256 128.5c-20.678 0-37.5 16.822-37.5 37.5s16.822 37.5 37.5 37.5 37.5-16.822 37.5-37.5-16.822-37.5-37.5-37.5zm0 60c-12.407 0-22.5-10.094-22.5-22.5s10.093-22.5 22.5-22.5 22.5 10.094 22.5 22.5-10.093 22.5-22.5 22.5z"/><path d="m483.084 239.845c4.269-21.441-3.736-43.175-20.932-56.997 2.629-28.206-22.409-51.115-50.202-46.103-21.504-38.985-60.933-69.525-105.243-83.251-2.233-13.422-11.324-24.309-17.034-29.997l-16.687-16.418c-4.523-4.565-10.552-7.079-16.986-7.079-6.761 0-13.198 2.596-17.681 7.144l-16.026 16.386c-5.5 5.481-14.335 16.009-16.827 29.044-15.414 4.376-30.221 10.754-44.002 19.056-3.548 2.138-4.691 6.747-2.554 10.295 2.137 3.546 6.745 4.688 10.294 2.555 91.589-55.174 201.752-7.297 235.354 71.245 1.218 2.847 3.987 4.552 6.899 4.552 4.812 0 8.383-4.494 7.299-9.184 14.234-.399 25.846 9.828 28.158 22.931-28.929-11.205-57.935 5.182-65.162 32.156-5.725 21.364 6.999 43.402 28.362 49.126 17.934 4.804 36.334-5.817 41.138-23.752 1.072-4.001-1.303-8.113-5.304-9.185-3.996-1.074-8.113 1.302-9.185 5.304-2.659 9.924-12.842 15.803-22.767 13.145-13.375-3.584-21.34-17.381-17.757-30.755 6.813-25.423 39.155-34.183 60.788-11.608 32.697 34.119-5.341 91.817-55.179 81.682-17.143-37.544-48.178-66.951-86.434-82.137 5.152-9.529 8.082-20.427 8.082-31.998 0-29.08-18.578-54.676-45.76-63.911-2.568-9.6-11.341-16.69-21.739-16.69s-19.171 7.091-21.739 16.69c-27.179 9.233-45.758 34.829-45.758 63.909 0 11.596 2.941 22.518 8.114 32.061-38.231 15.236-69.275 44.622-86.457 82.074-49.833 10.135-87.943-47.527-55.203-81.703 21.507-22.445 53.938-13.889 60.776 11.631 3.583 13.375-4.382 27.171-17.756 30.755-9.925 2.657-20.107-3.219-22.766-13.146-1.072-4.001-5.185-6.377-9.186-5.303-4.001 1.071-6.375 5.185-5.304 9.186 4.805 17.929 23.205 28.56 41.138 23.751 21.363-5.724 34.087-27.762 28.363-49.126-7.201-26.872-36.127-43.401-65.176-32.156 2.311-13.086 13.836-23.15 27.773-22.945-1.095 4.688 2.467 9.198 7.295 9.198 2.964 0 5.773-1.771 6.954-4.688 8.199-20.248 21.691-38.997 39.02-54.221 3.112-2.734 3.418-7.473.684-10.585-2.733-3.111-7.472-3.418-10.584-.685-15.226 13.378-27.767 29.271-36.826 46.533-27.642-4.541-52.15 18.33-49.552 46.217-16.705 13.437-25.308 35.003-20.914 57.02-18.663 19.212-28.893 44.367-28.893 71.321 0 81.192 90.288 129.858 157.931 86.205 3.763 3.332 7.69 6.465 11.764 9.395-16.606 7.017-17.462 31.825.409 39.011 12.645 5.084 26.829 7.244 41.331 5.644-5.056 6.485-7.935 14.564-7.935 23.057 0 20.678 16.822 37.5 37.5 37.5h30c20.678 0 37.5-16.822 37.5-37.5 0-8.493-2.88-16.571-7.935-23.056 13.671 1.509 27.914-.25 41.331-5.644 17.775-7.147 17.098-31.958.411-39.01 4.073-2.927 7.993-6.068 11.756-9.4 34.984 22.583 81.165 21.984 115.896-3.421 3.344-2.446 4.071-7.139 1.626-10.481-2.447-3.345-7.14-4.07-10.481-1.626-28.483 20.835-66.369 22.264-96.024 4.71 13.774-15.032 24.411-32.868 30.985-52.083 1.34-3.919-.75-8.184-4.669-9.524-3.916-1.334-8.182.75-9.524 4.669-10.23 29.906-31.545 56.767-61.684 73.413-5.399-1.124-11.73-2.894-18.767-5.785.43-10.497-2.75-20.693-9.232-29.215-2.508-3.296-7.214-3.934-10.51-1.429-3.297 2.508-3.937 7.214-1.429 10.511 5.159 6.782 7.208 15.147 5.77 23.557l-6.388 37.341c-2.82-.667-5.717-1.024-8.631-1.024-4.142 0-7.5 3.357-7.5 7.5s3.358 7.5 7.5 7.5c3.8 0 7.557.967 10.865 2.796 7.177 3.969 11.635 11.519 11.635 19.704 0 12.406-10.093 22.5-22.5 22.5h-30c-12.407 0-22.5-10.094-22.5-22.5 0-8.186 4.458-15.735 11.636-19.704 3.306-1.833 7.063-2.8 10.863-2.8 4.142 0 7.5-3.357 7.5-7.5s-3.358-7.5-7.5-7.5c-2.914 0-5.811.357-8.631 1.024l-6.388-37.341c-1.439-8.409.61-16.774 5.769-23.557 2.508-3.297 1.868-8.003-1.429-10.511-3.296-2.508-8.002-1.867-10.51 1.429-6.483 8.523-9.662 18.72-9.232 29.217-7.081 2.911-13.432 4.684-18.833 5.804-.089-.054-.172-.114-.264-.165-28.975-16.102-50.808-42.444-61.353-73.269-1.34-3.92-5.606-6.007-9.523-4.669-3.919 1.341-6.01 5.604-4.669 9.524 6.573 19.216 17.207 37.055 30.976 52.088-57.785 34.197-131.913-7.556-131.913-75.385 0-20.365 6.84-39.528 19.458-55.035 14.61 30.11 49.334 46.685 82.983 37.667 2.218-.594 4.041-2.171 4.949-4.28 15.721-36.542 45.842-65.022 83.106-78.825 12.375 13.961 30.424 22.784 50.504 22.784 20.104 0 38.172-8.845 50.549-22.836 37.276 13.744 67.378 42.24 83.057 78.865.905 2.115 2.731 3.698 4.953 4.293 33.643 9.015 68.355-7.562 82.966-37.688 12.629 15.51 19.475 34.68 19.475 55.055.001 18.508-5.703 36.194-16.496 51.147-2.425 3.359-1.667 8.047 1.691 10.471 1.328.959 2.862 1.42 4.384 1.42 2.327 0 4.621-1.08 6.087-3.111 12.649-17.525 19.335-38.248 19.334-59.927 0-26.967-10.239-52.13-28.916-71.344zm-260.633-191.22c2.229-4.863 5.798-9.854 10.497-14.537l16.074-16.435c2.561-2.599 8.838-4.404 13.405.08l16.692 16.424c2.648 2.637 7.686 8.21 10.683 14.979-20.845-4.309-43.023-4.971-67.351-.511zm76.764 363.88c19.266 7.235 34.009 7.275 36.685 7.884 4.785 1.383 6.093 9.205.4 11.493-13.031 5.242-27.367 6.44-41.005 3.534zm-123.189 7.903c2.89-.687 17.447-.597 36.761-7.892l3.917 22.899c-13.637 2.905-27.974 1.707-41.005-3.534-5.675-2.281-4.373-10.104.327-11.473zm79.974-201.908c-28.949 0-52.5-23.552-52.5-52.5 0-23.944 16.192-44.851 39.377-50.84 3.311-.855 5.624-3.842 5.624-7.262 0-4.136 3.364-7.5 7.5-7.5s7.5 3.364 7.5 7.5c0 3.42 2.313 6.406 5.624 7.262 23.184 5.989 39.376 26.896 39.376 50.84-.001 28.996-23.627 52.5-52.501 52.5z"/><path d="m128.5 163.87c0 12.406 10.093 22.5 22.5 22.5s22.5-10.094 22.5-22.5-10.093-22.5-22.5-22.5-22.5 10.094-22.5 22.5zm22.5-7.5c4.136 0 7.5 3.364 7.5 7.5s-3.364 7.5-7.5 7.5-7.5-3.364-7.5-7.5 3.364-7.5 7.5-7.5z"/><path d="m383.5 163.87c0-12.406-10.094-22.5-22.5-22.5s-22.5 10.094-22.5 22.5 10.094 22.5 22.5 22.5 22.5-10.094 22.5-22.5zm-30 0c0-4.136 3.364-7.5 7.5-7.5s7.5 3.364 7.5 7.5-3.364 7.5-7.5 7.5-7.5-3.364-7.5-7.5z"/></g></g></svg>