<svg id="Capa_1" enable-background="new 0 0 512 512" height="512" viewBox="0 0 512 512" width="512" xmlns="http://www.w3.org/2000/svg"><g><g><g><path d="m286.337 398.569c0-16.568-13.431-30-30-30s-30 13.432-30 30c-16.569 0-30 13.432-30 30s13.431 30 30 30c0 16.568 13.431 30 30 30s30-13.432 30-30c16.569 0 30-13.432 30-30s-13.431-30-30-30z" fill="#ff8e9e"/></g><g><path d="m202.104 350.397c0-16.568-13.431-30-30-30s-30 13.432-30 30c-16.569 0-30 13.432-30 30s13.431 30 30 30c0 16.568 13.431 30 30 30s30-13.432 30-30c16.569 0 30-13.432 30-30s-13.431-30-30-30z" fill="#ffb5c0"/></g><g><path d="m176.266 314.032c11.716-11.716 11.716-30.711 0-42.426-.293-.293-.598-.592-.914-.896-23.096-22.256-59.93-22.256-83.026 0-.316.304-.621.603-.914.896-11.716 11.716-11.716 30.711 0 42.426-11.716 11.716-11.716 30.711 0 42.426 11.716 11.716 30.711 11.716 42.426 0 11.716 11.716 30.711 11.716 42.426 0 11.717-11.715 11.717-30.71.002-42.426z" fill="#ff8e9e"/></g><g><path d="m309.896 350.397c0-16.568 13.431-30 30-30s30 13.432 30 30c16.569 0 30 13.432 30 30s-13.431 30-30 30c0 16.568-13.431 30-30 30s-30-13.432-30-30c-16.569 0-30-13.432-30-30s13.431-30 30-30z" fill="#ffb5c0"/></g><g><path d="m335.734 314.032c-11.716-11.716-11.716-30.711 0-42.426.293-.293.598-.592.914-.896 23.096-22.256 59.93-22.256 83.026 0 .316.304.621.603.914.896 11.716 11.716 11.716 30.711 0 42.426 11.716 11.716 11.716 30.711 0 42.426-11.716 11.716-30.711 11.716-42.426 0-11.716 11.716-30.711 11.716-42.426 0-11.717-11.715-11.717-30.71-.002-42.426z" fill="#ff8e9e"/></g></g><g><path d="m212.564 350.397v15.138c0 16.163 11.652 29.725 27.011 31.447 5.817.652 11.5.948 16.387.949h.011c5.451 0 10.731-.321 15.667-.861 15.336-1.676 26.935-15.301 26.935-31.436v-15.236h-86.011z" fill="#d6948c"/><g><path d="m63.94 291.269c-13.546-1.746-24.203-12.421-25.926-25.97-6.515-51.203 36.893-94.85 88.367-88.421l23.131 2.889 2.915 23.128c6.489 51.474-37.369 94.963-88.487 88.374z" fill="#d6948c"/><path d="m67.775 261.515c22.626 2.916 43.002-9.915 51.342-29.123 3.363-7.745 4.705-16.555 3.547-25.745-16.253-2.03-31.383 3.766-41.615 14.265-9.962 10.223-15.269 24.912-13.274 40.603z" fill="#ffdbe0"/></g><g><path d="m447.989 291.269c13.546-1.746 24.203-12.421 25.926-25.97 6.515-51.203-36.893-94.85-88.367-88.421l-23.131 2.889-2.915 23.128c-6.488 51.474 37.37 94.963 88.487 88.374z" fill="#e8b5b1"/><path d="m444.155 261.515c-22.626 2.916-42.932-9.915-51.271-29.123-3.363-7.745-4.776-16.555-3.617-25.745 16.253-2.03 31.453 3.766 41.685 14.265 9.961 10.223 15.198 24.912 13.203 40.603z" fill="#ffdbe0"/></g><g><path d="m430.952 149.424c-10.299-7.198-23.35-11.479-38.068-11.479-3.426-16.301-15.336-28.829-30.505-33.874-17.158-5.708-34.895-10.153-53.066-13.054h-91.654v229.148h118.424c29.99-40.557 56.802-87.772 56.802-87.772 14.718 0 27.769-4.281 38.068-11.479 19.531-13.652 19.531-57.839-.001-71.49z" fill="#e8b5b1"/><path d="m309.313 91.016h-104.175c-19.028 2.894-37.589 7.091-55.517 13.054-15.121 5.029-27.069 17.526-30.505 33.874-14.717 0-27.768 4.28-38.068 11.479-19.531 13.652-19.532 57.838 0 71.489 10.3 7.199 23.35 11.479 38.068 11.479 0 0 26.811 47.215 56.802 87.772h91.741c-16.128-27.084-24.916-58.332-24.924-90.625-.013-53.866 24.489-104.904 66.578-138.522z" fill="#d6948c"/></g><g><path d="m316.36 295.26c-14.603-16.956-42.175-24.477-68.292-22.575v85.883h50.508c6.96-3.513 13.055-8.01 17.784-13.501 6.563-7.621 13.217-16.106 19.722-24.903-6.505-8.797-13.159-17.283-19.722-24.904z" fill="#f2d4d3"/><path d="m273.136 328.79c-11.555-17.072-20.042-36.063-25.069-56.105-20.848 1.519-40.771 9.04-52.427 22.575-6.563 7.621-13.217 16.106-19.722 24.904 6.505 8.797 13.159 17.283 19.722 24.903 21.531 25 71.25 29.496 102.936 13.501-9.62-9.022-18.153-19.011-25.44-29.778z" fill="#e8b5b1"/></g><g><path d="m111.033 188.388c-.734-18.401-13.234-33.597-29.985-38.965-4.217-1.351-8.703-2.08-13.339-2.08-10.011 0-17.9-8.939-23.294-18.943-2.436-4.519-6.984-7.503-12.11-7.788-5.908-.328-11.425 2.94-13.979 8.277-5.358 11.197-10.826 26.924-10.826 47.359v.001c0 23.771 18.585 43.802 42.341 44.638l37.501.032c9.938 0 18.687-6.525 21.56-16.039 1.67-5.53 2.348-11.078 2.131-16.492z" fill="#e8b5b1"/><path d="m493.673 128.89c-2.554-5.337-8.069-8.605-13.976-8.277h-.005c-5.125.284-9.671 3.269-12.107 7.788-5.393 10.004-13.282 18.943-23.294 18.943-23.052 0-42.406 18.012-43.324 41.045-.216 5.414.461 10.962 2.131 16.491 2.873 9.514 11.623 16.039 21.56 16.039l37.501-.032c23.756-.836 42.341-20.867 42.341-44.638v-.001c0-20.435-5.468-36.162-10.827-47.358z" fill="#f2d4d3"/></g><g fill="#d6948c"><circle cx="225.57" cy="320.397" r="15"/><circle cx="285.57" cy="320.397" r="15"/></g><g><g><g><g><ellipse cx="176.443" cy="246.971" fill="#ffdbe0" rx="29.355" ry="23.377"/></g><g><ellipse cx="335.557" cy="246.971" fill="#ffdbe0" rx="29.355" ry="23.377"/></g></g></g></g></g><g><g><g><circle cx="182.991" cy="91.016" fill="#2ed0fc" r="28.585"/><circle cx="212.991" cy="61.016" fill="#7ce3ff" r="28.585"/></g><g><circle cx="329.009" cy="91.016" fill="#ea5b70" r="28.585"/><circle cx="299.009" cy="61.016" fill="#ff8e9e" r="28.585"/></g></g><path d="m284.585 52.016c0 8.204-3.456 15.601-8.992 20.814-5.117 4.818-12.01 7.771-19.593 7.771-7.517 0-14.356-2.902-19.459-7.646-5.614-5.219-9.126-12.669-9.126-20.939 0-15.787 12.798-28.585 28.585-28.585s28.585 12.798 28.585 28.585z" fill="#7ce3ff"/></g><g><g><path d="m308.088 91.016c7.632-16.058-8.082-29.426-21.611-22.995l-10.883 4.809h-30l-32.092 70.569 31.216 70.943h30c12.224-3.2 23.791-9.57 33.371-19.15 28.766-28.768 28.766-75.409-.001-104.176z" fill="#fce3a0"/><path d="m253.29 185.946c-6.453-13.089-9.881-27.632-9.79-42.547.091-14.867 3.672-29.321 10.244-42.297 5.372-10.607 12.738-20.229 21.848-28.271l-3.886-10.927c-5.226-14.696-26.01-14.696-31.236 0l-3.93 11.052-10.839-4.934c-13.704-6.514-29.088 7.64-21.79 22.995-28.767 28.767-28.767 75.408 0 104.175 19.187 19.188 46.322 25.558 70.805 19.15-8.968-8.119-16.191-17.78-21.426-28.396z" fill="#ffce71"/></g><g><path d="m256 101.041c-.757 0-1.508.021-2.255.061l-40.245 42.297 39.79 42.547c.897.057 1.799.095 2.71.095 23.472 0 42.5-19.028 42.5-42.5s-19.028-42.5-42.5-42.5z" fill="#b9f0ff"/><path d="m253.745 101.102c-22.423 1.172-40.245 19.724-40.245 42.439 0 22.561 17.582 41.006 39.79 42.405-6.453-13.089-9.881-27.632-9.79-42.547.091-14.867 3.673-29.321 10.245-42.297z" fill="#7ce3ff"/></g></g><g><path d="m500.438 125.651c-7.764-16.225-30.738-16.98-39.454-.811-3.021 5.604-9.206 15.003-16.692 15.003-4.173 0-8.226.497-12.106 1.425-9.863-6.13-21.297-9.756-33.522-10.622-5.461-16.349-18.716-28.83-34.059-33.734 3.31-20.044-10.505-38.471-29.954-41.538-3.719-23.586-29.293-37.439-51.297-26.855-6.624-7.698-16.426-12.587-27.354-12.587-10.927 0-20.728 4.889-27.351 12.586-21.981-10.569-47.583 3.249-51.3 26.858-19.389 3.058-33.27 21.435-29.954 41.532-16.638 5.532-28.928 18.381-34.058 33.74-12.238.866-23.682 4.499-33.552 10.64-3.943-.956-7.99-1.444-12.076-1.444-7.486 0-13.671-9.399-16.692-15.003-8.783-16.29-31.786-15.212-39.456.812-7.779 16.256-11.561 32.806-11.561 50.596 0 4.403.551 8.79 1.638 13.04 1.026 4.013 5.11 6.433 9.124 5.408 4.013-1.026 6.435-5.111 5.408-9.125-.776-3.036-1.17-6.173-1.17-9.324 0-15.498 3.301-29.931 10.092-44.12 2.474-5.169 9.829-5.533 12.722-.169 8.071 14.972 18.408 22.885 29.895 22.885 22.884 0 42.011 21.391 34.014 47.868-1.934 6.404-7.713 10.707-14.375 10.707l-37.366-.032c-7.378-.285-14.397-2.822-20.306-7.34-3.289-2.516-7.996-1.888-10.514 1.402-2.516 3.29-1.888 7.997 1.402 10.514 4.435 3.392 9.318 5.987 14.483 7.748-4.685 12.865-6.233 26.709-4.474 40.535 2.152 16.931 15.479 30.28 32.407 32.462 4.501.58 8.541.774 12.745.709.939 5.229 2.972 10.218 5.976 14.608-15.26 22.217-2.645 52.956 23.812 58.027-2.077 8.963-.759 18.444 4.002 26.845 5.588 9.86 14.914 16.428 25.721 18.388 3.244 17.398 18.541 30.612 36.866 30.612 7.102 0 13.744-1.991 19.411-5.435 4.71 11.761 15.206 20.604 27.953 22.975 3.236 17.408 18.538 30.631 36.87 30.631 18.334 0 33.637-13.227 36.871-30.638 12.574-2.36 23.007-11.07 27.796-22.649 5.551 3.25 12.008 5.116 18.892 5.116 18.325 0 33.623-13.214 36.866-30.612 10.807-1.96 20.133-8.527 25.721-18.388 4.759-8.398 6.078-17.875 4.005-26.835 6.828-1.31 13.178-4.496 18.357-9.292 3.039-2.815 3.221-7.561.406-10.6s-7.561-3.22-10.6-.406c-8.694 8.055-22.501 8.077-31.186-.609-2.929-2.927-7.678-2.929-10.606 0-14.015 14.015-38.404 4.256-38.404-15.905 0-.174.01-.349.015-.524 15.419-19.832 30.412-42.322 42.107-60.825 12.348 12.48 27.87 20.725 44.707 23.972-.932 4.078-2.969 7.826-5.998 10.855-2.928 2.926-2.929 7.677-.001 10.607 3.283 3.282 5.443 7.423 6.246 11.973.642 3.639 3.806 6.198 7.377 6.198.433 0 .871-.037 1.312-.115 4.079-.72 6.803-4.609 6.083-8.688-.937-5.312-2.979-10.286-5.992-14.669 3.025-4.391 5.036-9.36 5.964-14.616 4.157.067 8.263-.142 12.677-.71 16.928-2.182 30.253-15.531 32.406-32.461 1.758-13.817.214-27.651-4.463-40.507 7.82-2.65 14.947-7.211 20.804-13.428 9.222-9.791 14.302-22.599 14.302-36.064 0-17.791-3.782-34.342-11.562-50.597zm-166.617-55.144c9.311 2.186 16.272 10.54 16.272 20.508 0 10.967-8.419 19.997-19.131 20.987-3.028-7.327-7.187-14.288-12.45-20.638 7.574-4.833 12.992-12.248 15.309-20.857zm-124.606 25.812c2.244-2.244 2.833-5.657 1.471-8.523-4.178-8.79 4.106-16.55 11.909-12.948 11.084 5.045 13.004 6.654 16.874 5.013 1.934-.82 3.435-2.413 4.139-4.393l3.93-11.051c.986-2.773 5.125-4.036 8.552-4.036 3.427.001 7.565 1.264 8.551 4.035l3.886 10.927c1.464 4.118 6.123 6.106 10.097 4.348.134-.059 10.942-4.833 11.073-4.896 7.162-3.409 16.227 3.3 11.617 13.001-1.362 2.866-.773 6.279 1.471 8.523 41.6 41.599 11.88 112.92-46.785 112.917-58.628-.006-88.423-71.278-46.785-112.917zm106.649-22.615c-3.852-9.447-13.669-15.684-24.481-14.674 1.189-5.953.83-11.856-.812-17.342 19.732-8.656 38.279 14.792 25.293 32.016zm-59.864-42.772c12.646 0 22.916 11.269 20.788 24.494-8.782-13.436-32.879-13.441-41.54.226-2.271-13.22 7.941-24.72 20.752-24.72zm-34.571 10.754c-1.632 5.449-2.005 11.331-.819 17.307-10.99-.95-20.523 5.834-24.296 14.899-13.003-16.832 4.97-41.037 25.115-32.206zm-43.251 28.821c2.343 8.585 7.813 16.025 15.314 20.85-5.266 6.352-9.428 13.315-12.457 20.645-10.712-.991-19.129-10.02-19.129-20.987 0-9.968 6.961-18.322 16.272-20.508zm-80.851 78.782c6.722-2.53 14.078-3.845 21.789-3.845 3.548 0 6.61-2.485 7.34-5.958 2.717-12.928 11.698-23.744 26.437-28.596 5.338 8.057 13.819 13.85 23.682 15.628-10.463 50.502 27.905 97.711 79.425 97.711 51.549 0 89.88-47.235 79.422-97.709 9.888-1.782 18.387-7.6 23.722-15.688 1.307.624 21.663 6.112 26.399 28.655.729 3.473 3.792 5.958 7.34 5.958 7.67 0 14.989 1.302 21.683 3.806-17.362 12.319-25.709 34.417-18.648 57.797 2.048 6.783 6.275 12.366 11.772 16.13-4.726 1.128-9.687 1.715-14.806 1.715-2.698 0-5.189 1.45-6.521 3.797-.301.53-23.443 41.138-50.397 78.866-4.84-6.295-9.506-12.061-13.923-17.19-29.252-33.963-102.805-33.996-132.086 0-4.416 5.128-9.081 10.893-13.922 17.189-26.948-37.722-50.095-78.335-50.397-78.865-1.333-2.347-3.823-3.797-6.522-3.797-5.119 0-10.079-.586-14.805-1.714 5.496-3.764 9.722-9.347 11.771-16.129 6.936-22.967-1.001-45.126-18.755-57.761zm332.077 81.42c4.899 6.816 7.565 15.058 7.666 23.715-12.468-.194-23.944-5.925-31.585-15.521 8.555-1.361 16.624-4.123 23.919-8.194zm-118.727 109.464c-10.764 12.498-31.714 20.263-54.675 20.263-22.962 0-43.914-7.764-54.678-20.263-5.316-6.172-10.708-12.948-16.038-20.01 5.624-7.446 11.008-14.167 16.038-20.008 23.242-26.987 86.117-26.98 109.354 0 5.031 5.842 10.415 12.563 16.038 20.009-5.331 7.061-10.722 13.836-16.039 20.009zm-39.851 49.441c-10.522 1.151-20.359 1.043-30.415-.085-10.287-1.153-18.316-9.402-20.004-19.886 10.715 3.757 22.841 5.792 35.595 5.792 12.404 0 24.212-1.927 34.708-5.489-1.748 10.413-9.709 18.556-19.884 19.668zm-188.234-158.907c7.279 4.062 15.329 6.82 23.862 8.186-7.668 9.463-19.264 15.255-31.59 15.513.116-8.634 2.803-16.87 7.728-23.699zm-17.694 53.124c-10.157-1.31-18.152-9.318-19.444-19.478-1.569-12.328.036-24.66 4.636-35.967l16.309.014c-5.414 10.213-7.593 22.042-6.065 34.06.43 3.388 3.095 6.057 6.481 6.493 20.507 2.641 40.305-6.269 52.229-21.793 2.235 3.769 4.986 8.352 8.155 13.524-15.763 17.583-38.683 26.19-62.301 23.147zm31.818 35.504c2.929-2.929 2.929-7.677 0-10.606-3.004-3.003-5.065-6.788-6.006-10.866 16.832-3.259 32.348-11.515 44.687-24.003 11.698 18.511 26.703 41.021 42.134 60.868.487 20.234-24.099 30.719-38.389 16.429-2.929-2.928-7.678-2.928-10.606 0-8.773 8.773-23.047 8.773-31.82 0-8.773-8.774-8.773-23.049 0-31.822zm75.388 113.562c-12.407 0-22.5-10.094-22.5-22.5 0-4.143-3.358-7.5-7.5-7.5-8.189 0-15.493-4.26-19.537-11.396-3.528-6.225-3.925-13.428-1.218-19.809 4.394-1.044 8.638-2.875 12.49-5.52 19.465 13.361 46.667 5.554 55.851-16.523.089.103.178.208.267.312 4.121 4.785 9.233 8.985 15.107 12.53v3.043c0 12.049 5.247 22.897 13.605 30.101-4.191 4.579-10.13 7.262-16.565 7.262-4.142 0-7.5 3.357-7.5 7.5 0 12.407-10.093 22.5-22.5 22.5zm114.233 18.171c-4.142 0-7.5 3.357-7.5 7.5 0 12.406-10.093 22.5-22.5 22.5s-22.5-10.094-22.5-22.5c0-4.143-3.358-7.5-7.5-7.5-11.845 0-21.575-9.203-22.432-20.833 2.442-3.901 4.194-8.277 5.066-12.96 9.218-1.689 17.395-6.756 23.033-14.244 9.821 3.021 37.174 3.406 47.919-.132 5.632 7.457 13.914 12.617 23.1 14.353.939 5.06 2.902 9.763 5.658 13.894-1.289 11.177-10.868 19.922-22.344 19.922zm91.825-84.887c3.797 2.614 8.025 4.479 12.498 5.537 2.696 6.374 2.296 13.567-1.229 19.784-4.043 7.136-11.347 11.396-19.536 11.396-4.143 0-7.5 3.357-7.5 7.5 0 12.406-10.094 22.5-22.5 22.5s-22.5-10.094-22.5-22.5c0-4.143-3.358-7.5-7.5-7.5-6.496 0-12.63-2.866-16.85-7.611 8.023-7.193 13.03-17.839 13.03-29.652v-2.625c6.777-3.964 12.002-8.418 16.232-13.357 9.281 22.336 36.628 29.77 55.855 16.528zm88.313-101.827c-1.291 10.159-9.287 18.168-19.444 19.478-23.591 3.042-46.495-5.549-62.259-23.1 3.181-5.19 5.941-9.789 8.182-13.569 12.088 15.744 31.96 24.393 52.16 21.792 3.386-.437 6.051-3.105 6.481-6.492 1.53-12.037-.63-23.865-6.013-34.061l16.257-.014c4.601 11.305 6.205 23.637 4.636 35.966zm-4.457-50.967-37.359.032c-6.668 0-12.446-4.303-14.381-10.707-7.898-26.146 10.556-47.868 34.014-47.868 11.486 0 21.824-7.913 29.896-22.885 2.855-5.293 10.208-5.081 12.721.168 0 0 .001 0 .001.001 6.791 14.188 10.092 28.62 10.092 44.121-.002 19.758-15.683 36.392-34.984 37.138z"/><path d="m225.57 297.897c-12.407 0-22.5 10.094-22.5 22.5s10.093 22.5 22.5 22.5 22.5-10.094 22.5-22.5-10.093-22.5-22.5-22.5zm0 30c-4.136 0-7.5-3.364-7.5-7.5s3.364-7.5 7.5-7.5 7.5 3.364 7.5 7.5-3.364 7.5-7.5 7.5z"/><path d="m285.57 297.897c-12.407 0-22.5 10.094-22.5 22.5s10.093 22.5 22.5 22.5 22.5-10.094 22.5-22.5-10.093-22.5-22.5-22.5zm0 30c-4.136 0-7.5-3.364-7.5-7.5s3.364-7.5 7.5-7.5 7.5 3.364 7.5 7.5-3.364 7.5-7.5 7.5z"/><path d="m193.551 239.968c4.142 0 7.5-3.357 7.5-7.5v-12c0-4.143-3.358-7.5-7.5-7.5s-7.5 3.357-7.5 7.5v12c0 4.142 3.358 7.5 7.5 7.5z"/><path d="m318.449 239.968c4.142 0 7.5-3.357 7.5-7.5v-12c0-4.143-3.358-7.5-7.5-7.5s-7.5 3.357-7.5 7.5v12c0 4.142 3.358 7.5 7.5 7.5z"/><circle cx="256.337" cy="428.569" r="7.5"/><circle cx="172.104" cy="390.397" r="7.5"/><path d="m139.142 319.335c2.929-2.929 2.929-7.678 0-10.606-2.929-2.929-7.678-2.929-10.607 0s-2.929 7.678 0 10.606c2.93 2.93 7.679 2.93 10.607 0z"/><circle cx="339.896" cy="390.397" r="7.5"/><path d="m372.858 308.729c-2.929 2.929-2.929 7.678 0 10.606 2.929 2.929 7.678 2.929 10.607 0s2.929-7.678 0-10.606c-2.93-2.929-7.679-2.929-10.607 0z"/><path d="m256 193.541c27.57 0 50-22.43 50-50 0-13.852-5.534-26.731-15.583-36.269-31.527-29.927-84.119-7.879-84.413 35.925-.003.117-.003.235-.001.354.017 27.755 22.487 49.99 49.997 49.99zm-34.997-50.123c.064-18.561 14.618-33.858 33.133-34.826 20.142-1.046 36.864 14.915 36.864 34.949 0 19.299-15.701 35-35 35-19.292 0-35.048-15.627-34.997-35.119 0-.001 0-.003 0-.004z"/><circle cx="256" cy="143.541" r="7.5"/></g></g></svg>