<svg id="Capa_1" enable-background="new 0 0 512 512" height="512" viewBox="0 0 512 512" width="512" xmlns="http://www.w3.org/2000/svg"><g><g><path d="m192.113 112.788c-11.881-50.81-76.017-68.432-112.888-31.51-24.15 24.686-26.522 64.582-4.208 90.939l180.983 213.783z" fill="#30cd9c"/><path d="m256 7.5c-44.821.158-78.646 42.169-68.441 85.813l68.441 292.687 68.441-292.686c10.205-43.644-23.62-85.656-68.441-85.814z" fill="#70dcba"/><path d="m399.452 216.551-143.452 169.449 208.859-74.103c23.568-8.362 39.614-31.412 39.654-56.42-.292-55.281-69.343-81.118-105.061-38.926z" fill="#b0ebd8"/><path d="m432.775 81.278c-36.872-36.922-101.007-19.3-112.888 31.51l-63.887 273.212 180.983-213.782c22.314-26.358 19.942-66.254-4.208-90.94z" fill="#b0ebd8"/><path d="m112.549 216.552c-35.714-42.187-104.765-16.362-105.061 38.912.038 25.013 16.081 48.07 39.654 56.433l208.858 74.103z" fill="#30cd9c"/></g><g><path d="m277.524 326.477h-32.215l-35.148 77.564 59.395 68.58h32.215c14.84-12.717 24.229-31.51 24.229-52.473 0-31.103-24.839-67.255-48.476-93.671z" fill="#2ed0fc"/><g><path d="m242.376 404.041c0-24.642 16.434-53.461 35.148-77.564h-42.977c-23.475 26.425-48.547 63.233-48.547 93.671 0 39.403 31.519 69.35 70 69.352 17.5.001 33.499-6.362 45.771-16.878-33.502-4.921-59.395-32.867-59.395-68.581z" fill="#1cbbea"/></g></g><g><circle cx="203.195" cy="185.969" fill="#1cbbea" r="17.5"/><circle cx="256.034" cy="174.969" fill="#1cbbea" r="25"/><circle cx="308.805" cy="185.969" fill="#2ed0fc" r="17.5"/></g><g><g><path d="m347.21 223.276c-14.403-18.678-34.072-32.144-56.058-39.123h-44.231l-80.67 95.138 77.366 100.886h44.231c6.103-1.44 12.018-3.276 17.657-5.528 38.743-15.465 65.495-49.567 65.495-95.359 0-18.59-9.852-37.941-23.79-56.014z" fill="#2ed0fc"/><path d="m256 369.419c-32.605-17.205-54.363-48.923-54.363-90.128 0-37.569 28.215-79.316 74.297-91.223l15.219-3.915c-11.243-3.569-23.091-5.446-35.153-5.446-35.648 0-69.442 16.339-91.21 44.569-13.938 18.073-23.79 37.424-23.79 56.014 0 63.512 51.487 104.544 115 104.544 10.751 0 21.247-1.153 31.849-3.657-11.342-1.752-22.064-5.389-31.849-10.551z" fill="#1cbbea"/></g><g fill="#ff8e9e"><ellipse cx="187.256" cy="310.096" rx="25.605" ry="20.391"/><path d="m326.045 289.705c-14.142 0-25.606 9.129-25.606 20.391s11.464 20.391 25.606 20.391c14.141 0 25.605-9.129 25.605-20.391 0-11.261-11.464-20.391-25.605-20.391z"/></g></g><g><g><path d="m268.878 284.158h-18.857l.106 56.568h18.857l6.508-6.683c5.267-5.27 10.508-12.978 10.508-21.154 0-14.063-7.357-24.087-17.122-28.731z" fill="#efedff"/></g><path d="m251.714 312.89c0-3.516.087-7.379 2.033-12.412 2.781-7.191 8.235-13.032 15.131-16.32-4.002-1.903-8.406-2.908-12.878-2.908-12.739 0-23.616 7.978-27.967 19.228-1.946 5.032-2.033 8.896-2.033 12.412 0 8.176 5.241 15.884 10.508 21.154l11.474 11.338c2.204 2.245 5.003 3.368 8.018 3.368s6.247-1.122 8.451-3.368l4.534-4.656-6.763-6.683c-5.267-5.269-10.508-12.977-10.508-21.153z" fill="#d4d4ff"/></g><path d="m241 474.5h-30c-8.284 0-15 6.716-15 15s6.716 15 15 15h30c8.284 0 15-6.716 15-15s-6.716-15-15-15z" fill="#d4d4ff"/><path d="m301 474.5h-30c-8.284 0-15 6.716-15 15s6.716 15 15 15h30c8.284 0 15-6.716 15-15s-6.716-15-15-15z" fill="#efedff"/><g><circle cx="255.746" cy="77.499" fill="#fce3a0" r="40"/></g><g><circle cx="126.91" cy="128.735" fill="#ffce71" r="37"/></g><g><circle cx="66.795" cy="255.44" fill="#ffce71" r="29"/></g><g><circle cx="385.09" cy="128.735" fill="#ffce71" r="37"/></g><g><circle cx="445.205" cy="255.44" fill="#ffce71" r="29"/></g><g><path d="m186.051 283.468v12c0 4.143 3.358 7.5 7.5 7.5s7.5-3.357 7.5-7.5v-12c0-4.143-3.358-7.5-7.5-7.5s-7.5 3.358-7.5 7.5z"/><path d="m325.949 295.468v-12c0-4.143-3.358-7.5-7.5-7.5s-7.5 3.357-7.5 7.5v12c0 4.143 3.358 7.5 7.5 7.5s7.5-3.357 7.5-7.5z"/><path d="m256 273.75c-19.389 0-37.5 14.831-37.5 39.141 0 11.958 7.958 21.708 12.736 26.488l11.439 11.303c7.888 7.983 20.343 6.867 27.149-.067l10.973-11.269c4.744-4.747 12.703-14.497 12.703-26.455 0-23.807-17.779-39.141-37.5-39.141zm14.119 55.062-11.02 11.316c-.982 1-3.877 1.924-5.764 0-.027-.027-.054-.054-.081-.081l-11.44-11.305c-2.5-2.501-8.313-9.052-8.313-15.852 0-3.37.11-6.039 1.528-9.707 3.391-8.768 11.623-14.434 20.972-14.434 11.183 0 22.5 8.368 22.5 24.141-.001 6.8-5.814 13.351-8.382 15.922z"/><ellipse cx="255.746" cy="77.499" rx="14.995" ry="15"/><path d="m171.41 128.735c0-24.537-19.962-44.5-44.5-44.5s-44.5 19.963-44.5 44.5 19.962 44.5 44.5 44.5 44.5-19.963 44.5-44.5zm-74 0c0-16.267 13.233-29.5 29.5-29.5s29.5 13.233 29.5 29.5-13.233 29.5-29.5 29.5-29.5-13.233-29.5-29.5z"/><circle cx="126.91" cy="128.735" r="7.5"/><circle cx="66.795" cy="255.44" r="7.5"/><path d="m429.473 128.735c0-24.537-19.951-44.5-44.474-44.5s-44.475 19.963-44.475 44.5 19.951 44.5 44.475 44.5c24.522 0 44.474-19.963 44.474-44.5zm-73.949 0c0-16.267 13.223-29.5 29.475-29.5s29.474 13.233 29.474 29.5-13.222 29.5-29.474 29.5-29.475-13.233-29.475-29.5z"/><path d="m392.493 128.735c0-4.135-3.362-7.5-7.495-7.5s-7.495 3.365-7.495 7.5 3.362 7.5 7.495 7.5 7.495-3.365 7.495-7.5z"/><path d="m445.205 218.94c-20.126 0-36.5 16.374-36.5 36.5s16.374 36.5 36.5 36.5 36.5-16.374 36.5-36.5-16.374-36.5-36.5-36.5zm0 58c-11.855 0-21.5-9.645-21.5-21.5s9.645-21.5 21.5-21.5 21.5 9.645 21.5 21.5-9.644 21.5-21.5 21.5z"/><circle cx="445.205" cy="255.44" r="7.5"/><path d="m255.862 30.002c-26.176 0-47.588 21.306-47.588 47.497s21.296 47.5 47.472 47.5 47.472-21.309 47.472-47.5c0-26.132-21.261-47.401-47.356-47.497zm-.116 79.997c-17.905 0-32.472-14.579-32.472-32.5s14.567-32.5 32.472-32.5 32.472 14.579 32.472 32.5-14.567 32.5-32.472 32.5z"/><path d="m432.662 188.979 10.082-11.917c24.504-28.964 22.497-73.34-4.622-101.081-30.511-30.573-76.984-27.285-104.322-1.671-1.714-39.963-34.954-74.16-77.664-74.31-.067 0-.134.003-.201.003h-.002c-42.365.259-75.909 34.298-77.424 74.714-13.533-12.895-31.937-20.607-52.024-20.607-23.92 0-45.658 11.353-59.279 29.679-2.472 3.324-1.78 8.021 1.543 10.493s8.022 1.781 10.494-1.544c10.722-14.414 27.987-23.628 47.241-23.628 28.028 0 51.964 18.663 58.208 45.385l11.12 47.587c-14.762 4.572-21.736 21.234-15.118 34.807-14.164 11.186-27.943 27.525-36.921 45.033l-63.066-74.548c-8.785-10.385-13.623-23.803-13.623-37.784 0-4.227.439-8.478 1.305-12.636.845-4.055-1.758-8.027-5.813-8.872-4.051-.839-8.026 1.759-8.872 5.813-1.075 5.162-1.621 10.442-1.621 15.694 0 30.577 16.312 46.458 27.252 59.39-38.409-6.744-79.101 21.995-79.335 66.509.045 28.465 17.922 53.939 44.496 63.433l146.114 57.363c-16.866 33.837-17.78 67.045 7.214 94.994-5.644 4.092-9.325 10.734-9.325 18.222 0 12.406 10.093 22.5 22.5 22.5h30c5.758 0 11.016-2.177 15-5.748 3.984 3.571 9.242 5.748 15 5.748h30c12.407 0 22.5-10.094 22.5-22.5 0-7.573-3.765-14.28-9.518-18.36 8.629-9.608 14.646-21.123 17.569-33.798.931-4.037-1.587-8.063-5.623-8.994-4.035-.93-8.062 1.588-8.993 5.623-.765 3.319-1.799 6.538-3.08 9.64-8.278-3.105-14.261-14.671-13.108-27.514.37-4.126-2.674-7.771-6.8-8.141-4.128-.371-7.77 2.673-8.141 6.799-1.569 17.483 6.247 35.201 20.601 41.98-3.104 4.171-6.061 7.159-9.596 10.265h-25.81c-5.758 0-11.016 2.177-15 5.748-3.984-3.571-9.242-5.748-15-5.748h-26.113c-3.611-3.085-6.812-6.54-9.563-10.298 14.602-6.945 22.057-24.897 20.527-41.947-.371-4.125-4.012-7.165-8.141-6.799-4.125.37-7.17 4.015-6.8 8.141 1.14 12.699-4.698 24.205-12.911 27.434-8.652-21.484-3.891-41.065 6.562-61.611 2.523.985 12.238 4.57 14.88 4.57 3.289 0 6.307-2.181 7.225-5.505 1.103-3.992-1.239-8.123-5.232-9.227-44.288-12.235-72.934-47.133-72.934-92.469 0-26.446 24.281-59.268 46.778-74.51 3.948-2.673 4.425-8.312.993-11.613-1.984-1.909-3.076-4.465-3.076-7.198 0-10.897 14.985-13.85 19.212-3.896 5.886 13.873 26.935 9.002 26.136-6.235-.504-9.615 7.161-18.369 17.491-18.369 10.295 0 18.006 8.729 17.49 18.385-.346 6.464 3.953 12.337 10.148 13.946 6.466 1.693 13.338-1.625 15.919-7.721 4.25-10.03 19.214-6.947 19.214 3.89 0 2.736-1.096 5.296-3.086 7.207-3.45 3.313-2.948 8.954.989 11.62 17.905 12.127 34.99 33.681 42.514 53.634 2.839 7.527 4.278 14.546 4.278 20.86 0 44.799-28.078 80.076-72.935 92.469-3.993 1.104-6.335 5.234-5.231 9.228 1.103 3.992 5.235 6.331 9.227 5.231 4.469-1.235 8.825-2.71 13.046-4.365 4.602 9.112 7.799 17.71 9.476 25.612.749 3.526 3.862 5.944 7.329 5.944 4.776 0 8.333-4.398 7.344-9.06-1.874-8.832-5.297-18.271-10.19-28.148l145.937-57.28c26.573-9.492 44.451-34.968 44.497-63.485-.233-43.965-40.432-73.286-79.338-66.456zm-161.662 293.021h30c4.136 0 7.5 3.364 7.5 7.5s-3.364 7.5-7.5 7.5h-30c-4.136 0-7.5-3.364-7.5-7.5s3.364-7.5 7.5-7.5zm-60 0h30c4.136 0 7.5 3.364 7.5 7.5s-3.364 7.5-7.5 7.5h-30c-4.136 0-7.5-3.364-7.5-7.5s3.364-7.5 7.5-7.5zm-54.93-135.391-106.203-41.694c-.077-.03-.154-.059-.231-.086-20.343-7.223-34.578-27.499-34.634-49.266l15.297-.004c.065 20.071 16.411 36.381 36.497 36.381 20.126 0 36.5-16.374 36.5-36.5s-16.374-36.5-36.5-36.5-36.5 16.374-36.5 36.5c0 .04.003.079.003.118h-15.297c0-.014-.001-.029-.001-.043.255-48.483 60.677-70.861 91.761-34.12l30.496 36.047c-8.781 27.045-1.611 63.149 18.812 89.167zm-110.775-91.169c0-11.855 9.645-21.5 21.5-21.5s21.5 9.645 21.5 21.5-9.645 21.5-21.5 21.5-21.5-9.644-21.5-21.5zm255.432-93.12c-4.985 1.703-9.321 4.948-12.36 9.255-1.701-15.954-15.086-29.106-32.333-29.106-17.283 0-30.679 13.198-32.342 29.191-2.971-4.247-7.199-7.464-12.065-9.209l-16.554-70.844c-9.058-38.764 20.983-76.328 60.927-76.603 40.172.143 70.312 37.829 61.251 76.603zm30.574 34.576c1.64-3.358 2.504-7.07 2.504-10.928 0-11.216-7.425-20.73-17.618-23.887l11.125-47.609c10.534-44.995 67.409-60.745 100.137-27.951 21.717 22.215 23.404 57.729 3.843 80.853l-37.499 44.326c-.002.002-.004.005-.006.007l-25.543 30.193c-8.661-16.911-22.108-33.347-36.943-45.004zm131.064 107.933c-.078.027-.155.056-.231.086l-106.19 41.679c20.394-25.992 27.578-62.061 18.806-89.16l30.494-36.046c31.194-36.861 91.501-14.165 91.756 34.077-.035 21.837-14.277 42.137-34.635 49.364z"/></g></g></svg>