<svg id="Capa_1" enable-background="new 0 0 512 512" height="512" viewBox="0 0 512 512" width="512" xmlns="http://www.w3.org/2000/svg"><g><g><path d="m76 149.99c0 78.695 80.589 142.49 180 142.49v-284.98c-99.411 0-180 63.795-180 142.49z" fill="#ffb357"/><path d="m256 7.5v284.98c99.411 0 180-63.795 180-142.49s-80.589-142.49-180-142.49z" fill="#ffce71"/></g><g><path d="m280.718 155.392h-45v186.848 151.323h45 45.001v-90.214l-20-30 20-30v-187.957z" fill="#fce3a0"/><path d="m269.99 367.339c-8.958-8.958-13.99-21.107-13.99-33.776v-197.563h-69.718v148.782l20 30-20 30v28.567h69.718 20z" fill="#ffce71"/></g><g fill="#ffb357"><path d="m205.718 284.781h-19.437v48.781 11.219h19.437c16.568 0 30-13.432 30-30s-13.432-30-30-30z"/><path d="m306 343.349c-16.568 0-30 13.432-30 30s13.432 30 30 30h19.718v-60z"/></g><g><path d="m285.264 10.523-91.824 18.769v136.708l104.881 17.107c51.019-10.94 87.679-41.105 87.679-76.607 0-38.465-43.032-83.976-100.736-95.977z" fill="#fce3a0"/><path d="m230 99.9c0-30.497 21.363-64.484 55.264-89.377-9.406-1.956-19.201-3.023-29.264-3.023-71.797 0-130 54.265-130 99s58.203 81 130 81c14.818 0 29.054-1.548 42.322-4.393-41.386-18.637-68.322-48.96-68.322-83.207z" fill="#ffce71"/></g><g><path d="m291.62 225.638-20.62-20.62v-45.569h-30v45.569l-20.62 20.62c-5.858 5.857-5.858 15.355 0 21.213 5.857 5.857 15.355 5.857 21.213 0l14.407-14.408 14.407 14.407c2.929 2.929 6.768 4.394 10.606 4.394s7.678-1.465 10.606-4.394c5.86-5.857 5.86-15.355.001-21.212z" fill="#ff8e9e"/></g><g><g><g><ellipse cx="180.798" cy="129.392" fill="#ff8e9e" rx="25" ry="19.909"/></g><g><ellipse cx="331.202" cy="129.392" fill="#ff8e9e" rx="25" ry="19.909"/></g></g></g><g><g><path d="m276 404.5v96.032h61.5c36.794-11.319 63.5-45.573 63.5-86.032v-10z" fill="#d6948c"/></g><path d="m276 433.349v-28.849h-163.013v28.849c8.658 40.574 44.685 71.151 88.013 71.151 119.131 0 115.19.463 125.658-1.36 3.697-.649 7.311-1.536 10.838-2.621-30.924-9.523-54.684-35.247-61.496-67.17z" fill="#ce857a"/></g><g><path d="m414.5 373.349h-138.5l-38.5 31.151 38.5 28.849h138.5c16.569 0 30-13.432 30-30 0-16.569-13.431-30-30-30z" fill="#f2d4d3"/><path d="m276 373.349h-178.5c-16.569 0-30 13.431-30 30 0 16.568 13.431 30 30 30h178.5c-16.568-16.569-16.568-43.432 0-60z" fill="#e8b5b1"/></g><g><path d="m215.077 220.334c-8.793 8.791-8.796 23.027 0 31.82 8.772 8.771 23.047 8.771 31.819 0l9.104-9.104 9.104 9.104c8.795 8.793 23.025 8.794 31.819 0 8.793-8.791 8.796-23.027 0-31.82l-18.423-18.423v-33.324c8.137-3.217 13.911-11.156 13.911-20.423 0-4.143-3.358-7.5-7.5-7.5s-7.5 3.357-7.5 7.5c0 3.836-3.12 6.956-6.956 6.956s-6.956-3.12-6.956-6.956c0-4.143-3.358-7.5-7.5-7.5s-7.5 3.357-7.5 7.5c0 3.836-3.12 6.956-6.956 6.956s-6.956-3.12-6.956-6.956c0-4.143-3.358-7.5-7.5-7.5s-7.5 3.357-7.5 7.5c0 9.267 5.774 17.206 13.911 20.423v33.324zm31.226-10.013c1.407-1.407 2.197-3.314 2.197-5.304v-36.033c2.791-.935 5.333-2.415 7.5-4.315 2.167 1.9 4.709 3.38 7.5 4.315v36.033c0 1.989.79 3.896 2.197 5.304l20.621 20.62c2.93 2.929 2.932 7.675 0 10.605-2.925 2.926-7.682 2.926-10.606 0l-14.407-14.407c-2.929-2.928-7.678-2.928-10.606 0l-14.407 14.407c-2.924 2.926-7.682 2.925-10.607 0-2.93-2.929-2.932-7.675 0-10.605z"/><path d="m201.051 120.356v-12c0-4.143-3.357-7.5-7.5-7.5s-7.5 3.357-7.5 7.5v12c0 4.143 3.357 7.5 7.5 7.5s7.5-3.357 7.5-7.5z"/><path d="m325.948 120.356v-12c0-4.143-3.357-7.5-7.5-7.5s-7.5 3.357-7.5 7.5v12c0 4.143 3.357 7.5 7.5 7.5s7.5-3.357 7.5-7.5z"/><path d="m413.797 365.849h-80.578v-79.124c67.179-24.241 110.281-77.423 110.281-136.735 0-84.369-85.662-149.99-187.5-149.99-29.274 0-57.311 5.236-83.331 15.563-3.85 1.527-5.732 5.888-4.205 9.737 1.528 3.851 5.887 5.729 9.738 4.204 24.252-9.624 50.426-14.504 77.798-14.504 95.117 0 172.5 60.557 172.5 134.99 0 51.391-37.057 97.882-95.281 120.71v-90.791c29.794-12.857 53.16-34.108 58.882-60.723 4.218 9.949 6.399 20.331 6.399 30.804 0 26.361-13.672 51.702-38.497 71.353-3.247 2.571-3.796 7.288-1.226 10.536 1.48 1.87 3.673 2.845 5.886 2.845 1.63 0 3.272-.529 4.65-1.619 28.494-22.556 44.187-52.073 44.187-83.114 0-20.49-6.92-40.544-20.043-58.354-1.62-2.199-4.191-3.498-6.922-3.542-5.52-.089-9.682 4.857-8.806 10.309 6.159 38.341-33.924 65.838-75.675 76.134-4.324 1.067-6.838 5.686-5.203 9.984 1.363 3.581 5.343 5.438 9.062 4.514 4.228-1.049 8.324-2.232 12.306-3.516v180.33h-124.437v-180.328c2.127.686 12.102 3.798 14.348 3.798 8.775 0 10.365-12.666 1.792-14.783-41.748-10.31-81.811-37.808-75.647-76.138.876-5.449-3.283-10.396-8.802-10.31-2.732.042-5.306 1.342-6.927 3.542-13.124 17.812-20.046 37.869-20.046 58.359 0 31.041 15.692 60.558 44.186 83.114 1.378 1.09 3.02 1.619 4.65 1.619 2.213 0 4.405-.975 5.885-2.845 2.571-3.248 2.022-7.965-1.225-10.536-24.825-19.651-38.497-44.991-38.497-71.353 0-10.474 2.182-20.857 6.4-30.807 5.718 26.606 29.073 47.859 58.881 60.727v90.79c-58.223-22.826-95.28-69.318-95.28-120.709 0-42.648 24.997-81.893 68.594-107.71 3.51-2.079 4.955-6.607 2.998-10.186-2.043-3.737-6.756-5.013-10.396-2.867-44.465 26.246-76.196 69.581-76.196 120.763 0 59.312 43.103 112.494 110.282 136.734v79.124h-80.579c-20.478 0-37.709 16.125-38.193 36.597-.499 21.089 16.511 38.403 37.489 38.403h9.641c11.822 42.033 50.141 71.152 93.86 71.152h107.173c21.91 0 41.695-4.879 61.004-19.261 3.394-2.529 4.038-7.379 1.367-10.711-2.56-3.194-7.295-3.56-10.587-1.127-16.588 12.264-33.524 16.106-51.785 16.106l-107.172-.007c-35.514 0-67.004-23.124-78.169-56.151h44.444c4.107 0 7.688-3.165 7.811-7.271.127-4.247-3.278-7.729-7.497-7.729h-69.536c-12.184 0-22.575-9.456-23.036-21.631-.484-12.801 9.788-23.369 22.484-23.369h316.447c12.184 0 22.575 9.456 23.036 21.631.484 12.8-9.789 23.369-22.484 23.369h-216.538c-4.107 0-7.688 3.165-7.811 7.271-.127 4.247 3.278 7.729 7.497 7.729h191.518c-2.351 6.993-5.617 13.634-9.799 19.817-2.298 3.398-1.751 8.116 1.552 10.546 3.441 2.532 8.261 1.686 10.646-1.809 6.004-8.8 10.446-18.387 13.287-28.555h9.647c20.978 0 37.988-17.314 37.489-38.403-.483-20.472-17.713-36.596-38.191-36.596z"/></g></g></svg>