<svg id="Capa_1" enable-background="new 0 0 512 512" height="512" viewBox="0 0 512 512" width="512" xmlns="http://www.w3.org/2000/svg"><g><path d="m263.621 139.19c5.15-1.004 9.188-5.042 10.192-10.192 3.171-16.27-1.54-33.774-14.148-46.382s-30.112-17.319-46.382-14.147c-5.15 1.003-9.188 5.042-10.192 10.192-3.171 16.27 1.54 33.774 14.148 46.382s30.112 17.319 46.382 14.147z" fill="#70dcba"/><path d="m152.767 398.667c0 25.315 20.522 45.837 45.837 45.837h114.792c25.315 0 45.837-20.521 45.837-45.837l-103.233-30z" fill="#ffb357"/><g><g><path d="m440.159 126.515c-7.613-8.15-20.553-9.153-29.111-1.473-11.084-9.941-27.699-9.923-38.762 0-11.084-9.941-27.699-9.922-38.762 0-11.084-9.941-27.699-9.923-38.762 0-11.083-9.941-27.698-9.922-38.762 0-11.083-9.94-27.698-9.924-38.762 0h-38.762v79.774h282.001v-38.149c0-21.494-13.477-32.83-20.318-40.152z" fill="#efedff"/><path d="m217.036 125.084.203-.042c-11.084-9.941-27.699-9.922-38.762 0-11.084-9.941-27.698-9.922-38.762 0-11.083-9.94-27.699-9.923-38.762 0-8.119-7.273-20.29-6.538-27.744.917-6.957 6.957-21.686 18.338-21.686 40.708v38.149h131.594v-38.149c0-20.156 14.174-37.533 33.919-41.583z" fill="#d4d4ff"/></g></g><g><g><path d="m22.507 278.522c18.871 70.926 55.956 120.146 130.26 120.146h131.594v-166.079h-219.401z" fill="#ff6f4d"/><path d="m51.523 166.667c-28.994 0-49.474 27.82-42.733 55.637l11.714 48.343c.643 2.654 1.312 5.277 2.003 7.874 43.691-21.784 97.434-16.496 136.243 15.861l24.367-19.663v-108.052c-71.207 0-128.863 0-131.594 0z" fill="#ffb357"/></g><g><path d="m158.75 294.383c20.102 62.297 56.982 104.284 125.611 104.284h74.873c74.305 0 111.39-49.22 130.26-120.146v-45.933h-330.744z" fill="#ff8f71"/><path d="m503.211 222.305c6.735-27.796-13.716-55.637-42.733-55.637-4.522 0-159.503 0-277.36 0-28.994 0-49.474 27.82-42.733 55.637l11.714 48.343c1.985 8.19 4.193 16.114 6.653 23.735 2.915 2.431 5.751 5.007 8.487 7.743l.027.027c49.008 49.008 128.465 49.008 177.473 0l.027-.027c39.159-39.159 97.757-47.024 144.73-23.604.691-2.597 1.36-5.22 2.003-7.874z" fill="#ffce71"/></g></g><g fill="#ff8e9e"><path d="m174.443 228.005c-16.212 0-29.355 10.466-29.355 23.377 0 12.91 13.142 23.376 29.355 23.376 16.212 0 29.355-10.466 29.355-23.376 0-12.911-13.142-23.377-29.355-23.377z"/><path d="m337.557 228.005c-16.212 0-29.355 10.466-29.355 23.377 0 12.91 13.143 23.376 29.355 23.376s29.355-10.466 29.355-23.376c-.001-12.911-13.143-23.377-29.355-23.377z"/><path d="m282.914 237.254c-7.029 9.571-17.094 15.587-28.294 15.587-3.259 0-6.418-.525-9.439-1.482-.011 9.698 4.851 20.996 12.658 28.803 12.251 12.251 27.068 11.251 36.824 1.495 9.756-9.755 10.756-24.573-1.495-36.823-2.998-2.999-6.514-5.558-10.254-7.58z"/></g><g><path d="m467.539 159.672c-2.546-20.273-15.712-31.657-21.899-38.277-9.01-9.643-23.364-11.654-34.419-5.604-11.862-7.545-27.041-7.581-38.935-.109-11.838-7.434-26.926-7.435-38.762-.001-11.836-7.433-26.924-7.435-38.761 0-4.017-2.525-8.469-4.213-13.126-5.021-4.739-33.235-36.417-56.065-69.787-49.552-8.195 1.596-14.523 7.922-16.12 16.118-2.187 11.217-1.062 22.605 2.978 32.91-7.014-.163-14.064 1.673-20.231 5.546-11.837-7.435-26.926-7.435-38.762 0-11.896-7.471-27.078-7.435-38.942.113-10.527-5.729-23.976-4.031-32.867 4.86-6.473 6.481-20.792 17.787-23.446 39.017-25.079 3.513-44.46 25.432-44.46 51.879 0 4.197.505 8.409 1.501 12.521l6.305 26.033c6.285 25.954 6.285 25.954 7.417 30.212l.035.134c8.297 31.184 19.287 55.769 33.598 75.159 2.46 3.332 7.155 4.041 10.488 1.58 3.333-2.46 4.041-7.155 1.581-10.488-12.249-16.595-21.921-37.597-29.492-64.044 44.12-19.135 96.964-9.373 130.527 24.8 51.847 51.846 136.218 51.861 188.107-.027 34.481-34.481 86.216-44.071 130.501-24.779-21.191 73.988-59.864 108.516-121.336 108.516h-73.232c-4.142 0-7.5 3.357-7.5 7.5s3.358 7.5 7.5 7.5h64.997c-3.497 17.561-19.028 30.837-37.601 30.837h-114.792c-18.573 0-34.104-13.276-37.601-30.837h54.997c4.142 0 7.5-3.357 7.5-7.5s-3.358-7.5-7.5-7.5h-63.233c-29.368.001-53.129-7.84-72.641-23.969-3.195-2.641-7.92-2.19-10.56 1.002s-2.19 7.92 1.002 10.559c20.409 16.871 45.69 26.013 75.216 27.249 3.589 25.947 25.901 45.996 52.82 45.996h114.792c26.914 0 49.222-20.041 52.818-45.98 66.04-2.677 108.778-43.825 130.528-125.574l.039-.147c.929-3.492 1.097-4.122 4.698-18.987.976-4.026-1.497-8.08-5.522-9.056-4.028-.977-8.08 1.497-9.056 5.523-1.12 4.622-1.903 7.849-2.479 10.208-49.439-20.529-106.651-9.479-144.99 28.859-46.005 46.006-120.861 46.004-166.818.049-18.93-19.275-44.367-32.452-71.623-37.104-25.068-4.28-50.256-1.429-73.414 8.194-.958-3.923-2.49-10.25-5.193-21.414l-6.306-26.036c-5.733-23.673 11.883-46.372 35.444-46.372h408.954c23.63 0 41.165 22.779 35.444 46.371l-1.968 8.122c-.976 4.026 1.498 8.08 5.523 9.055 4.031.972 8.08-1.499 9.055-5.524l1.968-8.119c.995-4.107 1.5-8.318 1.5-12.517.002-26.451-19.381-48.372-44.459-51.884zm-257.087-79.577c.423-2.168 2.097-3.842 4.266-4.265 24.329-4.744 47.514 11.401 51.824 35.38-3.26.818-6.392 2.085-9.313 3.762l-16.544-19.221c-2.702-3.14-7.438-3.494-10.577-.792s-3.494 7.438-.792 10.577l4.072 4.731c-5.188.46-10.29 2.035-14.946 4.716-7.419-9.896-10.399-22.527-7.99-34.888zm-131.939 51.167c4.808-4.805 12.466-5.084 17.436-.633 2.85 2.552 7.164 2.552 10.012-.004 8.193-7.35 20.552-7.348 28.747 0 2.85 2.557 7.166 2.557 10.016 0 8.193-7.348 20.552-7.349 28.747.001 2.85 2.555 7.166 2.556 10.015-.001 8.193-7.348 20.551-7.349 28.747.001 2.85 2.555 7.167 2.556 10.015-.001 8.194-7.35 20.551-7.35 28.746 0 2.852 2.562 7.221 2.531 10.016 0 3.838-3.443 8.772-5.403 13.89-5.52 5.474-.133 10.75 1.837 14.856 5.52 2.85 2.557 7.166 2.557 10.016 0 8.194-7.347 20.552-7.349 28.747 0 2.85 2.557 7.166 2.557 10.016 0 8.194-7.351 20.554-7.348 28.746.001 2.85 2.555 7.166 2.558 10.016-.001 8.194-7.348 20.552-7.348 28.746 0 2.85 2.557 7.166 2.556 10.018-.001 5.3-4.757 13.654-4.305 18.621 1.011 5.667 6.066 14.96 13.989 17.577 27.532h-392.533c2.726-14.084 12.776-21.891 18.787-27.905z"/><circle cx="119.334" cy="140.658" r="7.5"/><circle cx="158.334" cy="147.658" r="7.5"/><circle cx="216.334" cy="144.658" r="7.5"/><circle cx="332.334" cy="144.658" r="7.5"/><circle cx="391.334" cy="147.658" r="7.5"/><circle cx="275.334" cy="140.658" r="7.5"/><path d="m320.201 236.891c2.664-3.061 7.38-3.049 10.033-.01 2.724 3.122 7.462 3.443 10.582.719 3.12-2.723 3.442-7.461.719-10.582-8.633-9.893-24.014-9.901-32.651.029-2.718 3.125-2.389 7.862.736 10.58 3.121 2.716 7.86 2.393 10.581-.736z"/><path d="m172.475 227.17c-2.718 3.125-2.389 7.862.736 10.58 3.121 2.716 7.86 2.393 10.581-.736 2.659-3.056 7.376-3.055 10.034-.009 2.725 3.121 7.463 3.44 10.582.718 3.121-2.725 3.442-7.462.718-10.583-8.635-9.892-24.014-9.9-32.651.03z"/><path d="m290.348 232.982c-.542-1.105-1.363-2.094-2.445-2.847-3.401-2.366-8.075-1.527-10.44 1.873-12.352 17.757-33.332 17.759-45.687 0-2.365-3.399-7.039-4.238-10.44-1.873-3.4 2.365-4.239 7.039-1.874 10.439 5.045 7.252 11.453 12.705 18.583 16.031 1.37 10.343 6.651 21.022 14.489 28.861 14.41 14.409 33.914 15.009 47.43 1.494 13.523-13.523 12.908-33.027-1.494-47.43-2.428-2.429-5.158-4.612-8.122-6.548zm-.989 43.371c-7.625 7.625-17.669 7.053-26.217-1.494-3.976-3.976-7.117-9.231-8.883-14.529.121.001.24.012.361.012 3.273 0 6.498-.427 9.634-1.236l2.998 4.654c2.242 3.48 6.882 4.488 10.366 2.244 3.482-2.243 4.487-6.885 2.244-10.367l-1.917-2.976c2.265-1.613 4.423-3.456 6.442-5.533 1.243.95 2.421 1.953 3.477 3.009 8.547 8.546 9.119 18.592 1.495 26.216z"/></g></g></svg>