<svg id="Capa_1" enable-background="new 0 0 512 512" height="512" viewBox="0 0 512 512" width="512" xmlns="http://www.w3.org/2000/svg"><g><path d="m405.879 172.371c-1.922-7.006-7.514-12.471-14.666-14.334 1.226-6.806-1.013-13.768-5.998-18.653-4.985-4.887-12.088-7.081-19.03-5.88-3.012-6.059-8.554-10.542-15.195-12.293-6.641-1.752-13.73-.599-19.437 3.162h-152.376c-5.707-3.761-12.796-4.914-19.437-3.162-6.641 1.751-12.183 6.234-15.195 12.293-6.942-1.201-14.046.993-19.03 5.88-4.985 4.886-7.224 11.848-5.998 18.653-7.152 1.863-12.744 7.328-14.666 14.334-1.922 7.005.118 14.482 5.351 19.611-5.233 5.129-7.273 12.606-5.351 19.611s7.514 12.47 14.666 14.334c-1.226 6.805 1.013 13.768 5.998 18.653 4.985 4.887 12.088 7.081 19.03 5.88v130h221.64v-130c6.942 1.201 14.046-.993 19.03-5.88 4.985-4.886 7.224-11.849 5.998-18.653 7.152-1.864 12.744-7.329 14.666-14.334s-.118-14.482-5.351-19.611c5.233-5.129 7.273-12.606 5.351-19.611z" fill="#fc8a3d"/><g><g><path d="m474.5 338.79h-236.848l-50 30.878 67.63 99.122h115.718c43.24 0 79.352-30.228 88.017-70.527h15.483c16.568 0 30-13.314 30-29.737s-13.432-29.736-30-29.736z" fill="#b0ebd8"/><path d="m237.653 398.263c-16.569-16.423-16.569-43.05 0-59.473h-200.153c-16.569 0-30 13.313-30 29.737 0 16.423 13.431 29.737 30 29.737h15.483c8.665 40.298 44.777 70.526 88.017 70.526h183.652c-43.24 0-78.335-30.228-86.999-70.527z" fill="#70dcba"/></g><g fill="#ff8e9e"><ellipse cx="335.557" cy="429.611" rx="29.355" ry="23.377"/><ellipse cx="176.443" cy="429.611" rx="29.355" ry="23.377"/></g></g><g><path d="m232.903 267.191c-2-7.438-7.82-13.239-15.262-15.219 1.276-7.225-1.054-14.616-6.241-19.804s-12.58-7.517-19.804-6.241c-3.135-6.433-8.902-11.193-15.813-13.052s-14.288-.635-20.227 3.357h-20l-30.008 71.777 29.992 71.771h20c5.939 3.992 13.331 5.226 20.242 3.366 6.911-1.858 12.678-6.619 15.813-13.052 7.224 1.275 14.616-1.054 19.804-6.241 5.187-5.188 7.517-12.579 6.241-19.804 7.442-1.979 13.262-7.781 15.262-15.219 2-7.437-.123-15.375-5.568-20.82 5.446-5.444 7.569-13.382 5.569-20.819z" fill="#ffce71"/><path d="m187.139 276.527c0-16.026-8.207-30.136-20.647-38.355-.006-10.317-4.31-17.664-10.935-21.938-5.939-3.992-13.316-5.217-20.227-3.357-6.911 1.858-12.678 6.619-15.813 13.052-7.224-1.275-14.616 1.054-19.804 6.241-5.187 5.188-7.517 12.579-6.241 19.804-7.442 1.979-13.262 7.781-15.262 15.219-2 7.437.123 15.375 5.568 20.82-5.445 5.445-7.569 13.384-5.568 20.82 2 7.438 7.82 13.239 15.262 15.219-1.276 7.225 1.054 14.616 6.241 19.804s12.58 7.517 19.804 6.241c3.135 6.433 8.902 11.193 15.813 13.052s14.272.626 20.211-3.366c-16.394-11.193-17.8-33.235-5.167-46.488 20.297-.002 36.765-16.471 36.765-36.768z" fill="#ffb357"/></g><g><path d="m424.97 327.981c3.845-6.674 3.832-14.891-.031-21.553 6.011-4.207 9.59-11.081 9.59-18.417s-3.58-14.21-9.59-18.417c2.332-6.765 1.62-14.21-1.952-20.41-3.572-6.201-9.654-10.552-16.676-11.928l-14.142-14.142-71.973 29.536-29.542 71.957 14.142 14.142c1.377 7.022 5.732 13.122 11.933 16.694s13.645 4.284 20.41 1.952c4.206 6.01 11.08 9.59 18.417 9.59 7.336 0 14.21-3.579 18.417-9.59 6.662 3.863 14.88 3.875 21.553.031s10.785-10.935 10.785-18.635c7.7-.001 14.815-4.137 18.659-10.81z" fill="#ffce71"/><path d="m386.008 302.223c11.332-11.332 15.506-27.112 12.522-41.721 7.291-7.3 9.443-15.538 7.78-23.245-1.377-7.022-5.727-13.105-11.928-16.676-6.201-3.572-13.645-4.284-20.41-1.952-4.206-6.01-11.08-9.59-18.417-9.59-7.336 0-14.21 3.579-18.417 9.59-6.662-3.863-14.88-3.875-21.553-.031s-10.785 10.959-10.785 18.66c-7.701 0-14.816 4.112-18.66 10.785-3.845 6.674-3.832 14.891.031 21.553-6.011 4.207-9.59 11.081-9.59 18.417s3.58 14.21 9.59 18.417c-2.332 6.765-1.62 14.21 1.952 20.41 3.572 6.201 9.649 10.535 16.672 11.911-3.678-19.507 10.914-36.088 29.219-36.526 14.353 14.35 37.642 14.35 51.994-.002z" fill="#ffb357"/></g><g><path d="m185.116 162.15c-3.845-6.674-3.832-14.891.031-21.553-6.011-4.207-9.59-11.081-9.59-18.417s3.58-14.21 9.59-18.417c-2.332-6.765-1.62-14.21 1.952-20.41 3.572-6.201 9.654-10.552 16.676-11.928l14.142-14.142 71.973 29.536 29.542 71.957-14.142 14.142c-1.377 7.022-5.732 13.122-11.933 16.694s-13.645 4.284-20.41 1.952c-4.206 6.01-11.08 9.59-18.417 9.59-7.336 0-14.21-3.579-18.417-9.59-6.662 3.863-14.88 3.875-21.553.031s-10.785-10.959-10.785-18.66c-7.7 0-14.815-4.112-18.659-10.785z" fill="#ffb357"/><path d="m224.078 136.392c-11.332-11.332-15.506-27.112-12.522-41.721-7.291-7.3-9.443-15.538-7.78-23.245 1.377-7.022 5.727-13.105 11.928-16.676 6.201-3.572 13.645-4.284 20.41-1.952 4.206-6.01 11.08-9.59 18.417-9.59 7.336 0 14.21 3.579 18.417 9.59 6.662-3.863 14.88-3.875 21.553-.031s10.785 10.959 10.785 18.66c7.701 0 14.816 4.112 18.66 10.785 3.845 6.674 3.832 14.891-.031 21.553 6.011 4.207 9.59 11.081 9.59 18.417s-3.58 14.21-9.59 18.417c2.332 6.765 1.62 14.21-1.952 20.41-3.572 6.201-9.649 10.535-16.672 11.911 3.678-19.507-10.914-36.088-29.219-36.526-14.353 14.35-37.642 14.35-51.994-.002z" fill="#ffce71"/></g><g><path d="m474.5 331.29h-42.796c3.89-7.028 4.653-15.32 2.277-22.841 11.103-11.921 10.535-30.267-.642-41.546 2.594-15.359-6.186-30.463-20.944-35.731-1.015-2.844-2.426-5.513-4.169-7.943 7.297-9.351 7.648-21.656 1.802-31.246 8.366-13.724 3.368-31.46-11.017-38.932-.54-11.821-15.956-9.783-15.027.064.112 1.197.061 2.403-.153 3.594-.693 3.856 1.698 7.598 5.491 8.586 9.681 2.522 13.109 14.319 5.955 21.331-3 2.94-2.998 7.774 0 10.713 4.398 4.311 5.078 10.995 1.593 16.055-6.245-3.238-13.34-4.329-20.208-3.166-11.43-11.326-29.763-11.615-41.545-.642-16.107-5.085-33.098 4.521-37.025 20.961-16.421 3.922-26.054 20.908-20.96 37.025-10.966 11.774-10.691 30.107.641 41.544-1.272 7.52.141 15.405 4.283 22.174h-56.768c.085-.755.149-1.514.176-2.276 14.982-7.788 20.208-26.602 11.359-41.003 8.839-14.387 3.637-33.208-11.359-41.003-.579-16.277-13.948-28.851-29.832-28.924-9.049-12.727-25.945-17.151-40.076-10.456-13.409-6.354-29.429-2.729-38.802 8.794-6.322-4.759-6.795-13.699-1.302-19.083 3.001-2.943 2.996-7.774 0-10.713-7.088-6.947-3.809-18.786 5.956-21.331 3.793-.988 6.186-4.73 5.491-8.588-1.676-9.301 6.712-17.494 16.368-15.812 3.272.563 6.519-1.082 7.994-4.051 3.12-6.274 10.158-9.904 17.403-8.697 1.102 5.416 3.678 10.431 7.442 14.473-5.087 16.101 4.522 33.099 20.961 37.024 3.936 16.48 20.972 26.041 37.025 20.961 11.774 10.966 30.106 10.691 41.544-.641 15.396 2.604 30.476-6.219 35.734-20.944 14.708-5.252 23.552-20.32 20.944-35.733 4.014-4.052 6.782-9.171 7.995-14.73 7.887-2.193 15.805 1.536 19.16 8.288 1.481 2.977 4.739 4.615 7.991 4.051 1.181-.204 2.39-.262 3.572-.172 9.67.718 12.066-14.944-.861-15.04-6.795-9.271-18.437-14.303-30.504-12.325-1.331-4.316-3.619-8.296-6.712-11.616 5.087-16.103-4.521-33.099-20.961-37.025-3.923-16.427-20.908-26.049-37.024-20.961-11.774-10.967-30.107-10.691-41.545.642-15.386-2.607-30.475 6.217-35.733 20.944-14.704 5.248-23.548 20.315-20.944 35.732-3.362 3.393-5.843 7.561-7.275 12.073-11.795-1.332-22.578 3.892-28.913 12.537-15.466.128-28.134 12.141-28.84 27.366-14.37 7.465-19.383 25.241-11.026 38.933-5.498 9.007-5.508 20.567.669 29.709-9.413 5.08-15.336 14.741-15.712 25.316-14.981 7.786-20.209 26.602-11.359 41.003-8.838 14.382-3.639 33.207 11.359 41.003.027.763.091 1.521.176 2.276h-48.327c-20.678 0-37.5 16.704-37.5 37.236s16.822 37.236 37.5 37.236h9.627c3.699 13.037 10.194 25.291 18.982 35.739 1.483 1.764 3.606 2.672 5.744 2.672 1.704 0 3.417-.577 4.824-1.761 3.17-2.666 3.578-7.397.912-10.567-6.496-7.723-11.503-16.611-14.745-26.083h50.14c4.142 0 7.5-3.357 7.5-7.5s-3.358-7.5-7.5-7.5c-7.677 0-67.911 0-75.483 0-12.407 0-22.5-9.976-22.5-22.236s10.093-22.236 22.5-22.236h54.397c5.77 7.466 14.535 11.604 23.582 11.646 9.045 12.728 25.949 17.152 40.077 10.457 14.158 6.709 31.049 2.247 40.077-10.457 9.075-.042 17.834-4.203 23.582-11.646h80.057c5.731 13.909 20.33 22.011 35.178 19.505 11.429 11.324 29.763 11.614 41.545.641 15.724 4.967 32.471-4.072 36.809-20.146h61.695c12.406 0 22.5 9.976 22.5 22.236s-10.094 22.236-22.5 22.236c-7.571 0-67.807 0-75.483 0-4.143 0-7.5 3.357-7.5 7.5s3.357 7.5 7.5 7.5h50.13c-11.183 32.666-42.65 55.527-78.147 55.527h-230c-15.042.001-29.76-4.045-42.564-11.701-3.554-2.124-8.16-.966-10.286 2.589s-.967 8.16 2.588 10.286c15.13 9.046 32.51 13.827 50.262 13.826h230c22.447 0 44.359-7.752 61.701-21.828 15.514-12.593 26.784-29.713 32.172-48.699h9.627c20.678 0 37.5-16.704 37.5-37.236s-16.822-37.237-37.5-37.237zm-286.948-219.809c3.359-3.291 4.861-8.045 4.018-12.717-.973-5.393.633-11.221 5.005-15.445 1.153 4.83 3.496 9.465 6.99 13.7-2.136 16.412 3.404 32.872 15.209 44.677 17.254 17.253 45.326 17.252 62.58 0 14.388-14.388 14.388-37.798 0-52.186-12.125-12.124-31.745-12.124-43.869.001-2.929 2.929-2.929 7.678 0 10.606s7.678 2.929 10.606-.001c6.262-6.262 16.395-6.262 22.656.001 8.539 8.538 8.539 22.433 0 30.971-11.405 11.406-29.961 11.404-41.367 0-9.156-9.155-13.073-22.209-10.477-34.917.504-2.466-.263-5.021-2.042-6.802-14.995-15.011.493-35.112 16.807-29.481 3.165 1.089 6.669-.049 8.589-2.79 5.957-8.512 18.587-8.514 24.544-.002 2.233 3.192 6.537 4.143 9.906 2.188 9.332-5.411 21.076 1.337 21.076 12.141 0 4.143 3.358 7.5 7.5 7.5 10.792 0 17.558 11.733 12.141 21.076-1.954 3.369-1.003 7.673 2.188 9.906 8.512 5.957 8.512 18.588 0 24.545-2.742 1.92-3.88 5.424-2.79 8.589 3.41 9.894-2.721 20.523-12.98 22.533-2.992.587-5.332 2.926-5.918 5.918-2.012 10.267-12.649 16.391-22.534 12.98-3.168-1.09-6.669.047-8.589 2.79-5.956 8.51-18.586 8.513-24.544.001-2.234-3.192-6.537-4.143-9.907-2.188-9.339 5.411-21.076-1.339-21.076-12.141 0-4.143-3.358-7.5-7.5-7.5-5.004 0-9.663-2.693-12.16-7.027 0-.001 0-.001 0-.001-2.498-4.336-2.49-9.719.02-14.048 1.954-3.369 1.003-7.673-2.188-9.906-7.723-5.405-8.54-16.462-1.894-22.971zm28.161 205.321c-3.764 1.001-6.135 4.717-5.458 8.552 1.806 10.229-7.12 19.158-17.356 17.355-3.293-.58-6.58 1.091-8.046 4.101-4.59 9.421-16.452 12.578-25.113 6.755-2.528-1.7-5.838-1.701-8.368 0-8.68 5.839-20.533 2.644-25.113-6.755-1.466-3.01-4.749-4.681-8.046-4.101-10.23 1.804-19.163-7.122-17.356-17.355.677-3.835-1.694-7.551-5.458-8.552-10.426-2.772-13.958-15.851-6.318-23.487 2.929-2.93 2.929-7.678 0-10.607-7.629-7.627-4.121-20.711 6.318-23.487 3.764-1.001 6.135-4.717 5.458-8.552-1.806-10.229 7.118-19.158 17.356-17.355 3.295.58 6.579-1.091 8.046-4.101 4.582-9.403 16.435-12.59 25.113-6.755.015.01.031.016.045.025.025.017.047.036.073.053 4.974 3.208 7.497 8.471 7.501 15.64.001 2.518 1.265 4.866 3.366 6.254 10.821 7.149 17.282 19.148 17.282 32.098 0 16.129-13.122 29.251-29.25 29.251-12.076 0-21.9-9.824-21.9-21.9 0-8.834 7.187-16.021 16.021-16.021 4.142 0 7.5-3.357 7.5-7.5s-3.358-7.5-7.5-7.5c-17.105 0-31.021 13.916-31.021 31.021 0 20.347 16.553 36.9 36.9 36.9 24.4 0 44.25-19.851 44.25-44.251 0-16.694-7.721-32.251-20.836-42.346-.525-5.466-2.145-10.4-4.744-14.63 6.026-.104 11.307 2.84 14.46 7.384 2.708 3.9 7.104 6.198 11.833 6.15 9.357-.098 16.534 8.349 14.904 17.583-.677 3.835 1.694 7.551 5.458 8.552 10.427 2.773 13.958 15.851 6.318 23.487-2.929 2.93-2.929 7.678 0 10.607 7.629 7.628 4.12 20.711-6.319 23.487zm204.927-16.519c-3.191 2.232-4.143 6.537-2.188 9.907 2.511 4.329 2.519 9.711.021 14.046-.001 0-.001 0-.001.001-2.497 4.335-7.157 7.028-12.161 7.028-4.14 0-7.5 3.359-7.5 7.501.002 10.806-11.746 17.551-21.076 12.14-3.37-1.956-7.675-1.003-9.906 2.188-5.955 8.51-18.587 8.511-24.544-.001-1.912-2.731-5.409-3.885-8.589-2.79-9.891 3.413-20.523-2.723-22.534-12.98-.586-2.992-2.926-5.331-5.917-5.918-10.266-2.012-16.388-12.647-12.98-22.533 1.09-3.165-.048-6.669-2.79-8.589-8.512-5.957-8.512-18.587 0-24.545 3.19-2.233 4.141-6.537 2.188-9.906-5.413-9.335 1.338-21.076 12.141-21.076 4.142 0 7.5-3.357 7.5-7.5 0-10.792 11.73-17.555 21.077-12.141 3.371 1.954 7.674 1.001 9.906-2.188 5.955-8.51 18.587-8.512 24.544.001 1.92 2.743 5.426 3.879 8.588 2.79 16.671-5.736 31.54 14.737 16.809 29.482-1.779 1.781-2.547 4.336-2.043 6.802 2.597 12.707-1.32 25.761-10.477 34.917-17.558 17.561-47.78 5.91-47.78-15.485 0-9.996 7.104-20.179 17.742-20.179 4.279 0 8.303 1.667 11.328 4.693 2.93 2.928 7.678 2.928 10.607 0 2.929-2.93 2.929-7.678 0-10.607-5.859-5.858-13.649-9.086-21.936-9.086-19.074 0-32.742 16.905-32.742 35.179 0 22.815 20.311 39.032 42.098 39.032 29.7 0 50.254-28.751 46.499-57.616 3.494-4.235 5.838-8.87 6.991-13.7 4.398 4.25 5.97 10.094 5.003 15.448-.842 4.671.66 9.424 4.019 12.715 6.651 6.514 5.816 17.573-1.897 22.97z"/><path d="m325.948 413.108v-12c0-4.142-3.357-7.5-7.5-7.5s-7.5 3.358-7.5 7.5v12c0 4.143 3.357 7.5 7.5 7.5s7.5-3.358 7.5-7.5z"/><path d="m201.052 413.108v-12c0-4.142-3.357-7.5-7.5-7.5s-7.5 3.358-7.5 7.5v12c0 4.143 3.357 7.5 7.5 7.5s7.5-3.358 7.5-7.5z"/><path d="m278.118 417.678c2.722-3.122 2.396-7.859-.727-10.581-3.122-2.721-7.859-2.396-10.582.727-5.727 6.57-15.898 6.563-21.619 0-2.72-3.123-7.458-3.448-10.582-.727-3.122 2.722-3.448 7.459-.727 10.581 11.705 13.431 32.544 13.418 44.237 0z"/></g></g></svg>