<svg id="Capa_1" enable-background="new 0 0 512 512" height="512" viewBox="0 0 512 512" width="512" xmlns="http://www.w3.org/2000/svg"><g><g><path d="m307.948 12.955h-50l-80.448 183.045v243.045h246.552c49.447-45.421 80.448-110.609 80.448-183.045 0-119.425-84.249-219.157-196.552-243.045z" fill="#d4d4ff"/><path d="m356.51 413.908-88.929-353.263c11.425-17.554 25.004-33.577 40.367-47.689-16.755-3.565-34.13-5.456-51.948-5.456-137.243 0-248.5 111.257-248.5 248.5s111.257 248.5 248.5 248.5c64.807 0 123.812-24.817 168.052-65.455-23.978-5.101-46.669-13.668-67.542-25.137z" fill="#9ea2e3"/></g><g><g><path d="m366.216 101.726c-6.416-5.938-14.606-9.036-23.096-9.36-13.366-.512-25.643-6.508-32.56-17.443-4.755-7.518-12.335-13.17-21.914-15.36-7.102-1.626-14.348-1.123-21.065 1.083l-80.081 41.354v172.434h52.645c2.007-1.164 4.097-2.188 6.261-3.04 11.245-4.429 20.512-13.695 24.942-24.938 4.767-12.096 14.668-22.005 26.764-26.769 11.25-4.43 20.519-13.702 24.948-24.952 4.858-12.341 15.153-22.065 27.445-27.071 5.185-2.111 10.097-5.31 14.366-9.579 16.175-16.174 16.785-42.07 1.345-56.359z" fill="#ffb39d"/><path d="m267.581 60.645c-2.349.771-4.634 1.747-6.824 2.919-11.973 6.401-25.99 6.984-37.475 1.575-8.11-3.819-17.837-4.675-27.588-1.688-9.763 2.991-17.86 9.317-23.276 17.297-7.657 11.28-20.092 18.799-33.23 20.091-9.293.914-18.569 5.091-25.934 12.455-7.365 7.365-11.542 16.642-12.455 25.935-1.292 13.138-8.81 25.572-20.09 33.229-7.979 5.415-14.307 13.514-17.299 23.279-2.953 9.641-2.154 19.358 1.639 27.493 5.425 11.637 4.656 25.753-1.707 37.911-4.379 8.367-5.985 18.07-3.821 27.538 2.191 9.586 7.845 17.171 15.367 21.926 10.935 6.914 16.926 19.193 17.438 32.558.325 8.488 3.424 16.678 9.361 23.093 14.289 15.44 40.185 14.83 56.358-1.344 4.265-4.265 7.461-9.172 9.573-14.352 5.014-12.296 14.737-22.598 27.082-27.459 11.245-4.429 20.512-13.695 24.942-24.938 3.914-9.932 11.293-18.383 20.503-23.729-8.196-24.657-12.645-51.025-12.645-78.434 0-49.929 14.737-96.41 40.081-135.355z" fill="#ff8f71"/></g><g><path d="m428.099 278.845c9.416-3.23 16.213-12.152 16.212-22.65-.001-10.494-6.793-19.413-16.203-22.646 2.999-2.012 5.536-4.677 7.395-7.896 3.201-5.544 4.05-12.001 2.393-18.184-2.717-10.137-11.585-16.991-21.512-17.679 14.95-17.105-.266-43.652-22.655-39.24 1.955-4.001 2.69-8.385 2.352-12.54-.029-.335-.076-.668-.118-1.001-4.227-33.677-54.997-23.34-46.971 8.847-7.893-1.97-16.589.105-22.762 6.277-6.172 6.172-8.246 14.868-6.277 22.762-7.894-1.969-16.59.105-22.762 6.277s-8.246 14.868-6.278 22.762c-7.893-1.969-16.589.105-22.761 6.277-6.173 6.173-8.247 14.868-6.278 22.762-7.894-1.969-16.59.106-22.762 6.278-2.847 2.847-4.811 6.233-5.919 9.827v164.83h123.317c4.647-5.533 6.573-12.937 5.183-20.045 8.942 4.374 20.057 2.871 27.479-4.552s8.926-18.537 4.552-27.479c9.77 1.91 20.117-2.418 25.365-11.509 3.199-5.542 4.05-11.999 2.394-18.181-.963-3.591-2.722-6.823-5.098-9.544 9.927-.688 18.796-7.543 21.512-17.681s-1.54-20.515-9.798-26.072z" fill="#efedff"/><path d="m233.193 249.078c-1.295 4.198-1.419 8.682-.358 12.935-7.893-1.97-16.589.104-22.762 6.277-6.172 6.172-8.246 14.868-6.277 22.762-7.894-1.969-16.59.105-22.762 6.277s-8.246 14.867-6.278 22.762c-7.893-1.969-16.589.105-22.761 6.277-6.173 6.173-8.247 14.868-6.278 22.762-13.684-3.412-27.513 5.574-29.532 19.956-2.619 19.271 17.221 33.089 34.226 24.781-4.409 22.372 22.037 37.62 39.232 22.651.668 9.918 7.463 18.775 17.687 21.517 6.182 1.656 12.639.807 18.183-2.394 3.22-1.859 5.885-4.396 7.896-7.396 1.199 3.486 3.159 6.623 5.713 9.177 4.339 4.339 10.328 7.026 16.934 7.027 10.484 0 19.395-6.78 22.635-16.176.853 1.27 1.826 2.455 2.91 3.54 1.472 1.471 3.147 2.759 4.998 3.827 5.543 3.2 11.999 4.05 18.179 2.394 6.183-1.656 11.35-5.62 14.55-11.163 1.852-3.208 2.89-6.724 3.138-10.314 2.715 2.368 5.955 4.104 9.538 5.064 6.181 1.656 12.638.806 18.179-2.394 2.477-1.43 4.587-3.248 6.327-5.32-61.975-34.051-107.851-93.758-123.317-164.829z" fill="#d4d4ff"/></g></g><g><g fill="#ff6f4d"><path d="m197.089 118.336c-5.857-5.858-15.355-5.858-21.213 0s-5.858 15.355 0 21.213l11.855 11.855c5.858 5.859 15.356 5.858 21.213 0 5.858-5.858 5.858-15.355 0-21.213z"/><path d="m187.732 198.336-11.855 11.855c-5.858 5.858-5.858 15.355 0 21.213 5.858 5.859 15.356 5.858 21.213 0l11.855-11.855c5.858-5.858 5.858-15.355 0-21.213s-15.356-5.858-21.213 0z"/><path d="m122.411 216.488c-8.284 0-15 6.716-15 15v16.766c0 8.284 6.716 15 15 15s15-6.716 15-15v-16.766c0-8.284-6.716-15-15-15z"/><path d="m312.411 133.488c-8.284 0-15 6.716-15 15v16.766c0 8.284 6.716 15 15 15s15-6.716 15-15v-16.766c0-8.284-6.716-15-15-15z"/></g></g><path d="m282.58 241.848c-3.438-3.439-8.13-4.843-12.604-4.244-.255-8.061-6.853-14.522-14.976-14.522s-14.721 6.461-14.976 14.522c-4.475-.599-9.167.805-12.605 4.244-5.858 5.858-5.857 15.355 0 21.213l16.975 16.974c5.817 5.839 15.363 5.852 21.215-.003l16.971-16.971c5.859-5.858 5.859-15.355 0-21.213z" fill="#30cd9c"/><g><g><g><g><ellipse cx="259.586" cy="381.314" fill="#ff8e9e" rx="30.834" ry="24.555" transform="matrix(.707 -.707 .707 .707 -193.599 295.24)"/></g><g><ellipse cx="377.765" cy="263.135" fill="#ff8e9e" rx="30.834" ry="24.555" transform="matrix(.707 -.707 .707 .707 -75.42 344.191)"/></g></g></g></g><g><path d="m436.911 74.889c-48.361-48.293-112.61-74.889-180.911-74.889-68.38 0-132.667 26.629-181.02 74.98-48.351 48.352-74.98 112.64-74.98 181.02s26.629 132.668 74.98 181.02c48.353 48.351 112.64 74.98 181.02 74.98 62.926 0 123.425-23.056 170.352-64.921 3.091-2.758 3.361-7.499.604-10.59-2.757-3.088-7.496-3.36-10.59-.604-44.176 39.411-101.128 61.115-160.366 61.115-132.888 0-241-108.112-241-241s108.112-241 241-241 241 108.112 241 241c0 58.705-21.356 115.267-60.137 159.266-2.738 3.107-2.439 7.847.668 10.586 3.108 2.737 7.847 2.439 10.586-.668 41.195-46.741 63.883-106.825 63.883-169.184 0-68.439-26.667-132.759-75.089-181.111z"/><path d="m182.428 156.707c8.791 8.794 23.026 8.797 31.82.001 8.793-8.794 8.795-23.023 0-31.82l-11.855-11.855c-8.792-8.791-23.025-8.794-31.82.001-8.794 8.795-8.793 23.025 0 31.819zm-1.248-33.067c2.928-2.929 7.675-2.932 10.606 0l11.855 11.854c2.931 2.931 2.933 7.675 0 10.607-2.929 2.931-7.673 2.933-10.605-.001l-11.855-11.855c-2.933-2.93-2.933-7.675-.001-10.605z"/><path d="m170.572 236.707c8.791 8.794 23.026 8.797 31.82.001l11.855-11.855c8.793-8.794 8.795-23.023 0-31.82-8.793-8.792-23.026-8.793-31.819 0l-11.856 11.856c-8.792 8.793-8.793 23.024 0 31.818zm10.608-21.212 11.855-11.855c2.928-2.929 7.674-2.933 10.606-.001 2.931 2.931 2.933 7.675 0 10.606l-11.856 11.856c-2.929 2.931-7.673 2.933-10.605-.001-2.932-2.93-2.932-7.675 0-10.605z"/><path d="m144.911 248.254v-16.766c0-12.406-10.093-22.5-22.5-22.5s-22.5 10.094-22.5 22.5v16.766c0 12.406 10.093 22.5 22.5 22.5s22.5-10.094 22.5-22.5zm-15 0c0 4.136-3.364 7.5-7.5 7.5s-7.5-3.364-7.5-7.5v-16.766c0-4.136 3.364-7.5 7.5-7.5s7.5 3.364 7.5 7.5z"/><path d="m248.569 98.877h-12c-4.142 0-7.5 3.357-7.5 7.5s3.358 7.5 7.5 7.5h12c4.142 0 7.5-3.357 7.5-7.5s-3.358-7.5-7.5-7.5z"/><path d="m253.023 157.438 8.485 8.485c1.464 1.464 3.384 2.196 5.303 2.196s3.839-.732 5.303-2.196c2.929-2.929 2.929-7.678 0-10.606l-8.485-8.485c-2.929-2.929-7.678-2.929-10.606 0-2.929 2.928-2.929 7.677 0 10.606z"/><path d="m123.63 168.831c-2.929-2.929-7.678-2.929-10.606 0-2.929 2.929-2.929 7.678 0 10.606l8.485 8.485c2.93 2.929 7.678 2.928 10.606 0 2.929-2.929 2.929-7.678 0-10.606z"/><path d="m115.069 296.377v12c0 4.143 3.358 7.5 7.5 7.5s7.5-3.357 7.5-7.5v-12c0-4.143-3.358-7.5-7.5-7.5s-7.5 3.357-7.5 7.5z"/><path d="m181.509 352.831-8.485 8.485c-2.929 2.929-2.929 7.678 0 10.606s7.678 2.929 10.607 0l8.485-8.485c2.929-2.929 2.929-7.678 0-10.606-2.93-2.929-7.679-2.929-10.607 0z"/><path d="m376.069 192.377c0-4.143-3.358-7.5-7.5-7.5h-12c-4.142 0-7.5 3.357-7.5 7.5s3.358 7.5 7.5 7.5h12c4.142 0 7.5-3.357 7.5-7.5z"/><path d="m389.569 294.877h-12c-4.142 0-7.5 3.357-7.5 7.5s3.358 7.5 7.5 7.5h12c4.142 0 7.5-3.357 7.5-7.5s-3.358-7.5-7.5-7.5z"/><path d="m322.569 358.877c-4.142 0-7.5 3.357-7.5 7.5v12c0 4.143 3.358 7.5 7.5 7.5s7.5-3.357 7.5-7.5v-12c0-4.143-3.358-7.5-7.5-7.5z"/><path d="m427.806 327.317c18.017-8.217 24.029-30.767 12.539-46.86 15.282-12.582 15.273-35.927.018-48.509 11.574-16.254 5.296-38.704-12.516-46.857 6.954-18.274-4.929-39.007-24.328-42.123 1.189-12.679-5.304-29.157-22.538-33.305-6.838-15.156-21.571-24.181-37.573-24.792-11.516-.441-21.177-5.528-26.508-13.959-12.358-19.535-38.202-25.45-59.678-13.963-10.286 5.501-21.809 5.611-30.744 1.404-21.447-10.1-47.111-1.195-60.264 18.182-6.426 9.467-16.802 15.762-27.757 16.839-6.064.596-11.939 2.321-17.461 5.129-3.692 1.877-5.164 6.393-3.287 10.085 1.878 3.691 6.394 5.164 10.084 3.286 3.851-1.958 7.932-3.159 12.13-3.572 15.336-1.508 29.804-10.234 38.701-23.343 9.248-13.623 27.02-19.833 41.463-13.035 13.111 6.175 29.63 6.047 44.208-1.747 13.915-7.444 31.4-4.726 39.927 8.754 8.012 12.668 22.085 20.296 38.612 20.929 8.522.326 15.895 4.002 20.898 10.168-12.784 3.575-22.44 13.918-23.062 27.707-2.632.208-5.22.758-7.71 1.608-3.512-7.86-11.399-13.354-20.549-13.354-12.407 0-22.5 10.094-22.5 22.5 0 17.781-.632 20.91 2.44 26.951-5.737 5.484-9.057 12.705-9.597 20.335-11.859.839-22.398 8.424-26.889 19.831-10.068-.376-18.751 5.758-21.999 14.733-11.653 2.154-19.851 13.204-18.019 25.496-11.208 4.231-19.338 14.695-20.211 27.058-15.466 1.094-27.945 13.57-29.039 29.039-15.466 1.094-27.961 13.577-29.042 29.07-13.094.97-24.145 9.877-27.839 22.617-6.047-4.78-9.56-11.967-9.895-20.744-.633-16.529-8.26-30.602-20.926-38.61-12.545-7.928-16.641-24.871-8.908-39.646 7.189-13.733 8.495-30.331 1.86-44.56-6.663-14.291-.652-32.083 13.075-41.397 13.107-8.897 21.833-23.365 23.341-38.7.351-3.562 1.275-7.058 2.748-10.393 1.673-3.789-.042-8.218-3.831-9.891-3.79-1.676-8.218.041-9.891 3.83-2.117 4.794-3.448 9.835-3.954 14.984-1.078 10.956-7.372 21.333-16.837 27.758-20.896 14.18-27.587 40.122-18.246 60.147 4.626 9.926 3.481 21.644-1.555 31.265-11.342 21.67-5.021 47.144 14.183 59.28 8.426 5.327 13.511 14.988 13.952 26.505.658 17.21 9.833 30.918 24.798 37.472 4.134 14.693 18.404 24.224 33.205 22.783 3.126 19.342 23.766 31.246 42.098 24.276 8.128 17.777 30.62 24.119 46.873 12.524 12.549 15.275 35.924 15.239 48.498-.003 16.193 11.528 38.705 5.387 46.897-12.546 18.876 7.017 38.829-5.143 42.02-24.291 19.718 1.901 36.209-14.63 34.305-34.312 19.45-3.246 31.238-23.418 24.28-42.033zm-122.895-178.829c0-4.136 3.364-7.5 7.5-7.5 4.135 0 7.5 3.364 7.5 7.5v16.766c0 6.263-7.265 9.765-12.158 5.869-1.979-1.705-2.842-3.677-2.842-5.869zm-65.881 96.549c4.379.595 8.35-2.745 8.491-7.197.128-4.069 3.414-7.258 7.48-7.258 3.864 0 7.347 3.071 7.479 7.258.14 4.446 4.103 7.791 8.491 7.197 7.203-.952 11.293 7.737 6.307 12.72l-16.972 16.973c-2.909 2.91-7.692 2.929-10.608.002-18.766-18.765-16.969-16.875-17.744-17.908-3.761-5.208.421-12.672 7.076-11.787zm171.705 82.495c10.29 11.78-.206 29.935-15.571 26.939-6.067-1.19-10.895 5.098-8.177 10.656 6.891 14.089-7.941 28.874-21.999 21.998-5.549-2.72-11.844 2.104-10.655 8.176 2.995 15.331-15.15 25.878-26.938 15.604-4.66-4.062-11.985-1.041-12.411 5.136-1.083 15.667-21.414 20.926-30.068 8.049-3.455-5.137-11.301-4.097-13.314 1.739-5.134 14.889-26.038 14.692-31.099-.021-2.004-5.829-9.859-6.903-13.322-1.738-8.713 12.999-29.006 7.519-30.054-8.055-.415-6.171-7.737-9.22-12.407-5.153-11.815 10.288-29.976-.189-26.95-15.544 1.196-6.068-5.085-10.906-10.65-8.189-10.447 5.101-22.253-1.949-23.538-12.633-1.422-11.847 9.238-20.85 20.32-18.088 5.491 1.361 10.458-3.612 9.091-9.093-3.02-12.109 7.855-22.965 19.947-19.946 5.487 1.366 10.458-3.611 9.092-9.092-3.02-12.11 7.853-22.966 19.947-19.947 5.488 1.363 10.46-3.612 9.092-9.093-2.26-9.059 3.29-17.823 11.968-19.948l16.041 16.04c8.734 8.768 23.031 8.81 31.832.007l16.971-16.971c12.743-12.739 6.015-34.75-11.762-38.028-1.295-3.55-3.479-6.702-6.342-9.19 2.862-7.4 10.912-12.029 19.319-9.935 5.5 1.366 10.457-3.621 9.092-9.093-1.495-5.995.379-12.216 5.047-16.331 2.872 1.283 6.001 1.967 9.174 1.967 12.406 0 22.5-10.094 22.5-22.5v-10.409c3.659-2.115 8.056-2.762 12.265-1.713 5.487 1.37 10.46-3.61 9.094-9.091-3.571-14.325 8.973-21.134 18.596-20.238 13.085 1.204 16.12 15.277 12.126 23.454-2.72 5.565 2.128 11.855 8.188 10.651 15.39-3.036 25.795 15.234 15.558 26.946-4.071 4.658-1.047 11.989 5.129 12.418 15.61 1.08 21.051 21.34 8.065 30.047-5.138 3.446-4.116 11.312 1.74 13.322 14.832 5.096 14.793 26.03-.006 31.109-5.85 2.007-6.885 9.863-1.754 13.315 13.012 8.758 7.564 28.97-8.045 30.05-6.169.429-9.204 7.751-5.132 12.416z"/><path d="m252.183 337.891c-2.929-2.928-7.678-2.928-10.606 0-2.929 2.93-2.929 7.678 0 10.607l8.485 8.485c1.464 1.464 3.384 2.196 5.303 2.196s3.839-.732 5.303-2.196c2.929-2.93 2.929-7.678 0-10.607z"/><path d="m321.407 292.503c-.284-4.134-3.869-7.23-7.996-6.969-4.132.284-7.252 3.864-6.969 7.996.642 9.34-7.082 17.1-16.461 16.462-4.122-.287-7.712 2.836-7.996 6.969-.284 4.132 2.836 7.712 6.969 7.996 18.466 1.264 33.717-14.055 32.453-32.454z"/><path d="m349.532 235.634c-5.718 0-11.094 2.227-15.137 6.27-4.043 4.044-6.27 9.419-6.27 15.137s2.227 11.093 6.27 15.137c1.465 1.464 3.385 2.196 5.304 2.196s3.839-.732 5.304-2.196c2.929-2.93 2.929-7.678 0-10.607-1.21-1.21-1.877-2.818-1.877-4.529s.667-3.319 1.877-4.53c1.21-1.21 2.818-1.876 4.529-1.876s3.319.666 4.529 1.876c2.929 2.93 7.678 2.929 10.606.001 2.93-2.929 2.93-7.678.001-10.606-4.042-4.047-9.418-6.273-15.136-6.273z"/></g></g></svg>