<svg id="Capa_1" enable-background="new 0 0 512 512" height="512" viewBox="0 0 512 512" width="512" xmlns="http://www.w3.org/2000/svg"><g><path d="m207.06 268.09h97.88v97.88h-97.88z" fill="#fc8a3d"/><g><path d="m372.693 218.066c-4.429-71.205-41.109-136.46-99.365-177.276-10.413-7.296-24.244-7.296-34.657 0-1.97 1.38-3.911 2.794-5.831 4.229l-93.533 173.047 144.625 60.739c8.158-1.388 16.232-3.39 24.148-6.003l6.972-5.72h7.885c13.8-6.089 26.942-14.142 38.99-24.184 7.321-6.101 11.358-15.321 10.766-24.832z" fill="#ffce71"/><path d="m229.718 62.29c.656-3.674 1.935-10.729 3.123-17.271-54.864 41.013-89.253 104.25-93.533 173.047-.592 9.511 3.445 18.731 10.766 24.832 6.128 5.108 12.539 9.704 19.174 13.789 34.745 21.389 75.674 28.757 114.685 22.117-22.12-28.283-38.733-61.074-48.342-95.644-10.875-39.122-13.008-80.936-5.873-120.87z" fill="#ffb357"/></g><g><path d="m240.946 308.07c-4.429-71.205-41.109-136.46-99.365-177.276-10.413-7.296-24.244-7.296-34.657 0-1.97 1.38-3.911 2.794-5.831 4.229l-93.533 173.047 144.625 60.739c8.158-1.388 16.232-3.39 24.148-6.003l6.972-5.72h7.885c13.8-6.089 26.942-14.142 38.99-24.184 7.321-6.101 11.357-15.321 10.766-24.832z" fill="#ffce71"/><path d="m97.971 152.295c.656-3.674 1.935-10.729 3.123-17.271-54.864 41.012-89.254 104.249-93.534 173.046-.592 9.511 3.445 18.731 10.766 24.832 6.128 5.108 12.539 9.704 19.174 13.789 34.745 21.389 75.674 28.757 114.685 22.117-22.12-28.283-38.733-61.074-48.342-95.644-10.874-39.122-13.007-80.936-5.872-120.869z" fill="#ffb357"/></g><g><path d="m436.951 183.103c0-16.59-18.014-26.934-32.338-18.629h-21.575v80.094h73.009v-29.984c7.421-14.199-2.873-31.482-19.096-31.481z" fill="#d6948c"/><path d="m404.613 164.474c-8.934-12.765-27.885-12.785-36.833 0-14.017-4.831-29.047 3.649-32.211 18.023v32.07 30h57.469v-61.465c0-7.954 4.654-14.901 11.575-18.628z" fill="#ce857a"/></g><g><path d="m504.447 308.07c-2.066-33.212-11.156-65.125-26.171-93.872-3.339-6.391-11.725-7.809-17.175-3.088-1.564 1.354-3.26 2.516-5.054 3.473-6.627 3.538-14.57 4.294-21.966 1.745-9.955 14.224-31.073 14.246-41.043 0-15.905 9.222-36.035-2.197-36.034-20.758l-85.943 112.5 144.625 60.739c8.158-1.388 16.232-3.39 24.148-6.003l6.972-5.72h7.885c13.8-6.089 26.942-14.142 38.99-24.184 7.32-6.101 11.357-15.321 10.766-24.832z" fill="#ffce71"/><path d="m336.09 183.34c-3.879-6.894-13.358-7.786-18.266-1.697-27.296 36.218-43.879 80.053-46.764 126.427-.592 9.511 3.445 18.731 10.766 24.832 6.128 5.108 12.539 9.704 19.174 13.789 34.745 21.389 75.674 28.757 114.685 22.117-40.287-51.511-59.531-114.42-58.682-173.239-8.626.001-16.63-4.631-20.913-12.229z" fill="#ffb357"/></g><g><g><path d="m474.5 346.687h-236.848l-50 30.878 67.63 99.122h115.718c43.24 0 79.352-30.228 88.017-70.527h15.483c16.568 0 30-13.314 30-29.737s-13.432-29.736-30-29.736z" fill="#d4d4ff"/><path d="m237.653 406.16c-16.569-16.423-16.569-43.05 0-59.473h-200.153c-16.569 0-30 13.313-30 29.737 0 16.423 13.431 29.737 30 29.737h15.483c8.665 40.299 44.777 70.527 88.017 70.527h183.652c-43.24-.001-78.335-30.229-86.999-70.528z" fill="#9ea2e3"/></g><g><g><g><ellipse cx="335.557" cy="437.508" fill="#ff8e9e" rx="29.355" ry="23.377"/></g><g><ellipse cx="176.443" cy="437.508" fill="#ff8e9e" rx="29.355" ry="23.377"/></g></g></g></g><g><path d="m325.948 421.005v-12c0-4.142-3.357-7.5-7.5-7.5s-7.5 3.358-7.5 7.5v12c0 4.142 3.357 7.5 7.5 7.5s7.5-3.358 7.5-7.5z"/><path d="m201.052 421.005v-12c0-4.142-3.357-7.5-7.5-7.5s-7.5 3.358-7.5 7.5v12c0 4.142 3.357 7.5 7.5 7.5s7.5-3.358 7.5-7.5z"/><path d="m278.118 425.575c2.722-3.123 2.396-7.86-.727-10.582-3.122-2.721-7.859-2.396-10.582.727-5.727 6.57-15.898 6.563-21.619 0-2.72-3.123-7.458-3.448-10.582-.727-3.122 2.722-3.448 7.459-.727 10.582 11.705 13.431 32.544 13.418 44.237 0z"/><circle cx="382.121" cy="186.202" r="7.5"/><circle cx="413.121" cy="197.202" r="7.5"/><path d="m492.204 343.618c2.127-1.612 4.23-3.254 6.274-4.958 9.157-7.631 14.186-19.238 13.451-31.047-2.114-34.024-11.204-66.621-27.016-96.885-3.729-7.136-11.442-10.856-19.154-9.71-1.5-11.712-10.066-21.815-22.076-24.641-3.806-16.312-21.061-26.125-37.069-20.964-10.837-10.069-27.488-10.779-39.16-1.44-4.563-13.25-10.279-26.138-17.059-38.393-2.004-3.623-6.566-4.938-10.193-2.932-3.624 2.005-4.937 6.569-2.932 10.193 5.951 10.759 11.023 22.038 15.16 33.628-8.536 1.982-15.72 7.273-20.191 14.568-7.536-2.53-15.822-.058-20.669 6.395-9.067 12.074-16.925 24.872-23.526 38.232-22.554-44.894-30.332-96.112-21.396-146.876.718-4.08-2.007-7.969-6.087-8.687-4.079-.718-7.968 2.007-8.687 6.086-9.637 54.75-1.198 113.879 28.482 166.712-5.21 13.025-9.28 26.491-12.152 40.27-8.136.626-16.326.626-24.463-.001-11.147-53.086-38.956-98.845-77.763-132.749 16.748-37.601 43.412-69.964 76.995-93.49 7.851-5.5 18.231-5.48 26.05 0 20.258 14.193 37.957 31.509 52.606 51.467 2.452 3.339 7.145 4.058 10.483 1.608 3.34-2.451 4.06-7.145 1.608-10.484-15.618-21.279-34.49-39.742-56.091-54.876-12.981-9.096-30.233-9.129-43.263-.001-34.222 23.969-62.228 56.946-80.398 95.958-2.66-2.037-5.348-4.037-8.089-5.957-12.939-9.065-30.326-9.064-43.264 0-29.521 20.683-54.454 48.249-72.104 79.716-17.673 31.511-28.199 67.209-30.44 103.24-.735 11.816 4.292 23.428 13.449 31.059 2.043 1.702 4.143 3.343 6.268 4.953-11.769 6.29-19.788 18.637-19.788 32.812 0 20.532 16.822 37.236 37.5 37.236h9.631c4.167 14.717 11.837 28.31 22.406 39.604 2.83 3.022 7.573 3.184 10.602.352 3.024-2.83 3.182-7.576.352-10.601-7.943-8.487-13.939-18.507-17.645-29.355h50.138c4.143 0 7.5-3.358 7.5-7.5s-3.357-7.5-7.5-7.5h-60.022c-.025 0-.049 0-.074 0h-15.388c-12.406 0-22.5-9.975-22.5-22.236s10.094-22.237 22.592-22.237h436.908c12.406 0 22.5 9.976 22.5 22.237s-10.094 22.236-22.5 22.236c-7.564 0-67.783 0-75.483 0-4.143 0-7.5 3.358-7.5 7.5s3.357 7.5 7.5 7.5h50.13c-11.183 32.666-42.65 55.527-78.146 55.527h-230.001c-13.515 0-26.916-3.305-38.753-9.558-3.665-1.935-8.2-.533-10.135 3.129-1.935 3.663-.533 8.2 3.129 10.135 13.988 7.388 29.812 11.293 45.759 11.294h230c43.818 0 82.058-28.981 93.85-70.527h9.65c20.678 0 37.5-16.704 37.5-37.236 0-14.171-8.014-26.515-19.796-32.806zm-126.869-172.054c3.166 1.088 6.668-.048 8.589-2.79 5.968-8.526 18.583-8.517 24.545 0 2.233 3.19 6.539 4.142 9.906 2.188 9.335-5.414 21.076 1.335 21.076 12.141 0 4.139 3.358 7.5 7.5 7.5 9.966 0 16.172 9.758 13.339 18.368-4.352 1.677-9.237 1.828-13.768.266-3.163-1.089-6.668.048-8.588 2.79-6.977 9.967-21.755 10.001-28.754 0-2.233-3.192-6.541-4.141-9.906-2.188-10.937 6.34-24.772-1.511-24.772-14.27 0-4.142-3.357-7.5-7.5-7.5-5.244 0-10.146-2.51-13.236-6.66 3.385-8.355 12.712-12.9 21.569-9.845zm-139.96 155.573c-5.242 4.37-10.816 8.403-16.571 12.05h-32.013c-37.714-51.711-52.987-117.353-41.888-180.395.718-4.08-2.007-7.969-6.087-8.687-4.08-.722-7.968 2.006-8.687 6.086-11.177 63.495 2.791 129.476 38.372 182.996h-118.81c-5.751-3.647-11.323-7.68-16.567-12.05-5.5-4.584-8.521-11.54-8.082-18.605 4.308-69.245 39.365-131.791 96.184-171.6 7.791-5.457 18.258-5.459 26.049 0 56.691 39.719 91.867 102.215 96.183 171.6.438 7.066-2.583 14.021-8.083 18.605zm8.947 12.05c10.359-8.556 14.812-20.239 14.105-31.586-.399-6.422-1.074-12.832-1.993-19.21 6.158.337 12.464.364 19.11-.001-.906 6.354-1.571 12.76-1.972 19.21-.707 11.364 3.848 23.123 14.1 31.587zm254.553-12.049c-5.243 4.37-10.816 8.403-16.57 12.049h-32.014c-19.287-26.432-32.688-56.038-39.81-88.041-.9-4.042-4.905-6.592-8.951-5.691-4.043.9-6.591 4.907-5.691 8.95 6.79 30.505 18.938 58.966 36.154 84.782h-118.893c-.13-.096-.258-.194-.396-.282-5.52-3.527-10.882-7.447-15.937-11.649-5.59-4.648-8.665-11.648-8.225-18.724 2.758-44.323 18.326-86.541 45.022-122.088 1.592-2.12 4.707-1.704 5.989.578 4.444 7.885 12.022 13.392 20.659 15.305 3.909 18.219 23.167 29.118 40.808 23.12 12.893 12.36 33.295 12.006 45.765-.684 10.338 1.87 21.159-.999 29.223-7.984 1.778-1.542 4.504-1.222 5.61.896 14.831 28.386 23.356 58.959 25.34 90.869.439 7.059-2.582 14.009-8.083 18.594z"/></g></g></svg>