<svg id="Capa_1" enable-background="new 0 0 512 512" height="512" viewBox="0 0 512 512" width="512" xmlns="http://www.w3.org/2000/svg"><g><path d="m474.5 303.493h-236.848l-50 30.878 67.63 99.122h115.718c43.24 0 79.352-30.228 88.017-70.527h15.483c16.568 0 30-13.314 30-29.737s-13.432-29.736-30-29.736z" fill="#ff8e9e"/><path d="m237.653 345.538v-42.045h-151.972-48.181c-16.569 0-30 13.313-30 29.737 0 16.423 13.431 29.737 30 29.737h15.483c8.665 40.299 44.777 70.527 88.017 70.527h183.652c-48.672-.001-86.999-40.1-86.999-87.956z" fill="#ea5b70"/><g><g><path d="m443.607 210.042h-184.013v132.754l37.451 10.203c104.357 0 188.955-39.239 188.955-87.642 0-20.976-15.892-40.23-42.393-55.315z" fill="#fce3a0"/><path d="m273.426 318.659c-.762-14.987 6.977-29.126 20.012-36.56v-51.629h-257.508l-2.963 11.634c-7.928 31.128 15.592 61.389 47.713 61.389 8.615 23.649 17.652 42.045 60.845 42.045h91.126c23.903 5.071 36.388 7.461 64.393 7.461-13.721-6.073-22.855-19.354-23.618-34.34z" fill="#ffce71"/></g><g><g><g><g><path d="m208.561 86.399c23.904-5.071 50.479-7.9 78.484-7.9 104.357 0 183.955 39.238 183.955 87.641 0 20.977-10.892 40.23-37.393 55.316.565 5.713.103 11.296-1.496 16.671-10.602 35.639-67.514 51.856-138.672 43.972h-114.472v-176.262z" fill="#fff1d4"/></g><path d="m209.786 202.124c-15.976-36.836-16.418-78.559-1.225-115.725-71.158-7.883-128.07 8.333-138.672 43.972-1.599 5.375-2.061 10.958-1.496 16.671-26.501 15.085-42.393 34.339-42.393 55.315 0 48.403 84.598 87.642 188.955 87.642 28.004 0 54.58-2.829 78.484-7.9-37.517-14.305-67.676-43.139-83.653-79.975z" fill="#fce3a0"/></g><ellipse cx="142.999" cy="212.472" fill="#ffb357" rx="44.667" ry="25.251"/><g><path d="m264.226 123.073h-79.475c-6.312 4.718-10.061 10.593-10.061 16.964 0 15.548 22.296 28.152 49.799 28.152s49.799-12.604 49.799-28.152c-.001-6.371-3.75-12.246-10.062-16.964z" fill="#ffce71"/><path d="m224.488 141.026c19.413 0 35.644-7.678 39.738-17.953-9.091-6.795-23.505-11.187-39.738-11.187-16.232 0-30.646 4.392-39.738 11.187 4.094 10.276 20.325 17.953 39.738 17.953z" fill="#ffb357"/></g><ellipse cx="360.303" cy="194.363" fill="#ffce71" rx="31.69" ry="17.915"/><ellipse cx="418.505" cy="153.822" fill="#fce3a0" rx="22.636" ry="12.796"/><ellipse cx="273.636" cy="244.366" fill="#ffce71" rx="22.636" ry="12.796"/><ellipse cx="119.712" cy="144.768" fill="#ffce71" rx="22.636" ry="12.796"/><ellipse cx="327.962" cy="117.605" fill="#fce3a0" rx="22.636" ry="12.796"/></g></g></g><g><path d="m325.948 393.81v-12c0-4.142-3.357-7.5-7.5-7.5s-7.5 3.358-7.5 7.5v12c0 4.142 3.357 7.5 7.5 7.5s7.5-3.357 7.5-7.5z"/><path d="m201.052 393.81v-12c0-4.142-3.357-7.5-7.5-7.5s-7.5 3.358-7.5 7.5v12c0 4.142 3.357 7.5 7.5 7.5s7.5-3.357 7.5-7.5z"/><path d="m278.118 398.381c2.722-3.123 2.396-7.86-.727-10.582-3.122-2.721-7.859-2.396-10.582.727-5.727 6.57-15.898 6.563-21.619 0-2.72-3.123-7.458-3.448-10.582-.727-3.122 2.722-3.448 7.459-.727 10.582 11.705 13.43 32.544 13.417 44.237 0z"/><path d="m482.776 296.918c21.474-30.579 9.418-62.589-23.273-85.664 23.826-24.264 28.671-62.015-4.909-92.264-3.076-2.771-7.819-2.525-10.592.553-2.772 3.078-2.525 7.82.553 10.592 12.571 11.324 18.945 23.438 18.945 36.005 0 21.134-12.536 35.915-30.472 46.939-10.52-4.414-15.432 9.62-6.706 13.446-.562 44.953-75.948 52.947-123.388 48.964-6.52-.547-13.219-.206-19.792 1.001-21.69 3.986-44.632 6.008-68.187 6.008-39.496 0-77.126-5.667-108.821-16.389-29.893-10.112-52.673-24.339-64.145-40.062-5.633-7.719-8.489-15.69-8.489-23.691 0-16.495 12.475-33.017 35.218-46.803 3.769 1.721 8.072.074 9.833-3.49 1.748-3.535.448-7.777-2.884-9.76.131-39.353 59.004-50.361 98.735-50.361 10.683 0 21.897.643 33.334 1.91.798.088 1.601.048 2.383-.118 70.263-14.906 157.567-8.364 211.25 20.478 3.65 1.959 8.195.591 10.157-3.058 1.96-3.649.591-8.196-3.058-10.156-60.817-32.673-152.697-36.272-220.28-22.186-11.569-1.241-22.929-1.87-33.786-1.87-60.39 0-102.147 19.173-111.702 51.29-1.452 4.885-2.066 9.75-2.035 14.657-27.237 16.607-42.165 37.599-42.165 59.468 0 10.174 3.142 20.099 9.324 29.554l-2.125 8.341c-5.226 20.518 1.267 41.603 16.544 55.74h-4.743c-20.678 0-37.5 16.704-37.5 37.236s16.822 37.237 37.5 37.237h9.631c4.167 14.717 11.837 28.31 22.406 39.604 2.83 3.022 7.573 3.184 10.602.352 3.024-2.83 3.182-7.576.352-10.601-7.943-8.487-13.939-18.507-17.645-29.355h20.138c4.143 0 7.5-3.358 7.5-7.5s-3.357-7.5-7.5-7.5h-30.026c-.023 0-.046 0-.069 0h-15.389c-12.406 0-22.5-9.976-22.5-22.237s10.094-22.236 22.5-22.236h37.991c9.154 23.434 22.119 42.045 66.035 42.045h90.34c23.78 5.039 36.752 7.461 65.179 7.461 73.3 0 139.158-18.912 173.091-49.506h4.364c12.406 0 22.5 9.975 22.5 22.236s-10.094 22.237-22.5 22.237c-9.316 0-36.474 0-45.483 0-4.143 0-7.5 3.358-7.5 7.5s3.357 7.5 7.5 7.5h20.13c-11.183 32.666-42.65 55.527-78.146 55.527h-230.001c-13.515 0-26.916-3.305-38.753-9.558-3.665-1.935-8.2-.533-10.135 3.129-1.935 3.663-.533 8.2 3.129 10.135 13.988 7.388 29.812 11.293 45.759 11.294h230c43.818 0 82.058-28.981 93.85-70.527h9.65c20.678 0 37.5-16.705 37.5-37.237 0-17.707-12.517-32.557-29.224-36.31zm-242.624 42.534v-1.747c0-4.142-3.357-7.5-7.5-7.5s-7.5 3.358-7.5 7.5v.333h-83.626c-34.862 0-44.105-12.078-51.977-32.268 2.814-2.725 3.073-7.2.501-10.23-2.68-3.157-7.412-3.545-10.571-.864l-1.449 1.23c-25.197-1.567-43.272-25.083-38.265-49.863 32.838 31.205 100.388 51.458 175.19 51.458 24.462 0 48.314-2.104 70.897-6.255 5.271-.969 10.633-1.242 15.828-.807 50.459 4.239 123.674-3.295 137.62-50.173 1.443-4.854 2.065-9.699 2.035-14.679 2.209-1.371 4.319-2.793 6.342-4.248 32.831 21.678 42.317 49.94 14.353 76.741-30.064 28.807-94.825 47.421-164.985 47.421-24.918-.002-36.84-1.87-56.893-6.049z"/><path d="m274.287 194.012c0 3.75 3.04 6.791 6.791 6.791 3.75 0 6.791-3.04 6.791-6.791s-3.041-6.791-6.791-6.791c-3.751 0-6.791 3.041-6.791 6.791z"/><circle cx="72.828" cy="184.958" r="6.791"/><ellipse cx="154.317" cy="112.523" rx="6.791" ry="6.791" transform="matrix(.987 -.16 .16 .987 -16.032 26.172)"/><path d="m201.853 257.392c0 3.75 3.04 6.791 6.791 6.791 3.75 0 6.791-3.04 6.791-6.791 0-3.75-3.04-6.791-6.791-6.791-3.751.001-6.791 3.041-6.791 6.791z"/><path d="m158.643 308.602c-3.75 0-6.791 3.04-6.791 6.791 0 3.75 3.04 6.791 6.791 6.791 3.75 0 6.791-3.04 6.791-6.791s-3.04-6.791-6.791-6.791z"/><path d="m278.643 318.602c-3.75 0-6.791 3.04-6.791 6.791 0 3.75 3.04 6.791 6.791 6.791 3.75 0 6.791-3.04 6.791-6.791s-3.04-6.791-6.791-6.791z"/><path d="m410.643 288.602c-3.75 0-6.791 3.04-6.791 6.791 0 3.75 3.04 6.791 6.791 6.791 3.75 0 6.791-3.04 6.791-6.791s-3.04-6.791-6.791-6.791z"/><path d="m450.643 258.602c-3.75 0-6.791 3.04-6.791 6.791 0 3.75 3.04 6.791 6.791 6.791 3.75 0 6.791-3.04 6.791-6.791s-3.04-6.791-6.791-6.791z"/><ellipse cx="353.512" cy="239.284" rx="6.791" ry="6.791" transform="matrix(.383 -.924 .924 .383 -2.84 474.317)"/><circle cx="362.567" cy="148.741" r="6.791"/><path d="m98.332 219.972c4.143 0 7.5-3.358 7.5-7.5 0-8.379 15.895-17.75 37.167-17.75s37.168 9.372 37.168 17.75c0 4.142 3.357 7.5 7.5 7.5s7.5-3.358 7.5-7.5c0-18.365-22.915-32.75-52.168-32.75s-52.167 14.386-52.167 32.75c0 4.142 3.357 7.5 7.5 7.5z"/><path d="m259.736 129.081c3.217 2.404 7.051 6.257 7.051 10.957 0 4.142 3.357 7.5 7.5 7.5s7.5-3.358 7.5-7.5c0-8.513-4.642-16.671-13.07-22.972-32.916-24.601-101.527-11.52-101.527 22.972 0 4.142 3.357 7.5 7.5 7.5s7.5-3.358 7.5-7.5c0-9.768 17.371-20.652 42.299-20.652 13.948 0 27.125 3.624 35.247 9.695z"/><path d="m384.493 194.364c0 4.142 3.357 7.5 7.5 7.5s7.5-3.358 7.5-7.5c0-14.489-16.848-25.415-39.189-25.415s-39.19 10.926-39.19 25.415c0 4.142 3.357 7.5 7.5 7.5s7.5-3.358 7.5-7.5c0-4.146 9.648-10.415 24.19-10.415s24.189 6.268 24.189 10.415z"/><path d="m403.368 153.84c.224-1.238 5.379-5.314 15.137-5.314 9.759 0 14.914 4.076 15.136 5.296 0 4.142 3.357 7.5 7.5 7.5s7.5-3.358 7.5-7.5c0-11.571-12.955-20.296-30.136-20.296s-30.136 8.725-30.136 20.296c0 4.142 3.357 7.509 7.499 7.509 4.143 0 7.5-3.349 7.5-7.491z"/><path d="m250.999 251.874c4.143 0 7.5-3.349 7.5-7.491.223-1.237 5.377-5.314 15.137-5.314 9.761 0 14.914 4.076 15.136 5.296 0 4.142 3.357 7.5 7.5 7.5s7.5-3.358 7.5-7.5c0-11.571-12.955-20.296-30.136-20.296s-30.136 8.726-30.136 20.296c0 4.143 3.357 7.509 7.499 7.509z"/><path d="m119.712 124.472c-32.512 0-36.417 27.805-22.637 27.805 4.143 0 7.5-3.349 7.5-7.491.224-1.238 5.379-5.314 15.137-5.314 9.759 0 14.914 4.077 15.136 5.296 0 4.142 3.357 7.5 7.5 7.5s7.5-3.358 7.5-7.5c0-11.571-12.955-20.296-30.136-20.296z"/><path d="m312.825 117.622c.223-1.237 5.378-5.313 15.137-5.313 9.758 0 14.913 4.076 15.136 5.296 0 4.142 3.357 7.5 7.5 7.5s7.5-3.358 7.5-7.5c0-11.571-12.955-20.296-30.136-20.296s-30.136 8.725-30.136 20.296c0 4.142 3.357 7.509 7.499 7.509 4.143 0 7.5-3.349 7.5-7.492z"/></g></g></svg>