<svg id="Capa_1" enable-background="new 0 0 512 512" height="512" viewBox="0 0 512 512" width="512" xmlns="http://www.w3.org/2000/svg"><g><g><path d="m429.75 344.326c41.283 0 74.75-33.466 74.75-74.75 0-41.273-33.45-74.732-74.719-74.749h-25.439l-111.342-30-114.633 30-30.394 31.441v93.54l43.81 24.518 103.217 30 95.644-30s0 0 0-.001h39.106zm-27.753-53.713c2.355-14.56 4.153-29.374 4.984-43.705.231-3.974 3.502-7.082 7.483-7.082h15.286c16.703 0 30.236 13.837 29.737 30.65-.48 16.181-14.181 28.85-30.369 28.85h-19.723c-4.628.001-8.137-4.145-7.398-8.713z" fill="#efedff"/><path d="m178.367 194.827-75.867-30-91.856 30c-8.214 40.214 1.155 97.565 11.662 142.233.581 2.469 1.264 4.892 2.041 7.267l75.301 30 92.136-30c-11.165-45.556-22.082-107.068-13.417-149.5z" fill="#d4d4ff"/></g><g><path d="m399.178 177.412c-10.186-24.675-34.489-40.57-61.183-40.57h-93.283-42.327c-30.261 0-45.417 36.587-24.018 57.986h225.975c-1.28-6.252-2.971-12.104-5.164-17.416z" fill="#ffce71"/><path d="m76.981 136.841c-26.708 0-51.029 15.909-61.197 40.605-2.183 5.302-3.867 11.142-5.141 17.381h167.723c1.274-6.241 2.965-12.077 5.149-17.381 10.168-24.696 34.49-40.605 61.197-40.605z" fill="#ffb357"/></g><g><path d="m191.783 405.16h114.74c38.491 0 72.325-24.787 84.121-60.833h-198.861z" fill="#70dcba"/><path d="m108.468 405.16h126.593c-15.626 0-29.384-10.303-33.752-25.306-2.856-9.808-6.202-21.961-9.526-35.526h-167.437c11.795 36.044 45.629 60.832 84.122 60.832z" fill="#30cd9c"/></g><g><path d="m147.973 226.268-20.088-21.371h-30.43l-21.122 22.471v61.593l22.543 17.73c6.705 5.273 14.988 8.14 23.518 8.14 1.868 0 3.702-.149 5.491-.43 16.78-2.636 29.615-17.156 29.615-34.676v-29.411c0-8.936-3.407-17.535-9.527-24.046z" fill="#70dcba"/><path d="m98.269 279.724v-29.411c0-8.935 3.407-17.535 9.527-24.045l20.089-21.371-25.385-27.004-45.473 48.376c-6.12 6.51-9.527 15.109-9.527 24.045v29.411c0 19.389 15.718 35.106 35.106 35.106h39.787c1.868 0 3.702-.149 5.491-.43-16.779-2.637-29.615-17.156-29.615-34.677z" fill="#30cd9c"/></g><g><g><g><g><ellipse cx="187.205" cy="309.2" fill="#ff8e9e" rx="25" ry="19.909"/></g><g><ellipse cx="337.608" cy="309.2" fill="#ff8e9e" rx="25" ry="19.909"/></g></g></g></g><g><path d="m429.75 232.326h-14.94c0-4.671-3.591-7.729-7.5-7.729-4.13 0-7.5 3.37-7.5 7.5 0 23.312-3.546 51.543-8.22 72.96-1.979 9.084 12.263 14.138 14.963 1.769h22.564c20.289 0 37.275-16.207 37.866-36.127.624-21.042-16.256-38.373-37.233-38.373zm22.239 37.928c-.353 11.896-10.612 21.572-22.872 21.572h-19.72c2.58-15.955 4.279-30.862 5.071-44.5h15.281c12.51 0 22.615 10.352 22.24 22.928z"/><path d="m429.75 187.328h-19.44c-9.795-38.03-40.527-57.99-72.31-57.99h-198v-7.496c0-12.407-10.094-22.5-22.5-22.5s-22.5 10.093-22.5 22.5v7.496h-18.021c-29.27 0-56.595 17.285-68.13 45.25-5.939 14.47-8.83 32.62-8.85 55.49.01 29.79 5.06 66.37 15 108.7 3.342 14.129 9.798 27.267 18.899 38.46 2.625 3.229 7.349 3.689 10.551 1.09 3.204-2.604 3.708-7.309 1.09-10.55-3.971-4.884-7.359-10.259-10.093-15.948h344.115c-13.306 27.787-41.462 45.828-73.022 45.828h-196.5c-16.101-.011-30.88-4.021-43.931-11.94-3.419-2.086-8.089-1.144-10.31 2.521-2.13 3.501-1.057 8.125 2.52 10.3 15.688 9.54 33.561 14.12 51.681 14.12h196.52c39.815 0 75.14-24.465 89.4-60.83h33.83c45.317 0 82.25-36.7 82.25-82.25.001-45.419-36.792-82.251-82.249-82.251zm-319.75-65.486c0-4.136 3.364-7.5 7.5-7.5s7.5 3.364 7.5 7.5v7.496h-15zm0 22.496h228c24.7 0 48.243 14.877 56.735 42.992h-273.073c-4.769-5.073-8.972-9.543-11.662-12.403zm-7.5 71.055c4.143 0 7.5-3.358 7.5-7.5v-11.078c12.078 12.849 28.209 30.017 32.51 34.593 4.83 5.14 7.49 11.85 7.49 18.91v29.409c-.03 15.19-12.41 27.58-27.61 27.601h-39.78c-15.199-.021-27.58-12.41-27.609-27.601v-29.409c0-7.061 2.66-13.771 7.49-18.91l32.509-34.59v11.075c0 4.142 3.357 7.5 7.5 7.5zm-25.521-71.055h18.021v30.579l-11.669 12.413h-63.092c8.41-27.938 31.89-42.992 56.74-42.992zm352.771 192.49c-4.156 0-396.216.002-399.768.002-6.908-27.086-15.002-72.331-14.982-106.752-.01-10.09.645-19.414 1.927-27.748h52.303l-17.67 18.798c-7.45 7.94-11.56 18.3-11.56 29.19v29.409c0 23.534 19.04 42.601 42.609 42.601h39.78c23.389 0 42.61-18.909 42.61-42.601v-29.409c0-10.891-4.11-21.25-11.561-29.19-2.647-2.812-9.774-10.392-17.676-18.798 16.344 0 281.42-.002 293.987-.002 37.021 0 67.23 29.932 67.25 67.25-.019 36.858-29.773 67.23-67.249 67.25z"/><path d="m282.399 236.888h-1.889l1.339-1.34c1.42-1.41 2.2-3.3 2.2-5.3s-.78-3.89-2.2-5.3c-1.41-1.42-3.3-2.2-5.3-2.2-2.01 0-3.89.78-5.3 2.2l-1.351 1.35v-1.91c0-4.13-3.359-7.5-7.489-7.5-4.141 0-7.5 3.37-7.5 7.5v1.901l-1.341-1.341c-1.42-1.42-3.3-2.2-5.31-2.2-2 0-3.88.78-5.3 2.2-2.92 2.92-2.92 7.68 0 10.6l1.34 1.34h-1.89c-4.141 0-7.5 3.37-7.5 7.5 0 4.14 3.359 7.5 7.5 7.5h1.89l-1.34 1.34c-1.42 1.42-2.2 3.3-2.2 5.31 0 2 .78 3.88 2.2 5.3s3.3 2.2 5.3 2.2c2.01 0 3.89-.78 5.31-2.2l1.341-1.342v1.892c0 4.14 3.359 7.5 7.5 7.5 4.13 0 7.489-3.36 7.489-7.5v-1.9l1.351 1.35c1.41 1.42 3.3 2.2 5.3 2.2s3.89-.78 5.3-2.2c1.42-1.42 2.2-3.3 2.2-5.31 0-2-.78-3.88-2.2-5.3l-1.34-1.34h1.89c4.141 0 7.5-3.36 7.5-7.5 0-4.13-3.359-7.5-7.5-7.5z"/><path d="m199.958 274.664c-4.143 0-7.5 3.358-7.5 7.5v12c0 4.142 3.357 7.5 7.5 7.5s7.5-3.358 7.5-7.5v-12c0-4.142-3.357-7.5-7.5-7.5z"/><path d="m324.855 274.664c-4.143 0-7.5 3.358-7.5 7.5v12c0 4.142 3.357 7.5 7.5 7.5s7.5-3.358 7.5-7.5v-12c0-4.142-3.357-7.5-7.5-7.5z"/><path d="m283.799 288.154c-3.122-2.722-7.86-2.397-10.581.726-5.727 6.57-15.899 6.566-21.621 0-2.723-3.122-7.46-3.447-10.582-.727-3.122 2.722-3.448 7.459-.727 10.582 11.705 13.429 32.543 13.416 44.236 0 2.722-3.122 2.398-7.859-.725-10.581z"/></g></g></svg>