<svg id="Capa_1" enable-background="new 0 0 512 512" height="512" viewBox="0 0 512 512" width="512" xmlns="http://www.w3.org/2000/svg"><g><g><g fill="#ea5b70"><path d="m350.605 76.254c0-18.986-15.459-34.377-34.445-34.377-18.985 0-34.375 15.391-34.376 34.375v-34.375c0-18.986-15.391-34.377-34.377-34.377s-34.377 15.391-34.377 34.377l-.004 34.377c0-18.986-15.387-34.377-34.373-34.377s-34.377 15.391-34.377 34.377v50h68.75 68.759 68.822v-50z"/><path d="m419.291 145.008c0-18.986-15.391-34.377-34.377-34.377-18.29 0-33.237 14.285-34.309 32.306l-.068 36.283 68.754-.002z"/></g><g fill="#ff8e9e"><path d="m245.44 74.288v7.772l36.343 14.192c0-58.798.024-54.814-.056-56.286-19.788-1.091-36.287 14.655-36.287 34.322z"/><path d="m314.194 108.665v3.39l36.411 14.199c0-58.989.049-48.748-.123-51.911-19.789-1.091-36.288 14.655-36.288 34.322z"/><path d="m176.686 108.665c0 .239-.001 1.411-.003 3.395l36.341 14.194c0-.019 0-51.911 0-51.911-19.999-1.087-36.338 14.783-36.338 34.322z"/><path d="m419.236 143.098c-.633-.034-1.269-.055-1.91-.055-14.6 0-27.066 9.106-32.05 21.946l34.016 14.23c0-17.974 0-31.564 0-34.21-.001-.642-.022-1.279-.056-1.911z"/></g></g><g><path d="m385.275 164.988c-12.558-.089-25.157 4.65-34.738 14.232l.068-36.283v-16.683l-36.411-14.199c-11.784.481-23.426 5.214-32.411 14.199v-30.002l-36.343-14.192c-11.776.477-23.426 5.203-32.416 14.194v30l-36.341-14.194c-11.773.478-23.42 5.205-32.409 14.194v81.062h246.918l28.098-28.098z" fill="#ffbd86"/><path d="m385.275 164.988c-1.497 3.857-2.327 8.046-2.327 12.431v3.801c0 8.945-7.251 16.196-16.196 16.196-8.948 0-16.201-7.256-16.196-16.205l.005-9.014.044-45.944c-9.993-9.993-23.322-14.726-36.411-14.199v68.698c0 8.726-6.706 16.234-15.422 16.644-9.306.438-16.989-6.977-16.989-16.187v-54.957-30c-9.993-9.993-23.254-14.719-36.343-14.192v99.074c0 8.727-6.707 16.237-15.424 16.647-9.308.438-16.991-6.978-16.991-16.189v-55.339c-9.994-9.994-23.251-14.721-36.341-14.194-.028 37.003-.272 361.216-.273 362.44h182.475v-15-51.595c36.454-24.754 60.406-66.544 60.406-113.929 0-3.109 0-71.591 0-114.757-9.402-9.4-21.696-14.139-34.017-14.23z" fill="#fed2a4"/></g><g><path d="m144.274 166.383c-28.479 0-51.565 23.087-51.565 51.565v30.051l103.131-.152c0-12.2 0-23.197 0-29.899 0-28.478-23.087-51.565-51.566-51.565z" fill="#ea5b70"/><g><path d="m195.84 307.718c0-11.738 0-37.782 0-59.87-28.535-28.366-74.66-28.318-103.131.152v45.976c0 47.171 23.738 88.792 59.914 113.588v66.936h148.552v-44.288c-59.619-8.948-105.335-60.381-105.335-122.494z" fill="#ffbd86"/></g></g><g><g><path d="m178.5 447.229h-13l-17.5 27.271 17.5 27.271h13c10.325-4.741 17.5-15.165 17.5-27.271s-7.175-22.53-17.5-27.271z" fill="#ff8e9e"/><path d="m161 474.5c0-12.106 7.174-22.53 17.5-27.271-3.806-1.748-8.038-2.729-12.5-2.729-16.569 0-30 13.431-30 30 0 16.568 13.431 30 30 30 4.462 0 8.694-.982 12.5-2.729-10.326-4.741-17.5-15.165-17.5-27.271z" fill="#ea5b70"/></g><g><path d="m238.5 447.229h-13l-17.5 27.271 17.5 27.271h13c10.325-4.741 17.5-15.165 17.5-27.271s-7.175-22.53-17.5-27.271z" fill="#ff8e9e"/><path d="m221 474.5c0-12.106 7.174-22.53 17.5-27.271-3.806-1.748-8.038-2.729-12.5-2.729-16.569 0-30 13.431-30 30 0 16.568 13.431 30 30 30 4.462 0 8.694-.982 12.5-2.729-10.326-4.741-17.5-15.165-17.5-27.271z" fill="#ea5b70"/></g><g><path d="m298.5 447.229h-13l-17.5 27.271 17.5 27.271h13c10.325-4.741 17.5-15.165 17.5-27.271s-7.175-22.53-17.5-27.271z" fill="#ff8e9e"/><path d="m281 474.5c0-12.106 7.174-22.53 17.5-27.271-3.806-1.748-8.038-2.729-12.5-2.729-16.569 0-30 13.431-30 30 0 16.568 13.431 30 30 30 4.462 0 8.694-.982 12.5-2.729-10.326-4.741-17.5-15.165-17.5-27.271z" fill="#ea5b70"/></g><g><path d="m358.5 447.229h-13l-17.5 27.271 17.5 27.271h13c10.325-4.741 17.5-15.165 17.5-27.271s-7.175-22.53-17.5-27.271z" fill="#ff8e9e"/><path d="m341 474.5c0-12.106 7.174-22.53 17.5-27.271-3.806-1.748-8.038-2.729-12.5-2.729-16.569 0-30 13.431-30 30 0 16.568 13.431 30 30 30 4.462 0 8.694-.982 12.5-2.729-10.326-4.741-17.5-15.165-17.5-27.271z" fill="#ea5b70"/></g></g><g><g><g><ellipse cx="192.744" cy="363.844" fill="#ff8e9e" rx="27.03" ry="21.525"/></g><g><ellipse cx="339.256" cy="363.844" fill="#ff8e9e" rx="27.03" ry="21.525"/></g></g></g><g><path d="m419.291 219.563c-4.143 0-7.5 3.358-7.5 7.5v66.913c0 54.825-34.411 102.095-82.287 121.528-3.838 1.558-5.686 5.932-4.128 9.77 1.556 3.835 5.927 5.687 9.771 4.128 5.592-2.27 11.011-4.885 16.239-7.805v15.795c-13.886-2.005-27.271 3.829-35.386 14.634-6.847-9.117-17.746-15.026-30-15.026s-23.153 5.909-30 15.026c-6.847-9.117-17.746-15.026-30-15.026s-23.153 5.909-30 15.026c-6.847-9.117-17.746-15.026-30-15.026-2 0-3.961.161-5.877.464v-16.454c5.356 2.963 10.904 5.597 16.634 7.874.908.361 1.846.532 2.768.532 2.982 0 5.803-1.792 6.972-4.732 1.53-3.849-.351-8.21-4.2-9.74-14.171-5.632-27.736-13.917-39.822-24.985-3.055-2.797-7.799-2.589-10.597.466-2.797 3.055-2.589 7.799.466 10.597 4.082 3.738 8.346 7.223 12.78 10.447v31.897c-10.018 6.739-16.623 18.18-16.623 31.135 0 20.678 16.822 37.5 37.5 37.5 12.254 0 23.153-5.909 30-15.026 6.847 9.117 17.746 15.026 30 15.026s23.153-5.909 30-15.026c6.847 9.117 17.746 15.026 30 15.026s23.153-5.909 30-15.026c6.847 9.117 17.746 15.026 30 15.026 20.678 0 37.5-16.822 37.5-37.5 0-13.164-6.824-24.757-17.114-31.45v-31.073c35.374-25.827 60.405-68.338 60.405-118v-66.913c-.001-4.144-3.358-7.502-7.501-7.502zm-253.291 277.437c-12.406 0-22.5-10.093-22.5-22.5s10.094-22.5 22.5-22.5 22.5 10.093 22.5 22.5-10.094 22.5-22.5 22.5zm60 0c-12.406 0-22.5-10.093-22.5-22.5s10.094-22.5 22.5-22.5 22.5 10.093 22.5 22.5-10.094 22.5-22.5 22.5zm60 0c-12.406 0-22.5-10.093-22.5-22.5s10.094-22.5 22.5-22.5 22.5 10.093 22.5 22.5-10.094 22.5-22.5 22.5zm82.5-22.5c0 12.407-10.094 22.5-22.5 22.5s-22.5-10.093-22.5-22.5 10.094-22.5 22.5-22.5 22.5 10.093 22.5 22.5z"/><path d="m100.209 293.976v-42.76c24.863-22.683 63.194-22.742 88.131-.14v8.026c0 4.142 3.357 7.5 7.5 7.5 33.603 0 57.57 15.826 70.119 39.879 1.917 3.672 6.448 5.096 10.119 3.179 3.672-1.916 5.096-6.446 3.18-10.119-14.01-26.842-40.674-45.521-75.918-47.71v-33.882c0-30.027-22.528-54.874-51.565-58.573v-29.847c15.357-13.308 38.308-13.386 53.754.003v53.476c0 4.142 3.357 7.5 7.5 7.5s7.5-3.358 7.5-7.5v-83.482c15.356-13.303 38.312-13.382 53.754.001v83.482c0 4.142 3.358 7.5 7.5 7.5 4.143 0 7.5-3.358 7.5-7.5v-53.479c15.435-13.378 38.398-13.304 53.754-.058v53.537c0 4.142 3.357 7.5 7.5 7.5s7.5-3.358 7.5-7.5v-.511c15.28-13.221 38.056-13.312 53.435-.276l.14 14.87c.039 4.118 3.39 7.429 7.499 7.429h.071c4.143-.039 7.469-3.428 7.43-7.57-.604-64.033-.495-59.533-.718-60.594-6.422-30.544-43.509-43.862-67.857-23.429v-36.674c0-35.498-41.629-54.845-68.755-32.082v-2.295c0-23.091-18.786-41.877-41.877-41.877s-41.877 18.786-41.877 41.877v2.295c-27.068-22.714-68.754-3.474-68.754 32.082v83.122c-29.038 3.699-51.565 28.546-51.565 58.573v76.026c-.001 30.03 9.094 58.848 26.3 83.337 2.381 3.389 7.059 4.206 10.448 1.825 3.39-2.381 4.206-7.059 1.825-10.448-15.423-21.951-23.574-47.786-23.573-74.713zm284.705-175.845c12.41 0 23.295 8.634 26.148 20.629l.239 25.312c-16.601-8.831-36.734-8.736-53.264.275v-19.339c0-14.82 12.057-26.877 26.877-26.877zm-68.755-68.754c14.82 0 26.878 12.057 26.878 26.877v35.065c-16.622-9.056-37.066-9.094-53.754.035v-35.109c.005-14.816 12.059-26.868 26.876-26.868zm-68.754-34.377c14.82 0 26.877 12.057 26.877 26.877v34.368.009.005 5.093c-16.672-9.119-37.111-9.098-53.754.001v-39.476c0-14.82 12.057-26.877 26.877-26.877zm-68.754 34.377c14.82 0 26.877 12.057 26.877 26.877v35.101c-16.672-9.122-37.108-9.104-53.754-.001v-35.1c0-14.82 12.057-26.877 26.877-26.877zm-34.377 124.506c24.298 0 44.065 19.768 44.065 44.065v14.236c-26.674-17.388-61.499-17.346-88.131.101v-14.337c.001-24.297 19.769-44.065 44.066-44.065z"/><path d="m216.79 330.812c-4.394 5.042-12.197 5.037-16.587 0-2.721-3.122-7.459-3.446-10.581-.726-3.123 2.722-3.447 7.459-.726 10.582 10.371 11.9 28.84 11.888 39.2 0 2.722-3.122 2.397-7.86-.726-10.582-3.122-2.721-7.86-2.396-10.58.726z"/><path d="m342.378 330.087c-3.123-2.722-7.861-2.397-10.581.726-4.393 5.04-12.196 5.038-16.587 0-2.721-3.122-7.459-3.446-10.581-.726-3.123 2.722-3.447 7.459-.726 10.582 10.371 11.901 28.84 11.888 39.2 0 2.722-3.123 2.398-7.86-.725-10.582z"/><path d="m288.145 338.25c-3.125-2.722-7.862-2.396-10.582.727-6.165 7.074-17.121 7.067-23.279 0-2.723-3.122-7.46-3.448-10.582-.727-3.122 2.722-3.448 7.459-.727 10.582 12.143 13.934 33.766 13.92 45.896 0 2.722-3.123 2.396-7.86-.726-10.582z"/></g></g></svg>