<svg id="Capa_1" enable-background="new 0 0 512 512" height="512" viewBox="0 0 512 512" width="512" xmlns="http://www.w3.org/2000/svg"><g><g><path d="m322.514 43.78h-70l-93.891 167.169 78.463 111.806h185.566v-97.644c.001 0-44.328-119.424-100.138-181.331z" fill="#ff8e9e"/><path d="m228.623 210.949c12.933-35.761 49.711-118.973 93.891-167.169-19.526-21.66-40.458-36.281-61.389-36.28-68.884.005-137.752 151.603-156.502 203.449-19.634 54.297 20.609 111.806 78.463 111.806h124c-57.854 0-98.096-57.509-78.463-111.806z" fill="#ea5b70"/></g><g><g><g><g><ellipse cx="172.437" cy="171.22" fill="#ffdbe0" rx="30.834" ry="24.555"/></g><g><ellipse cx="339.567" cy="171.22" fill="#ffdbe0" rx="30.834" ry="24.555"/></g></g></g></g><g><path d="m451.944 236.01c-8.486-7.301-18.603-10.898-29.291-10.898-12.689 0-25.309 5.297-34.232 15.67-.152.177-.305.354-.457.53-25.733 29.784-63.346 46.638-102.707 46.638l-165.182.001v152.011l36.124 27.269h85.406v-35.651c82.676-19.552 158.612-66.364 215.113-132.046 16.223-18.862 14.085-47.301-4.774-63.524z" fill="#fed2a4"/><path d="m253.642 212.558c-3.419-3.379-7.248-6.09-11.32-8.152-16.903-8.56-38.072-5.788-52.198 8.336-98.2 98.201-75.069 75.052-97.621 97.663-14.228 14.267-22.428 33.544-22.429 54.007v65.548 37.269h81.145v-37.269c0-33.761 13.422-64.331 35.659-86.568l55.444-55.444 10.881-10.882c17.621-17.619 18.163-46.99.439-64.508z" fill="#ffbd86"/></g><g><g><path d="m97.188 433.352h-16.15l-21.74 33.879 21.74 33.878h16.15c12.827-5.889 21.74-18.839 21.74-33.878.001-15.04-8.912-27.989-21.74-33.879z" fill="#ff8e9e"/><path d="m75.448 467.231c0-15.039 8.913-27.989 21.74-33.879-4.729-2.171-9.985-3.39-15.529-3.39-20.583 0-37.269 16.686-37.269 37.269s16.686 37.269 37.269 37.269c5.544 0 10.8-1.22 15.529-3.391-12.828-5.889-21.74-18.839-21.74-33.878z" fill="#ea5b70"/></g><g><path d="m171.727 433.352h-16.15l-21.74 33.879 21.74 33.878h16.15c12.827-5.889 21.74-18.839 21.74-33.878 0-15.04-8.913-27.989-21.74-33.879z" fill="#ff8e9e"/><path d="m149.986 467.231c0-15.039 8.913-27.989 21.74-33.879-4.729-2.171-9.985-3.39-15.529-3.39-20.583 0-37.269 16.686-37.269 37.269s16.686 37.269 37.269 37.269c5.544 0 10.8-1.22 15.529-3.391-12.827-5.889-21.74-18.839-21.74-33.878z" fill="#ea5b70"/></g><g><path d="m246.265 433.352h-16.15l-21.74 33.879 21.74 33.878h16.15c12.827-5.889 21.74-18.839 21.74-33.878.001-15.04-8.912-27.989-21.74-33.879z" fill="#ff8e9e"/><path d="m224.525 467.231c0-15.039 8.913-27.989 21.74-33.879-1.503-.69-3.06-1.283-4.661-1.772-3.438-1.05-7.086-1.618-10.867-1.618-20.583 0-37.269 16.686-37.269 37.269s16.686 37.269 37.269 37.269c5.544 0 10.8-1.22 15.529-3.391-12.828-5.889-21.741-18.839-21.741-33.878z" fill="#ea5b70"/></g></g><g><path d="m182.906 147.281v12c0 4.142 3.357 7.5 7.5 7.5s7.5-3.358 7.5-7.5v-12c0-4.142-3.357-7.5-7.5-7.5s-7.5 3.358-7.5 7.5z"/><path d="m233.054 164.136c12.143 13.934 33.766 13.92 45.896 0 2.722-3.123 2.396-7.86-.727-10.582-3.125-2.721-7.862-2.396-10.582.727-6.165 7.074-17.121 7.067-23.279 0-2.723-3.123-7.46-3.447-10.582-.727-3.122 2.721-3.448 7.459-.726 10.582z"/><path d="m302.508 158.946c0 4.142 3.357 7.5 7.5 7.5s7.5-3.358 7.5-7.5c0-3.532 2.874-6.406 6.406-6.406s6.406 2.874 6.406 6.406c0 4.142 3.357 7.5 7.5 7.5s7.5-3.358 7.5-7.5c0-11.803-9.603-21.406-21.406-21.406s-21.406 9.603-21.406 21.406z"/><path d="m456.835 230.325c-8.317-7.156-18.23-11.401-28.923-12.449-9.033-23.201-50.057-123.911-99.827-179.119-23.185-25.717-45.713-38.757-66.961-38.757-31.95.002-66.161 27.963-101.681 83.105-2.243 3.482-1.239 8.124 2.243 10.367 3.482 2.241 8.123 1.239 10.366-2.244 32.124-49.867 62.925-76.226 89.073-76.228 16.819 0 35.6 11.373 55.819 33.801 45.531 50.506 83.716 141.119 95.165 169.884-11.349 2.307-21.704 8.287-29.364 17.191l-.457.531c-24.183 27.989-59.55 44.041-97.032 44.041h-24.924c8.867-9.825 13.885-22.913 13.846-36.321-.136-46.937-56.814-69.228-89.359-36.689-8.849 8.848-61.8 61.798-68.33 68.329-10.43-18.916-12.392-41.313-4.814-62.268 8.348-23.083 24.577-60.664 45.095-96.913 2.04-3.605.771-8.181-2.833-10.221-3.603-2.039-8.181-.772-10.222 2.833-20.976 37.06-37.591 75.543-46.146 99.2-9.495 26.252-6.533 54.727 7.96 78.33-5.745 5.749-6.481 6.489-18.338 18.381-15.875 15.918-24.618 36.979-24.618 59.303v62.316c-15.563 7.307-25.685 22.957-25.685 40.501 0 24.686 20.084 44.77 44.77 44.77 15.532 0 29.237-7.954 37.27-20 8.032 12.046 21.738 20 37.27 20s29.237-7.954 37.269-20c8.032 12.045 21.738 20 37.27 20 24.686 0 44.77-20.083 44.77-44.77 0-12.925-5.422-24.737-14.451-32.999 49.25-14.126 96.699-38.126 138.19-70.029 3.284-2.525 3.899-7.234 1.374-10.518-2.523-3.283-7.232-3.899-10.517-1.374-44.267 34.037-95.54 58.739-148.392 71.522-18.566-4.701-37.763 2.912-48.242 18.627-8.032-12.045-21.737-20-37.269-20-15.37 0-29.131 7.819-37.259 20.016-8.83-13.255-24.385-21.376-41.365-19.823v-58.241c0-18.325 7.188-35.625 20.239-48.711 19.495-19.553 4.016-4.061 97.612-97.656 23.197-23.192 63.655-7.481 63.753 26.126.03 10.337-4.081 20.395-11.279 27.593l-32.598 32.597c-2.929 2.929-2.93 7.677-.001 10.606 2.927 2.93 7.676 2.931 10.606.002l19.521-19.521h39.828c41.845 0 81.348-17.945 108.388-49.241l.462-.536c13.118-15.249 36.753-17.91 52.946-3.977 15.726 13.526 17.487 37.242 3.979 52.946-11.821 13.742-24.688 26.826-38.241 38.889-3.094 2.754-3.37 7.495-.616 10.589 2.755 3.095 7.495 3.369 10.589.616 14.049-12.504 27.386-26.067 39.64-40.312 18.933-22.007 16.407-55.193-5.569-74.095zm-255.862 236.648c.139-16.296 13.434-29.512 29.763-29.512 16.074 0 29.77 12.87 29.77 29.77 0 16.415-13.354 29.77-29.77 29.77-16.329 0-29.624-13.216-29.763-29.512.003-.086.013-.171.013-.258s-.01-.172-.013-.258zm-44.775-29.512c16.414 0 29.769 13.354 29.769 29.77s-13.355 29.769-29.769 29.769c-16.204 0-29.75-13.124-29.75-29.77 0-.089-.01-.176-.013-.265.144-16.151 13.337-29.504 29.763-29.504zm-74.539 0c16.415 0 29.77 13.354 29.77 29.77s-13.355 29.769-29.77 29.769-29.77-13.354-29.77-29.77c.001-16.605 13.452-29.769 29.77-29.769z"/><circle cx="243.502" cy="44.033" r="7.5"/><circle cx="253.502" cy="94.033" r="7.5"/><circle cx="193.502" cy="104.033" r="7.5"/><circle cx="143.502" cy="194.033" r="7.5"/><circle cx="128.502" cy="237.033" r="7.5"/><circle cx="288.502" cy="197.033" r="7.5"/><circle cx="308.502" cy="247.033" r="7.5"/><circle cx="368.502" cy="217.033" r="7.5"/><circle cx="318.502" cy="107.033" r="7.5"/><circle cx="318.502" cy="445.033" r="7.5"/><circle cx="378.502" cy="485.033" r="7.5"/><circle cx="398.502" cy="405.033" r="7.5"/></g></g></svg>