<svg id="Capa_1" enable-background="new 0 0 512 512" height="512" viewBox="0 0 512 512" width="512" xmlns="http://www.w3.org/2000/svg"><g><g><g><path d="m341.988 392h-86.126l-30.96 15.541v73.919l30.96 15.54h86.126c28.995 0 52.5-23.505 52.5-52.5-.001-28.996-23.505-52.5-52.5-52.5z" fill="#ffb39d"/></g><path d="m255.862 392h-85.875c-28.995 0-52.5 23.504-52.5 52.5 0 28.995 23.505 52.5 52.5 52.5h85.875c-28.995-28.995-28.995-76.006 0-105z" fill="#ff8f71"/></g><path d="m502.659 263.022c-2.814-11.795-8.815-22.917-17.811-31.956-58.48-58.759-139.425-95.136-228.877-95.136-13.073 0-25.963.782-38.63 2.292-73.985 8.822-140.286 42.66-190.216 92.813-9.024 9.064-15.017 20.206-17.813 32.023l246.658 185.344z" fill="#ff6f4d"/><g><path d="m240.862 201h30v78.77h-30z" fill="#efedff"/><g><ellipse cx="255.862" cy="154" fill="#ffce71" rx="45.666" ry="67"/><ellipse cx="255.862" cy="154" fill="#fff1d4" rx="15.666" ry="37"/></g></g><g><g><path d="m502.659 263.022c-43.169 18.698-88.877 32.643-136.466 41.166-16.757 3.001-33.75 5.322-50.944 6.951-.931-19.997-24.594-37.41-41.745-47.458-10.854-6.359-24.283-6.36-35.137-.002-17.148 10.044-40.806 27.449-41.744 47.438l-29.793 29.792v52.454l138.543 50.667c80.652-14.445 149.256-63.622 189.795-131.5 9.125-15.279 11.417-33.05 7.491-49.508z" fill="#ffb39d"/></g><g><g><g><path d="m16.978 312.871c48.643 81.184 137.465 135.531 238.993 135.531 16.86 0 33.369-1.501 49.402-4.372-53.026-28.389-92.069-76.664-108.822-132.904-65.963-6.255-128.917-22.817-187.239-48.067-3.916 16.556-1.544 34.441 7.666 49.812z" fill="#ff8f71"/></g></g></g></g><g><g><g><ellipse cx="182.743" cy="383.844" fill="#ffdbe0" rx="27.03" ry="21.525"/></g><g><ellipse cx="329.256" cy="383.844" fill="#ffdbe0" rx="27.03" ry="21.525"/></g></g></g><g><path d="m490.165 225.775c-49.579-49.815-113.582-82.656-183.401-93.428-5.896-27.54-24.414-52.847-50.902-52.847-26.839 0-45.116 25.799-50.906 52.868-70.546 10.936-134.251 44.263-183.146 93.376-14.357 14.422-21.81 33.586-21.81 52.842 0 13.438 3.646 26.626 10.545 38.14 26.035 43.454 62.434 78.424 105.06 102.444-18.497 39.624 10.568 85.33 54.383 85.33h172c13.872 0 27.403-4.847 38.1-13.646 3.199-2.632 3.659-7.358 1.027-10.557-2.633-3.199-7.36-3.657-10.557-1.027-8.02 6.598-18.165 10.23-28.57 10.23h-172c-32.437 0-54.385-33.553-41.104-63.301 34.786 17.253 73.223 27.459 113.254 29.374.122.006.244.009.364.009 3.978 0 7.293-3.126 7.485-7.142.198-4.138-2.996-7.652-7.133-7.85-90.322-4.318-172.534-53.283-219.442-131.573-6.326-10.558-9.231-22.885-8.212-35.317 57.457 23.833 118.037 38.913 180.216 44.853 4.355.688 8.487-2.562 8.699-7.083.593-12.623 14.103-27.297 38.043-41.318 8.346-4.891 18.944-5.04 27.555.003 23.945 14.027 37.456 28.707 38.044 41.335.198 4.273 3.938 7.528 8.199 7.118 62.409-5.916 123.195-21.03 180.833-44.95 1.037 12.399-1.836 24.607-8.062 35.027-46.145 77.265-127.186 126.487-216.691 131.747-4.135.243-7.29 3.792-7.047 7.927s3.791 7.283 7.927 7.048c38.892-2.286 76.252-12.436 110.15-29.262 4.632 10.339 5.082 21.86 1.766 32.161-1.27 3.943.897 8.168 4.84 9.438 3.954 1.272 8.171-.906 9.438-4.84 4.477-13.901 3.864-29.625-2.767-43.787 42.766-24.11 79.267-59.212 105.263-102.74 6.8-11.384 10.394-24.433 10.394-37.738 0-19.339-7.544-38.504-21.835-52.864zm-256.803 32.152c-17.534 10.436-37.714 26.101-42.965 45.043-59.359-6.299-117.158-21.178-172.015-44.226 2.948-8.407 7.738-16.067 14.059-22.417 45.426-45.629 104.491-77.245 170.442-88.42-1.565 27.351 7.982 59.15 30.48 73.739v36.281zm30-5.824c-4.994-.89-9.794-.921-15 .024v-24.342c4.919.947 10.08.947 15 0zm-7.5-38.603c-20.688 0-38.166-27.248-38.166-59.5s17.478-59.5 38.166-59.5 38.166 27.248 38.166 59.5-17.478 59.5-38.166 59.5zm65.613 89.476c-5.268-18.996-25.545-34.697-43.113-45.135v-36.195c22.503-14.593 32.055-46.293 30.479-73.76 64.21 10.892 124.511 42.069 170.692 88.471 6.304 6.334 11.09 13.975 14.047 22.355-54.876 23.066-112.702 37.956-172.105 44.264z"/><path d="m140.032 49.567 32.932 23.927c3.352 2.436 8.043 1.69 10.476-1.659 2.435-3.351 1.692-8.042-1.659-10.476l-32.932-23.927c-3.348-2.433-8.041-1.693-10.476 1.659-2.435 3.351-1.693 8.042 1.659 10.476z"/><path d="m339.371 73.494 32.933-23.926c3.352-2.435 4.094-7.125 1.659-10.476-2.433-3.351-7.123-4.093-10.476-1.66l-32.933 23.926c-3.352 2.435-4.094 7.125-1.659 10.476 2.434 3.352 7.125 4.094 10.476 1.66z"/><path d="m73.378 146.705h50.697c4.143 0 7.5-3.357 7.5-7.5s-3.357-7.5-7.5-7.5h-50.697c-4.143 0-7.5 3.357-7.5 7.5s3.358 7.5 7.5 7.5z"/><path d="m388.258 146.705h50.697c4.143 0 7.5-3.357 7.5-7.5s-3.357-7.5-7.5-7.5h-50.697c-4.143 0-7.5 3.357-7.5 7.5s3.358 7.5 7.5 7.5z"/><path d="m362.303 228.844-32.933-23.927c-3.348-2.434-8.041-1.692-10.476 1.659s-1.692 8.041 1.659 10.476l32.933 23.927c3.351 2.436 8.042 1.692 10.476-1.659 2.435-3.351 1.693-8.042-1.659-10.476z"/><path d="m182.963 204.917-32.932 23.927c-3.352 2.435-4.094 7.125-1.659 10.476 1.468 2.021 3.754 3.093 6.073 3.093 1.528 0 3.071-.466 4.402-1.434l32.932-23.927c3.352-2.435 4.094-7.125 1.659-10.476-2.434-3.352-7.123-4.095-10.475-1.659z"/><path d="m256 51c4.143 0 7.5-3.358 7.5-7.5v-28.5c0-4.142-3.357-7.5-7.5-7.5s-7.5 3.358-7.5 7.5v28.5c0 4.142 3.357 7.5 7.5 7.5z"/><path d="m206.79 350.812c-4.394 5.042-12.197 5.037-16.587 0-2.721-3.122-7.459-3.446-10.581-.726-3.123 2.722-3.447 7.459-.726 10.582 10.371 11.9 28.84 11.888 39.2 0 2.722-3.122 2.397-7.86-.726-10.582-3.122-2.721-7.86-2.396-10.58.726z"/><path d="m333.103 360.668c2.722-3.122 2.397-7.86-.726-10.582s-7.86-2.397-10.581.726c-4.393 5.04-12.196 5.038-16.587 0-2.721-3.122-7.459-3.446-10.581-.726-3.123 2.722-3.447 7.459-.726 10.582 10.372 11.901 28.84 11.889 39.201 0z"/><path d="m278.871 368.832c2.722-3.123 2.396-7.86-.727-10.582-3.124-2.722-7.862-2.396-10.582.727-6.165 7.074-17.121 7.067-23.279 0-2.723-3.122-7.46-3.448-10.582-.727-3.122 2.722-3.448 7.459-.727 10.582 12.143 13.934 33.766 13.92 45.897 0z"/></g></g></svg>