<svg id="Capa_1" enable-background="new 0 0 512 512" height="512" viewBox="0 0 512 512" width="512" xmlns="http://www.w3.org/2000/svg"><g><path d="m227.885 111.318h30v78.77h-30z" fill="#efedff"/><g><path d="m197.219 73.318c0 33.137 20.445 54 45.666 54s45.666-20.863 45.666-54-20.17-65.818-45.391-65.818-45.941 32.681-45.941 65.818z" fill="#ffce71"/><path d="m251.291 46.233c-.039-.064-.077-.128-.115-.191-3.757-6.199-12.824-6.199-16.581 0-.038.063-.076.126-.115.19-4.614 7.708-7.261 17.581-7.261 27.087 0 11.071 4.103 24 15.666 24s15.666-12.929 15.666-24c.001-9.506-2.646-19.378-7.26-27.086z" fill="#fce3a0"/></g><g><path d="m398.905 296.033c-1.41-29.41-19.486-55.434-46.554-67.021-45.086-19.301-47.139-23.762-83.361-59.356h-30l-65.606 103.742 40.427 115.896h30 .001c38.582.516 74.978-6.047 105.911-17.803 31.001-11.78 50.77-42.333 49.182-75.458z" fill="#ffce71"/><path d="m203.384 273.398c4.904-42.776 29.061-80.976 65.606-103.742-14.074-13.829-38.143-13.85-52.239-.005-35.651 35.012-38.398 40.12-81.879 58.72-27.136 11.608-45.131 37.839-46.191 67.334-1.184 32.923 18.879 62.988 49.832 74.267 35.298 12.862 71.154 18.864 105.298 19.321-30.444-30.445-45.33-73.12-40.427-115.895z" fill="#ffb357"/></g><g><g><g><ellipse cx="163.603" cy="273.563" fill="#ff8e9e" rx="29.355" ry="23.377"/></g><g><ellipse cx="322.717" cy="273.563" fill="#ff8e9e" rx="29.355" ry="23.377"/></g></g></g><g><path d="m418.644 316.879c-16.261-13.991-41.342-13.213-56.831 4.709-22.858 26.456-56.268 41.427-91.231 41.427l-146.726.001v117.261l27.665 24.223h80.286v-13.903c73.439-17.368 140.89-58.949 191.078-117.292 14.41-16.753 12.511-42.015-4.241-56.426z" fill="#db9e82"/><path d="m242.499 296.048c-3.037-3.001-6.438-5.41-10.055-7.241-15.015-7.603-33.818-5.141-46.366 7.405-87.228 87.229-66.682 66.666-86.713 86.751-12.639 12.673-19.922 29.796-19.923 47.973v58.224 15.34h72.078v-15.34c0-29.989 11.923-57.143 31.675-76.895l49.249-49.249 9.666-9.666c15.651-15.652 16.132-41.742.389-57.302z" fill="#c8866a"/></g><g><path d="m423.535 311.193c-5.017-4.317-10.839-7.512-17.101-9.428.86-35.345-19.999-66.32-51.131-79.648-39.822-17.048-44.142-21.32-72.244-49.116-9.334-9.23-11.684-11.968-17.674-15.376v-28c18.602-9.259 30.666-30.141 30.666-56.307 0-17.613-5.283-35.652-14.494-49.491-10.227-15.365-23.864-23.827-38.397-23.827-31.494 0-53.441 38.64-53.441 73.318 0 26.166 12.064 47.048 30.666 56.307v28.027c-6.06 3.416-8.325 6.071-17.726 15.364-27.495 27.184-32.45 32.082-70.735 48.46-13.51 5.778-24.773 14.464-33.481 25.818-2.329 3.037-2.168 7.436.581 10.098 3.293 3.189 8.512 2.715 11.206-.818 7.137-9.359 16.421-16.528 27.593-21.307 40.906-17.498 47.525-24.042 75.383-51.584 8.754-8.656 12.791-14.005 23.127-16.2v31.87c0 4.107 3.165 7.688 7.27 7.811 4.247.127 7.73-3.278 7.73-7.497v-31.745c8.83 2.444 12.245 6.908 21.178 15.744 28.514 28.203 34.448 34.071 76.89 52.24 25.459 10.9 42.087 35.853 42.087 63.811-13.604.306-26.123 6.293-35.349 16.968-21.321 24.678-52.506 38.831-85.557 38.831h-20.303c15.586-18.698 15.328-47.173-2.507-64.802-18.33-18.116-48.279-18.52-66.998.193l-60.177 60.177c-21.424-17.855-28.655-45.421-22.111-70.353 1.052-4.006-1.343-8.106-5.35-9.158-3.998-1.054-8.106 1.343-9.158 5.35-7.886 30.025.728 63.095 25.98 84.802-4.91 4.912-4.521 4.528-15.904 15.942-14.26 14.298-22.112 33.216-22.112 53.269v73.564c0 4.142 3.358 7.5 7.5 7.5h152.364c4.142 0 7.5-3.358 7.5-7.5v-8.021c5.542-1.411 11.083-2.965 16.539-4.64 3.637-1.116 6.055-4.751 5.396-8.498-.798-4.537-5.339-7.217-9.599-5.902-6.163 1.896-12.439 3.619-18.699 5.158l-7.265-4.187c-3.558-2.051-8.241-1.097-10.397 2.398-2.231 3.616-1.021 8.335 2.635 10.441l5.734 3.305c.406.234.656.667.656 1.136 0 .724-.587 1.311-1.311 1.311h-136.054v-66.064c0-16.054 6.298-31.21 17.733-42.677 17.916-17.967 1.745-1.785 86.705-86.744 12.792-12.79 33.292-12.54 45.847-.133 12.866 12.718 12.203 34.04-.42 46.665l-38.738 38.738c-2.696 2.696-3.161 7.036-.825 10.05 2.827 3.645 8.097 3.891 11.254.734l27.052-27.053h35.031c37.413 0 72.734-16.046 96.906-44.023 12.863-14.886 33.256-15.12 46.265-3.928 13.616 11.715 15.145 32.248 3.447 45.85-37.541 43.64-85.226 77.944-137.899 99.204-3.841 1.551-5.697 5.921-4.147 9.763 1.551 3.84 5.916 5.697 9.763 4.147 54.884-22.153 104.56-57.885 143.656-103.333 17.082-19.861 14.877-49.872-5.036-67.004zm-173.15-158.801c-2.138-.343-4.321-.538-6.536-.582-.006 0-.011-.001-.017-.001-.002 0-.004 0-.006 0-.314-.006-.626-.022-.942-.022-2.529 0-5.036.22-7.499.624v-18.137c2.438.349 4.937.544 7.5.544s5.062-.195 7.5-.544zm-7.5-32.574c-22.472 0-38.166-19.121-38.166-46.5 0-29.976 18.681-58.318 38.441-58.318 19.831 0 37.891 27.797 37.891 58.318 0 27.379-15.695 46.5-38.166 46.5z"/><path d="m188.211 251.06v-12c0-4.143-3.357-7.5-7.5-7.5s-7.5 3.357-7.5 7.5v12c0 4.143 3.357 7.5 7.5 7.5s7.5-3.358 7.5-7.5z"/><path d="m313.108 251.06v-12c0-4.143-3.357-7.5-7.5-7.5s-7.5 3.357-7.5 7.5v12c0 4.143 3.357 7.5 7.5 7.5s7.5-3.358 7.5-7.5z"/><path d="m265.278 255.63c2.722-3.122 2.396-7.86-.728-10.581-3.122-2.722-7.861-2.396-10.581.728-5.724 6.568-15.9 6.562-21.619 0-2.721-3.124-7.459-3.448-10.581-.728-3.123 2.721-3.449 7.459-.728 10.581 11.701 13.429 32.546 13.418 44.237 0z"/><path d="m156.144 13.568 15.574 11.315c3.351 2.436 8.042 1.692 10.476-1.659 2.435-3.351 1.692-8.041-1.659-10.476l-15.574-11.315c-3.349-2.435-8.04-1.692-10.476 1.659-2.434 3.351-1.692 8.042 1.659 10.476z"/><path d="m314.052 24.884 15.574-11.315c3.352-2.435 4.094-7.125 1.659-10.476-2.435-3.352-7.124-4.095-10.476-1.659l-15.574 11.315c-3.352 2.435-4.094 7.125-1.659 10.476 2.438 3.355 7.129 4.092 10.476 1.659z"/><path d="m171.719 109.571-15.574 11.316c-3.352 2.435-4.094 7.125-1.659 10.476s7.122 4.095 10.476 1.659l15.574-11.316c3.352-2.435 4.094-7.125 1.659-10.476s-7.125-4.092-10.476-1.659z"/><path d="m305.235 121.707 15.574 11.315c3.351 2.436 8.042 1.692 10.476-1.659 2.435-3.351 1.692-8.041-1.659-10.476l-15.574-11.315c-3.349-2.435-8.04-1.692-10.476 1.659-2.434 3.351-1.692 8.042 1.659 10.476z"/><path d="m132.886 74.637h27.5c4.143 0 7.5-3.357 7.5-7.5s-3.357-7.5-7.5-7.5h-27.5c-4.143 0-7.5 3.357-7.5 7.5s3.357 7.5 7.5 7.5z"/><path d="m317.886 67.137c0 4.143 3.357 7.5 7.5 7.5h27.5c4.143 0 7.5-3.357 7.5-7.5s-3.357-7.5-7.5-7.5h-27.5c-4.143 0-7.5 3.357-7.5 7.5z"/></g></g></svg>