<svg id="Capa_1" enable-background="new 0 0 512 512" height="512" viewBox="0 0 512 512" width="512" xmlns="http://www.w3.org/2000/svg"><g><g><g><path d="m163.968 157.183h-31.427v31.427l135.89 135.89h20 .426v-42.427c.001 0-79.947-79.948-124.889-124.89z" fill="#e8b5b1"/><path d="m288.432 324.5-145.89-145.89h-21v21l124.89 124.89z" fill="#d6948c"/></g><g><path d="m134.355 127.571c-.07-.07-.143-.134-.213-.203-.07.069-.144.133-.213.203h-14.262v48.165l12.875 12.875 31.427-31.427c-16.336-16.336-28.049-28.049-29.614-29.613z" fill="#efedff"/><path d="m133.929 169.997c-11.716-11.716-11.716-30.71 0-42.427.07-.07.143-.134.213-.203-11.732-11.507-30.567-11.443-42.213.203-11.716 11.716-11.716 30.711 0 42.427l29.613 29.613 21-21z" fill="#d4d4ff"/></g></g><g><g><path d="m369.248 220.821v-31.427h-31.427l-135.105 135.106h62.853c26.853-26.854 73.274-73.274 103.679-103.679z" fill="#e8b5b1"/><path d="m347.821 199.394v-21h-21l-124.89 124.89v21.216h20.785z" fill="#d6948c"/></g><g><path d="m398.861 191.208c.07-.07.134-.143.203-.213-.069-.07-.133-.144-.203-.213v-14.262h-48.165l-12.875 12.875 31.427 31.427c16.335-16.336 28.048-28.049 29.613-29.614z" fill="#efedff"/><path d="m356.434 190.782c11.716-11.716 30.71-11.716 42.427 0 .07.07.134.143.203.213 11.507-11.732 11.443-30.567-.203-42.213-11.716-11.716-30.711-11.716-42.427 0l-29.613 29.613 21 21z" fill="#d4d4ff"/></g></g><path d="m334.958 20.039c-3.1-2.417-6.763-4.609-10.17-6.451-45.957-22.025-93.603 19.391-94.129 65.339-.351 30.654 18.914 46.914 26.405 55.698 17.794 20.813 21.614 56.333 1.845 82.689-5.403 7.663-23.819 27.768-26.513 61.687h29.746c6.319-20.661 20.568-31.159 24.906-35.138 34.593-31.802 42.381-81.628 22.46-121.478-10.325-20.648-20.485-26.825-25.454-34.273-11.61-16.591-.364-45.931 28.081-50.519 6.521-.696 11.236-.02 14.927.683 5.068.963 10.691.381 13.242-4.265 2.597-4.732.165-9.675-5.346-13.972z" fill="#efedff"/><g><path d="m121.569 498.423 115.681-118.627h-150v104.664c0 17.939 21.794 26.807 34.319 13.963z" fill="#ffb357"/><path d="m277.25 379.796 115.681 118.627c12.525 12.844 34.319 3.976 34.319-13.963v-104.664z" fill="#ffce71"/></g><g><path d="m436.623 320.538h-.324-.013-226.393l-19.609 14.397v161.411h132.962c74.562-18.763 127.754-67.831 127.754-125.408 0-17.833-5.116-34.847-14.377-50.4z" fill="#ffce71"/><path d="m195.494 370.939c0-12.476 2.515-24.551 7.197-36.005 2.011-4.919 5.421-9.723 8.203-14.396h-1-134.192-.001.013-.338c-9.26 15.554-14.376 32.567-14.376 50.401 0 5.79.538 11.495 1.582 17.091 12.25 65.692 94.176 116.47 193.418 116.47 23.633 0 46.284-2.879 67.247-8.154-74.561-18.763-127.753-67.831-127.753-125.407z" fill="#ffb357"/></g><g><path d="m439.5 264.5-231.377-.001-30.373 9.682v40.561l30.7 9.759h231.05c16.569 0 30-13.432 30-30 0-16.57-13.431-30.001-30-30.001z" fill="#fce3a0"/><path d="m208.123 264.499-135.601.001c-16.569 0-30.022 13.431-30.022 30 0 16.568 13.431 30 30 30h135.95c-16.569-16.568-16.896-43.433-.327-60.001z" fill="#ffce71"/></g><g fill="#ff8e9e"><ellipse cx="178.744" cy="399.298" rx="27.03" ry="21.526"/><ellipse cx="334.256" cy="399.298" rx="27.03" ry="21.526"/></g><g><circle cx="83.255" cy="209.304" r="7.5"/><circle cx="403.255" cy="229.304" r="7.5"/><circle cx="113.255" cy="239.304" r="7.5"/><path d="m196.79 366.268c-4.393 5.041-12.195 5.037-16.585 0-2.722-3.124-7.459-3.448-10.582-.726-3.123 2.721-3.448 7.459-.726 10.581 10.371 11.9 28.839 11.89 39.201 0 2.722-3.122 2.396-7.86-.726-10.581-3.122-2.723-7.861-2.397-10.582.726z"/><path d="m343.104 376.124c2.722-3.123 2.397-7.86-.725-10.582-3.124-2.724-7.861-2.396-10.582.725-4.396 5.041-12.195 5.039-16.586.001-2.722-3.124-7.459-3.448-10.582-.726-3.123 2.721-3.448 7.459-.726 10.581 10.37 11.899 28.837 11.889 39.201.001z"/><path d="m225.996 394.949c-3.123 2.721-3.448 7.459-.727 10.582 16.222 18.615 45.103 18.597 61.309 0 2.721-3.123 2.396-7.861-.727-10.582-3.123-2.722-7.86-2.396-10.582.727-10.243 11.755-28.458 11.745-38.691 0-2.723-3.121-7.46-3.448-10.582-.727z"/><circle cx="242.642" cy="379.413" r="7.5"/><circle cx="269.358" cy="379.413" r="7.5"/><path d="m477 294.5c0-20.678-16.822-37.5-37.5-37.5h-95.825l60.49-60.488c.103-.103.201-.207.253-.265 14.337-14.617 14.224-38.289-.254-52.77-14.621-14.618-38.411-14.621-53.034.001l-23.362 23.362c-.61-49.472-31.87-75.083-37.57-83.029-9.353-13.369 2.359-38.927 27.701-38.927 6.271 0 8.197 1.284 13.127 1.284 12.18 0 17.821-8.689 17.821-16.06 0-10.861-10.935-17.949-20.49-23.118-6.695-3.65-18.316-6.99-29.669-6.99-26.255 0-51.293 15.771-65.343 41.157-2.006 3.624-.694 8.188 2.93 10.193 3.625 2.007 8.188.692 10.193-2.93 11.237-20.302 31.734-33.42 52.22-33.42 20.665 0 36.205 13.279 35.04 15.401-1.09 1.986-7.137-.517-15.829-.517-37.368 0-56.283 39.109-40.038 62.458 5.936 8.85 34.927 31.07 34.927 75.837 0 28.39-12.821 54.57-32.374 71.53-3.643 3.156-10.05 8.711-15.909 17.29h-19.947c6.21-18.128 16.483-29.724 20.416-35.272 21.606-28.891 18.066-68.264-2.202-91.97-7.748-9.08-27.287-25.296-24.338-55.841.396-4.123-2.625-7.787-6.748-8.184-4.123-.402-7.787 2.625-8.184 6.748-3.601 37.55 20.448 58.328 27.862 67.017 8.444 9.877 13.288 23.623 13.288 37.713 0 24.927-12.724 35.837-21.298 48.752-.459-.459-103.329-103.324-103.784-103.78-.018-.018-.057-.056-.074-.074-.015-.014-.029-.028-.043-.042-.001-.001-.002-.001-.003-.002v-.001c-14.681-14.346-38.361-14.259-52.824.204-14.62 14.621-14.62 38.412 0 53.033l81.698 81.7h-95.803c-20.689 0-37.521 16.822-37.521 37.5 0 17.185 11.191 31.321 26.954 35.917-14.856 34.687-10.881 75.158 17.796 110.277v43.766c0 16.387 13.455 27.54 27.692 27.54 7.191 0 14.145-2.854 19.495-8.341l15.438-15.831c33.254 15.71 72.524 24.172 113.625 24.172 20.213 0 40.188-2.069 59.369-6.151 4.052-.862 6.638-4.846 5.775-8.896-.862-4.053-4.846-6.63-8.897-5.775-18.157 3.863-37.081 5.822-56.247 5.822-126.689 0-217.924-83.56-178.286-165h108.286c4.143 0 7.5-3.357 7.5-7.5s-3.357-7.5-7.5-7.5h-112.861c-14.484 0-23.139-11.44-23.139-22.5 0-12.406 10.104-22.5 22.521-22.5h366.979c12.406 0 22.5 10.094 22.5 22.5s-10.094 22.5-22.5 22.5h-.639-111.216c-4.143 0-7.5 3.357-7.5 7.5s3.357 7.5 7.5 7.5h106.642c28.133 57.802-9.21 122.57-93.983 151.468-3.921 1.336-6.016 5.598-4.679 9.519 1.336 3.922 5.6 6.015 9.519 4.679 9.127-3.111 17.853-6.698 26.148-10.691l16.271 16.686c5.353 5.488 12.305 8.341 19.496 8.341 3.515 0 7.087-.656 10.557-2.067 10.569-4.301 17.136-14.062 17.136-25.473v-47.007c25.919-33.832 29.991-72.674 15.32-106.98 15.544-4.578 26.928-18.968 26.928-35.975zm-382.25 161.964c5.817 5.303 12.203 10.358 19.158 15.12 4.665 3.193 9.517 6.208 14.537 9.045l-12.247 12.558c-3.676 3.77-8.781 4.836-13.659 2.852-4.877-1.984-7.789-6.312-7.789-11.578zm134.08-199.464h-39.291l-92.307-92.307c-8.772-8.772-8.772-23.047 0-31.819 8.678-8.682 22.911-8.711 31.747-.068.77.77 10.225 10.225 24.378 24.377l-15.907 15.907c-2.921 2.93-2.921 7.68 0 10.61 2.867 2.889 7.63 2.98 10.609 0l15.908-15.908c20.506 20.505 47.112 47.11 71.639 71.637-2.527 5.163-4.883 11.018-6.776 17.571zm93.633-.001h-38.632c5.922-6.101 33.177-25.312 41.694-66.703l1.295-1.295 15.909 15.909c2.939 2.939 7.678 2.932 10.61 0 2.92-2.92 2.92-7.681 0-10.61l-15.913-15.906 24.309-24.309c8.775-8.772 23.05-8.773 31.821-.001 8.686 8.688 8.754 22.89.166 31.646-.074.074-.146.15-.227.236-3.44 3.442-69.005 69.006-71.032 71.033zm97.287 227.461c0 5.266-2.912 9.594-7.789 11.578-4.879 1.985-9.983.918-13.66-2.852l-13.158-13.492c12.998-7.478 24.623-16.082 34.607-25.613z"/></g></g></svg>