<svg id="Capa_1" enable-background="new 0 0 512 512" height="512" viewBox="0 0 512 512" width="512" xmlns="http://www.w3.org/2000/svg"><g><g><g><path d="m431.615 261.735c-15.578-65.869-48.458-127.46-94.4-178.353-18.835-20.866-51.761-20.352-70.093.958-13.799 16.041-14.778 39.265-2.837 56.733 15.343 22.445 23.7 49.294 23.7 77.01l.001 165.182h152.011l28.06-31.144v-90.386z" fill="#fed2a4"/><path d="m439.966 352.09c-49.705-1.081-93.876-41.144-93.876-99.1v-43.865c0-25.036-20.484-46.121-45.518-45.858-24.502.257-44.569 20.199-44.571 45.043l-20.001 47.184 20 56.527c0 66.963 54.283 121.244 121.247 121.244h90.811v-81.145z" fill="#ffbd86"/></g><g><path d="m244.877 84.34c-18.332-21.31-51.257-21.823-70.093-.958-45.941 50.893-78.822 112.484-94.4 178.353h-36.441v171.53h90.811c30.671 0 58.677-11.393 80.03-30.17l9.231-19.831.001-165.182c0-27.716 8.357-54.565 23.7-77.01 11.94-17.467 10.961-40.692-2.839-56.732z" fill="#ffbd86"/><path d="m256 208.31c-.002-24.844-20.069-44.786-44.571-45.043-25.034-.263-45.518 20.822-45.518 45.858v43.865 32.117c0 44.254 17.58 86.696 48.873 117.989 25.267-22.22 41.216-54.782 41.216-91.075z" fill="#fed2a4"/></g></g><g><g><path d="m59.127 228.608h-15.792l-21.258 33.127 21.258 33.127h15.792c12.543-5.759 21.258-18.421 21.258-33.127s-8.715-27.368-21.258-33.127z" fill="#ff8e9e"/><path d="m37.869 261.735c0-14.706 8.715-27.368 21.258-33.127-4.624-2.123-9.764-3.315-15.184-3.315-20.127 0-36.443 16.315-36.443 36.443 0 20.126 16.316 36.443 36.443 36.443 5.421 0 10.561-1.193 15.184-3.316-12.543-5.76-21.258-18.422-21.258-33.128z" fill="#ea5b70"/></g><g><path d="m59.127 301.493h-15.792l-21.258 33.127 21.258 33.127h15.792c12.543-5.759 21.258-18.421 21.258-33.127s-8.715-27.368-21.258-33.127z" fill="#ff8e9e"/><path d="m37.869 334.62c0-14.706 8.715-27.368 21.258-33.127-4.624-2.123-9.764-3.315-15.184-3.315-20.127 0-36.443 16.315-36.443 36.443 0 20.126 16.316 36.443 36.443 36.443 5.421 0 10.561-1.193 15.184-3.316-12.543-5.76-21.258-18.422-21.258-33.128z" fill="#ea5b70"/></g><g><path d="m59.127 374.378h-15.792l-21.258 33.127 21.258 33.127h15.792c12.543-5.759 21.258-18.421 21.258-33.127s-8.715-27.368-21.258-33.127z" fill="#ff8e9e"/><path d="m37.869 407.505c0-14.706 8.715-27.368 21.258-33.127-4.624-2.123-9.764-3.315-15.184-3.315-20.127 0-36.443 16.315-36.443 36.443 0 20.126 16.316 36.443 36.443 36.443 5.421 0 10.561-1.193 15.184-3.316-12.543-5.76-21.258-18.422-21.258-33.128z" fill="#ea5b70"/></g></g><g><g><path d="m483.242 228.608h-15.792l-21.258 33.127 21.258 33.127h15.792c12.543-5.759 21.258-18.421 21.258-33.127s-8.715-27.368-21.258-33.127z" fill="#ff8e9e"/><path d="m461.984 261.735c0-14.706 8.715-27.368 21.258-33.127-4.624-2.123-9.764-3.315-15.184-3.315-20.127 0-36.443 16.315-36.443 36.443 0 20.126 16.316 36.443 36.443 36.443 5.421 0 10.561-1.193 15.184-3.316-12.543-5.76-21.258-18.422-21.258-33.128z" fill="#ea5b70"/></g><g><path d="m483.242 301.493h-15.792l-21.258 33.127 21.258 33.127h15.792c12.543-5.759 21.258-18.421 21.258-33.127s-8.715-27.368-21.258-33.127z" fill="#ff8e9e"/><path d="m461.984 334.62c0-14.706 8.715-27.368 21.258-33.127-4.624-2.123-9.764-3.315-15.184-3.315-20.127 0-36.443 16.315-36.443 36.443 0 20.126 16.316 36.443 36.443 36.443 5.421 0 10.561-1.193 15.184-3.316-12.543-5.76-21.258-18.422-21.258-33.128z" fill="#ea5b70"/></g><g><path d="m483.242 374.378h-15.792l-21.258 33.127 21.258 33.127h15.792c12.543-5.759 21.258-18.421 21.258-33.127s-8.715-27.368-21.258-33.127z" fill="#ff8e9e"/><path d="m461.984 407.505c0-14.706 8.715-27.368 21.258-33.127-4.624-2.123-9.764-3.315-15.184-3.315-20.127 0-36.443 16.315-36.443 36.443 0 20.126 16.316 36.443 36.443 36.443 5.421 0 10.561-1.193 15.184-3.316-12.543-5.76-21.258-18.422-21.258-33.128z" fill="#ea5b70"/></g></g><path d="m512 334.62c0-15.153-7.711-28.54-19.414-36.442 11.703-7.903 19.414-21.289 19.414-36.443 0-24.229-19.713-43.942-43.942-43.942-14.644 0-27.628 7.207-35.618 18.254-17.521-57.68-48.218-111.783-89.657-157.689-24.374-27.002-68.23-22.64-86.782 8.668-18.585-31.353-62.452-35.618-86.782-8.668-24.671 27.329-45.63 57.661-62.296 90.153-1.891 3.686-.436 8.206 3.25 10.096 3.688 1.893 8.207.433 10.097-3.25 16.071-31.332 36.286-60.586 60.084-86.948 16.085-17.819 43.709-16.766 58.839.823 11.43 13.285 12.485 32.755 2.332 47.608-4.767 6.973-8.918 14.417-12.402 22.204-35.152-12.975-70.711 14.146-70.711 50.081v43.865c0 4.143 3.357 7.5 7.5 7.5s7.5-3.357 7.5-7.5v-43.865c0-20.578 16.837-38.608 37.94-38.357 20.455.212 37.148 16.946 37.149 37.543v103.711c0 62.544-50.725 113.744-113.746 113.744h-50.834c2.59-5.658 3.963-11.852 3.963-18.26 0-15.154-7.711-28.541-19.415-36.443 11.704-7.903 19.415-21.289 19.415-36.442s-7.711-28.54-19.414-36.442c11.439-7.725 19.05-20.691 19.388-35.423 4.905-20.561 11.612-40.988 19.952-60.726 1.612-3.815-.174-8.215-3.989-9.827-3.812-1.613-8.215.174-9.827 3.989-5.512 13.043-10.337 26.379-14.433 39.857-7.989-11.047-20.975-18.255-35.619-18.255-24.229-.001-43.942 19.712-43.942 43.941 0 15.153 7.711 28.54 19.414 36.442-11.703 7.904-19.414 21.29-19.414 36.443s7.711 28.54 19.415 36.442c-11.704 7.903-19.415 21.29-19.415 36.444 0 24.229 19.713 43.941 43.942 43.941 10.637 0 20.7-3.777 28.684-10.682h62.127c54.712 0 103.02-34.471 121.24-85.462 17.817 49.762 65.44 85.462 121.252 85.462h9.839c4.143 0 7.5-3.357 7.5-7.5s-3.357-7.5-7.5-7.5h-9.839c-62.72 0-113.746-51.025-113.746-113.744v-103.711c.001-20.411 16.502-37.327 37.166-37.544l.37-.002c20.356 0 37.554 17.566 37.554 38.36v43.865c0 4.143 3.357 7.5 7.5 7.5s7.5-3.357 7.5-7.5v-43.865c0-35.836-35.424-63.105-70.712-50.081-3.484-7.788-7.635-15.231-12.402-22.204-10.146-14.841-9.103-34.316 2.332-47.609 15.498-18.014 43.183-18.168 58.839-.822 45.278 50.157 77.247 110.427 92.493 174.336.335 14.736 7.947 27.707 19.389 35.433-11.703 7.903-19.414 21.289-19.414 36.442 0 14.584 7.21 28.233 19.409 36.446-11.7 7.903-19.409 21.288-19.409 36.44 0 6.408 1.372 12.602 3.958 18.26h-10.962c-4.143 0-7.5 3.357-7.5 7.5s3.357 7.5 7.5 7.5h22.246c7.976 6.904 18.045 10.682 28.701 10.682 24.229 0 43.942-19.712 43.942-43.941 0-15.154-7.711-28.541-19.415-36.443 11.705-7.903 19.416-21.29 19.416-36.443zm-497-72.885c0-15.959 12.983-28.942 28.942-28.942s28.942 12.983 28.942 28.942-12.983 28.942-28.942 28.942-28.942-12.983-28.942-28.942zm0 72.885c0-15.959 12.983-28.942 28.942-28.942s28.942 12.983 28.942 28.942-12.983 28.942-28.942 28.942-28.942-12.983-28.942-28.942zm28.942 101.827c-15.959 0-28.942-12.983-28.942-28.941 0-15.959 12.983-28.943 28.942-28.943s28.942 12.984 28.942 28.943c.001 16.013-13.016 28.941-28.942 28.941zm225.697-270.233c-5.536 4.137-10.149 9.289-13.639 15.108-3.491-5.819-8.103-10.97-13.639-15.107 5.813-13.311 11.268-20.171 13.64-24.222 2.383 4.07 7.829 10.919 13.638 24.221zm169.476 95.52c0-15.958 12.983-28.941 28.942-28.941s28.943 12.983 28.943 28.942-12.983 28.942-28.942 28.942-28.943-12.984-28.943-28.943zm57.885 145.772c0 15.958-12.983 28.941-28.942 28.941-15.972 0-28.942-12.938-28.942-28.941 0-15.959 12.983-28.943 28.942-28.943s28.942 12.984 28.942 28.943zm-28.942-43.944c-16.042 0-28.942-13.009-28.942-28.942 0-15.959 12.983-28.942 28.942-28.942s28.942 12.983 28.942 28.942-12.983 28.942-28.942 28.942z"/></g></svg>