<svg id="Capa_1" enable-background="new 0 0 512 512" height="512" viewBox="0 0 512 512" width="512" xmlns="http://www.w3.org/2000/svg"><g><g><g><path d="m384.745 124.047-59.447-23.958-52.553 24-93.204 46.781v97.003 92.843 143.784h164.215c21.044 0 41.342-8.191 56.217-23.078 18.654-18.669 38.476-39.586 49.771-61.86v-211.95c-14.398-31.123-36.829-59.77-64.999-83.565z" fill="#fce3a0"/><path d="m256 480.413c-29.262-29.546-49.448-65.337-60.254-103.492-11.235-39.666-12.329-81.887-2.944-122.308 4.736-20.398 12.138-40.337 22.257-59.258 14.591-27.281 34.235-51.455 57.686-71.265l-65.192-24-80.352 24c-28.092 23.73-48.466 52.368-62.882 83.522v211.895c11.38 22.333 29.401 43.336 48.27 62.123 14.841 14.775 35.062 22.871 56.003 22.871h116.03c-9.83-7.332-20.005-15.388-28.622-24.088z" fill="#ffce71"/></g><g><g><path d="m381.963 62.41c20.232-20.232 5.987-54.91-22.626-54.91h-77.188l-74.596 55.802 65.192 60.787 112-.042c-.049-.041.049.041 0 0-18.728-15.794-20.105-44.315-2.782-61.637z" fill="#ff8e9e"/></g><path d="m275.578 62.406c-20.232-20.232-5.983-54.906 22.629-54.906h-145.544c-28.613 0-42.862 34.674-22.63 54.906 17.379 17.378 15.942 45.825-2.833 61.684h145.544c18.776-15.86 20.213-44.306 2.834-61.684z" fill="#ea5b70"/></g><g><path d="m449.745 207.611c-5.132 1.643-11.095 4.487-15.161 8.553l-76.917 76.918-76.918-76.918c-13.678-13.679-35.819-13.679-49.498 0l-38.449 38.449-13.26 23.261v72.843l16.204 26.204 35.505 35.505c13.678 13.679 35.819 13.679 49.498 0l76.918-76.918 76.917 76.918c3.069 3.069 11.43 5.444 15.161 7.136 33.689-66.435 31.001-144.942 0-211.951z" fill="#ff8f71"/><path d="m192.802 254.613-38.469 38.469-76.917-76.918c-4.065-4.065-7.965-6.91-13.097-8.553-30.927 66.838-33.943 145.284 0 211.895 3.682-1.688 10.062-4.046 13.096-7.081l76.918-76.918 41.413 41.413c-11.235-39.666-12.329-81.887-2.944-122.307z" fill="#ff6f4d"/></g></g><g fill="#ff8e9e"><path d="m176.789 164.72c-16.212 0-29.355 10.466-29.355 23.376s13.143 23.377 29.355 23.377 29.355-10.466 29.355-23.377-13.143-23.376-29.355-23.376z"/><path d="m335.902 164.72c-16.212 0-29.354 10.466-29.354 23.376s13.143 23.377 29.354 23.377c16.212 0 29.355-10.466 29.355-23.377s-13.142-23.376-29.355-23.376z"/></g><path d="m498.85 201.896c-6.187-3.787-12.972-6.694-20.178-8.549-1.855-7.207-4.763-13.991-8.55-20.179-4.611-7.534-15.407-7.534-20.017 0-3.787 6.188-6.806 13.001-8.662 20.208-7.206 1.855-13.878 4.734-20.066 8.52-3.767 2.305-5.651 6.157-5.65 10.008 0 3.851 1.884 7.703 5.65 10.008 6.187 3.787 12.975 6.708 20.182 8.563 1.855 7.206 4.759 13.977 8.546 20.165 4.61 7.534 15.406 7.534 20.017 0 3.786-6.188 6.69-12.959 8.546-20.165 7.206-1.855 13.994-4.776 20.181-8.563 7.534-4.61 7.535-15.405.001-20.016z" fill="#fff1d4"/><path d="m73.045 297.978c-4.879-2.986-10.229-5.279-15.911-6.741-1.463-5.683-3.756-11.032-6.742-15.911-3.636-5.941-12.149-5.941-15.784 0-2.986 4.879-5.279 10.229-6.742 15.911-5.682 1.463-11.031 3.755-15.911 6.741-2.97 1.818-4.456 4.855-4.456 7.892s1.485 6.074 4.456 7.892c4.879 2.986 10.231 5.289 15.914 6.752 1.463 5.682 3.753 11.021 6.739 15.901 3.635 5.941 12.148 5.941 15.784 0 2.986-4.879 5.275-10.218 6.739-15.901 5.682-1.463 11.035-3.766 15.913-6.752 5.941-3.636 5.941-12.148.001-15.784z" fill="#fad5cb"/><g><path d="m502.765 195.499c-5.669-3.47-11.718-6.225-18.03-8.215-1.99-6.312-4.745-12.36-8.216-18.032-7.546-12.325-25.283-12.3-32.81.001-1.217 1.987-2.338 4.011-3.375 6.062-13.578-20.842-30.592-39.97-50.754-57.001-15.327-12.927-16.573-36.34-2.313-50.6 24.633-24.636 7.906-67.714-27.93-67.714h-206.674c-35.862 0-52.544 43.093-27.934 67.71 14.369 14.367 12.95 37.714-2.368 50.65-8.976 7.581-17.52 15.995-25.396 25.008-2.726 3.119-2.406 7.857.712 10.583 3.12 2.727 7.858 2.406 10.583-.712 6.774-7.752 14.076-15.02 21.724-21.649h142.763l109.211-.042c19.816 17.081 36.315 36.302 49.154 57.255-4.723 1.792-9.292 4.028-13.65 6.696-11.002 6.729-12.313 21.82-3.193 30.373l-56.603 56.604-71.614-71.615c-16.604-16.604-43.483-16.621-60.105 0l-38.449 38.449-33.165 33.166-71.613-71.616c-2.833-2.832-5.567-5.049-8.38-6.799 4.822-9.654 10.239-18.955 16.21-27.794 2.318-3.433 1.416-8.095-2.017-10.413-3.432-2.318-8.094-1.416-10.413 2.017-19.318 28.595-33.163 61.73-40.243 96.155-3.942 1.126-7.409 3.695-9.666 7.385-2.659 4.344-4.799 8.965-6.386 13.784-4.817 1.586-9.438 3.726-13.786 6.386-5.033 3.081-8.039 8.423-8.039 14.289 0 5.864 3.005 11.206 8.04 14.288 4.356 2.667 8.979 4.811 13.788 6.396 1.585 4.812 3.724 9.431 6.383 13.774 1.527 2.496 3.644 4.488 6.109 5.875 7.681 62.315 33.446 101.382 72.977 140.742 15.994 15.922 38.335 25.055 61.295 25.055h175.165c23.047 0 45.471-9.213 61.521-25.276 2.097-2.098 4.207-4.224 6.319-6.377 2.9-2.957 2.854-7.706-.103-10.606-2.957-2.898-7.704-2.854-10.606.103-2.079 2.12-4.156 4.213-6.221 6.278-13.258 13.268-31.813 20.878-50.91 20.878h-175.165c-19.023 0-37.507-7.54-50.711-20.686-19.383-19.298-33.553-36.808-43.103-53.286 2.899-1.429 5.781-3.138 7.941-5.299l71.614-71.615 71.614 71.615c16.621 16.619 43.481 16.622 60.105 0l71.614-71.615c79.506 79.508 72.016 73.536 81.364 77.318-4.65 7.763-10.638 15.93-18.15 24.764-2.683 3.155-2.3 7.889.855 10.572 3.161 2.687 7.894 2.295 10.572-.855 10.664-12.541 18.555-23.977 24.125-34.96 16.635-32.804 25.069-68.757 25.069-106.859 0-19.643-2.308-39.473-6.86-59.016.681-.79 1.322-1.617 1.876-2.522 3.469-5.67 6.223-11.714 8.211-18.017 6.299-1.99 12.349-4.749 18.034-8.229 5.783-3.54 9.235-9.673 9.235-16.406s-3.45-12.866-9.232-16.405zm-133.885-78.946-96.135.037h-129.66c10.879-18.876 8.458-43.28-7.748-59.486-15.464-15.467-4.744-42.104 17.326-42.104h206.674c22.048 0 32.807 26.624 17.322 42.106-16.327 16.329-18.477 40.816-7.779 59.447zm-327.875 215.946c-2.641-4.315-4.616-8.977-5.872-13.855-1.771-6.872-7.186-3.886-19.262-11.278-1.17-.716-1.166-2.277-.001-2.989 4.316-2.643 8.982-4.619 13.866-5.876 2.646-.682 4.711-2.747 5.393-5.393 1.26-4.888 3.236-9.553 5.877-13.867.728-1.19 2.317-1.094 2.989 0 2.642 4.316 4.618 8.981 5.876 13.866.681 2.646 2.747 4.712 5.393 5.394 4.886 1.257 9.551 3.234 13.867 5.876 1.165.713 1.167 2.273-.001 2.989-4.332 2.651-8.998 4.632-13.869 5.885-2.646.682-4.712 2.748-5.394 5.394-1.255 4.878-3.231 9.54-5.872 13.855-.714 1.163-2.275 1.158-2.99-.001zm405.02 77.566c-7.197-2.796 1.845 5.04-83.055-79.861-2.929-2.927-7.677-2.928-10.607 0l-76.918 76.919c-10.757 10.759-28.131 10.757-38.891 0l-76.918-76.919c-2.93-2.928-7.678-2.928-10.607 0l-76.918 76.919c-.791.791-2.453 1.713-4.224 2.571-9.239-19.743-15.399-40.84-18.361-62.893 2.943-1.367 5.495-3.583 7.263-6.472.001 0 .001 0 .001-.001 2.659-4.345 4.797-8.963 6.382-13.774 4.809-1.585 9.432-3.729 13.789-6.396 10.729-6.568 10.709-22.024-.001-28.576-4.346-2.66-8.968-4.801-13.785-6.387-1.586-4.816-3.726-9.438-6.385-13.783-1.119-1.829-2.54-3.369-4.172-4.613 3.47-16.792 8.652-33.247 15.36-48.954 1.319.974 2.667 2.155 4.134 3.622l76.917 76.918c2.929 2.927 7.677 2.928 10.607 0l38.469-38.469 38.449-38.45c10.757-10.759 28.132-10.758 38.891.001l76.918 76.918c2.931 2.929 7.678 2.928 10.607 0l64.763-64.764c2.542 1.099 5.129 2.084 7.761 2.916 1.989 6.304 4.743 12.349 8.213 18.018 3.601 5.884 9.951 9.452 17.068 9.191 3.802 17.367 5.727 34.941 5.727 52.347.001 33.371-6.887 64.947-20.477 93.972zm48.91-194.548c-5.666 3.467-11.768 6.057-18.137 7.697-2.646.681-4.712 2.747-5.393 5.393-1.643 6.379-4.227 12.476-7.679 18.118-1.612 2.631-5.485 2.844-7.224.002-3.454-5.645-6.039-11.74-7.682-18.12-.681-2.646-2.747-4.712-5.393-5.393-4.771-1.229-9.429-3.006-13.839-5.278-1.465-.757-2.91-1.57-4.298-2.42-2.755-1.685-2.753-5.538 0-7.223 5.644-3.454 11.707-6.029 18.02-7.653 2.65-.683 4.719-2.754 5.397-5.404.054-.208.113-.413.173-.619l.134-.472c1.63-5.868 4.149-11.608 7.487-17.062 1.682-2.748 5.534-2.758 7.222.001 3.454 5.644 6.039 11.745 7.685 18.135.681 2.646 2.747 4.712 5.394 5.394 6.389 1.644 12.489 4.229 18.132 7.682v.001c2.755 1.683 2.754 5.535.001 7.221z"/><path d="m193.897 173.093c4.143 0 7.5-3.357 7.5-7.5v-12c0-4.143-3.357-7.5-7.5-7.5s-7.5 3.357-7.5 7.5v12c0 4.142 3.358 7.5 7.5 7.5z"/><path d="m326.295 165.593v-12c0-4.143-3.357-7.5-7.5-7.5s-7.5 3.357-7.5 7.5v12c0 4.143 3.357 7.5 7.5 7.5s7.5-3.358 7.5-7.5z"/><path d="m278.465 170.163c2.721-3.122 2.396-7.86-.727-10.582-3.122-2.722-7.86-2.396-10.582.727-5.726 6.571-15.899 6.565-21.62.001-2.721-3.124-7.459-3.448-10.581-.728-3.123 2.721-3.449 7.459-.728 10.581 11.678 13.403 32.519 13.445 44.238.001z"/></g></g></svg>