<svg id="Capa_1" enable-background="new 0 0 512 512" height="512" viewBox="0 0 512 512" width="512" xmlns="http://www.w3.org/2000/svg"><g><g><path d="m308.584 48.181c-5.085-2.88-9.808-6.307-13.227-9.301h-42.57l-71.88 116.243 71.88 113.124h43.005c42.627-17.245 72.948-61.385 72.948-113.124 0-46.397-24.382-86.683-60.156-106.942z" fill="#e8b5b1"/><path d="m222.842 155.123c0-46.397 24.382-86.683 60.156-106.942 4.165-2.358 8.317-5.526 12.359-9.301-5.171-4.531-10.457-10.986-15.408-18.479-5.353-8.102-14.498-12.901-24.209-12.901-9.625 0-18.576 4.799-24.074 12.7-8.454 12.15-18.315 22.356-28.248 27.981-35.775 20.259-60.157 60.546-60.157 106.942 0 66.758 50.475 120.877 112.739 120.877 8.941 0 17.637-1.121 25.978-3.23 4.727-1.195 9.338-2.711 13.814-4.522-42.628-17.246-72.95-61.385-72.95-113.125z" fill="#d6948c"/></g><g><path d="m402.548 281.215c-10.948-21.511-28.002-41.312-49.42-57.759l-40.718-19.336-44.436 19.366-70.864 32.334v212.419h124.854c16 0 31.432-5.661 42.742-15.951 14.183-12.904 29.253-27.362 37.841-42.757 25.615-45.92 23.572-82.001.001-128.316z" fill="#fce3a0"/><path d="m267.974 223.485-59.675-19.351-50.984 19.351c-21.359 16.402-36.849 36.196-47.809 57.729-23.514 46.197-25.807 82.236 0 128.277 8.653 15.437 22.354 29.954 36.7 42.938 11.283 10.213 26.657 15.808 42.58 15.808h88.219c-7.187-4.872-15.364-10.776-21.762-16.648-92.034-84.48-47.413-181.918 12.731-228.104z" fill="#ffce71"/></g><g><path d="m233.36 194.192c10.931-14.752 2.653-37.247-15.18-42.921-7.872-2.544-13.269-9.981-12.4-18.31 1.992-18.266-17.411-34.345-35.931-30.344-8.904 2.037-17.248-2.259-23.216-8.858-11.792-13.038-26.964-10.155-36.775-.861s-12.856 23.665.909 34.834c6.967 5.653 11.502 13.557 9.351 21.991-4.225 17.542 12.75 35.921 32.035 34.034 8.794-.823 16.645 4.289 19.331 11.745 5.99 16.892 29.739 24.732 45.313 14.379 6.391-4.249 12.078-9.635 16.563-15.689z" fill="#18c08b"/><path d="m295.204 209.881c15.574 10.354 39.323 2.513 45.313-14.379 2.685-7.457 10.537-12.569 19.331-11.745 19.284 1.886 36.259-16.492 32.035-34.034-2.151-8.434 2.385-16.337 9.351-21.991 13.765-11.169 10.721-25.54.909-34.834s-24.983-12.177-36.775.861c-5.968 6.599-14.312 10.895-23.216 8.858-18.52-4.002-37.923 12.077-35.931 30.344.869 8.33-4.528 15.767-12.4 18.31-17.833 5.674-26.11 28.169-15.18 42.921 4.485 6.054 10.172 11.44 16.563 15.689z" fill="#70dcba"/><path d="m293.503 117.456c-8.336-4.468-16.208-12.989-15.455-21.547.496-5.636-1.788-10.285-5.055-13.979-9.35-10.574-24.635-10.574-33.985 0-3.266 3.694-5.551 8.343-5.055 13.979.753 8.558-7.119 17.079-15.455 21.547-17.152 9.458-18.982 33.526-2.938 44.967 7.287 5.243 9.138 14.008 5.226 20.993-8.931 15.762 2.736 36.951 22.724 40.023 7.263 1.116 11.274 4.506 12.491 8.831 1.217-4.325 5.228-7.715 12.491-8.831 19.987-3.072 31.654-24.261 22.724-40.023-3.911-6.985-2.06-15.751 5.226-20.993 16.043-11.441 14.212-35.509-2.939-44.967z" fill="#30cd9c"/></g><g><path d="m375 172.271h-116.233l-60.767 31.151 60.767 28.842c5.563 0 107.933.007 116.233.007 16.569 0 30-13.432 30-30 0-16.569-13.431-30-30-30z" fill="#ff8f71"/><path d="m258.768 172.271h-121.767c-16.569 0-30 13.431-30 30 0 16.568 13.431 30 30 30h121.767c-16.569-16.569-16.569-43.432 0-60z" fill="#ff6f4d"/></g><g><path d="m350.25 459.5h-84.147l-38.603 23.364 38.603 21.636h84.147c12.426 0 22.5-10.074 22.5-22.5 0-12.427-10.073-22.5-22.5-22.5z" fill="#ff8f71"/><path d="m266.103 459.5h-104.352c-12.426 0-22.5 10.073-22.5 22.5 0 12.426 10.074 22.5 22.5 22.5h104.353c-12.427-12.426-12.427-32.574-.001-45z" fill="#ff6f4d"/></g><g fill="#ff8e9e"><path d="m176.444 289.247c-16.212 0-29.355 10.466-29.355 23.376s13.143 23.377 29.355 23.377 29.355-10.466 29.355-23.377-13.143-23.376-29.355-23.376z"/><path d="m335.557 289.247c-16.212 0-29.354 10.466-29.354 23.376s13.142 23.377 29.354 23.377 29.355-10.466 29.355-23.377-13.143-23.376-29.355-23.376z"/></g><g><path d="m186.052 278.12v12c0 4.143 3.357 7.5 7.5 7.5s7.5-3.357 7.5-7.5v-12c0-4.143-3.357-7.5-7.5-7.5s-7.5 3.357-7.5 7.5z"/><path d="m310.95 278.12v12c0 4.143 3.357 7.5 7.5 7.5s7.5-3.357 7.5-7.5v-12c0-4.143-3.357-7.5-7.5-7.5s-7.5 3.357-7.5 7.5z"/><path d="m278.119 294.69c2.721-3.122 2.396-7.86-.727-10.582-3.122-2.722-7.86-2.396-10.582.727-5.727 6.57-15.899 6.565-21.62.001-2.721-3.124-7.459-3.448-10.581-.728-3.123 2.721-3.449 7.459-.728 10.581 11.679 13.403 32.519 13.445 44.238.001z"/><path d="m282.096 421.008c2.158 3.541 6.776 4.654 10.308 2.501 3.537-2.155 4.656-6.771 2.501-10.308-2.751-4.514-2.974-10.377-.745-19.604 1.891-7.82-3.449-15.331-12.89-15.331h-17.77v-15.363c8.406 1.722 18.538 2.378 27.742-3.232 3.537-2.155 4.656-6.771 2.501-10.308-2.156-3.538-6.772-4.659-10.308-2.501-4.514 2.753-10.375 2.975-19.604.745-7.824-1.889-15.331 3.45-15.331 12.889v17.771h-15.363c1.721-8.403 2.377-18.538-3.232-27.742-2.157-3.538-6.771-4.658-10.308-2.501-3.537 2.155-4.656 6.771-2.501 10.308 2.751 4.514 2.974 10.377.745 19.604-1.957 8.095 4.451 15.331 12.89 15.331h17.77v15.363c-8.404-1.72-18.537-2.377-27.742 3.232-3.537 2.155-4.656 6.771-2.501 10.308 2.158 3.541 6.776 4.654 10.308 2.501 4.515-2.752 10.38-2.974 19.606-.744 8.048 1.934 15.329-4.392 15.329-12.891v-17.77h15.363c-1.721 8.403-2.377 18.538 3.232 27.742z"/><path d="m381.702 239.16c17.489-3.17 30.798-18.499 30.798-36.888 0-12.693-6.404-24.282-16.604-31.132 3.895-7.271 5.134-15.467 3.279-23.173-.008-.032-.017-.065-.024-.098-1.677-6.571 4.203-12.198 6.809-14.313 16.392-13.3 15.401-32.786 1.342-46.103-13.677-12.953-33.508-14.191-47.496 1.276-.184.204-.373.4-.562.596-11.276-20.196-27.365-36.573-46.963-47.671-10.832-6.134-17.898-13.015-26.073-25.388-6.731-10.185-18.121-16.266-30.469-16.266-11.994 0-23.295 5.95-30.23 15.916-8.245 11.85-17.403 20.99-25.788 25.738-19.598 11.098-35.688 27.475-46.964 47.672-.189-.197-.378-.393-.562-.597-13.95-15.428-33.779-14.268-47.494-1.276-13.958 13.22-15.167 32.71 1.341 46.104 2.605 2.114 8.485 7.741 6.809 14.312-.008.032-.017.065-.024.098-1.855 7.706-.616 15.902 3.279 23.173-10.201 6.85-16.605 18.438-16.605 31.132 0 18.101 12.891 33.246 29.974 36.741-10.468 11.57-19.404 24.56-26.651 38.8-12.886 25.315-19.021 46.762-19.312 67.495-.308 22.065 5.874 43.626 19.453 67.852 9.21 16.433 25.765 34.146 39.473 45.91-6.529 5.507-10.687 13.741-10.687 22.931 0 16.542 13.458 30 30 30h188.5c16.542 0 30-13.458 30-30 0-9.486-4.43-17.952-11.325-23.453 9.599-8.432 22.024-20.492 30.317-30.894 2.582-3.239 2.05-7.958-1.188-10.54-3.239-2.583-7.959-2.052-10.54 1.188-7.642 9.586-26.185 28.284-34.955 33.796-.763-.059-1.531-.098-2.309-.098h-30.941c-4.143 0-7.5 3.357-7.5 7.5s3.357 7.5 7.5 7.5h30.941c8.271 0 15 6.729 15 15s-6.729 15-15 15h-188.5c-8.271 0-15-6.729-15-15s6.729-15 15-15h127.471c4.143 0 7.5-3.357 7.5-7.5s-3.357-7.5-7.5-7.5h-127.472c-1.154 0-2.291.072-3.411.199-9.069-5.661-31.801-27.658-42.292-46.374-23.516-41.954-23.478-74.806.142-121.208 8.667-17.027 19.947-32.098 33.543-44.846h29.724c4.143 0 7.5-3.357 7.5-7.5s-3.357-7.5-7.5-7.5h-42.456c-12.406 0-22.5-10.094-22.5-22.5 0-12.419 10.085-22.5 22.5-22.5h238c12.423 0 22.5 10.088 22.5 22.5 0 12.406-10.094 22.5-22.5 22.5h-165.495c-4.143 0-7.5 3.357-7.5 7.5s3.357 7.5 7.5 7.5h151.422c35.674 32.48 52.573 76.672 52.573 107.027.001 15.303-3.758 30.797-11.491 47.368-1.752 3.754-.129 8.217 3.624 9.968 3.752 1.753 8.216.13 9.968-3.624 8.682-18.602 12.9-36.171 12.899-53.712 0-31.521-16.002-74.975-46.798-107.638zm-174.59-184.453c13.203-7.477 23.987-20.562 30.71-30.225 8.99-12.918 27.668-12.359 35.869.054 9.501 14.378 18.247 22.837 31.196 30.171 16.57 9.383 30.74 23.695 40.628 40.846-.593-.052-1.187-.131-1.78-.267-16.543-3.579-33.511 5.387-41.098 19.378-1.717-1.431-3.584-2.712-5.591-3.818-6.846-3.669-11.909-9.941-11.528-14.279.618-7.017-1.771-13.796-6.907-19.604-12.348-13.967-32.876-13.963-45.222.001-5.136 5.81-7.524 12.589-6.906 19.604.382 4.338-4.682 10.609-11.605 14.321-1.976 1.089-3.82 2.354-5.518 3.769-7.557-13.926-24.462-22.96-41.182-19.352-.562.128-1.128.204-1.697.254 9.889-17.155 24.06-31.469 40.631-40.853zm-77.001 110.71c-2.776-4.391-3.79-9.363-2.711-13.898 2.658-10.521-1.68-21.311-11.907-29.61-9.267-7.519-7.993-16.447-.477-23.564 7.736-7.329 17.898-8.572 26.055.448 8.071 8.919 19.208 13.705 30.362 11.156 13.478-2.914 27.902 8.802 26.929 21.661-3.406 11.958-.084 24.571 8.433 33.162h-69.795c-2.321-.001-4.622.221-6.889.645zm97.337-.646c-1.78-3.263-4.346-6.16-7.533-8.454-11.757-8.384-9.891-25.622 2.126-32.251 10.42-5.584 20.454-16.659 19.383-28.814-.255-2.896.793-5.629 3.202-8.354 6.365-7.197 16.379-7.202 22.748 0 2.409 2.726 3.457 5.458 3.202 8.354-1.07 12.155 8.965 23.23 19.306 28.771 12.238 6.75 13.862 23.981 2.204 32.294-.008.006-.016.012-.023.018-3.173 2.282-5.732 5.176-7.511 8.437h-57.104zm77.753 0c8.523-8.601 11.841-21.208 8.438-33.162-.987-13.042 13.695-24.527 26.841-21.681 11.488 2.63 22.574-2.431 30.45-11.139 8.095-8.95 18.266-7.823 26.056-.446 7.647 7.243 8.689 16.127-.478 23.564-10.228 8.3-14.565 19.089-11.907 29.61 1.079 4.535.065 9.507-2.711 13.898-2.267-.424-4.569-.646-6.89-.646h-69.799z"/></g></g></svg>