<svg id="Capa_1" enable-background="new 0 0 512 512" height="512" viewBox="0 0 512 512" width="512" xmlns="http://www.w3.org/2000/svg"><g><path d="m474.5 114.5c-4.764 0-366.352 0-370.517 0-53.201 0-96.483 43.283-96.483 96.484v176.662l78.626 106.312 38.228 10.542h350.146c16.569 0 30-13.432 30-30 0-4.844 0-323.866 0-330 0-16.568-13.431-30-30-30z" fill="#676fb2"/><g fill="#ff8e9e"><path d="m459.5 219.5c-33.137 0-60-26.863-60-60h-269.055v270h269.055c0-33.137 26.863-60 60-60z"/><circle cx="459.5" cy="159.5" r="15"/><circle cx="459" cy="429.5" r="15"/></g><g fill="#fce3a0"><path d="m418.894 268.894-68.787-68.787c-14.133-14.133-37.073-14.14-51.213 0l-67.894 67.893-67.894-67.894v188.787l67.894-67.893 67.894 67.894c14.133 14.133 37.073 14.14 51.213 0l68.787-68.787c14.133-14.134 14.139-37.074 0-51.213z"/><circle cx="231" cy="208" r="15"/><circle cx="231" cy="381" r="15"/></g><g><path d="m184.17 88.018c0-44.215-35.972-80.187-80.187-80.187l-50 141.169 50 142.162 80.187 80.187.229-122.441z" fill="#8288cb"/><path d="m103.983 7.831c-50.031 0-91.286 38.279-96.025 87.087-.3 3.093-.458 6.226-.458 9.396v283.331l78.626 106.312h30.894v-55.459l67.149-67.15-80.187-80.187v-283.33z" fill="#676fb2"/></g><path d="m504.5 474.5h-380.146c-47.892 0-86.854-38.963-86.854-86.854 0-36.659 29.824-66.484 66.483-66.484 27.673 0 50.187 22.514 50.187 50.187 0 20.484-16.665 37.15-37.149 37.15-8.284 0-15 6.716-15 15s6.716 15 15 15c37.026 0 67.149-30.124 67.149-67.15 0-44.215-35.972-80.187-80.187-80.187-53.201 0-96.483 43.283-96.483 96.484 0 64.433 52.421 116.854 116.854 116.854h350.146c16.569 0 30-13.431 30-30z" fill="#4c5699"/><g fill="#ff8e9e"><circle cx="324.5" cy="238" r="15"/><circle cx="324.5" cy="351" r="15"/></g><g><path d="m474.5 107h-282.83v-18.982c0-48.351-39.336-88.018-87.687-88.018-22.135 0-43.284 7.224-61.157 20.263-3.347 2.44-4.08 7.133-1.639 10.479 2.439 3.345 7.133 4.081 10.479 1.639 15.289-11.153 33.381-17.049 52.317-17.049 40.079 0 72.687 32.607 72.687 72.687v234.331c-15.774-23.325-42.47-38.688-72.687-38.688-37.68 0-70.742 20.146-88.983 50.232v-229.58c0-18.997 5.932-37.137 17.152-52.457 2.447-3.342 1.723-8.035-1.619-10.482-3.34-2.446-8.034-1.723-10.482 1.619-13.117 17.909-20.051 39.113-20.051 61.32v283.331c0 68.57 55.785 124.355 124.354 124.355h225.653c4.143 0 7.5-3.357 7.5-7.5s-3.357-7.5-7.5-7.5h-225.653c-60.297 0-109.354-49.057-109.354-109.354 0-49.065 39.918-88.983 88.983-88.983 40.079 0 72.687 32.607 72.687 72.687 0 32.786-26.61 59.649-59.649 59.649-4.136 0-7.5-3.364-7.5-7.5s3.364-7.5 7.5-7.5c24.62 0 44.649-20.029 44.649-44.649 0-31.809-25.878-57.687-57.687-57.687-40.795-.001-73.983 33.188-73.983 73.983 0 52.027 42.327 94.354 94.354 94.354h340.146c4.143 0 7.5-3.357 7.5-7.5s-3.357-7.5-7.5-7.5h-340.146c-43.755 0-79.354-35.599-79.354-79.354 0-32.523 26.46-58.983 58.983-58.983 23.537 0 42.687 19.149 42.687 42.687 0 16.349-13.301 29.649-29.649 29.649-12.406 0-22.5 10.094-22.5 22.5s10.094 22.5 22.5 22.5c12.682 0 24.825-3.211 35.513-8.998h246.966c4.143 0 7.5-3.357 7.5-7.5 0-28.948 23.552-52.5 52.5-52.5 4.143 0 7.5-3.357 7.5-7.5v-150c0-4.143-3.357-7.5-7.5-7.5-28.948 0-52.5-23.552-52.5-52.5 0-4.143-3.357-7.5-7.5-7.5h-207.83v-30h282.83c12.406 0 22.5 10.094 22.5 22.5v330c0 12.406-10.094 22.5-22.5 22.5h-94.413c-4.143 0-7.5 3.357-7.5 7.5s3.357 7.5 7.5 7.5h94.413c20.678 0 37.5-16.822 37.5-37.5v-330c0-20.679-16.822-37.501-37.5-37.501zm-282.83 132.277 34.026 34.026c2.93 2.928 7.678 2.928 10.607 0l67.894-67.894c11.202-11.202 29.39-11.219 40.605 0l68.787 68.787c11.195 11.194 11.195 29.411 0 40.605l-68.787 68.787c-11.202 11.202-29.39 11.219-40.605 0l-67.894-67.894c-2.93-2.928-7.678-2.928-10.607 0l-34.026 34.026zm200.744-72.277c3.47 31.239 28.347 56.116 59.586 59.586v135.828c-31.239 3.47-56.116 28.347-59.586 59.586h-220.581c12.239-13.254 19.837-31.09 19.837-50.651v-.411l39.33-39.332 62.59 62.59c17.061 17.061 44.74 17.079 61.82.001l68.787-68.787c17.077-17.079 17.08-44.738 0-61.82l-68.787-68.786c-17.061-17.061-44.74-17.079-61.82-.001l-62.59 62.591-39.33-39.331v-51.063z"/><path d="m262.362 301.856c4.143 0 7.5-3.357 7.5-7.5v-12c0-4.143-3.357-7.5-7.5-7.5s-7.5 3.357-7.5 7.5v12c0 4.143 3.358 7.5 7.5 7.5z"/><path d="m387.26 301.856c4.143 0 7.5-3.357 7.5-7.5v-12c0-4.143-3.357-7.5-7.5-7.5s-7.5 3.357-7.5 7.5v12c0 4.143 3.357 7.5 7.5 7.5z"/><path d="m346.93 298.926c2.722-3.122 2.396-7.86-.728-10.581s-7.861-2.396-10.581.728c-5.726 6.57-15.899 6.563-21.62-.001-2.723-3.124-7.46-3.447-10.582-.727-3.123 2.722-3.447 7.46-.727 10.582 11.728 13.454 32.57 13.391 44.238-.001z"/><path d="m231 230.5c12.406 0 22.5-10.094 22.5-22.5s-10.094-22.5-22.5-22.5-22.5 10.094-22.5 22.5 10.094 22.5 22.5 22.5zm0-30c4.136 0 7.5 3.364 7.5 7.5s-3.364 7.5-7.5 7.5-7.5-3.364-7.5-7.5 3.364-7.5 7.5-7.5z"/><path d="m231 358.5c-12.406 0-22.5 10.094-22.5 22.5s10.094 22.5 22.5 22.5 22.5-10.094 22.5-22.5-10.094-22.5-22.5-22.5zm0 30c-4.136 0-7.5-3.364-7.5-7.5s3.364-7.5 7.5-7.5 7.5 3.364 7.5 7.5-3.364 7.5-7.5 7.5z"/><path d="m459.5 137c-12.406 0-22.5 10.094-22.5 22.5s10.094 22.5 22.5 22.5 22.5-10.094 22.5-22.5-10.094-22.5-22.5-22.5zm0 30c-4.136 0-7.5-3.364-7.5-7.5s3.364-7.5 7.5-7.5 7.5 3.364 7.5 7.5-3.364 7.5-7.5 7.5z"/><path d="m436.5 429.5c0 12.406 10.094 22.5 22.5 22.5s22.5-10.094 22.5-22.5-10.094-22.5-22.5-22.5-22.5 10.094-22.5 22.5zm30 0c0 4.136-3.364 7.5-7.5 7.5s-7.5-3.364-7.5-7.5 3.364-7.5 7.5-7.5 7.5 3.364 7.5 7.5z"/><path d="m324.5 260.5c12.406 0 22.5-10.094 22.5-22.5s-10.094-22.5-22.5-22.5-22.5 10.094-22.5 22.5 10.094 22.5 22.5 22.5zm0-30c4.136 0 7.5 3.364 7.5 7.5s-3.364 7.5-7.5 7.5-7.5-3.364-7.5-7.5 3.364-7.5 7.5-7.5z"/><path d="m324.5 328.5c-12.406 0-22.5 10.094-22.5 22.5s10.094 22.5 22.5 22.5 22.5-10.094 22.5-22.5-10.094-22.5-22.5-22.5zm0 30c-4.136 0-7.5-3.364-7.5-7.5s3.364-7.5 7.5-7.5 7.5 3.364 7.5 7.5-3.364 7.5-7.5 7.5z"/></g></g></svg>