<svg id="Capa_1" enable-background="new 0 0 512 512" height="512" viewBox="0 0 512 512" width="512" xmlns="http://www.w3.org/2000/svg"><g><path d="m501.571 248.929-14.896-14.896c-5.826-5.826-9.099-13.727-9.099-21.966v-.001c0-17.157-15.292-34.403-32.449-34.403 12.061-12.062 10.961-35.131-1.2-47.092-5.94-5.843-9.282-13.824-9.282-22.148v-21.068c0-5.523-4.477-10-10-10h-21.066c-8.239 0-16.14-3.273-21.966-9.099l-.001-.001c-12.132-12.132-35.14-13.514-47.272-1.382l-78.34 189.127 78.339 189.127c12.061 12.062 35.131 10.961 47.092-1.2 5.843-5.94 13.824-9.282 22.148-9.282h21.066c5.523 0 10-4.477 10-10v-21.066c0-8.239 3.273-16.141 9.099-21.966l.001-.001c12.132-12.132 13.514-35.14 1.382-47.272 17.057 0 32.592-17.091 32.45-34.147-.069-8.332 3.211-16.338 9.098-22.225l14.896-14.896c3.905-3.906 3.905-10.238 0-14.143z" fill="#b9f0ff"/><path d="m300.192 34.423c-8.332.069-16.338-3.211-22.225-9.098l-14.896-14.896c-3.905-3.905-10.237-3.905-14.142 0l-14.896 14.896c-5.826 5.826-13.727 9.099-21.966 9.099h-.001c-17.157 0-34.404 15.292-34.404 32.449-12.061-12.062-35.131-10.961-47.092 1.2-5.843 5.94-13.824 9.282-22.148 9.282h-21.067c-5.523 0-10 4.477-10 10v21.066c0 8.239-3.273 16.141-9.099 21.966l-.001.001c-12.132 12.132-13.514 35.14-1.382 47.272-17.057 0-32.592 17.091-32.45 34.147.069 8.332-3.211 16.338-9.098 22.225l-14.896 14.896c-3.905 3.905-3.905 10.237 0 14.143l14.896 14.896c5.826 5.826 9.099 13.727 9.099 21.966v.001c0 17.157 15.292 34.403 32.449 34.403-12.061 12.062-10.961 35.131 1.2 47.092 5.94 5.843 9.282 13.824 9.282 22.148v21.066c0 5.523 4.477 10 10 10h21.066c8.239 0 16.14 3.273 21.966 9.099l.001.001c12.132 12.132 35.14 13.514 47.272 1.382 0 17.057 17.091 32.592 34.147 32.45 8.332-.069 16.338 3.211 22.225 9.098l14.896 14.896c3.905 3.905 10.237 3.905 14.142 0l14.896-14.896c5.826-5.826 13.727-9.099 21.966-9.099h.001c17.157 0 34.404-15.292 34.404-32.449l.001-378.254c.001-17.055-17.089-32.59-34.146-32.448z" fill="#7ce3ff"/><path d="m445.127 328.034-6.641-16.033c-2.597-6.271-2.597-13.316 0-19.586v-.001c5.409-13.058-.793-31.004-13.85-36.413 12.982-5.377 19.417-23.282 13.932-36.218-2.679-6.32-2.707-13.447-.083-19.783l6.641-16.033c1.741-4.204-.255-9.022-4.458-10.764l-16.033-6.641c-6.27-2.597-11.252-7.579-13.849-13.85v-.001c-5.409-13.058-22.484-21.363-35.542-15.954 5.377-12.982-2.733-30.192-15.759-35.462-6.363-2.574-11.422-7.595-14.047-13.931l-6.641-16.033c-1.741-4.204-6.56-6.2-10.763-4.458l-16.033 6.641c-6.271 2.597-13.316 2.597-19.586 0h-.001c-13.058-5.409-31.005.793-36.413 13.851l-40.001 168.635 40 168.636c5.377 12.982 23.281 19.417 36.218 13.932 6.32-2.679 13.447-2.707 19.783-.083l16.033 6.642c4.203 1.741 9.022-.255 10.763-4.458l6.641-16.034c2.597-6.27 7.579-11.252 13.85-13.85h.001c13.058-5.408 21.363-22.484 15.954-35.542 12.982 5.377 30.193-2.733 35.462-15.759 2.574-6.363 7.595-11.422 13.93-14.046l16.033-6.641c4.204-1.741 6.2-6.56 4.459-10.763z" fill="#70dcba"/><path d="m219.782 73.432c-6.32 2.679-13.447 2.707-19.783.082l-16.033-6.641c-4.203-1.741-9.022.255-10.763 4.458l-6.641 16.034c-2.597 6.27-7.579 11.252-13.85 13.849l-.001.001c-13.058 5.408-21.363 22.484-15.954 35.542-12.982-5.377-30.193 2.733-35.462 15.759-2.574 6.362-7.595 11.422-13.93 14.046l-16.033 6.641c-4.203 1.741-6.199 6.56-4.458 10.763l6.641 16.033c2.597 6.271 2.597 13.316 0 19.586v.001c-5.408 13.058.793 31.004 13.851 36.413-12.982 5.377-19.417 23.282-13.932 36.218 2.679 6.32 2.707 13.447.083 19.783l-6.641 16.033c-1.741 4.204.255 9.022 4.458 10.764l16.033 6.641c6.27 2.597 11.252 7.579 13.849 13.85v.001c5.409 13.058 22.484 21.363 35.542 15.954-5.377 12.982 2.733 30.192 15.759 35.462 6.363 2.574 11.423 7.595 14.047 13.931l6.641 16.033c1.741 4.204 6.56 6.199 10.763 4.458l16.033-6.641c6.271-2.597 13.316-2.597 19.586 0h.001c13.058 5.409 31.005-.793 36.413-13.851v-337.271c-5.378-12.982-23.282-19.417-36.219-13.932z" fill="#30cd9c"/><g fill="#ffce71"><g><path d="m273.12 123.417c-4.035-4.035-10.577-6.053-17.12-6.053-6.542 0-13.085 2.018-17.12 6.053-15.684 15.683-23.526 36.24-23.526 56.796s7.842 41.112 23.526 56.796c4.035 4.035 10.577 6.053 17.12 6.053 6.542 0 13.085-2.018 17.12-6.053 15.684-15.683 23.526-36.24 23.526-56.796s-7.843-41.113-23.526-56.796z"/><path d="m273.12 274.991c-4.035-4.035-10.577-6.053-17.12-6.053-6.542 0-13.085 2.018-17.12 6.053-15.684 15.683-23.526 36.24-23.526 56.796s7.842 41.112 23.526 56.796c4.035 4.035 10.577 6.053 17.12 6.053 6.542 0 13.085-2.018 17.12-6.053 15.684-15.683 23.526-36.24 23.526-56.796s-7.843-41.112-23.526-56.796z"/></g><g><path d="m388.583 273.12c4.035-4.035 6.053-10.577 6.053-17.12 0-6.542-2.018-13.085-6.053-17.12-15.683-15.684-36.24-23.526-56.796-23.526s-41.112 7.842-56.796 23.526c-4.035 4.035-6.053 10.577-6.053 17.12 0 6.542 2.018 13.085 6.053 17.12 15.683 15.684 36.24 23.526 56.796 23.526s41.113-7.843 56.796-23.526z"/><path d="m237.009 273.12c4.035-4.035 6.053-10.577 6.053-17.12 0-6.542-2.018-13.085-6.053-17.12-15.683-15.684-36.24-23.526-56.796-23.526s-41.112 7.842-56.796 23.526c-4.035 4.035-6.053 10.577-6.053 17.12 0 6.542 2.018 13.085 6.053 17.12 15.683 15.684 36.24 23.526 56.796 23.526s41.112-7.843 56.796-23.526z"/></g></g><g fill="#fce3a0"><g><path d="m361.856 174.355c0-5.706-3.199-11.759-7.825-16.385s-10.679-7.825-16.385-7.825c-22.18 0-42.26 8.99-56.796 23.526-14.535 14.535-23.526 34.616-23.526 56.796 0 5.706 3.199 11.759 7.825 16.385s10.679 7.825 16.385 7.825c22.18 0 42.26-8.99 56.796-23.526s23.526-34.616 23.526-56.796z"/><path d="m254.676 281.534c0-5.706-3.199-11.759-7.825-16.385s-10.679-7.825-16.385-7.825c-22.18 0-42.26 8.99-56.796 23.526-14.535 14.535-23.526 34.616-23.526 56.796 0 5.706 3.199 11.759 7.825 16.385s10.679 7.825 16.385 7.825c22.18 0 42.26-8.99 56.796-23.526s23.527-34.616 23.526-56.796z"/></g><g><path d="m337.645 361.856c5.706 0 11.759-3.199 16.385-7.825s7.825-10.679 7.825-16.385c0-22.18-8.99-42.26-23.526-56.796s-34.616-23.526-56.796-23.526c-5.706 0-11.759 3.199-16.385 7.825s-7.825 10.679-7.825 16.385c0 22.18 8.99 42.26 23.526 56.796s34.616 23.526 56.796 23.526z"/><path d="m230.466 254.676c5.706 0 11.759-3.199 16.385-7.825s7.825-10.679 7.825-16.385c0-22.18-8.99-42.26-23.526-56.796-14.535-14.535-34.616-23.526-56.796-23.526-5.706 0-11.759 3.199-16.385 7.825s-7.825 10.679-7.825 16.385c0 22.18 8.99 42.26 23.526 56.796 14.535 14.536 34.616 23.527 56.796 23.526z"/></g></g><g><path d="m256 181c-.909 0-1.813.022-2.714.054l-41.089 24.492-31.197 50.454 31.198 50.454 41.089 24.492c.901.032 1.805.054 2.714.054 41.355 0 75-33.645 75-75s-33.646-75-75.001-75z" fill="#ffb39d"/><g><path d="m220.674 256c0-29.59 12.55-56.245 32.612-74.946-40.102 1.435-72.286 34.5-72.286 74.946s32.184 73.511 72.286 74.946c-20.062-18.701-32.612-45.356-32.612-74.946z" fill="#ff8f71"/></g></g><g><path d="m408.87 311.203-38.556-15.97c8.683-4.236 16.652-9.891 23.572-16.81 10.997-10.999 11.029-33.814 0-44.846-6.92-6.919-14.889-12.574-23.572-16.81l38.555-15.971c3.827-1.585 5.645-5.972 4.059-9.799-1.585-3.828-5.973-5.643-9.799-4.059l-38.605 15.991c3.151-9.108 4.831-18.759 4.831-28.575 0-15.611-16.166-31.711-31.711-31.711-9.885 0-19.491 1.625-28.524 4.709l15.941-38.484c1.586-3.827-.231-8.214-4.059-9.799-3.824-1.588-8.213.23-9.799 4.059l-15.971 38.556c-4.236-8.684-9.891-16.653-16.81-23.573-10.999-10.997-33.814-11.029-44.846 0-6.919 6.92-12.574 14.889-16.81 23.572l-15.97-38.556c-1.585-3.827-5.972-5.645-9.799-4.059-3.827 1.585-5.645 5.972-4.059 9.799l15.941 38.484c-9.034-3.084-18.639-4.709-28.525-4.709-15.578 0-31.711 16.137-31.711 31.711 0 9.816 1.679 19.467 4.831 28.575l-38.605-15.991c-3.824-1.586-8.214.232-9.799 4.059-1.586 3.827.231 8.214 4.059 9.799l38.556 15.97c-8.683 4.236-16.652 9.891-23.572 16.81-10.997 10.999-11.029 33.814 0 44.846 6.92 6.919 14.889 12.574 23.572 16.81l-38.556 15.97c-3.827 1.585-5.645 5.972-4.059 9.799 1.583 3.823 5.967 5.646 9.799 4.059l38.597-15.987c-3.147 9.101-4.823 18.748-4.823 28.571 0 15.578 16.137 31.711 31.711 31.711 9.835 0 19.477-1.665 28.564-4.803l-15.98 38.577c-2.054 4.956 1.617 10.372 6.926 10.372 2.943 0 5.735-1.743 6.932-4.632l15.971-38.555c4.236 8.683 9.89 16.652 16.81 23.572 10.999 10.997 33.814 11.029 44.846 0 6.919-6.92 12.574-14.889 16.81-23.573l15.971 38.556c1.583 3.823 5.967 5.646 9.799 4.059 3.827-1.585 5.645-5.972 4.059-9.799l-15.98-38.577c9.087 3.138 18.728 4.803 28.563 4.803 15.578 0 31.711-16.137 31.711-31.711 0-9.824-1.676-19.471-4.823-28.571 41.95 17.376 39.383 16.561 41.464 16.561 8.152.001 10.441-11.296 2.873-14.43zm-71.225-153.558c7.258 0 16.711 9.449 16.711 16.711 0 19.235-7.747 37.713-21.126 51.256-3.146-8.389-7.621-16.153-13.212-23.021l12.695-12.695c2.929-2.93 2.929-7.678 0-10.607-2.93-2.928-7.678-2.928-10.607 0l-12.575 12.575c-6.654-5.658-14.264-10.287-22.615-13.641 13.51-13.188 31.488-20.578 50.729-20.578zm-14.145 97.066c0 37.22-30.28 67.5-67.5 67.5s-67.5-30.28-67.5-67.5c0-37.967 31.025-67.514 67.397-67.514 37.346 0 67.603 29.995 67.603 67.514zm-79.315-125.99c5.13-5.132 18.498-5.135 23.631 0 8.572 8.571 14.823 19.073 18.263 30.609-5.577 4.065-10.713 8.823-15.296 14.218-2.425-.443-4.854-.773-7.282-.999v-17.537c0-4.143-3.357-7.5-7.5-7.5s-7.5 3.357-7.5 7.5v17.517c-2.452.222-4.889.55-7.306.991-4.577-5.383-9.705-10.132-15.273-14.19 3.44-11.537 9.691-22.038 18.263-30.609zm-69.83 28.924c19.236 0 37.209 7.387 50.719 20.567-7.971 3.242-15.553 7.774-22.54 13.716l-12.64-12.64c-2.93-2.928-7.678-2.928-10.607 0-2.929 2.93-2.929 7.678 0 10.607l12.735 12.735c-5.666 6.924-10.129 14.678-13.253 22.981-13.378-13.544-21.125-32.021-21.125-51.255.001-7.259 9.45-16.711 16.711-16.711zm-45.634 110.17c-5.133-5.13-5.135-18.498 0-23.631 8.594-8.595 19.129-14.854 30.703-18.29 4.294 5.937 9.338 11.361 15.054 16.105-.331 2.146-.578 4.314-.74 6.5h-18.725c-4.143 0-7.5 3.357-7.5 7.5s3.357 7.5 7.5 7.5h18.961c.222 2.084.537 4.14.912 6.175-5.885 4.823-11.066 10.36-15.462 16.43-11.574-3.434-22.109-9.694-30.703-18.289zm45.634 86.54c-7.258 0-16.711-9.449-16.711-16.711-.001-19.621 8.035-38.404 21.891-52.011 3.352 8.257 8 15.848 13.696 22.527l-13.944 13.944c-4.74 4.742-1.317 12.804 5.304 12.804 1.919 0 3.839-.732 5.304-2.196l14.054-14.054c6.834 5.573 14.574 10.068 22.963 13.24-13.644 14.215-32.622 22.457-52.557 22.457zm93.46 28.924c-5.13 5.132-18.498 5.135-23.631 0-8.591-8.59-14.85-19.121-18.285-30.688 6.38-4.625 12.166-10.127 17.165-16.402 1.793.284 3.607.5 5.436.666v20.133c0 4.143 3.357 7.5 7.5 7.5s7.5-3.357 7.5-7.5v-20.133c1.829-.166 3.643-.382 5.436-.666 4.999 6.274 10.785 11.776 17.165 16.401-3.435 11.568-9.694 22.098-18.286 30.689zm69.83-28.924c-19.934 0-38.912-8.243-52.555-22.456 8.388-3.172 16.129-7.667 22.962-13.24 15.068 15.068 15.327 16.25 19.357 16.25 6.624 0 10.041-8.065 5.304-12.804l-13.944-13.944c5.696-6.679 10.344-14.27 13.696-22.527 13.856 13.606 21.891 32.389 21.891 52.01-.001 7.259-9.45 16.711-16.711 16.711zm14.932-68.25c-4.396-6.07-9.577-11.607-15.462-16.43.375-2.035.69-4.091.912-6.175h18.961c4.143 0 7.5-3.357 7.5-7.5s-3.357-7.5-7.5-7.5h-18.731c-.162-2.188-.413-4.353-.742-6.494 5.72-4.745 10.766-10.172 15.063-16.111 11.573 3.435 22.109 9.694 30.703 18.289 5.133 5.13 5.135 18.498 0 23.631-8.596 8.595-19.131 14.855-30.704 18.29z"/><path d="m506.874 243.625-14.896-14.896c-4.451-4.45-6.902-10.368-6.902-16.663 0-17.44-12.041-33.642-27.487-39.547 6.681-14.846 3.96-35.138-8.402-47.297-4.475-4.4-7.041-10.523-7.042-16.8v-21.066c0-9.649-7.851-17.5-17.5-17.5h-21.065c-6.295-.001-12.213-2.452-16.664-6.904-12.309-12.309-32.532-15.183-47.405-8.539-5.756-15.243-21.571-27.56-39.576-27.488-6.295 0-12.212-2.451-16.662-6.902l-14.898-14.897c-3.307-3.306-7.701-5.126-12.376-5.126-4.677 0-9.072 1.821-12.374 5.127l-14.894 14.895c-4.452 4.451-10.37 6.902-16.665 6.902-17.444 0-33.649 12.047-39.551 27.498-3.203-1.437-6.686-2.46-10.379-3.032-4.101-.631-7.926 2.169-8.561 6.262s2.168 7.926 6.262 8.561c2.379.369 4.584 1.028 6.587 1.934-6.482 14.71-7.145 22.232-16.583 26.141-12.759 5.284-22.026 19.101-22.243 33.272-13.551.157-27.875 8.843-33.256 22.143-3.871 9.572-11.521 10.267-26.185 16.715-4.421-9.813-2.061-23.264 5.403-30.726 7.283-7.284 11.295-16.968 11.296-27.269v-21.067c0-1.379 1.121-2.5 2.5-2.5h21.067c17.55-.002 27.029-11.285 29.106-13.001 3.194-2.638 3.645-7.365 1.008-10.56-2.638-3.193-7.365-3.643-10.559-1.007-2.868 2.368-8.335 9.566-19.557 9.567h-21.065c-9.649 0-17.5 7.851-17.5 17.5v21.065c-.001 6.295-2.452 12.213-6.904 16.664-12.309 12.309-15.183 32.532-8.539 47.405-15.243 5.756-27.56 21.571-27.488 39.576 0 6.295-2.451 12.213-6.901 16.663l-14.898 14.897c-3.306 3.307-5.126 7.701-5.126 12.376 0 4.677 1.821 9.072 5.126 12.374l14.896 14.896c4.451 4.45 6.902 10.368 6.902 16.663 0 17.44 12.041 33.642 27.487 39.547-6.681 14.846-3.96 35.138 8.402 47.297 4.475 4.4 7.041 10.523 7.042 16.8v21.066c0 9.649 7.851 17.5 17.5 17.5h21.065c6.295.001 12.213 2.452 16.664 6.904 12.309 12.309 32.532 15.183 47.405 8.539 5.756 15.243 21.571 27.56 39.576 27.488 6.295 0 12.213 2.451 16.663 6.901l14.886 14.887c.003.003.006.007.009.01 3.307 3.306 7.701 5.126 12.376 5.126 4.677 0 9.072-1.821 12.374-5.126l14.896-14.896c4.45-4.451 10.368-6.902 16.663-6.902 17.444 0 33.649-12.047 39.551-27.498 3.203 1.438 6.686 2.46 10.379 3.032 4.101.643 7.926-2.169 8.561-6.262s-2.168-7.926-6.262-8.561c-2.379-.369-4.584-1.028-6.587-1.934 6.481-14.707 7.12-22.221 16.583-26.141 12.757-5.283 22.028-19.102 22.242-33.272 13.57-.157 27.882-8.859 33.257-22.143 3.871-9.572 11.521-10.267 26.185-16.715 4.421 9.813 2.061 23.264-5.403 30.726-7.283 7.284-11.295 16.968-11.296 27.269v21.066c0 1.379-1.121 2.5-2.5 2.5h-21.067c-17.55.002-27.029 11.285-29.106 13.001-3.194 2.638-3.645 7.365-1.008 10.56 2.639 3.195 7.369 3.642 10.559 1.007 2.868-2.368 8.335-9.566 19.557-9.567h21.066c9.649 0 17.5-7.851 17.5-17.5v-21.065c.001-6.295 2.452-12.213 6.904-16.664 12.309-12.309 15.183-32.532 8.539-47.405 15.243-5.756 27.56-21.571 27.488-39.576 0-6.295 2.451-12.213 6.901-16.663l14.897-14.895c3.306-3.307 5.126-7.701 5.126-12.376.002-4.677-1.819-9.072-5.124-12.374zm-130.566-170.065c7.284 7.283 16.968 11.295 27.269 11.296h21.066c1.379 0 2.5 1.121 2.5 2.5v21.067c.001 10.271 4.202 20.293 11.524 27.493 7.263 7.145 9.715 20.435 5.165 30.498-14.878-6.532-22.236-7.197-26.12-16.573-5.283-12.759-19.104-22.028-33.271-22.242-.16-13.554-8.842-27.874-22.144-33.257-9.542-3.859-10.264-11.467-16.716-26.184 9.812-4.421 23.264-2.062 30.727 5.402zm-164.241-31.635c10.3 0 19.984-4.012 27.27-11.296 16.048-16.049 15.237-15.629 16.662-15.629 1.427 0 .62-.415 16.665 15.629 7.283 7.284 16.968 11.296 27.269 11.296 11.69-.047 22.043 8.409 25.58 17.895-16.558 6.414-20.092 10.453-30.231 6.766-13.319-5.516-29.408-1.754-39.257 7.798-9.755-9.529-26.03-13.427-39.172-7.856-9.526 4.044-15.415-.915-30.346-6.699 3.713-9.783 14.553-17.904 25.56-17.904zm-170.142 258.008c0-10.301-4.012-19.985-11.295-27.269-16.051-16.049-15.63-15.238-15.63-16.663 0-1.428-.412-.625 15.63-16.664 7.283-7.284 11.295-16.969 11.295-27.27-.046-11.651 8.371-22.029 17.895-25.58 5.727 14.754 10.701 20.73 6.765 30.231-5.516 13.317-1.752 29.408 7.799 39.257-9.502 9.728-13.44 25.999-7.856 39.172 4.026 9.492-.865 15.373-6.699 30.346-9.784-3.713-17.904-14.553-17.904-25.56zm93.767 138.507c-7.284-7.283-16.968-11.295-27.269-11.296h-21.067c-1.379 0-2.5-1.121-2.5-2.5v-21.067c-.001-10.271-4.202-20.293-11.524-27.493-7.263-7.145-9.715-20.435-5.165-30.498 14.877 6.532 22.236 7.197 26.12 16.573 5.283 12.759 19.104 22.028 33.271 22.242.16 13.554 8.842 27.874 22.144 33.257 9.542 3.859 10.264 11.467 16.716 26.184-9.811 4.421-23.263 2.062-30.726-5.402zm164.241 31.635c-10.301 0-19.985 4.012-27.269 11.295-16.049 16.051-15.238 15.63-16.663 15.63-1.428 0-.488.548-16.664-15.63-7.284-7.283-16.969-11.295-27.27-11.295-11.69.047-22.043-8.409-25.58-17.895 16.004-6.199 20.07-10.461 30.231-6.766 13.32 5.518 29.408 1.753 39.257-7.798 9.704 9.479 25.976 13.452 39.172 7.856 9.43-3.998 15.252.784 30.346 6.7-3.713 9.782-14.553 17.903-25.56 17.903zm121.832-131.567c-8.142 3.372-14.708 9.993-18.013 18.164-3.768 9.309-16.658 15.363-25.64 11.642-6.148-2.547-12.355 3.629-9.799 9.799 3.645 8.801-2.359 21.793-11.895 25.743-15.23 6.308-18.095 18.358-24.551 33.942-.078.187-.225.325-.399.398-.001 0-.002 0-.002 0-.175.073-.376.079-.563 0l-16.033-6.643c-8.143-3.371-17.465-3.332-25.581.107-9.247 3.923-22.642-.92-26.361-9.897-2.545-6.148-11.304-6.169-13.857 0-3.399 8.206-16.028 13.863-26.617 9.79-15.23-6.307-25.779.189-41.358 6.643-.211.089-.37.064-.565-.001h-.001c-.173-.073-.319-.211-.397-.398l-6.641-16.033c-3.372-8.142-9.993-14.708-18.164-18.013-9.325-3.774-15.355-16.674-11.643-25.64 2.557-6.172-3.654-12.347-9.799-9.799-8.802 3.643-21.793-2.359-25.742-11.895-6.308-15.23-18.354-18.094-33.943-24.552-1-.414-.699-.238 6.244-16.996 3.372-8.144 3.333-17.468-.107-25.581-3.92-9.244.915-22.64 9.897-26.361 6.148-2.545 6.169-11.304 0-13.857-8.8-3.645-13.741-17.078-9.79-26.616 6.306-15.23-.189-25.78-6.643-41.359-.411-1-.367-.647 16.433-7.604 8.142-3.372 14.708-9.993 18.013-18.164 3.774-9.325 16.674-15.356 25.64-11.642 6.149 2.55 12.354-3.631 9.799-9.799-3.645-8.801 2.358-21.793 11.895-25.743 15.23-6.308 18.095-18.358 24.551-33.942.417-1 .24-.699 16.997 6.243 8.144 3.372 17.467 3.333 25.581-.107 9.266-3.925 22.647.933 26.361 9.897 2.545 6.148 11.304 6.169 13.857 0 3.392-8.187 16.006-13.871 26.617-9.79 8.164 3.381 17.159 3.382 25.325-.001 16.75-6.938 16.58-7.242 16.997-6.242l6.641 16.033c3.372 8.142 9.993 14.708 18.164 18.013 9.325 3.774 15.355 16.674 11.643 25.64-2.552 6.16 3.64 12.349 9.799 9.799 8.802-3.641 21.793 2.359 25.742 11.895 6.308 15.23 18.357 18.095 33.941 24.551 0 .001.001.001.002.001 1.012.418.691.256-6.244 16.996-3.372 8.144-3.333 17.468.107 25.581 3.92 9.244-.915 22.64-9.897 26.361-6.148 2.545-6.169 11.304 0 13.857 9.625 3.987 13.642 18.911 9.79 26.616-6.306 15.23.189 25.78 6.643 41.359.41 1.001.365.648-16.434 7.605zm59.605-65.845c-7.283 7.284-11.295 16.969-11.295 27.27.046 11.651-8.371 22.029-17.895 25.58-5.407-13.928-10.877-21.321-6.765-30.231 5.516-13.317 1.752-29.408-7.799-39.257 9.502-9.728 13.44-25.999 7.856-39.172-4.026-9.492.865-15.373 6.699-30.346 9.782 3.712 17.903 14.552 17.903 25.558 0 10.301 4.012 19.985 11.295 27.269l14.899 14.898c.636.635.73 1.378.73 1.765.002 1.43.414.627-15.628 16.666z"/><path d="m213.552 238.929c-4.143 0-7.5 3.357-7.5 7.5v12c0 4.143 3.357 7.5 7.5 7.5s7.5-3.357 7.5-7.5v-12c0-4.143-3.358-7.5-7.5-7.5z"/><path d="m298.448 238.929c-4.143 0-7.5 3.357-7.5 7.5v12c0 4.143 3.357 7.5 7.5 7.5s7.5-3.357 7.5-7.5v-12c0-4.143-3.357-7.5-7.5-7.5z"/><path d="m273.928 253.206c-3.123-2.722-7.86-2.396-10.582.727-3.892 4.465-10.803 4.462-14.691 0-2.723-3.122-7.461-3.447-10.582-.727-3.123 2.722-3.447 7.46-.727 10.582 9.87 11.324 27.447 11.315 37.309 0 2.72-3.122 2.396-7.86-.727-10.582z"/></g></g></svg>