<svg id="Capa_1" enable-background="new 0 0 512 512" height="512" viewBox="0 0 512 512" width="512" xmlns="http://www.w3.org/2000/svg"><g><g><path d="m156 105c-11.507 0-21.501 6.479-26.533 15.988-.43.812-.824 1.647-1.179 2.501-1.474 3.545-2.288 7.433-2.288 11.511v205.987h-45c-16.57 0-30 13.434-30 30v133.513h75l160-169.631v-229.869z" fill="#2ed0fc"/><path d="m436 340.987h-50v-205.987c0-4.078-.814-7.966-2.288-11.511-4.514-10.856-15.222-18.489-27.712-18.489h-70c-16.566 0-30 13.43-30 30v205.987h-100c-16.57 0-30 13.434-30 30v133.513h340v-133.513c0-16.565-13.429-30-30-30z" fill="#7ce3ff"/></g><g><g><ellipse cx="166" cy="45" fill="#ffb357" rx="20" ry="15"/><g><path d="m187.213 66.589c-5.321-3.991-12.143-6.169-19.102-6.535l-32.111 22.446 32.111 22.446c6.96-.366 13.782-2.544 19.102-6.535 5.858-4.394 8.787-10.152 8.787-15.911s-2.929-11.517-8.787-15.911z" fill="#ffce71"/><path d="m155.091 82.5c0-8.27 4.428-16.434 13.02-22.446-.703-.037-1.407-.054-2.111-.054-16.562 0-30 10.062-30 22.5 0 12.422 13.416 22.5 30 22.5.704 0 1.408-.017 2.111-.054-8.339-5.835-13.02-13.916-13.02-22.446z" fill="#ffb357"/></g></g><g><ellipse cx="256" cy="45" fill="#ffb357" rx="20" ry="15"/><g><path d="m277.213 66.589c-5.321-3.991-12.143-6.169-19.102-6.535l-32.111 22.446 32.111 22.446c6.96-.366 13.782-2.544 19.102-6.535 5.858-4.394 8.787-10.152 8.787-15.911s-2.929-11.517-8.787-15.911z" fill="#ffce71"/><path d="m245.091 82.5c0-8.27 4.428-16.434 13.02-22.446-.703-.037-1.407-.054-2.111-.054-16.562 0-30 10.062-30 22.5 0 12.422 13.416 22.5 30 22.5.704 0 1.408-.017 2.111-.054-8.339-5.835-13.02-13.916-13.02-22.446z" fill="#ffb357"/></g></g><g><ellipse cx="346" cy="45" fill="#ffb357" rx="20" ry="15"/><g><path d="m367.213 66.589c-5.321-3.991-12.143-6.169-19.102-6.535l-32.111 22.446 32.111 22.446c6.96-.366 13.782-2.544 19.102-6.535 5.858-4.394 8.787-10.152 8.787-15.911s-2.929-11.517-8.787-15.911z" fill="#ffce71"/><path d="m335.091 82.5c0-8.27 4.428-16.434 13.02-22.446-.703-.037-1.407-.054-2.111-.054-16.562 0-30 10.062-30 22.5 0 12.422 13.416 22.5 30 22.5.704 0 1.408-.017 2.111-.054-8.339-5.835-13.02-13.916-13.02-22.446z" fill="#ffb357"/></g></g></g><g><path d="m291.452 140.822-18.909 18.909c-7.514 7.514-12.506 16.604-15.005 26.214l20.312 35.635h30.781l20.665-20.665c9.893-11.572 3.015-29.469-12.014-31.514l1.374-1.374c7.512-7.512 7.512-19.692 0-27.204-7.512-7.513-19.692-7.513-27.204-.001z" fill="#fce3a0"/><path d="m329.296 200.915c-15.682 15.682-41.107 15.682-56.789 0l-14.648-16.15c-1.268 4.877-1.859 10.056-1.859 15.086l-10 23.636 10 17.911h16.543l16.645 16.646c9.456 9.456 24.762 9.535 34.315.178 4.728-4.63 7.088-11.026 7.088-17.643 0-2.755 1.051-5.51 3.153-7.613 11.462-11.46 6.872-26.776-4.448-32.051z" fill="#ffce71"/><path d="m254.183 184.938c-.015-.056-.031-.111-.046-.167-2.592-9.174-7.472-17.832-14.679-25.039l-18.909-18.909c-7.512-7.512-19.692-7.512-27.204 0s-7.512 19.692 0 27.204l1.374 1.374c-15.029 2.045-21.906 19.942-12.014 31.515l.002.002 20.663 20.663h30.781l20.287-35.59c-.084-.352-.166-.704-.255-1.053z" fill="#ffce71"/><path d="m254.437 185.99c-.083-.351-.165-.703-.254-1.052-.015-.056-.031-.111-.046-.167l-14.644 16.145c-15.681 15.681-41.104 15.682-56.786.002-.001-.001-.002-.001-.002-.002-11.321 5.275-15.91 20.591-4.448 32.052 2.102 2.103 3.153 4.857 3.153 7.613 0 6.617 2.36 13.013 7.088 17.643 9.553 9.357 24.859 9.277 34.315-.178l16.645-16.646h16.542v-41.547c0-4.697-.503-9.361-1.563-13.863z" fill="#ffb357"/></g><g><g><path d="m45.642 41.462c-20.099 11.604-26.986 37.305-15.382 57.404l4.359 7.549 14.351 13.821 19.314-11.151c-3.428-4.785-4.467-10.405-3.193-16.151s4.933-10.68 10.062-13.567l8.27-4.775-23.791-41.208z" fill="#7ce3ff"/><path d="m34.668 81.444c1.385-14.334 9.214-27.26 21.277-35.126-7.204 12.478-2.929 28.434 9.549 35.638 15.598 9.005 35.542 3.661 44.547-11.936 7.862-13.617 6.97-29.881-.922-42.289-3.408-5.358-8.118-10-13.998-13.395-24.371-14.072-55.534-5.721-69.605 18.65-17.588 30.464-7.01 69.662 23.454 87.25-10.334-10.029-15.686-24.458-14.302-38.792z" fill="#2ed0fc"/></g><g><path d="m466.358 41.462c20.099 11.604 26.986 37.305 15.382 57.404l-4.359 7.549-14.351 13.821-19.314-11.151c3.428-4.785 4.467-10.405 3.193-16.151s-4.933-10.68-10.062-13.567l-8.27-4.775 23.792-41.208z" fill="#2ed0fc"/><path d="m477.332 81.444c-1.385-14.334-9.214-27.26-21.277-35.126 7.204 12.478 2.929 28.434-9.549 35.638-15.598 9.005-35.542 3.661-44.547-11.936-7.862-13.617-6.97-29.881.922-42.289 3.408-5.358 8.118-10 13.998-13.395 24.371-14.071 55.535-5.721 69.605 18.651 17.588 30.464 7.01 69.662-23.454 87.25 10.334-10.03 15.686-24.459 14.302-38.793z" fill="#7ce3ff"/></g></g><g><path d="m70.361 102.147-62.861 58.589 62.861 58.589c13.624-.955 26.979-6.641 37.395-17.058 11.468-11.468 17.201-26.5 17.201-41.531 0-14.264-5.163-28.528-15.49-39.748-10.519-11.428-24.56-17.821-39.106-18.841z" fill="#70dcba"/><path d="m44.873 160.736c0-21.586 8.669-42.897 25.488-58.589-1.376-.096-2.754-.14-4.133-.14-32.422 0-58.729 26.264-58.729 58.729 0 32.422 26.263 58.729 58.729 58.729 1.378 0 2.757-.044 4.133-.14-16.325-15.231-25.488-36.324-25.488-58.589z" fill="#30cd9c"/></g><g><path d="m70.361 102.147-62.861 58.589 62.861 58.589c13.624-.955 26.979-6.641 37.395-17.058 11.468-11.468 17.201-26.5 17.201-41.531 0-14.264-5.163-28.528-15.49-39.748-10.519-11.428-24.56-17.821-39.106-18.841z" fill="#70dcba"/><path d="m44.873 160.736c0-21.586 8.669-42.897 25.488-58.589-1.376-.096-2.754-.14-4.133-.14-32.422 0-58.729 26.264-58.729 58.729 0 32.422 26.263 58.729 58.729 58.729 1.378 0 2.757-.044 4.133-.14-16.325-15.231-25.488-36.324-25.488-58.589z" fill="#30cd9c"/></g><g><path d="m52.5 186.236c12.406 0 22.5-10.094 22.5-22.5v-6c0-12.406-10.094-22.5-22.5-22.5s-22.5 10.093-22.5 22.5v6c0 12.406 10.094 22.5 22.5 22.5z" fill="#efedff"/></g><g><path d="m117.967 120.988h-8.5c-14.39 0-25.625 13.509-21.715 28.536 2.543 9.776 11.579 16.464 21.68 16.464h31.035v-22.5c0-8.706-4.945-16.257-12.179-19.998-3.091-1.599-6.601-2.502-10.321-2.502z" fill="#ffb357"/><path d="m109.467 190.988c-12.427 0-22.5 10.074-22.5 22.5 0 12.427 10.073 22.5 22.5 22.5h31v-45s-24.775 0-31 0z" fill="#ffb357"/><path d="m109.467 155.988c-12.427 0-22.5 10.074-22.5 22.5 0 12.427 10.073 22.5 22.5 22.5h31v-45s-24.775 0-31 0z" fill="#ffce71"/><path d="m109.467 260.988c-12.427 0-22.5 10.074-22.5 22.5 0 12.427 10.073 22.5 22.5 22.5h31v-45s-24.775 0-31 0z" fill="#ffb357"/><g fill="#ffce71"><path d="m109.467 225.988c-12.427 0-22.5 10.074-22.5 22.5 0 12.427 10.073 22.5 22.5 22.5h31v-45s-24.775 0-31 0z"/><path d="m109.467 295.988c-12.426 0-22.5 10.074-22.5 22.5s10.074 22.5 22.5 22.5h31v-45z"/></g></g><g><path d="m72.5 215.658c13.807 0 25 13.432 25 30s-11.193 30-25 30h-43v-60z" fill="#efedff"/><path d="m22.5 290.658h44.202c25.181 0 46.223-20.606 45.791-45.783-.419-24.454-20.441-44.217-44.993-44.217h-45c-8.284 0-15 6.716-15 15 0 8.284 6.716 15 15 15h44.565c8.068 0 15.019 6.187 15.416 14.245.424 8.613-6.46 15.755-14.981 15.755h-45c-8.284 0-15 6.716-15 15 0 8.285 6.716 15 15 15z" fill="#ea5b70"/></g><g><path d="m449.903 102.147-62.861 58.589 62.861 58.589c13.624-.955 26.979-6.641 37.395-17.058 11.468-11.468 17.201-26.5 17.201-41.531 0-14.264-5.163-28.528-15.49-39.748-10.519-11.428-24.56-17.821-39.106-18.841z" fill="#70dcba"/><path d="m424.415 160.736c0-21.586 8.669-42.897 25.488-58.589-1.376-.096-2.754-.14-4.133-.14-32.422 0-58.729 26.264-58.729 58.729 0 32.422 26.263 58.729 58.729 58.729 1.378 0 2.757-.044 4.133-.14-16.325-15.231-25.488-36.324-25.488-58.589z" fill="#30cd9c"/></g><g><path d="m459.5 186.236c-12.406 0-22.5-10.094-22.5-22.5v-6c0-12.406 10.094-22.5 22.5-22.5s22.5 10.094 22.5 22.5v6c0 12.406-10.094 22.5-22.5 22.5z" fill="#efedff"/></g><g><path d="m394.033 120.987h8.5c14.39 0 25.625 13.509 21.715 28.536-2.543 9.776-11.579 16.464-21.68 16.464h-31.035v-22.5c0-8.706 4.945-16.257 12.179-19.998 3.092-1.599 6.601-2.502 10.321-2.502z" fill="#ffce71"/><path d="m402.533 190.987c12.427 0 22.5 10.074 22.5 22.5 0 12.427-10.073 22.5-22.5 22.5h-31v-45z" fill="#ffce71"/><path d="m402.533 155.987c12.427 0 22.5 10.074 22.5 22.5 0 12.427-10.073 22.5-22.5 22.5h-31v-45z" fill="#fce3a0"/><path d="m402.533 260.987c12.427 0 22.5 10.074 22.5 22.5 0 12.427-10.073 22.5-22.5 22.5h-31v-45z" fill="#ffce71"/><g fill="#fce3a0"><path d="m402.533 225.987c12.427 0 22.5 10.074 22.5 22.5 0 12.427-10.073 22.5-22.5 22.5h-31v-45z"/><path d="m402.533 295.987c12.427 0 22.5 10.074 22.5 22.5 0 12.427-10.073 22.5-22.5 22.5h-31v-45z"/></g></g><g><path d="m291 386.519h-67.493v117.927h114.987v-59.242c-.001-28.847-20.362-52.93-47.494-58.685z" fill="#ffce71"/><path d="m291 386.519c-4.035-.855-8.217-1.314-12.507-1.314h-44.987c-33.137 0-60 26.863-60 60v59.242h70v-59.242c.001-28.848 20.362-52.931 47.494-58.686z" fill="#ffb357"/></g><path d="m213.507 504.5v-59.296c0-11.028 8.972-20 20-20h44.986c11.028 0 20 8.972 20 20v59.296z" fill="#4c5699"/><g><path d="m439.5 215.658c-13.807 0-25 13.432-25 30s11.193 30 25 30h43v-60z" fill="#efedff"/><path d="m489.5 290.658h-44.202c-25.181 0-46.223-20.606-45.791-45.783.419-24.454 20.441-44.217 44.993-44.217h45c8.284 0 15 6.716 15 15 0 8.284-6.716 15-15 15h-44.565c-8.068 0-15.019 6.187-15.416 14.245-.424 8.613 6.46 15.755 14.981 15.755h45c8.284 0 15 6.716 15 15 0 8.285-6.716 15-15 15z" fill="#ea5b70"/></g><g><path d="m261.743 223.725-87.364 81.426 87.364 81.426c18.935-1.328 37.495-9.23 51.971-23.707 15.937-15.939 23.906-36.829 23.906-57.719 0-19.824-7.176-39.648-21.528-55.241-14.619-15.883-34.133-24.768-54.349-26.185z" fill="#70dcba"/><path d="m226.32 305.15c0-30 12.047-59.617 35.423-81.426-1.912-.134-3.828-.195-5.743-.195-45.06 0-81.621 36.502-81.621 81.621 0 45.06 36.5 81.621 81.621 81.621 1.916 0 3.831-.061 5.743-.195-22.688-21.168-35.423-50.481-35.423-81.426z" fill="#30cd9c"/></g><g><g><path d="m298.5 325.988c-10.502 0-74.354 0-85 0-13.807 0-25 13.432-25 30s11.193 30 25 30h85c13.807 0 25-13.432 25-30s-11.193-30-25-30z" fill="#efedff"/></g><g><path d="m218.935 340.988h44.565v-30h-45c-24.552 0-44.574 19.763-44.993 44.217-.432 25.177 20.61 45.783 45.791 45.783h44.202v-30h-45c-8.522 0-15.406-7.142-14.981-15.755.396-8.058 7.348-14.245 15.416-14.245z" fill="#ea5b70"/><path d="m262.5 310.988h30.202c25.181 0 46.223 20.606 45.791 45.783-.419 24.454-20.441 44.217-44.993 44.217h-31c-8.284 0-15-6.716-15-15 0-8.284 6.716-15 15-15h30.565c8.068 0 15.019-6.187 15.416-14.245.424-8.613-6.46-15.755-14.981-15.755h-31c-8.284 0-15-6.716-15-15 0-8.285 6.716-15 15-15z" fill="#ff8e9e"/></g></g><g><g><ellipse cx="113" cy="444.5" fill="#ffb357" rx="20" ry="15"/><g><path d="m134.213 466.089c-5.321-3.991-12.143-6.169-19.102-6.535l-32.111 22.446 32.111 22.446c6.96-.366 13.782-2.544 19.102-6.535 5.858-4.394 8.787-10.152 8.787-15.911s-2.929-11.517-8.787-15.911z" fill="#ffce71"/><path d="m102.091 482c0-8.27 4.428-16.434 13.02-22.446-.703-.037-1.407-.054-2.111-.054-16.562 0-30 10.062-30 22.5 0 12.422 13.416 22.5 30 22.5.704 0 1.408-.017 2.111-.054-8.339-5.835-13.02-13.916-13.02-22.446z" fill="#ffb357"/></g></g><g><ellipse cx="399" cy="444.5" fill="#ffce71" rx="20" ry="15"/><g><path d="m420.213 466.089c-5.321-3.991-12.143-6.169-19.102-6.535l-32.111 22.446 32.111 22.446c6.96-.366 13.782-2.544 19.102-6.535 5.858-4.394 8.787-10.152 8.787-15.911s-2.929-11.517-8.787-15.911z" fill="#fce3a0"/><path d="m388.091 482c0-8.27 4.428-16.434 13.02-22.446-.703-.037-1.407-.054-2.111-.054-16.562 0-30 10.062-30 22.5 0 12.422 13.416 22.5 30 22.5.704 0 1.408-.017 2.111-.054-8.339-5.835-13.02-13.916-13.02-22.446z" fill="#ffce71"/></g></g></g><g><g><path d="m221 301c12.406 0 22.5-10.094 22.5-22.5v-6c0-12.406-10.094-22.5-22.5-22.5s-22.5 10.094-22.5 22.5v6c0 12.406 10.094 22.5 22.5 22.5z" fill="#efedff"/></g><g><path d="m291 301c12.406 0 22.5-10.094 22.5-22.5v-6c0-12.406-10.094-22.5-22.5-22.5s-22.5 10.094-22.5 22.5v6c0 12.406 10.094 22.5 22.5 22.5z" fill="#efedff"/></g></g><g><path d="m38.5 354.5h-8.5c-14.39 0-25.625 13.509-21.715 28.536 2.543 9.776 11.579 16.464 21.68 16.464h31.035v-22.5c0-8.706-4.945-16.257-12.179-19.998-3.091-1.599-6.601-2.502-10.321-2.502z" fill="#ffb357"/><path d="m30 424.5c-12.427 0-22.5 10.074-22.5 22.5 0 12.427 10.073 22.5 22.5 22.5h31v-45s-24.775 0-31 0z" fill="#ffb357"/><g fill="#ffce71"><path d="m30 389.5c-12.427 0-22.5 10.074-22.5 22.5 0 12.427 10.073 22.5 22.5 22.5h31v-45s-24.775 0-31 0z"/><path d="m30 459.5c-12.427 0-22.5 10.074-22.5 22.5 0 12.427 10.073 22.5 22.5 22.5h31v-45s-24.775 0-31 0z"/></g></g><g><path d="m473.5 354.5h8.5c14.39 0 25.625 13.509 21.715 28.536-2.543 9.776-11.579 16.464-21.68 16.464h-31.035v-22.5c0-8.706 4.945-16.257 12.179-19.998 3.091-1.599 6.601-2.502 10.321-2.502z" fill="#ffce71"/><path d="m482 424.5c12.427 0 22.5 10.074 22.5 22.5 0 12.427-10.073 22.5-22.5 22.5h-31v-45z" fill="#ffce71"/><g fill="#fce3a0"><path d="m482 389.5c12.427 0 22.5 10.074 22.5 22.5 0 12.427-10.073 22.5-22.5 22.5h-31v-45z"/><path d="m482 459.5c12.427 0 22.5 10.074 22.5 22.5 0 12.427-10.073 22.5-22.5 22.5h-31v-45z"/></g></g><g><path d="m52.5 150.235c-4.143 0-7.5 3.358-7.5 7.5v6c0 4.142 3.357 7.5 7.5 7.5s7.5-3.358 7.5-7.5v-6c0-4.142-3.358-7.5-7.5-7.5z"/><path d="m459.5 150.235c-4.143 0-7.5 3.358-7.5 7.5v6c0 4.142 3.357 7.5 7.5 7.5s7.5-3.358 7.5-7.5v-6c0-4.142-3.357-7.5-7.5-7.5z"/><path d="m228.5 278.5v-6c0-4.142-3.357-7.5-7.5-7.5s-7.5 3.358-7.5 7.5v6c0 4.142 3.357 7.5 7.5 7.5s7.5-3.358 7.5-7.5z"/><path d="m291 286c4.143 0 7.5-3.358 7.5-7.5v-6c0-4.142-3.357-7.5-7.5-7.5s-7.5 3.358-7.5 7.5v6c0 4.142 3.357 7.5 7.5 7.5z"/><path d="m293.5 333.488h-74.565c-12.254 0-22.315 9.389-22.907 21.375-.648 13.147 9.922 23.625 22.473 23.625h74.565c12.254 0 22.315-9.39 22.907-21.377.648-13.147-9.922-23.623-22.473-23.623zm-27.5 15v15h-20v-15zm-54.99 7.114c.193-3.922 3.748-7.113 7.925-7.113h12.065v15h-12.5c-4.253-.001-7.704-3.563-7.49-7.887zm82.055 7.886h-12.065v-15h12.5c2.068 0 3.996.83 5.431 2.336 1.431 1.503 2.162 3.474 2.06 5.549-.194 3.923-3.749 7.115-7.926 7.115z"/><path d="m512 215.658c0-8.012-4.213-15.055-10.537-19.042 6.854-10.521 10.537-22.544 10.537-34.819 0-9.911-1.611-18.164-5.34-26.954-4.42-10.418-11.137-19.201-19.443-25.89 14.043-17.989 19.246-42.416 12.04-65.431-1.237-3.952-5.442-6.15-9.398-4.916-3.953 1.237-6.154 5.445-4.916 9.398 3.412 10.898 3.402 22.614-.062 33.668-1.354-16.929-10.271-32.209-24.729-41.637-2.908-1.896-6.733-1.55-9.254.837-2.52 2.386-3.073 6.188-1.339 9.194 1.633 2.828 2.495 6.033 2.495 9.271 0 21.12-31.769 27.424-43.601 6.932-2.918-5.055-4.461-10.79-4.461-16.586 0-20.962 18.059-34.684 38.315-34.684 10.796 0 21.142 3.962 29.131 11.157 3.077 2.771 7.82 2.524 10.592-.554s2.523-7.82-.554-10.593c-10.748-9.678-24.659-15.009-39.168-15.009-10.206 0-20.296 2.711-29.179 7.84-14.645 8.456-24.137 24.218-24.137 41.844 0 23.991 17.343 44.14 41.23 44.14 2.994 0 5.947-.341 8.835-.997.214.567.398 1.143.528 1.731.018.083.025.165.042.248-15.076 1.416-29.329 7.985-40.236 18.682-5.646 0-8.087-.161-12.158.787-3.345-5.055-7.812-9.172-13.005-12.058 5.767-5.277 9.272-12.173 9.272-19.717 0-9.881-6.005-18.659-15.246-24.128 3.308-3.715 5.246-8.323 5.246-13.372 0-10.481-8.338-19.069-20-21.679v-4.321c0-4.142-3.358-7.5-7.5-7.5s-7.5 3.358-7.5 7.5v4.321c-11.661 2.61-20 11.198-20 21.679 0 5.048 1.938 9.656 5.246 13.372-9.241 5.469-15.246 14.247-15.246 24.128 0 5.462 1.843 10.584 5.045 15h-25.09c3.202-4.416 5.045-9.538 5.045-15 0-9.881-6.005-18.659-15.246-24.128 3.308-3.715 5.246-8.323 5.246-13.372 0-10.481-8.338-19.069-20-21.679v-4.321c0-4.142-3.358-7.5-7.5-7.5s-7.5 3.358-7.5 7.5v4.321c-11.661 2.61-20 11.198-20 21.679 0 5.048 1.938 9.656 5.246 13.372-9.241 5.469-15.246 14.247-15.246 24.128 0 5.462 1.843 10.584 5.045 15h-25.09c3.202-4.416 5.045-9.538 5.045-15 0-9.881-6.005-18.659-15.246-24.128 3.308-3.715 5.246-8.323 5.246-13.372 0-10.481-8.338-19.069-20-21.679v-4.321c0-4.142-3.358-7.5-7.5-7.5s-7.5 3.358-7.5 7.5v4.321c-11.661 2.61-20 11.198-20 21.679 0 5.048 1.938 9.656 5.246 13.372-9.241 5.469-15.246 14.247-15.246 24.128 0 7.543 3.506 14.44 9.272 19.717-5.194 2.885-9.661 7.003-13.006 12.058-4.08-.949-6.535-.787-12.093-.787-11.106-11.094-25.322-17.548-40.275-18.842.129-.582.242-1.023.545-1.825 16.822 3.792 34.741-3.719 43.593-19.052 13.48-23.349 5.177-52.74-17.666-65.93-27.912-16.113-63.733-6.515-79.849 21.397-14.709 25.476-12.089 57.12 5.803 79.827-15.563 12.333-24.824 31.208-24.824 51.672 0 12.862 3.478 25.246 10.449 35.937-6.274 3.997-10.449 11.011-10.449 18.986 0 10.146 6.753 18.743 16 21.539v16.922c-9.247 2.796-16 11.393-16 21.539 0 12.406 10.094 22.5 22.5 22.5h11.604c4.143 0 7.5-3.357 7.5-7.5s-3.357-7.5-7.5-7.5h-11.604c-4.136 0-7.5-3.364-7.5-7.5s3.364-7.5 7.5-7.5h45c12.824 0 23.114-10.767 22.473-23.623-.592-11.987-10.653-21.377-22.907-21.377h-44.566c-4.136 0-7.5-3.364-7.5-7.5s3.364-7.5 7.5-7.5h45c20.749 0 37.5 16.96 37.5 37.48 0 20.726-17.576 37.52-38.298 37.52h-2.599c-4.143 0-7.5 3.357-7.5 7.5s3.357 7.5 7.5 7.5c3.762 0 9.791.185 18.024-2.303.816 1.806 1.81 3.524 2.973 5.136-6.788 9.423-7.596 22.155-1.596 32.496h-2.504c-12.474 0-23.784 6.053-30.69 15.939-3.712-1.586-7.751-2.426-11.81-2.426h-8.5c-17.776 0-30 15-30 29.927 0 6.023 1.639 12.176 5.586 17.641-3.602 5.03-5.586 11.086-5.586 17.432 0 6.377 2.002 12.458 5.636 17.5-3.634 5.042-5.636 11.123-5.636 17.5s2.002 12.458 5.636 17.5c-3.634 5.042-5.636 11.123-5.636 17.5 0 16.542 13.458 30 30 30h452c16.542 0 30-13.458 30-30 0-6.377-2.002-12.458-5.636-17.5 3.633-5.042 5.636-11.123 5.636-17.5s-2.002-12.458-5.636-17.5c3.633-5.042 5.636-11.123 5.636-17.5 0-6.345-1.984-12.401-5.586-17.432 2.091-2.894 3.647-6.136 4.56-9.644.697-2.68 1.026-5.336 1.026-7.925 0-16.38-13.177-30-30-30h-8.5c-2.656 0-5.3.368-7.851 1.058-7.025-9.112-17.867-14.57-29.649-14.57h-7.503c2.562-4.417 4.036-9.538 4.036-15 0-6.375-2.001-12.455-5.633-17.496 1.163-1.612 2.157-3.33 2.973-5.136 5.005 1.513 10.221 2.303 15.425 2.303h44.202c12.406 0 22.5-10.094 22.5-22.5 0-10.146-6.753-18.743-16-21.539v-16.922c9.247-2.796 16-11.392 16-21.539zm-451.51 22.5h6.575c4.231 0 7.935 3.301 7.935 7.502 0 4.135-3.364 7.498-7.5 7.498h-7.01zm-29.49 0h14.49v15h-14.49zm38.718-223.14c30.662 0 46.841 28.714 33.829 51.252-10.591 18.34-38.241 15.525-42.963-2.096-1.285-4.796-.626-9.806 1.856-14.105 1.735-3.005 1.182-6.809-1.338-9.195-2.519-2.387-6.348-2.732-9.254-.837-14.05 9.161-23.033 23.99-24.646 40.687-.035.364-.067.728-.095 1.092-9.812-31.145 8.789-66.798 42.611-66.798zm-10.529 71.792-.009.002c-1.103 2.698-1.733 5.391-1.986 8.295-4.425.65-8.844 1.751-13.198 3.323-1.736-5.259-2.392-10.778-1.862-16.266.479-4.958 1.853-9.689 4.006-14.005 1.994 7.348 6.47 14.021 13.049 18.651zm22.049 46.711c-3.376 9.644-1.826 19.769 3.811 27.54-7.534 10.527-7.453 24.8.296 35.252-11.264-4.075-15.438-3.155-58.853-3.155-6.907-8.279-10.844-18.439-11.41-29.584-2.234-44.488 47.108-67.625 79.156-45.993-5.928 3.48-10.572 9.008-13 15.94zm-27.738 363.479h-23.5c-8.271 0-15-6.729-15-15 0-8.223 6.658-15 15-15h23.5zm0-45c-25.227 0-28.565-.745-36.266 2.875-2.98-4.815-2.981-10.934 0-15.751 7.89 3.71 12.021 2.876 36.266 2.876zm0-25c-24.78 0-27.614.959-32.92-3.331-3.546-2.868-5.58-7.122-5.58-11.669 0-8.285 6.715-15 15-15h23.5zm0-45h-23.5c-4.461 0-8.85 1.021-12.844 2.912-5.96-9.724.855-22.912 12.844-22.912h8.5c8.386 0 15 6.854 15 15zm412.366-313.83c4.515 9.057 5.564 19.727 2.19 30.118-4.24-1.491-8.673-2.558-13.248-3.17-.251-2.898-.884-5.61-1.987-8.305l-.01-.003c6.412-4.527 11.01-11.16 13.055-18.64zm26.986 72.531c7.591 17.893 4.704 37.703-7.434 52.457-43.898 0-47.67-.859-58.763 3.155 7.742-10.444 7.838-24.716.296-35.254 10.4-14.35 5.582-34.621-8.937-43.338 25.948-16.725 61.985-7.311 74.838 22.98zm-113.819 2.786c0-8.271 6.729-15 15-15h8.405c.038.001.074.001.11.001 12.841.013 18.312 14.148 12.858 22.927-4.001-1.901-8.401-2.928-12.874-2.928h-23.5v-5zm0 20h23.5c8.287 0 15 6.72 15 15 0 8.275-6.709 15-15 15h-23.5zm0 45c25.658 0 25.29.168 28.999-.527-3.237 3.135-6.074 6.678-8.418 10.527h-20.581zm0 25h14.389c-2.284 9.567-1.914 20.035 1.788 30h-16.178v-30zm0 45c25.843 0 23.703.014 24.812-.034 3.53 4.305 7.719 8.05 12.413 11.083-.278.63-.606 1.235-.969 1.821-3.97-1.865-8.33-2.871-12.756-2.871h-23.5zm0 25h23.5c8.363 0 15 6.794 15 15 0 8.269-6.727 14.997-15 15h-23.5zm-33.033-265.987c7.154 0 12.5 3.96 12.5 7.5s-5.346 7.5-12.499 7.5h-.002c-7.153 0-12.499-3.96-12.499-7.5s5.346-7.5 12.5-7.5zm.001 30c12.195 0 22.499 6.869 22.499 15s-10.304 15-22.5 15-22.5-6.869-22.5-15 10.304-15 22.501-15zm-90.001-30c7.154 0 12.5 3.96 12.5 7.5s-5.346 7.5-12.499 7.5h-.002c-7.153 0-12.499-3.96-12.499-7.5s5.346-7.5 12.5-7.5zm.001 30c12.195 0 22.499 6.869 22.499 15s-10.304 15-22.5 15-22.5-6.869-22.5-15 10.304-15 22.501-15zm-90.001-30c7.154 0 12.5 3.96 12.5 7.5s-5.346 7.5-12.499 7.5h-.002c-7.153 0-12.499-3.96-12.499-7.5s5.346-7.5 12.5-7.5zm.001 30c12.195 0 22.499 6.869 22.499 15s-10.304 15-22.5 15-22.5-6.869-22.5-15 10.304-15 22.501-15zm-10.001 45h200c7.129 0 13.658 3.336 17.849 8.812-6.027 5.491-9.816 13.398-9.816 22.175v190h-23.26c-.057-.117-.11-.236-.168-.353 8.129-24.583 5.121-51.531-8.157-73.728 4.007-5.425 6.175-12.142 6.175-19.359 0-.506.124-1.478.956-2.309 12.198-12.199 11.247-29.426.326-39.52 5.146-12.118.314-26.08-10.177-32.808 4.649-9.723 3.15-22.039-5.237-30.424-10.447-10.449-27.359-10.452-37.811-.002-2.382 2.382-4.725 4.659-6.991 6.86-9.087 8.829-17.484 16.996-23.186 27.203-5.754-10.267-14.233-18.533-23.409-27.469-2.176-2.118-4.42-4.303-6.712-6.595-10.448-10.448-27.361-10.449-37.811.001-8.223 8.224-9.959 20.513-5.209 30.454-10.849 6.961-15.388 20.89-10.369 32.781-10.823 10.054-11.764 27.261.492 39.518.831.831.955 1.803.955 2.308 0 6.864 1.965 13.272 5.602 18.547-13.68 22.324-16.892 49.538-8.717 74.402-.079.162-.146.329-.224.491h-23.136v-190c0-8.777-3.789-16.685-9.816-22.176 4.191-5.473 10.721-8.809 17.851-8.809zm46.438 97.547-13.722-14.597c-4.959-5.873-2.812-14.497 3.581-17.864l23.313 23.314c2.931 2.929 7.678 2.928 10.607 0 2.929-2.93 2.929-7.678 0-10.607l-27.037-28.103c-4.576-4.575-4.576-12.021 0-16.597 4.576-4.575 12.021-4.577 16.598 0 2.34 2.34 4.631 4.571 6.853 6.734 15.898 15.48 26.401 25.708 26.402 46.991v16.972c-22.888 1.702-43.639 11.886-58.918 28.84-1.422-5.16.689-11.291-6.023-18-5.652-5.65-5.633-12.288-1.949-16.773l9.365 9.962c2.84 3.021 7.586 3.163 10.602.328 3.018-2.836 3.164-7.583.328-10.6zm54.039 20.982c47.82.352 80.216 43.866 72.602 86.748-9.778-9.034-22.76-14.289-36.376-14.289h-74.203c-13.354 0-26.06 5.152-35.647 14.017-7.496-43.179 25.553-86.775 73.624-86.476zm-37.977 87.459h74.202c21.203 0 38.648 17.398 38.292 38.154-.355 20.733-17.384 36.846-37.494 36.846h-74.202c-21.197 0-38.648-17.482-38.292-38.154.354-20.586 17.334-36.846 37.494-36.846zm110.472-91.356c-3.449 3.45-5.349 8.037-5.349 12.916 0 2.104-.339 4.104-.956 5.955-15.072-17.146-35.737-27.604-58.635-29.613v-17.071c.001-21.348 10.388-31.438 26.109-46.713 2.305-2.238 4.688-4.554 7.146-7.012 4.576-4.578 11.999-4.597 16.597.001 4.584 4.584 4.591 12.006-.003 16.598l-28.1 28.478c-2.929 2.93-2.929 7.678 0 10.607 1.465 1.464 3.385 2.196 5.304 2.196s3.839-.732 5.304-2.196l23.917-23.917c6.173 2.94 8.647 10.807 4.821 16.794-1.005.674-.036-.249-15.564 16.27-2.837 3.018-2.69 7.764.328 10.602 3.012 2.833 7.76 2.694 10.602-.328l10.008-10.646c4.045 4.527 4.203 11.346-1.529 17.079zm-219.496-98.644h8.491c8.271 0 15 6.729 15 15v5c-24.194 0-28.418-.852-36.375 2.928-5.488-8.818.067-22.928 12.884-22.928zm-15.009 50c0-8.285 6.715-15 15-15h23.5v30h-23.5c-8.363 0-15-6.794-15-15zm9.502 29.473c3.736.701 3.478.527 28.998.527v10h-20.581c-2.344-3.849-5.18-7.392-8.417-10.527zm14.609 25.527h14.389v30h-16.181c3.703-9.967 4.074-20.44 1.792-30zm-10.425 44.966c1.1.049-.983.035 24.813.035v10c-24.719 0-28.526-.761-36.256 2.87-.363-.586-.692-1.191-.97-1.822 4.695-3.034 8.884-6.779 12.413-11.083zm1.314 25.034h23.5v30c-25.586-.001-23.347-.001-23.513-.001-8.264-.006-14.987-6.734-14.987-14.999 0-8.223 6.657-15 15-15zm7.533 193.512c-12.196 0-22.5-6.869-22.5-15s10.304-15 22.5-15 22.5 6.869 22.5 15-10.304 15-22.5 15zm-12.5-52.5c0-3.54 5.346-7.5 12.5-7.5s12.5 3.96 12.5 7.5-5.346 7.5-12.5 7.5-12.5-3.96-12.5-7.5zm61.507 52.5h-16.552c3.202-4.416 5.045-9.538 5.045-15 0-9.88-6.001-18.659-15.239-24.129 10.778-12.108 4.481-30.744-14.761-35.05v-4.321c0-4.142-3.358-7.5-7.5-7.5s-7.5 3.358-7.5 7.5v4.321c-19.236 4.306-25.539 22.94-14.76 35.05-9.239 5.47-15.24 14.249-15.24 24.129 0 5.462 1.843 10.584 5.045 15h-16.045v-120c0-6.711-2.251-13.147-6.298-18.362 4.1-6.275 11.074-10.15 18.798-10.15 59.047.001-1.734.001 85.541.001-.316 2.179-.496 4.38-.533 6.588-.281 16.339 7.43 31.869 20.258 41.952-12.833 12.601-20.259 29.95-20.259 48.177zm124.986 0h-69.986v-51.796c0-6.893 5.607-12.5 12.5-12.5h44.986c6.893 0 12.5 5.607 12.5 12.5zm40 0h-25v-51.796c0-15.163-12.337-27.5-27.5-27.5h-44.986c-15.163 0-27.5 12.337-27.5 27.5v51.796h-25v-51.795c0-15.631 7.036-30.424 18.982-40.363 6.166 2.407 12.637 3.646 19.309 3.646h74.202c6.476 0 12.747-1.18 18.713-3.475 11.819 9.935 18.78 24.663 18.78 40.191zm64.007 0c-12.196 0-22.5-6.869-22.5-15s10.304-15 22.5-15 22.5 6.869 22.5 15-10.304 15-22.5 15zm-12.5-52.5c0-3.54 5.346-7.5 12.5-7.5s12.5 3.96 12.5 7.5-5.346 7.5-12.5 7.5-12.5-3.96-12.5-7.5zm76-67.5c0-8.182 6.652-15 15-15h8.5c9.503 0 17.134 8.861 14.456 19.148-.348 1.337-.897 2.597-1.613 3.764-3.993-1.891-8.382-2.912-12.843-2.912h-23.5zm0 20h23.5c8.308 0 15 6.737 15 15 0 8.223-6.658 15-15 15h-23.5zm0 45c25.227 0 28.565.745 36.266-2.875 2.98 4.815 2.981 10.934 0 15.751-7.89-3.71-12.021-2.875-36.266-2.875zm0 25h23.5c8.363 0 15 6.794 15 15 0 8.271-6.729 15-15 15h-23.5zm-22.5-118.513c6.355 0 12.263 2.643 16.456 7.152-5.648 5.563-8.956 13.221-8.956 21.36v120h-16.045c3.202-4.416 5.045-9.538 5.045-15 0-9.88-6.001-18.659-15.239-24.129 10.778-12.108 4.481-30.744-14.761-35.05v-4.32c0-4.142-3.358-7.5-7.5-7.5s-7.5 3.358-7.5 7.5v4.321c-19.236 4.306-25.539 22.94-14.76 35.05-9.239 5.47-15.24 14.249-15.24 24.129 0 5.462 1.843 10.584 5.045 15h-16.552v-51.795c0-18.107-7.346-35.376-20.042-47.959 12.303-9.644 19.766-24.324 20.041-40.346.048-2.823-.143-5.636-.557-8.413zm8.935-125.329c-12.254 0-22.315 9.39-22.907 21.377-.649 13.166 9.944 23.623 22.473 23.623h45c4.136 0 7.5 3.364 7.5 7.5s-3.364 7.5-7.5 7.5h-44.202c-20.953 0-38.655-17.15-38.292-38.155.346-20.211 16.942-36.845 37.494-36.845h45c4.136 0 7.5 3.364 7.5 7.5s-3.364 7.5-7.5 7.5zm36.065 15v15h-15v-15zm-30 0v15h-6.5c-4.262 0-7.703-3.571-7.49-7.885.193-3.923 3.748-7.115 7.925-7.115z"/></g></g></svg>