<svg id="Capa_1" enable-background="new 0 0 512 512" height="512" viewBox="0 0 512 512" width="512" xmlns="http://www.w3.org/2000/svg"><g><g><path d="m56 234.5h60v64.59h-60z" fill="#e8b5b1"/><path d="m396 234.5h60v64.59h-60z" fill="#f2d4d3"/></g><g><path d="m351 136.492-15-60h-81l-34.255 34.861v86.317l35.255 36.83c28.375 4.763 50 29.427 50 59.155v79.837h90v-74.402c0-17.836 12.975-32.635 30-35.493 17.025 2.858 30 17.656 30 35.493v102.402h29.5v-273z" fill="#e8b5b1"/><path d="m240.745 111.354c0-13.24 5.53-25.877 15.255-34.861h-80l-15 60-134.5-8v273h29.5v-102.403c0-17.836 12.975-32.635 30-35.493 17.025 2.858 30 17.656 30 35.493v74.402h90v-79.837c0-29.728 21.625-54.392 50-59.155-9.768-9.768-15.255-23.016-15.255-36.83z" fill="#d6948c"/></g><g fill="#e8b5b1"><path d="m22.5 204.5c-8.284 0-15 6.716-15 15s6.716 15 15 15h123.5l15-15-15-15z"/><path d="m22.5 151.492h123.5l15-15-15-15h-123.5c-8.284 0-15 6.716-15 15s6.716 15 15 15z"/></g><g fill="#f2d4d3"><path d="m489.5 151.492h-123.5l-10-16.746 10-13.254h123.5c8.284 0 15 6.716 15 15 0 8.284-6.716 15-15 15z"/><path d="m489.5 234.5h-123.5l-10-15.004 10-14.996h123.5c8.284 0 15 6.716 15 15 0 8.284-6.716 15-15 15z"/></g><g><path d="m176 52.5-15-10-15 10v122h30z" fill="#f2d4d3"/><path d="m366 52.5-15-10-15 10v122h30z" fill="#d6948c"/></g><g fill="#e8b5b1"><path d="m161 17.5c-8.284 0-15 6.716-15 15v20h30v-20c0-8.284-6.716-15-15-15z"/><path d="m351 17.5c-8.284 0-15 6.716-15 15v20h30v-20c0-8.284-6.716-15-15-15z"/></g><g><path d="m176 204.5-15-10-15 10v138.992l15 10 15-10z" fill="#f2d4d3"/><path d="m366 204.5-15-10-15 10v138.992l15 10 15-10z" fill="#d6948c"/></g><g><path d="m182.5 324.207h-11.21l-22.29 22.289v54.996h57v-48c0-14.335-10.058-26.315-23.5-29.285z" fill="#f2d4d3"/><path d="m182.5 324.207c-2.094-.463-4.267-.714-6.5-.714h-30c-16.569 0-30 13.432-30 30v48h43v-48c0-14.336 10.058-26.316 23.5-29.286z" fill="#e8b5b1"/></g><g><path d="m372.5 324.207h-11.21l-22.29 22.289v54.996h57v-48c0-14.335-10.058-26.315-23.5-29.285z" fill="#f2d4d3"/><path d="m372.5 324.207c-2.094-.463-4.267-.714-6.5-.714h-30c-16.569 0-30 13.432-30 30v48h43v-48c0-14.336 10.058-26.316 23.5-29.286z" fill="#e8b5b1"/></g><g><path d="m366 174.5h-145l-15 15 15 15h145c8.284 0 15-6.716 15-15s-6.716-15-15-15z" fill="#f2d4d3"/><path d="m226 189.5c0-8.284 6.716-15 15-15h-95c-8.284 0-15 6.716-15 15s6.716 15 15 15h95c-8.284 0-15-6.716-15-15z" fill="#e8b5b1"/></g><g><path d="m487.5 368.768h-281.755l-20 30 20 36h298.755v-49c0-9.389-7.611-17-17-17z" fill="#e8b5b1"/><path d="m24.5 368.768c-9.389 0-17 7.611-17 17v49h198.245c0-17.677 0-50.51 0-66z" fill="#d6948c"/></g><g><path d="m235.745 504.5h208.755c33.137 0 60-26.863 60-60 0-.342 0-.451 0-.442v-7.558-1.732c-14.824-.125-29.61-5.883-40.853-17.294-21.427-21.857-56.121-23.165-79.147-3.402-6.579 5.648-22.945 26.557-58.576 18.439-10.96-1.567-21.012-6.641-29.342-15.121-22.8-23.209-60.027-22.892-82.895.25-2.474 2.503-5.136 4.736-7.943 6.705l-8.712 13.987v52z" fill="#7ce3ff"/><path d="m205.745 446.201c0-2.677 0-9.483 0-21.854-13.932 9.776-31.488 12.904-47.955 8.589.015-.015.029-.03.043-.045-9.773-2.544-19.104-7.698-26.731-15.479-22.672-23.011-59.915-23.115-82.689 0l-.061.062c-11.242 11.411-26.028 17.169-40.852 17.294v1.732 8c0 33.137 26.863 60 60 60h168.245c-18.827-13.449-30-35.162-30-58.299z" fill="#2ed0fc"/></g><g><path d="m485.5 306.268c4.143 0 7.5-3.357 7.5-7.5v-57.041c10.75-1.687 19-11.011 19-22.227s-8.25-20.54-19-22.227v-38.555c10.75-1.687 19-11.011 19-22.227 0-12.406-10.094-22.5-22.5-22.5h-116c0-6.754 0-70.82 0-81.492 0-9.777-6.271-18.114-15-21.21v-3.789c0-4.143-3.357-7.5-7.5-7.5s-7.5 3.357-7.5 7.5v3.79c-8.729 3.096-15 11.433-15 21.21v36.492h-145c0-13.66 0-22.993 0-36.492 0-9.777-6.271-18.114-15-21.21v-3.79c0-4.143-3.357-7.5-7.5-7.5s-7.5 3.357-7.5 7.5v3.79c-8.729 3.096-15 11.433-15 21.21v81.492h-32.5c-4.143 0-7.5 3.357-7.5 7.5s3.357 7.5 7.5 7.5h32.5v15h-116c-4.136 0-7.5-3.364-7.5-7.5s3.364-7.5 7.5-7.5h53.5c4.143 0 7.5-3.357 7.5-7.5s-3.357-7.5-7.5-7.5h-53.5c-12.406 0-22.5 10.094-22.5 22.5 0 11.216 8.25 20.54 19 22.227v38.555c-10.75 1.686-19 11.01-19 22.226s8.25 20.54 19 22.227v120.171c-10.869 2.504-19 12.252-19 23.87v58.732c0 37.22 30.28 67.5 67.5 67.5h377c37.22 0 67.5-30.28 67.5-67.5v-58.732c0-11.618-8.131-21.366-19-23.87v-33.13c0-4.143-3.357-7.5-7.5-7.5s-7.5 3.357-7.5 7.5v32.5h-14.5v-62.178c0-21.325-15.249-39.362-36.259-42.889-.822-.139-1.66-.139-2.482 0-21.01 3.526-36.259 21.563-36.259 42.889v24.423c-4.363-3.283-9.461-5.637-15-6.766v-74.747h104.5v56.768c0 4.142 3.357 7.5 7.5 7.5zm11.5-86.768c0 4.136-3.364 7.5-7.5 7.5h-116v-15h116c4.136 0 7.5 3.364 7.5 7.5zm-138.5 96.492h-15v-103.992h15v22.5zm-60 45.276h-85v-7.775-59.838c0-25.312 17.798-46.787 42.5-51.534 24.702 4.747 42.5 26.222 42.5 51.534v59.838zm-160-119.268v74.747c-5.539 1.129-10.637 3.483-15 6.766v-24.423c0-21.325-15.249-39.362-36.259-42.889-.822-.139-1.66-.139-2.482 0-21.01 3.527-36.259 21.564-36.259 42.889v62.178h-14.5v-119.268zm0-52.5c0-4.136 3.364-7.5 7.5-7.5h220c4.136 0 7.5 3.364 7.5 7.5s-3.364 7.5-7.5 7.5h-30-160-30c-4.136 0-7.5-3.364-7.5-7.5zm30-22.5h-15v-107h15zm175-107h15v107h-15zm43.71 137c.833-2.348 1.29-4.871 1.29-7.5 0-9.777-6.271-18.114-15-21.21v-9.298h104.5v38.008zm-233.71 15h15v103.992h-15v-81.492zm-45.996 79.59h-43.008c2.736-10.132 10.899-18.101 21.504-20.36 10.605 2.259 18.768 10.228 21.504 20.36zm-44.004 15h45v46.902 7.775h-45zm60 46.902c0-12.406 10.094-22.5 22.5-22.5h30c12.406 0 22.5 10.094 22.5 22.5v7.775h-75zm133.742-126.388c-.822-.139-1.662-.139-2.484 0-32.598 5.473-56.258 33.461-56.258 66.551v29.858c-4.363-3.283-9.461-5.637-15-6.766v-104.747h145v104.747c-5.539 1.129-10.637 3.483-15 6.766v-29.858c0-33.091-23.66-61.079-56.258-66.551zm232.258-98.112c4.136 0 7.5 3.364 7.5 7.5s-3.364 7.5-7.5 7.5h-116v-15zm-138.5-103.992c4.136 0 7.5 3.364 7.5 7.5v12.5h-15v-12.5c0-4.136 3.364-7.5 7.5-7.5zm-22.5 58.992v83.008h-145v-83.008zm-167.5-58.992c4.136 0 7.5 3.364 7.5 7.5v12.5h-15v-12.5c0-4.136 3.364-7.5 7.5-7.5zm-22.5 143.29c-8.729 3.096-15 11.433-15 21.21 0 2.629.458 5.152 1.29 7.5h-90.79v-38.008h104.5zm-123.5 51.21c0-4.136 3.364-7.5 7.5-7.5h116v15h-116c-4.136 0-7.5-3.364-7.5-7.5zm429.5 277.5h-377c-28.948 0-52.5-23.552-52.5-52.5v-2.727c14.656-1.771 28.191-8.375 38.708-19.049 19.444-19.833 51.962-20.437 72.039-.062 25.777 26.296 67.795 26.034 93.275.251 20.006-20.245 52.412-20.42 72.209-.267 9.256 9.423 20.772 15.382 33.323 17.245 35.449 7.951 54.454-10.251 62.584-18.034 20.879-19.972 52.441-18.219 71.167.881 10.505 10.663 24.039 17.265 38.694 19.036v2.726c.001 28.948-23.551 52.5-52.499 52.5zm52.5-111.232v40.875c-10.597-1.671-20.345-6.654-27.997-14.418-24.052-24.535-63.315-26.224-89.389-3.843-6.866 5.898-20.531 23.986-52.024 16.817-2.176-.499-14.071-1.268-25.657-13.064-25.253-25.707-67.285-26.374-93.579.234-19.937 20.174-52.397 19.684-71.908-.221-25.719-26.104-67.867-26.021-93.436.062-7.662 7.776-17.412 12.76-28.01 14.432v-40.875c0-5.238 4.262-9.5 9.5-9.5h463c5.238.001 9.5 4.262 9.5 9.501zm-93.5-24.5v-7.775-46.903h45v54.678zm22.5-90.038c10.605 2.257 18.768 10.228 21.504 20.359h-43.009c2.737-10.131 10.9-18.101 21.505-20.359zm-37.5 82.262v7.775h-75v-7.775c0-12.406 10.094-22.5 22.5-22.5h30c12.406 0 22.5 10.094 22.5 22.5z"/><path d="m206.552 142.246c4.143 0 7.5-3.357 7.5-7.5v-12c0-4.143-3.357-7.5-7.5-7.5s-7.5 3.357-7.5 7.5v12c0 4.143 3.357 7.5 7.5 7.5z"/><path d="m305.448 142.246c4.143 0 7.5-3.357 7.5-7.5v-12c0-4.143-3.357-7.5-7.5-7.5s-7.5 3.357-7.5 7.5v12c0 4.143 3.358 7.5 7.5 7.5z"/><path d="m278.118 135.315c2.722-3.122 2.396-7.86-.728-10.581-3.122-2.722-7.861-2.396-10.581.728-5.725 6.569-15.899 6.564-21.619 0-2.721-3.124-7.459-3.448-10.581-.728-3.123 2.721-3.449 7.459-.728 10.581 11.703 13.431 32.546 13.419 44.237 0z"/></g></g></svg>