<svg id="Capa_1" enable-background="new 0 0 512 512" height="512" viewBox="0 0 512 512" width="512" xmlns="http://www.w3.org/2000/svg"><g><g><g><path d="m45.5 321.63-10 62.935 10 59.935 22.5-20v-102.87z" fill="#efedff"/><path d="m23 321.63v102.87l22.5 20v-122.87z" fill="#d4d4ff"/><path d="m60.119 245.415c-.858-.868-2.047-2.083-3.369-3.439h-22.5l11.25 32.06h22.5v-12.574c0-6.202-3.93-12.049-7.881-16.047z" fill="#efedff"/><path d="m53.381 245.415c.858-.868 2.047-2.083 3.369-3.439-1.647-1.688-3.504-3.599-5.236-5.385-3.306-3.407-8.721-3.407-12.027 0-1.729 1.782-3.591 3.698-5.236 5.385-1.326 1.359-2.51 2.569-3.37 3.439-3.951 3.998-7.881 9.845-7.881 16.047v12.574h22.5v-12.574c0-6.202 3.93-12.049 7.881-16.047z" fill="#d4d4ff"/></g><g fill="#d4d4ff"><path d="m15.5 281.536h60c4.142 0 7.5-3.357 7.5-7.5s-3.358-7.5-7.5-7.5h-60c-4.142 0-7.5 3.357-7.5 7.5s3.358 7.5 7.5 7.5z"/><path d="m75.5 314.13h-60c-4.142 0-7.5 3.357-7.5 7.5s3.358 7.5 7.5 7.5h60c4.142 0 7.5-3.357 7.5-7.5s-3.358-7.5-7.5-7.5z"/></g></g><g><g><path d="m467 321.63-10 62.935 10 59.935 22.5-20v-102.87z" fill="#efedff"/><path d="m444.5 321.63v102.87l22.5 20v-122.87z" fill="#d4d4ff"/><path d="m481.619 245.415c-.858-.868-2.047-2.083-3.369-3.439h-22.5l11.25 32.06h22.5v-12.574c0-6.202-3.93-12.049-7.881-16.047z" fill="#efedff"/><path d="m474.881 245.415c.858-.868 2.047-2.083 3.369-3.439-1.647-1.688-3.504-3.599-5.236-5.385-3.306-3.407-8.721-3.407-12.027 0-1.729 1.782-3.591 3.698-5.236 5.385-1.326 1.359-2.51 2.569-3.37 3.439-3.95 3.998-7.881 9.845-7.881 16.047v12.574h22.5v-12.574c0-6.202 3.93-12.049 7.881-16.047z" fill="#d4d4ff"/></g><g fill="#d4d4ff"><path d="m437 281.536h60c4.142 0 7.5-3.357 7.5-7.5s-3.358-7.5-7.5-7.5h-60c-4.142 0-7.5 3.357-7.5 7.5s3.358 7.5 7.5 7.5z"/><path d="m497 314.13h-60c-4.142 0-7.5 3.357-7.5 7.5s3.358 7.5 7.5 7.5h60c4.142 0 7.5-3.357 7.5-7.5s-3.358-7.5-7.5-7.5z"/></g></g><g><path d="m163.49 265.279c-3.424-3.419-9.747-9.832-15.299-15.477-5.877-5.975-15.505-5.975-21.382 0-5.552 5.645-11.875 12.057-15.299 15.477-7.023 7.012-14.01 17.268-14.01 28.146 0 12.464 5.532 23.638 14 31.205h.999c-8.284 0-14.999 6.716-14.999 15v84.87h158.5v-159.221z" fill="#9ea2e3"/><path d="m414.5 339.63c0-8.284-6.716-15-15-15h1c11.799-10.545 24.334-35.044-.01-59.351-3.424-3.419-9.747-9.832-15.299-15.477-5.877-5.975-15.505-5.975-21.382 0-5.552 5.645-11.875 12.057-15.299 15.477h-92.51v159.221h158.5z" fill="#d4d4ff"/></g><g><circle cx="256" cy="42.108" fill="#ffce71" r="15"/></g><g><path d="m327.67 135.993c-11.235-10.873-33.782-33.07-50.602-49.661-11.682-11.524-30.454-11.524-42.136 0-11.764 11.604-26.348 25.946-37.885 37.242-.043 1.471.023 154.381.023 154.381h146.351c14.235-18.529 22.883-41.652 22.883-66.732 0-29.076-19.268-56.488-38.634-75.23z" fill="#efedff"/><path d="m327.699 294.631h-71.699l-41.699 27v102.869h143.397v-99.869c.001-16.569-13.431-30-29.999-30z" fill="#efedff"/><path d="m197.047 123.573c-4.959 4.855-9.339 9.151-12.716 12.42-19.366 18.742-38.635 46.154-38.635 75.23 0 33.316 15.256 63.182 38.606 83.408-16.569 0-30 13.431-30 27v102.869h101.698v-102.869c0-13.569 13.431-27 30-27h41.699c5.772-5 11.048-10.591 15.722-16.676-81.189-1.902-146.374-72.736-146.374-154.382z" fill="#d4d4ff"/></g><path d="m214.301 424.5v-41.544c0-17.311 9.93-33.088 25.539-40.574l16.16-7.751 16.159 7.751c15.609 7.486 25.539 23.263 25.539 40.574v41.544z" fill="#9ea2e3"/><g fill="#8288cb"><path d="m146.094 357.122-5.193-2.491-5.193 2.491c-5.016 2.406-8.207 7.476-8.207 13.039v14.339h26.801v-14.339c-.001-5.563-3.192-10.633-8.208-13.039z"/><path d="m376.292 357.122-5.193-2.491-5.193 2.491c-5.016 2.406-8.207 7.476-8.207 13.039v14.339h26.801v-14.339c0-5.563-3.192-10.633-8.208-13.039z"/></g><g><g><path d="m272.5 414.5h-250c-8.284 0-15 6.716-15 15v15l120 20 128.5-20z" fill="#d4d4ff"/></g><g><path d="m504.5 429.5c0-8.284-6.716-15-15-15h-218.5c-8.284 0-15 6.716-15 15v15l139.5 20 109-20z" fill="#efedff"/></g></g><g><path d="m7.5 444.5v45c0 8.284 6.716 15 15 15h151.801c22.091 0 40-17.909 40-40v-20z" fill="#18c08b"/><path d="m504.5 444.5v45c0 8.284-6.716 15-15 15h-151.801c-22.091 0-40-17.909-40-40v-20z" fill="#30cd9c"/></g><g><path d="m174.989 434.251c1.26-1.872 1.967-4.041 1.967-6.49 0-9.315-10.143-31.758-22.654-31.758s-22.654 22.443-22.654 31.758c0 2.448.706 4.617 1.966 6.49-2.892 5.264-4.595 10.621-4.595 14.086 0 8.949 11.319 14.057 25.283 14.057 13.963 0 25.283-5.109 25.283-14.057-.001-3.465-1.705-8.822-4.596-14.086z" fill="#009d6b"/><path d="m378.386 434.251c1.26-1.872 1.967-4.041 1.967-6.49 0-9.315-10.143-31.758-22.654-31.758s-22.654 22.443-22.654 31.758c0 2.448.706 4.617 1.966 6.49-2.892 5.264-4.595 10.621-4.595 14.086 0 8.949 11.319 14.057 25.283 14.057 13.963 0 25.283-5.109 25.283-14.057-.001-3.465-1.704-8.822-4.596-14.086z" fill="#009d6b"/><g fill="#0caf7b"><path d="m410.757 473.131c1.405-2.087 2.192-4.504 2.192-7.233 0-10.383-11.305-35.398-25.25-35.398s-25.25 25.015-25.25 35.398c0 2.729.787 5.147 2.192 7.233-3.223 5.867-5.122 11.838-5.122 15.701 0 9.974 12.617 15.668 28.18 15.668s28.18-5.694 28.18-15.668c0-3.863-1.899-9.834-5.122-15.701z"/><path d="m147.36 473.131c1.405-2.087 2.192-4.504 2.192-7.233 0-10.383-11.305-35.398-25.25-35.398s-25.25 25.015-25.25 35.398c0 2.729.787 5.147 2.192 7.233-3.223 5.867-5.122 11.838-5.122 15.701 0 9.974 12.617 15.668 28.18 15.668s28.18-5.694 28.18-15.668c-.001-3.863-1.899-9.834-5.122-15.701z"/></g></g><g><path d="m297.699 444.5h-83.398v25.192l54.793 20.328 68.605 14.48z" fill="#7ce3ff"/><path d="m214.301 469.692h-16.794l-23.206 34.808h94.793v-14.48z" fill="#2ed0fc"/><path d="m214.301 444.5-16.794 25.192 71.587 34.808h68.605z" fill="#b9f0ff"/></g><g><path d="m504.5 464.803c4.143 0 7.5-3.357 7.5-7.5v-27.803c0-9.777-6.271-18.114-15-21.21v-79.16c4.143 0 7.5-3.357 7.5-7.5s-3.357-7.5-7.5-7.5v-32.594c4.143 0 7.5-3.357 7.5-7.5s-3.357-7.5-7.5-7.5v-5.074c0-9.702-6.294-17.521-10.046-21.318-1.915-1.938-5.452-5.574-8.559-8.776-6.258-6.448-16.533-6.448-22.792.001-3.105 3.201-6.643 6.837-8.558 8.775-3.751 3.797-10.045 11.616-10.045 21.318v5.074c-4.143 0-7.5 3.357-7.5 7.5s3.357 7.5 7.5 7.5v32.594c-4.143 0-7.5 3.357-7.5 7.5s3.357 7.5 7.5 7.5v77.87h-15v-67.37c0-7.32-3.515-13.832-8.944-17.944 5.757-8.227 8.944-18.081 8.944-28.261 0-15.023-10.156-27.408-16.21-33.452-3.577-3.572-10.269-10.361-15.252-15.429-5.079-5.164-12.339-7.688-19.941-6.366 2.107-8.771 3.208-17.809 3.208-26.956 0-35.691-25.637-65.83-40.919-80.619-11.182-10.821-33.661-32.951-50.551-49.61-5.346-5.275-11.928-8.601-18.835-9.991v-7.685c8.729-3.096 15-11.433 15-21.21s-6.271-18.114-15-21.21v-13.397c0-4.143-3.357-7.5-7.5-7.5s-7.5 3.357-7.5 7.5v13.397c-8.729 3.096-15 11.433-15 21.21s6.271 18.114 15 21.21v7.686c-6.906 1.391-13.489 4.716-18.835 9.989-16.89 16.66-39.369 38.79-50.551 49.611-15.282 14.789-40.919 44.928-40.919 80.619 0 9.146 1.101 18.185 3.208 26.956-7.663-1.333-14.904 1.249-19.939 6.364l-3.879 3.941c-2.904 2.953-2.866 7.701.087 10.606 2.952 2.903 7.701 2.867 10.606-.087l3.876-3.939c2.942-2.988 7.745-2.993 10.689-.002 2.407 2.448 4.949 5.029 7.347 7.458 4.926 10.018 11.298 19.38 18.964 27.788-11.46 4.95-20.172 15.161-21.991 26.822h-32.621c-6.088-6.376-9.542-14.868-9.542-23.706-.001-4.2 1.465-8.738 4.356-13.49 2.153-3.538 1.03-8.152-2.509-10.306-3.536-2.151-8.151-1.031-10.306 2.509-4.342 7.135-6.543 14.298-6.542 21.288 0 10.18 3.187 20.034 8.944 28.261-5.428 4.113-8.943 10.626-8.943 17.945v67.37h-14.5v-77.87c4.143 0 7.5-3.357 7.5-7.5s-3.357-7.5-7.5-7.5v-32.594c4.143 0 7.5-3.357 7.5-7.5s-3.357-7.5-7.5-7.5v-5.074c0-9.702-6.294-17.521-10.046-21.318-1.915-1.938-5.452-5.574-8.559-8.776-6.258-6.448-16.533-6.448-22.792.001-3.105 3.201-6.643 6.837-8.558 8.775-3.751 3.797-10.045 11.616-10.045 21.318v5.074c-4.143 0-7.5 3.357-7.5 7.5s3.357 7.5 7.5 7.5v32.594c-4.143 0-7.5 3.357-7.5 7.5s3.357 7.5 7.5 7.5v78.991c-8.989 2.95-15.5 11.417-15.5 21.379v60c0 12.406 10.094 22.5 22.5 22.5h467c12.406 0 22.5-10.094 22.5-22.5v-2.197c0-4.143-3.357-7.5-7.5-7.5s-7.5 3.357-7.5 7.5v2.197c0 4.136-3.364 7.5-7.5 7.5h-67.998c3.731-7.583 1.256-16.222-2.343-23.888 2.517-6.671.941-13.947-1.635-21.112h79.476v5.303c0 4.142 3.357 7.5 7.5 7.5zm-52.5-203.341c0-3.125 2.137-7.153 5.716-10.775 4.471-4.526 6.709-7.13 7.962-8.37.326-.323.762-.503 1.221-.503.468 0 .913.187 1.239.523 3.011 3.102 6.313 6.495 8.146 8.35 3.579 3.622 5.716 7.65 5.716 10.775v5.074h-30zm0 20.074h30v32.594h-30zm0 47.594h30v77.87h-30zm-82.843-74.068c2.938-2.988 7.746-2.989 10.687 0 5.005 5.09 11.731 11.914 15.348 15.525 3.55 3.545 11.809 12.867 11.809 22.838 0 8.837-3.454 17.329-9.542 23.705h-33.015c-2.449-12.016-10.665-21.952-21.617-26.801 7.675-8.414 14.053-17.784 18.983-27.81 2.398-2.429 4.94-5.01 7.347-7.457zm15.343 136.938c4.143 0 7.5-3.357 7.5-7.5v-14.339c0-8.398-4.893-16.171-12.464-19.802l-5.193-2.491c-2.051-.982-4.438-.983-6.488.001l-2.656 1.274v-17.013h34.301c4.136 0 7.5 3.364 7.5 7.5v67.37h-25.429c-3.2-5.961-7.535-11.557-12.802-15zm-19.302-15v-6.839c0-2.662 1.551-5.126 3.952-6.277l1.948-.935 1.951.936c2.399 1.15 3.95 3.614 3.95 6.276v6.839zm-109.198-342.393c4.136 0 7.5 3.364 7.5 7.5s-3.364 7.5-7.5 7.5-7.5-3.364-7.5-7.5 3.364-7.5 7.5-7.5zm-91.728 222.524c-2.459-4.837-4.529-9.852-6.19-15h26.219c4.143 0 7.5-3.357 7.5-7.5s-3.357-7.5-7.5-7.5h-29.828c-.842-5.233-1.279-10.55-1.279-15.908 0-9.023 2.122-17.767 5.393-25.901h17.622c4.143 0 7.5-3.357 7.5-7.5s-3.357-7.5-7.5-7.5h-10.037c4.217-6.94 8.927-13.104 13.279-18.19h26.562c4.143 0 7.5-3.357 7.5-7.5s-3.357-7.5-7.5-7.5h-12.09c4.347-4.233 9.637-9.412 15.331-15h26.934c4.143 0 7.5-3.357 7.5-7.5s-3.357-7.5-7.5-7.5h-11.677c5.425-5.341 10.791-10.63 15.687-15.46 8.713-8.594 22.891-8.595 31.604.001 14.935 14.732 34.235 33.735 46.274 45.459h-22.09c-4.143 0-7.5 3.357-7.5 7.5s3.357 7.5 7.5 7.5h36.562c3.673 4.292 7.598 9.354 11.27 15h-16.959c-4.143 0-7.5 3.357-7.5 7.5s3.357 7.5 7.5 7.5h25.195c4.031 9.02 6.75 18.876 6.75 29.092 0 5.358-.437 10.675-1.279 15.908h-19.828c-4.143 0-7.5 3.357-7.5 7.5s3.357 7.5 7.5 7.5h16.219c-1.661 5.148-3.73 10.163-6.19 15h-54.505c-4.143 0-7.5 3.357-7.5 7.5s3.357 7.5 7.5 7.5h45.2c-3.996 5.367-8.531 10.397-13.577 15h-137.69c-5.045-4.603-9.581-9.633-13.577-15h36.2c4.143 0 7.5-3.357 7.5-7.5s-3.357-7.5-7.5-7.5h-45.505zm-2.47 127.369v-14.339-48.53c0-9.018 9.828-19.5 22.5-19.5h143.396c12.406 0 22.5 10.094 22.5 22.5v45.53 14.339 5.593c-6.894 2.949-12.476 9.65-16.372 16.907h-28.627v-24.044c0-20.074-11.696-38.655-29.797-47.337l-16.159-7.751c-2.049-.982-4.438-.982-6.486 0l-16.159 7.751c-18.101 8.682-29.797 27.263-29.797 47.337v24.044h-28.627c-3.896-7.257-9.478-13.958-16.372-16.907zm21.962 37.5h144.473c-.451 2.154-.691 4.12-.691 5.762 0 2.251.366 4.404 1.093 6.439-.435.941-.822 1.874-1.185 2.799-16.892 0-125.73 0-142.906 0-.363-.925-.75-1.857-1.185-2.799 1.478-4.139 1.286-7.971.401-12.201zm38.037-15v-24.044c0-14.339 8.354-27.611 21.283-33.812l12.916-6.195 12.916 6.195c12.929 6.2 21.283 19.473 21.283 33.812v24.044zm-116.801-67.37c0-4.136 3.364-7.5 7.5-7.5h34.302v17.014l-2.656-1.274c-2.051-.984-4.438-.983-6.488-.001l-5.191 2.491c-7.574 3.63-12.467 11.403-12.467 19.801v14.339c0 4.143 3.357 7.5 7.5 7.5h15.731c-5.267 3.443-9.602 9.039-12.802 15h-25.429zm41.802 30.531v6.839h-11.802v-6.839c0-2.662 1.551-5.126 3.952-6.276l1.949-.936 1.95.936c2.4 1.15 3.951 3.614 3.951 6.276zm-116.302-108.699c0-3.125 2.137-7.153 5.716-10.775 1.937-1.96 5.513-5.637 8.652-8.872.359-.369.905-.368 1.263-.001 3.141 3.236 6.717 6.913 8.653 8.873 3.579 3.622 5.716 7.65 5.716 10.775v5.074h-30zm0 20.074h30v32.594h-30zm0 47.594h30v77.87h-30zm62.341 143.982c-3.614 7.699-6.064 16.322-2.343 23.888h-67.998c-4.136 0-7.5-3.364-7.5-7.5v-37.5h79.476c-1.909 5.308-2.925 10.299-2.925 13.897 0 2.53.432 4.943 1.29 7.215zm-77.841-36.112v-7.5c0-4.136 3.364-7.5 7.5-7.5h102.339c-.072.343-.141.683-.201 1.016-9.379-.164-16.994 6.257-22.445 13.984zm109.302 60c-12.773 0-20.681-4.24-20.681-8.168 0-2.146 1.312-6.844 4.195-12.09 1.352-2.46 1.217-5.47-.351-7.799-4.102-6.093 8.301-30.943 16.837-30.943 8.472 0 20.883 24.932 16.835 30.943-1.567 2.329-1.702 5.339-.351 7.799 2.883 5.246 4.195 9.944 4.195 12.09 0 3.928-7.906 8.168-20.679 8.168zm14.743-68.054c.061-.387.102-.78.102-1.184 0-7.382 8.795-24.258 15.154-24.258 7.143 0 17.712 21.734 14.465 26.561-1.568 2.329-1.703 5.339-.352 7.8 2.692 4.897 3.669 8.947 3.669 10.474 0 3.022-6.943 6.371-16.993 6.541-2.834-9.2-8.569-19.66-16.045-25.934zm19.059 68.054c3.731-7.583 1.256-16.222-2.343-23.888.399-1.058.697-2.15.911-3.267 16.421-.604 27.867-7.494 30.034-17.846h13.581l-30 45h-12.183zm112.717 0-41.448-20.153c-3.723-1.812-8.213-.259-10.024 3.466s-.26 8.213 3.466 10.024l13.703 6.663h-48.203l28.592-42.889 37.133 18.049c3.698 1.796 8.19.316 10.02-3.461 1.819-3.742.266-8.208-3.46-10.029l-13.723-6.67h46.808l30 45zm83.075 0h-12.183l-30-45h13.581c2.167 10.352 13.613 17.241 30.034 17.846.214 1.117.512 2.208.911 3.267-3.615 7.699-6.065 16.322-2.343 23.887zm-13.98-48.662c0-1.526.977-5.576 3.668-10.475 1.352-2.46 1.217-5.469-.35-7.797-3.265-4.85 7.337-26.562 14.465-26.562 6.356 0 15.153 16.866 15.153 24.258 0 .404.041.797.102 1.184-7.476 6.276-13.21 16.734-16.046 25.933-10.049-.171-16.992-3.519-16.992-6.541zm47.783 48.662c-12.773 0-20.681-4.24-20.681-8.168 0-2.146 1.312-6.844 4.195-12.09 1.352-2.46 1.217-5.47-.351-7.799-4.144-6.155 8.561-30.943 16.836-30.943 8.56 0 20.918 24.88 16.835 30.943-1.567 2.329-1.702 5.339-.351 7.799 2.883 5.246 4.195 9.944 4.195 12.09.002 3.928-7.904 8.168-20.678 8.168zm22.109-60c-5.453-7.731-13.068-14.147-22.445-13.984-.061-.333-.13-.673-.202-1.016h102.339c4.136 0 7.5 3.364 7.5 7.5v7.5z"/><path d="m284.31 471.029c-5.083 0-8.789 5.027-7.1 9.96 1.096 3.138 4.024 5.051 7.09 5.051 5.164 0 8.762-5.076 7.09-9.96-1.063-3.092-3.993-5.051-7.08-5.051z"/><path d="m223.371 195.531c-3.122-2.722-7.86-2.396-10.582.727-4.391 5.041-12.197 5.037-16.585 0-2.722-3.122-7.46-3.448-10.582-.727s-3.448 7.459-.727 10.582c10.371 11.899 28.839 11.89 39.202 0 2.722-3.123 2.396-7.86-.726-10.582z"/><path d="m327.104 206.113c2.722-3.123 2.396-7.86-.727-10.582s-7.86-2.396-10.582.727c-4.391 5.04-12.197 5.037-16.585 0-2.722-3.122-7.46-3.448-10.582-.727s-3.448 7.459-.727 10.582c10.373 11.9 28.841 11.89 39.203 0z"/><path d="m239.019 215.654c8.945 10.263 24.873 10.252 33.809 0 2.722-3.123 2.396-7.86-.727-10.582-3.125-2.722-7.86-2.396-10.582.727-2.965 3.404-8.23 3.4-11.191 0-2.723-3.122-7.46-3.447-10.582-.727-3.123 2.722-3.449 7.459-.727 10.582z"/></g></g></svg>