<svg id="Capa_1" enable-background="new 0 0 512 512" height="512" viewBox="0 0 512 512" width="512" xmlns="http://www.w3.org/2000/svg"><g><g><path d="m494.652 126.806-10-10h-89.879v89.879l10.244 9.756c13.13 13.13 34.418 13.13 47.549 0l42.085-42.086c13.131-13.13 13.131-34.419.001-47.549z" fill="#ffce71"/><path d="m428.677 60.83c-27.743-27.744-65.371-43.33-104.607-43.33h-13.475c-8.808 0-16.888 5.103-20.464 13.152-13.045 29.358-37.85 52.328-68.434 62.941v94.201h153.24l19.836 18.89 89.879-89.879z" fill="#ffb5c0"/></g><g><path d="m17.348 126.806c-13.13 13.13-13.13 34.419 0 47.549l42.086 42.086c13.13 13.13 34.419 13.13 47.549 0l7.34-7.538v-89.535h-89.536z" fill="#ffb357"/><path d="m95.241 48.912-70.455 70.455 89.536 89.535 20.554-21.107h53.054v-170.295c-39.235 0-64.945 3.668-92.689 31.412z" fill="#ff8e9e"/></g><path d="m256 355.856h-37.809v128.169l73.192 19.224c23.688-1.668 46.921-4.988 69.578-9.861 18.389-3.955 31.482-20.279 31.482-39.089v-41.281z" fill="#70dcba"/><path d="m238.191 413.334v-48.007l-127.291 67.69v19.337c0 18.598 12.824 34.71 30.929 38.966 31.095 7.311 63.32 11.688 96.362 12.854 5.912.208 11.846.326 17.809.326 11.898 0 23.695-.428 35.384-1.251-32.806-18.024-53.193-52.484-53.193-89.915z" fill="#30cd9c"/><g><path d="m248.191 80.396c-18.856-14.707-33.078-35.081-40.106-58.562-2.541-8.49-10.312-14.334-19.174-14.334h-48.01c-11.046 0-20 8.954-20 20v83.942c0 28.797 1.42 57.25 13.975 81.353 4.324 8.3 10.333 16.644 17.562 23.546-.149.113-.297-.113-.446 0-26.017 19.932-41.092 46.987-41.092 79.762v136.915c43.738 0 86.707-7.303 127.291-21.21v-15.95l39.451-.001c36.867 11.271 75.524 17.161 114.801 17.161v-98.934z" fill="#ffb357"/><path d="m359.909 216.341c-.116-.089-.231.088-.347 0 6.917-6.604 11.999-13.782 15.375-23.546 8.56-24.751 7.506-58.745 7.506-87.77h-62.533c-27.039 0-51.931-9.195-71.719-24.63v31.047c0 28.797 1.419 57.25 13.975 81.353 4.324 8.3 10.333 16.644 17.562 23.546-.148.113-.297-.113-.446 0-26.017 19.932-41.091 46.987-41.091 79.762v115.705c13.431-4.602 26.601-9.926 39.451-15.951 42.473-19.915 81.447-47.471 114.801-81.772v-17.981c0-25.956-11.926-63.987-32.534-79.763z" fill="#ffce71"/></g><g fill="#ff8e9e"><path d="m176.443 142.483c-16.212 0-29.355 10.466-29.355 23.376 0 12.911 13.142 23.377 29.355 23.377 16.212 0 29.355-10.466 29.355-23.377 0-12.91-13.142-23.376-29.355-23.376z"/><path d="m335.557 142.483c-16.212 0-29.355 10.466-29.355 23.376 0 12.911 13.143 23.377 29.355 23.377s29.355-10.466 29.355-23.377c-.001-12.91-13.143-23.376-29.355-23.376z"/></g><g><path d="m193.551 123.856c-4.143 0-7.5 3.357-7.5 7.5v12c0 4.143 3.357 7.5 7.5 7.5s7.5-3.357 7.5-7.5v-12c0-4.142-3.358-7.5-7.5-7.5z"/><path d="m325.948 143.356v-12c0-4.143-3.357-7.5-7.5-7.5s-7.5 3.357-7.5 7.5v12c0 4.143 3.357 7.5 7.5 7.5s7.5-3.357 7.5-7.5z"/><path d="m278.118 147.926c2.722-3.122 2.396-7.86-.728-10.581-3.122-2.722-7.861-2.397-10.581.728-5.726 6.569-15.898 6.563-21.619 0-2.721-3.124-7.459-3.448-10.581-.728-3.123 2.721-3.449 7.459-.728 10.581 11.703 13.43 32.546 13.419 44.237 0z"/><path d="m499.956 121.502-24.728-24.728c-2.93-2.928-7.678-2.928-10.607 0-2.929 2.93-2.929 7.678 0 10.607l9.424 9.424-79.4 79.4-10.074-9.594c4.944-19.704 5.414-43.077 5.414-63.9 0 0-.042-7.995-.042-42.316 0-4.143-3.357-7.5-7.5-7.5s-7.5 3.357-7.5 7.5v17.13h-55.033c-21.266 0-41.566-6.323-58.774-17.354 15.352-12.315 27.584-28.058 35.667-46.069 2.481-5.529 7.89-9.103 13.778-9.103h13.488c37.512 0 72.779 14.608 99.304 41.134l20.034 20.034c1.465 1.464 3.385 2.196 5.304 2.196s3.839-.732 5.304-2.196c2.929-2.93 2.929-7.678 0-10.607l-20.034-20.034c-29.358-29.358-68.392-45.526-109.911-45.526h-13.488c-11.787 0-22.567 7.05-27.464 17.96-7.644 17.032-19.506 31.759-34.469 42.912-15.46-13.298-27.3-30.882-33.378-51.188-3.525-11.774-14.118-19.684-26.361-19.684h-48.01c-14.32 0-26.113 11.004-27.381 24.999-8.105 4.771-15.857 10.885-23.582 18.609l-77.894 77.894c-8.016 8.018-12.043 18.644-12.043 29.078 0 10.53 4.027 21.061 12.044 29.078l42.086 42.086c16.615 16.613 43.352 15.448 58.226-.071l19.131-19.646c2.893 4.755 6.171 9.271 9.749 13.404-24.787 21.452-37.835 49.191-37.835 80.672v45.271c0 4.143 3.357 7.5 7.5 7.5s7.5-3.357 7.5-7.5v-45.271c0-28.367 12.49-53.285 36.19-72.262h37.847c4.143 0 7.5-3.357 7.5-7.5s-3.357-7.5-7.5-7.5h-36.9c-25.105-25.927-27.137-61.502-27.137-97.398 0-7.308 0-76.482 0-83.942 0-6.893 5.607-12.5 12.5-12.5h48.01c5.563 0 10.382 3.61 11.99 8.984 14.999 50.111 61.778 88.541 119.01 88.541h55.05c.003 1.369.025 6.052.025 10.187 0 18.027-.137 47.396-7.136 67.632-2.452 7.088-6.022 12.893-11.397 18.497h-134.015c-4.143 0-7.5 3.357-7.5 7.5s3.357 7.5 7.5 7.5h134.783c11.466 9.94 19.974 28.223 24.365 46.354-14.643 17.224-30.957 33.121-48.58 47.262-3.23 2.593-3.748 7.312-1.155 10.544 2.591 3.228 7.31 3.748 10.544 1.155 15.083-12.103 29.246-25.444 42.286-39.767.172 2.305.263 4.552.263 6.714v14.908c-70.18 71.026-166.782 112.443-266.543 114.425v-15.057c30.307-.606 60.331-4.871 89.357-12.72 3.998-1.081 6.363-5.199 5.282-9.198-1.082-3.999-5.204-6.357-9.198-5.282-27.75 7.504-56.458 11.593-85.441 12.195v-24c0-4.143-3.357-7.5-7.5-7.5s-7.5 3.357-7.5 7.5v80.98c0 22.16 15.097 41.186 36.712 46.267 37.835 8.894 77.008 13.378 115.887 13.378 35.821 0 71.768-3.802 106.539-11.28 21.674-4.661 37.404-24.184 37.404-46.421v-158.196c0-25.946-10.848-61.291-29.5-80.388 3.554-4.228 6.418-8.688 8.729-13.53l20.61 19.627c16.054 15.981 42.016 16.002 58.088-.067l42.086-42.087c7.767-7.768 12.044-18.095 12.044-29.077 0-10.983-4.277-21.31-12.044-29.079zm-398.31 89.669c-10.19 10.153-26.737 10.139-36.908-.034l-42.086-42.086c-10.186-10.185-10.186-26.757-.001-36.941l2.136-2.136 79 78.999zm12.606-12.946-78.858-78.858 65.151-65.15c4.281-4.281 8.543-7.969 12.855-11.154v68.381c0 24.417.926 52.057 10.939 76.423zm270.691 256.074c0 15.216-10.749 28.571-25.559 31.757-33.715 7.251-68.597 10.944-103.384 10.944-37.629 0-75.649-4.328-112.455-12.98-14.805-3.48-25.145-16.502-25.145-31.665v-11.915c55.079-1.016 108.843-13.19 159.798-36.6 7.351 2.19 14.752 4.165 22.198 5.927-24.374 12.48-49.973 22.568-76.351 30.059-3.984 1.132-6.298 5.279-5.166 9.264s5.278 6.298 9.264 5.166c33.169-9.419 65.15-22.805 95.113-39.78 20.355 3.575 40.968 5.584 61.687 5.972zm0-102.063c-3.094 2.723-6.226 5.422-9.371 8.027-3.189 2.643-3.633 7.371-.99 10.561 1.483 1.79 3.623 2.715 5.779 2.715 1.609 0 3.221-.532 4.582-1.587v33.489c-20.712-.402-41.314-2.481-61.642-6.193-.075-.014-.149-.028-.224-.04-8.266-1.515-16.484-3.302-24.647-5.357 31.491-16.667 60.452-37.376 86.513-61.899zm104.406-183.185-42.086 42.086c-9.479 9.481-25.467 10.974-37.073-.128l-4.678-4.455 79.141-79.141 4.696 4.695c10.207 10.207 10.212 26.733 0 36.943z"/></g></g></svg>