<svg id="Capa_1" enable-background="new 0 0 512 512" height="512" viewBox="0 0 512 512" width="512" xmlns="http://www.w3.org/2000/svg"><g><g><path d="m444.702 162.695-65.383 13.044-72.7 72.701 111.837-9.292 49.868-4.143c19.938-1.657 35.308-18.97 35.527-38.975.021-30.229-33.47-49.281-59.149-33.335z" fill="#fce3a0"/><path d="m392.362 110.355c15.946-25.68-3.107-59.17-33.335-59.149-20.005.219-37.318 15.59-38.975 35.527l-2.786 33.53c2.647-31.907-36.214-49.611-58.975-27.092-10.23 10.261-13.103 26.278-6.873 39.36l55.199 115.908 73.117-73.117z" fill="#ffb357"/><path d="m461.66 93.397c-18.424-18.295-49.489-14.942-63.186 7.116l-91.856 147.926 147.926-91.856c22.058-13.697 25.412-44.762 7.116-63.186z" fill="#ffce71"/></g><g><path d="m68.888 263.999-.025 174.543c61.292 14.792 124.008 22.279 187.137 22.253 62.301-.025 125.003-7.366 187.137-22.253l.212-174.543z" fill="#ff6f4d"/><path d="m502.725 327.085c-4.844-30.699-36.968-68.432-84.27-87.937l-162.341.005v60.552c76.85 35.585 133.737 71.669 187.022 138.838 22.895-11.587 43.087-28.491 53.566-52.806 7.194-16.69 9.911-36.283 6.023-58.652z" fill="#fad5cb"/><path d="m380.576 184.651c-35.939-13.182-82.489-22.565-124.488-22.563l-140.699 41.879v138.708l22.736 26.754c37.593-29.077 80.377-54.029 128.752-74.366 48.995-21.144 103.857-37.489 151.578-55.916 0-24.306-15.059-46.126-37.879-54.496z" fill="#ffb39d"/><path d="m256.088 162.088c-50.066-.13-99.183 12.137-137.029 32.498-74.322 38.879-108.212 99.279-111.262 146.1-1.269 16.876 1.592 31.904 7.34 45.075 10.65 24.405 31.182 41.187 53.726 52.781 21.759-28.285 41.948-47.376 66.526-66.982.905-.71 1.828-1.404 2.739-2.109-8.099-81.502 36.175-161.815 117.96-207.363z" fill="#ff8f71"/></g><g><g><g><ellipse cx="176.443" cy="392.423" fill="#ffdbe0" rx="29.355" ry="23.377"/></g><g><ellipse cx="335.557" cy="392.423" fill="#ffdbe0" rx="29.355" ry="23.377"/></g></g></g><g><path d="m186.051 368.918v12c0 4.143 3.358 7.5 7.5 7.5s7.5-3.357 7.5-7.5v-12c0-4.143-3.358-7.5-7.5-7.5s-7.5 3.357-7.5 7.5z"/><path d="m310.949 368.918v12c0 4.143 3.358 7.5 7.5 7.5s7.5-3.357 7.5-7.5v-12c0-4.143-3.358-7.5-7.5-7.5s-7.5 3.357-7.5 7.5z"/><path d="m266.81 375.634c-5.725 6.569-15.9 6.564-21.62 0-2.722-3.122-7.459-3.447-10.582-.727-3.123 2.722-3.448 7.459-.727 10.582 11.703 13.429 32.545 13.416 44.237 0 2.721-3.123 2.396-7.86-.727-10.582-3.122-2.72-7.86-2.396-10.581.727z"/><path d="m510.123 325.855c-4.67-29.422-30.007-60.562-64.619-81.43l23.44-1.947c23.515-1.954 42.142-22.321 42.406-46.444.017-24.22-17.862-42.42-39.136-45.994 12.966-18.355 11.868-44.707-5.271-61.965-17.122-17.003-43.47-18.271-61.927-5.233-3.568-21.231-21.701-39.135-46.038-39.135-.011 0-.024 0-.034 0-22.642.249-44.252 16.973-46.5 43.997-16.078-15.681-42.393-16.718-59.465.173-12.603 12.641-15.952 31.883-8.333 47.88l8.973 18.843c-59.057.312-116.481 16.398-165.111 49.535-3.423 2.333-4.307 6.998-1.975 10.421 2.333 3.423 6.997 4.308 10.422 1.975 82.449-56.18 188.848-58.651 281.036-24.838 8.315 3.05 15.476 8.211 20.981 14.742-12.926 4.847-27.462 9.888-42.738 15.183l-.053.018c-3.914 1.357-5.96 5.62-4.604 9.534 1.357 3.914 5.655 5.978 9.569 4.621 16.444-5.7 32.022-11.106 45.804-16.338 1.946 4.607 3.233 9.529 3.747 14.626-92.141 34.728-246.527 72.715-343.846 194.865-4.534-2.558-8.759-5.266-12.71-8.103 19.38-24.521 42.167-47.26 67.809-67.639 3.243-2.577 3.782-7.295 1.205-10.538-2.576-3.243-7.296-3.782-10.537-1.205-26.473 21.039-50.024 44.529-70.083 69.876-18.381-17.302-27.535-38.785-27.535-62.823 0-43.643 26.172-85.11 59.027-114.182 3.103-2.745 3.392-7.484.647-10.586-2.746-3.103-7.485-3.393-10.587-.647-36.155 31.991-64.087 77.481-64.087 125.415 0 43.618 25.867 76.828 65.523 96.739 1.929.958 86.203 23.043 190.155 23.043h.324c43.889-.018 88.208-3.682 131.729-10.891 4.086-.677 6.851-4.538 6.174-8.625-.678-4.087-4.535-6.85-8.625-6.174-42.714 7.075-86.212 10.671-129.28 10.689h-.321c-58.262 0-116.589-6.511-173.56-19.361 48.695-59.182 112.119-97.783 174.234-125.841 68.925 32.168 122.772 65.274 173.357 125.857-5.07 1.136-10.152 2.229-15.206 3.26-4.059.827-6.679 4.789-5.851 8.847.828 4.063 4.792 6.677 8.847 5.85 2.458-.501 26.919-5.61 29.023-6.673 44.287-22.411 65.477-57.441 65.477-97.322 0-7.244-.58-14.576-1.877-22.055zm-13.772-129.909c-.18 16.391-12.764 30.263-28.648 31.583l-42.259 3.511c-1.742-13.947-7.916-26.82-17.281-36.829l40.507-25.153c20.645-12.806 47.697 2.563 47.681 26.888zm-137.319-137.241h.022c24.449 0 39.736 27.066 26.942 47.683l-37.583 60.524c-8.883-2.274-17.924-4.27-27.002-5.948l3.329-40.072c0-.003.001-.007.001-.01.001-.009.001-.018.002-.027l2.783-33.501c1.321-15.885 15.194-28.469 31.506-28.649zm-95.466 39.797c17.854-17.663 48.279-3.764 46.227 21.124l-3.23 38.884c-12.259-1.8-24.425-3.016-36.165-3.567l-12.208-25.637c-4.822-10.125-2.596-22.807 5.376-30.804zm99.908 72.591c2.223-3.58 39.734-63.987 41.372-66.625 11.137-17.934 36.511-20.666 51.492-5.788 14.989 15.095 12.111 40.439-5.75 51.53l-54.53 33.861c-6.518-4.233-12.943-7.088-32.584-12.978zm105.972 240.341c-14.026-17.348-28.438-32.933-43.956-47.481-3.023-2.834-7.77-2.679-10.602.342-2.833 3.022-2.68 7.768.342 10.601 15.035 14.094 29.006 29.208 42.616 46.049-3.96 2.837-8.199 5.532-12.747 8.065-50.505-62.067-103.612-96.688-170.519-128.882 6.215-2.627 12.4-5.16 18.54-7.604 19.558 9.788 36.791 19.365 52.582 29.225 3.517 2.195 8.142 1.122 10.334-2.39 2.194-3.513 1.124-8.14-2.389-10.334-12.865-8.033-26.638-15.87-41.775-23.767 39.504-14.916 76.136-26.492 106.417-38.023 47.037 20.367 73.372 56.944 77.046 81.133 3.419 19.663 1.562 37.965-5.519 54.396 0 1-6.678 15.715-20.37 28.67z"/></g></g></svg>