<svg id="Capa_1" enable-background="new 0 0 512 512" height="512" viewBox="0 0 512 512" width="512" xmlns="http://www.w3.org/2000/svg"><g><path d="m45.328 315.81v86.261l.035.173c116.296 116.266 304.824 116.352 421.228.193v-86.627z" fill="#fc8a3d"/><g><g><path d="m418.003 82.196c-13.707-11.782-28.384-21.822-43.736-30.137l-118.285 144.367v129.926c58.84 48.888 133.255 76.085 210.608 76.085 65.208-104.079 44.559-240.175-48.587-320.241z" fill="#ffce71"/><g><path d="m373.599 52.351c-36.749-19.903-77.402-29.853-118.055-29.851l-179.037 83.881v249.204l38.937 38.926c51.353-11.207 99.442-34.603 140.086-68.368 10.392-8.632 20.306-17.929 29.653-27.888 14.134-15.057 26.69-31.301 37.616-48.463 37.141-58.337 55.255-127.393 50.8-197.441z" fill="#ffb357"/><g><path d="m255.544 22.5c-40.656.002-81.313 9.958-118.063 29.866-15.311 8.294-29.952 18.303-43.624 30.053-92.984 79.911-113.608 215.756-48.528 319.652 23.772 0 47.267-2.573 70.115-7.56-50.743-141.572 8.564-299.05 140.1-372.011z" fill="#fc8a3d"/></g></g></g></g><g><g><g><ellipse cx="176.443" cy="431.563" fill="#ffdbe0" rx="29.355" ry="23.377"/></g><g><ellipse cx="335.557" cy="431.563" fill="#ffdbe0" rx="29.355" ry="23.377"/></g></g></g><g><path d="m296.24 197.714 16.202-12.238c2.249-1.699 3.414-4.043 3.24-6.441-3.942-54.25-29.168-111.535-59.701-111.535l-27.802 111.563 27.802 98.437c30.648 0 55.946-22.079 59.742-70.894.375-4.822-4.711-8.892-11.107-8.892z" fill="#efedff"/><path d="m222.08 105.577 10.773 8.137h-13.266c-5 0-9.384 2.518-10.722 6.157-8.212 22.328-13.122 48.89-13.122 73.629 0 57.99 26.97 84 60.239 84v-210c-13.611 0-26.165 11.387-36.251 28.81-1.826 3.153-.872 6.834 2.349 9.267z" fill="#d4d4ff"/></g><g><g><path d="m283.43 244.169-41.666 10.997v84.678l41.666 10.997c19.322-9.978 32.57-30.133 32.57-53.336 0-23.204-13.248-43.358-32.57-53.336z" fill="#ff8e9e"/></g><path d="m264.015 334.933c-8.222-10.27-13.156-23.28-13.156-37.428s4.934-27.16 13.157-37.429c5.262-6.572 11.874-12.013 19.414-15.906-8.228-4.249-17.549-6.664-27.43-6.664-33.084 0-60 26.916-60 60s26.916 60 60 60c9.881 0 19.202-2.416 27.43-6.664-7.541-3.895-14.152-9.336-19.415-15.909z" fill="#ea5b70"/></g><g><path d="m255.68 15.113c-70.15.004-135.242 27.551-183.289 77.566-2.869 2.987-2.773 7.735.214 10.604 2.986 2.869 7.734 2.774 10.604-.213 45.19-47.044 106.442-72.954 172.471-72.958 27.523 0 54.879 4.776 80.688 13.926 2.686 28.003 1.45 57.032-4.297 85.818-.812 4.062 1.824 8.012 5.886 8.823 4.082.811 8.015-1.84 8.823-5.887 5.372-26.891 7.14-54.747 5.151-82.624 4.981 2.167 9.898 4.485 14.724 6.99 3.483 71.326-17.499 141.926-57.161 199.248-.205-.266-.413-.528-.622-.791 8-12.72 12.816-28.974 14.329-48.429.465-5.99-2.913-11.287-8.145-14.287 2.044-1.544 8.732-5.811 8.106-14.41-4.141-56.983-31.003-118.489-67.182-118.489-15.633 0-30.413 11.256-42.742 32.552-2.715 4.69-2.516 10.104.209 14.532-5.459 1.603-9.823 5.308-11.621 10.197-14.732 40.053-21.726 101.842 1.296 138.343-9.142 11.518-14.622 26.067-14.622 41.88 0 9.416 1.944 18.385 5.442 26.535-11.893 7.025-24.304 13.226-36.985 18.463-3.829 1.581-5.65 5.966-4.07 9.794 1.584 3.835 5.975 5.649 9.795 4.07 13.263-5.476 26.242-11.957 38.683-19.292 2.99 4.117 6.432 7.88 10.254 11.224-49.202 29.633-104.914 45.603-161.844 46.347-3.012-4.989-5.833-10.075-8.475-15.228 17.411.24 34.15-.884 51.244-3.507 4.094-.628 6.903-4.457 6.275-8.551s-4.446-6.902-8.551-6.275c-18.454 2.832-37.304 3.872-56.109 3.147-12.444-28.995-19.159-60.211-19.159-92.839 0-52.056 17.525-103.97 49.347-146.178 2.494-3.308 1.834-8.01-1.474-10.504-3.306-2.494-8.011-1.834-10.503 1.474-33.771 44.794-52.37 99.914-52.37 155.208 0 73.894 35.486 131.89 40.455 136.238 57.616 57.522 134.179 89.22 215.614 89.257h.144c81.451 0 158.057-31.681 215.709-89.212 1.656-1.653 17.397-26.506 27.751-58.618 1.271-3.942-.896-8.168-4.837-9.439-3.948-1.27-8.17.895-9.44 4.837-5.667 17.58-13.379 34.509-22.948 50.384-57.188-.744-112.968-16.751-162.149-46.467 3.853-3.36 7.322-7.145 10.332-11.288 23.836 14.091 49.349 24.881 75.918 32.101 9.708 2.636 13.382-11.908 3.934-14.475-25.349-6.888-49.689-17.196-72.427-30.662 3.5-8.152 5.446-17.123 5.446-26.542 0-9.581-2.019-18.695-5.634-26.958 41.989-58.064 65.661-129.672 64.088-204.741 72.294 44.171 115.044 119.757 115.044 204.731 0 15.332-1.472 30.726-4.375 45.755-.785 4.067 1.875 8.001 5.942 8.786.48.093.958.138 1.431.138 3.521 0 6.662-2.493 7.355-6.079 3.083-15.964 4.646-32.315 4.646-48.6.001-145.141-118.963-255.425-256.319-255.425zm.32 334.892c-28.948 0-52.5-23.552-52.5-52.5 0-28.836 23.493-52.5 52.5-52.5 28.948 0 52.5 23.551 52.5 52.5 0 28.948-23.552 52.5-52.5 52.5zm-40.115-227.5c.188-.331 1.468-1.292 3.703-1.292h13.266c7.163 0 10.254-9.154 4.521-13.485l-10.773-8.137c-.025-.019-.049-.038-.071-.056 9.281-15.828 19.725-24.535 29.449-24.535 23.31 0 48.15 49.653 52.198 104.265-.163.173-16.27 12.321-16.459 12.464-5.721 4.321-2.658 13.485 4.521 13.485 8.017 0 10.533-.33 11.977 1.165-1.227 15.313-4.685 28.143-10.293 38.282-9.684-7.699-21.515-12.8-34.443-14.232v-92.929c0-4.142-3.357-7.5-7.5-7.5s-7.5 3.358-7.5 7.5v92.934c-12.913 1.438-24.729 6.536-34.403 14.226-17.848-32.44-11.078-87.113 1.807-122.155zm232.301 286.852c-109.425 96.542-274.85 96.46-384.177-.196 56.951-3.142 112.321-20.824 161.207-51.616 9.238 4.756 19.699 7.46 30.785 7.46 11.049 0 21.477-2.686 30.692-7.412 48.874 30.89 104.303 48.623 161.493 51.764z"/><path d="m193.551 396.56c-4.143 0-7.5 3.358-7.5 7.5v12c0 4.142 3.357 7.5 7.5 7.5s7.5-3.358 7.5-7.5v-12c0-4.142-3.358-7.5-7.5-7.5z"/><path d="m318.448 423.56c4.143 0 7.5-3.358 7.5-7.5v-12c0-4.142-3.357-7.5-7.5-7.5s-7.5 3.358-7.5 7.5v12c0 4.142 3.358 7.5 7.5 7.5z"/><path d="m245.19 410.775c-2.721-3.123-7.459-3.448-10.581-.727-3.123 2.721-3.449 7.458-.728 10.582 11.703 13.431 32.545 13.417 44.236 0 2.722-3.123 2.396-7.86-.728-10.582s-7.86-2.396-10.581.727c-5.725 6.571-15.897 6.564-21.618 0z"/></g></g></svg>