<svg id="Capa_1" enable-background="new 0 0 512 512" height="512" viewBox="0 0 512 512" width="512" xmlns="http://www.w3.org/2000/svg"><g><g fill="#676fb2"><path d="m222.5 182.5c-5.858 5.858-5.858 15.355 0 21.213l42.894 42.894 21.213-21.213-42.894-42.894c-5.858-5.858-15.355-5.858-21.213 0z"/><path d="m262.5 142.5c-5.858 5.858-5.858 15.355 0 21.213l42.894 42.894 21.213-21.213-42.894-42.894c-5.858-5.858-15.355-5.858-21.213 0z"/><path d="m302.5 102.5c-5.858 5.858-5.858 15.355 0 21.213l42.894 42.894 21.213-21.213-42.894-42.894c-5.858-5.858-15.355-5.858-21.213 0z"/><path d="m363.713 62.5c-5.858-5.858-15.355-5.858-21.213 0s-5.858 15.355 0 21.213l42.894 42.894 21.213-21.213z"/></g><g><path d="m499.747 52.994-40.741-40.741c-3.044-3.043-7.171-4.753-11.475-4.753s-8.431 1.71-11.475 4.753l-207.473 207.474c-11.594 11.594-28.134 16.786-44.263 13.84h-60v227.895h134.03c30.5-30.5 28.579-87.272 20.084-133.781-2.946-16.13 2.246-32.669 13.839-44.263l207.474-207.475c3.043-3.043 4.753-7.171 4.753-11.475 0-4.303-1.709-8.431-4.753-11.474z" fill="#ffb357"/><path d="m151.513 370.195c-15.621-48.089-2.946-100.876 32.807-136.629-46.508-8.495-103.281-10.416-133.781 20.083-57.385 57.385-57.385 150.426 0 207.811s150.426 57.385 207.811 0c-49.939-7.916-91.215-43.177-106.837-91.265z" fill="#fc8a3d"/></g><path d="m192.266 362.267-42.477-42.477c-5.858-5.858-15.355-5.858-21.213 0l-11.247 11.247c-5.857 5.858-5.857 15.355 0 21.213l42.477 42.477c5.858 5.858 15.355 5.858 21.213 0l11.247-11.247c5.858-5.858 5.858-15.355 0-21.213z" fill="#d4d4ff"/><g><g><g><g><ellipse cx="107.81" cy="282.384" fill="#ffdbe0" rx="21.525" ry="27.03" transform="matrix(.707 -.707 .707 .707 -168.099 158.942)"/></g><g><ellipse cx="231.41" cy="405.984" fill="#ffdbe0" rx="21.525" ry="27.03" transform="matrix(.707 -.707 .707 .707 -219.295 282.54)"/></g></g></g></g><g><path d="m500.106 118.893-58.556-58.556h-21.195v21.23l58.539 58.538c2.929 2.929 6.768 4.394 10.606 4.394s7.678-1.465 10.606-4.394c5.859-5.856 5.859-15.355 0-21.212z" fill="#8288cb"/><path d="m393.106 11.893c-5.857-5.857-15.355-5.857-21.213 0s-5.858 15.355 0 21.213l48.461 48.462c0-11.712 9.484-21.211 21.195-21.23z" fill="#676fb2"/></g><g><path d="m241.969 400.378c3.907 0 7.203-3.029 7.475-6.987 1.083-15.771-12.018-28.807-27.72-27.719-4.133.284-7.252 3.864-6.969 7.996.284 4.132 3.871 7.256 7.996 6.969 6.665-.457 12.186 5.055 11.728 11.727-.297 4.323 3.125 8.014 7.49 8.014z"/><path d="m140.646 299.057c3.907 0 7.203-3.029 7.475-6.987.516-7.507-2.236-14.859-7.548-20.171s-12.665-8.066-20.172-7.548c-4.133.284-7.252 3.864-6.969 7.996s3.882 7.243 7.996 6.969c3.18-.22 6.293.944 8.537 3.189 2.246 2.246 3.409 5.357 3.19 8.538-.295 4.323 3.126 8.014 7.491 8.014z"/><path d="m489.058 97.238 15.992-15.99c4.481-4.48 6.95-10.439 6.95-16.779s-2.469-12.298-6.949-16.778l-40.741-40.741c-4.483-4.482-10.441-6.95-16.779-6.95s-12.296 2.468-16.778 6.95l-15.991 15.992-16.352-16.352c-4.25-4.25-9.9-6.59-15.91-6.59s-11.66 2.34-15.909 6.589c-8.794 8.793-8.795 23.026-.001 31.82l16.352 16.352-8.18 8.18-5.745-5.745c-8.795-8.794-23.025-8.794-31.82 0-8.771 8.772-8.771 23.047.001 31.819l5.745 5.745-8.181 8.181-5.745-5.745c-8.795-8.794-23.025-8.794-31.82 0-8.771 8.772-8.771 23.047.001 31.819l5.745 5.745-8.181 8.181-5.745-5.745c-8.795-8.794-23.025-8.794-31.82 0-8.771 8.772-8.771 23.047.001 31.819l5.745 5.745-8.181 8.181-5.745-5.745c-8.795-8.794-23.025-8.794-31.82 0-8.771 8.772-8.771 23.047.001 31.819l5.736 5.736c-9.4 9.187-23.232 14.001-37.266 11.437-46.502-8.495-106.982-11.293-140.433 22.158-29.17 29.17-45.235 67.955-45.235 109.209 0 15.298 2.25 30.456 6.687 45.051.983 3.236 3.957 5.321 7.173 5.321.723 0 1.457-.105 2.185-.326 3.963-1.205 6.199-5.394 4.994-9.357-4.008-13.181-6.039-26.87-6.039-40.689 0-37.248 14.505-72.265 40.843-98.603 29.249-29.25 86.427-25.443 127.13-18.008 19.086 3.485 38.084-3.084 50.914-15.915l159.662-159.661 10.65 10.651-243.787 243.787-5.32-5.32c-8.794-8.793-23.023-8.795-31.82 0l-11.247 11.247c-8.771 8.773-8.771 23.047 0 31.82l5.32 5.32-76.104 76.103c-3.362-4.662-6.448-9.51-9.202-14.546-1.987-3.634-6.544-4.97-10.179-2.981-3.635 1.988-4.969 6.545-2.981 10.179 3.505 6.408 7.467 12.558 11.854 18.412-1.399 2.807-.935 6.307 1.405 8.647 1.88 1.88 4.633 2.656 7.3 1.922 3.787 4.22 7.208 7.72 12.005 12.025-.685 2.512-.047 5.31 1.926 7.283 2.273 2.273 5.743 2.855 8.652 1.404 26.541 19.907 58.653 30.679 92.422 30.679 41.253 0 80.038-16.065 109.209-45.236 33.445-33.442 30.658-93.895 22.159-140.432-2.559-14.014 2.225-28.071 11.766-37.612l113.567-113.568c2.929-2.929 2.929-7.678 0-10.606s-7.677-2.93-10.607 0l-113.567 113.568c-12.78 12.781-19.411 31.765-15.914 50.914 7.428 40.675 11.251 97.872-18.01 127.13-26.338 26.337-61.356 40.842-98.603 40.842-29.616 0-57.818-9.18-81.373-26.178l76.111-76.111 5.32 5.32c8.795 8.794 23.025 8.794 31.82 0l11.247-11.247c8.771-8.773 8.771-23.047 0-31.82l-5.32-5.32 243.787-243.788 10.596 10.595-24.882 24.882c-2.929 2.929-2.929 7.678 0 10.606 2.93 2.929 7.678 2.929 10.607 0l24.881-24.881 16.352 16.351c8.792 8.792 23.025 8.795 31.819 0 4.25-4.25 6.591-9.9 6.591-15.91s-2.341-11.66-6.59-15.91zm-141.254-18.829c-2.924-2.924-2.924-7.682 0-10.606 2.93-2.931 7.674-2.931 10.606 0l5.745 5.745-10.607 10.607zm-40 40c-2.924-2.924-2.924-7.682 0-10.606 2.93-2.931 7.674-2.931 10.606 0l5.745 5.745-10.607 10.607zm-40 40c-2.924-2.924-2.924-7.682 0-10.606 2.93-2.931 7.674-2.931 10.606 0l5.745 5.745-10.607 10.607zm-40 29.394c2.93-2.931 7.674-2.931 10.606 0l5.745 5.745-10.607 10.607-5.745-5.745c-2.923-2.925-2.923-7.683.001-10.607zm213.556-170.247c3.411-3.411 8.931-3.411 12.342 0l40.742 40.742c3.409 3.407 3.411 8.931 0 12.342l-15.992 15.992-53.083-53.083zm-318.728 329.391c-2.925-2.924-2.925-7.683 0-10.607l11.246-11.247c2.931-2.931 7.675-2.933 10.606 0l5.32 5.32-21.853 21.853zm37.78-5.927 10.623 10.623-21.853 21.853-10.624-10.623zm-99.085 120.331c-1.865-1.678-3.697-3.406-5.484-5.194-1.767-1.766-3.465-3.589-5.129-5.439l77.238-77.238 10.624 10.623zm125.635-93.781c2.925 2.924 2.925 7.683 0 10.607l-11.247 11.247c-2.93 2.931-7.675 2.931-10.605 0l-5.32-5.32 21.853-21.853zm-5.32-26.534-10.624-10.623 243.788-243.788 10.623 10.623zm313.161-206.233c-2.93 2.931-7.675 2.931-10.605 0l-85.336-85.336c-.003-.003-.005-.006-.008-.009s-.006-.005-.009-.008l-21.647-21.647c-2.93-2.931-2.931-7.674.001-10.606 2.924-2.924 7.682-2.924 10.605 0l107 107h.001c1.416 1.417 2.196 3.299 2.196 5.303s-.781 3.886-2.198 5.303z"/></g></g></svg>