<svg id="Capa_1" enable-background="new 0 0 512 512" height="512" viewBox="0 0 512 512" width="512" xmlns="http://www.w3.org/2000/svg"><g><g><path d="m65.185 425.603-53.291 53.291c-5.858 5.858-5.858 15.355 0 21.213 2.929 2.929 6.768 4.394 10.606 4.394s7.678-1.464 10.606-4.394l53.291-53.291z" fill="#ffb357"/></g><g><path d="m453.287 208.713-93-94-77.523 82.626 15.949 15.949v50.021h50.021c34.046-19.626 68.922-37.849 104.553-54.596z" fill="#ffce71"/><path d="m495.713 166.288-70-70-80-80c-11.715-11.717-30.711-11.717-42.426 0-11.716 11.717-11.716 30.711 0 42.426-16.746 35.631-34.969 70.508-54.596 104.554v50.021h50.021l4.574-4.574c41.421-41.421 108.579-41.421 150 0v-.001l.011.011c5.856 5.853 13.529 8.777 21.203 8.777 7.678 0 15.355-2.928 21.213-8.787 11.716-11.716 11.716-30.711 0-42.427z" fill="#ffb357"/></g><g><g><path d="m282.764 197.339-180.765 192.662 10 57.464c33.687-38.923 71.645-73.981 113.358-104.21 39.71-28.778 80.896-55.457 123.377-79.946z" fill="#d6948c"/></g><path d="m248.692 163.267c-24.488 42.481-51.167 83.666-79.945 123.376-30.151 41.604-65.105 79.473-103.907 113.095-8.588 7.441-13.19 18.658-11.776 29.932.961 7.665 4.446 14.5 9.606 19.661 4.239 4.239 9.609 7.347 15.639 8.855 12.355 3.089 25.357-1.092 33.691-10.721 0-30.391 12.073-59.536 33.562-81.026l153.152-153.152z" fill="#ce857a"/></g><g fill="#ac6757"><circle cx="266" cy="246" r="15"/><circle cx="226" cy="286" r="15"/><circle cx="186" cy="326" r="15"/></g><g><path d="m266 268.5c12.406 0 22.5-10.093 22.5-22.5s-10.094-22.5-22.5-22.5-22.5 10.093-22.5 22.5 10.094 22.5 22.5 22.5zm0-30c4.136 0 7.5 3.364 7.5 7.5s-3.364 7.5-7.5 7.5-7.5-3.364-7.5-7.5 3.365-7.5 7.5-7.5z"/><path d="m226 263.5c-12.406 0-22.5 10.093-22.5 22.5s10.094 22.5 22.5 22.5 22.5-10.093 22.5-22.5-10.094-22.5-22.5-22.5zm0 30c-4.136 0-7.5-3.364-7.5-7.5s3.364-7.5 7.5-7.5 7.5 3.364 7.5 7.5-3.364 7.5-7.5 7.5z"/><path d="m186 303.5c-12.406 0-22.5 10.093-22.5 22.5s10.094 22.5 22.5 22.5 22.5-10.093 22.5-22.5-10.094-22.5-22.5-22.5zm0 30c-4.136 0-7.5-3.364-7.5-7.5s3.364-7.5 7.5-7.5 7.5 3.364 7.5 7.5-3.364 7.5-7.5 7.5z"/><path d="m307.748 136.234 8.485-8.485c2.929-2.93 2.929-7.678 0-10.607-2.93-2.928-7.678-2.928-10.607 0l-8.485 8.485c-2.929 2.93-2.929 7.678 0 10.607 2.931 2.929 7.677 2.928 10.607 0z"/><path d="m386.065 214.55 8.485-8.485c2.929-2.93 2.929-7.678 0-10.607-2.93-2.928-7.678-2.928-10.607 0l-8.485 8.485c-2.929 2.93-2.929 7.678 0 10.607 2.93 2.929 7.677 2.928 10.607 0z"/><path d="m330.727 150.711c-4.135-.28-7.713 2.837-7.996 6.969-1.216 17.732 13.473 32.493 31.28 31.28 4.132-.283 7.252-3.863 6.969-7.996-.284-4.132-3.865-7.23-7.996-6.969-8.753.576-15.881-6.637-15.288-15.288.283-4.132-2.837-7.712-6.969-7.996z"/><path d="m501.017 160.984-150-150c-7.082-7.083-16.5-10.984-26.517-10.984-10.018 0-19.435 3.901-26.517 10.985-13.54 13.541-14.379 34.475-3.558 48.929-7.003 14.764-14.339 29.557-21.84 44.037-1.905 3.678-.469 8.204 3.209 10.109 3.679 1.905 8.203.468 10.109-3.21 6.704-12.94 13.265-26.127 19.59-39.323l32.489 32.489c2.93 2.929 7.678 2.929 10.607 0s2.929-7.678 0-10.606l-40-40c-.001-.001-.002-.002-.003-.003-8.791-8.789-8.792-23.02.003-31.817 8.791-8.793 23.026-8.795 31.818 0l150 150c4.25 4.25 6.591 9.9 6.591 15.911 0 6.009-2.341 11.659-6.591 15.91-8.768 8.77-22.992 8.815-31.813.003-.002-.002-.003-.004-.005-.005l-40-40c-2.93-2.929-7.678-2.929-10.607 0s-2.929 7.678 0 10.606l32.492 32.492c-30.586 14.662-60.962 30.575-90.497 47.441l-91.926-91.926c4.647-8.14 9.243-16.373 13.697-24.541 1.982-3.637.643-8.192-2.994-10.175-3.64-1.985-8.193-.642-10.176 2.994-78.754 144.431-143.555 216.03-198.65 263.77-11.341 9.828-16.841 24.887-13.735 39.919l-39.602 39.602c-4.25 4.25-6.591 9.901-6.591 15.91 0 6.011 2.341 11.662 6.591 15.909 4.249 4.25 9.899 6.59 15.91 6.59s11.661-2.341 15.91-6.59l39.599-39.599c14.729 3.051 29.842-2.094 39.66-13.438 10.689-12.351 21.17-23.655 32.042-34.559 2.924-2.933 2.917-7.682-.016-10.606-2.937-2.925-7.684-2.918-10.607.016-11.122 11.156-21.839 22.713-32.761 35.333-9.982 11.533-27.583 12.245-38.356 1.471-10.433-10.433-10.522-27.962 1.778-38.622 46.451-40.249 104.111-99.073 180.532-229.942l86.252 86.252c-74.051 43.209-130.002 82.917-175.533 124.532-3.058 2.794-3.271 7.539-.477 10.596 2.795 3.058 7.54 3.269 10.596.476 76.5-69.92 190.318-136.75 280.966-179.748 14.423 10.798 35.371 10.007 48.931-3.557 7.083-7.083 10.983-16.5 10.983-26.515s-3.9-19.433-10.983-26.516zm-437.861 298.468-35.352 35.353c-2.922 2.923-7.667 2.939-10.607-.002-2.93-2.929-2.932-7.672.002-10.605l35.352-35.351c1.414 2.049 3.017 3.99 4.815 5.789 1.798 1.798 3.74 3.401 5.79 4.816z"/></g></g></svg>