<svg id="Capa_1" enable-background="new 0 0 512 512" height="512" viewBox="0 0 512 512" width="512" xmlns="http://www.w3.org/2000/svg"><g><path d="m495.713 16.287c-11.715-11.716-30.711-11.716-42.426 0l-36.099 36.099-36.194 36.194 42.426 42.427 36.195-36.195 36.098-36.098c11.716-11.716 11.716-30.712 0-42.427z" fill="#ce857a"/><g><path d="m459.615 94.812c-11.151-16.825-25.601-31.275-42.426-42.426h-42.427l-289.948 289.947.03 84.823s-.001.001-.001.001l-.049.049c-16.987 16.987-18.22 44.485-2.152 62.343 17.388 19.324 47.173 19.914 65.318 1.77l148.3-148.3c10.074-10.074 23.85-15.541 38.097-15.52 82.842 0 150.143-67.156 150.144-149.998 0-30.547-9.168-58.973-24.886-82.689z" fill="#d6948c"/><path d="m293.518 165.177c17.312-57.5 64.825-100.833 123.671-112.792-23.717-15.718-52.143-24.885-82.69-24.885-82.843.001-149.999 67.158-149.999 150v.216c.021 14.247-5.447 27.951-15.521 38.025l-148.3 148.3c-17.754 17.755-17.572 46.654.549 64.179 17.738 17.155 46.164 16.386 63.613-1.062l.001-.001 143.591-143.591c22.423 22.424 51.917 37.769 84.846 42.433 6.933.982 13.871 1.501 21.076 1.501-42.46-42.461-58.15-104.823-40.837-162.323z" fill="#ce857a"/></g><g fill="#ac6757"><circle cx="157.35" cy="291.011" r="15"/><path d="m125.53 322.831c-5.858-5.858-15.355-5.858-21.213 0s-5.858 15.355 0 21.213 15.355 5.858 21.213 0 5.858-15.356 0-21.213z"/><path d="m61.89 365.257c-5.858 5.858-5.858 15.355 0 21.213s15.355 5.858 21.213 0 5.858-15.355 0-21.213c-5.857-5.858-15.355-5.858-21.213 0z"/><path d="m125.53 428.897c-5.858 5.858-5.858 15.355 0 21.213s15.355 5.858 21.213 0 5.858-15.355 0-21.213-15.355-5.858-21.213 0z"/></g><g><g><g><ellipse cx="239.745" cy="159.745" fill="#ffdbe0" rx="23.377" ry="29.355" transform="matrix(.707 -.707 .707 .707 -42.737 216.315)"/></g><g><ellipse cx="352.255" cy="272.255" fill="#ffdbe0" rx="23.377" ry="29.355" transform="matrix(.707 -.707 .707 .707 -89.34 328.822)"/></g></g></g><g><path d="m206.295 422.377-63.64 63.64c-7.082 7.083-16.499 10.983-26.516 10.983-10.616 0-20.793-4.544-27.922-12.467-13.127-14.588-12.605-37.539 1.88-52.023.005-.005.025-.026.045-.045.002-.002.004-.003.006-.005l138.412-138.414c3.646 3.316 7.485 6.492 11.425 9.452 3.312 2.488 8.014 1.82 10.501-1.492 2.488-3.312 1.82-8.013-1.491-10.501-3.835-2.88-7.563-5.987-11.084-9.235-5.48-5.054-13.921-4.863-19.22.432l-139.151 139.151s0 0 0 0c-14.701 14.699-38.421 15.168-53.097.975-7.379-7.136-11.443-16.717-11.443-26.975 0-10.011 3.9-19.425 10.983-26.509l148.299-148.299c11.09-11.089 17.718-26.233 17.718-43.545.001-73.603 55.153-134.564 128.288-141.801 4.122-.408 7.133-4.08 6.726-8.202-.409-4.122-4.085-7.133-8.202-6.725-79.298 7.846-141.812 74.594-141.812 157.024 0 12.458-4.731 24.05-13.324 32.642l-148.3 148.299c-9.915 9.917-15.376 23.098-15.376 37.116 0 14.36 5.688 27.77 16.015 37.758 13.217 12.782 31.891 17.353 49.414 12.934-4.186 16.514-.4 34.645 11.638 48.022 9.968 11.079 24.21 17.433 39.072 17.433 14.023 0 27.207-5.461 37.124-15.377l63.64-63.64c2.929-2.929 2.929-7.678 0-10.606-2.931-2.93-7.679-2.929-10.608 0z"/><path d="m173.259 306.921c8.795-8.794 8.795-23.026 0-31.82-8.793-8.792-23.024-8.794-31.818 0-8.793 8.793-8.796 23.025-.001 31.819 8.791 8.795 23.025 8.796 31.819.001zm-21.212-21.213c2.93-2.931 7.674-2.932 10.606 0 2.93 2.931 2.931 7.674-.001 10.606-2.93 2.931-7.674 2.933-10.606 0-2.93-2.932-2.931-7.674.001-10.606z"/><path d="m130.832 349.348c8.794-8.794 8.795-23.025.001-31.82 0 0 0 0-.001 0-8.793-8.793-23.024-8.794-31.819 0-8.771 8.773-8.771 23.047 0 31.82 8.782 8.779 23.054 8.765 31.819 0zm-21.212-21.214c2.93-2.931 7.675-2.931 10.605 0h.001c2.93 2.931 2.931 7.674-.001 10.606-2.929 2.93-7.675 2.931-10.605 0-2.924-2.924-2.924-7.682 0-10.606z"/><path d="m56.587 391.773c8.795 8.794 23.025 8.794 31.82 0 8.771-8.773 8.771-23.047 0-31.82-8.773-8.772-23.048-8.772-31.819 0-8.793 8.794-8.795 23.025-.001 31.82zm10.607-21.212c0-.001 0-.001 0 0 2.93-2.931 7.676-2.932 10.606 0 2.925 2.924 2.925 7.683 0 10.607-2.93 2.931-7.674 2.932-10.606 0-2.926-2.928-2.937-7.67 0-10.607z"/><path d="m120.227 423.593c-8.772 8.773-8.772 23.047 0 31.821 4.386 4.386 10.147 6.579 15.909 6.579s11.524-2.193 15.911-6.579c8.771-8.773 8.771-23.047-.001-31.82-8.77-8.772-23.047-8.774-31.819-.001zm21.214 21.213c-2.925 2.924-7.683 2.925-10.607 0-2.924-2.924-2.925-7.682-.001-10.606 2.925-2.924 7.683-2.925 10.607 0 2.925 2.924 2.925 7.682.001 10.606z"/><path d="m270.936 142.141-8.485 8.485c-2.929 2.929-2.929 7.678 0 10.606 1.465 1.464 3.385 2.197 5.304 2.197s3.839-.732 5.304-2.197l8.485-8.485c2.929-2.929 2.929-7.678 0-10.606-2.93-2.929-7.679-2.929-10.608 0z"/><path d="m361.374 249.549 8.485-8.485c2.929-2.929 2.929-7.678 0-10.606-2.93-2.929-7.678-2.929-10.607 0l-8.485 8.485c-2.929 2.929-2.929 7.678 0 10.606 1.465 1.464 3.385 2.197 5.304 2.197s3.838-.733 5.303-2.197z"/><path d="m323.293 203.995c-4.142.285-8.201-1.231-11.129-4.16-2.928-2.927-4.443-6.983-4.159-11.128.283-4.132-2.837-7.712-6.969-7.996-4.126-.291-7.713 2.836-7.996 6.969-.581 8.472 2.523 16.768 8.518 22.762 5.518 5.518 12.985 8.587 20.744 8.587.671 0 1.345-.023 2.019-.069 4.133-.284 7.253-3.864 6.969-7.996-.284-4.134-3.858-7.249-7.997-6.969z"/><path d="m474.5 0c-10.017 0-19.434 3.9-26.517 10.983l-31.804 31.804c-19.799-12.031-42.237-19.646-65.944-22.007-4.127-.418-7.797 2.598-8.206 6.719-.411 4.122 2.598 7.796 6.72 8.207 41.396 4.124 80.124 26.32 104.591 63.215.009.014.019.027.028.041 15.532 23.439 23.741 50.35 23.741 77.826.001 68.875-54.578 143.212-142.832 143.212-16.271 0-32.061 6.458-43.321 17.717l-63.447 63.447c-2.929 2.929-2.929 7.678 0 10.606 1.465 1.465 3.384 2.197 5.304 2.197 1.919 0 3.839-.732 5.304-2.197l63.446-63.447c8.469-8.467 20.393-13.324 32.794-13.324 91.139 0 157.754-74.566 157.754-158.212 0-28.42-7.917-56.266-22.943-80.92l31.851-31.851c7.315-7.316 10.981-16.929 10.981-26.541 0-20.563-16.647-37.475-37.5-37.475zm15.909 53.41-29.799 29.799c-9.137-12.222-19.857-22.907-31.785-31.854l29.765-29.765c4.25-4.25 9.9-6.59 15.91-6.59 12.434 0 22.5 10.063 22.5 22.5 0 6.01-2.341 11.66-6.591 15.91z"/></g></g></svg>