<svg id="Capa_1" enable-background="new 0 0 512 512" height="512" viewBox="0 0 512 512" width="512" xmlns="http://www.w3.org/2000/svg"><g><g><path d="m167.99 474.5-65.085-30-69.792 30c10.375 17.929 29.749 30 51.953 30h150z" fill="#30cd9c"/><path d="m496.453 474.5-155.953-20-172.51 20c16.479 18.41 40.422 30 67.076 30h20 189.434c22.205 0 41.578-12.071 51.953-30z" fill="#70dcba"/></g><g><path d="m100 331.372-74.935 30v30l60.435 20 59.565-20 30-30z" fill="#ffb357"/><path d="m145.065 361.372v30l170.547 20 188.888-20v-30l-187.57-30z" fill="#ffce71"/></g><g><path d="m25.065 241.372h113.03v120h-113.03z" fill="#676fb2"/><path d="m474.5 241.372h-105.465l-69.282 40v80h204.747v-90c0-16.569-13.431-30-30-30z" fill="#8288cb"/></g><g><path d="m238.971 241.372c-36.883 0-66.783 29.9-66.783 66.783v30.339l22.877 22.878h194.688l69.282-120z" fill="#efedff"/><path d="m238.971 241.372h-100.876l-69.282 120h126.252v-54.921c0-28.615 17.373-54.365 43.906-65.079z" fill="#d4d4ff"/></g><g><g><path d="m169.917 78.489-117.99 31.615c-31.966 8.565-50.936 41.422-42.371 73.388l15.509 57.879 109.035-29.216 33.112-17.614 31.096-116.053h-28.391z" fill="#676fb2"/><path d="m503.015 80.887-7.744-28.902c-7.091-26.464-30.513-44.485-56.934-44.485-5.426 0-10.953.641-16.454 2.115l-22.909 6.138-27.321 27.321-24.269 90.573 15.773 15.773 118.644-31.791c16.005-4.287 25.503-20.738 21.214-36.742z" fill="#8288cb"/></g><g><path d="m292.593 45.618c-28.095 7.528-51.485 26.982-64.005 53.235l-10.269 21.531 30 61.167 114.84-32.131 35.816-133.667z" fill="#efedff"/><path d="m169.917 78.489-35.816 133.667 114.218-30.605v-61.167c0-31.137 16.972-59.797 44.274-74.767z" fill="#d4d4ff"/></g></g><circle cx="52.724" cy="241.372" fill="#4c5699" r="45"/><g fill="#ff8e9e"><ellipse cx="176.443" cy="322.503" rx="29.355" ry="23.377"/><ellipse cx="335.557" cy="322.503" rx="29.355" ry="23.377"/></g><g><path d="m145.065 391.372h-120v53.128c0 10.933 2.938 21.173 8.047 30h134.878v-60z" fill="#d4d4ff"/><path d="m504.5 444.5v-53.128h-359.435v23.128c0 23.052 8.671 44.077 22.924 60h328.463c5.11-8.827 8.048-19.067 8.048-30z" fill="#efedff"/></g><g><path d="m474.5 233.813h-369.821c-.281-1.956-.664-3.878-1.155-5.758 170.619-45.728 190.538-51.429 209.807-56.945 17.82-5.101 34.653-9.918 170.413-46.294 16.369-4.386 27.802-19.273 27.802-36.204 0-3.271-.433-6.542-1.286-9.724l-7.744-28.902c-7.887-29.431-34.651-49.986-65.086-49.986-5.879 0-11.764.778-17.513 2.319l-91.201 24.772c-3.997 1.086-6.357 5.207-5.271 9.204 1.085 3.998 5.212 6.356 9.203 5.272l55.683-15.125-31.343 116.973c-28.581 7.778-38.038 10.485-47.784 13.274-17.365 4.97-35.258 10.092-164.493 44.789l31.458-117.408 127.527-34.64c3.997-1.086 6.357-5.207 5.271-9.204-1.085-3.998-5.21-6.356-9.203-5.272l-249.778 67.847c-29.43 7.886-49.986 34.65-49.986 65.086 0 5.875.778 11.758 2.312 17.488l7.063 26.362c-5.769 8.429-9.375 18.614-9.375 29.576 0 15.437 6.924 29.337 17.565 38.952v164.235c0 37.22 30.28 67.5 67.5 67.5h58.946c4.143 0 7.5-3.357 7.5-7.5s-3.357-7.5-7.5-7.5h-58.946c-14.269 0-27.22-5.73-36.692-15h432.818c-9.472 9.27-22.423 15-36.692 15h-270.402c-4.143 0-7.5 3.357-7.5 7.5s3.357 7.5 7.5 7.5h270.403c37.22 0 67.5-30.28 67.5-67.5v-173.187c0-20.677-16.822-37.5-37.5-37.5zm-69.422-211.92 18.746-5.092c28.275-7.577 56.796 9.428 64.203 37.067l7.744 28.903c3.26 12.164-4.069 24.383-15.91 27.555-48.947 13.115-82.452 22.133-106.127 28.543zm91.922 249.42v82.5h-94.222l60.621-105h11.101c12.406 0 22.5 10.094 22.5 22.5zm-464.435 97.5h464.435v15.059h-464.435zm49.239-15 60.622-105h303.653l-60.621 105zm-27.91-236.529 105.528-28.664-31.443 117.349c-9.559 2.564-19.67 5.276-30.367 8.142-9.218-15.155-25.891-25.297-44.888-25.297-11.676 0-22.471 3.835-31.199 10.307l-4.723-17.626c-1.195-4.464-1.801-9.042-1.801-13.607 0-23.66 15.983-44.466 38.893-50.604zm-38.67 124.029c0-20.678 16.822-37.5 37.5-37.5s37.5 16.822 37.5 37.5-16.822 37.5-37.5 37.5-37.5-16.822-37.5-37.5zm37.5 52.5c26.401 0 48.304-19.593 51.956-45h20.426l-60.622 105h-31.919v-64.031c6.211 2.593 13.019 4.031 20.159 4.031zm439.2 173.187h-454.282c-3.251-6.824-5.076-14.452-5.076-22.5v-45.628h464.434v45.628c0 8.048-1.825 15.676-5.076 22.5z"/><path d="m193.552 287.055c-4.143 0-7.5 3.357-7.5 7.5v12c0 4.143 3.357 7.5 7.5 7.5s7.5-3.357 7.5-7.5v-12c0-4.143-3.358-7.5-7.5-7.5z"/><path d="m318.448 287.055c-4.143 0-7.5 3.357-7.5 7.5v12c0 4.143 3.357 7.5 7.5 7.5s7.5-3.357 7.5-7.5v-12c0-4.143-3.357-7.5-7.5-7.5z"/><path d="m277.391 300.543c-3.123-2.722-7.86-2.396-10.581.728-2.729 3.132-6.669 4.928-10.81 4.928s-8.08-1.796-10.81-4.928c-2.721-3.124-7.459-3.448-10.581-.728-3.123 2.721-3.449 7.459-.728 10.581 5.578 6.402 13.641 10.074 22.118 10.074s16.54-3.672 22.118-10.074c2.723-3.122 2.397-7.86-.726-10.581z"/><path d="m284.777 425.436h-1.889l1.339-1.34c2.933-2.911 2.938-7.682 0-10.6-2.873-2.894-7.644-2.977-10.6 0l-1.351 1.35v-1.91c0-4.13-3.359-7.5-7.489-7.5-4.141 0-7.5 3.37-7.5 7.5v1.901l-1.341-1.341c-2.926-2.927-7.665-2.945-10.609 0-2.92 2.92-2.92 7.68 0 10.6l1.34 1.34h-1.89c-4.141 0-7.5 3.37-7.5 7.5 0 4.14 3.359 7.5 7.5 7.5h1.89l-1.34 1.34c-2.928 2.928-2.944 7.666 0 10.61 2.941 2.941 7.677 2.932 10.609 0l1.341-1.342v1.892c0 4.14 3.359 7.5 7.5 7.5 4.13 0 7.489-3.36 7.489-7.5v-1.9l1.351 1.35c2.913 2.933 7.681 2.938 10.6 0 2.928-2.928 2.944-7.666 0-10.61l-1.34-1.34h1.89c4.141 0 7.5-3.36 7.5-7.5 0-4.13-3.359-7.5-7.5-7.5z"/></g></g></svg>