<svg id="Capa_1" enable-background="new 0 0 512 512" height="512" viewBox="0 0 512 512" width="512" xmlns="http://www.w3.org/2000/svg"><g><g><path d="m158.733 130.439v-15.045h-63.206l-18.669 18.669c-9.771 22.033-18.886 44.41-24.139 68.42h7.978v32.26l10.99 10.99h115.979v-115.294z" fill="#7ce3ff"/><path d="m187.667 115.393h-28.934l-106.014 87.089c-1.581 7.233-2.382 14.561-2.416 21.866l21.384 21.384 115.979-95.294v-35.045z" fill="#b9f0ff"/></g><g><path d="m421.958 188.471c0-11.102-6.036-20.789-15-25.977h-25v165.977h60z" fill="#676fb2"/><path d="m406.958 162.495c-4.414-2.554-9.534-4.023-15-4.023-16.568 0-30 13.432-30 30v80h-40c-16.568 0-30 13.431-30 30 0 16.568 13.432 30 30 30h70v-140c0-11.103 6.036-20.789 15-25.977z" fill="#4c5699"/></g><g><path d="m422.002 43.529c-21.512 0-50.446.632-84.556 2.572l-40.966 9.275v27l10 8.603c29.055-2.006 53.577-2.443 77.188-2.5 21.139-.051 38.29 17.093 38.29 38.232v97.637l43.104 20 39.438-20v-98.363c0-45.531-36.928-82.457-82.498-82.456z" fill="#ffce71"/><path d="m108.443 74.731c-26.89 5.378-42.138 34.021-31.584 59.331h72.605c8.284 0 15 6.716 15 15v75.286l21.002 20 23.998-20v-96.435c0-15.064 11.177-27.803 26.115-29.749 26.873-3.5 50.052-5.747 70.902-7.186v-3.278c0-19.184 12.588-36.095 30.966-41.6-63.256 3.598-144.329 11.696-229.004 28.631z" fill="#ffb357"/></g><g><path d="m423.306 364.402c-5.278-4.874-11.433-8.812-18.201-11.553h-40v111.244h40c21.985-8.903 37.5-30.444 37.5-55.622 0-17.427-7.433-33.112-19.299-44.069z" fill="#676fb2"/><path d="m367.605 408.471 14.997-14.995 22.503-40.627c-6.95-2.814-14.541-4.378-22.5-4.378-33.137 0-60 26.863-60 60s26.863 60 60 60c7.959 0 15.55-1.563 22.5-4.378-21.985-8.903-37.5-30.445-37.5-55.622z" fill="#4c5699"/><circle cx="382.602" cy="408.473" fill="#d4d4ff" r="15"/></g><g><path d="m129.273 364.402c-5.278-4.874-11.433-8.812-18.201-11.553h-40v111.244h40c21.985-8.903 37.5-30.444 37.5-55.622 0-17.427-7.433-33.112-19.299-44.069z" fill="#676fb2"/><path d="m73.572 408.471 14.997-14.995 22.503-40.627c-6.95-2.814-14.541-4.378-22.5-4.378-33.137 0-60 26.863-60 60s26.863 60 60 60c7.959 0 15.55-1.563 22.5-4.378-21.985-8.903-37.5-30.445-37.5-55.622z" fill="#4c5699"/><circle cx="88.569" cy="408.473" fill="#d4d4ff" r="15"/></g><g><path d="m239.464 348.476c-16.568 0-30-13.431-30-30v-94.128h-159.161c-.086 18.191 4.556 36.236 13.654 52.289l18.183 32.084 5.532 9.761 81.749 56.085c4.611 11.333 15.66 18.908 27.895 18.908h86.363l18.997-45h-63.212z" fill="#30cd9c"/><path d="m421.958 224.348v84.123h-39.353c-32.644 0-61.668 15.734-79.929 40.005-9.745 12.931-16.441 28.281-18.997 45h173.774c25.082 0 46.167-19.651 47.01-44.719.024-.706.036-1.416.036-2.128v-99.031-23.25z" fill="#70dcba"/></g><g><path d="m8.91 363.763c-5.368 14.385 5.259 29.713 20.613 29.713h45.95l6.668-11.856v-72.898c-33.684 2.52-61.897 24.665-73.231 55.041z" fill="#30cd9c"/><path d="m168.224 363.737c-12.096-32.359-43.345-55.261-79.652-55.261-2.164 0-4.308.087-6.431.246-24.524 21.925-27.462 59.263-6.668 84.754h72.148c11.488 0 20.323-8.563 21.801-18.908.498-3.492.159-7.199-1.198-10.831z" fill="#70dcba"/></g><ellipse cx="161.508" cy="285.458" fill="#ff8e9e" rx="29.355" ry="23.377"/><g><path d="m494.938 73.274c-2.431-3.354-7.121-4.104-10.474-1.673-3.354 2.43-4.104 7.119-1.673 10.474 9.296 12.83 14.209 28.014 14.209 43.91v90.863h-67.542v-90.137c0-25.25-20.416-45.732-45.695-45.732-.037 0-.075 0-.112 0-54.401.13-96.188 2.863-149.041 9.748-18.611 2.424-32.646 18.41-32.646 37.186v88.936h-30v-47.324c0-.007 0-.013 0-.02v-20.442c0-12.406-10.094-22.5-22.5-22.5h-67.259c-5.373-20.013 7.499-40.435 27.709-44.477 98.68-19.736 212.432-31.056 312.088-31.057 14.711.001 28.951 4.253 41.179 12.298 3.459 2.276 8.111 1.316 10.388-2.144 2.276-3.461 1.316-8.111-2.144-10.388-14.683-9.659-31.772-14.766-49.423-14.767-100.601.002-215.424 11.428-315.029 31.348-29.83 5.965-48.317 37.072-38.208 66.452-11.576 26.308-25.823 61.91-25.961 90.484-.164 34.625 13.844 54.637 27.38 78.521-30.957 6.287-57.078 28.232-68.299 58.307-1.288 3.45-1.885 6.981-1.885 10.448 0 13.51 8.458 24.629 21.616 28.294-1.495 11.767.03 24.124 5.145 35.748 1.666 3.785 6.085 5.514 9.886 3.845 3.792-1.669 5.513-6.095 3.845-9.886-3.877-8.809-5.3-18.583-3.868-28.613h30.74c-5.227 14.705 5.831 30.002 21.158 30.002 15.416 0 26.465-15.165 21.237-30.002h30.753c.36 2.487.562 4.991.562 7.495 0 29.594-24.018 52.5-52.501 52.5-.001 0-.002 0-.004 0-11.722 0-22.807-3.777-32.058-10.923-3.277-2.531-7.987-1.929-10.521 1.351-2.532 3.278-1.928 7.988 1.351 10.521 11.901 9.193 26.156 14.052 41.228 14.052h.005c36.646 0 67.5-29.469 67.5-67.5 0-2.867-.186-5.735-.552-8.585 6.009-1.69 11.306-5.258 15.154-10.058 6.917 7.006 16.402 11.149 26.643 11.149h86.363 31.847c-4.448 40.183 27.085 74.995 67.079 74.995 39.726 0 71.628-34.374 67.072-74.995h7.775c14.103 0 27.509-5.33 37.747-15.009 10.504-9.929 16.8-23.5 16.8-39.339 0-6.325 0-213.365 0-220.644-.002-19.078-5.902-37.306-17.064-52.712zm-277.974 54.639c0-11.266 8.419-20.857 19.583-22.311 52.172-6.797 93.426-9.494 147.139-9.623h.076c16.955 0 30.696 13.742 30.696 30.732v31.785c-1.191-.897-2.435-1.737-3.742-2.493-5.688-3.292-12.174-5.032-18.758-5.032-20.678 0-37.5 16.822-37.5 37.5v72.5h-32.5c-20.678 0-37.5 16.822-37.5 37.5 0 15.176 9.066 28.265 22.062 34.161-2.643 2.65-5.145 5.435-7.499 8.344h-59.558c-12.406 0-22.5-10.094-22.5-22.5v-190.563zm156.296 141.253-3.802-3.802v-76.893c0-12.406 10.094-22.5 22.5-22.5 3.948 0 7.836 1.042 11.243 3.015 6.943 4.019 11.257 11.484 11.257 19.485v35.877 76.623h-31.853c-20.555 0-40.55 5.853-57.824 16.926-1.505.965-2.973 1.977-4.424 3.011-11.662-.824-20.899-10.569-20.899-22.437 0-12.406 10.094-22.5 22.5-22.5h36.893l3.802 3.802c1.465 1.464 3.385 2.196 5.304 2.196s3.839-.732 5.304-2.196c2.927-2.93 2.927-7.678-.001-10.607zm-313.726-62.575 24.766-20.343c1.55-1.279 2.51-3.069 2.7-5.069.2-1.99-.391-3.94-1.67-5.49-1.431-1.74-3.54-2.74-5.801-2.74-1.729 0-3.409.61-4.75 1.71l-8.642 7.099c4.485-13.917 9.998-27.362 15.614-40.195h67.713c4.136 0 7.5 3.364 7.5 7.5v16.896l-29.262 24.041c-3.2 2.63-3.663 7.355-1.033 10.557 1.483 1.805 3.632 2.738 5.799 2.738 1.676 0 3.362-.559 4.758-1.705l19.738-16.218v31.476h-98.83c.285-3.44.752-6.867 1.4-10.257zm35.529 205.632c-2.063 3.571-6.659 4.818-10.245 2.745-3.58-2.068-4.811-6.665-2.745-10.245 2.08-3.601 6.688-4.8 10.245-2.745 3.58 2.068 4.811 6.665 2.745 10.245zm66.934-38.717c-.886 6.197-6.107 12.47-14.376 12.47h-118.099c-10.131 0-17.132-10.089-13.586-19.591 11.174-29.946 40.017-50.409 72.636-50.409 48.316 0 75.392 43.74 73.425 57.53zm220.608 87.465c-31.553 0-56.526-27.95-51.949-59.995h30.739c-5.225 14.7 5.836 30.002 21.159 30.002 15.416 0 26.465-15.165 21.237-30.002h30.753c4.635 32.056-20.265 59.995-51.939 59.995zm-6.499-56.248c2.071-3.587 6.674-4.807 10.246-2.745 3.58 2.068 4.811 6.665 2.745 10.245-2.062 3.571-6.659 4.818-10.245 2.745-3.578-2.066-4.812-6.664-2.746-10.245zm120.894-58.095c0 22.749-18.726 39.348-39.547 39.348h-173.773-86.363c-8.502 0-16.435-5.032-20.245-12.681 1.41-23.278-33.552-73.656-90.675-72.277l-15.914-28.079c-7.146-12.607-11.375-26.681-12.416-41.091h143.897v86.628c0 20.678 16.822 37.5 37.5 37.5h49.373c-1.054 1.873-2.064 3.774-3.008 5.714-1.812 3.725-.262 8.213 3.463 10.025s8.214.261 10.025-3.463c15.452-31.76 48.146-52.281 83.289-52.281h39.353c4.143 0 7.5-3.357 7.5-7.5v-76.623h67.541z"/><path d="m144.4 249.455c-4.143 0-7.5 3.357-7.5 7.5v12c0 4.143 3.357 7.5 7.5 7.5s7.5-3.357 7.5-7.5v-12c0-4.143-3.357-7.5-7.5-7.5z"/><path d="m102.72 153.908c-1.73 0-3.42.601-4.76 1.7-3.2 2.63-3.66 7.36-1.04 10.56 1.43 1.74 3.55 2.74 5.8 2.74 1.73 0 3.42-.609 4.76-1.7 1.55-1.279 2.51-3.079 2.71-5.069.19-1.99-.399-3.94-1.67-5.49-1.43-1.741-3.55-2.741-5.8-2.741z"/></g></g></svg>