<svg id="Capa_1" enable-background="new 0 0 512 512" height="512" viewBox="0 0 512 512" width="512" xmlns="http://www.w3.org/2000/svg"><g><g><g><path d="m358.195 322.466h-124.381v49.171c46.149 0 83.734 37.53 83.734 83.68 0 27.119 22.063 49.183 49.184 49.183 27.119 0 49.183-22.063 49.183-49.183 0-52.368-22.207-99.606-57.72-132.851z" fill="#ffce71"/><path d="m415.915 189.561c0-100.389-81.673-182.061-182.061-182.061v98.366c46.149 0 83.695 37.546 83.695 83.695s-37.546 83.695-83.695 83.695h-132.879c-27.119 0-49.183 22.063-49.183 49.184 0 27.12 22.063 49.183 49.183 49.183l132.839.016c48.125 0 91.824-18.68 124.381-49.171 35.513-33.247 57.72-80.54 57.72-132.907z" fill="#ffb357"/></g><g><path d="m411.025 7.5h-177.171l-29.08 11.302v75.762l29.08 11.302h177.171c27.12 0 49.183-22.063 49.183-49.184-.001-27.119-22.064-49.182-49.183-49.182z" fill="#ffce71"/><path d="m233.854 7.5h-132.879c-27.119 0-49.183 22.063-49.183 49.183 0 27.121 22.063 49.184 49.183 49.184h132.878c-27.162-27.164-27.162-71.204.001-98.367z" fill="#ffb357"/></g><g><path d="m411.025 7.5h-177.171l-29.08 11.302v75.762l29.08 11.302h177.171c27.12 0 49.183-22.063 49.183-49.184-.001-27.119-22.064-49.182-49.183-49.182z" fill="#ffce71"/><path d="m233.854 7.5h-132.879c-27.119 0-49.183 22.063-49.183 49.183 0 27.121 22.063 49.184 49.183 49.184h132.878c-27.162-27.164-27.162-71.204.001-98.367z" fill="#ffb357"/></g><g><path d="m411.025 140.378h-117.171l-29.08 11.302v75.762l29.08 11.302h117.171c27.12 0 49.183-22.063 49.183-49.184-.001-27.118-22.064-49.182-49.183-49.182z" fill="#ffce71"/><path d="m293.854 140.378h-192.879c-27.119 0-49.183 22.063-49.183 49.183 0 27.121 22.063 49.184 49.183 49.184h192.878c-27.162-27.164-27.162-71.204.001-98.367z" fill="#ffb357"/></g></g><g fill="#ff8e9e"><path d="m176.443 180.687c-16.212 0-29.355 10.466-29.355 23.376 0 12.911 13.143 23.377 29.355 23.377s29.355-10.466 29.355-23.377c0-12.91-13.142-23.376-29.355-23.376z"/><path d="m335.557 180.687c-16.212 0-29.355 10.466-29.355 23.376 0 12.911 13.143 23.377 29.355 23.377s29.355-10.466 29.355-23.377c0-12.91-13.143-23.376-29.355-23.376z"/></g><g><path d="m414.788 133.018c-2.091-6.671-4.566-13.237-7.393-19.651h3.629c31.255 0 56.683-25.428 56.683-56.684 0-31.255-25.428-56.683-56.683-56.683h-223.941c-4.143 0-7.5 3.357-7.5 7.5s3.357 7.5 7.5 7.5h223.941c22.983 0 41.683 18.699 41.683 41.683s-18.699 41.684-41.683 41.684c-5.005 0-16.52 0-21.522 0-4.143 0-7.5 3.357-7.5 7.5s3.357 7.5 7.5 7.5h1.379c3.133 6.432 5.862 13.061 8.177 19.817-3.118.91-5.397 3.784-5.397 7.196 0 4.143 3.357 7.5 7.5 7.5h8.025c26.802 0 43.522 20.089 43.522 41.682 0 22.984-18.699 41.684-41.683 41.684h-9.868c-4.143 0-7.5 3.357-7.5 7.5 0 3.417 2.286 6.294 5.411 7.199-10.374 30.419-28.874 57.245-53.907 78.023-5.413 4.492-2.179 13.271 4.794 13.271 3.259 0 4.842-1.721 8.03-4.488 32.124 32.557 50.43 76.833 50.43 122.567 0 22.983-18.698 41.683-41.682 41.683s-41.684-18.699-41.684-41.683c0-7.513-.922-14.987-2.74-22.217-1.01-4.018-5.088-6.457-9.103-5.444-4.018 1.01-6.455 5.086-5.444 9.103 1.518 6.034 2.287 12.278 2.287 18.559 0 31.255 25.428 56.683 56.684 56.683 31.254 0 56.682-25.428 56.682-56.683 0-50.942-20.21-98.057-54.483-132.84 21.187-21.489 36.843-47.517 45.856-76.372 29.505-1.945 52.92-26.555 52.92-56.545-.001-29.99-23.415-54.599-52.92-56.544z"/><path d="m186.051 176.56v12c0 4.143 3.357 7.5 7.5 7.5s7.5-3.357 7.5-7.5v-12c0-4.143-3.357-7.5-7.5-7.5s-7.5 3.357-7.5 7.5z"/><path d="m310.948 176.56v12c0 4.143 3.357 7.5 7.5 7.5s7.5-3.357 7.5-7.5v-12c0-4.143-3.357-7.5-7.5-7.5s-7.5 3.357-7.5 7.5z"/><path d="m266.81 183.275c-5.725 6.569-15.899 6.564-21.619 0-2.723-3.122-7.46-3.448-10.582-.727-3.123 2.722-3.447 7.46-.727 10.582 11.704 13.429 32.543 13.416 44.236 0 2.721-3.122 2.396-7.86-.727-10.582s-7.86-2.395-10.581.727z"/><path d="m308.848 403.501c-17.093-24.648-45.143-39.363-75.032-39.363l-132.84-.017c-22.983 0-41.683-18.698-41.683-41.682s18.699-41.684 41.683-41.684h132.878c27.709 0 54.094-12.836 71.357-34.512h6.301c4.143 0 7.5-3.357 7.5-7.5s-3.357-7.5-7.5-7.5h-210.536c-22.984 0-41.683-18.699-41.683-41.684 0-22.983 18.698-41.682 41.683-41.682h210.537c4.143 0 7.5-3.357 7.5-7.5s-3.357-7.5-7.5-7.5h-6.301c-17.264-21.676-43.649-34.513-71.358-34.513h-132.878c-22.983 0-41.683-18.699-41.683-41.684 0-22.981 18.699-41.68 41.683-41.68h56.107c4.143 0 7.5-3.357 7.5-7.5s-3.357-7.5-7.5-7.5h-56.107c-31.255 0-56.683 25.428-56.683 56.683 0 31.256 25.428 56.684 56.683 56.684h132.878c18.833 0 36.939 7.104 50.809 19.513h-183.687c-31.255 0-56.683 25.428-56.683 56.682 0 31.256 25.428 56.684 56.683 56.684h183.687c-13.869 12.408-31.976 19.512-50.809 19.512h-132.878c-31.255 0-56.683 25.428-56.683 56.684 0 31.254 25.428 56.682 56.682 56.682l132.84.017c24.975 0 48.416 12.303 62.707 32.91 2.359 3.402 7.028 4.252 10.438 1.89 3.402-2.364 4.248-7.037 1.888-10.44z"/></g></g></svg>