<svg id="Capa_1" enable-background="new 0 0 512 512" height="512" viewBox="0 0 512 512" width="512" xmlns="http://www.w3.org/2000/svg"><g><g><path d="m367.225 7.652-20 10v59.695h43.239c8.208-7.326 13.38-17.98 13.38-29.848 0-20.951-16.112-38.129-36.619-39.847z" fill="#ff8f71"/><path d="m353.844 37.5c0-11.867 5.172-22.522 13.38-29.848-1.115-.093-2.241-.152-3.38-.152-22.091 0-40 17.909-40 40s17.909 40 40 40c10.224 0 19.548-3.841 26.62-10.152-20.508-1.718-36.62-18.896-36.62-39.848z" fill="#ff6f4d"/></g><path d="m462.912 262.085c-47.373-47.365-118.911-53.87-172.921-21.647-14.39 8.575-35.649 13.789-54.274 6.976v70.584h48.628c14.814-3.298 29.006-8.829 42.011-16.581 26.76-15.972 62.568-12.907 86.352 10.876 13.41 13.405 20.792 31.234 20.792 50.2 0 39.246-31.744 71-71.001 71-19.608 0-35.5 15.892-35.5 35.5s15.892 35.5 35.5 35.5c78.478 0 142.001-63.497 142.001-142.001 0-37.934-14.773-73.592-41.588-100.407z" fill="#ff6f4d"/><g><path d="m56.593 132.986c-12.901 23.257 3.933 52.011 30.588 52.011 12.915 0 25.108-6.597 31.595-17.765 6.146-10.606 17.608-17.736 30.724-17.736v-71c-39.811 0-74.634 22.047-92.907 54.49z" fill="#ff6f4d"/><path d="m78.501 362.499c0-19.608-15.892-35.5-35.5-35.5s-35.5 15.892-35.5 35.5c0 78.3 63.702 142.001 142.001 142.001v-71c-39.153 0-71.001-31.849-71.001-71.001z" fill="#ff6f4d"/><path d="m284.345 317.999c-8.947-27.057-26.566-53.509-48.628-70.584 50.779-69.956.705-168.918-86.215-168.918-19.606 19.606-19.606 51.395 0 71 19.576 0 35.5 15.924 35.5 35.5s-15.924 35.5-35.5 35.5c-19.608 0-35.5 15.892-35.5 35.5s15.892 35.5 35.5 35.5c39.152 0 71 31.849 71 71 0 39.152-31.849 71.001-71 71.001-19.606 19.606-19.606 51.394 0 71 78.299 0 142.001-63.702 142.001-142.001-.001-15.539-2.524-30.493-7.158-44.498z" fill="#ff8f71"/></g><g><path d="m376.733 189.756c31.211-3.041 61.602-16.334 85.617-39.928 14.154-13.906 14.944-37.043.925-51.083-13.864-13.885-36.353-13.891-50.225-.02-10.428 10.428-23.319 16.916-36.815 19.489l-15.848 9.431v55.426z" fill="#ff8f71"/><path d="m376.234 118.214c-14.659 2.794-30.032.966-43.748-5.505-13.682-6.455-29.969-3.86-40.667 6.837-17.238 17.238-12.41 46.475 9.578 57.003 23.626 11.313 49.756 15.699 75.336 13.207-18.94-19.676-19.107-51.65-.499-71.542z" fill="#ff6f4d"/></g><g fill="#ffdbe0"><path d="m89.89 135.906c-11.874 0-21.5 7.834-21.5 17.5s9.626 17.5 21.5 17.5 21.5-7.835 21.5-17.5-9.626-17.5-21.5-17.5z"/><path d="m208.829 135.906c-11.874 0-21.5 7.834-21.5 17.5s9.626 17.5 21.5 17.5 21.5-7.835 21.5-17.5-9.626-17.5-21.5-17.5z"/></g><g><path d="m363.844 95c26.149 0 47.5-21.226 47.5-47.5 0-25.832-21.229-47.5-47.5-47.5-26.191 0-47.5 21.309-47.5 47.5s21.308 47.5 47.5 47.5zm0-80c17.954 0 32.5 14.801 32.5 32.5 0 17.955-14.595 32.5-32.5 32.5-17.921 0-32.5-14.579-32.5-32.5s14.579-32.5 32.5-32.5z"/><path d="m362.639 212.981c-26.995 0-53.445 7.268-76.486 21.015-11.584 6.902-26.091 10.214-38.34 8.658 44.068-74.378-9.241-171.658-98.311-171.658-41.086 0-79.175 22.31-99.401 58.223-16.035 28.463 4.822 63.278 37.081 63.278 15.783 0 30.376-8.242 38.084-21.51 5.349-9.207 15.567-14.672 26.249-13.921 14.326 1.001 25.986 13.016 25.986 27.931 0 15.439-12.561 28-27.999 28-23.711 0-43.002 19.29-43.002 43.001l.002.361c.192 23.266 19.78 42.395 43.666 42.643 11.17.115 22.133 3.188 31.704 8.884 3.556 2.117 8.162.95 10.28-2.608 2.119-3.56.951-8.162-2.608-10.28-11.844-7.05-25.406-10.852-39.222-10.995-15.767-.163-28.695-12.619-28.821-27.85l-.001-.154c0-15.439 12.562-28.001 28.002-28.001 24.774 0 44.648-21.04 42.892-46.059-1.542-22.089-20.089-39.942-42.891-39.942-15.262 0-29.52 8.222-37.208 21.456-5.032 8.663-14.655 14.045-25.113 14.045-21.02 0-34.29-22.678-24.012-40.916 17.573-31.202 50.653-50.585 86.332-50.585 79.26 0 126.718 89.935 81.393 155.224l-4.203 1.59c-3.875 1.466-5.827 5.794-4.361 9.668 1.471 3.891 5.815 5.822 9.668 4.361l3.875-1.466c5.732 1.77 11.85 2.671 18.231 2.671 13.341 0 27.82-4.068 39.729-11.165 20.722-12.362 44.515-18.897 68.805-18.897 73.492 0 134.361 59.529 134.361 134.513 0 74.164-60.337 134.501-134.502 134.501-15.438 0-27.999-12.561-27.999-27.999l.001-.232c.122-15.231 12.869-27.688 28.416-27.77 43.056-.225 78.084-35.439 78.084-78.5 0-61.313-66.964-98.269-118.484-67.519-11.42 6.807-23.94 11.857-37.231 15.077l-3.407-1.745c-3.686-1.888-8.205-.431-10.095 3.257-1.888 3.688-.43 8.206 3.257 10.095l3.075 1.575c4.316 14.102 6.355 28.936 5.797 44.243-2.622 71.882-61.917 129.524-134.409 129.524-74.166-.002-134.503-60.34-134.503-134.505 0-15.439 12.561-28 27.999-28l.24.002c15.147.125 27.604 13.054 27.766 28.819.442 42.833 35.655 77.68 78.496 77.68.739 0 1.481-.011 2.229-.031 20.014-.558 38.908-8.738 53.204-23.032 27.484-27.484 30.427-69.859 8.751-100.591-2.387-3.383-7.064-4.193-10.452-1.806-3.385 2.388-4.193 7.067-1.806 10.452 28.891 40.959.608 98.567-50.112 99.982-35.481.954-64.947-27.56-65.311-62.809-.245-23.884-19.374-43.472-42.63-43.664l-.375-.002c-23.71 0-42.999 19.29-42.999 43 0 82.437 67.066 149.502 149.502 149.502 80.532 0 146.483-64.035 149.399-143.976.54-14.756-1.069-29.788-5.11-44.658 12.913-3.584 25.128-8.784 36.408-15.508 41.757-24.925 95.801 5.154 95.801 54.636 0 34.832-28.334 63.318-63.162 63.5-23.709.124-43.15 19.256-43.338 42.634l-.001.368c0 23.71 19.289 43.004 42.999 43.004 39.962 0 77.512-15.545 105.733-43.763 28.225-28.22 43.769-65.774 43.769-105.743 0-83.394-67.708-149.513-149.361-149.513z"/><path d="m298.157 183.313c56.135 26.876 124.303 16.218 169.448-28.136 17.029-16.727 18.036-44.645.976-61.732-16.832-16.856-44.04-16.815-60.835-.023-5.897 5.898-12.769 10.502-20.421 13.685-3.824 1.59-5.636 5.979-4.045 9.805 1.59 3.825 5.981 5.636 9.805 4.045 9.474-3.939 17.976-9.635 25.268-16.927 10.927-10.925 28.641-10.973 39.614.015 11.144 11.163 10.232 29.524-.873 40.435-40.711 39.995-102.102 49.416-152.458 25.306-17.357-8.311-21.084-31.364-7.514-44.935 8.556-8.553 21.44-10.416 32.165-5.357 9.878 4.659 20.456 7.169 31.439 7.459 4.125.147 7.586-3.157 7.695-7.299.109-4.141-3.158-7.586-7.299-7.695-8.893-.235-17.451-2.265-25.437-6.031-16.059-7.577-35.835-5.013-49.171 8.316-20.814 20.816-15.146 56.241 11.643 69.069z"/><path d="m92.41 126.12v12c0 4.143 3.357 7.5 7.5 7.5s7.5-3.357 7.5-7.5v-12c0-4.143-3.357-7.5-7.5-7.5s-7.5 3.358-7.5 7.5z"/><path d="m206.308 138.12v-12c0-4.143-3.357-7.5-7.5-7.5s-7.5 3.357-7.5 7.5v12c0 4.143 3.357 7.5 7.5 7.5s7.5-3.357 7.5-7.5z"/></g></g></svg>