<svg id="Capa_1" enable-background="new 0 0 512 512" height="512" viewBox="0 0 512 512" width="512" xmlns="http://www.w3.org/2000/svg"><g><path d="m496.791 417.355c-15.434-25.326-16.51-58.946-3.594-112.418 6.068-25.126.865-50.572-14.281-69.809-16.163-20.531-41.265-31.838-70.688-31.838h-99.518v-75.883c50.169 9.239 109.186 10.93 163.508-22.175 24.858-15.151 32.732-47.584 17.584-72.442-15.151-24.865-47.583-32.73-72.441-17.585-25.332 15.44-58.958 16.51-112.421 3.597-25.137-6.077-50.575-.865-69.809 14.281-20.534 16.163-31.841 41.265-31.841 70.688v204.939h181.304c-9.233 50.169-10.927 109.186 22.178 163.508 9.927 16.293 27.282 25.287 45.06 25.287 9.348 0 18.813-2.488 27.382-7.71 24.857-15.147 32.729-47.582 17.577-72.44z" fill="#ff8e9e"/><path d="m203.29 203.289h-75.88c9.233-50.169 10.927-109.186-22.181-163.511-15.149-24.861-47.578-32.732-72.442-17.578-24.858 15.148-32.73 47.584-17.578 72.442 15.437 25.329 16.513 58.949 3.597 112.419-5.848 24.205-.429 49.228 14.86 68.653 16.507 20.969 42.062 32.997 70.109 32.997h99.514v75.88c-50.166-9.236-109.189-10.927-163.511 22.181-24.858 15.148-32.729 47.583-17.578 72.441 9.927 16.293 27.282 25.287 45.06 25.287 9.348 0 18.813-2.488 27.382-7.71 25.329-15.434 58.949-16.51 112.421-3.597 24.199 5.848 49.231.429 68.653-14.86 20.967-16.507 32.994-42.062 32.994-70.109v-99.514c-58.222 0-105.42-47.198-105.42-105.421z" fill="#ea5b70"/><g fill="#ffdbe0"><ellipse cx="182.744" cy="264.789" rx="27.03" ry="21.525"/><ellipse cx="329.256" cy="264.789" rx="27.03" ry="21.525"/></g><g><path d="m206.789 240.758c-4.391 5.041-12.197 5.037-16.585 0-2.723-3.122-7.46-3.447-10.582-.727-3.122 2.722-3.448 7.459-.727 10.582 10.371 11.899 28.839 11.89 39.202 0 2.722-3.123 2.396-7.86-.727-10.582-3.122-2.721-7.859-2.396-10.581.727z"/><path d="m333.104 250.613c2.722-3.123 2.396-7.86-.727-10.582s-7.86-2.396-10.582.727c-4.391 5.04-12.197 5.037-16.585 0-2.723-3.122-7.46-3.447-10.582-.727-3.122 2.722-3.448 7.459-.727 10.582 10.373 11.9 28.841 11.89 39.203 0z"/><path d="m267.562 248.922c-6.166 7.075-17.121 7.067-23.279 0-2.723-3.122-7.461-3.447-10.582-.727-3.122 2.722-3.448 7.459-.727 10.582 12.144 13.935 33.765 13.92 45.896 0 2.722-3.123 2.396-7.86-.727-10.582-3.123-2.721-7.861-2.396-10.581.727z"/><path d="m11.517 205.299c-13.882 57.445 30.648 110.911 92.258 110.911h92.014v59.47c-47.362-7.676-94.593-6.348-138.612 13.454-3.777 1.699-5.462 6.14-3.763 9.917 1.25 2.778 3.982 4.425 6.844 4.425 1.029 0 2.074-.213 3.073-.662 68.543-30.835 141.832-9.021 149.12-9.021 8.958 0 10.314-13.035 1.503-14.849-1.057-.217-2.114-.419-3.165-.615v-66.511l2.666-2.666c2.929-2.93 2.929-7.678 0-10.607-2.93-2.928-7.678-2.928-10.607 0l-2.666 2.666h-96.406c-52.443 0-89.135-44.95-77.679-92.389 9.447-39.11 16.315-83.953-4.483-118.083-12.793-20.989-6.655-48.892 15.076-62.135 20.954-12.772 48.867-6.696 62.134 15.077 31.794 52.171 31.591 110.951 18.821 170.682-.995 4.652 2.546 9.07 7.342 9.07 3.461 0 6.573-2.412 7.326-5.934.478-2.234.916-4.478 1.336-6.711h66.532l2.666 2.666c2.931 2.929 7.678 2.928 10.607 0 2.929-2.93 2.929-7.678 0-10.607l-2.666-2.666v-96.41c0-56.556 44.921-89.154 92.39-77.679 39.154 9.458 83.978 16.303 118.085-4.482 20.993-12.79 48.894-6.647 62.134 15.081 10.95 17.973 7.904 40.763-6.377 55.249-2.908 2.95-2.874 7.699.075 10.606 2.949 2.906 7.697 2.875 10.606-.075 18.759-19.029 23.275-49.346 8.505-73.585-11.02-18.087-30.261-28.886-51.465-28.886-11.015 0-21.832 3.043-31.283 8.801-30.035 18.305-72.336 11.025-106.756 2.712-56.737-13.715-110.913 25.774-110.913 92.259v92.018h-59.47c9.235-57.014 5.088-111.058-24.687-159.913-17.685-29.027-54.881-37.069-82.747-20.081-18.087 11.02-28.885 30.26-28.885 51.464 0 11.018 3.045 21.836 8.805 31.285 18.298 30.028 11.032 72.304 2.712 106.754z"/><path d="m503.195 413.451c-18.343-30.101-10.973-72.537-2.708-106.755 13.685-56.637-25.663-110.907-92.26-110.907h-89.586v-59.47c49.682 8.078 96.831 6.135 141.979-16.151 3.715-1.834 5.239-6.331 3.406-10.045s-6.331-5.239-10.045-3.406c-48.615 23.998-100.293 22.371-154.178 10.881-4.052-.862-8.035 1.719-8.898 5.771-.864 4.051 1.72 8.035 5.771 8.898 2.001.427 4.453.903 6.964 1.375v66.539l-2.666 2.666c-2.929 2.93-2.929 7.678 0 10.607 2.931 2.929 7.678 2.928 10.607 0l2.666-2.666h93.979c56.682 0 89.116 45.022 77.68 92.386-9.454 39.136-16.307 83.973 4.479 118.083 12.769 20.948 6.695 48.867-15.076 62.135-20.989 12.786-48.887 6.663-62.135-15.077-31.724-52.054-31.593-110.701-18.894-170.329.863-4.051-1.721-8.035-5.772-8.897-4.041-.866-8.035 1.721-8.897 5.772-.451 2.115-.864 4.237-1.261 6.349h-64.102l-2.666-2.666c-2.93-2.928-7.678-2.928-10.607 0-2.929 2.93-2.929 7.678 0 10.607l2.666 2.666v96.407c0 44.858-42.866 90.233-94.818 77.678-39.147-9.451-83.973-16.3-118.083 4.483-30.077 18.326-68.749-3.34-68.749-38.554 0-13.826 6.154-26.689 16.886-35.29 3.232-2.591 3.752-7.311 1.162-10.543-2.591-3.233-7.312-3.752-10.543-1.162-14.302 11.464-22.505 28.593-22.505 46.996 0 32.2 25.909 60.168 60.269 60.168 11.014 0 21.832-3.045 31.285-8.805 30.092-18.335 72.506-10.981 106.757-2.712 61.682 14.91 113.34-38.011 113.34-92.259v-92.014h57.042c-9.237 57.007-5.088 111.064 24.684 159.911 17.664 28.99 54.846 37.083 82.748 20.08 18.086-11.02 28.884-30.26 28.884-51.465 0-11.017-3.045-21.836-8.805-31.285z"/></g></g></svg>