<svg id="Capa_1" enable-background="new 0 0 512 512" height="512" viewBox="0 0 512 512" width="512" xmlns="http://www.w3.org/2000/svg"><g><g><path d="m278.363 310.115-14.083 15.707v82.054l43.78 34.253c46.539 14.173 93.058 25.737 139.5 16.59 32.745-6.449 56.941-25.667 56.941-59.673v-85.833z" fill="#70dcba"/><path d="m280.002 157.974-15.723 7.198v130.65l14.083 14.293c9.705 3.003 19.369 6.057 28.975 9.004 46.981 14.411 93.946 26.259 140.829 16.843 20.389-4.072 39.421-11.897 56.333-22.749v-152.65z" fill="#efedff"/><g><path d="m448.164 60.646c-46.884 9.417-93.845-2.416-140.826-16.827l-43.059 18.755v80.598l15.723 14.802c9.154 2.838 18.27 5.715 27.335 8.495 46.981 14.412 93.946 26.259 140.829 16.843 20.389-4.072 39.421-11.897 56.333-22.749v-53.369c.001-30.275-27.906-52.257-56.335-46.548z" fill="#ffce71"/><path d="m67.5 37.5-26.944 138.203 239.446-17.729c4.927-42.095 14.058-73.672 27.335-114.155-78.736-24.152-161.264-55.55-239.837-6.319z" fill="#ffb357"/></g><path d="m280.002 157.974c-70.353-21.817-142.976-41.386-212.502 2.176l-26.944 15.553-9.32 61.263 14.312 88.505 232.815-15.356c-1.558-16.938-2.455-44.102-2.64-61.461-.288-27.005 1.15-63.947 4.279-90.68z" fill="#d4d4ff"/><path d="m67.5 312.8-21.952 12.671 21.952 110.421c78.812-49.381 161.582-17.815 240.559 6.237-14.888-44.843-25.138-82.457-29.696-132.013-69.842-21.61-141.877-40.54-210.863 2.684z" fill="#30cd9c"/></g><path d="m37.5 7.5c-16.569 0-30 13.431-30 30v437c0 16.569 13.432 30 30 30s30-13.431 30-30v-38.608-398.392c0-16.569-13.431-30-30-30z" fill="#d6948c"/><g><path d="m222.524 232.45c0 13.869 5.657 26.744 14.91 35.997 32.051 32.051 86.903 9.04 86.903-35.997 0-13.871-5.659-26.745-14.91-35.996-32.096-32.097-86.903-8.993-86.903 35.996zm20.788-19.512 12.012 12.012h-17.006c.928-4.346 2.647-8.4 4.994-12.012zm-4.994 27.012h17.006l-12.012 12.012c-2.347-3.611-4.066-7.666-4.994-12.012zm27.614 27.613c-4.347-.927-8.401-2.646-12.012-4.994l12.012-12.012zm0-53.219-12.012-12.012c3.611-2.348 7.666-4.066 12.012-4.994zm15-17.006c4.346.927 8.4 2.646 12.011 4.994l-12.011 12.011zm0 70.225v-17.006l12.012 12.012c-3.612 2.348-7.666 4.067-12.012 4.994zm22.618-15.601-12.012-12.012h17.006c-.927 4.347-2.646 8.401-4.994 12.012zm-12.011-27.012 12.011-12.011c2.348 3.611 4.066 7.665 4.994 12.011z"/><path d="m457.248 52.241c-13.384 0-28.247 7.336-67.97 2.887-4.117-.462-7.827 2.501-8.289 6.617-.462 4.117 2.501 7.828 6.617 8.289 41.407 4.641 59.474-2.793 69.642-2.793 21.919 0 39.752 17.923 39.752 39.952v49.188c-132.845 80.826-278.299-85.789-422-9.23v-105.442c91.561-54.395 189.017 3.381 282.296 23.307 4.049.863 8.036-1.718 8.901-5.769.864-4.051-1.718-8.036-5.769-8.901-89.897-19.2-190.738-77.661-287.382-24.766-4.993-14.85-19.035-25.58-35.546-25.58-20.678 0-37.5 16.822-37.5 37.5v355.715c0 4.143 3.357 7.5 7.5 7.5s7.5-3.357 7.5-7.5v-355.715c0-12.406 10.094-22.5 22.5-22.5s22.5 10.094 22.5 22.5v398.392 38.608c0 12.406-10.094 22.5-22.5 22.5s-22.5-10.094-22.5-22.5v-51.285c0-4.143-3.357-7.5-7.5-7.5s-7.5 3.357-7.5 7.5v51.285c0 20.678 16.822 37.5 37.5 37.5s37.5-16.822 37.5-37.5v-34.375c120.984-71.885 248.417 50.7 374.008 25.952 36.5-7.188 62.992-39.585 62.992-77.031v-281.853c0-30.3-24.562-54.952-54.752-54.952zm39.752 336.805c0 30.3-21.402 56.507-50.892 62.314-117.71 23.186-245.41-95.298-371.108-28.468v-105.858c136.065-80.835 281.54 85.351 422 9.303zm0-80.015c-132.877 80.799-278.065-85.718-422-9.22v-135.428c136.117-80.938 281.496 85.487 422 9.309z"/></g></g></svg>