<svg id="Capa_1" enable-background="new 0 0 512 512" height="512" viewBox="0 0 512 512" width="512" xmlns="http://www.w3.org/2000/svg"><g><path d="m476.855 109.213h-6.592c-9.2 0-18.023 3.668-24.528 10.196l-18.993 19.061c-4.337 4.352-6.773 10.255-6.773 16.409v6.385h-23.866c-9.578 0-17.343 7.792-17.343 17.405 0 9.612 7.765 17.405 17.343 17.405h23.866v31.667c0 9.564 7.324 17.793 16.843 18.243 10.164.48 18.555-7.648 18.555-17.742v-30.486l41.037-41.183c5.184-5.203 8.097-12.26 8.097-19.618-.001-15.321-12.378-27.742-27.646-27.742z" fill="#ffce71"/><path d="m330.201 169.585-104.752-30.83v-23.905c0-12.256-9.9-22.192-22.113-22.192h-12.381v-62.123c0-12.722-10.276-23.035-22.953-23.035l-46.851 25.549v163.026l101.312 20 125.367-20v-2.865c0-10.929-7.179-20.549-17.629-23.625z" fill="#ffce71"/><path d="m168.002 7.5h-43.736c-12.677 0-22.954 10.313-22.954 23.036v72.155c0 5.297-2.097 10.377-5.829 14.122l-20.655 20.729c-3.735 3.749-8.804 5.846-14.086 5.85-10.984.008-19.886 8.947-19.886 19.971v32.712l39.218 20 41.077-20c.378-64.472 15.833-129.156 46.851-188.575z" fill="#ffb357"/><g><path d="m121.151 196.075v164.557l48.573 32.246 18.12 10 17.704-10 132.122-132.592c6.505-6.528 10.16-15.382 10.16-24.615v-39.596z" fill="#efedff"/><path d="m121.151 196.075h-80.295v14.265c-18.422 0-33.356 14.987-33.356 33.475v3.137c0 18.487 14.934 33.475 33.356 33.475h39.61v83.352c0 9.894 1.596 19.713 4.684 29.099l40.584 20 43.991-20c-32.603-61.084-48.972-128.825-48.574-196.803z" fill="#d4d4ff"/></g><g fill="#ff8e9e"><path d="m125.247 240.187c-16.212 0-29.355 10.466-29.355 23.376 0 12.911 13.143 23.377 29.355 23.377s29.355-10.466 29.355-23.377c0-12.91-13.143-23.376-29.355-23.376z"/><path d="m274.36 240.187c-16.212 0-29.354 10.466-29.354 23.376 0 12.911 13.143 23.377 29.354 23.377 16.212 0 29.355-10.466 29.355-23.377 0-12.91-13.143-23.376-29.355-23.376z"/></g><g><g><path d="m85.149 392.877c.222.674.431 1.352.668 2.021l27.646 77.971c7.116 20.07 26.736 33.086 48.199 31.5 24.908-1.841 43.885-23.267 43.885-48.331v-7.35c-13.557-17.8-25.502-36.473-35.824-55.812h-84.574z" fill="#30cd9c"/></g><path d="m169.724 392.877h35.824v55.812h-35.824z" fill="#70dcba"/><g><path d="m85.149 392.877c.222.674.431 1.352.668 2.021l27.646 77.971c7.116 20.07 26.736 33.086 48.199 31.5 24.908-1.841 43.885-23.267 43.885-48.331v-7.35c-13.557-17.8-25.502-36.473-35.824-55.812h-84.574z" fill="#30cd9c"/></g></g><g><path d="m476.854 101.713h-6.592c-11.274 0-21.872 4.404-29.841 12.402l-18.993 19.062c-5.516 5.534-8.666 12.809-8.941 20.588h-16.385c-13.699 0-24.844 11.173-24.844 24.905s11.145 24.905 24.844 24.905h16.365v24.167c0 13.795 10.537 25.099 23.989 25.734.412.02.821.029 1.23.029 14.126 0 25.179-11.557 25.179-25.263v-27.388l38.85-38.987c6.632-6.655 10.284-15.503 10.284-24.911.001-19.433-15.766-35.243-35.145-35.243zm14.237 49.567-36.578 36.708c-2.409-.522-5.024.148-6.896 2.022-2.928 2.929-2.927 7.678.003 10.606l.247.247v27.379c0 5.849-4.83 10.521-10.7 10.251-5.348-.253-9.698-5.076-9.698-10.752v-28.577c2.762-2.94 2.714-7.559-.158-10.432-2.874-2.872-7.492-2.919-10.432-.158h-20.775c-5.428 0-9.844-4.443-9.844-9.905s4.416-9.905 9.844-9.905h20.758c7.805 7.805 18.436-2.779 10.607-10.607 0-3.279-.586-9.202 4.586-14.393l18.993-19.062c5.135-5.152 11.958-7.99 19.216-7.99h6.592c11.108 0 20.146 9.081 20.146 20.244-.002 5.335-2.156 10.556-5.911 14.324z"/><path d="m142.354 221.56c-4.143 0-7.5 3.357-7.5 7.5v12c0 4.143 3.357 7.5 7.5 7.5s7.5-3.357 7.5-7.5v-12c0-4.143-3.357-7.5-7.5-7.5z"/><path d="m257.252 221.56c-4.143 0-7.5 3.357-7.5 7.5v12c0 4.143 3.357 7.5 7.5 7.5s7.5-3.357 7.5-7.5v-12c0-4.143-3.357-7.5-7.5-7.5z"/><path d="m221.194 235.049c-3.123-2.722-7.861-2.397-10.581.728-5.724 6.568-15.9 6.563-21.62-.001-2.722-3.124-7.46-3.447-10.582-.727-3.123 2.722-3.447 7.46-.727 10.582 11.703 13.428 32.546 13.417 44.237-.001 2.723-3.122 2.396-7.86-.727-10.581z"/><path d="m332.318 162.391-99.369-29.245v-18.296c0-16.372-13.284-29.691-29.613-29.691h-4.881v-13.632c0-4.143-3.357-7.5-7.5-7.5s-7.5 3.357-7.5 7.5v18.024l-2.438 2.438c-2.93 2.929-2.93 7.677-.001 10.606s7.677 2.93 10.606.001l2.439-2.438h9.275c8.058 0 14.613 6.591 14.613 14.691v20.799l-2.228 2.228c-2.929 2.93-2.929 7.678 0 10.607 2.931 2.929 7.678 2.928 10.607 0l1.275-1.275 100.48 29.573c5.688 1.673 10.011 6.235 11.587 11.793h-291.315v-25.211c0-6.872 5.559-12.467 12.393-12.472 7.335-.006 14.223-2.866 19.393-8.056l20.654-20.729c5.17-5.187 8.018-12.082 8.018-19.416v-72.155c0-8.566 6.933-15.535 15.454-15.535h43.735c8.521 0 15.453 6.969 15.453 15.535v10.992c0 4.143 3.357 7.5 7.5 7.5s7.5-3.357 7.5-7.5v-10.992c0-16.837-13.661-30.535-30.453-30.535h-43.735c-16.792 0-30.454 13.698-30.454 30.535v72.156c0 3.288-1.327 6.505-3.642 8.827l-20.655 20.729c-2.339 2.348-5.456 3.641-8.778 3.644-15.099.011-27.382 12.335-27.382 27.472v40.169c-18.959 3.542-33.356 20.258-33.356 40.282v3.137c0 22.594 18.328 40.975 40.855 40.975h32.109v75.853c0 11.629 2.082 23.202 5.787 33.634 0 .002.001.003.002.005l13.363 37.688c1.09 3.076 3.981 4.996 7.068 4.996.832 0 1.678-.14 2.506-.434 3.904-1.384 5.947-5.671 4.562-9.575l-10.536-29.715h102.331v55.662c0 22.229-17.589 40.961-39.915 40.961-16.842 0-31.952-10.704-37.6-26.637l-4.254-11.995c-1.383-3.905-5.672-5.944-9.574-4.562-3.904 1.384-5.947 5.671-4.563 9.574l4.253 11.995c7.768 21.905 28.559 36.624 51.74 36.624 30.62 0 54.915-25.537 54.915-55.961v-60.063l129.933-130.396c7.962-7.989 12.348-18.611 12.348-29.909v-42.461c0-14.159-9.463-26.833-23.012-30.819zm.039 92.6-129.922 130.386h-111.666c-1.851-7.074-2.804-14.315-2.804-21.599v-80.246l1.655-1.655c2.929-2.929 2.93-7.677.001-10.606s-7.676-2.93-10.606-.001l-1.656 1.655h-36.504c-14.256.001-25.855-11.652-25.855-25.974v-3.137c0-13.325 10.042-24.334 22.922-25.803l.939.939c1.465 1.465 3.384 2.196 5.303 2.196 1.92 0 3.84-.732 5.304-2.197 2.929-2.93 2.928-7.679-.001-10.606l-1.111-1.111v-3.659h291.974v32.097c0 7.302-2.831 14.163-7.973 19.321z"/></g></g></svg>