<svg id="Capa_1" enable-background="new 0 0 512 512" height="512" viewBox="0 0 512 512" width="512" xmlns="http://www.w3.org/2000/svg"><g><g><path d="m201.507 333.042v84.233h109.526l55.937-19c10.615-7.747 20.998-15.784 32.337-25.102 14.482-11.9 29.596-25.215 43.703-40.131l-128.104-20z" fill="#70dcba"/><path d="m363.93 56.375c-12.122 0-23.875 1.554-35.096 4.433-16.042 4.116-30.984 10.964-44.273 20.056-17.253 11.802-39.866 11.802-57.119 0-13.29-9.091-28.232-15.94-44.274-20.056h-40.282l-60 40v64.901l26.521 14 207.217 40 186.849-40c-8.4-69.484-67.668-123.334-139.543-123.334z" fill="#ffce71"/><path d="m503.472 179.709h-394.067l-26.521 20v111.842l118.623 21.491h241.503c33.603-35.529 61.49-80.141 61.49-136.35 0-5.749-.354-11.415-1.028-16.983z" fill="#efedff"/></g><g><path d="m112.694 373.173c23.841 19.59 44.027 33.923 70.473 51.338 8.986 5.918 18.692 12.19 29.513 19.147 26.38 16.961 60.269 16.952 86.648-.01 10.898-7.007 20.593-13.271 29.506-19.135 14.121-9.291 26.275-17.583 38.137-26.239-12.902 0-25.588-1.141-38.137-3.2-51.373-8.429-87.83-29.215-127.326-62.033l-66.039-20-66.477 20c14.106 14.917 29.22 28.232 43.702 40.132z" fill="#30cd9c"/><path d="m183.167 60.808c-11.22-2.879-22.974-4.433-35.095-4.433-71.875 0-131.144 53.849-139.543 123.333l47.953 20 52.924-20c-1.155-54.573 28.657-99.364 73.761-118.9z" fill="#ffb357"/><path d="m109.405 179.709h-100.877c-.674 5.568-1.028 11.234-1.028 16.983 0 56.209 27.888 100.821 61.491 136.35h132.516c-6.234-5.176-12.375-10.479-18.341-15.942-41.264-37.792-72.579-81.621-73.761-137.391z" fill="#d4d4ff"/></g><g fill="#ff8e9e"><ellipse cx="182.744" cy="144.144" rx="27.03" ry="21.525"/><ellipse cx="329.256" cy="144.144" rx="27.03" ry="21.525"/></g><g><path d="m310.166 256.091c0-29.835-24.312-54.166-54.166-54.166-29.835 0-54.166 24.312-54.166 54.166 0 29.835 24.311 54.167 54.166 54.167 29.834 0 54.166-24.31 54.166-54.167zm-92.604 7.5h20.331l-14.37 14.37c-2.883-4.268-4.941-9.136-5.961-14.37zm5.961-29.369 14.37 14.37h-20.33c1.019-5.234 3.077-10.102 5.96-14.37zm70.915 14.369h-20.33l14.37-14.37c2.882 4.269 4.94 9.137 5.96 14.37zm-30.938-10.607v-20.33c5.234 1.02 10.101 3.077 14.37 5.96zm-15 0-14.37-14.37c4.269-2.883 9.136-4.941 14.37-5.96zm0 36.215v20.331c-5.234-1.02-10.101-3.077-14.369-5.961zm15 0 14.369 14.37c-4.268 2.884-9.135 4.941-14.369 5.961zm10.607-10.608h20.331c-1.02 5.234-3.077 10.102-5.961 14.37z"/><path d="m280.326 74.39c-7.212 4.934-15.624 7.541-24.326 7.541-9.661 0-16.652-2.823-24.081-7.356-19.703-14.66-51.285-26.143-83.188-26.143-23.067 0-46.31 5.555-67.215 16.063-3.701 1.86-5.193 6.369-3.333 10.069 1.86 3.701 6.37 5.192 10.069 3.333 18.826-9.464 39.739-14.466 60.479-14.466 26.402 0 52.156 8.07 74.476 23.339.089.061.184.102.274.159 12.816 9.778 40.993 16.477 65.313-.159 81.496-55.753 189.821-5.018 206.044 85.154h-477.676c5.575-31.079 21.842-58.458 47.193-78.717 3.236-2.586 3.764-7.306 1.178-10.541-2.587-3.236-7.307-3.765-10.541-1.178-34.08 27.236-54.994 68.008-54.992 114.92 0 114.822 112.351 191.383 208.624 253.276 14.151 9.099 30.531 13.907 47.367 13.907 16.844 0 33.231-4.812 47.394-13.917 12.553-8.071 27.398-17.688 42.325-27.816 3.428-2.325 4.321-6.989 1.995-10.417-2.325-3.428-6.99-4.321-10.417-1.995-14.791 10.035-29.54 19.589-42.016 27.611-11.737 7.546-25.32 11.534-39.281 11.534-13.954 0-27.528-3.985-39.256-11.524-48.21-30.995-94.182-62.296-130.031-96.809h338.626c-20.186 19.553-42.419 36.853-63.604 52.124-3.36 2.422-4.12 7.109-1.698 10.47 2.423 3.361 7.109 4.121 10.47 1.698 72.918-52.563 141.5-118.376 141.502-208.142 0-118.961-133.909-188.898-231.674-122.018zm159.631 250.868h-367.971c-34.837-37.698-56.986-79.486-56.986-128.85 0-3.19.118-6.35.328-9.482h481.346c.208 3.114.326 6.271.326 9.482 0 50.619-24.324 93.174-57.043 128.85z"/><path d="m218.097 120.685c2.722-3.123 2.397-7.86-.725-10.582-3.124-2.723-7.861-2.397-10.582.725-4.398 5.043-12.195 5.037-16.587 0-2.721-3.122-7.458-3.448-10.582-.725-3.122 2.722-3.446 7.459-.725 10.582 10.373 11.899 28.838 11.888 39.201 0z"/><path d="m333.104 120.685c2.722-3.123 2.397-7.86-.725-10.582-3.124-2.723-7.861-2.397-10.582.725-4.397 5.043-12.195 5.037-16.587 0-2.721-3.122-7.458-3.448-10.582-.725-3.122 2.722-3.446 7.459-.725 10.582 10.373 11.899 28.838 11.888 39.201 0z"/><path d="m278.871 128.848c2.722-3.123 2.396-7.86-.727-10.582-3.125-2.722-7.862-2.396-10.582.727-6.166 7.075-17.121 7.067-23.279 0-2.723-3.122-7.461-3.447-10.582-.727-3.122 2.722-3.448 7.459-.727 10.582 12.144 13.935 33.766 13.92 45.897 0z"/></g></g></svg>