<svg id="Capa_1" enable-background="new 0 0 512 512" height="512" viewBox="0 0 512 512" width="512" xmlns="http://www.w3.org/2000/svg"><g><g><path d="m199.646 65.667-53.583-58.167h-69.282l13.583 58.167 72.751 104.734h81.16z" fill="#efedff"/><path d="m229.779 32.5c-8.932-15.47-25.438-25-43.301-25h-40.415l94.051 162.901h69.282z" fill="#30cd9c"/><path d="m42.14 67.5 59.41 102.901h69.282l-94.051-162.901c-30.792 0-50.037 33.333-34.641 60z" fill="#ffb357"/></g><g><path d="m421.635 65.667 13.582-58.167h-69.282l-53.582 58.167-44.63 104.734h81.161z" fill="#efedff"/><path d="m365.935 7.5h-40.415c-17.863 0-34.37 9.53-43.301 25l-79.617 137.901h69.282z" fill="#70dcba"/><path d="m469.858 67.5c15.396-26.667-3.849-60-34.641-60l-94.051 162.901h69.282z" fill="#ffce71"/></g><g><g><path d="m460.998 298.837c-.104-32.591-32.245-55.47-63.24-45.398 30.977-10.065 43.579-47.461 24.504-73.865-25.245-34.944-61.233-61.615-103.125-75.165-31.183-10.086-63.139 13.218-63.139 45.992h-50v269.699h137.622c19.258 26.507 58.771 26.562 78.086.096 24.709-33.857 39.292-75.572 39.292-120.696.001-.221.001-.442 0-.663z" fill="#fce3a0"/><path d="m343.621 420.101c-10.334-1.637-20.346-4.285-29.946-7.81-45.303-16.633-81.242-53.234-96.498-100.194-14.246-43.847-8.593-90.986 14.096-129.673 6.759-11.526 15.014-22.31 24.727-32.023 0-32.774-31.957-56.079-63.139-45.992-41.891 13.55-77.88 40.221-103.125 75.165-19.074 26.404-6.472 63.799 24.505 73.865-30.996-10.072-63.137 12.807-63.241 45.398-.001.221-.001.442-.001.663 0 45.125 14.584 86.839 39.292 120.696 19.315 26.467 58.828 26.412 78.086-.096-19.36 26.646-6.935 64.303 24.396 74.457 19.913 6.454 41.161 9.942 63.226 9.942s43.312-3.488 63.226-9.942c31.33-10.153 43.756-47.81 24.396-74.456z" fill="#ffce71"/></g><g><path d="m255.999 179.943c-8.469 0-16.738.855-24.727 2.481l-34.096 20v209.867h116.498c39.046-20.699 65.648-61.752 65.648-109.024.001-68.11-55.213-123.324-123.323-123.324z" fill="#ffce71"/><path d="m132.676 303.267c0 68.11 55.214 123.324 123.324 123.324 20.838 0 40.464-5.176 57.676-14.3-45.303-16.633-81.242-53.234-96.498-100.194-14.246-43.847-8.593-90.986 14.096-129.673-56.261 11.451-98.598 61.202-98.598 120.843z" fill="#ffb357"/></g></g><g fill="#ff8e9e"><path d="m182.434 296.258c-17.029 0-30.834 10.993-30.834 24.554 0 13.562 13.805 24.555 30.834 24.555s30.833-10.993 30.833-24.555c.001-13.561-13.804-24.554-30.833-24.554z"/><path d="m329.564 296.258c-17.029 0-30.833 10.993-30.833 24.554 0 13.562 13.805 24.555 30.833 24.555 17.029 0 30.834-10.993 30.834-24.555.001-13.561-13.804-24.554-30.834-24.554z"/></g><g><path d="m207.904 308.873v-12c0-4.143-3.357-7.5-7.5-7.5s-7.5 3.357-7.5 7.5v12c0 4.143 3.357 7.5 7.5 7.5s7.5-3.357 7.5-7.5z"/><path d="m255.999 323.656c7.916 0 15.444-3.428 20.653-9.405 2.722-3.122 2.397-7.859-.726-10.581-3.122-2.723-7.86-2.397-10.581.726-2.36 2.708-5.768 4.261-9.347 4.261s-6.986-1.553-9.347-4.261c-2.721-3.122-7.459-3.448-10.581-.726-3.123 2.722-3.447 7.459-.726 10.581 5.211 5.978 12.739 9.405 20.655 9.405z"/><path d="m307.505 308.539c0-3.532 2.874-6.406 6.406-6.406s6.406 2.874 6.406 6.406c0 4.143 3.357 7.5 7.5 7.5s7.5-3.357 7.5-7.5c0-11.804-9.603-21.406-21.406-21.406s-21.406 9.603-21.406 21.406c0 4.143 3.357 7.5 7.5 7.5s7.5-3.357 7.5-7.5z"/><path d="m450.917 85.308c-2.071 3.587-.842 8.174 2.745 10.245 3.588 2.068 8.174.842 10.245-2.745l12.446-21.558c18.38-31.841-4.818-71.25-41.136-71.25h-109.696c-20.478 0-39.558 11.017-49.796 28.75l-19.726 34.165-19.725-34.165c-10.239-17.733-29.319-28.75-49.796-28.75h-109.697c-36.56 0-59.435 39.554-41.137 71.25l54.846 94.996c-8.738 10.842-17.272 22.226-17.272 41.062 0 14.214 5.305 27.427 14.331 37.459-25.062 5.348-43.964 27.549-44.049 54.037l-.001.696c0 22.254 3.427 44.18 10.186 65.168 1.27 3.943 5.497 6.111 9.438 4.84 3.942-1.27 6.109-5.495 4.84-9.438-6.279-19.5-9.463-39.879-9.463-60.57l.001-.639c.087-27.105 26.839-46.909 53.394-38.298l.029.009c3.331.999 7.027-.287 8.77-3.296 2.493-4.304.318-9.522-4.134-10.97 0 0 0 0-.001 0-26.224-8.521-36.821-40.085-20.743-62.34 35.67-49.367 88.72-71.471 106.198-74.001 23.636-3.418 46.38 14.814 46.486 40.256.017 4.022 3.161 7.504 7.179 7.672 4.289.179 7.822-3.244 7.822-7.493 0-27.446 26.726-47.463 53.33-38.856 15.982 5.17 31.291 12.405 45.503 21.507 21.021 13.46 39.288 30.755 53.851 50.914 16.044 22.21 5.526 53.679-20.568 62.284-3.735 1.232-6.076 5.117-5.15 8.939 1.041 4.298 5.489 6.723 9.612 5.384 25.971-8.441 53.377 10.329 53.422 38.928 0 42.138-13.089 82.346-37.852 116.275-15.146 20.756-44.663 21.99-61.656 5-2.763-2.762-7.17-3.002-10.33-.706l-.225.164c-3.18 2.31-4.107 6.57-2.344 10.083 10.972 21.863.112 49.234-24.18 57.107-38.409 12.448-81.42 13.096-121.826 0-24.279-7.87-35.154-35.239-24.181-57.106 1.761-3.51.827-7.766-2.357-10.064l-.399-.288c-3.094-2.233-7.394-1.986-10.092.713-7.584 7.588-17.765 11.836-28.765 11.836-13.173 0-25.18-6.101-32.942-16.739-6.609-9.054-12.475-18.723-17.439-28.741-1.806-3.644-6.217-5.4-9.92-3.718-3.879 1.761-5.502 6.366-3.631 10.154 5.176 10.477 11.268 20.6 18.119 30.108 10.796 14.985 28.131 24.18 46.598 23.932 7.692-.103 15.078-1.728 21.831-4.707-2.625 26.204 13.295 50.703 38.553 58.891 21.103 6.84 43.153 10.308 65.538 10.308s44.436-3.468 65.538-10.308c25.212-8.171 41.184-32.633 38.554-58.891 22.375 9.871 51.126 4.49 67.674-18.184 26.431-36.217 40.799-79.38 40.733-125.806-.085-26.496-18.989-48.698-44.049-54.046 16.992-18.888 19.621-47.808 3.893-69.585-2.182-3.021-4.475-6.009-6.835-8.937l27.399-47.456c2.071-3.587.842-8.174-2.745-10.245-3.59-2.07-8.175-.842-10.245 2.745l-24.818 42.982c-10.47-11.182-22.094-21.191-34.71-29.88l63.007-109.131c22.025 2.688 35.945 27.736 23.967 48.49zm-350.02 68.963-52.262-90.521c-11.771-20.39 1.345-45.645 23.969-48.485l63.004 109.126c-12.617 8.69-24.242 18.699-34.711 29.88zm47.373-37.949-58.498-101.322h51.962l47.717 82.649c-14.329 4.724-28.144 10.988-41.181 18.673zm85.653-15.17c-8.704-4.64-18.64-7.037-28.896-6.525l-45.973-79.627h27.424c15.135 0 29.238 8.143 36.806 21.25l24.056 41.665zm73.049-6.524c-21.26-1.073-40.661 10.05-50.947 27.766-2.644-4.549-5.964-8.724-9.874-12.422l42.564-73.722c7.567-13.107 21.671-21.25 36.806-21.25h27.424zm56.756 21.694c-13.037-7.685-26.851-13.949-41.18-18.673l47.717-82.649h51.962z"/><path d="m186.048 210.945c3.3-2.505 3.944-7.209 1.44-10.509-2.505-3.3-7.209-3.945-10.509-1.44-32.922 24.987-51.804 62.992-51.805 104.271 0 73.291 59.903 130.938 130.49 130.938 68.719 0 131.158-54.994 131.158-130.938 0-72.137-58.688-130.824-130.824-130.824-17.91 0-35.268 3.557-51.593 10.57-3.806 1.635-5.565 6.046-3.93 9.852 1.634 3.804 6.043 5.567 9.852 3.93 14.442-6.205 29.809-9.352 45.671-9.352 63.865 0 115.824 51.959 115.824 115.824 0 63.928-52.108 115.938-116.158 115.938-62.239 0-115.49-50.863-115.49-115.938.002-36.546 16.722-70.197 45.874-92.322z"/></g></g></svg>