<svg id="Capa_1" enable-background="new 0 0 512 512" height="512" viewBox="0 0 512 512" width="512" xmlns="http://www.w3.org/2000/svg"><g><g><path d="m431.754 80.246c-37.686-37.686-85.383-61.755-137.122-69.77h-16.132v43.274c-.008 14.346 9.623 26.907 23.479 30.623 13.856 3.717 28.48-2.338 35.653-14.762l-59.132 102.418v167.941l59.131 102.418c-7.173-12.424-21.797-18.479-35.653-14.762-13.855 3.716-23.486 16.277-23.479 30.623v43.273h16.132c51.739-8.015 99.436-32.084 137.122-69.77 46.912-46.909 72.747-109.326 72.747-175.752s-25.835-128.843-72.746-175.754zm10.635 94.123c-12.423 7.173-18.479 21.797-14.762 35.652 3.716 13.855 16.277 23.486 30.623 23.479h-118.279zm-65.821-82.199c-7.167 12.414-5.103 28.094 5.033 38.229 10.136 10.136 25.815 12.2 38.229 5.033l-102.359 59.098zm5.034 289.432c-10.136 10.135-12.2 25.814-5.033 38.229l-59.098-102.359 102.359 59.098c-12.413-7.169-28.093-5.104-38.228 5.032zm60.787-43.971-102.418-59.131h118.279c-14.341 0-26.896 9.631-30.611 23.482s2.334 28.472 14.75 35.649z" fill="#2ed0fc"/><path d="m278.5 411.667v-71.696-167.942-79.859-38.42c0-15.947 5.771-31.29 16.132-43.273-12.666-1.963-25.57-2.977-38.632-2.977-66.426 0-128.843 25.835-175.754 72.746s-72.746 109.328-72.746 175.754 25.835 128.843 72.746 175.754 109.328 72.746 175.754 72.746c13.062 0 25.966-1.014 38.632-2.977-10.36-11.983-16.132-27.326-16.132-43.273zm-148.101-281.269c10.136-10.135 12.2-25.814 5.033-38.229l59.097 102.359-102.359-59.096c12.413 7.167 28.093 5.102 38.229-5.034zm-60.788 43.971 102.418 59.131h-118.279c14.345.008 26.906-9.623 30.623-23.479 3.717-13.855-2.339-28.479-14.762-35.652zm0 163.262c12.416-7.177 18.465-21.798 14.75-35.648-3.715-13.852-16.27-23.483-30.611-23.483h118.279zm60.788 43.971c-10.136-10.136-25.815-12.2-38.229-5.033l102.36-59.098-59.098 102.359c7.167-12.414 5.102-28.094-5.033-38.228zm103.101 76.648c.008-14.346-9.623-26.907-23.479-30.623-13.856-3.717-28.48 2.338-35.653 14.762l59.132-102.418zm0-286.221-59.131-102.418c7.173 12.424 21.797 18.479 35.653 14.762 13.855-3.716 23.486-16.277 23.479-30.623v118.279z" fill="#1cbbea"/></g><g><path d="m278.169 148.234-132.169 107.766 132.501 107.696c49.959-10.384 87.499-54.656 87.499-107.696 0-53.157-37.706-97.509-87.831-107.766z" fill="#55dafe"/><path d="m278.169 148.234c-7.161-1.464-14.575-2.234-22.169-2.234-60.751 0-110 49.249-110 110s49.249 110 110 110c7.711 0 15.237-.794 22.501-2.304-59.72-59.352-59.868-155.925-.332-215.462z" fill="#2ed0fc"/></g><g fill="#ffdbe0"><ellipse cx="191.443" cy="271.563" rx="29.355" ry="23.377"/><ellipse cx="320.557" cy="271.563" rx="29.355" ry="23.377"/></g><g><path d="m203.551 256.56c4.143 0 7.5-3.357 7.5-7.5v-12c0-4.143-3.357-7.5-7.5-7.5s-7.5 3.357-7.5 7.5v12c0 4.142 3.357 7.5 7.5 7.5z"/><path d="m308.448 256.56c4.143 0 7.5-3.357 7.5-7.5v-12c0-4.143-3.357-7.5-7.5-7.5s-7.5 3.357-7.5 7.5v12c0 4.142 3.358 7.5 7.5 7.5z"/><path d="m278.118 253.63c2.722-3.122 2.396-7.86-.728-10.581-3.123-2.722-7.86-2.397-10.581.728-5.724 6.568-15.9 6.562-21.619 0-2.721-3.124-7.459-3.448-10.581-.728-3.123 2.721-3.449 7.459-.728 10.581 11.701 13.429 32.546 13.418 44.237 0z"/><path d="m46.25 278.5c0 4.143 3.357 7.5 7.5 7.5 24.361 0 33.649 32.466 12.111 45.136-.001.001-.002.001-.003.002-3.586 2.072-4.812 6.659-2.741 10.245 2.779 4.81 8.899 4.092 10.254 2.737l74.207-42.843c3.907 9.32 8.984 18.031 15.043 25.955-.001.001-74.2 42.84-74.201 42.841-3.587 2.071-4.816 6.658-2.745 10.245 2.072 3.588 6.659 4.816 10.245 2.745 21.321-12.309 45.338 11.674 33.017 33.017-4.814 8.337 7.498 16.129 13.01 7.467l42.821-74.168c7.924 6.059 16.635 11.136 25.956 15.043-.006.01-42.844 74.206-42.849 74.217-2.071 3.588-.842 8.175 2.745 10.245 3.587 2.069 8.174.842 10.245-2.745 12.322-21.34 45.149-12.569 45.136 12.107v.004c0 4.142 3.356 7.499 7.498 7.5h.002c4.141 0 7.498-3.355 7.5-7.496 0-.001 0-.003 0-.004v-85.703c9.936 1.27 20.049 1.272 30 0v85.703.004c.002 4.141 3.359 7.496 7.5 7.496h.002c4.142-.001 7.498-3.358 7.498-7.5v-.004c-.013-24.64 32.8-33.479 45.136-12.107 2.07 3.588 6.656 4.815 10.245 2.745 3.587-2.07 4.816-6.657 2.745-10.245-.002-.004-.004-.008-.007-.013l-42.842-74.204c9.32-3.907 18.032-8.984 25.956-15.043l42.84 74.201c2.071 3.588 6.66 4.815 10.245 2.745 3.587-2.071 4.816-6.658 2.745-10.245l-.007-.012c-12.29-21.315 11.68-45.33 33.023-33.005 3.587 2.069 8.175.841 10.245-2.745 2.29-3.966.356-8.696-2.762-10.255l-74.185-42.831c6.059-7.924 11.137-16.635 15.043-25.955l15.801 9.122c3.588 2.069 8.175.842 10.245-2.745 2.071-3.587.842-8.174-2.745-10.245l-18.333-10.585c.075-.274.151-.549.224-.824h57.813c-6.665 8.473-9.482 19.268-7.977 29.727l-5.746-3.317c-3.59-2.07-8.175-.842-10.245 2.745-2.071 3.587-.842 8.174 2.745 10.245l32.41 18.712c.007.004.016.009.022.014l.003.001c1.182.682 2.471 1.006 3.743 1.006 2.591 0 5.112-1.345 6.501-3.75 2.072-3.586.845-8.173-2.741-10.245-.001 0-.002-.001-.003-.001l-.004-.002c-21.363-12.356-12.499-45.135 12.116-45.135 4.143 0 7.5-3.357 7.5-7.5s-3.357-7.5-7.5-7.5h-85.704c1.248-9.747 1.296-19.879 0-30 .003 0 85.71 0 85.708 0 4.142-.002 7.497-3.36 7.496-7.502s-3.358-7.498-7.5-7.498c-24.655 0-33.48-32.798-12.111-45.136 3.587-2.071 4.816-6.658 2.745-10.245-2.072-3.588-6.659-4.816-10.245-2.745-.004.002-.009.005-.013.007l-74.204 42.843c-3.907-9.321-8.984-18.032-15.043-25.956l74.185-42.831c.006-.003.011-.007.017-.01 3.587-2.071 4.816-6.658 2.745-10.245-2.072-3.587-6.66-4.815-10.245-2.745-21.313 12.301-45.331-11.655-33.023-33.005l.007-.012c2.071-3.587.842-8.174-2.745-10.245-3.59-2.072-8.176-.844-10.245 2.745-.007.012-.013.022-.02.034l-42.821 74.167c-7.923-6.059-16.635-11.136-25.955-15.043l42.842-74.204c.002-.005.005-.009.007-.013 2.071-3.588.842-8.175-2.745-10.245-3.59-2.07-8.175-.844-10.245 2.745-12.322 21.339-45.151 12.569-45.138-12.107v-.004c0-4.142-3.356-7.499-7.498-7.5-.001 0-.001 0-.002 0-4.141 0-7.498 3.355-7.5 7.496v.004 85.703c-9.936-1.27-20.049-1.272-30 0v-85.703c0-.001 0-.003 0-.004-.002-4.141-3.359-7.496-7.5-7.496h-.002c-4.142.001-7.498 3.358-7.498 7.5v.004c.013 24.639-32.799 33.479-45.136 12.107-2.07-3.587-6.657-4.814-10.245-2.745-3.587 2.07-4.816 6.657-2.745 10.245.002.004.004.008.007.013l42.842 74.204c-9.321 3.907-18.032 8.984-25.956 15.043l-42.821-74.168c-.007-.011-.013-.021-.02-.033-2.072-3.588-6.66-4.816-10.245-2.745-3.587 2.071-4.816 6.658-2.745 10.245 5.46 9.457 3.88 21.454-3.842 29.175-7.719 7.722-19.717 9.304-29.175 3.842-3.587-2.071-8.175-.843-10.245 2.745-2.071 3.587-.842 8.174 2.745 10.245.015.009.029.017.044.025l74.157 42.815c-6.059 7.924-11.136 16.635-15.043 25.955l-74.217-42.849c-3.589-2.072-8.176-.843-10.245 2.745-2.071 3.587-.842 8.174 2.745 10.245l.021.012c21.298 12.327 12.565 45.125-12.131 45.125-4.142 0-7.499 3.356-7.5 7.498-.001 4.098 3.301 7.502 7.526 7.502h85.677c-1.248 9.747-1.296 19.879 0 30h-85.703c-4.143 0-7.5 3.357-7.5 7.5zm98.094 110.895c-3.968-9.907-11.821-17.765-21.739-21.738l50.062-28.904c.193.194.386.388.58.58zm81.656 38.014c-8.222-6.467-18.926-9.516-29.725-7.964l28.9-50.057c.275.075.549.151.825.225zm89.725-7.964c-10.512-1.515-21.275 1.319-29.725 7.964v-57.796c.275-.073.55-.149.825-.225zm73.671-51.788c-9.906 3.966-17.766 11.82-21.739 21.737l-28.903-50.062c.194-.192.387-.385.58-.579zm30.049-171.382c-1.503 10.44 1.276 21.223 7.965 29.725h-57.797c-.073-.275-.149-.55-.224-.824zm-51.789-73.67c3.969 9.907 11.821 17.766 21.738 21.737l-50.062 28.904c-.192-.194-.386-.387-.58-.579zm-81.656-38.014c8.39 6.599 19.139 9.488 29.725 7.964l-28.9 50.057c-.275-.075-.549-.151-.825-.225zm70.297 150.243c12.662 69.643-39.4 123.666-100.297 123.666-56.519 0-102.5-45.981-102.5-102.5s45.981-102.5 102.5-102.5c49.264 0 90.517 34.937 100.297 81.334zm-160.022-142.279c10.57 1.518 21.313-1.35 29.725-7.964v57.796c-.275.073-.55.149-.825.225zm-73.671 51.788c4.802-1.923 9.273-4.817 13.097-8.641s6.719-8.294 8.643-13.097l28.903 50.062c-.194.192-.387.386-.58.58zm-38.014 81.657c6.441-8.191 9.523-18.882 7.965-29.725l50.056 28.899c-.075.275-.151.55-.224.825h-57.797zm57.797 60c.073.275.149.55.224.825l-50.069 28.907c1.521-10.573-1.349-21.319-7.968-29.732z"/><path d="m256 0c-83.482 0-159.434 39.751-207.45 105.82-2.435 3.351-1.692 8.041 1.658 10.477 3.349 2.435 8.041 1.694 10.477-1.658 44.9-61.786 116.179-99.639 195.315-99.639 132.228 0 241 106.597 241 241 0 120.623-88.201 220.247-203.517 238.112-12.365 1.916-24.976 2.888-37.483 2.888-133.295 0-241-107.688-241-241 0-41.049 10.391-81.455 30.05-116.851 2.011-3.621.706-8.188-2.915-10.198-3.62-2.011-8.188-.707-10.198 2.915-20.893 37.618-31.937 80.543-31.937 124.134 0 141.587 114.396 256 256 256 13.273 0 26.658-1.031 39.78-3.064 122.385-18.959 216.22-124.663 216.22-252.936 0-142.246-114.949-256-256-256z"/></g></g></svg>