<svg id="Capa_1" enable-background="new 0 0 512 512" height="512" viewBox="0 0 512 512" width="512" xmlns="http://www.w3.org/2000/svg"><g><path d="m116.158 275.891-4.216-4.215-38.766-38.767 64.418-64.416 42.982 42.982z" fill="#4c5699"/><path d="m230.244 295.336 11.83 11.83c6.524 6.524 6.524 17.137 0 23.66-6.524 6.524-17.137 6.524-23.66 0l-11.83-11.83-19.717 3.943-3.943 19.717 11.83 11.83c19.601 19.601 51.38 19.601 70.981 0s19.601-51.38 0-70.981l-11.83-11.83-19.717 3.943z" fill="#676fb2"/><g><g><path d="m182.923 342.657v-70.981h-70.981l-31.807 43.733v112.691l56.112 56.112h16.523l39.614-92.433c7.186-16.769 3.439-36.222-9.461-49.122z" fill="#d6948c"/></g><path d="m111.942 271.675-94.642 94.642c-13.067 13.067-13.067 34.253 0 47.321l81.053 81.053c16.739 16.739 45.091 11.279 54.416-10.479-61.327-52.761-78.24-140.808-40.827-212.537z" fill="#bd7669"/></g><g><path d="m259.887 230.337v-53.303h-53.304l-38.095 71.306v62.66l14.435 31.657 76.964-76.964c9.763-9.763 9.763-25.592 0-35.356z" fill="#8288cb"/><path d="m206.584 177.034-94.642 94.641 23.661 23.661 47.321 47.321v-27.72c0-42.849 17.022-83.943 47.321-114.242z" fill="#676fb2"/></g><g><g><path d="m422.743 35.527h-50.047l-153.81 153.81 40.934 40.933 162.923-162.923c8.787-8.787 8.787-23.034 0-31.82z" fill="#676fb2"/></g><path d="m401.292 14.076c-8.767-8.767-22.982-8.767-31.75 0l-162.958 162.958 23.66 23.661 145.757-145.757c12.096-12.096 28.799-19.376 46.777-19.376-.461-.461-21.76-21.76-21.486-21.486z" fill="#4c5699"/></g><g><g><path d="m234.354 426.465c-11.238 11.871-10.751 30.484.808 42.043l35.355-7.071 7.071-35.355c-11.913-11.915-31.575-11.934-43.234.383z" fill="#ff8f71"/><path d="m235.162 468.507 31.599 31.599c5.858 5.858 15.355 5.858 21.213 0l21.213-21.213c5.858-5.858 5.858-15.355 0-21.213l-31.599-31.599z" fill="#ffce71"/></g><g><path d="m297.994 362.825c-11.238 11.871-10.751 30.484.808 42.043l35.355-7.071 7.071-35.355c-11.914-11.914-31.575-11.933-43.234.383z" fill="#ff8f71"/><path d="m298.802 404.868 31.599 31.599c5.858 5.858 15.355 5.858 21.213 0l21.213-21.213c5.858-5.858 5.858-15.355 0-21.213l-31.599-31.599z" fill="#ffce71"/></g><g><path d="m361.633 299.185c-11.238 11.871-10.751 30.484.808 42.043l35.355-7.071 7.071-35.355c-11.913-11.914-31.575-11.933-43.234.383z" fill="#ff8f71"/><path d="m362.441 341.228 31.599 31.599c5.858 5.858 15.355 5.858 21.213 0l21.213-21.213c5.858-5.858 5.858-15.355 0-21.213l-31.599-31.599z" fill="#ffce71"/></g><g><path d="m425.273 235.546c-11.238 11.871-10.751 30.484.808 42.043l35.355-7.071 7.071-35.355c-11.913-11.915-31.575-11.934-43.234.383z" fill="#ff8f71"/><path d="m426.081 277.589 31.599 31.599c5.858 5.858 15.355 5.858 21.213 0l21.213-21.213c5.858-5.858 5.858-15.355 0-21.213l-31.599-31.599z" fill="#ffce71"/></g></g><g><ellipse cx="202.837" cy="268.849" fill="#ff8e9e" rx="29.355" ry="23.377" transform="matrix(.707 -.707 .707 .707 -130.696 222.173)"/></g><g><path d="m229.223 84.11-17.264-17.264h-31.633l-58.43 58.43 36.616 36.616h12.929c5.304 0 10.391-2.107 14.142-5.858l43.64-43.64c7.811-7.81 7.811-20.473 0-28.284z" fill="#8288cb"/><path d="m211.959 66.846-18.091-18.091c-7.811-7.811-20.474-7.811-28.284 0l-43.64 43.64c-3.751 3.751-5.858 8.838-5.858 14.142v12.929l-91.924 91.924c-5.858 5.858-5.858 15.355 0 21.213l21.213 21.213c5.858 5.858 15.355 5.858 21.213 0l91.924-91.924v-41.06c.001-29.638 23.325-53.986 53.447-53.986z" fill="#676fb2"/></g><g><path d="m271.038 359.791c22.546-22.548 22.547-59.038 0-81.589l-6.526-6.526c12.006-12.006 12.886-28.507 5.355-40.719 77.245-77.396 51.623-51.753 158.18-158.306 11.696-11.697 11.696-30.729-.001-42.427l-21.416-21.415c-5.679-5.681-13.211-8.809-21.209-8.809-8.004 0-15.539 3.128-21.217 8.808-4.549 4.548-150 149.999-162.914 162.914-.003.003-.007.006-.01.009l-24.921 24.921-21-21 6.259-6.259h9.822c7.346 0 14.252-2.86 19.446-8.055l43.64-43.64c10.744-10.746 10.747-28.141 0-38.892l-7.093-7.091c-2.931-2.932-7.68-2.929-10.606.001-2.929 2.93-2.928 7.679.001 10.606l7.091 7.09c4.892 4.894 4.876 12.803 0 17.678l-43.64 43.64c-2.361 2.361-5.5 3.662-8.839 3.662h-12.929c-1.989 0-3.896.79-5.304 2.196l-13.758 13.758s-.001.001-.001.001-.001.001-.001.001l-64.406 64.407c-.003.003-.006.005-.009.008s-.005.006-.008.009l-13.737 13.737c-2.934 2.93-7.674 2.936-10.609.003l-21.212-21.212c-2.93-2.932-2.931-7.675 0-10.606l91.924-91.924c1.406-1.407 2.196-3.314 2.196-5.304v-12.929c0-3.339 1.301-6.478 3.662-8.839l43.64-43.64c4.885-4.885 12.787-4.889 17.68.002l7.01 7.01c2.93 2.928 7.678 2.928 10.607 0 2.929-2.93 2.929-7.678 0-10.607l-7.013-7.012c-10.747-10.747-28.143-10.749-38.892 0l-43.64 43.64c-5.194 5.194-8.055 12.101-8.055 19.446v9.822l-89.728 89.727c-8.791 8.793-8.793 23.025 0 31.819l21.214 21.215c8.791 8.789 23.015 8.795 31.82 0l8.444-8.444 20.999 21-89.337 89.338c-7.736 7.735-11.997 18.022-11.997 28.964 0 10.939 4.261 21.226 11.997 28.964l33.681 33.681c1.465 1.464 3.385 2.196 5.304 2.196s3.839-.732 5.304-2.196c2.929-2.93 2.929-7.678 0-10.607l-33.681-33.68c-10.144-10.144-10.151-26.567 0-36.714l89.338-89.338 65.668 65.667c.003.003.006.007.009.01 7.011 7.01 10.872 16.334 10.872 26.253 0 5.047-1.01 9.962-3.003 14.61l-39.613 92.434c-7.187 16.768-29.154 21.194-42.219 8.129l-26.158-26.158c-2.93-2.928-7.678-2.928-10.607 0-2.929 2.93-2.929 7.678 0 10.607l26.158 26.158c7.743 7.742 18 12.006 28.883 12.006 16.454 0 31.265-9.748 37.73-24.834l39.613-92.433c2.797-6.525 4.216-13.429 4.216-20.52 0-1.401-.07-2.791-.178-4.172 21.392 11.321 49.086 8.385 67.724-10.25zm103.773-340.377c5.873-5.875 15.31-5.904 21.213.001l21.416 21.416c5.849 5.848 5.849 15.364 0 21.212-104.518 104.515-82.372 82.347-157.557 157.684l-42.692-42.692c29.4-29.402 153.424-153.426 157.62-157.621zm-262.869 241.655-20.999-21 53.809-53.81 21 21zm70.982 70.981-60.375-60.374c7.922-7.922 75.482-75.481 84.035-84.034l48 48c6.823 6.822 6.823 17.925 0 24.748zm53.847-6.528c-3.596 3.598-9.456 3.601-13.053 0l-6.526-6.526 13.053-13.053 6.526 6.526c3.597 3.596 3.599 9.456 0 13.053zm-43.241 17.135 13.054-13.054 6.526 6.525c9.459 9.461 24.806 9.463 34.268.001 9.459-9.461 9.46-24.806 0-34.268l-6.526-6.526 13.053-13.053 6.526 6.525c16.682 16.684 16.688 43.688.001 60.375-16.687 16.685-43.686 16.687-60.375 0z"/><path d="m282.893 420.777c-.001 0-.001 0 0 0-14.774-14.775-39.274-15.009-53.985.53-13.883 14.666-13.652 37.897.951 52.502 0 0 .001 0 .001.001l31.599 31.599c4.251 4.25 9.901 6.591 15.91 6.591 6.011 0 11.661-2.341 15.91-6.591l21.212-21.213c8.795-8.791 8.794-23.026.001-31.82zm-43.093 10.843c6.997-7.389 17.707-8.778 26.273-4.631l-30.02 30.02c-4.165-8.484-2.725-18.552 3.747-25.389zm64.084 41.969-21.213 21.214c-2.931 2.931-7.672 2.933-10.606-.001l-26.296-26.295 31.82-31.82 26.295 26.297c2.931 2.929 2.932 7.675 0 10.605z"/><path d="m346.532 357.139c-14.774-14.775-39.274-15.009-53.985.53-13.883 14.666-13.652 37.897.951 52.502 0 0 .001 0 .001.001l31.599 31.598c8.791 8.795 23.026 8.794 31.82.001l21.213-21.213c8.792-8.794 8.797-23.026 0-31.819zm-43.093 10.842c6.997-7.389 17.707-8.778 26.273-4.631l-30.02 30.02c-4.165-8.484-2.724-18.552 3.747-25.389zm64.084 41.969-21.213 21.213c-2.93 2.932-7.674 2.932-10.606 0l-26.296-26.295 31.82-31.82 26.296 26.297c2.931 2.931 2.934 7.673-.001 10.605z"/><path d="m410.172 293.499c-14.774-14.775-39.274-15.009-53.985.53-13.883 14.666-13.652 37.897.951 52.502 0 0 .001 0 .001.001l31.599 31.599c8.795 8.793 23.026 8.797 31.82 0l21.212-21.213c8.795-8.791 8.794-23.026.001-31.82zm-43.093 10.843c6.997-7.389 17.707-8.778 26.273-4.631l-30.02 30.02c-4.165-8.484-2.725-18.552 3.747-25.389zm64.084 41.969-21.213 21.214c-2.931 2.931-7.672 2.933-10.606-.001l-26.296-26.295 31.82-31.82 26.295 26.297c2.932 2.929 2.932 7.674 0 10.605z"/><path d="m505.409 261.459-31.599-31.6.001-.001c-14.774-14.774-39.274-15.008-53.985.531-13.911 14.695-13.616 37.913.933 52.483.006.006.012.014.018.02l31.599 31.598c8.791 8.795 23.026 8.794 31.82.001l21.213-21.213c4.25-4.251 6.591-9.901 6.591-15.91 0-6.011-2.341-11.661-6.591-15.909zm-74.69-20.757c6.997-7.389 17.706-8.778 26.272-4.632l-30.02 30.02c-4.172-8.498-2.713-18.563 3.748-25.388zm64.083 41.969-21.213 21.213c-2.93 2.932-7.674 2.932-10.606 0l-26.296-26.295 31.82-31.82 26.296 26.297c2.931 2.93 2.933 7.673-.001 10.605z"/><path d="m195.84 227.051c-2.93-2.928-7.678-2.928-10.607 0-2.929 2.93-2.929 7.678 0 10.607l8.485 8.485c2.931 2.929 7.678 2.928 10.607 0 2.929-2.93 2.929-7.678 0-10.607z"/></g></g></svg>