<svg id="Capa_1" enable-background="new 0 0 512 512" height="512" viewBox="0 0 512 512" width="512" xmlns="http://www.w3.org/2000/svg"><g><path d="m407.7 37.5v-30c-53.376 0-96.8 43.424-96.8 96.8 0 26.688 10.856 50.889 28.385 68.417l21.126-21.126c-12.096-12.096-19.511-28.873-19.511-47.29 0-36.835 29.966-66.801 66.8-66.801z" fill="#9ea2e3"/><g><path d="m402.866 109.134c-58.579-58.579-153.554-58.579-212.132 0l-54.447 54.447v212.132h212.132l54.447-54.447c58.579-58.578 58.579-153.554 0-212.132zm-63.639 93.639c-16.474 0-30.001-13.498-30-30-.001-16.542 13.458-30 30.001-30 16.473 0 30.001 13.498 29.999 30 0 16.542-13.458 30-30 30z" fill="#676fb2"/><path d="m270.632 368.647-127.279-127.279c-6.411-45.112 7.731-92.583 42.431-127.284l-134.35 134.35c-58.579 58.579-58.579 153.553 0 212.132s153.553 58.579 212.132 0l134.351-134.35c-34.701 34.7-82.172 48.842-127.285 42.431z" fill="#4c5699"/></g><g><path d="m340.817 232.711c-34.502.874-62.399-27.13-61.561-61.467.584-23.947-28.057-37.722-46.095-19.684l-89.808 89.807v127.279h127.279c.482-.482 89.932-89.929 90.409-90.416 16.953-17.272 3.971-46.131-20.224-45.519z" fill="#d4d4ff"/><path d="m143.353 241.368-49.493 49.492c-35.091 35.091-35.091 92.188 0 127.279s92.188 35.091 127.279 0l49.493-49.493c-31.043-4.411-60.97-18.553-84.848-42.431s-38.02-53.804-42.431-84.847z" fill="#9ea2e3"/></g><g><path d="m360.411 151.59h-21.126v21.126c17.528 17.528 41.728 28.383 68.415 28.383v-30c-18.416.001-35.193-7.413-47.289-19.509z" fill="#9ea2e3"/><path d="m407.7 7.5c-9.966 7.257-10.808 21.668 0 30 36.832 0 66.8 29.964 66.8 66.8 0 36.834-29.966 66.8-66.8 66.8-9.303 6.562-11.385 20.952 0 30 53.376 0 96.8-43.424 96.8-96.8 0-53.373-43.421-96.8-96.8-96.8z" fill="#d4d4ff"/></g><g><g><g><ellipse cx="159.745" cy="382.255" fill="#ff8e9e" rx="29.355" ry="23.377" transform="matrix(.707 -.707 .707 .707 -223.508 224.918)"/></g><g><ellipse cx="272.255" cy="269.745" fill="#ff8e9e" rx="29.355" ry="23.377" transform="matrix(.707 -.707 .707 .707 -110.997 271.518)"/></g></g></g><g><path d="m512 104.3c0-22.17-6.894-43.356-19.935-61.268-2.439-3.348-7.129-4.085-10.479-1.648-3.349 2.438-4.086 7.13-1.648 10.479 11.163 15.328 17.062 33.46 17.062 52.437 0 49.24-40.06 89.3-89.3 89.3-31.087 0-59.484-15.961-75.769-42.101 7.92-2.732 16.886-.896 23.176 5.395 13.998 13.997 32.676 21.706 52.593 21.706 40.749 0 74.3-33.185 74.3-74.3 0-40.969-33.331-74.3-74.3-74.3-25.961 0-49.59 13.326-63.114 35.167-4.952-1.569-9.982-2.893-15.076-3.97 15.625-28.34 45.379-46.197 78.19-46.197 19.13 0 37.382 5.987 52.784 17.313 3.336 2.455 8.031 1.739 10.485-1.599 2.454-3.337 1.738-8.031-1.599-10.485-17.995-13.234-39.32-20.229-61.67-20.229-40.121 0-76.318 22.855-93.767 58.679-5.832-.641-11.723-.966-17.652-.966-41.744 0-81.111 16.378-110.851 46.117l-139.3 139.3c-29.747 29.748-46.13 69.3-46.13 111.371 0 36.723 12.885 72.441 36.28 100.575 1.483 1.783 3.619 2.704 5.771 2.704 1.69 0 3.391-.568 4.792-1.733 3.185-2.648 3.619-7.377.971-10.562-21.161-25.445-32.814-57.757-32.814-90.984 0-38.064 14.822-73.85 41.737-100.764l139.301-139.3c26.905-26.906 62.506-41.725 100.243-41.725 58.638 0 109.66 34.017 131.892 87.241-20.655 7.622-45.366 3.426-62.459-13.668-23.542-23.538-63.987-6.813-63.987 26.485-.002 20.64 16.842 37.501 37.499 37.501h.004c9.784 0 19.161-3.892 26.109-10.628 23.344 10.365 49.623 11.691 73.494 4.209 3.295 41.528-11.304 82.145-41.271 112.109l-139.3 139.301c-26.912 26.916-62.698 41.738-100.761 41.738-32.494-.001-64.249-11.197-89.414-31.525-3.223-2.604-7.945-2.101-10.547 1.121-2.604 3.223-2.102 7.944 1.121 10.547 27.825 22.478 62.927 34.856 98.84 34.857 42.07 0 81.622-16.383 111.369-46.13l139.3-139.301c29.746-29.746 46.128-69.309 46.128-111.402 0-5.69-.313-11.424-.932-17.111 34.686-16.963 58.634-52.614 58.634-93.756zm-126.948-19.667c-8.275-5.547-16.991-10.267-26.04-14.135 11.011-15.905 29.014-25.498 48.688-25.498 32.698 0 59.3 26.602 59.3 59.3 0 20.143-10.103 37.96-25.499 48.683-11.952-27.986-31.313-51.503-56.449-68.35zm-45.823 110.639h-.002c-12.354 0-22.5-10.137-22.5-22.501 0-4.227 1.221-8.325 3.413-11.85 8.127 12.578 18.69 23.062 30.889 30.968-3.513 2.174-7.594 3.383-11.8 3.383z"/><path d="m150.626 359.55c2.931 2.929 7.678 2.928 10.607 0 2.929-2.93 2.929-7.678 0-10.607l-8.485-8.485c-2.93-2.928-7.678-2.928-10.607 0-2.929 2.93-2.929 7.678 0 10.607z"/><path d="m238.942 271.233c2.931 2.929 7.678 2.928 10.607 0 2.929-2.93 2.929-7.678 0-10.607l-8.485-8.485c-2.93-2.928-7.678-2.928-10.607 0-2.929 2.93-2.929 7.678 0 10.607z"/><path d="m187.68 328.96c17.834 1.215 32.494-13.576 31.28-31.28-.283-4.132-3.861-7.234-7.996-6.969-4.132.283-7.252 3.863-6.969 7.996.596 8.689-6.583 15.868-15.288 15.288-4.13-.279-7.713 2.837-7.996 6.969-.283 4.133 2.837 7.713 6.969 7.996z"/><path d="m226.443 423.443c23.241-23.241 139.022-139.021 139.95-139.959.002-.001.003-.003.004-.004 21.606-22.021 5.299-59.046-25.771-58.268-14.596.358-28.265-5.07-38.52-15.315-10.257-10.247-15.709-23.909-15.354-38.471.749-30.694-36.059-48.002-58.897-25.17l-139.3 139.3c-38.015 38.016-38.015 99.871 0 137.887 38.017 38.014 99.872 38.015 137.888 0zm-127.279-127.279 139.3-139.3c13.242-13.245 33.715-3.023 33.294 14.197-.456 18.708 6.557 36.269 19.747 49.447 13.189 13.178 30.783 20.158 49.501 19.7 17.193-.483 27.1 20.098 14.694 32.757-1.88 1.889-138.481 138.488-139.864 139.87-32.166 32.168-84.506 32.168-116.672 0-32.167-32.165-32.167-84.505 0-116.671z"/></g></g></svg>