<svg id="Capa_1" enable-background="new 0 0 512 512" height="512" viewBox="0 0 512 512" width="512" xmlns="http://www.w3.org/2000/svg"><g><path d="m307.5 106h98.5v-78.5c0-11.046-8.954-20-20-20h-28.5c-27.614 0-50 22.386-50 50z" fill="#4c5699"/><path d="m406 204.5h48.5c27.614 0 50-22.386 50-50v-28.5c0-11.046-8.954-20-20-20h-78.5z" fill="#4c5699"/><g><path d="m347.634 214.366h-197.955v259.505l73.882 29.917c48.314-4.038 91.727-25.308 124.073-57.654z" fill="#ffce71"/><path d="m225.866 224.366c7.384-7.384 15.348-14.188 23.812-20.345l-183.812-39.655c-36.057 36.057-58.366 85.863-58.366 140.884 0 110.043 89.207 199.25 199.25 199.25 5.663 0 11.267-.25 16.811-.713-34.699-35.857-56.061-84.699-56.061-138.537 0-55.021 22.309-104.827 58.366-140.884z" fill="#ffb357"/></g><g><path d="m205.113 145.968v102.785c62.123 52.844 111.317 120.316 142.521 197.381 26.958-26.958 46.235-61.598 54.243-100.363l41.277-199.803z" fill="#8288cb"/><path d="m326.229 170.123 116.925-24.155 1.604-7.766c8.758-42.387-28.773-79.676-70.96-70.96l-207.569 42.881c-38.765 8.008-73.405 27.285-100.363 54.243 51.129 20.702 98.031 49.327 139.247 84.387 6.266-8.677 13.203-16.837 20.753-24.387 26.958-26.958 61.599-46.235 100.363-54.243z" fill="#676fb2"/></g><g><ellipse cx="109.745" cy="289.745" fill="#ff8e9e" rx="23.377" ry="29.355" transform="matrix(.707 -.707 .707 .707 -172.737 162.465)"/><ellipse cx="222.255" cy="402.255" fill="#ff8e9e" rx="23.377" ry="29.355" transform="matrix(.707 -.707 .707 .707 -219.341 274.978)"/><ellipse cx="176.861" cy="335.139" fill="#4c5699" rx="24.792" ry="20.332" transform="matrix(.707 -.707 .707 .707 -185.177 223.219)"/></g><g><path d="m157.182 315.458c-12.592 12.59-14.007 31.662-3.154 42.516 4.898 4.898 11.471 7.297 18.367 7.297 8.381 0 17.24-3.545 24.147-10.451 12.59-12.591 14.005-31.662 3.153-42.515-10.853-10.852-29.924-9.436-42.513 3.153zm28.753 28.754c0 .001 0 .001 0 0-6.627 6.63-16.384 8.072-21.301 3.155-4.919-4.92-3.475-14.675 3.154-21.302 3.967-3.968 9.054-6.077 13.554-6.077 3.018 0 5.772.949 7.746 2.924 4.919 4.918 3.474 14.673-3.153 21.3z"/><path d="m148.723 288.94c1.389 2.406 3.91 3.751 6.502 3.751 1.272 0 2.562-.324 3.743-1.006 3.587-2.071 4.816-6.658 2.745-10.245l-12.457-21.576c-2.07-3.588-6.66-4.814-10.245-2.745-3.587 2.071-4.816 6.658-2.745 10.245l3.664 6.347c-.709.352-1.376.818-1.967 1.408l-7.33 7.33c-2.929 2.93-2.929 7.678 0 10.607 1.465 1.464 3.385 2.196 5.304 2.196s3.839-.732 5.304-2.196l6.25-6.25z"/><path d="m252.141 362.749-21.576-12.457c-3.589-2.071-8.175-.843-10.245 2.745-2.071 3.587-.842 8.174 2.745 10.245l2.134 1.232-6.25 6.25c-2.929 2.93-2.929 7.678 0 10.607 1.465 1.464 3.385 2.196 5.304 2.196s3.839-.732 5.304-2.196l7.33-7.33c.591-.591 1.056-1.258 1.409-1.967l6.346 3.664c1.182.682 2.471 1.006 3.743 1.006 2.592 0 5.113-1.345 6.502-3.751 2.07-3.586.841-8.173-2.746-10.244z"/><path d="m484.5 98.5h-36.771c-6.776-15.202-19.021-27.443-34.229-34.22v-36.78c0-15.163-12.337-27.5-27.5-27.5h-28.5c-31.706 0-57.5 25.794-57.5 57.5v17.33l-74.618 15.415c-4.057.838-6.665 4.806-5.827 8.862s4.809 6.663 8.862 5.827c13.981-2.888 132.929-27.462 146.897-30.348 37.049-7.651 69.795 24.817 62.099 62.099-1.865 9.029-41.057 198.737-42.881 207.567-6.798 32.91-22.089 63.233-44.445 88.349-31.423-72.8-79.681-138.153-140.115-189.562-39.347-33.47-83.228-60.722-130.569-81.132 25.115-22.353 55.435-37.642 88.343-44.44l31.291-6.464c4.057-.838 6.665-4.806 5.827-8.862-.839-4.056-4.81-6.664-8.862-5.827l-31.291 6.464c-93.376 19.289-164.711 101.992-164.711 202.472 0 114.002 92.748 206.75 206.75 206.75 98.214 0 182.753-69.252 202.472-164.712l27.948-135.288h17.33c10.259 0 20.331-2.737 29.13-7.915 3.569-2.102 4.76-6.698 2.659-10.269-2.102-3.57-6.699-4.759-10.268-2.659-6.495 3.822-13.936 5.843-21.521 5.843h-14.231l11.833-57.28c1.817-8.799 1.903-17.52.289-26.22h32.109c6.893 0 12.5 5.607 12.5 12.5v28.5c0 6.334-1.357 12.424-4.035 18.103-1.766 3.746-.161 8.216 3.586 9.982 1.033.487 2.121.718 3.193.718 2.812 0 5.51-1.591 6.789-4.304 3.627-7.693 5.467-15.937 5.467-24.499v-28.5c0-15.163-12.337-27.5-27.5-27.5zm-112.22-38.603-57.28 11.834v-14.231c0-23.435 19.065-42.5 42.5-42.5h28.5c6.893 0 12.5 5.607 12.5 12.5v32.117c-8.7-1.616-17.423-1.536-26.22.28zm-165.53 437.103c-105.731 0-191.75-86.019-191.75-191.75 0-49.541 18.672-96.218 52.685-132.002 48.18 20.067 92.766 47.36 132.569 81.218 60.275 51.272 108.079 116.83 138.504 189.835-35.536 33.737-82.692 52.699-132.008 52.699z"/></g></g></svg>