<svg id="Capa_1" enable-background="new 0 0 512 512" height="512" viewBox="0 0 512 512" width="512" xmlns="http://www.w3.org/2000/svg"><g><path d="m141.575 470.143c-1.452-1.313-3.488-1.862-5.412-1.45-18.092 3.891-36.249-6.436-41.993-24.243-.604-1.876-2.086-3.358-3.962-3.962-17.776-5.733-28.137-23.857-24.245-41.992.418-1.93-.119-3.943-1.45-5.415l-10.061-11.126 22.252-20.121 10.061 11.126c6.021 6.659 9.337 15.269 9.337 24.244 0 2.549-.272 5.106-.809 7.598-.67 3.131 1.136 6.17 4.122 7.133 11.035 3.558 19.748 12.271 23.307 23.306.973 3.016 4.039 4.79 7.136 4.123 11.21-2.41 23.083.608 31.842 8.531 2.335 2.112 5.899 2.117 8.241-.001 8.704-7.871 20.558-10.956 31.838-8.53 3.112.664 6.184-1.162 7.138-4.122 3.56-11.036 12.272-19.748 23.308-23.307 3.024-.975 4.789-4.052 4.12-7.14-2.403-11.219.609-23.076 8.531-31.835l10.061-11.125 22.251 20.122-10.062 11.125c-3.057 3.381-.641 5.558-.641 13.018 0 15.735-10.068 29.554-25.053 34.387-1.877.605-3.358 2.086-3.963 3.963-4.833 14.985-18.652 25.053-34.388 25.053-7.601 0-9.636-2.421-13.018.641-13.78 12.463-34.74 12.434-48.488-.001z" fill="#4c5699"/><path d="m385.836 32.48h-84.836c-24.813 0-45 20.187-45 45 0-24.813-20.187-45-45-45h-92.335c-20.678 0-37.5 16.822-37.5 37.5v22.417l15 15 15-15v-22.417c0-4.136 3.364-7.5 7.5-7.5h92.335c8.271 0 15 6.729 15 15v14.917l15 15h30l15-15v-14.917c0-8.271 6.729-15 15-15h84.836c8.271 0 15 6.729 15 15v14.917l15 15 15-15v-14.917c0-24.813-20.187-45-45-45z" fill="#4c5699"/><g><path d="m128.167 92.397h-61.667v300h61.667c16.569 0 30-13.431 30-30v-240c0-16.569-13.431-30-30-30z" fill="#ff8e9e"/><path d="m86.5 362.397v-240c0-16.569 13.431-30 30-30h-64c-16.569 0-30 13.431-30 30v240c0 16.569 13.431 30 30 30h64c-16.569 0-30-13.431-30-30z" fill="#ea5b70"/></g><g><path d="m293.833 92.397h-61.667v300h61.667c16.569 0 30-13.431 30-30v-240c0-16.569-13.431-30-30-30z" fill="#ff8e9e"/><path d="m252.166 362.397v-240c0-16.569 13.431-30 30-30h-64c-16.569 0-30 13.431-30 30v240c0 16.569 13.431 30 30 30h64c-16.569 0-30-13.431-30-30z" fill="#ea5b70"/></g><g><path d="m459.5 92.397h-61.667v300h61.667c16.569 0 30-13.431 30-30v-240c0-16.569-13.431-30-30-30z" fill="#ff8e9e"/><path d="m417.833 362.397v-240c0-16.569 13.431-30 30-30h-64c-16.569 0-30 13.431-30 30v240c0 16.569 13.431 30 30 30h64c-16.569 0-30-13.431-30-30z" fill="#ea5b70"/></g><g><path d="m489.5 182.397h-237.334l-20 60 20 60h237.334c8.284 0 15-6.716 15-15v-90c0-8.284-6.716-15-15-15z" fill="#676fb2"/><path d="m22.5 182.397c-8.284 0-15 6.716-15 15v90c0 8.284 6.716 15 15 15h229.666v-120z" fill="#4c5699"/></g><g><path d="m353.833 152.397h-91.667c-16.569 0-30 13.431-30 30v120c0 16.569 13.431 30 30 30h91.667c16.569 0 30-13.431 30-30v-120c0-16.569-13.431-30-30-30z" fill="#9ea2e3"/><path d="m252.166 302.397v-120c0-16.569 13.431-30 30-30h-123.999c-16.569 0-30 13.431-30 30v120c0 16.569 13.431 30 30 30h123.999c-16.569 0-30-13.431-30-30z" fill="#8288cb"/></g><g><path d="m353.833 182.397h-101.667l-20 60 20 60h101.667z" fill="#70dcba"/><path d="m158.167 182.397h93.999v120h-93.999z" fill="#30cd9c"/></g><g><g><g><ellipse cx="188.167" cy="260.31" fill="#ff8e9e" rx="25" ry="20.455"/></g><g><ellipse cx="323.833" cy="260.31" fill="#ff8e9e" rx="25" ry="20.455"/></g></g></g><g><path d="m497 176.187v-53.79c0-20.678-16.822-37.5-37.5-37.5h-21.164v-7.417c0-28.949-23.552-52.5-52.5-52.5h-84.836c-19.073 0-35.805 10.226-45 25.481-9.195-15.255-25.927-25.481-45-25.481h-92.335c-24.813 0-45 20.187-45 45v14.917h-21.165c-20.678 0-37.5 16.822-37.5 37.5v10.021c0 4.142 3.357 7.5 7.5 7.5s7.5-3.358 7.5-7.5v-10.021c0-12.407 10.094-22.5 22.5-22.5h75.667c12.406 0 22.5 10.093 22.5 22.5v23.255c-14.672 2.99-26.255 14.573-29.245 29.245h-91.422v-12.479c0-4.142-3.357-7.5-7.5-7.5s-7.5 3.358-7.5 7.5v13.769c-8.729 3.096-15 11.433-15 21.21v90c0 9.777 6.271 18.114 15 21.21v53.79c0 20.678 16.822 37.5 37.5 37.5h5.602c-3.002 20.736 9.094 40.699 29.147 47.51 7.066 20.804 28.272 33.046 49.812 28.758 8.25 7.235 18.487 10.855 28.737 10.854 10.232 0 20.478-3.61 28.759-10.836 1.835.273 4.534.819 8.523.819 18.771 0 35.283-11.862 41.309-29.595 20.042-6.81 32.175-26.849 29.144-47.51h20.299c20.678 0 37.5-16.822 37.5-37.5v-22.5h15v22.5c0 20.678 16.822 37.5 37.5 37.5h75.668c20.678 0 37.5-16.822 37.5-37.5v-9.713c0-4.142-3.357-7.5-7.5-7.5s-7.5 3.358-7.5 7.5v9.713c0 12.407-10.094 22.5-22.5 22.5h-75.667c-12.406 0-22.5-10.093-22.5-22.5v-23.255c14.672-2.99 26.255-14.573 29.245-29.245h91.422v12.787c0 4.142 3.357 7.5 7.5 7.5s7.5-3.358 7.5-7.5v-14.077c8.729-3.096 15-11.433 15-21.21v-90c0-9.777-6.271-18.114-15-21.21zm-233.5-98.707c0-20.678 16.822-37.5 37.5-37.5h84.836c20.678 0 37.5 16.822 37.5 37.5v7.417h-15v-7.417c0-12.407-10.094-22.5-22.5-22.5h-84.836c-12.406 0-22.5 10.093-22.5 22.5v7.417h-15zm30.333 7.417h-.333v-7.417c0-4.136 3.364-7.5 7.5-7.5h84.836c4.136 0 7.5 3.364 7.5 7.5v7.417h-9.503c-20.678 0-37.5 16.822-37.5 37.5v22.5h-15v-22.5c0-20.678-16.822-37.5-37.5-37.5zm0 15c12.406 0 22.5 10.093 22.5 22.5v22.5h-120.667v-22.5c0-12.407 10.094-22.5 22.5-22.5zm-190.168-29.917v14.917h-15v-14.917c0-16.542 13.458-30 30-30h92.335c20.678 0 37.5 16.822 37.5 37.5v7.417h-15v-7.417c0-12.407-10.094-22.5-22.5-22.5h-92.335c-8.271 0-15 6.729-15 15zm24.502 14.917h-9.502v-14.917h92.335c4.136 0 7.5 3.364 7.5 7.5v7.417h-.334c-20.678 0-37.5 16.822-37.5 37.5v22.5h-14.999v-22.5c0-20.678-16.822-37.5-37.5-37.5zm-105.667 210c-4.136 0-7.5-3.364-7.5-7.5v-90c0-4.136 3.364-7.5 7.5-7.5h98.167v105zm30 90c-12.406 0-22.5-10.093-22.5-22.5v-52.5h91.422c2.99 14.672 14.573 26.255 29.245 29.245v23.255c0 12.407-10.094 22.5-22.5 22.5zm165.666 15h9.96c.109 1.77.323 3.534.648 5.287-12.4 4.384-22.223 14.206-26.608 26.607-12.935-2.405-26.348 1.191-36.347 9.739-9.995-8.546-23.41-12.143-36.347-9.738-4.386-12.401-14.209-22.224-26.607-26.607.326-1.751.541-3.516.65-5.288h24.651c20.678 0 37.5-16.822 37.5-37.5v-22.5h14.999v22.5c.001 20.678 16.823 37.5 37.501 37.5zm20.965 33.451c-4.168 1.343-7.458 4.634-8.8 8.799-4.127 12.794-16.796 21.884-32.533 19.361-3.361-.539-7.962-1.277-12.766 3.073-10.953 9.907-27.473 9.907-38.426 0-3.243-2.935-7.733-4.14-12.021-3.221-14.431 3.107-28.742-5.154-33.277-19.21-1.343-4.168-4.633-7.458-8.799-8.801-14.053-4.532-22.312-18.839-19.217-33.268.014-.063.019-.122.032-.184h15.125c-.105 1.117-.252 2.232-.49 3.336-1.47 6.872 2.465 13.681 9.154 15.84 8.745 2.82 15.65 9.724 18.471 18.469 2.16 6.699 8.976 10.633 15.85 9.153 8.989-1.932 18.421.596 25.234 6.761 2.608 2.36 5.879 3.54 9.151 3.54 3.271 0 6.543-1.181 9.151-3.541 6.817-6.164 16.255-8.69 25.242-6.758 6.886 1.468 13.687-2.469 15.841-9.154 2.821-8.746 9.727-15.651 18.473-18.471 6.703-2.162 10.636-8.982 9.151-15.849-.236-1.1-.382-2.211-.486-3.326h15.151c.24 1.583.642 3.292.642 6.202 0 12.468-7.979 23.419-19.853 27.249zm77.202-70.951c0 12.407-10.094 22.5-22.5 22.5h-75.667c-12.406 0-22.5-10.093-22.5-22.5v-22.5h120.667zm60-60c0 12.407-10.094 22.5-22.5 22.5h-195.666c-12.406 0-22.5-10.093-22.5-22.5v-120c0-12.407 10.094-22.5 22.5-22.5h195.666c12.406 0 22.5 10.093 22.5 22.5zm-15-156.745v-23.255c0-12.407 10.094-22.5 22.5-22.5h75.667c12.406 0 22.5 10.093 22.5 22.5v52.5h-91.422c-2.99-14.672-14.573-26.255-29.245-29.245zm135.667 141.745c0 4.136-3.364 7.5-7.5 7.5h-98.167v-105h98.167c4.136 0 7.5 3.364 7.5 7.5z"/><path d="m353.833 174.897h-195.666c-4.143 0-7.5 3.358-7.5 7.5v120c0 4.142 3.357 7.5 7.5 7.5h195.666c4.143 0 7.5-3.358 7.5-7.5v-120c0-4.142-3.357-7.5-7.5-7.5zm-7.5 120h-180.666v-105h180.666z"/><path d="m234.609 257.527c3.122 2.72 7.859 2.396 10.581-.727 5.723-6.569 15.9-6.564 21.619 0 2.719 3.121 7.457 3.45 10.581.727 3.123-2.721 3.449-7.458.728-10.582-11.702-13.43-32.545-13.417-44.236 0-2.722 3.123-2.396 7.861.727 10.582z"/><path d="m189.367 229.263 7.079 1.897c-.252.75-.394 1.551-.394 2.386v10.366c0 4.142 3.357 7.5 7.5 7.5s7.5-3.358 7.5-7.5v-8.839l2.381.638c4.011 1.072 8.116-1.308 9.186-5.304 1.072-4.001-1.302-8.113-5.303-9.186l-24.065-6.448c-4.001-1.068-8.114 1.302-9.186 5.304-1.073 4.001 1.301 8.113 5.302 9.186z"/><path d="m298.567 235.711 2.381-.638v8.839c0 4.142 3.357 7.5 7.5 7.5s7.5-3.358 7.5-7.5v-10.366c0-.835-.142-1.636-.394-2.386l7.079-1.897c4.001-1.072 6.375-5.185 5.303-9.186-1.071-4.001-5.182-6.372-9.186-5.304l-24.065 6.448c-4.001 1.072-6.375 5.185-5.303 9.186 1.069 3.992 5.171 6.377 9.185 5.304z"/></g></g></svg>