<svg id="Capa_1" enable-background="new 0 0 512 512" height="512" viewBox="0 0 512 512" width="512" xmlns="http://www.w3.org/2000/svg"><g><g><path d="m458.291 22.299c-52.753 22.512-114.135 22.12-171.213-7.287h-46.861v465.712h79.753c29.646-19.812 56.28-43.085 79.474-69.108 67.295-75.506 105.056-173.481 105.056-275.367v-83.312c0-23.695-24.322-39.979-46.209-30.638z" fill="#70dcba"/><path d="m255.998 47.876c0-17.579 13.77-31.911 31.08-32.864-9.967-5.126-20.789-7.512-30.945-7.512-10.836-.001-21.672 2.603-31.555 7.813-53.098 28-116.134 30.323-170.881 6.969-21.883-9.333-46.197 6.954-46.197 30.644v83.323c0 145.312 76.389 280.039 201.388 355.189l.002.001c14.523 8.732 30.886 13.083 47.243 13.06 16.269-.025 32.532-4.375 46.977-13.06l.002-.001c5.727-3.443 11.339-7.025 16.858-10.714-40.964-41.212-63.972-96.962-63.972-155.087z" fill="#18c08b"/></g><g><g><path d="m420.285 278.811c6.052-17.657 9.338-36.599 9.338-56.309 0-86.087-62.652-157.541-144.847-171.251h-31.385l-132.461 79.091v170.445l65.221 38.983c10.223 13.361 23.493 23.741 39.065 29.7h15v4.206c5.079.938 10.34 1.447 15.783 1.447s10.704-.51 15.783-1.447v-4.206h15c15.572-5.959 28.842-16.339 39.065-29.7h58.162c25.952 0 46.991-16.686 46.991-37.269 0-8.998-4.021-17.251-10.715-23.69z" fill="#efedff"/><path d="m284.777 51.251c-9.362-1.562-18.973-2.374-28.778-2.374-95.887 0-173.622 77.734-173.622 173.625 0 19.702 3.287 38.634 9.334 56.286-6.686 6.443-10.711 14.702-10.711 23.713 0 20.583 20.952 37.269 46.799 37.269.057 0 .112-.006.169-.006.002.002.004.004.006.006h.038 58.141c-28.322-30.893-46.221-72.053-46.221-117.268-.001-86.086 62.654-157.539 144.845-171.251z" fill="#d4d4ff"/></g><g fill="#676fb2"><path d="m270.833 287.335-8.503-13.791c-3.759-6.096-12.962-6.096-16.721 0l-8.503 13.791c-3.826 6.205.841 14.044 8.361 14.044h17.006c7.519 0 12.186-7.839 8.36-14.044z"/><g><path d="m372.376 208.436c-4.415-3.549-10.448-4.327-15.61-1.993l-55.262 24.985c-6.108 2.762-10.435 8.832-10.435 15.981 0 27.077 21.522 49.126 48.393 49.975 27.939.882 51.466-21.764 51.607-49.717.08-15.866-7.234-30.02-18.693-39.231z"/><path d="m210.496 231.427-55.262-24.985c-5.162-2.333-11.195-1.556-15.61 1.993-11.459 9.211-18.773 23.365-18.693 39.231.141 27.953 23.667 50.599 51.607 49.717 26.761-.845 48.433-22.786 48.393-50.098-.018-6.859-4.185-13.032-10.435-15.858z"/></g></g></g><g><path d="m274.107 412.904-7.89-1.153-3.529-7.191c-2.726-5.555-10.633-5.586-13.375 0l-3.529 7.191-7.89 1.153c-6.117.894-8.559 8.454-4.133 12.793l5.71 5.597-1.348 7.903c-1.045 6.127 5.349 10.799 10.821 7.906l7.057-3.731c6.378 3.372 4.278 2.262 7.057 3.731 5.471 2.893 11.865-1.779 10.82-7.906l-1.348-7.903 5.71-5.597c4.426-4.339 1.984-11.899-4.133-12.793z" fill="#fce3a0"/><path d="m346.107 392.904-7.89-1.153-3.529-7.191c-2.726-5.555-10.633-5.586-13.375 0l-3.529 7.191-7.89 1.153c-6.117.894-8.559 8.454-4.133 12.793l5.71 5.597-1.348 7.903c-1.045 6.127 5.349 10.799 10.821 7.906l7.057-3.731c6.378 3.372 4.278 2.262 7.057 3.731 5.471 2.893 11.865-1.779 10.82-7.906l-1.348-7.903 5.71-5.597c4.426-4.339 1.984-11.899-4.133-12.793z" fill="#fce3a0"/><path d="m202.107 392.904-7.89-1.153-3.529-7.191c-2.726-5.555-10.633-5.586-13.375 0l-3.529 7.191-7.89 1.153c-6.117.894-8.559 8.454-4.133 12.793l5.71 5.597-1.348 7.903c-1.045 6.127 5.349 10.799 10.821 7.906l7.057-3.731c6.378 3.372 4.278 2.262 7.057 3.731 5.471 2.893 11.865-1.779 10.82-7.906l-1.348-7.903 5.71-5.597c4.426-4.339 1.984-11.899-4.133-12.793z" fill="#ffce71"/></g><g><path d="m127.754 347.266c.085.003.171.004.257.004h54.517c38.808 47.267 108.154 47.246 146.943 0h54.537c30.047 0 54.491-20.083 54.491-44.769 0-9.187-3.415-18.111-9.704-25.564 18.216-57.859 6.531-123.347-34.988-171.977-2.688-3.148-7.422-3.525-10.574-.834-3.15 2.689-3.523 7.424-.834 10.574 38.278 44.833 49.678 106.567 30.791 161.679-.945 2.759-.206 5.814 1.895 7.837 3.839 3.692 8.415 9.863 8.415 18.285 0 16.414-17.716 29.769-39.491 29.769h-58.161c-2.335 0-4.538 1.088-5.957 2.942-9.116 11.915-20.412 20.773-33.108 26.192v-21.634c0-4.143-3.358-7.5-7.5-7.5s-7.5 3.357-7.5 7.5v26.292c-10.329 2.082-21.218 2.085-31.565 0v-26.292c0-4.143-3.358-7.5-7.5-7.5s-7.5 3.357-7.5 7.5v21.634c-12.697-5.418-23.992-14.276-33.108-26.191-1.419-1.854-3.621-2.942-5.957-2.942h-57.901c-.081-.003-.162-.004-.243-.004-21.785 0-39.508-13.353-39.508-29.765 0-8.445 4.573-14.625 8.41-18.322 2.097-2.021 2.834-5.075 1.891-7.831-36.902-107.736 43.593-219.972 157.197-219.972 38.65.001 76.29 13.565 105.985 38.194 3.188 2.646 7.917 2.205 10.561-.984 2.645-3.188 2.204-7.917-.984-10.561-32.382-26.857-73.422-41.648-115.561-41.649-121.593 0-209.624 118.524-172.802 235.53-6.284 7.46-9.696 16.395-9.696 25.594-.002 25.171 24.548 44.655 54.252 44.765z"/><path d="m276.26 283.016-6.997-11.348c-6.02-9.762-20.498-9.776-26.526 0l-6.997 11.348c-6.286 10.195 1.326 22.993 13.264 22.993h13.993c11.934 0 19.55-12.797 13.263-22.993zm-27.728 7.834 6.973-11.309c.166-.268.825-.268.991 0l6.973 11.309z"/><path d="m339.225 304.879c32.2 1.019 59.182-24.969 59.344-57.175.089-17.619-7.745-34.063-21.493-45.114-6.661-5.352-15.625-6.494-23.399-2.981l-55.26 24.985c-32.054 14.487-9.79 78.69 40.808 80.285zm-34.631-66.617 55.26-24.985c2.607-1.177 5.603-.779 7.822 1.005 10.165 8.171 15.957 20.325 15.892 33.347-.119 23.657-19.985 42.989-43.87 42.259-23.063-.728-41.129-19.387-41.129-42.479 0-3.903 2.365-7.493 6.025-9.147z"/><path d="m158.323 199.608c-7.773-3.514-16.739-2.37-23.397 2.981-13.749 11.052-21.583 27.495-21.494 45.114.163 32.175 27.115 58.197 59.343 57.175 30.787-.971 55.703-26.181 55.656-57.612-.023-9.708-5.851-18.607-14.846-22.673h.001zm13.978 90.279c-23.73.75-43.75-18.474-43.87-42.259-.066-13.021 5.727-25.176 15.892-33.347 2.231-1.794 5.229-2.176 7.821-1.005l55.262 24.985h.001c3.65 1.65 6.014 5.199 6.023 9.035.035 23.153-18.031 41.861-41.129 42.591z"/><path d="m455.347 15.4c-54.018 23.055-114.511 19.476-164.153-6.71-10.777-5.685-22.901-8.69-35.061-8.69-12.162 0-24.283 3.001-35.054 8.679-49.551 26.13-110.188 29.843-164.44 6.705-26.938-11.49-56.639 8.512-56.639 37.542v83.323c0 67.969 16.742 135.721 48.417 195.93 1.929 3.667 6.464 5.072 10.129 3.146 3.666-1.929 5.074-6.464 3.146-10.13-30.546-58.064-46.692-123.401-46.692-188.946v-83.323c0-18.31 18.701-31.015 35.754-23.745 58.38 24.901 123.754 21.015 177.321-7.233 17.311-9.125 38.301-9.389 56.12.011 53.595 28.271 118.82 32.085 177.04 7.239 17.069-7.282 35.765 5.442 35.765 23.739v83.312c0 143.831-75.976 275.535-197.71 348.736-.015.009-.03.018-.044.026-13.003 7.819-27.916 11.965-43.112 11.988h-.13c-15.249 0-30.204-4.146-43.248-11.988-.014-.009-.029-.017-.043-.025-55.249-33.226-102.406-79.645-136.377-134.243-2.188-3.518-6.813-4.593-10.33-2.406-3.517 2.188-4.594 6.813-2.406 10.33 35.229 56.62 84.133 104.754 141.426 139.199.013.008.026.016.039.023 15.369 9.231 32.981 14.11 50.939 14.11h.142c17.907-.028 35.469-4.907 50.789-14.108.014-.009.028-.017.042-.025 126.27-75.911 205.023-212.502 205.023-361.617v-83.312c0-29.027-29.691-49.037-56.653-37.537z"/><path d="m275.191 405.483-3.982-.582-1.789-3.646c-5.477-11.158-21.364-11.161-26.841 0l-1.789 3.646-3.981.582c-12.24 1.786-17.158 16.884-8.299 25.569l2.906 2.85-.688 4.034c-2.091 12.258 10.762 21.595 21.72 15.797l3.551-1.878 3.552 1.878c10.947 5.791 23.812-3.526 21.719-15.797l-.688-4.034 2.908-2.85c8.867-8.693 3.926-23.782-8.299-25.569zm-2.2 14.858c-9.489 9.3-8.71 7.095-6.539 20.073-11.635-6.15-9.417-6.071-20.931.013 2.233-13.093 2.91-10.875-6.521-20.058 0-.012.002-.03.008-.048 13.127-1.919 11.243-.653 16.994-12.36 5.826 11.873 4.051 10.468 16.99 12.36.003.012.003.02-.001.02z"/><path d="m347.19 385.483-3.981-.582-1.789-3.646c-5.466-11.141-21.354-11.179-26.84 0l-1.789 3.646-3.981.582c-12.24 1.786-17.158 16.884-8.299 25.569l2.906 2.85-.688 4.034c-2.091 12.259 10.761 21.593 21.72 15.797l3.551-1.878 3.552 1.878c10.946 5.79 23.811-3.54 21.72-15.797l-.688-4.034 2.906-2.85c8.865-8.688 3.93-23.784-8.3-25.569zm-2.201 14.859c-9.482 9.296-8.71 7.09-6.537 20.072-11.641-6.153-9.417-6.071-20.932.013 2.229-13.07 2.91-10.875-6.521-20.058 0-.012.002-.03.008-.048 12.965-1.896 11.171-.506 16.994-12.36 5.8 11.822 3.998 10.46 16.989 12.36.004.012.004.021-.001.021z"/><path d="m203.191 385.483-3.982-.582-1.789-3.646c-5.477-11.158-21.364-11.161-26.841 0l-1.789 3.646-3.981.582c-12.24 1.786-17.158 16.884-8.299 25.569l2.906 2.85-.688 4.034c-2.091 12.259 10.76 21.593 21.72 15.797l3.551-1.878 3.552 1.878c10.947 5.791 23.812-3.526 21.719-15.797l-.688-4.034 2.908-2.85c8.867-8.693 3.926-23.782-8.299-25.569zm-2.2 14.858c-9.489 9.3-8.71 7.095-6.539 20.073-11.635-6.15-9.417-6.071-20.931.013 2.229-13.07 2.91-10.875-6.521-20.058 0-.012.002-.03.008-.048 13.093-1.915 11.219-.605 16.994-12.36 5.826 11.873 4.051 10.468 16.99 12.36.003.012.003.02-.001.02z"/><path d="m297.824 159.788h3.176c4.142 0 7.5-3.357 7.5-7.5s-3.358-7.5-7.5-7.5h-3.176c-3.118-17.432-16.892-31.206-34.324-34.324v-3.176c0-4.143-3.358-7.5-7.5-7.5s-7.5 3.357-7.5 7.5v3.176c-17.432 3.118-31.206 16.892-34.324 34.324h-3.176c-4.142 0-7.5 3.357-7.5 7.5s3.358 7.5 7.5 7.5h3.176c3.118 17.432 16.892 31.206 34.324 34.324v3.176c0 4.143 3.358 7.5 7.5 7.5s7.5-3.357 7.5-7.5v-3.176c17.432-3.118 31.206-16.892 34.324-34.324zm-49.324 18.952c-9.142-2.596-16.356-9.81-18.952-18.952h18.952zm0-33.952h-18.952c2.596-9.142 9.81-16.355 18.952-18.952zm15 33.952v-18.952h18.952c-2.596 9.142-9.81 16.356-18.952 18.952zm0-33.952v-18.952c9.142 2.596 16.356 9.81 18.952 18.952z"/><path d="m183.551 245.732c-4.142 0-7.5 3.357-7.5 7.5v10.366c0 4.143 3.358 7.5 7.5 7.5s7.5-3.357 7.5-7.5v-10.366c0-4.142-3.358-7.5-7.5-7.5z"/><path d="m328.448 271.099c4.143 0 7.5-3.357 7.5-7.5v-10.366c0-4.143-3.357-7.5-7.5-7.5-4.142 0-7.5 3.357-7.5 7.5v10.366c0 4.142 3.358 7.5 7.5 7.5z"/></g></g></svg>