<svg id="Capa_1" enable-background="new 0 0 512 512" height="512" viewBox="0 0 512 512" width="512" xmlns="http://www.w3.org/2000/svg"><g><g><path d="m182.654 402.624c-17.966 12.967-32.617 30.723-41.833 51.86-6.686 15.334-10.408 32.246-10.408 50.016h125.587v-101.876z" fill="#009d6b"/><path d="m329.341 402.616-73.341.008v101.876h125.588c0-17.77-3.722-34.682-10.409-50.017-8.979-20.591-23.461-38.595-41.838-51.867z" fill="#0caf7b"/></g><g><path d="m339.123 480.384c-.227-4.722-3.615-9.321-8.049-10.553 4.167-1.609 7.022-5.805 6.598-10.535-.405-4.528-.871-9.051-1.399-13.566-.556-4.759-4.297-9.295-8.935-10.064 4.116-1.844 6.776-6.267 6.01-11.047-1.565-9.771-2.89-16.324-4.008-22.003-9.419-6.801-19.869-12.366-31.126-16.396-13.253-4.746-27.518-7.308-42.216-7.308l-51.937 32.026v93.562h135.645v-.015c0-8.041-.197-16.077-.583-24.101z" fill="#70dcba"/><path d="m182.654 402.624c-1.406 7.07-2.768 14.57-3.918 21.719-.011.068-.022.136-.033.204-.755 4.785 1.854 9.225 5.946 11.094-4.615.618-8.347 4.265-8.912 9-.534 4.475-1.011 10.014-1.426 14.556-.435 4.764 2.407 9.008 6.591 10.631-4.411 1.223-7.761 5.796-8.048 10.485-.368 7.754-.576 16.022-.576 24.187h10.373 21.411c.027-23.985 6.365-47.291 18.503-67.924 8.656-14.715 20.034-27.631 33.434-38.075v-19.59c-25.673 0-51.416 7.884-73.345 23.713z" fill="#18c08b"/><path d="m256 363.51-42.223 22.708c7.414 19.444 22.244 34.845 42.223 45.528 19.978-10.682 34.786-26.085 42.2-45.528h.001z" fill="#0caf7b"/></g><g><g fill="#ffbd86"><circle cx="111.242" cy="241.682" r="37.427"/><circle cx="400.758" cy="241.682" r="37.427"/></g><g><path d="m280.95 93.2h-28.755c-19.118 0-37.175 8.786-48.972 23.829l-97.761 124.652 97.761 124.652c11.798 15.043 29.855 23.821 48.972 23.821h28.755c71.333-11.923 125.588-73.888 125.588-148.474.001-74.639-54.321-136.592-125.588-148.48z" fill="#fed2a4"/><path d="m155.364 241.682c0-74.64 54.324-136.593 125.587-148.482-8.117-1.354-16.45-2.058-24.952-2.058-83.138 0-150.538 67.399-150.538 150.54 0 83.139 67.4 150.538 150.538 150.538 8.501 0 16.835-.71 24.952-2.064-71.263-11.89-125.587-73.836-125.587-148.474z" fill="#ffbd86"/></g></g><g><g><path d="m288.996 10.489-63.168 19.735v103.636l30.172 30.171c29.82 0 53.428 10.466 71.348 28.386 18.175 18.175 42.826 28.386 68.529 28.386h42.307v-31.118c0-89.351-64.324-163.67-149.188-179.196z" fill="#18c08b"/><path d="m265.971 32.226c6.6-8.549 14.398-15.832 23.025-21.738-10.702-1.957-21.728-2.988-32.996-2.988-100.617 0-182.184 81.567-182.184 182.184v31.118h42.307c25.703 0 50.354-10.211 68.529-28.386 17.92-17.92 41.528-28.386 71.348-28.386v-23.338c-17.976-35.032-14.091-77.298 9.971-108.466z" fill="#0caf7b"/></g><g><path d="m438.184 197.464h-42.307c-19.653 0-38.129-7.653-52.026-21.55-23.371-23.37-52.928-35.221-87.851-35.221-12.36 13.105-12.36 33.573 0 46.678 22.404 0 40.344 7.049 54.845 21.55 22.713 22.713 52.912 35.221 85.032 35.221h42.307c12.89 0 23.339-10.449 23.339-23.339s-10.449-23.339-23.339-23.339z" fill="#70dcba"/><path d="m256 140.693c-34.923 0-64.48 11.851-87.851 35.221-13.897 13.897-32.374 21.55-52.026 21.55h-42.307c-12.89 0-23.339 10.449-23.339 23.339s10.449 23.339 23.339 23.339h42.307c32.12 0 62.319-12.508 85.033-35.221 14.5-14.501 32.44-21.55 54.844-21.55-12.36-13.105-12.36-33.574 0-46.678z" fill="#18c08b"/></g></g><g><path d="m192.046 266.49c-.003 0-.005 0-.007 0-4.139 0-7.496 3.354-7.5 7.493l-.011 11.847c-.004 4.142 3.351 7.503 7.493 7.507h.007c4.139 0 7.496-3.354 7.5-7.493l.011-11.847c.003-4.142-3.351-7.503-7.493-7.507z"/><path d="m320.042 266.643c-.003 0-.005 0-.007 0-4.139 0-7.496 3.354-7.5 7.493l-.011 11.848c-.004 4.142 3.351 7.503 7.493 7.507h.007c4.139 0 7.496-3.354 7.5-7.493l.012-11.848c.003-4.142-3.351-7.504-7.494-7.507z"/><path d="m269.528 281.509c-8.06-4.104-18.14-4.511-26.994-.031-3.696 1.871-5.176 6.383-3.306 10.079s6.382 5.175 10.078 3.306c4.196-2.123 9.22-2.123 13.416.014 3.7 1.882 8.21.404 10.086-3.281 1.88-3.693.411-8.208-3.28-10.087z"/><path d="m203.134 250.276-19.53-3.465c-4.076-.722-7.972 1.996-8.695 6.074-.724 4.079 1.996 7.972 6.075 8.695l19.53 3.465c4.094.722 7.973-2.008 8.695-6.074.723-4.078-1.997-7.971-6.075-8.695z"/><path d="m328.536 240.754-19.538 3.424c-4.08.715-6.808 4.603-6.093 8.683.712 4.064 4.582 6.807 8.682 6.093l19.539-3.424c4.08-.715 6.808-4.603 6.093-8.683-.716-4.079-4.594-6.804-8.683-6.093z"/><path d="m469.023 220.803c0-14.419-9.948-26.554-23.34-29.912 0-28.992-5.86-56.081-18.044-81.895l2.728-2.728c2.929-2.93 2.929-7.678 0-10.607-2.731-2.729-7.042-2.913-9.988-.551-11.233-19.447-25.82-36.721-42.96-51.037 5.489-6.95-3.885-17.25-11.934-9.202-20.812-14.762-44.719-25.433-70.536-30.842-.346-.662-.796-1.284-1.354-1.84-2.849-2.84-7.404-2.906-10.342-.223-8.903-1.287-18-1.966-27.253-1.966-9.22 0-18.328.662-27.282 1.939-2.941-2.656-7.475-2.581-10.313.25-.54.538-.979 1.139-1.32 1.777-25.468 5.269-49.423 15.715-70.656 30.819-7.841-7.841-17.296 2.175-11.912 9.199-5.088 4.262-9.991 8.808-14.682 13.643-2.884 2.973-2.812 7.721.161 10.605 2.974 2.884 7.722 2.812 10.605-.162 4.624-4.766 9.474-9.223 14.515-13.383l42.745 42.745-46.925 46.924-38.325-38.324c2.954-5.399 6.198-10.665 9.74-15.773 2.36-3.404 1.515-8.077-1.889-10.438-3.403-2.361-8.077-1.513-10.437 1.889-3.073 4.432-5.937 8.975-8.604 13.611-7.567-3.971-14.838 5.897-8.789 11.947l1.673 1.673c-12.11 25.686-17.991 52.788-17.991 81.949-13.392 3.359-23.339 15.494-23.339 29.912 0 14.738 10.394 27.087 24.294 30.12 3.776 18.293 18.459 32.268 36.974 35.127 13.586 46.73 47.81 83.056 89.41 100.92-42.094 22.383-70.743 66.748-70.743 117.531 0 4.143 3.358 7.5 7.5 7.5h251.176c4.143 0 7.5-3.357 7.5-7.5 0-14.518-2.345-28.812-6.969-42.489-1.325-3.923-5.582-6.029-9.507-4.702-3.924 1.326-6.029 5.583-4.702 9.507 3.301 9.764 5.291 19.887 5.941 30.185h-26.708c-.267-17.83-.162-21.978-4.468-27.688 3.627-6.057 2.669-10.574 1.048-24.453-.466-3.989-2.174-7.67-4.688-10.564 2.149-4.22 2.207-7.866 1.519-12.096 5.693 5.85 10.797 12.263 15.22 19.233 2.219 3.498 6.854 4.533 10.351 2.313 3.497-2.219 4.533-6.854 2.313-10.351-12.618-19.884-29.915-35.698-50.099-46.442 42.204-18.138 75.99-54.815 89.392-100.9 18.521-2.85 33.213-16.823 36.994-35.116 13.875-3.01 24.3-15.374 24.3-30.134zm-38.339-30.839h-14.013l-35-35.001 34.638-34.637c9.509 21.895 14.375 45.304 14.375 69.638zm-185.475-56.399-36.134-36.134 46.925-46.924 46.925 46.925-36.134 36.134c-7.183-.498-14.388-.498-21.582-.001zm68.323-25.526 46.924 46.924-13.5 13.5c-17.474-16.713-38.066-27.539-61.484-32.364zm57.531 57.531 24.382 24.383c-13.447-.086-26.257-4.169-37.089-11.676zm38.278-59.491c-23.626 23.627-14.655 14.656-38.278 38.277l-46.924-46.924 42.68-42.68c17.243 14.187 31.728 31.608 42.522 51.327zm-95.809-19.254-46.933-46.933 21.8-21.867c24.23 4.563 46.708 14.143 66.313 27.62zm-43.833-71.29-13.699 13.742-13.707-13.749c4.535-.348 9.106-.528 13.707-.528 4.61 0 9.178.183 13.699.535zm-46.133 2.453 21.836 21.904-46.933 46.933-41.272-41.272c19.978-13.772 42.49-23.119 66.369-27.565zm-25.098 90.051 28.06 28.06c-23.419 4.826-44.011 15.653-61.485 32.366l-13.5-13.501zm-57.531 57.531 12.708 12.708c-10.833 7.507-23.644 11.59-37.091 11.676zm-45.294-45.293 34.686 34.686-35 35.001h-14.013c0-24.397 4.849-47.83 14.327-69.687zm-12.636 131.365h15.267c.375 6.06 1.098 12.052 2.145 17.959-8.137-3.122-14.524-9.671-17.412-17.959zm99.898 225.414c6.931-1.921 7.425-11.615.708-14.22-.979-.38-1.971-1.467-1.834-2.956.462-5.093.911-10.221 1.404-14.35.152-1.272 1.164-2.282 2.462-2.456 7.421-.995 8.949-11.138 2.117-14.257-1.089-.497-1.877-1.693-1.622-3.282.95-5.903 2.079-12.246 3.292-18.51 6.412-4.39 13.238-8.125 20.377-11.168 7.954 16.268 21.162 30.043 38.69 40.284v60.859h-68.657c.083-5.432.247-10.943.499-16.265.123-1.709 1.472-3.377 2.564-3.679zm80.595-77.514c6.97-.325 13.859-1.11 20.638-2.326-5.251 7.934-12.198 15.021-20.638 21.061zm-15 18.736c-8.449-6.042-15.401-13.129-20.655-21.06 6.784 1.216 13.679 1.999 20.655 2.324zm-76.997 3.84c-.625 3.832-.754 7.391 1.319 11.746-4.775 5.224-4.595 9.387-5.98 24.65-.353 3.855.577 7.621 2.48 10.801-4.275 5.672-4.212 9.572-4.481 27.685h-26.695c1.767-28.199 13.669-54.693 33.357-74.882zm91.997 74.882v-60.858c17.522-10.239 30.726-24.022 38.679-40.307 7.133 3.043 13.962 6.782 20.385 11.183.987 5.018 2.096 10.779 3.379 18.787.233 1.453-.702 2.582-1.67 3.016-6.759 3.028-5.467 13.032 1.838 14.243 1.056.176 2.515 1.842 2.713 3.536.519 4.438.982 8.936 1.379 13.364.128 1.438-.858 2.495-1.83 2.87-6.714 2.593-6.251 12.295.694 14.224 1.118.311 2.482 1.989 2.564 3.687.26 5.415.426 10.855.509 16.256h-68.64zm-7.512-112.28c-75.053 0-137.516-59.027-142.677-133.078 38.397 0 69.391-13.663 93.148-37.418 13.023-13.024 29.228-19.354 49.541-19.354s36.519 6.33 49.542 19.354c23.819 23.818 54.845 37.418 93.126 37.418-5.161 74.051-67.625 133.078-142.68 133.078zm155.57-115.111c1.048-5.909 1.771-11.904 2.147-17.968h15.288c-2.89 8.297-9.288 14.851-17.435 17.968zm26.537-32.967h-42.218c-30.116 0-58.432-11.729-79.729-33.025-15.98-15.979-35.654-23.747-60.148-23.747s-44.168 7.768-60.147 23.746c-21.297 21.297-49.613 33.025-79.729 33.025h-42.309c-8.733 0-15.839-7.105-15.839-15.839s7.105-15.839 15.839-15.839h42.307c21.656 0 42.016-8.434 57.33-23.747 21.913-21.913 49.686-33.024 82.547-33.024s60.634 11.111 82.548 33.025c15.313 15.312 35.673 23.746 57.329 23.746h42.308c8.733 0 15.839 7.105 15.839 15.839s-7.105 15.84-15.928 15.84z"/></g></g></svg>