<svg id="Capa_1" enable-background="new 0 0 512 512" height="512" viewBox="0 0 512 512" width="512" xmlns="http://www.w3.org/2000/svg"><g><g><path d="m493.933 80.27-31.101-31.101-31.102-31.102c-6.766-6.766-15.943-10.567-25.512-10.567h-.003c-9.569 0-18.746 3.801-25.512 10.567l-93.238 93.238 56.614 56.614 56.615 56.614 37.743-37.743 62.812-62.812v-33.141c-1.772-3.895-4.232-7.483-7.316-10.567z" fill="#9ea2e3"/><g><path d="m501.25 90.837h-67.257c-25.781 0-40.411 29.901-24.158 50.353 11.191 14.082 20.786 29.377 28.603 45.601 15.523 32.217 24.028 68.099 24.028 105.44 0 58.996-21.192 114.355-57.788 157.352-7.138 8.387-6.745 20.812 1.042 28.599l.007.007c8.631 8.631 22.833 8.169 30.762-1.111 19.128-22.388 34.559-47.488 46.003-74.868 14.604-34.939 22.008-71.942 22.008-109.978v-186.448-.003c0-5.207-1.134-10.294-3.25-14.944z" fill="#d4d4ff"/></g></g><g><g><path d="m405.616 219.613c-7.158-26.653-20.659-51.424-41.235-71.999-20.585-20.585-45.354-34.079-71.99-41.233h-45.198l-89.571 89.571v265.848h104.529c11.442 9.269 27.853 10.078 40.295 1.6 26.289-17.912 49.892-41.301 68.264-68.264 8.48-12.445 7.669-28.861-1.607-40.303 14.574.189 28.126-8.864 32.758-23.668 11.54-36.901 13.326-75.912 3.755-111.552z" fill="#30cd9c"/></g><path d="m164.687 274.511c6.468-76.025 56.202-141.502 127.704-168.131-35.669-9.581-74.694-7.777-111.56 3.754-14.747 4.612-23.871 18.136-23.669 32.758-11.44-9.276-27.857-10.087-40.303-1.607-26.518 18.069-50.046 41.528-68.264 68.264-8.48 12.445-7.67 28.861 1.607 40.303-14.566-.187-28.123 8.854-32.758 23.668-20.173 64.5-10.608 135.464 37.479 183.552 47.724 47.724 118.46 57.837 183.55 37.479 14.823-4.635 23.912-18.188 23.677-32.751-65.975-38.326-103.932-111.264-97.463-187.289z" fill="#0caf7b"/></g><g><path d="m134.832 334.482 42.687 42.687c19.48 19.479 51.062 19.479 70.542 0l36.418-36.418c19.48-19.48 19.48-51.062 0-70.542l-42.687-42.687c-19.48-19.48-51.062-19.48-70.542 0l-36.418 36.418c-19.48 19.479-19.48 51.062 0 70.542z" fill="#70dcba"/></g><g><g><path d="m287.851 253.638h-9.492v-11.173c-1.4-1.462-2.872-2.959-4.369-4.455-1.508-1.508-2.999-2.975-4.472-4.384h-11.134v-9.458c-8.777-6.13-17.078-8.019-24.569-.528-7.549 7.549-9.178 19.179-5.426 30.527h7.196v13.389c1.258 1.626 2.638 3.203 4.147 4.712s3.086 2.89 4.712 4.148h13.383v7.193c11.352 3.758 22.981 2.128 30.533-5.424 7.534-7.534 5.707-15.712-.509-24.547z" fill="#fff"/></g></g><g><path d="m84.833 314.301c-4.005 1.06-6.392 5.166-5.331 9.17 1.061 4.003 5.168 6.39 9.169 5.331 14.569-3.859 30.226.352 40.857 10.983l42.687 42.687c.003.003.006.005.009.008 10.626 10.632 14.832 26.283 10.977 40.85-1.26 4.757 2.334 9.421 7.255 9.421 3.32 0 6.355-2.222 7.245-5.583 2.64-9.975 2.481-20.327-.181-29.987 19.659 5.394 41 .135 55.845-14.71 2.929-2.929 2.929-7.678 0-10.606-2.93-2.929-7.678-2.929-10.607 0-16.522 16.524-43.41 16.525-59.935 0l-42.688-42.687c-16.563-16.563-16.565-43.371 0-59.936 2.93-2.929 2.93-7.677.001-10.606s-7.678-2.929-10.606 0c-14.969 14.967-20.113 36.272-14.75 55.834-9.649-2.651-19.986-2.806-29.947-.169z"/><path d="m504.5 197.954c4.143 0 7.5-3.358 7.5-7.5v-84.672c0-11.745-4.761-22.812-12.764-30.815l-62.203-62.203c-8.231-8.231-19.175-12.764-30.817-12.764-11.641 0-22.585 4.533-30.815 12.764l-85.311 85.31c-36.92-8.964-75.713-6.29-111.497 4.902-13.503 4.222-23.548 14.799-27.312 27.877-12.425-4.961-26.919-3.755-38.646 4.234-11.915 8.119-23.321 17.356-33.9 27.456-2.996 2.86-3.106 7.607-.246 10.604s7.608 3.105 10.604.246c9.987-9.534 20.751-18.252 31.989-25.91 9.61-6.548 22.241-5.983 31.134 1.069l14.654 14.655c2.928 2.928 7.677 2.93 10.606 0 2.93-2.929 2.93-7.677.001-10.606l-12.69-12.691c.982-10.512 8.073-19.426 18.283-22.618 142.5-44.571 256.215 69.081 211.632 211.633-3.19 10.201-12.103 17.29-22.62 18.279l-12.687-12.688c-2.93-2.929-7.679-2.93-10.606 0-2.93 2.929-2.93 7.677-.001 10.606l14.654 14.655c7.054 8.897 7.616 21.527 1.071 31.134-17.577 25.795-40.499 48.717-66.29 66.29-9.626 6.56-22.248 5.967-31.125-1.062l-14.654-14.655c-2.93-2.929-7.679-2.93-10.606 0-2.93 2.929-2.93 7.677-.001 10.606l12.699 12.699c-.962 10.492-8.066 19.402-18.299 22.602-20.384 6.375-41.048 9.607-61.42 9.607-92.573.002-159.817-67.099-159.817-159.805 0-20.392 3.23-41.061 9.602-61.433 3.19-10.2 12.104-17.288 22.622-18.279l12.688 12.687c2.926 2.928 7.676 2.93 10.606 0 2.929-2.929 2.929-7.678 0-10.606l-14.652-14.651c-7.057-8.897-7.619-21.53-1.073-31.137 4.453-6.534 9.302-12.959 14.413-19.098 2.65-3.184 2.219-7.913-.965-10.563-3.184-2.649-7.913-2.218-10.562.965-5.417 6.507-10.559 13.319-15.281 20.248-8.025 11.777-9.169 26.288-4.231 38.651-13.082 3.768-23.657 13.81-27.88 27.305-6.827 21.823-10.287 43.999-10.287 65.911 0 100.785 74.179 174.807 174.815 174.807 21.892 0 44.063-3.462 65.896-10.291 13.521-4.229 23.578-14.804 27.333-27.87 12.472 4.971 26.949 3.713 38.623-4.242 27.327-18.619 51.615-42.907 70.24-70.239 8.022-11.774 9.17-26.283 4.23-38.648 13.082-3.767 23.659-13.81 27.88-27.307 11.199-35.804 13.862-74.588 4.903-111.49l22.153-22.153c12.528 29.261 18.892 60.313 18.892 92.47 0 55.907-19.888 110.062-55.999 152.49-9.503 11.166-9.262 27.968 1.374 38.687.027.028.055.056.082.083 11.85 11.849 31.11 10.928 41.769-1.543 19.616-22.96 35.504-48.815 47.221-76.848 14.988-35.858 22.588-73.833 22.588-112.868v-71.777c0-4.142-3.357-7.5-7.5-7.5s-7.5 3.358-7.5 7.5v71.777c0 37.039-7.209 73.067-21.428 107.085-11.115 26.592-26.183 51.116-44.784 72.889-5.005 5.855-14.086 6.292-19.705.734-.019-.02-.038-.04-.058-.059-5.092-5.093-5.176-13.101-.637-18.436 38.419-45.139 59.577-102.747 59.577-162.213 0-58.345-20.041-112.651-54.259-155.707-12.484-15.714-.935-38.188 18.286-38.188h62.019c.657 2.42.988 4.911.988 7.447v84.67c.001 4.143 3.358 7.501 7.501 7.501zm-70.507-114.617c-31.878 0-50.241 37.078-30.03 62.519 9.734 12.249 18.239 25.503 25.352 39.45l-20.203 20.203c-16.795-48.513-54.066-85.814-102.618-102.625l79.514-79.513c5.397-5.398 12.574-8.371 20.211-8.371 7.633 0 14.811 2.973 20.208 8.371l59.966 59.966z"/><circle cx="434.083" cy="122.081" r="7.506"/><path d="m220.358 192.719-7.33 7.33c-2.929 2.929-2.929 7.678 0 10.606 2.93 2.929 7.678 2.929 10.607 0l7.33-7.33c1.519-1.519 2.243-3.526 2.187-5.516l.66.943c2.376 3.393 7.054 4.216 10.445 1.841 3.394-2.376 4.218-7.053 1.842-10.446l-7.208-10.293c-2.376-3.393-7.054-4.217-10.445-1.841-3.394 2.376-4.218 7.053-1.842 10.446l1.813 2.589c-2.694-1.063-5.879-.508-8.059 1.671z"/><path d="m301.344 288.365c-2.929 2.929-2.929 7.678 0 10.606 2.93 2.929 7.678 2.929 10.607 0l7.33-7.33c2.179-2.179 2.734-5.364 1.671-8.058l2.589 1.813c3.393 2.376 8.07 1.551 10.445-1.842 2.376-3.393 1.552-8.069-1.842-10.445l-10.293-7.208c-3.393-2.376-8.069-1.55-10.445 1.842-2.376 3.393-1.552 8.069 1.842 10.445l.943.66c-1.99-.056-3.998.668-5.517 2.186z"/><path d="m228.511 218.336c-14.699 14.7-12.045 41.272 5.917 59.235 17.965 17.965 44.539 20.614 59.235 5.917 17.533-17.53-.466-36.88-14.369-50.782-13.967-13.965-33.244-31.909-50.783-14.37zm10.606 10.607c4.231-4.23 8.491-2.915 13.844.647l-18.501 18.501c-1.507-7.386-.059-14.432 4.657-19.148zm1.818 33.266 23.268-23.268c2.968 2.811 6.414 6.277 8.867 8.846l-23.279 23.279c-3.348-2.475-6.382-5.508-8.856-8.857zm42.123 10.673c-4.717 4.716-11.763 6.164-19.148 4.657l18.529-18.529c5.027 7.6 3.715 10.775.619 13.872z"/></g></g></svg>