<svg id="Capa_1" enable-background="new 0 0 512 512" height="512" viewBox="0 0 512 512" width="512" xmlns="http://www.w3.org/2000/svg"><g><path d="m489.526 388.759-14.971-25.999-105.258 60.612 14.971 25.998c8.268 14.358 26.61 19.295 40.969 11.027l53.262-30.671c14.358-8.267 19.294-26.609 11.027-40.967z" fill="#8288cb"/><path d="m466.09 84.186-40.965 40.965 31.82 31.82 40.965-40.965c8.787-8.787 8.787-23.033 0-31.82s-23.033-8.787-31.82 0z" fill="#676fb2"/><path d="m315.186 387.588h-86.077c-38.733 0-70.246-31.512-70.246-70.246v-22.5h45v22.5c0 13.921 11.325 25.246 25.246 25.246h86.077z" fill="#8288cb"/><g><path d="m500.457 347.786-39.072-67.433c-5.105-8.81-.217-19.557 8.86-22.166 8.875-2.551 14.255-10.403 14.255-18.765v-75.473c0-16.569-13.432-30-30-30h-222.855l159.659 275.718h61.87c7.982-4.59 18.916-10.878 36.352-20.909 14.343-8.271 19.232-26.645 10.931-40.972z" fill="#d4d4ff"/><path d="m423.713 392.037c-4.204-3.242-8.222-6.719-12.052-10.402-9.772-9.397-18.271-20.172-25.172-32.089l-29.352-50.688-95.493-164.908h-190.93v138.646c0 16.569 13.431 30 30 30h140.848c14.269 0 27.457 7.601 34.61 19.946l67.146 115.884c8.294 14.315 26.618 19.209 40.95 10.944 47.366-27.314 47.451-27.365 68.906-39.703-10.522-4.72-20.405-10.647-29.461-17.63z" fill="#9ea2e3"/></g><g><path d="m441.036 334.994-13.885-23.964c-8.399-14.496-23.885-23.676-40.637-23.428-11.575.171-21.682 4.477-29.377 11.256v61.25l54.524 21.527c5.72-3.293 11.288-6.497 19.946-11.477 12.332-7.092 16.561-22.856 9.429-35.164z" fill="#ce857a"/><path d="m347.69 356.212 14.203 24.512c7.105 12.262 22.799 16.456 35.076 9.377 5.929-3.418 10.355-5.969 14.693-8.467-9.772-9.397-18.271-20.172-25.172-32.089l-29.352-50.688c-15.435 13.598-21.149 37.162-9.448 57.355z" fill="#bd7669"/></g><g fill="#4c5699"><path d="m102.028 53.52c-3.793-3.793-8.938-5.924-14.302-5.924-11.17 0-20.226 9.055-20.226 20.226v9.774l29.302 20 29.302-20z"/><path d="m7.5 137.596v60c0 16.569 13.431 30 30 30l33.214-60-33.214-60c-16.569 0-30 13.431-30 30z"/></g><g><path d="m424.5 77.596h-242l-65 45v90l65 45h227c24.853 0 45-20.147 45-45v-105c0-16.569-13.431-30-30-30z" fill="#8288cb"/><path d="m167.5 212.596v-90c0-24.853 20.147-45 45-45h-145c-16.569 0-30 13.431-30 30v120c0 16.569 13.431 30 30 30h145c-24.853 0-45-20.147-45-45z" fill="#676fb2"/></g><g><g><g><ellipse cx="166.442" cy="197.411" fill="#ff8e9e" rx="29.355" ry="23.377"/></g><g><ellipse cx="325.556" cy="197.411" fill="#ff8e9e" rx="29.355" ry="23.377"/></g></g></g><g><path d="m510.711 372.503c2.591-9.689 1.25-19.803-3.776-28.478l-31.859-54.983c-5.01-8.648-4.188-20.819 5.428-27.542 7.191-5.029 11.485-13.283 11.485-22.078v-75.472c0-8.794-3.051-16.885-8.139-23.287l19.353-19.354c11.696-11.697 11.696-30.729 0-42.427-11.697-11.697-30.73-11.697-42.427 0l-6.265 6.266c-6.846-9.132-17.754-15.052-30.02-15.052h-236.526c-4.142 0-7.5 3.357-7.5 7.5s3.357 7.5 7.5 7.5h236.525c12.406 0 22.499 10.094 22.499 22.5v120c0 12.406-10.094 22.5-22.499 22.5h-356.992c-12.406 0-22.499-10.094-22.499-22.5v-105c0-20.678 16.822-37.5 37.499-37.5h75.388c4.142 0 7.5-3.357 7.5-7.5s-3.357-7.5-7.5-7.5h-28.678l-21.879-21.88c-17.336-17.333-47.33-5.11-47.33 19.605v7.351c-10.926 5.205-19.779 14.076-24.964 25.014-19.532 1.274-35.035 17.562-35.035 37.41v60c0 18.334 13.228 33.626 30.639 36.86 2.977 16.035 16.183 28.513 32.573 30.388v7.752c0 20.678 16.822 37.5 37.499 37.5h50.647v7.246c0 42.869 34.876 77.746 77.744 77.746h80.429l27.289 47.098c9.039 15.602 27.97 22.535 44.925 16.547 11.588 13.544 31.344 17.308 47.222 8.164l13.749-7.917c3.59-2.066 4.824-6.652 2.757-10.241-2.066-3.59-6.652-4.824-10.241-2.757l-13.749 7.916c-8.403 4.838-18.697 3.697-25.857-2.421l90.011-51.833c.248 1.336.382 2.694.382 4.057 0 8.039-4.321 15.521-11.277 19.526l-13.515 7.783c-3.589 2.066-4.823 6.652-2.756 10.242 2.068 3.592 6.657 4.822 10.242 2.756l13.514-7.782c15.282-8.8 22.778-27.543 16.65-44.941 5.727-4.873 9.847-11.354 11.834-18.782zm-435.713-304.681c0-11.332 13.763-16.962 21.723-8.998l11.272 11.272c-27.787 0-28.081-.162-32.995.544zm-59.998 129.774v-60c0-9.924 6.462-18.363 15.397-21.344-.252 2.082-.397 4.196-.397 6.344v96.21c-8.73-3.096-15-11.433-15-21.21zm456.382-108.106c5.848-5.85 15.365-5.85 21.212 0 5.849 5.848 5.849 15.364 0 21.212l-20.269 20.269c-3.195-1.735-6.67-3.019-10.337-3.766v-19.608c0-2.701-.293-5.334-.839-7.874zm-242.279 290.598c-34.598 0-62.745-28.147-62.745-62.746v-7.246h29.999v7.246c0 18.057 14.689 32.746 32.745 32.746h54.356l17.382 30zm12.453-69.992c11.553 0 22.329 6.21 28.12 16.205l5.091 8.787h-45.665c-9.785 0-17.746-7.961-17.746-17.746v-7.246zm108.243 124.571-67.145-115.885c-8.465-14.61-24.213-23.686-41.099-23.686h-140.844c-12.406 0-22.499-10.094-22.499-22.5v-7.5h346.278c20.677 0 37.499-16.822 37.499-37.5v-84.856c8.729 3.096 15 11.433 15 21.21v75.473c0 3.902-1.9 7.561-5.082 9.786-15.75 11.013-18.907 31.652-9.809 47.354l31.859 54.983c3.014 5.203 3.818 11.27 2.264 17.083-1.55 5.795-5.259 10.635-10.441 13.626-.002.001-.005.002-.007.004-.005.003-.009.006-.014.009l-105.246 60.605c-10.728 6.188-24.507 2.505-30.714-8.206z"/><path d="m183.545 182.408c4.142 0 7.5-3.357 7.5-7.5v-12c0-4.143-3.357-7.5-7.5-7.5s-7.5 3.357-7.5 7.5v12c.001 4.142 3.358 7.5 7.5 7.5z"/><path d="m315.94 174.908v-12c0-4.143-3.357-7.5-7.5-7.5s-7.5 3.357-7.5 7.5v12c0 4.143 3.357 7.5 7.5 7.5s7.5-3.358 7.5-7.5z"/><path d="m245.993 189.551c8.477 0 16.539-3.671 22.118-10.072 2.721-3.122 2.396-7.86-.727-10.582-3.122-2.722-7.86-2.396-10.582.727-2.729 3.132-6.669 4.928-10.809 4.928-4.141 0-8.08-1.796-10.809-4.928-2.722-3.122-7.46-3.447-10.582-.727-3.123 2.722-3.447 7.46-.727 10.582 5.58 6.401 13.641 10.072 22.118 10.072z"/></g></g></svg>