<svg id="Capa_1" enable-background="new 0 0 512 512" height="512" viewBox="0 0 512 512" width="512" xmlns="http://www.w3.org/2000/svg"><g><g><path d="m489.5 7.5h-413.497c-8.284 0-15 6.716-15 15s6.716 15 15 15h413.497c8.284 0 15-6.716 15-15s-6.716-15-15-15z" fill="#d4d4ff"/><path d="m292.341 7.5h-18.235c-15.261 0-26.095 14.87-21.417 29.396l10.535 32.604 20 10.112 20-10.112 10.534-32.604c4.677-14.526-6.156-29.396-21.417-29.396z" fill="#8288cb"/></g><path d="m323.224 159.5h-80c-24.853 0-45-20.147-45-45s20.147-45 45-45h80c24.853 0 45 20.147 45 45s-20.148 45-45 45z" fill="#0caf7b"/><g fill="#676fb2"><path d="m113.963 414.5v30l15 10 15-10v-30l-15-10z"/><path d="m261.326 404.5-15 10v30l15 10 15-10v-30z"/></g><g><path d="m475.649 179.62c2.635-6.215 23.271-54.891 26.035-61.411 9.794-23.103-7.163-48.709-32.256-48.709-10.651 0-20.723 4.845-27.372 13.166l-25.433 31.834h-230.266c-34.404 0-66.764 10.981-93.272 30v221.639h249.809c.929-2.861-1.077 4.476 25.189-94.015l55.109-19.162 18.864 23.611c6.648 8.321 16.721 13.166 27.372 13.166 25.093 0 42.05-25.607 32.256-48.709-14.4-33.965-23.313-54.99-26.035-61.41z" fill="#30cd9c"/><path d="m192.322 313.743-102.789-16.846-79.292 16.99c-2.712 10.17-3.342 20.3-2.199 30l105.921 70.613h162.363c30.457 0 57.249-19.666 66.567-48.361-56.024-6.476-107.017-24.498-150.571-52.396z" fill="#0caf7b"/></g><g><g><path d="m192.322 313.743c25.925-1.854 46.386-23.458 46.386-49.856v-69.387c0-27.614-22.386-50-50-50h-95.624c-8.889 6.377-17.114 13.664-24.543 21.739v127.218z" fill="#b9f0ff"/><path d="m68.542 166.239c-17.102 18.589-29.958 41.378-36.801 67.035l-21.5 80.613h178.466c1.217 0 2.419-.059 3.615-.144-54.394-34.839-97.195-85.09-123.78-147.504z" fill="#7ce3ff"/></g><path d="m8.043 343.887c4.563 38.743 37.464 70.613 79.507 70.613h26.414v-40.613c0-16.569-13.432-30-30-30z" fill="#7ce3ff"/></g><g><g fill="#d4d4ff"><path d="m385.985 165.212c-1.329-.385-2.734-.592-4.187-.592-8.284 0-15 6.716-15 15s6.716 15 15 15c1.453 0 2.858-.207 4.187-.592l49.664-14.408z"/><path d="m485.313 165.212c1.329-.385 2.734-.592 4.187-.592 8.284 0 15 6.716 15 15s-6.716 15-15 15c-1.453 0-2.858-.207-4.187-.592l-49.664-14.408z"/></g><circle cx="435.649" cy="179.62" fill="#0caf7b" r="22.5"/></g><g><path d="m205.417 504.5h70.91c46.226 0 89.382-19.983 119.308-53.428 13.945-15.585 8.205-40.273-11.237-47.979-11.748-4.656-25.086-1.39-33.521 8.019-18.785 20.955-45.895 33.387-74.55 33.387h-70.91l-38.122 31.036z" fill="#9ea2e3"/><path d="m205.417 444.5h-117.867c-13.569 0-26.833-2.456-39.425-7.299-9.158-3.522-19.467-2.3-27.579 3.271-8.169 5.611-13.046 14.871-13.046 24.773 0 12.345 7.777 23.617 19.353 28.049 19.418 7.435 39.84 11.206 60.697 11.206h117.867c-16.623-16.546-16.623-43.454 0-60z" fill="#8288cb"/></g><path d="m130.935 256.186c-15.972 0-28.92 10.311-28.92 23.03s12.948 23.03 28.92 23.03 28.919-10.311 28.919-23.03-12.948-23.03-28.919-23.03z" fill="#ff8e9e"/><g><path d="m512 179.62c0-11.494-8.429-20.448-18.738-22.199l15.339-36.293c5.578-13.197 4.183-28.203-3.732-40.141-15.886-23.96-50.519-25.551-68.485-2.995l-23.105 29.008h-37.668c-3.642-25.409-25.496-45-51.829-45h-10.229l5.474-17h170.473c12.406 0 22.5-10.093 22.5-22.5s-10.094-22.5-22.5-22.5c-10.861 0-402.282 0-413.497 0-12.406 0-22.5 10.093-22.5 22.5s10.094 22.5 22.5 22.5h171.417l5.474 17h-8.864c-26.332 0-48.177 19.593-51.818 45h-5.854c-35.241 0-69.007 10.86-97.646 31.406-13.198 9.469-24.926 20.776-34.857 33.607-2.535 3.275-1.936 7.986 1.34 10.521 3.272 2.534 7.985 1.937 10.521-1.34 8.557-11.054 18.577-20.866 29.812-29.195h93.179c23.435 0 42.5 19.065 42.5 42.5v69.387c0 23.435-19.065 42.5-42.5 42.5h-168.703l18.984-71.18c2.757-10.336 6.608-20.396 11.447-29.901 1.879-3.691.41-8.207-3.281-10.086-3.688-1.879-8.206-.411-10.086 3.281-5.315 10.441-9.546 21.49-12.574 32.841l-21.5 80.613c-1.958 7.343-2.994 14.546-2.994 22.246 0 49.905 40.345 87.8 87.55 87.8h18.913v15h-18.913c-12.646 0-25.004-2.288-36.732-6.799-24.444-9.405-50.818 8.779-50.818 35.044 0 15.431 9.714 29.517 24.171 35.053 20.278 7.765 41.602 11.702 63.379 11.702h188.776c47.571 0 93.095-20.385 124.898-55.927 17.396-19.445 10.211-50.331-14.065-59.952-14.527-5.757-31.354-1.745-41.868 9.985-15.914 17.753-37.991 28.658-61.465 30.585v-15.014c11.695-1.057 23.023-4.76 33.108-10.885 3.54-2.15 4.667-6.764 2.517-10.304-2.15-3.541-6.764-4.666-10.304-2.517-9.725 5.907-20.883 9.029-32.27 9.029h-155.414v-33.113c0-20.678-16.822-37.5-37.5-37.5h-68.938c-.123-5.009.295-10.023 1.223-15h172.46c31.706 0 57.5-25.794 57.5-57.5v-69.387c0-31.706-25.794-57.5-57.5-57.5h-68.365c20.479-9.866 42.898-15 66.016-15h76.866c4.143 0 7.5-3.358 7.5-7.5s-3.357-7.5-7.5-7.5h-55.805c3.471-17.096 18.566-30 36.609-30h79.753c20.602 0 37.361 16.822 37.361 37.5 0 4.142 3.357 7.5 7.5 7.5h48.25c2.284 0 4.443-1.041 5.866-2.827l25.355-31.834c11.403-14.316 33.76-13.888 44.251 1.938 5.205 7.85 6.087 17.332 2.418 26.013l-18.962 44.866-15.187 4.406c-5.204-8.926-14.875-14.942-25.93-14.942-10.959 0-20.56 5.91-25.795 14.707l-21.78-6.318c-14.396-4.176-28.776 6.614-28.776 21.611 0 14.999 14.387 25.784 28.777 21.611l21.779-6.318c5.235 8.797 14.836 14.708 25.795 14.708 11.056 0 20.727-6.016 25.931-14.942l15.169 4.401 18.978 44.873c1.471 3.479 2.217 7.104 2.217 10.774 0 15.171-12.331 27.514-27.487 27.514-8.388 0-16.202-3.769-21.44-10.341l-18.818-23.611c-1.986-2.492-5.326-3.455-8.334-2.408l-54.976 19.162c-2.349.819-4.14 2.75-4.779 5.154-24.301 91.373-24.343 91.616-24.846 93.116-1.889 5.738-4.187 10.867-7.91 16.352-2.326 3.427-1.435 8.091 1.992 10.417 3.435 2.331 8.096 1.429 10.418-1.993 4.59-6.761 7.426-13.093 9.726-20.017.681-2.035.168-.218 24.094-90.175l46.198-16.102 15.505 19.454c8.102 10.163 20.191 15.992 33.171 15.992 23.428 0 42.487-19.072 42.487-42.514 0-5.688-1.145-11.279-3.402-16.617l-15.347-36.287c10.278-1.74 18.749-10.672 18.749-22.203zm-22.5-164.62c4.136 0 7.5 3.364 7.5 7.5s-3.364 7.5-7.5 7.5h-167.14c.016-5.232-1.354-10.378-4.042-15zm-245.413 15h-168.084c-4.136 0-7.5-3.364-7.5-7.5s3.364-7.5 7.5-7.5h172.127c-2.689 4.622-4.059 9.768-4.043 15zm9.739 392h15v15h-15zm-102.363 0h87.363v15h-87.363zm-30 0h15v15h-15zm154.863 30c30.485 0 59.693-13.078 80.135-35.881 6.341-7.074 16.458-9.506 25.172-6.053 14.618 5.793 18.891 24.293 8.413 36.005-28.962 32.366-70.411 50.929-113.72 50.929h-188.776c-19.936 0-39.455-3.604-58.016-10.71-8.693-3.329-14.534-11.786-14.534-21.045 0-15.708 15.772-26.684 30.433-21.044 13.453 5.175 27.624 7.799 42.117 7.799zm-192.363-100.613c12.406 0 22.5 10.093 22.5 22.5v33.113h-18.913c-33.909 0-62.886-23.379-70.572-55.613zm222.656-316.789-8.823 27.402h-29.145l-8.823-27.402c-1.486-4.616-.701-9.511 2.154-13.43s7.275-6.168 12.124-6.168h18.234c4.85 0 9.269 2.248 12.124 6.167s3.641 8.815 2.155 13.431zm98.109 145.909-21.775 6.317c-4.805 1.391-9.599-2.214-9.599-7.205 0-4.977 4.782-8.601 9.598-7.205l21.776 6.318c-.031 1.024-.031.748 0 1.775zm29.977 14.113c-8.271 0-15-6.729-15-15s6.729-15 15-15 15 6.729 15 15-6.728 15-15 15zm52.697-7.795c-5.517-1.6-17.297-5.018-22.713-6.589.02-1.061.023-.017 0-1.231l22.712-6.589c4.796-1.392 9.599 2.208 9.599 7.205 0 4.995-4.801 8.594-9.598 7.204z"/><path d="m107.815 254.155c0-3.455 2.811-6.265 6.265-6.265s6.265 2.811 6.265 6.265c0 4.142 3.357 7.5 7.5 7.5s7.5-3.358 7.5-7.5c0-11.726-9.539-21.265-21.265-21.265s-21.265 9.54-21.265 21.265c0 4.142 3.357 7.5 7.5 7.5s7.5-3.358 7.5-7.5z"/></g></g></svg>