<svg id="Capa_1" enable-background="new 0 0 512.001 512.001" height="512" viewBox="0 0 512.001 512.001" width="512" xmlns="http://www.w3.org/2000/svg"><g><g><path d="m175.881 393.226c-19.621 14.164-35.625 33.556-45.691 56.642-7.303 16.75-11.369 35.223-11.369 54.632h45.73l91.459-10-.01-101.274z" fill="#18c08b"/><path d="m336.115 393.217-80.115.009.01 101.274 91.424 10h45.748c0-19.41-4.066-37.884-11.37-54.634-9.808-22.489-25.627-42.152-45.697-56.649z" fill="#70dcba"/></g><g><path d="m255.999 367.318c-28.852 0-56.706 9.006-80.119 25.907-7.194 36.167-11.33 71.126-11.33 111.274h57.459l34-10-.009-127.181s0 0-.001 0z" fill="#676fb2"/><path d="m347.433 504.484c0-41.061-4.283-75.39-11.318-111.267-23.378-16.879-51.268-25.898-80.114-25.899l.009 127.182 33.982 10h57.442v-.016z" fill="#8288cb"/></g><g><path d="m286.986 10.056h-35.71c-23.742 0-46.166 10.911-60.818 29.593l-72.343 92.242v122.903l16.211 22.889 56.131 71.571c14.651 18.681 37.076 29.583 60.818 29.583h35.71c7.293-1.219 14.445-2.881 21.425-4.916 57.861-16.873 104.063-60.903 123.95-117.325l5.987-103.525c-16.597-73.455-76.435-130.517-151.361-143.015z" fill="#d4d4ff"/><path d="m153.549 283.471-8.385-28.453v-131.989c24.26-58.629 77.476-102.237 141.822-112.973-10.081-1.682-20.429-2.556-30.987-2.556-88.365 0-162.405 61.315-181.915 143.72l4.893 103.477c19.511 57.334 66.093 102.154 124.509 119.224 16.664 4.869 34.276 7.48 52.513 7.48 10.558 0 20.906-.882 30.987-2.563-57.726-9.632-106.495-45.716-133.437-95.367z" fill="#9ea2e3"/><g><path d="m145.163 123.027-20.336 17.707v99.741l28.721 42.996c92.46 25.478 191.243 16.396 278.812-26.875 6.854-19.445 10.589-40.359 10.589-62.144 0-14.221-1.594-28.069-4.602-41.381-23.222-12.232-47.364-21.993-72.056-29.286-25.73-7.6-53.396-5.073-77.445 6.82l-32.856 16.249-31.172-15.416c-25.279-12.502-51.366-16.545-79.655-8.411z" fill="#676fb2"/><path d="m145.164 123.029c-24.324 7.009-48.135 16.401-71.079 28.191-3.286 13.878-5.034 28.35-5.034 43.232 0 21.079 3.494 41.341 9.927 60.245 24.047 12.205 49.038 21.799 74.572 28.774-14.362-26.468-22.526-56.789-22.526-89.019-.001-25.298 5.034-49.416 14.14-71.423z" fill="#4c5699"/></g></g><g><path d="m246.708 243.348c14.541-2.039 29.603.724 42.732 8.304l38.62 22.297c11.086 6.401 17.92 18.232 17.92 31.038v19.93c0 35.992-21.275 67.257-52.073 81.607h-71.897v-147.526z" fill="#70dcba"/><path d="m226.022 304.896v-24.365c0-15.168 7.859-29.206 20.686-37.184-8.378 1.174-16.584 3.938-24.146 8.304l-38.62 22.297c-11.09 6.403-17.92 18.237-17.92 31.038v19.93c0 49.434 40.138 89.981 89.988 89.977 13.555-.001 26.39-3.007 37.897-8.369-39.922-16.586-67.885-56.008-67.885-101.628z" fill="#18c08b"/></g><g><path d="m273 315.228h-29.002v175.721l45.993 13.551v-159.842c0-12.577-6.836-23.551-16.991-29.43z" fill="#d4d4ff"/><path d="m273 315.228c-5.002-2.896-10.805-4.561-17-4.561-18.772 0-33.991 15.218-33.991 33.991v159.842l34-10v-149.842c.001-12.577 6.837-23.551 16.991-29.43z" fill="#9ea2e3"/></g><g><path d="m450.451 194.452c0-107.221-87.231-194.452-194.452-194.452-55.146 0-107.905 23.555-144.752 64.625-2.766 3.083-2.509 7.825.574 10.591 3.083 2.767 7.826 2.509 10.591-.574 34.005-37.903 82.696-59.642 133.587-59.642 79.542 0 147.151 52.026 170.617 123.833-18.79-8.899-38.299-16.362-58.2-22.24-27.515-8.126-56.954-5.538-82.894 7.291l-29.531 14.604-30.701-15.182c-25.66-12.69-54.852-15.347-82.2-7.486-.062.018-.123.036-.184.056-19.465 5.619-38.564 12.747-56.982 21.243 4.671-13.863 11.045-27.162 19.049-39.605 2.241-3.484 1.233-8.125-2.251-10.365-3.483-2.239-8.124-1.233-10.365 2.251-20.154 31.333-30.807 67.661-30.807 105.052 0 74.251 42.025 140.976 107.158 173.76 2.586 5.204 5.6 10.127 9.006 14.729-23.885 15.459-43.034 37.864-54.4 63.93-7.958 18.253-11.994 37.643-11.994 57.63 0 4.142 3.358 7.5 7.5 7.5h103.19c1.539 0 2.969-.465 4.16-1.261l.001.001c18.11-12.073 41.511-12.08 59.627-.022.001.001.003.002.004.002.01.007.02.013.03.019.007.005.015.008.022.013.275.182.565.341.863.487.062.03.123.061.185.089.296.134.6.253.915.348.051.015.102.025.153.039.258.072.522.13.791.174.093.015.186.031.279.043.29.037.584.061.884.063.021 0 .041.004.062.004.005 0 .011-.001.016-.001h103.18c4.143 0 7.5-3.358 7.5-7.5 0-14.634-2.197-29.093-6.53-42.977-1.234-3.954-5.438-6.161-9.394-4.925-3.954 1.234-6.159 5.439-4.925 9.394 3.139 10.059 5.026 20.458 5.634 31.008h-30.586c-.381-28.265-2.926-56.581-7.576-84.479 8.219 8.162 15.357 17.418 21.185 27.549 2.066 3.59 6.65 4.827 10.241 2.761 3.59-2.065 4.826-6.65 2.761-10.241-11.559-20.093-27.744-37.099-47.119-49.628 3.453-4.658 6.481-9.62 9.052-14.828 64.729-32.64 107.026-99.133 107.026-173.681zm-99.398 152.198c1.593-7.023 2.426-14.302 2.426-21.733v-19.93c0-3.833-.514-7.602-1.489-11.219 22.462-5.458 44.512-12.886 65.819-22.158-14.603 30.482-37.641 56.759-66.756 75.04zm-257.692-76.788c22.601 10.109 44.599 17.509 66.887 23.117-2.213 7.63-1.726 11.24-1.726 31.938 0 7.404.825 14.673 2.45 21.759-29.684-18.632-53.056-45.576-67.611-76.814zm63.738 227.138h-30.566c.87-15.262 4.401-30.076 10.531-44.135 6.562-15.05 16.03-28.732 27.648-40.281-4.84 28.995-7.257 55.923-7.613 84.416zm57.41-46.431c-1.055.528-2.104 1.069-3.137 1.64-3.625 2.004-4.939 6.567-2.935 10.191 1.281 2.319 3.611 3.687 6.072 3.851v30.749h-42.408c.428-33.23 3.746-64.316 10.56-99.34 1.637-1.129 3.294-2.229 4.983-3.282 6.117 6.025 13.031 11.224 20.58 15.474-.989 2.103-.996 4.632.214 6.822 1.281 2.319 3.611 3.686 6.071 3.851zm67.983 41.438c-16.957-7.106-36.025-7.106-52.982 0v-31.56c16.926-6.024 36.057-6.024 52.982 0zm0-47.293c-17.156-4.981-35.826-4.981-52.982 0v-29.994c16.926-6.024 36.057-6.024 52.982 0zm0-45.727c-17.156-4.981-35.826-4.981-52.982 0v-29.995c16.925-6.025 36.056-6.024 52.982.001zm0-45.728c-17.156-4.981-35.826-4.981-52.982 0v-8.602c0-14.607 11.884-26.491 26.491-26.491s26.491 11.884 26.491 26.491zm57.385 143.741h-42.385v-30.759c7.458-.499 9.664-10.425 3.136-14.032-1.033-.571-2.081-1.113-3.136-1.64v-30.055c5.307-.355 8.518-5.876 6.295-10.642 7.624-4.277 14.534-9.492 20.618-15.465 1.669 1.041 3.311 2.12 4.929 3.23 6.443 32.405 10.085 66.305 10.543 99.363zm-1.398-172.083c0 29.367-15.49 56.473-40.987 71.277v-21.406c7.325-.49 9.643-10.135 3.365-13.902-.076-.046-.153-.09-.231-.133-1.032-.571-2.08-1.112-3.134-1.639v-14.456c0-22.878-18.613-41.491-41.491-41.491s-41.491 18.613-41.491 41.491v14.456c-1.054.527-2.102 1.069-3.134 1.639-.078.043-.155.087-.231.133l-.002.001c-3.552 2.131-4.702 6.737-2.571 10.289 1.314 2.19 3.57 3.466 5.939 3.624v21.395c-25.017-14.565-40.988-41.541-40.988-71.278v-19.93c0-10.092 5.43-19.497 14.17-24.543l38.62-22.297c18.314-10.573 41.066-10.572 59.378 0l38.62 22.297c8.74 5.046 14.17 14.451 14.17 24.543v19.93zm-6.67-57.463-38.62-22.297c-13.187-7.614-28.21-10.842-42.958-9.702l-36.561-63.325c-2.045-3.539-6.61-4.857-10.25-2.75-3.58 2.07-4.81 6.66-2.74 10.25l33.905 58.725c-5.447 1.631-10.744 3.897-15.774 6.802-41.201 23.787-44.787 24.634-51.755 34.061-28.032-6.805-55.22-16.562-81.728-29.731-5.721-17.565-8.778-36.113-8.778-55.034 0-12.905 1.375-25.671 4.069-38.11 21.311-10.708 43.697-19.5 66.617-26.105.056-.016.112-.033.168-.05 19.98-5.706 41.088-4.92 60.555 2.054l35.601 61.649c2.026 3.521 6.598 4.849 10.24 2.74 3.633-2.088 4.794-6.721 2.74-10.24l-24.966-43.244 21.092 10.431c2.096 1.036 4.554 1.036 6.649 0l32.856-16.249c22.544-11.148 48.112-13.404 71.995-6.35 23.271 6.874 45.987 15.994 67.579 27.117 2.426 11.745 3.704 23.904 3.704 36.357 0 19.58-3.275 38.759-9.388 56.865-25.805 12.481-52.904 22.095-80.623 28.595-3.551-5.01-8.157-9.299-13.629-12.459z"/><path d="m268.8 222.62c3.58-2.07 4.81-6.67 2.74-10.25-2.009-3.488-6.543-4.857-10.24-2.75-3.692 2.156-4.761 6.769-2.74 10.25 2.01 3.491 6.548 4.856 10.24 2.75z"/><path d="m195.93 156.39c3.562-2.059 4.827-6.63 2.74-10.24-2.068-3.58-6.667-4.837-10.24-2.75-3.57 2.052-4.837 6.618-2.75 10.25 2.043 3.52 6.607 4.85 10.25 2.74z"/></g></g></svg>