<svg id="Capa_1" enable-background="new 0 0 512 512" height="512" viewBox="0 0 512 512" width="512" xmlns="http://www.w3.org/2000/svg"><g><g><path d="m482.651 391.237-301.432-30v86.008l92.938 26.387c17.77 5.045 36.153 7.604 54.626 7.604h145.717c16.568 0 30-13.431 30-30v-38.151c0-12.066-9.782-21.848-21.849-21.848z" fill="#30cd9c"/><path d="m104.825 361.237-85.063 30v60c0 16.569 13.431 30 30 30h101.457c16.568 0 30-13.431 30-30v-3.992-23.516c0-15.155 24.716-32.493 24.716-32.493z" fill="#0caf7b"/></g><path d="m279.827 100.764h-27.517l-30 147.967 87.517-30v-88.441c0-16.568-13.431-29.526-30-29.526z" fill="#30cd9c"/><g><path d="m352.756 209.698c-14.364 4.601-26.808 9.033-42.929 9.033h-27.517c-16.568 0-30-13.431-30-30v-88.44l-68.811-30-64.614 30.474v244.989l87.049 45.485h276.716c13.67-19.351 21.76-42.866 21.848-68.303.277-79.523-75.712-137.589-151.742-113.238z" fill="#70dcba"/><path d="m150.5 210.706v-109.942l-57.665-30.474-53.008 30.474v170.41c-19.764 17.969-32.214 43.839-32.326 72.629-.067 17.155 4.405 33.326 12.261 47.435h186.173c-35.855-52.903-55.435-115.704-55.435-180.532z" fill="#30cd9c"/></g><g><path d="m252 60.764c0-16.569-13.431-30-30-30h-71.811-18.784l-22.215 35 22.215 35h18.784 101.811z" fill="#30cd9c"/><path d="m119 68.764v-6c0-17.673 14.327-32 32-32h-111.5c-17.673 0-32 14.327-32 32v6c0 17.673 14.327 32 32 32h111.5c-17.673 0-32-14.327-32-32z" fill="#0caf7b"/></g><g><g><g><ellipse cx="126.443" cy="331.624" fill="#ff8e9e" rx="29.355" ry="23.377"/></g><g><ellipse cx="285.557" cy="331.624" fill="#ff8e9e" rx="29.355" ry="23.377"/></g></g></g><g><path d="m328.306 63.667c-17.501-17.501-46.139-17.501-63.64 0l-35.355 35.355c-17.501 17.501-17.501 46.139 0 63.64 17.501 17.501 46.139 17.501 63.64 0l16.876-16.874 18.479-18.481c17.501-17.502 17.501-46.139 0-63.64z" fill="#4c5699"/><path d="m250.525 141.449c-5.749-5.749-5.749-15.464 0-21.213l35.355-35.356c5.749-5.749 15.464-5.749 21.213 0s5.749 15.464 0 21.213l-35.355 35.355c-5.749 5.75-15.464 5.75-21.213.001z" fill="#9ea2e3"/></g><g fill="#0caf7b"><path d="m322.93 211.428c-4.034-7.235-13.168-9.833-20.405-5.8l-53.827 30c-7.236 4.033-9.833 13.169-5.8 20.405 2.745 4.924 7.852 7.7 13.116 7.7 2.471 0 4.978-.612 7.289-1.9l53.827-30c7.236-4.033 9.833-13.168 5.8-20.405z"/><path d="m324.827 160.787c0-8.284-6.716-15-15-15h-91.791c-8.284 0-15 6.716-15 15s6.716 15 15 15h91.791c8.284 0 15-6.716 15-15z"/></g><g><path d="m494.705 386.337c3.525-6.027 6.558-12.323 9.037-18.824 1.476-3.871-.465-8.204-4.335-9.681-3.873-1.474-8.205.464-9.681 4.335-2.876 7.543-6.587 14.781-11.045 21.569h-454.377c-6.092-12.31-9.304-25.891-9.304-39.551l.001-.353c.094-23.942 9.714-46.983 26.542-63.922l8.234 3.242c3.85 1.517 8.208-.374 9.727-4.23 1.518-3.854-.377-8.209-4.23-9.727l-7.946-3.129v-65.303c0-4.143-3.357-7.5-7.5-7.5s-7.5 3.357-7.5 7.5v67.165c-20.474 19.843-32.215 47.293-32.326 75.816l-.002.441c0 16.983 4.241 33.854 12.262 48.933v58.119c0 20.678 16.822 37.5 37.5 37.5h101.457c18.702 0 34.251-13.764 37.051-31.692l83.838 23.804c18.438 5.234 37.506 7.889 56.675 7.889h145.717c20.678 0 37.5-16.822 37.5-37.5v-38.15c0-11.89-7.109-22.143-17.295-26.751zm2.295 64.899c0 12.406-10.094 22.5-22.5 22.5h-145.718c-17.783 0-35.473-2.462-52.577-7.318l-92.938-26.388c-4.78-1.356-9.549 2.233-9.549 7.215v3.991c0 12.406-10.094 22.5-22.5 22.5h-101.456c-12.406 0-22.5-10.094-22.5-22.5v-52.5h455.368c.004 0 .009.001.013.001s.008-.001.012-.001c7.91.003 14.344 6.439 14.344 14.35v38.15z"/><path d="m32.327 107.599v63.165c0 4.143 3.357 7.5 7.5 7.5s7.5-3.357 7.5-7.5v-62.5h166.405c-4.762 10.029-6.096 21.185-4.251 31.717-8.175 3.374-13.945 11.427-13.945 20.806 0 12.406 10.094 22.5 22.5 22.5h26.774v5.443c0 12.981 6.534 24.466 16.639 31.205l-16.404 9.143c-10.789 6.013-14.781 19.707-8.699 30.606 6.016 10.794 19.706 14.778 30.607 8.7l53.828-30c5.641-3.145 9.579-8.54 10.972-14.712 7.735-1.748 15.002-4.167 23.29-6.832 71.579-22.927 141.957 31.797 141.957 105.661-.01 4.099-.205 8.101-.686 12.437-.457 4.116 2.51 7.824 6.627 8.281.281.031.56.047.836.047 3.771 0 7.02-2.838 7.445-6.674.538-4.846.768-9.402.777-14.091 0-84.338-80.587-145.874-161.532-119.945-7.724 2.486-14.049 4.579-20.514 6.137-2.658-5.341-7.236-9.253-12.626-11.162v-15.534c8.729-3.096 15-11.433 15-21.21 0-7.321-3.517-13.835-8.947-17.946l10.23-10.23c9.88-9.881 15.321-23.016 15.321-36.986 0-21.615-14.017-46.369-45.333-52.945-13.455-2.824-31.381 2.832-41.068 12.517l-3.119 3.119c-1.267-19.54-17.557-35.051-37.411-35.051h-182.5c-21.78 0-39.5 17.72-39.5 39.5v6c0 19.329 13.961 35.449 32.327 38.834zm227.484 81.131v-5.443h42.517v14.243c-1.189.42-2.348.93-3.454 1.547v.001l-21.016 11.713c-10.43-2.07-18.047-11.195-18.047-22.061zm53.668 36.553-53.827 30c-3.691 2.055-8.225.646-10.204-2.904-2.056-3.686-.644-8.222 2.901-10.199l53.827-30v.001c3.644-2.031 8.213-.67 10.202 2.897 2.006 3.602.695 8.201-2.899 10.205zm-3.652-56.996h-91.791c-4.136 0-7.5-3.364-7.5-7.5s3.364-7.5 7.5-7.5h91.791c4.136 0 7.5 3.364 7.5 7.5s-3.364 7.5-7.5 7.5zm-53.999-42.747c0-.001 0-.001 0 0l35.356-35.356c2.824-2.826 7.781-2.825 10.606.002 2.826 2.824 2.822 7.783-.001 10.604l-35.354 35.354c-2.821 2.823-7.779 2.831-10.607 0-2.834-2.832-2.817-7.789 0-10.604zm17.309-59.737c6.058-6.057 18.976-10.205 27.381-8.444 24.663 5.18 33.414 23.851 33.414 38.266 0 9.964-3.881 19.332-10.929 26.38l-16.282 16.283h-21.213l26.89-26.89c8.672-8.674 8.703-23.119 0-31.82-8.71-8.708-23.153-8.67-31.821 0l-35.354 35.354c-6.141 6.14-8.044 15.235-5.256 23.356h-15.54c-2.402-11.984 1.011-24.782 10.188-33.962l22.688-22.688s.001-.001.001-.001zm-258.137-3.039c0-13.51 10.99-24.5 24.5-24.5h182.5c12.406 0 22.5 10.094 22.5 22.5v12.462l-20.037 20.038h-184.963c-13.51 0-24.5-10.99-24.5-24.5z"/><path d="m136.051 297.12v12c0 4.143 3.357 7.5 7.5 7.5s7.5-3.357 7.5-7.5v-12c0-4.143-3.357-7.5-7.5-7.5s-7.5 3.358-7.5 7.5z"/><path d="m260.948 297.12v12c0 4.143 3.357 7.5 7.5 7.5s7.5-3.357 7.5-7.5v-12c0-4.143-3.357-7.5-7.5-7.5s-7.5 3.358-7.5 7.5z"/><path d="m216.81 303.836c-5.725 6.569-15.899 6.564-21.619 0-2.723-3.122-7.46-3.447-10.582-.727-3.123 2.722-3.447 7.46-.727 10.582 11.704 13.429 32.543 13.416 44.236 0 2.721-3.122 2.396-7.86-.727-10.582s-7.86-2.396-10.581.727z"/></g></g></svg>