<svg id="Capa_1" enable-background="new 0 0 512 512" height="512" viewBox="0 0 512 512" width="512" xmlns="http://www.w3.org/2000/svg"><g><g><path d="m150.803 301.356c-14.45-8.878-33.28-4.04-41.703 10.551l-85.213 147.593c-11.547 20 2.887 45 25.981 45 10.718 0 20.622-5.718 25.98-15l84.901-147.053c8.175-14.158 3.983-32.533-9.946-41.091z" fill="#4c5699"/><path d="m162.14 342.529-54.118-31.245c-21.523-12.426-28.898-39.948-16.471-61.471l22.5-38.971 132.06 76.245-22.5 38.971c-12.426 21.523-39.948 28.898-61.471 16.471z" fill="#0caf7b"/></g><path d="m472.867 217.13-13.709-29.618 26.681-18.796c8.482-5.975 8.482-18.55 0-24.526l-26.681-18.795 13.709-29.618c4.358-9.416-1.93-20.306-12.263-21.24l-32.504-2.936-2.937-32.504c-.934-10.333-11.824-16.621-21.24-12.263l-29.618 13.709-18.795-26.681c-5.975-8.482-18.551-8.482-24.526 0l-18.796 26.681-29.618-13.709c-9.416-4.358-20.306 1.93-21.24 12.263l-2.939 32.508 53.846 200.946 18.746 26.495c5.975 8.482 18.55 8.482 24.526 0l18.796-26.681 29.618 13.709c9.416 4.358 20.306-1.93 21.24-12.263l2.937-32.504 32.504-2.937c10.334-.934 16.621-11.824 12.263-21.24z" fill="#ffce71"/><g><path d="m342.481 120.154-84.088-48.549-110.727 22.229v139.921c0 29.985 15.997 57.692 41.965 72.685l33.98 19.619c23.915 13.807 54.494 5.614 68.301-18.301l68.876-119.298c13.808-23.916 5.608-54.499-18.307-68.306z" fill="#70dcba"/><path d="m210.428 43.913c-23.915-13.807-54.494-5.613-68.301 18.301l-68.877 119.298c-13.807 23.915-5.613 54.494 18.301 68.301l98.08 56.626c-23.914-13.807-32.107-44.386-18.301-68.301l68.876-119.298c13.807-23.914 44.385-32.108 68.299-18.302z" fill="#18c08b"/></g><g><g><ellipse cx="156.185" cy="127.832" fill="#ff8e9e" rx="23.878" ry="29.984" transform="matrix(.5 -.866 .866 .5 -32.613 199.176)"/><ellipse cx="296.933" cy="209.093" fill="#ff8e9e" rx="23.878" ry="29.984" transform="matrix(.5 -.866 .866 .5 -32.613 361.699)"/><path d="m252.62 177.457c3.121-5.406 3.189-12.057.164-17.517-3.048-5.502-7.581-10.272-13.426-13.647-5.845-3.374-12.242-4.915-18.531-4.804-6.241.11-11.967 3.494-15.088 8.9l-43.065 74.591c-7.474 12.946-3.039 29.499 9.907 36.974 12.946 7.474 29.499 3.039 36.974-9.907z" fill="#4c5699"/><g fill="#fff"><circle cx="191.662" cy="100.904" r="28.738"/><circle cx="302.515" cy="164.905" r="28.738"/></g></g></g><g><path d="m220.696 133.991c-8.816.155-17.036 5.002-21.452 12.649l-43.064 74.591c-9.553 16.543-3.895 37.666 12.652 47.219 16.509 9.532 37.69 3.851 47.219-12.652l43.065-74.591c4.415-7.646 4.502-17.188.229-24.901-7.741-13.974-22.659-22.599-38.649-22.315zm25.429 39.716-43.065 74.591c-5.395 9.342-17.383 12.557-26.729 7.162-9.367-5.408-12.57-17.362-7.162-26.729l43.064-74.59c1.799-3.115 5.143-5.089 8.727-5.152.166-.003.331-.004.496-.004 10.256 0 19.793 5.611 24.767 14.591 1.737 3.134 1.7 7.017-.098 10.131z"/><path d="m188.036 107.183c3.468 2.002 7.903.814 9.906-2.654 2.002-3.468.814-7.903-2.654-9.905s-7.903-.814-9.906 2.654c-2.002 3.468-.814 7.903 2.654 9.905z"/><path d="m306.141 158.625c-3.468-2.002-7.903-.814-9.906 2.654-2.002 3.468-.814 7.903 2.654 9.905s7.903.814 9.906-2.654c2.002-3.468.814-7.903-2.654-9.905z"/><path d="m490.159 138.06-21.565-15.192 11.081-23.94c6.528-14.107-2.912-30.461-18.395-31.859l-26.273-2.374-2.373-26.272c-1.4-15.482-17.752-24.924-31.86-18.394l-23.938 11.08-15.195-21.567c-4.209-5.975-11.086-9.542-18.394-9.542s-14.185 3.567-18.394 9.542l-15.192 21.566-23.939-11.081c-14.106-6.53-30.459 2.911-31.859 18.394l-1.882 20.821-37.802-21.825c-27.582-15.926-62.749-6.314-78.547 21.046l-68.877 119.299c-5.045 8.739-7.712 18.664-7.712 28.703 0 18.138 8.628 35.172 22.899 45.952-4.36 10.584-5.145 22.24-2.131 33.484 3.083 11.509 9.83 21.402 19.235 28.42l-81.654 141.429c-14.485 25.089 3.747 56.25 32.476 56.25 13.355 0 25.8-7.185 32.476-18.75l23.63-40.929c2.071-3.587.842-8.174-2.745-10.245-3.589-2.072-8.175-.842-10.245 2.745l-23.63 40.929c-4.007 6.939-11.474 11.25-19.486 11.25-17.25 0-28.155-18.732-19.485-33.75l81.463-141.099 38.971 22.5-42.833 74.189c-2.071 3.587-.842 8.174 2.745 10.245 1.182.682 2.471 1.006 3.743 1.006 2.592 0 5.113-1.345 6.502-3.751l43.022-74.516c6.645 2.848 13.633 4.224 20.557 4.223 15.917-.001 31.471-7.241 41.61-20.361 7.079 3.005 14.707 4.578 22.403 4.578 20.503 0 39.602-11.02 49.843-28.758l14.472-25.066 11.974 16.924c8.969 12.732 27.834 12.71 36.789.001l15.192-21.566 23.938 11.081c14.105 6.528 30.46-2.909 31.86-18.394l2.373-26.272 26.273-2.374c15.481-1.4 24.923-17.75 18.395-31.86l-11.081-23.939 21.565-15.192c12.708-8.952 12.71-27.837 0-36.789zm-204.742 165.947c-7.57 13.113-21.691 21.258-36.853 21.258-7.41 0-14.741-1.972-21.203-5.703l-53.554-30.919c-3.589-2.072-8.176-.842-10.245 2.745-2.071 3.587-.842 8.174 2.745 10.245l46.405 26.792c-11.566 13.063-31.141 16.663-46.823 7.609l-54.118-31.245c-8.675-5.008-14.88-13.095-17.473-22.771-1.932-7.214-1.682-14.666.645-21.586l45.382 26.201c3.588 2.07 8.175.842 10.245-2.745 2.071-3.587.842-8.174-2.745-10.245l-52.525-30.325c-13.112-7.571-21.258-21.692-21.258-36.853 0-7.41 1.972-14.742 5.702-21.203l68.876-119.298c11.566-20.03 37.477-27.436 58.057-15.556l132.053 76.241c19.926 11.504 27.501 37.386 15.563 58.06zm196.103-141.422-26.681 18.795c-2.962 2.087-4.009 5.993-2.487 9.282l13.709 29.617c2.182 4.713-.958 10.154-6.131 10.621l-32.505 2.937c-3.609.326-6.469 3.186-6.795 6.795l-2.937 32.504c-.468 5.175-5.905 8.312-10.62 6.131l-29.617-13.709c-3.292-1.525-7.195-.476-9.282 2.487l-18.795 26.682c-2.981 4.23-9.256 4.269-12.272-.013l-15.971-22.573 46.149-79.932c16.133-27.943 5.933-62.969-21.054-78.55l-79.937-46.152 2.507-27.736c.467-5.165 5.894-8.316 10.619-6.131l29.618 13.709c3.287 1.522 7.195.475 9.282-2.487l18.796-26.682c1.424-2.021 3.658-3.18 6.13-3.18 2.473 0 4.708 1.159 6.133 3.181l18.796 26.681c2.087 2.961 5.993 4.009 9.281 2.487l29.617-13.708c4.717-2.182 10.152.959 10.62 6.131l2.937 32.504c.326 3.609 3.186 6.469 6.795 6.795l32.505 2.937c5.173.467 8.313 5.907 6.131 10.619l-13.709 29.618c-1.521 3.289-.475 7.195 2.487 9.282l26.681 18.795c4.251 2.995 4.245 9.272 0 12.263z"/></g></g></svg>