<svg id="Capa_1" enable-background="new 0 0 512 512" height="512" viewBox="0 0 512 512" width="512" xmlns="http://www.w3.org/2000/svg"><g><path d="m126.26 307.849h210v160h-210z" fill="#4c5699"/><g><path d="m183.876 7.5c-40.699 0-76.02 28.248-86.908 67.463-12.478 44.94-37.269 84.756-70.509 115.592-12.156 11.276-18.959 27.181-18.959 43.761v180.184c0 49.706 40.294 90 90 90h13.76c66.274 0 120-53.726 120-120l40-127.651-40-249.349z" fill="#676fb2"/><path d="m436.061 190.555c-33.24-30.836-58.032-70.652-70.509-115.592-10.888-39.215-46.209-67.463-86.908-67.463h-47.384c-14.416 10.524-16.08 33.468 0 45.849v331.151c0 66.274 53.726 120 120 120h13.76c49.706 0 90-40.294 90-90v-180.184c0-16.58-6.803-32.485-18.959-43.761z" fill="#8288cb"/></g><path d="m231.26 128.349 40.858-40.858c12.599-12.599 3.676-34.142-14.142-34.142h-53.432c-17.818 0-26.741 21.543-14.142 34.142z" fill="#4c5699"/><g><g><g><ellipse cx="141.703" cy="183.709" fill="#ff8e9e" rx="29.355" ry="23.377"/></g><g><ellipse cx="320.817" cy="183.709" fill="#ff8e9e" rx="29.355" ry="23.377"/></g></g></g><g><path d="m167.764 404.169-4.011-2.664.952-4.72c1.499-7.431-5.059-13.989-12.49-12.49l-4.72.952-2.664-4.011c-4.195-6.315-13.469-6.315-17.663 0l-2.664 4.011-4.72-.952c-7.431-1.499-13.989 5.059-12.49 12.49l.952 4.72-4.011 2.664c-6.315 4.194-6.315 13.468 0 17.663l4.011 2.664-.952 4.72c-1.499 7.431 5.058 13.989 12.49 12.49l4.72-.952 2.664 4.011c4.194 6.315 13.468 6.315 17.663 0l2.664-4.011 4.72.952c7.431 1.499 13.989-5.058 12.49-12.49l-.952-4.72 4.011-2.664c6.315-4.195 6.315-13.469 0-17.663z" fill="#8288cb"/></g><g><path d="m117.764 234.169-4.011-2.664.952-4.72c1.499-7.431-5.059-13.989-12.49-12.49l-4.72.952-2.664-4.011c-4.195-6.315-13.469-6.315-17.663 0l-2.664 4.011-4.72-.952c-7.431-1.499-13.989 5.058-12.49 12.49l.952 4.72-4.011 2.664c-6.315 4.194-6.315 13.468 0 17.663l4.011 2.664-.952 4.72c-1.499 7.431 5.058 13.989 12.49 12.49l4.72-.952 2.664 4.011c4.194 6.315 13.468 6.315 17.663 0l2.664-4.011 4.72.952c7.431 1.499 13.989-5.058 12.49-12.49l-.952-4.72 4.011-2.664c6.315-4.195 6.315-13.469 0-17.663z" fill="#8288cb"/></g><path d="m391.629 317.591 3.88-19.234c1.838-9.112-6.203-17.152-15.314-15.314l-19.234 3.88-10.857-16.345c-5.143-7.743-16.514-7.743-21.657 0l-10.857 16.345-19.234-3.88c-9.112-1.838-17.152 6.203-15.314 15.314l3.88 19.234-16.345 10.857c-7.743 5.143-7.743 16.514 0 21.657l16.345 10.857-3.88 19.234c-1.838 9.112 6.203 17.152 15.314 15.314l19.234-3.88 10.857 16.345c5.143 7.743 16.514 7.743 21.657 0l10.857-16.345 30.667-30.667 16.345-10.857c7.743-5.143 7.743-16.514 0-21.657z" fill="#efedff"/><g><path d="m321.702 322.894c-11.238 11.871-10.751 30.484.808 42.043h42.426v-42.426c-11.913-11.914-31.574-11.933-43.234.383z" fill="#ff8f71"/><path d="m322.511 364.937 31.599 31.599c5.858 5.858 15.355 5.858 21.213 0l21.213-21.213c5.858-5.858 5.858-15.355 0-21.213l-31.599-31.599z" fill="#ffce71"/></g><g><path d="m31.56 196.053c34.868-32.345 59.985-73.523 72.635-119.083 10.13-36.488 42.897-61.97 79.681-61.97h94.769c36.784 0 69.551 25.482 79.681 61.969 3.401 12.254 7.768 24.357 12.976 35.976 1.694 3.779 6.133 5.469 9.912 3.775s5.47-6.132 3.775-9.912c-4.901-10.932-9.009-22.321-12.21-33.852-11.926-42.955-50.636-72.956-94.134-72.956h-94.769c-43.498 0-82.207 30.001-94.135 72.956-11.906 42.882-35.553 81.646-68.383 112.101-13.573 12.59-21.358 30.545-21.358 49.259v180.184c0 22.032 7.171 42.821 20.737 60.12 1.479 1.887 3.682 2.872 5.906 2.872 1.619 0 3.251-.521 4.623-1.599 3.26-2.556 3.83-7.271 1.273-10.529-11.474-14.633-17.539-32.22-17.539-50.864v-180.184c0-14.554 6.036-28.501 16.56-38.263z"/><path d="m166.312 161.206v-12c0-4.143-3.358-7.5-7.5-7.5-4.143 0-7.5 3.357-7.5 7.5v12c0 4.143 3.357 7.5 7.5 7.5 4.141 0 7.5-3.358 7.5-7.5z"/><path d="m296.209 149.206v12c0 4.143 3.357 7.5 7.5 7.5 4.142 0 7.5-3.357 7.5-7.5v-12c0-4.143-3.358-7.5-7.5-7.5-4.143 0-7.5 3.357-7.5 7.5z"/><path d="m172.1 398.047c2.368-12.537-8.589-23.517-21.146-21.146-7.176-10.524-22.728-10.532-29.906 0-12.523-2.376-23.518 8.584-21.146 21.146-10.524 7.176-10.532 22.728 0 29.906-2.376 12.523 8.584 23.518 21.146 21.146 7.176 10.524 22.728 10.532 29.906 0 12.523 2.376 23.518-8.584 21.146-21.146 10.522-7.175 10.533-22.725 0-29.906zm-12.497 20.202c-5.776 3.839-2.183 10.505-2.183 13.104 0 1.874-1.757 3.392-3.721 3-4.086-.824-9.17-2.69-12.45 2.249l-2.667 4.014c-1.227 1.849-3.935 1.853-5.166-.003-2.575-3.876-4.155-7.36-8.911-7.36-1 0-1.142.079-6.199 1.1-1.959.394-3.727-1.123-3.727-3 0-.501.912-4.839 1.02-5.373.604-2.988-.662-6.043-3.201-7.73l-4.014-2.667c-1.849-1.227-1.853-3.935.003-5.166l4.011-2.665c5.776-3.839 2.183-10.505 2.183-13.104-.001-1.874 1.746-3.395 3.721-3 4.013.81 9.16 2.702 12.45-2.249l2.667-4.014c1.227-1.849 3.935-1.853 5.166.003 2.306 3.47 4.582 8.39 10.396 7.212l4.715-.951c2.125-.43 4.106 1.397 3.659 3.653-.824 4.085-2.694 9.165 2.249 12.45l4.011 2.665c.001 0 .002.001.003.002 1.204.799 1.384 1.96 1.384 2.581-.002 2.065-1.175 2.442-5.399 5.249z"/><circle cx="136" cy="413" r="7.5"/><path d="m71.047 279.1c7.176 10.524 22.728 10.532 29.906 0 12.523 2.376 23.518-8.584 21.146-21.146 10.523-7.175 10.533-22.725 0-29.906 2.368-12.537-8.589-23.517-21.146-21.146-7.176-10.524-22.728-10.532-29.906 0-12.523-2.376-23.518 8.584-21.146 21.146-10.524 7.176-10.532 22.728 0 29.906-2.377 12.522 8.584 23.517 21.146 21.146zm-12.66-38.684c3.464-2.302 8.386-4.584 7.212-10.396-.11-.543-1.019-4.865-1.019-5.374-.001-1.874 1.746-3.393 3.721-3 4.077.822 9.165 2.697 12.45-2.249l2.667-4.014c1.227-1.849 3.935-1.853 5.166.003 2.286 3.44 4.58 8.397 10.396 7.212l4.715-.951c2.121-.426 4.107 1.393 3.659 3.653-.824 4.085-2.694 9.165 2.249 12.45l4.011 2.665c.001 0 .002.001.003.002 1.849 1.227 1.853 3.935-.003 5.166-3.464 2.302-8.386 4.584-7.212 10.396l.951 4.715c.45 2.242-1.517 4.078-3.653 3.659-4.074-.822-9.164-2.696-12.45 2.249l-2.667 4.014c-1.227 1.849-3.935 1.853-5.166-.003-2.378-3.579-4.596-8.39-10.396-7.212l-4.715.951c-2.112.427-4.108-1.388-3.659-3.653.824-4.085 2.694-9.165-2.249-12.45l-4.014-2.667c-1.849-1.227-1.853-3.935.003-5.166z"/><circle cx="86" cy="243" r="7.5"/><path d="m509.803 499.2c-1.41-1.421-3.3-2.2-5.3-2.2s-3.891.779-5.3 2.2c-1.421 1.409-2.2 3.3-2.2 5.3s.779 3.89 2.2 5.3c1.409 1.42 3.3 2.2 5.3 2.2s3.89-.78 5.3-2.2c2.929-2.92 2.929-7.68 0-10.6z"/><path d="m457.116 446.509c3.496-10.031 5.403-20.801 5.403-32.009v-180.184c0-18.714-7.784-36.669-21.357-49.26-16.641-15.438-31.006-33.098-42.697-52.49-2.138-3.547-6.748-4.689-10.295-2.551-3.548 2.139-4.689 6.748-2.551 10.295 12.416 20.597 27.672 39.351 45.342 55.742 10.523 9.763 16.559 23.709 16.559 38.264v180.184c0 6.882-.86 13.564-2.455 19.959l-48.531-48.525 5.307-5.307c5.497-5.498 7.865-13.438 5.899-21.362l4.386-2.913c12.206-8.111 12.196-26.051-.001-34.152l-12.146-8.067 2.884-14.292c2.918-14.456-9.827-27.045-24.149-24.149l-14.292 2.884-8.067-12.147c-8.111-12.206-26.051-12.196-34.152.001l-8.067 12.146-14.292-2.884c-14.45-2.917-27.054 9.834-24.149 24.149l2.884 14.292-12.147 8.067c-12.206 8.111-12.196 26.051.001 34.152l12.146 8.067-2.884 14.292c-2.918 14.456 9.827 27.045 24.149 24.149l14.292-2.884 8.067 12.147c3.81 5.733 10.193 9.156 17.076 9.156 12.247 0 17.099-9.189 19.989-13.542 7.89 1.957 15.842-.381 21.361-5.899l5.307-5.307 53.519 53.525c-13.309 27.742-41.67 46.944-74.435 46.944h-13.76c-62.033 0-112.5-50.467-112.5-112.5v-253.893l38.662-38.662c17.326-17.328 5.074-46.945-19.446-46.945h-53.432c-24.498 0-36.786 29.603-19.445 46.946l38.661 38.661v253.893c0 62.032-50.467 112.5-112.5 112.5h-13.76c-15.948 0-31.42-4.556-44.743-13.174-3.475-2.248-8.12-1.254-10.371 2.225-2.249 3.478-1.254 8.121 2.225 10.371 15.755 10.191 34.044 15.578 52.889 15.578h13.76c38.632 0 73.303-17.274 96.704-44.5h46.593c23.401 27.226 58.071 44.5 96.704 44.5h13.76c36.855 0 68.997-20.556 85.569-50.804l27.391 27.394c2.929 2.929 7.666 2.944 10.61 0 2.92-2.93 2.92-7.68 0-10.61zm-122.421-42.684-10.857-16.346c-1.687-2.539-4.741-3.812-7.73-3.202l-19.233 3.881c-3.747.753-7.27-2.537-6.479-6.479l3.881-19.233c.604-2.988-.663-6.044-3.202-7.73l-16.346-10.856c-3.275-2.176-3.274-6.988 0-9.163l16.346-10.857c2.539-1.687 3.806-4.742 3.202-7.73-4.083-20.238-3.997-19.458-3.997-20.369 0-3.231 3.023-6.06 6.596-5.344l19.233 3.881c2.99.606 6.045-.662 7.73-3.202l10.856-16.346c2.176-3.275 6.988-3.274 9.163 0l10.857 16.346c1.687 2.54 4.741 3.811 7.73 3.202l19.233-3.881c3.751-.748 7.27 2.535 6.479 6.479l-3.881 19.233c-.604 2.988.663 6.044 3.202 7.73l16.346 10.856c3.275 2.176 3.274 6.988 0 9.163l-4.167 2.767-29.417-29.417c-14.774-14.774-39.274-15.008-53.985.531-13.883 14.666-13.652 37.897.951 52.502l29.418 29.417-2.767 4.167c-2.174 3.275-6.987 3.274-9.162 0zm-11.312-50.366c-4.054-8.242-2.848-18.422 3.766-25.408 7.062-7.457 17.871-8.733 26.293-4.65zm36.03 37.773-26.295-26.295 31.819-31.819 26.295 26.295c2.913 2.913 2.948 7.658 0 10.606l-21.213 21.213c-2.933 2.936-7.683 2.924-10.606 0zm-154.869-331.232h53.432c11.163 0 16.751 13.427 8.839 21.339l-35.555 35.555-35.554-35.555c-7.893-7.893-2.352-21.339 8.838-21.339zm14.521 392.5c4.924-7.778 9.029-16.123 12.195-24.913 3.166 8.79 7.271 17.134 12.195 24.913z"/></g></g></svg>