<svg id="Capa_1" enable-background="new 0 0 512 512" height="512" viewBox="0 0 512 512" width="512" xmlns="http://www.w3.org/2000/svg"><g><g><path d="m136.29 452.517c-6.95 15.938-10.818 33.515-10.818 51.983h54.293l.003-105.88c-18.67 13.477-33.9 31.93-43.478 53.897z" fill="#fc8a3d"/><path d="m375.71 452.515c-9.334-21.407-24.149-38.934-43.257-52.73l-.235 104.715h54.31c0-18.469-3.868-36.047-10.818-51.985z" fill="#ffb357"/></g><g><path d="m332.453 399.785c-9.79-7.068-20.889-14.033-32.589-18.221-4.992-1.788-10.111-3.275-15.351-4.448l-82.495 30.139v97.245h140.98v-.015c.001-34.361-3.843-70.999-10.545-104.7z" fill="#ffce71"/><path d="m255.999 373.97c-15.397 0-30.176 2.686-43.879 7.595-11.649 4.174-22.518 9.956-32.352 17.054-.003.002.003-.002 0 0-6.845 34.413-10.784 67.679-10.784 105.88h10.781 22.253c.064-56.718 33.907-105.522 82.495-127.379-9.218-2.062-18.774-3.15-28.514-3.15z" fill="#ffb357"/></g><path d="m256 357.964-43.88 23.602c7.706 20.209 23.115 36.215 43.88 47.318 20.764-11.103 36.158-27.112 43.864-47.319z" fill="#ffb357"/><path d="m256 357.964v146.536" fill="#18c08b" stroke="#009d6b" stroke-miterlimit="10" stroke-width="15"/><g><path d="m125.472 166.326v118.168l101.277 97.063h73.102c64.977-18.947 112.61-78.919 112.61-150.215 0-23.2-5.055-45.216-14.113-65.016z" fill="#ffb357"/><path d="m233.848 332.032c-34.06-37.955-53.991-87.664-54.32-140.509-.053-8.486.409-16.896 1.348-25.197h-67.224c-9.059 19.801-14.112 41.818-14.112 65.016 0 86.397 70.043 156.46 156.46 156.46 15.217 0 29.931-2.185 43.852-6.245-25.495-12.255-47.772-29.208-66.004-49.525z" fill="#fc8a3d"/></g><g><path d="m179.096 166.326.382 146.094 54.37 19.611c5.948-5.121 13.685-8.222 22.151-8.222 17.226 0 31.449 12.816 33.679 29.432 53.434-14.78 92.783-63.827 92.783-121.899 0-23.759-6.591-46.006-18.033-65.016z" fill="#ffddcf"/><path d="m180.875 166.326h-33.292c-11.444 19.011-18.044 41.255-18.044 65.016 0 58.071 39.348 107.118 92.78 121.899 1.134-8.449 5.373-15.911 11.528-21.21-34.06-37.955-53.991-87.664-54.32-140.509-.052-8.485.41-16.895 1.348-25.196z" fill="#ffcbbe"/></g><g><path d="m425.481 135.84c-6.016-4.086-9.613-10.81-10.282-18.051-1.232-13.331-5.964-26.372-14.272-37.518-28.407-38.111-71.341-64.332-120.1-71.053h-30.748l-71.205 71.678.694 104.979c9.752-5.669 20.941-8.779 32.507-8.779h87.964c19.843 0 38.588 9.107 50.852 24.707l42.025 53.456c23.035 29.3 69.225 12.562 69.225-23.916v-26.597c0-26.171-12.398-52.369-36.66-68.906z" fill="#ffce71"/><path d="m280.826 9.218c-8.129-1.121-16.414-1.718-24.827-1.718-59.248 0-111.915 28.665-144.885 72.851-8.166 10.944-13.014 23.948-14.267 37.47-.676 7.289-4.31 14.039-10.489 18.158-21.219 14.154-36.499 39.627-36.499 68.802v25.794c0 37.627 46.8 53.828 69.565 24.704l41.686-53.332c5.137-6.572 11.424-11.983 18.457-16.071 1.47-72.561 39.902-139.041 101.259-176.658z" fill="#ffb357"/></g><g><path d="m190.405 274.51c4.142 0 7.5-3.357 7.5-7.5v-12c0-4.143-3.358-7.5-7.5-7.5s-7.5 3.357-7.5 7.5v12c0 4.142 3.358 7.5 7.5 7.5z"/><path d="m278.948 271.864c2.721-3.123 2.396-7.86-.727-10.582-3.124-2.722-7.86-2.396-10.582.727-6.167 7.076-17.12 7.067-23.279 0-2.721-3.121-7.458-3.448-10.582-.727-3.123 2.722-3.448 7.459-.727 10.582 12.146 13.935 33.765 13.92 45.897 0z"/><path d="m310.006 274.175c4.142 0 7.5-3.357 7.5-7.5 0-3.532 2.874-6.406 6.406-6.406 3.533 0 6.407 2.874 6.407 6.406 0 4.143 3.357 7.5 7.5 7.5s7.5-3.357 7.5-7.5c0-11.804-9.604-21.406-21.407-21.406s-21.406 9.603-21.406 21.406c0 4.142 3.358 7.5 7.5 7.5z"/><path d="m429.694 129.635c-3.979-2.702-6.54-7.271-7.027-12.536-1.396-15.094-6.834-29.379-15.727-41.31-35.471-47.588-91.396-75.789-150.941-75.789-61.906 0-116.689 30.022-150.896 75.865-8.889 11.914-14.326 26.183-15.724 41.263-.492 5.299-3.109 9.895-7.182 12.611-5.761 3.843-11.11 8.437-15.898 13.655-2.8 3.052-2.596 7.796.456 10.597 3.053 2.801 7.797 2.597 10.597-.456 3.976-4.333 8.407-8.141 13.168-11.316 7.856-5.238 12.885-13.878 13.796-23.706 1.143-12.331 5.572-23.977 12.81-33.677 32.628-43.729 84.543-69.836 138.873-69.836 54.428 0 106.359 26.076 138.914 69.753 7.244 9.718 11.677 21.38 12.818 33.727.901 9.746 5.835 18.334 13.525 23.557 20.904 14.249 33.385 37.691 33.385 62.709v26.597c0 29.469-37.224 42.945-55.829 19.28-4.769-6.064-37.472-47.663-42.024-53.455-13.775-17.522-34.459-27.572-56.749-27.572h-87.964c-21.929 0-43.074 10.076-56.874 27.731l-41.686 53.332c-18.444 23.599-56.156 10.271-56.156-20.085v-25.794c0-9.729 1.85-19.241 5.497-28.271 1.551-3.84-.304-8.211-4.145-9.763-3.839-1.554-8.211.304-9.763 4.146-4.372 10.821-6.588 22.224-6.589 33.888v25.794c0 32.459 29.33 51.621 56.086 46.228 13.213 45.741 46.602 85.568 93.53 105.451-45.045 23.695-74.003 70.456-74.003 122.247 0 4.143 3.358 7.5 7.5 7.5h261.056c4.143 0 7.5-3.357 7.5-7.5 0-13.722-2.026-27.29-6.022-40.329-1.214-3.96-5.41-6.186-9.369-4.973-3.96 1.214-6.187 5.408-4.973 9.369 2.83 9.232 4.551 18.766 5.137 28.433h-28.365c-.391-25.417-2.758-51.984-6.946-78.139 7.406 7.286 13.715 15.289 18.841 23.938 2.117 3.57 6.722 4.735 10.276 2.628 3.563-2.112 4.739-6.713 2.628-10.276-13.353-22.526-33.018-39.852-55.728-52.689 47.228-19.827 80.824-59.767 94.074-105.721 26.429 5.561 56.06-13.128 56.06-45.397v-26.597c0-29.983-14.93-58.059-39.947-75.112zm-262.675 76.929c10.899-13.944 27.65-21.969 45.055-21.969h87.964c17.658 0 34.044 7.961 44.956 21.842 2.972 3.781 17.941 22.822 29.304 37.275-4.766 45.819-35.951 84.936-79.274 100.01-13.187-36.443-64.873-36.42-78.052-.001-43.191-15.035-74.363-54.025-79.24-99.688zm19.533 196.47c6.805-4.672 14.033-8.636 21.585-11.842 8.249 17.014 22.032 31.411 40.363 42.087v63.721h-71.96c.426-31.41 3.574-60.834 10.012-93.966zm76.948-7.91c7.536-.349 15.022-1.225 22.405-2.603-5.621 8.679-13.164 16.406-22.405 22.937zm-15 20.335c-9.249-6.533-16.796-14.26-22.419-22.938 7.386 1.377 14.877 2.253 22.419 2.602zm-79.894 2.556c-4.476 27.1-6.717 52.331-7.068 78.985h-28.341c1.755-29.216 14.043-57.398 35.409-78.985zm94.894 78.985v-63.72c18.292-10.655 32.058-25.026 40.312-42.014 6.709 3.051 13.826 7.252 21.845 12.887 5.944 30.78 9.298 62.654 9.777 92.847zm-7.501-116.697c-67.151 0-125.588-44.217-143.516-108.948 4.751-2.86 9.039-6.636 12.699-11.274 10.553 47.861 47.013 87.078 95.138 100.39 4.394 1.214 8.83-1.738 9.433-6.231 1.754-13.071 13.037-22.929 26.246-22.929 13.208 0 24.492 9.857 26.246 22.93.603 4.493 5.041 7.443 9.433 6.23 48.277-13.354 84.768-52.709 95.216-100.737.039.05.091.115.127.161 3.631 4.619 7.874 8.388 12.56 11.265-17.786 64.581-76.056 109.143-143.582 109.143z"/><g><path d="m132.855 189.38c-3.264-2.551-3.841-7.265-1.291-10.528 19.58-25.05 49.508-39.256 80.51-39.256h87.964c31.553 0 60.833 14.227 80.333 39.031 2.56 3.256 1.996 7.971-1.261 10.531-3.256 2.56-7.971 1.995-10.531-1.262-16.638-21.163-41.62-33.301-68.541-33.301h-87.964c-26.443 0-51.985 12.121-68.691 33.494-2.554 3.267-7.27 3.839-10.528 1.291z"/></g></g></g></svg>