<svg id="Capa_1" enable-background="new 0 0 512 512" height="512" viewBox="0 0 512 512" width="512" xmlns="http://www.w3.org/2000/svg"><g><g><path d="m399.345 287.077.001-.001z" fill="#d6948c"/><g><path d="m503.98 72.973h-202.969v214.102h98.333.002c44.345-44.293 98.772-141.934 104.634-214.102z" fill="#e8b5b1"/></g><g><path d="m501.172 33.22c-2.956-10.849-11.501-19.4-22.349-22.366-70.636-19.322-200.385 48.844-253.807 102.203v75.86h75.995l54.427-54.422c39.396-39.391 92.827-61.522 148.541-61.522 1.177-14.489.407-27.956-2.807-39.753z" fill="#d6948c"/></g></g><g><g><path d="m399.335 287.086c-2.835-2.83-64.306-64.208-98.321-98.172-11.654-11.636-20.085-20.055-21.831-21.798h-50.011l-123.83 123.688v157.249h93.308l.011-.011.012.012c19.393 19.369 50.835 19.369 70.227-.001l130.416-130.246c8.497-8.485 8.517-22.235.019-30.721z" fill="#ffce71"/></g><path d="m225.007 113.025c-8.482-8.469-22.222-8.468-30.704.002l-130.456 130.286c-19.392 19.37-19.393 50.774 0 70.143-13.147-13.131-34.599-12.909-47.466.665-12.402 13.084-11.621 33.842 1.134 46.582l134.34 134.113c6.465 6.457 14.935 9.685 23.41 9.685 8.688 0 17.378-3.396 23.9-10.187 12.395-12.904 11.858-33.425-.514-46.26l.023.001-28.259-28.225c-38.541-38.496-41.556-102.568-.122-143.947l56.183-56.119c19.776-19.753 46.586-30.849 74.538-30.849-8.996-8.983-66.933-66.83-76.007-75.89z" fill="#ffb357"/></g><g fill="#ff8e9e"><path d="m148.988 208.988c-9.129 9.129-7.237 25.823 4.227 37.287 11.464 11.463 28.158 13.355 37.287 4.227 9.129-9.129 7.237-25.823-4.227-37.286-11.464-11.464-28.158-13.357-37.287-4.228z"/><path d="m298.785 325.726c-11.464-11.464-28.158-13.356-37.287-4.228-9.129 9.13-7.237 25.823 4.227 37.287s28.158 13.356 37.287 4.227 7.237-25.823-4.227-37.286z"/></g><g><path d="m508.409 31.248c-3.647-13.384-14.228-23.971-27.609-27.629-8.78-2.401-18.671-3.619-29.398-3.619-34.421 0-79.249 12.755-126.226 35.916-38.952 19.204-76.074 44.03-100.783 67.268-11.19-6.55-25.844-5.04-35.433 4.537l-130.476 130.285c-15.898 15.877-20.434 38.672-13.827 58.484-12.491-1.299-24.879 3.072-33.788 12.471-14.976 15.797-14.403 41.389 1.278 57.05l134.358 134.111c7.671 7.66 17.868 11.878 28.713 11.878 11.165 0 21.575-4.437 29.314-12.491 8.609-8.962 12.249-20.874 10.95-32.428 19.93 6.674 42.84 2.104 58.686-13.722l130.434-130.244c9.705-9.69 11.115-24.337 4.59-35.436 20.287-21.533 41.877-52.746 59.927-86.774 1.941-3.659.548-8.198-3.113-10.14-3.662-1.942-8.2-.548-10.141 3.112-17.174 32.377-37.538 61.982-56.647 82.507l-163.516-163.241c50.852-47.381 150.772-98.143 215.7-98.143 9.39 0 17.949 1.039 25.44 3.088 8.285 2.265 14.835 8.818 17.092 17.103 2.033 7.465 3.064 16.009 3.064 25.395 0 34.768-13.754 75.085-28.101 106.773-1.708 3.773-.033 8.217 3.741 9.926 3.767 1.705 8.216.039 9.927-3.74 15.372-33.953 29.435-76.04 29.435-112.96 0-10.717-1.208-20.586-3.591-29.337zm-114.409 281.253-130.434 130.245c-16.441 16.421-43.193 16.419-59.635.002-.018-.019-.039-.034-.057-.053l-113.552-113.355c-2.972-2.951-7.704-2.897-10.611.01-2.921 2.93-2.921 7.69.01 10.61l113.405 113.199c.029.031.051.067.081.099 9.653 10.015 9.88 26.102.504 35.86-10.011 10.423-26.499 10.482-36.607.39l-134.357-134.112c-9.978-9.966-10.423-26.167-.99-36.117 9.78-10.316 26.373-10.857 36.728-.518 2.932 2.928 7.681 2.925 10.608-.007 2.928-2.931 2.925-7.68-.006-10.606-16.474-16.451-16.475-43.075 0-59.529l130.473-130.285c5.51-5.503 14.451-5.532 20.004-.095.037.038.068.079.106.117.074.074.154.138.23.208l174.121 173.829c5.567 5.559 5.55 14.546-.021 20.108z"/><path d="m200.894 212.141-8.487 8.485c-2.93 2.93-2.93 7.678 0 10.607s7.679 2.928 10.608 0l8.487-8.485c2.93-2.93 2.93-7.678 0-10.607-2.929-2.928-7.679-2.928-10.608 0z"/><path d="m291.344 319.549 8.486-8.485c2.93-2.929 2.929-7.678 0-10.606s-7.679-2.929-10.608.001l-8.486 8.485c-2.93 2.929-2.929 7.678 0 10.606 2.929 2.929 7.678 2.929 10.608-.001z"/><path d="m254.285 288.96c4.133-.283 7.254-3.863 6.97-7.996-.284-4.132-3.871-7.244-7.997-6.969-8.754.576-15.885-6.635-15.29-15.288.284-4.132-2.836-7.712-6.97-7.996-4.123-.271-7.713 2.836-7.997 6.969-1.219 17.747 13.492 32.493 31.284 31.28z"/></g></g></svg>