<svg id="Capa_1" enable-background="new 0 0 512 512" height="512" viewBox="0 0 512 512" width="512" xmlns="http://www.w3.org/2000/svg"><g><path d="m481.495 268.2c-13.966-13.966-43.47-22.082-75.499-24.353-.064-32.672-5.362-61.073-21.073-77.713-16.149-17.105-50.638-21.714-88.662-20.477l-18.676 18.683v182.253l18.676 18.674h172.598c11.635 0 21.385-8.866 22.409-20.456 2.764-31.3 2.29-64.548-9.773-76.611z" fill="#0caf7b"/><path d="m355.841 253.936h-22.256c-4.418 0-8-3.582-8-8v-46.22c0-4.806 4.214-8.534 8.983-7.941 9.936 1.236 15.604 3.083 18.507 4.33 1.667.716 3.035 1.96 3.898 3.556 2.307 4.267 6.044 24.385 6.862 45.941.173 4.545-3.446 8.334-7.994 8.334z" fill="#7ce3ff"/><path d="m353.075 196.105c-2.903-1.248-8.571-3.094-18.507-4.33-4.769-.593-8.983 3.136-8.983 7.941v46.22c0 4.418 3.582 8 8 8h22.256c4.548 0 8.167-3.789 7.994-8.333-.818-21.556-4.555-41.674-6.862-45.941-.863-1.597-2.231-2.841-3.898-3.557z" fill="#7ce3ff"/><g><path d="m271.261 86.733h-88.058l-48.998 28.864v249.671h162.056v-253.535c0-13.807-11.193-25-25-25z" fill="#30cd9c"/><path d="m153.999 274.852c-1.936-7.247-2.975-14.9-2.975-22.944v-94.814c0-14.344 3.253-27.926 9.053-40.058 5.565-11.643 13.475-21.951 23.126-30.303h-137.179c-13.807 0-25 11.193-25 25v228.536c0 13.807 11.193 25 25 25h137.179v-44.071c-13.95-12.727-24.377-28.27-29.204-46.346z" fill="#0caf7b"/></g><g><path d="m160.077 117.036c42.859.768 77.566 35.744 77.566 78.964 0 43.629-35.37 79-79 79-1.56 0-3.106-.058-4.644-.148l-12.357-12.357v-133.365z" fill="#0caf7b"/><path d="m151.024 240.094v-82.999c0-3.057.156-6.077.445-9.057 1.066-11.007 4.044-21.454 8.607-31.001-.479-.009-.953-.036-1.434-.036-43.631 0-79 35.368-79 79 0 42.265 33.137 76.446 74.356 78.852-1.936-7.247-2.975-14.9-2.975-22.944v-11.815z" fill="#009d6b"/></g><g><path d="m196.445 172.454-16.474-2.407-7.367-15.013c-4.114-8.383-13.876-10.737-21.135-6.997l-4.575 7.575v80.352l4.13 4.13 7.619-4.028c13.315 7.04 8.931 4.722 14.734 7.79 11.422 6.039 24.772-3.715 22.591-16.507l-2.814-16.501 11.92-11.685c9.241-9.059 4.142-24.843-8.629-26.709z" fill="#fce3a0"/><path d="m151.469 148.037c-2.785 1.435-5.202 3.763-6.789 6.997l-7.367 15.013-16.474 2.407c-12.771 1.867-17.87 17.65-8.629 26.709l11.92 11.685-2.813 16.501c-2.182 12.791 11.168 22.546 22.591 16.507l7.116-3.762v-82.999c0-3.058.156-6.077.445-9.058z" fill="#ffce71"/></g><g fill="#d4d4ff"><path d="m492.5 305.267h-18.048c-6.6 0-12 5.4-12 12v36c0 6.6 5.4 12 12 12h18.048c6.6 0 12-5.4 12-12v-36c0-6.6-5.4-12-12-12z"/><path d="m47.548 315.267h-28.048c-6.6 0-12 5.4-12 12v36c0 6.6 5.4 12 12 12h28.048c6.6 0 12-5.4 12-12v-36c0-6.6-5.4-12-12-12z"/><path d="m398.517 201.186c-4.125 0-7.5 3.375-7.5 7.5v55c0 4.125 3.375 7.5 7.5 7.5 12.375 0 22.5-10.125 22.5-22.5v-25c0-12.375-10.125-22.5-22.5-22.5z"/></g><g><path d="m183.203 321.198c-5.278-4.874-11.433-8.812-18.201-11.553h-40v111.244h40c21.985-8.903 37.5-30.444 37.5-55.622 0-17.427-7.433-33.112-19.299-44.069z" fill="#676fb2"/><path d="m127.502 365.267c0 25.178 15.515 46.719 37.5 55.622-6.95 2.814-14.541 4.378-22.5 4.378-33.137 0-60-26.863-60-60s26.863-60 60-60c7.959 0 15.55 1.563 22.5 4.378-21.985 8.902-37.5 30.444-37.5 55.622z" fill="#4c5699"/><circle cx="142.499" cy="365.269" fill="#d4d4ff" r="15"/></g><g><path d="m471.687 321.198c-5.278-4.874-11.433-8.812-18.201-11.553h-40v111.244h40c21.985-8.903 37.5-30.444 37.5-55.622 0-17.427-7.433-33.112-19.299-44.069z" fill="#676fb2"/><path d="m415.986 365.267c0 25.178 15.515 46.719 37.5 55.622-6.95 2.814-14.541 4.378-22.5 4.378-33.137 0-60-26.863-60-60s26.863-60 60-60c7.959 0 15.55 1.563 22.5 4.378-21.985 8.902-37.5 30.444-37.5 55.622z" fill="#4c5699"/><circle cx="430.983" cy="365.269" fill="#d4d4ff" r="15"/></g><g><path d="m158.643 282.5c47.696 0 86.5-38.804 86.5-86.5s-38.804-86.5-86.5-86.5-86.5 38.804-86.5 86.5 38.803 86.5 86.5 86.5zm0-158c39.425 0 71.5 32.075 71.5 71.5s-32.075 71.5-71.5 71.5-71.5-32.075-71.5-71.5 32.075-71.5 71.5-71.5z"/><path d="m113.923 222.088c-3.23 18.937 16.613 33.321 33.491 24.398l11.229-5.937 11.229 5.937c16.906 8.941 36.717-5.477 33.49-24.398l-2.154-12.631 9.117-8.938c13.679-13.409 6.086-36.727-12.794-39.486l-12.565-1.836-5.628-11.467c-8.448-17.212-32.942-17.213-41.391 0l-5.627 11.467-12.563 1.836c-18.876 2.759-26.476 26.077-12.796 39.486l9.118 8.938zm8.002-46.213 16.473-2.407c2.446-.358 4.559-1.898 5.648-4.117l7.366-15.013c2.97-6.05 11.497-6.038 14.459 0l7.367 15.013c1.09 2.219 3.202 3.759 5.648 4.117l16.474 2.408h.001c6.642.97 9.287 9.203 4.463 13.932l-11.92 11.686c-1.756 1.721-2.557 4.193-2.144 6.616l2.813 16.5c1.142 6.69-5.774 11.747-11.691 8.616l-14.734-7.791c-2.193-1.159-4.818-1.159-7.012 0l-14.734 7.791c-5.908 3.127-12.837-1.917-11.692-8.615l2.814-16.5c.413-2.424-.388-4.896-2.144-6.617l-11.921-11.686c-4.842-4.748-2.154-12.966 4.466-13.933z"/><path d="m499.438 299.065c-1.562-17.362-5.71-29.239-12.64-36.168-11.229-11.229-31.779-19.654-58.28-23.988v-15.222c0-12.922-8.481-24.342-20.413-28.412-10.994-41.266-36.948-53.577-81.328-56.674-4.132-.277-7.716 2.827-8.004 6.96-.289 4.132 2.827 7.715 6.959 8.004 46.269 3.229 59.112 17.298 66.685 41.432-5.237 2.343-8.9 7.593-8.9 13.691v55c0 8.271 6.729 15 15 15 14.715 0 26.98-10.652 29.512-24.648 22.191 3.857 39.502 10.806 48.162 19.466 2.38 2.379 6.287 8.586 8.046 24.263h-9.786c-5.715 0-10.936 2.477-14.539 6.525-8.773-4.179-18.58-6.525-28.926-6.525-34.684 0-63.329 26.298-67.073 60h-60.152v-211.961c.001-.051.007-.1.007-.152 0-.046-.006-.09-.007-.135v-33.788c0-17.92-14.579-32.5-32.499-32.5h-225.239c-17.921 0-32.5 14.58-32.5 32.5v150.671c0 4.142 3.357 7.5 7.5 7.5s7.5-3.358 7.5-7.5v-150.671c0-9.649 7.851-17.5 17.5-17.5h225.238c9.649 0 17.499 7.851 17.499 17.5v246.036h-79.191c-1.806-16.017-9.33-31.049-21.278-42.082-12.26-11.323-28.461-17.921-45.789-17.921-34.684 0-63.329 26.298-67.073 60.002h-8.38v-30.502c0-10.752-8.748-19.5-19.5-19.5h-19.026v-15.362c0-4.142-3.357-7.5-7.5-7.5s-7.5 3.358-7.5 7.5v16.308c-7.835 2.531-13.523 9.887-13.523 18.555v36c0 10.752 8.748 19.5 19.5 19.5h28.049c7.25 0 13.653-3.959 17.011-9.998h10.87c3.746 33.7 32.391 59.998 67.073 59.998 33.972 0 63.277-25.383 67.086-59.998 12.856 0 147.729-.002 154.325-.002 3.744 33.702 32.39 60 67.073 60 34.973 0 63.814-26.737 67.169-60.843 8.002-2.43 13.845-9.871 13.845-18.657v-36c-.001-8.307-5.231-15.397-12.563-18.202zm-85.92-50.378c0 8.271-6.729 15-15 15l-.002-55h.002c8.352 0 15 6.911 15 15zm-361.469 114.58c0 .194-.026.447-.076.745-.364 2.141-2.267 3.755-4.424 3.755h-28.049c-2.439 0-4.5-2.061-4.5-4.5v-36c0-2.439 2.061-4.5 4.5-4.5h28.049c2.439 0 4.5 2.061 4.5 4.5zm90.453 54.5c-28.947 0-52.498-23.55-52.5-52.5 0-28.949 23.552-52.5 52.5-52.5 12.9 0 25.646 4.738 35.613 13.941 10.731 9.91 16.887 23.964 16.887 38.561-.001 29.592-24.017 52.498-52.5 52.498zm331.949-105h18.049c2.439 0 4.5 2.061 4.5 4.5v33.927c-3.266-15.333-11.749-28.751-23.5-38.307.31-.071.626-.12.951-.12zm-43.465 105c-28.948 0-52.5-23.551-52.5-52.5s23.552-52.5 52.5-52.5 52.5 23.551 52.5 52.5-23.551 52.5-52.5 52.5z"/><path d="m153.749 345.783c-10.77-6.219-24.536-2.501-30.735 8.236-6.172 10.692-2.558 24.504 8.235 30.735 10.76 6.213 24.523 2.523 30.735-8.235 6.204-10.745 2.509-24.533-8.235-30.736zm-4.755 23.236c-1.847 3.197-5.715 4.531-9.094 3.279-4.447-1.65-6.169-6.84-3.896-10.779 2.063-3.572 6.658-4.817 10.245-2.746 3.581 2.068 4.813 6.665 2.745 10.246z"/><path d="m442.233 345.783c-10.742-6.202-24.531-2.509-30.736 8.236-8.667 15.014 2.289 33.754 19.438 33.754 23.032 0 31.142-30.533 11.298-41.99zm-4.754 23.236c-2.091 3.62-6.711 4.784-10.245 2.745-3.581-2.068-4.813-6.664-2.746-10.245 2.068-3.583 6.666-4.814 10.246-2.746s4.812 6.665 2.745 10.246z"/><path d="m333.585 261.436h22.256c8.906 0 15.82-7.428 15.488-16.117-.771-20.33-4.324-42.873-7.76-49.226-1.655-3.058-4.329-5.501-7.533-6.878-3.477-1.494-9.862-3.554-20.542-4.882-4.401-.546-8.839.824-12.168 3.765-3.331 2.942-5.241 7.177-5.241 11.619v46.22c0 8.545 6.953 15.499 15.5 15.499zm-.5-61.72c0-.311.277-.54.558-.499 9.403 1.169 14.356 2.869 16.47 3.777.12.051.206.128.245.2 1.414 2.873 5.155 20.862 5.983 42.693.01.303-.211.548-.5.548h-22.256c-.275 0-.5-.224-.5-.5z"/></g></g></svg>