<svg id="Capa_1" enable-background="new 0 0 512 512" height="512" viewBox="0 0 512 512" width="512" xmlns="http://www.w3.org/2000/svg"><g><g><g><path d="m389.394 504.5c0-60.817-40.893-113.005-97.618-129.095h-59.014l-38.563 38.563v90.532z" fill="#30cd9c"/></g><path d="m291.776 375.405c-11.624-3.298-23.883-5.072-36.549-5.072-15.818 0-31.001 2.755-45.107 7.809-51.847 18.577-89.058 68.223-89.058 126.359h73.137c0-22.853 5.779-44.405 15.932-63.287-.006-.003-.012-.005-.018-.008 17.019-31.662 46.383-55.786 81.663-65.801z" fill="#18c08b"/></g><g><path d="m186.178 376.538c-9.244 4.218-15.17 13.441-15.17 23.601v.028 33.297c0 13.019 7.6 24.84 19.444 30.245l64.775 29.556v-148.234c-14.756 6.734-47.457 21.655-69.049 31.507z" fill="#30cd9c"/><path d="m324.275 376.536c-22.186-10.123-56.155-25.622-69.047-31.504v148.233l64.775-29.556c11.845-5.404 19.444-17.225 19.444-30.245v-33.32-.001c.001-10.163-5.926-19.388-15.172-23.607z" fill="#70dcba"/></g><path d="m210.12 333.816v83.873c0 31.128 16.758 60.42 45.108 75.575 28.784-15.39 45.087-44.947 45.087-75.564v-83.885h-90.195z" fill="#efedff"/><g><g><path d="m255.228 357.88-45.108 20.262c7.92 20.773 23.764 37.222 45.108 48.635 21.342-11.412 37.166-27.864 45.087-48.635z" fill="#c8866a"/></g><g><g fill="#c8866a"><path d="m94.407 183.747c-22.082 0-39.983 17.901-39.983 39.983s17.901 39.983 39.983 39.983 39.983-17.901 39.983-39.983c0-20.412-15.296-37.254-35.051-39.684-1.616-.199-3.262-.299-4.932-.299z"/><circle cx="416.05" cy="223.73" r="39.983"/></g><g><path d="m281.883 65.106h-30.719c-20.424 0-39.714 9.386-52.318 25.457l-104.439 133.167 104.439 133.167c12.604 16.071 31.894 25.448 52.318 25.448h30.719c6.274-1.049 12.428-2.453 18.432-4.204 66.928-19.517 115.735-81.291 115.735-154.411 0-79.74-58.033-145.925-134.167-158.624z" fill="#db9e82"/><path d="m147.718 223.73c0-79.738 58.035-145.923 134.165-158.624-8.672-1.447-17.574-2.199-26.656-2.199-88.817 0-160.82 72.003-160.82 160.823 0 73.16 48.85 134.913 115.714 154.412 14.31 4.173 29.449 6.409 45.107 6.409 9.082 0 17.984-.758 26.656-2.205-76.131-12.702-134.166-78.88-134.166-158.616z" fill="#c8866a"/></g></g></g><g><path d="m255.228 184.046h171.25c21.998 0 37.113-22.297 28.771-42.652-32.666-79.697-110.937-133.894-200.022-133.894l-86.599 96.129z" fill="#ff8e9e"/></g><path d="m232.215 147.651c-9.613-22.694-12.629-47.49-9.059-71.506 3.682-24.767 14.367-48.703 32.07-68.645-61.056 0-117.22 25.453-157.027 67.444-29.278 30.884-28.289 79.147 1.14 109.102h155.889c-9.836-11.08-17.505-23.393-23.013-36.395z" fill="#ea5b70"/><path d="m232.215 147.651c3.358 1.289 6.5 2.496 6.505 2.498 6.538 2.51 13.494-2.544 13.127-9.537l-.815-15.533 9.79-12.087c4.408-5.442 1.751-13.62-5.014-15.432l-15.025-4.025c-.819-1.262-7.669-11.811-8.47-13.046-2.121-3.267-5.721-4.71-9.156-4.344l-3.885 3.746v56.541z" fill="#ffce71"/><path d="m223.157 76.145c-2.741.293-5.377 1.736-7.07 4.344l-8.47 13.046-15.025 4.025c-6.765 1.812-9.422 9.99-5.014 15.432l9.79 12.087-.815 15.533c-.367 6.994 6.589 12.048 13.127 9.537l14.521-5.575s.013.005.018.007c.204.078 4.237 1.627 7.997 3.071-9.614-22.695-12.63-47.491-9.059-71.507z" fill="#ffb357"/><g><path d="m269.637 101.596c-1.804-5.553-6.249-9.771-11.889-11.281l-12.244-3.28-6.902-10.63c-3.18-4.897-8.564-7.821-14.403-7.821s-11.224 2.924-14.403 7.821l-6.903 10.63-12.243 3.28c-5.64 1.511-10.085 5.728-11.889 11.281-1.805 5.553-.688 11.578 2.987 16.115l7.977 9.85-.665 12.657c-.306 5.831 2.332 11.361 7.055 14.793 4.725 3.432 10.8 4.233 16.25 2.139l11.833-4.543 11.832 4.543c2.006.77 4.095 1.149 6.171 1.148 3.567 0 7.093-1.118 10.079-3.287 4.724-3.432 7.361-8.962 7.055-14.793l-.664-12.657 7.977-9.85c3.677-4.538 4.794-10.562 2.989-16.115zm-14.643 6.675-9.79 12.087c-1.167 1.44-1.759 3.262-1.662 5.113l.815 15.533c.054 1.025-.536 1.613-.893 1.872-.356.26-1.098.639-2.012.288-.005-.002-2.652-1.019-5.693-2.186l-8.852-3.399c-.016-.006-.032-.012-.049-.019-1.722-.653-3.626-.649-5.348.011l-14.521 5.575c-.958.367-1.7-.012-2.057-.271-.356-.259-.946-.847-.893-1.872l.815-15.533c.097-1.851-.495-3.673-1.662-5.113l-9.79-12.087c-.646-.798-.514-1.62-.378-2.04.136-.419.513-1.162 1.505-1.427l15.024-4.025c1.791-.48 3.34-1.605 4.349-3.16l8.471-13.045c.559-.861 1.382-.99 1.823-.99.44 0 1.263.129 1.823.991l8.469 13.044c1.009 1.555 2.559 2.681 4.35 3.161l15.025 4.025c.992.266 1.368 1.008 1.504 1.427.141.419.273 1.242-.373 2.04z"/><path d="m204.447 228.5h-24.065c-4.142 0-7.5 3.358-7.5 7.5s3.358 7.5 7.5 7.5h5.923c-.744 1.164-1.18 2.544-1.18 4.028v10.366c0 4.142 3.358 7.5 7.5 7.5s7.5-3.358 7.5-7.5v-10.366c0-1.484-.437-2.864-1.18-4.028h5.503c4.142 0 7.5-3.358 7.5-7.5s-3.359-7.5-7.501-7.5z"/><path d="m329.764 228.5h-24.065c-4.142 0-7.5 3.358-7.5 7.5s3.358 7.5 7.5 7.5h5.503c-.744 1.164-1.18 2.544-1.18 4.028v10.366c0 4.142 3.358 7.5 7.5 7.5s7.5-3.358 7.5-7.5v-10.366c0-1.484-.437-2.864-1.18-4.028h5.923c4.143 0 7.5-3.358 7.5-7.5s-3.358-7.5-7.501-7.5z"/><path d="m272.768 250.692-33.378-.029c-.002 0-.004 0-.006 0-4.139 0-7.497 3.354-7.5 7.494-.003 4.142 3.352 7.503 7.494 7.506l33.378.029h.006c4.139 0 7.497-3.354 7.5-7.494.003-4.142-3.352-7.503-7.494-7.506z"/><path d="m445.531 186.512c11.661-6.626 19.546-19.124 19.546-33.431 0-4.963-.972-9.852-2.889-14.531-9.675-23.605-23.245-45.224-40.334-64.255-2.766-3.081-7.508-3.338-10.591-.57-3.082 2.768-3.337 7.509-.569 10.591 15.938 17.75 28.594 37.911 37.614 59.921 1.174 2.865 1.769 5.84 1.769 8.844 0 12.938-10.586 23.465-23.599 23.465h-323.902c-11.842-13.124-18.329-29.969-18.329-47.772 0-18.192 6.888-35.477 19.395-48.67 39.223-41.375 94.474-65.104 151.585-65.104 49.252 0 97.087 17.465 134.691 49.177 3.167 2.671 7.898 2.269 10.568-.898s2.269-7.898-.898-10.568c-40.306-33.992-91.574-52.711-144.361-52.711-31.049 0-61.154 6.258-89.478 18.6-27.665 12.055-52.223 29.276-72.993 51.185-15.16 15.992-23.509 36.941-23.509 58.99 0 17.576 5.245 34.37 14.954 48.589-21.292 4.683-37.278 23.688-37.278 46.367 0 25.924 20.885 47.048 46.712 47.463 5.879 19.91 15.508 38.82 28.706 55.786 15.161 19.489 33.937 35.057 55.024 46.076-7.583 5.496-12.575 13.998-13.628 23.401-14.037 11.892-25.478 26.152-34.028 42.434-1.926 3.667-.514 8.201 3.153 10.127 1.113.584 2.305.861 3.48.861 2.698 0 5.305-1.46 6.646-4.015 5.523-10.517 12.397-20.091 20.519-28.609v16.21c0 15.912 9.354 30.462 23.831 37.068l58.009 26.467h-116.564c.495-8.402 1.821-16.719 3.96-24.811 1.059-4.005-1.33-8.109-5.334-9.168-4.005-1.06-8.109 1.33-9.168 5.334-3.104 11.745-4.679 23.905-4.679 36.145 0 4.142 3.358 7.5 7.5 7.5h268.332c4.143 0 7.5-3.358 7.5-7.5 0-41.818-18.249-81.01-50.175-108.063-1.053-9.381-6.039-17.875-13.613-23.371 21.055-10.999 39.797-26.533 54.923-45.977 13.23-17.005 22.88-35.952 28.772-55.895 25.836-.405 46.731-21.534 46.731-47.464.001-14.964-6.978-28.471-18.001-37.218zm-383.608 37.218c0-16.409 12.232-30.006 28.055-32.174-4.216 21.573-4.16 43.359-.075 64.337-15.786-2.199-27.98-15.78-27.98-32.163zm131.643 233.156c-9.147-4.174-15.058-13.367-15.058-23.421v-33.326c0-7.203 4.232-13.789 10.783-16.778l5.42-2.473c2.61 1.003 5.247 1.94 7.909 2.812v33.989c0 18.035 5.135 35.247 14.355 49.878zm24.054-39.197v-11.879c8.82 10.874 20.286 20.209 34.071 27.58 1.105.591 2.321.886 3.537.886s2.432-.295 3.537-.886c13.774-7.365 25.233-16.697 34.05-27.572v11.883c0 27.594-14.305 52.867-37.587 66.926-23.294-14.063-37.608-39.341-37.608-66.938zm6.453-28.517c10.16 1.891 20.576 2.879 31.154 2.879 10.572 0 20.98-.985 31.132-2.871-7.319 11.43-17.849 21.282-31.131 29.009-13.297-7.735-23.834-17.589-31.155-29.017zm157.602 107.828h-116.566l58.008-26.468c14.477-6.606 23.831-21.156 23.831-37.068v-16.237c20.666 21.66 32.965 49.76 34.727 79.773zm-60.514-113.641c6.552 2.989 10.786 9.578 10.787 16.785v33.32c0 10.054-5.911 19.248-15.058 23.421l-23.426 10.689c9.219-14.63 14.351-31.839 14.351-49.874v-33.985c2.674-.875 5.323-1.814 7.944-2.821zm55.029-65.481c-29.256 37.605-73.346 59.172-120.963 59.172-47.62 0-91.739-21.607-121.046-59.281-28.056-36.066-38.43-81.766-28.877-126.223h299.848c9.552 44.462-.854 90.202-28.962 126.332zm44.347-61.982c4.091-20.983 4.153-42.766-.058-64.331 16.029 2.181 28.054 15.914 28.054 32.165 0 16.388-12.202 29.973-27.996 32.166z"/></g></g></svg>