<svg id="Capa_1" enable-background="new 0 0 512 512" height="512" viewBox="0 0 512 512" width="512" xmlns="http://www.w3.org/2000/svg"><g><g><path d="m240.426 384.07h168.549v-45l-88.773-20-79.776 20-30.033 22.5z" fill="#676fb2"/><path d="m240.426 339.07-106.061-30-97.38 30c-12.426 0-22.5 10.074-22.5 22.5s10.074 22.5 22.5 22.5h203.442c-11.116-12.941-11.116-32.059-.001-45z" fill="#4c5699"/></g><g><path d="m501.19 307.987c-29.031-114.72-130.94-199.317-260.766-199.317l-113.015 125.453 113.017 104.947h128.652c1.819 35.792 31.414 64.254 67.657 64.259 37.274.005 67.765-31.5 67.765-68.774 0-8.958-1.112-17.883-3.31-26.568z" fill="#ff8e9e"/><path d="m210.393 291.573c-12.545-29.617-16.482-61.976-11.822-93.318 4.805-32.322 18.75-63.56 41.853-89.585-79.68 0-152.977 33.217-204.928 88.017-38.209 40.306-36.918 103.292 1.488 142.383h203.442c-12.836-14.459-22.845-30.528-30.033-47.497z" fill="#ea5b70"/></g><g><ellipse cx="120.836" cy="274.792" fill="#ffdbe0" rx="29.355" ry="23.377"/><ellipse cx="279.949" cy="274.792" fill="#ffdbe0" rx="29.355" ry="23.377"/><path d="m200.393 249.955c-11.646 0-22.017-7.826-28.539 1.825-6.617 9.79 8.202 24.97 28.539 24.97s35.156-15.18 28.539-24.97c-6.523-9.651-16.893-1.825-28.539-1.825z" fill="#4c5699"/></g><g><path d="m508.461 306.147c-16.233-64.149-54.988-119.878-109.127-156.921-3.417-2.34-8.087-1.463-10.425 1.954-2.339 3.419-1.464 8.086 1.954 10.425 51.12 34.979 87.72 87.617 103.057 148.223 2.044 8.074 3.08 16.395 3.08 24.728 0 32.817-26.849 61.274-60.264 61.274-31.245-.006-56.742-23.738-59.908-53.903l5.053-5.053c2.929-2.93 2.929-7.678 0-10.607-2.93-2.928-7.678-2.928-10.607 0l-5.304 5.304h-325.771c-16.274-17.654-25.199-40.484-25.199-64.633 0-24.329 9.212-47.445 25.939-65.09 51.618-54.449 124.328-85.678 199.484-85.678 45.066-.001 87.292 10.226 125.504 30.395 3.666 1.935 8.201.532 10.134-3.132 1.934-3.663.531-8.2-3.132-10.134-40.393-21.32-84.975-32.13-132.506-32.129-81.595 0-156.803 33.854-210.371 90.357-19.379 20.444-30.052 47.225-30.052 75.411 0 24.91 8.214 48.604 23.339 67.93-9.698 4.976-16.354 15.074-16.354 26.703 0 16.542 13.458 30 30 30h53.502c4.143 0 7.5-3.357 7.5-7.5s-3.357-7.5-7.5-7.5h-53.503c-8.271 0-15-6.729-15-15s6.729-15 15-15h325.305c1.577 10.75 5.468 20.956 11.362 30h-253.1c-4.143 0-7.5 3.357-7.5 7.5s3.357 7.5 7.5 7.5h265.951c13.833 12.435 31.546 19.257 50.233 19.26 41.746 0 75.265-35.221 75.265-76.274 0-9.575-1.19-19.133-3.539-28.41z"/><path d="m145.246 239.843c-3.868 4.439-10.739 4.435-14.604 0-2.722-3.122-7.46-3.447-10.582-.727-3.122 2.722-3.448 7.459-.727 10.582 9.847 11.299 27.384 11.288 37.221 0 2.722-3.123 2.396-7.86-.727-10.582-3.123-2.721-7.861-2.396-10.581.727z"/><path d="m270.142 239.844c-3.865 4.438-10.737 4.434-14.602-.001-2.723-3.122-7.46-3.447-10.582-.727-3.122 2.722-3.448 7.459-.727 10.582 9.846 11.299 27.386 11.289 37.221-.001 2.721-3.124 2.395-7.861-.729-10.582s-7.86-2.396-10.581.729z"/><path d="m209.691 241.008c-8.428 1.931-10.187 1.927-18.597 0-7.248-1.66-18.197-4.167-25.455 6.572-3.672 5.433-3.847 12.188-.478 18.531 5.672 10.68 20.159 18.139 35.23 18.139s29.559-7.459 35.23-18.139c3.369-6.344 3.195-13.098-.477-18.531-7.256-10.737-18.207-8.231-25.453-6.572zm-9.298 28.242c-15.456 0-24.347-10.267-22.325-13.271.656-.971 1.144-1.524 2.765-1.524 4.121 0 11.549 3 19.561 3 11.187 0 19.644-5.447 22.326-1.475 2.024 2.989-6.861 13.27-22.327 13.27z"/></g></g></svg>