<svg id="Capa_1" enable-background="new 0 0 512 512" height="512" viewBox="0 0 512 512" width="512" xmlns="http://www.w3.org/2000/svg"><g><g><path d="m255.999 375.647c-15.195 0-29.775 2.647-43.322 7.499-32.813 11.751-60.371 36.833-74.849 70.039-6.86 15.733-10.679 33.084-10.679 51.315h128.851v-128.853z" fill="#ffbd86"/><path d="m374.172 453.183c-13.872-31.812-40.636-57.784-74.862-70.037-13.597-4.869-28.23-7.498-43.309-7.499v128.853h128.851c-.001-18.232-3.82-35.584-10.68-51.317z" fill="#fed2a4"/></g><g><g><path d="m360.008 414.434-7.422-5.725v-9.484c0-3.607-2.924-6.532-6.532-6.532h-9.959v-10.572c0-3.607-2.924-6.532-6.532-6.532h-22.607l-7.648 7.557c-13.598-4.869-28.231-7.499-43.31-7.499-15.195 0-29.775 2.646-43.322 7.499l-9.954 9.566v111.788h9.949 43.496l84.328-38.028c-.529-7.131-1.201-14.141-2.012-21.079l22.047-21.064c2.893-2.764 2.645-7.453-.522-9.895z" fill="#30cd9c"/><path d="m341.881 504.485c0-13.218-.48-25.796-1.386-38.013h-42.86c-21.684 0-39.623 16.802-41.468 38.028h85.714z" fill="#e8b5b1"/></g><g><path d="m215.138 383.155-41.636 62.223c-2.206 18.895-3.4 38.261-3.4 59.121h10.642 21.967c.035-30.78 10.147-59.199 27.216-82.136v-39.208z" fill="#0caf7b"/><path d="m215.138 403.743v-20.588h-2.471l-7.624-7.566h-23.558c-3.607 0-6.532 2.924-6.532 6.532v10.572h-9.008c-3.607 0-6.532 2.924-6.532 6.532v9.484l-7.422 5.725c-3.167 2.442-3.415 7.131-.523 9.895l22.033 21.05c22.901-.001 41.637-18.736 41.637-41.636z" fill="#d6948c"/></g></g><g><path d="m55.064 255.474c0 22.097 17.913 40.009 40.009 40.009s40.009-17.913 40.009-40.009c0-20.631-15.688-37.584-35.745-39.746-24.057-2.595-44.273 16.25-44.273 39.746z" fill="#ffbd86"/><path d="m411.944 215.727c-19.768 2.432-35.026 19.321-35.026 39.746 0 22.097 17.913 40.009 40.009 40.009 22.097 0 40.009-17.913 40.009-40.009 0-24.11-21.224-42.67-44.992-39.746z" fill="#fed2a4"/></g><g><path d="m209.48 181.486v100.143h202.464v-65.902-34.241z" fill="#fed2a4"/><path d="m229.48 191.486v-10h-130.142v100.143h124.785l9.239-10.142c-4.519-26.43-5.803-53.305-3.882-80.001z" fill="#ffbd86"/></g><g><g><path d="m375.746 83.968-14.012-8.088h-114.516v46.589l148.679.154c-5.874-14.254-12.675-27.126-20.151-38.655z" fill="#70dcba"/><path d="m295.757 15.392h-38.832v65.812c4.622 1.783 9.635 2.763 14.866 2.763h103.954c-22.701-35.005-51.656-57.592-79.988-68.575z" fill="#e8b5b1"/></g><g><path d="m230.305 10.792c-43.567 10.966-88.346 49.178-114.156 111.677h131.07v-16.762c2.896-8.268 6.137-16.443 9.71-24.509z" fill="#30cd9c"/><path d="m256.015 7.5c-8.416 0-17.04 1.11-25.711 3.292-.09 1.11-.149 2.229-.149 3.362v28.178c0 17.668 11.158 32.848 26.772 38.866 10.191-23.009 23.129-45.109 38.83-65.806-13.649-5.291-27.153-7.892-39.742-7.892z" fill="#d6948c"/></g></g><g><path d="m411.944 215.727c-33.208 54.542-92.446 55.902-156.303 55.902-7.502 0-14.939-.021-22.279-.142v155.827h71.862c4.791-3.764 9.203-8.096 13.143-12.952 43.638-53.783 99.391-114.062 99.391-154.781 0-15.191-1.937-29.903-5.814-43.854z" fill="#8288cb"/><path d="m245.564 320.179c-5.307-15.958-9.388-32.236-12.202-48.692-55.136-.913-104.717-7.626-134.024-55.76-3.879 13.953-6.173 28.66-6.173 43.854 0 40.719 55.753 100.998 99.391 154.781 15.388 18.965 39.022 30 63.444 30 18.169 0 35.304-6.112 49.224-17.049-27.043-32.451-46.931-68.858-59.66-107.134z" fill="#676fb2"/></g><g><g><path d="m396.744 122.826c-.282-.07-.565-.133-.847-.203-45.828-11.276-92.81-16.98-140.196-16.98-2.829 0-5.657.024-8.484.064l-17.737 16.263v69.517c8.837-.461 17.684-.681 26.53-.675l169.44-41.274c-4.176-12.757-14.598-23.219-28.706-26.712z" fill="#30cd9c"/><path d="m411.944 215.727 13.494-41.052c2.792-8.524 2.589-17.267.012-25.138h-127.814c-22.779 0-41.43 18.54-41.626 41.274 52.643.034 105.282 8.325 155.934 24.916z" fill="#e8b5b1"/></g><g><path d="m153.239 114.662-65.055 66.824 11.154 34.241c42.376-13.881 86.144-21.946 130.141-24.241 2.092-29.078 7.989-57.942 17.738-85.779-31.601.454-63 3.462-93.978 8.955z" fill="#0caf7b"/><path d="m153.239 139.851v-25.189c-12.436 2.205-24.806 4.799-37.091 7.807-.496.121-.994.234-1.489.357-22.814 5.649-36.01 29.514-28.694 51.849l2.219 6.811h23.419c22.9 0 41.636-18.736 41.636-41.635z" fill="#d6948c"/></g></g><g><path d="m301.139 314.564h-21.675v-11.125c0-4.143-3.358-7.5-7.5-7.5s-7.5 3.357-7.5 7.5v11.125h-16.927v-11.125c0-4.143-3.358-7.5-7.5-7.5s-7.5 3.357-7.5 7.5v11.125h-21.675c-4.142 0-7.5 3.357-7.5 7.5s3.358 7.5 7.5 7.5h21.675v21.767c0 4.143 3.358 7.5 7.5 7.5s7.5-3.357 7.5-7.5v-21.767h16.927v21.767c0 4.143 3.358 7.5 7.5 7.5s7.5-3.357 7.5-7.5v-21.767h21.675c4.142 0 7.5-3.357 7.5-7.5s-3.358-7.5-7.5-7.5z"/><path d="m203.134 223.276-19.53-3.465c-4.077-.722-7.971 1.996-8.695 6.074-.724 4.079 1.996 7.972 6.075 8.695l3.766.668c-.285 1.194-.21.639-.223 13.581-.004 4.142 3.351 7.503 7.493 7.507h.007c4.139 0 7.496-3.354 7.5-7.493l.01-10.971.976.173c4.094.722 7.973-2.008 8.695-6.074.724-4.078-1.995-7.971-6.074-8.695z"/><path d="m328.537 219.808-19.538 3.424c-4.08.715-6.808 4.603-6.093 8.683.712 4.064 4.582 6.807 8.682 6.093l.947-.166-.01 11.143c-.004 4.142 3.351 7.503 7.493 7.507h.007c4.139 0 7.496-3.354 7.5-7.493.012-12.925.097-12.451-.238-13.741l3.839-.673c4.08-.715 6.808-4.603 6.093-8.683-.715-4.081-4.608-6.803-8.682-6.094z"/><path d="m422.292 208.262 10.273-31.252c7.926-24.199-4.267-51.844-31.155-60.591-22.29-51.969-59.647-91.236-102.941-108.02-14.377-5.573-28.66-8.399-42.454-8.399-25.88 0-52.56 9.456-77.154 27.347-3.35 2.437-4.09 7.128-1.653 10.478s7.128 4.092 10.477 1.653c22.013-16.014 45.642-24.478 68.33-24.478 11.932 0 24.391 2.484 37.031 7.386 36.656 14.209 68.827 46.449 89.822 89.526-83.22-18.197-170.274-18.247-253.695-.142 9.951-20.466 22.323-38.402 36.904-53.449 2.882-2.975 2.808-7.723-.167-10.604-2.975-2.883-7.723-2.81-10.605.167-18.251 18.834-33.242 41.791-44.616 68.26-25.932 7.742-40.209 35.349-31.855 60.855l10.213 31.351c-23.67 2.884-41.482 23.244-41.482 47.125 0 26.196 21.312 47.509 47.509 47.509h3.975c13.981 26.125 37.293 55.1 60.863 83.594-4.721 2.262-7.997 7.073-7.997 12.648v5.798c-4.762 3.672-9.554 6.477-9.945 13.84-.151 2.842.581 5.615 2.024 7.999-15.942 22.893-24.345 49.6-24.345 77.639 0 4.143 3.358 7.5 7.5 7.5h257.703c4.143 0 7.5-3.357 7.5-7.5 0-9.542-1.004-19.094-2.983-28.392-.863-4.051-4.848-6.627-8.898-5.773-4.051.863-6.636 4.847-5.773 8.898 1.243 5.836 2.054 11.786 2.424 17.767h-27.792c-.226-16.546-1.204-32.596-2.973-48.754l10.932-10.445c3.131 4.735 5.935 9.67 8.357 14.754 1.779 3.736 6.252 5.329 9.996 3.545 3.739-1.781 5.327-6.257 3.545-9.996-3.178-6.672-6.934-13.114-11.186-19.23 3.785-6.234 2.152-14.089-3.41-18.379l-4.503-3.473v-5.798c0-5.88-3.639-10.918-8.78-13.002 23.469-28.38 46.646-57.222 60.569-83.24h5.051c26.196 0 47.509-21.312 47.509-47.509-.001-24.09-18.106-44.419-42.145-47.213zm-156.438 55.856-2.057-3.336c-3.506-5.686-12.088-5.686-15.594 0l-2.052 3.328c-4.183-.018-8.435-.052-12.665-.122-55.838-.925-96.347-8.892-122.344-44.126 93.569-28.528 195.411-28.529 288.979-.005-30.882 41.522-82.655 44.102-134.267 44.261zm-149.397-134.011c90.917-22.454 186.926-22.525 277.643-.203 20.487 5.057 29.927 24.984 24.213 42.429l-11.172 33.987c-98.745-30.752-204.618-30.631-302.981-.007l-11.067-33.973c-5.966-18.21 4.756-37.626 23.364-42.233zm-53.893 125.367c0-15.858 11.508-29.574 27.157-32.075-2.68 12.16-4.056 24.292-4.056 36.184 0 8.494 2.054 17.805 6.239 28.244-16.444-1.6-29.34-15.497-29.34-32.353zm92.138 182.316 10.929 10.442c-1.771 16.181-2.75 32.234-2.976 48.768h-27.78c1.289-21.248 8.064-41.453 19.827-59.21zm188.772-7.537c-4.526-6.037-14.178-2.319-13.466 5.202 2.386 25.181 3.965 36.247 4.32 61.545h-156.673c.375-26.599 2.347-40.712 4.323-61.561.712-7.513-8.929-11.243-13.464-5.2l-11.048-10.556c10.758-8.298 9.449-5.913 9.449-19.49h4.283c5.226 6.305 10.507 12.699 15.535 18.896 16.652 20.522 42.547 32.774 69.268 32.774 26.436 0 51.291-11.945 68.191-32.774 5.027-6.197 10.309-12.59 15.535-18.896h5.359c0 13.81-1.121 11.338 9.449 19.491-.007.008-11.024 10.533-11.061 10.569zm-30.93-20.615c-14.04 17.302-34.649 27.226-56.543 27.226-22.247 0-43.788-10.178-57.62-27.226-32.042-39.492-70.909-82.825-88.475-118.317-8.267-16.704-9.351-26.309-9.212-34.239 5.677 12.606 13.953 24.045 24.459 33.465 3.083 2.765 7.825 2.508 10.591-.577 2.765-3.084 2.507-7.825-.577-10.591-11.191-10.035-19.409-22.763-24.03-36.764 31.954 30.991 76.49 35.617 122.103 36.372 1.944.032 3.892.057 5.835.076.516 4.117 4.104 7.678 8.996 7.678h15.859c4.9 0 8.49-3.572 8.998-7.697 46.65-.536 93.658-3.953 127.243-36.503-4.616 14.031-12.844 26.786-24.055 36.839-3.084 2.766-3.343 7.507-.577 10.591 2.767 3.087 7.511 3.34 10.591.577 10.295-9.231 18.445-20.403 24.111-32.71.408 40.553-57.43 102.171-97.697 151.8zm106.439-121.727c4.208-10.472 6.275-19.811 6.275-28.329 0-12.466-1.278-24.636-3.769-36.32 15.951 2.318 27.947 16.011 27.947 32.211 0 17.235-13.482 31.372-30.453 32.438z"/></g></g></svg>