<svg id="Capa_1" enable-background="new 0 0 512 512" height="512" viewBox="0 0 512 512" width="512" xmlns="http://www.w3.org/2000/svg"><g><g><path d="m296.828 10.008c-12.426-1.52-24.984-2.369-37.626-2.508-2.598 0-5.197 0-7.795 0-26.416.315-52.477 3.699-77.708 9.947l-22 19.612h-34.992c-.091.041-.183.082-.274.123-14.975 6.705-21.528 24.416-14.74 39.354l88.63 195.051h32.952 32.724v-161.239c-.001-37.516 14.673-73.513 40.829-100.34z" fill="#ea5b70"/><path d="m395.462 37.611-.351-.158h-34.92l-22-19.771c-13.568-3.401-27.382-5.963-41.363-7.674-39.118 0-70.83 31.711-70.83 70.83v190.749h62.723 32.952l88.532-194.835c6.762-14.879.154-32.421-14.743-39.141z" fill="#ff8e9e"/></g><g><path d="m173.699 17.447c-19.571 4.847-38.642 11.415-56.992 19.612l106.569 234.527h32.723v-73.021z" fill="#ffce71"/><path d="m395.111 37.453c-18.321-8.246-37.368-14.869-56.92-19.771l-82.193 180.883v73.021h32.723z" fill="#fce3a0"/></g><g><path d="m255.999 474.867c41 21.677 27.501 14.541 45.369 23.987 35.171 18.596 76.278-11.44 69.56-50.827l-8.665-50.808 36.705-35.981c28.455-27.894 12.753-76.493-26.57-82.24l-50.724-7.413h-105.43v182.155z" fill="#ffce71"/><path d="m239.55 357.304c12.807-39.64 43.069-71.226 82.124-85.717l-17.11-34.866-5.575-11.36c-8.764-17.859-25.887-26.837-42.991-26.859-17.08-.002-34.19 8.925-42.991 26.859l-5.575 11.361-17.11 34.865-50.724 7.413c-39.323 5.747-55.024 54.346-26.57 82.24l36.704 35.981-8.664 50.808c-6.717 39.386 34.389 69.423 69.561 50.827l45.369-23.987c-23.193-34.604-29.255-77.926-16.448-117.565z" fill="#ffb357"/></g><g><g><g><ellipse cx="172.433" cy="358.313" fill="#ff8e9e" rx="30.834" ry="24.555"/></g><g><ellipse cx="339.563" cy="358.313" fill="#ff8e9e" rx="30.834" ry="24.555"/></g></g></g><g><path d="m373.483 271.578-40.854-5.971 84.406-185.753c8.231-18.117.95-40.313-18.846-49.24-44.496-20.028-93.675-30.614-142.22-30.614-49.781 0-97.761 10.208-142.603 30.337-18.527 8.297-27.106 30.362-18.502 49.301l31.563 69.462c1.713 3.772 6.163 5.438 9.931 3.726 3.771-1.714 5.439-6.16 3.726-9.931l-31.564-69.462c-4.047-8.907-1.767-19.026 4.951-25.364l85.667 188.53-8.555 17.433-38.089-83.824c-1.713-3.772-6.16-5.438-9.931-3.726-3.771 1.714-5.439 6.16-3.726 9.931l40.53 89.195-40.854 5.971c-45.687 6.676-63.481 62.917-30.736 95.017l33.901 33.234-8.003 46.937c-6.102 35.764 22.078 65.233 54.636 65.233 8.959 0 17.648-2.192 25.824-6.516l41.864-22.134 41.864 22.134c8.175 4.323 16.863 6.515 25.823 6.515 32.457 0 60.752-29.364 54.636-65.232l-2.092-12.263c-.696-4.084-4.569-6.818-8.654-6.133-4.084.697-6.829 4.571-6.133 8.654l2.092 12.264c4.428 25.91-16.192 47.71-39.849 47.71-6.491 0-12.82-1.606-18.812-4.775l-45.369-23.986c-2.193-1.159-4.818-1.159-7.011 0l-45.369 23.987c-5.994 3.169-12.324 4.775-18.813 4.775-23.618 0-44.273-21.754-39.849-47.712l8.664-50.807c.414-2.424-.387-4.896-2.143-6.616l-36.704-35.981c-24.047-23.574-10.741-64.62 22.404-69.464l50.724-7.413c2.727-.402 4.773-2.278 5.654-4.128l22.679-46.214c14.867-30.296 57.711-30.166 72.516 0l22.677 46.21c.853 1.918 3.007 3.743 5.656 4.132l50.724 7.413c33.177 4.85 46.426 45.914 22.405 69.464l-36.705 35.981c-1.756 1.721-2.557 4.193-2.144 6.616l1.53 8.971c.697 4.085 4.583 6.827 8.654 6.133 4.084-.697 6.829-4.571 6.133-8.654l-.87-5.102 33.901-33.234c32.771-32.127 14.92-88.344-30.735-95.017zm29.895-197.929-81.965 180.381-8.555-17.433 85.482-188.121c7.087 6.582 8.892 16.69 5.038 25.173zm-75.81-50.719-71.57 157.505-71.696-157.782c23.32-5.086 47.265-7.653 71.667-7.653 23.937 0 48.035 2.698 71.599 7.93zm-119.825 196.347-81.052-178.374c13.964-5.879 28.234-10.768 42.769-14.654l75.374 165.876c-15.616 3.171-29.116 12.933-37.091 27.152zm59.415-27.142 75.232-165.566c14.571 3.936 28.873 8.857 42.74 14.718l-80.878 177.99c-7.967-14.2-21.469-23.96-37.094-27.142z"/><path d="m190.403 314.874c-4.142 0-7.5 3.357-7.5 7.5v12c0 4.143 3.358 7.5 7.5 7.5s7.5-3.357 7.5-7.5v-12c0-4.143-3.358-7.5-7.5-7.5z"/><path d="m267.638 329.373c-2.939 3.372-7.181 5.307-11.64 5.307-4.458 0-8.701-1.935-11.64-5.307-2.721-3.122-7.458-3.447-10.582-.727-3.123 2.722-3.448 7.459-.727 10.582 5.789 6.642 14.153 10.451 22.948 10.451s17.16-3.81 22.948-10.451c2.721-3.123 2.396-7.86-.727-10.582-3.122-2.721-7.858-2.396-10.58.727z"/><path d="m302.504 334.039c0 4.143 3.358 7.5 7.5 7.5s7.5-3.357 7.5-7.5c0-3.532 2.874-6.406 6.406-6.406 3.533 0 6.407 2.874 6.407 6.406 0 4.143 3.357 7.5 7.5 7.5s7.5-3.357 7.5-7.5c0-11.804-9.604-21.406-21.407-21.406s-21.406 9.602-21.406 21.406z"/></g></g></svg>