<svg id="Capa_1" enable-background="new 0 0 512 512" height="512" viewBox="0 0 512 512" width="512" xmlns="http://www.w3.org/2000/svg"><g><g><path d="m62.405 497.219-21.427-29.103c-5.304-7.205-4.448-17.18 1.925-23.459 32.183-31.705 42.169-81.237 23.305-123.309l65.433-29.34c16.911 37.714 20.431 80.498 9.911 120.469-8.81 33.479-27.165 63.829-52.453 87.203-7.884 7.289-20.328 6.186-26.694-2.461z" fill="#676fb2"/><path d="m449.595 497.219 21.427-29.103c5.304-7.205 4.448-17.18-1.925-23.459-32.183-31.705-42.169-81.237-23.305-123.309l-65.433-29.34c-16.911 37.714-20.431 80.498-9.911 120.469 8.81 33.479 27.165 63.829 52.453 87.203 7.884 7.289 20.328 6.186 26.694-2.461z" fill="#8288cb"/></g><g><path d="m435.471 100.114c-2.325-3.26-6.136-5.043-10.14-5.035-.021 0-.042 0-.062 0-18.794 0-34.029-15.235-34.029-34.029 0-.26.003-.52.009-.779.09-3.921-1.72-7.659-4.88-9.983-26.31-19.351-57.073-33.001-90.473-39.112l-76.376 23.861v125.307l36.48 94.699 220.278 68.643v-95.844c0-47.62-15.118-91.702-40.807-127.728z" fill="#30cd9c"/><path d="m35.722 227.842v95.843l220.278-68.642v-28.219c-41.613-81.098-18.936-175.373 39.895-215.648-135.828-24.848-260.173 79.462-260.173 216.666z" fill="#0caf7b"/></g><g><path d="m256 287.241c71.33-.194 141.069 20.892 201.362 62.85 5.223 3.634 11.195 5.378 17.109 5.378 9.486-.001 18.821-4.49 24.65-12.867 9.464-13.6 6.111-32.297-7.488-41.76-69.584-48.423-151.064-74.018-235.633-74.018l-53.721 29.177z" fill="#70dcba"/><path d="m242.177 257.027c0-11.598 5.045-22.622 13.823-30.203-84.569 0-166.049 25.595-235.634 74.018-13.599 9.463-16.952 28.16-7.488 41.76 9.464 13.601 28.162 16.953 41.759 7.489 59.914-41.694 131.151-62.638 201.362-62.85-8.105-7.611-13.822-19.102-13.822-30.214z" fill="#18c08b"/></g><g><path d="m495.918 294.687c-4.007-2.788-8.057-5.492-12.14-8.131v-58.714c0-23.329-3.518-46.341-10.455-68.396-1.242-3.952-5.455-6.145-9.404-4.904-3.951 1.243-6.147 5.453-4.904 9.404 6.479 20.598 9.764 42.095 9.764 63.896v49.438c-64.542-38.028-137.511-57.986-212.896-57.986-47.448 0-94.175 7.97-138.883 23.688-3.908 1.373-5.962 5.655-4.588 9.562 1.372 3.907 5.656 5.957 9.562 4.588 43.106-15.154 88.16-22.838 133.909-22.838 83.082 0 163.122 25.142 231.467 72.706 10.129 7.049 12.76 21.057 5.616 31.319-7.048 10.126-21.054 12.763-31.319 5.617-60.262-41.94-131.16-64.203-205.04-64.203-73.891 0-146.263 22.459-206.254 64.204-10.241 7.126-24.254 4.536-31.319-5.617-7.128-10.246-4.533-24.258 5.616-31.32 21.523-14.977 45.144-28.296 69.924-39.097 3.798-1.654 5.534-6.074 3.879-9.871-1.654-3.797-6.072-5.536-9.871-3.879-15.516 6.762-30.686 14.51-45.36 23.146v-49.457c-.001-117.361 95.289-212.842 212.416-212.842 46.753 0 90.767 15.205 126.289 41.33 1.143.841 1.825 2.207 1.825 3.654l-.002.114c-.007.315-.011.632-.011.95 0 22.899 18.63 41.529 41.594 41.529 1.706 0 3.175.689 4.03 1.889 7.306 10.245 13.729 21.188 19.092 32.524 1.772 3.746 6.247 5.342 9.986 3.572 3.744-1.771 5.344-6.242 3.572-9.986-5.741-12.137-12.617-23.853-20.438-34.82-3.652-5.121-9.725-8.179-16.308-8.179-14.628 0-26.529-11.901-26.529-26.529 0-.205.002-.408.007-.625l.006-.438c0-6.199-2.968-12.083-7.938-15.739-38.31-28.176-85.504-44.246-135.175-44.246-125.398 0-227.417 102.209-227.417 227.842v58.71c-4.092 2.644-8.142 5.353-12.14 8.135-16.955 11.799-21.213 35.16-9.36 52.2 11.777 16.923 35.138 21.236 52.2 9.361 2.68-1.865 5.398-3.677 8.136-5.463 2.266 15.153 1.099 30.445-3.252 44.944-1.19 3.967 1.061 8.148 5.028 9.339 3.96 1.189 8.147-1.055 9.339-5.028 5.568-18.554 6.6-38.348 2.6-57.752 16.613-9.725 34.115-18.042 52.227-24.882 18.469 63.237-.116 131.594-48.991 176.768-4.573 4.228-11.822 3.683-15.563-1.4l-21.427-29.103c-3.063-4.162-2.615-9.962 1.147-13.669 6.362-6.267 12.015-13.296 16.799-20.893 2.208-3.505 1.156-8.136-2.349-10.343-3.503-2.207-8.135-1.157-10.343 2.349-4.17 6.62-9.093 12.743-14.634 18.2-9.153 9.018-10.13 23.153-2.701 33.248l21.427 29.103c9.229 12.536 26.909 13.612 37.825 3.523 53.908-49.828 73.173-124.749 52.974-192.791 35.141-11.576 72.254-17.666 109.444-17.666 37.232 0 73.694 5.905 108.317 17.365-20.723 69.281-.229 143.997 52.886 193.092 11.136 10.295 28.785 8.755 37.825-3.523l21.426-29.102c7.442-10.107 6.281-24.401-2.7-33.249-23.479-23.13-34.29-56.279-29.427-88.548 2.734 1.79 5.454 3.607 8.145 5.48 17.024 11.847 40.389 7.607 52.2-9.361 11.846-17.025 7.606-40.39-9.361-52.199zm-32.085 155.314c3.767 3.71 4.249 9.459 1.148 13.67l-21.427 29.103c-3.683 5.002-10.905 5.707-15.563 1.4-48.192-44.543-67.827-112.781-48.911-177.041 17.991 6.85 35.431 15.229 52.158 25.101-8.056 38.915 4.157 79.751 32.595 107.767z"/><path d="m186.052 151.288v12c0 4.143 3.357 7.5 7.5 7.5s7.5-3.357 7.5-7.5v-12c0-4.143-3.357-7.5-7.5-7.5s-7.5 3.358-7.5 7.5z"/><path d="m310.948 151.288v12c0 4.143 3.357 7.5 7.5 7.5s7.5-3.357 7.5-7.5v-12c0-4.143-3.357-7.5-7.5-7.5s-7.5 3.358-7.5 7.5z"/><path d="m266.81 158.004c-2.729 3.132-6.669 4.928-10.81 4.928s-8.08-1.796-10.81-4.928c-2.721-3.124-7.459-3.448-10.581-.728-3.123 2.721-3.449 7.459-.728 10.581 5.578 6.402 13.641 10.074 22.118 10.074 8.478 0 16.54-3.672 22.118-10.074 2.722-3.122 2.396-7.86-.728-10.581-3.121-2.721-7.859-2.396-10.579.728z"/><path d="m154.717 79.078c1.118-3.988-1.208-8.128-5.196-9.247-3.99-1.112-8.128 1.208-9.247 5.196-4.159 14.832-18.322 24.718-33.681 23.496-4.155-.312-7.742 2.756-8.069 6.884-.327 4.13 2.755 7.742 6.884 8.069 22.437 1.785 43.209-12.653 49.309-34.398z"/><path d="m382.388 155.826c-4.118-.427-7.798 2.589-8.214 6.71-1.972 19.562 11.099 37.13 30.401 40.863 4.037.786 7.997-1.85 8.788-5.938.787-4.067-1.872-8.002-5.938-8.788-11.637-2.251-19.515-12.841-18.327-24.633.416-4.121-2.589-7.799-6.71-8.214z"/><path d="m138.973 179.836c10.444.572 19.291 7.742 22.014 17.841 1.081 4.014 5.213 6.366 9.193 5.289 4-1.078 6.367-5.194 5.289-9.193-4.412-16.367-18.75-27.986-35.676-28.913-4.128-.229-7.672 2.941-7.899 7.078-.227 4.135 2.943 7.671 7.079 7.898z"/></g></g></svg>