<svg id="Capa_1" enable-background="new 0 0 512 512" height="512" viewBox="0 0 512 512" width="512" xmlns="http://www.w3.org/2000/svg"><g><g><path d="m496.492 127.535-24.706-20.943h-151.842v197.731h133.136c47.617-47.565 62.354-116.504 43.412-176.788z" fill="#e8b5b1"/><path d="m496.492 127.535c-8.464-26.937-23.634-52.15-45.63-72.949-68.648-64.915-176.278-62.099-243.119 4.669l37.401 186.798 74.801-74.719c47.732-47.682 116.262-62.723 176.547-43.799z" fill="#d6948c"/></g><g><g><g><path d="m284.149 135.579-190.965 190.755 126.336 126.197h20.54c17.853 17.833 46.797 17.833 64.65 0l148.37-148.208z" fill="#ffce71"/></g></g><path d="m211.368 423.871c-38.91-38.868-40.388-101.973-2.345-141.688.732-.764 1.473-1.521 2.223-2.27l108.698-108.579-112.201-112.079-148.371 148.207c-17.853 17.833-17.853 46.746 0 64.579-12.103-12.089-31.851-11.885-43.697.612-11.417 12.046-10.699 31.158 1.044 42.887l180.24 180.043c5.952 5.945 13.75 8.917 21.55 8.917 7.998 0 15.999-3.127 22.003-9.379 11.549-12.025 10.91-31.24-.886-43.023z" fill="#ffb357"/></g><g><g fill="#ff8e9e"><path d="m178.988 178.988c-9.129 9.129-7.237 25.823 4.227 37.287 11.464 11.463 28.158 13.356 37.287 4.227s7.237-25.823-4.227-37.287-28.158-13.356-37.287-4.227z"/><ellipse cx="312.255" cy="312.255" rx="23.377" ry="29.355" transform="matrix(.707 -.707 .707 .707 -129.34 312.262)"/></g></g><g><path d="m511.982 177.445c-.675-49.253-20.553-94.819-55.973-128.306-34.561-32.678-79.865-50.12-127.567-49.096-47.487 1.013-92.248 20.158-126.039 53.907l-148.391 148.207c-14.738 14.72-18.818 35.571-13.153 53.592-11.269-.91-22.505 3.108-30.693 11.747-14.007 14.774-13.474 38.709 1.187 53.352l180.264 180.043c7.174 7.164 16.711 11.109 26.854 11.109 10.443 0 20.179-4.149 27.416-11.684 7.821-8.143 11.251-18.887 10.329-29.398 18.146 5.744 39.033 1.637 53.768-13.08l104.859-104.729c2.93-2.928 2.933-7.677.006-10.607s-7.676-2.932-10.609-.006l-104.858 104.73c-14.935 14.918-39.116 14.921-54.056-.001l-152.408-152.221c-2.931-2.925-7.68-2.925-10.608.006s-2.925 7.68.006 10.607l152.195 152.008c.033.036.058.076.092.111 8.668 8.992 8.877 23.432.464 32.189-8.984 9.354-23.778 9.408-32.848.352l-180.263-180.042c-8.96-8.949-9.364-23.493-.901-32.421 8.914-9.402 23.782-9.629 32.957-.465l7.076 7.067c2.932 2.926 7.68 2.925 10.608-.006s2.925-7.68-.006-10.607l-7.076-7.067c-14.932-14.912-14.934-39.052 0-53.966l143.089-142.912 234.754 234.467-16.99 16.969c-2.93 2.928-2.933 7.677-.006 10.607 2.927 2.929 7.675 2.934 10.609.006l22.304-22.276c17.76-17.739 31.445-38.529 40.674-61.793 8.916-22.469 13.267-46.153 12.934-70.393zm-59.032 116.156-234.513-234.225c64.927-59.548 163.347-59.771 227.264.661 32.45 30.68 50.661 72.448 51.281 117.613.596 43.423-14.993 84.305-44.032 115.951z"/><path d="m230.9 182.141-8.486 8.485c-2.93 2.93-2.93 7.678 0 10.607s7.678 2.928 10.608 0l8.486-8.485c2.93-2.93 2.93-7.678 0-10.607-2.929-2.928-7.679-2.928-10.608 0z"/><path d="m319.227 270.458-8.486 8.485c-2.93 2.929-2.929 7.678 0 10.606 2.93 2.928 7.679 2.929 10.608-.001l8.486-8.485c2.929-2.929 2.929-7.678 0-10.606-2.931-2.927-7.679-2.928-10.608.001z"/><path d="m261.004 220.711c-4.134-.271-7.713 2.836-7.997 6.969-1.218 17.747 13.492 32.493 31.283 31.28 4.133-.283 7.254-3.863 6.97-7.996-.284-4.132-3.873-7.244-7.997-6.969-8.758.576-15.884-6.64-15.29-15.288.284-4.131-2.836-7.712-6.969-7.996z"/></g></g></svg>