<svg id="Capa_1" enable-background="new 0 0 512.001 512.001" height="512" viewBox="0 0 512.001 512.001" width="512" xmlns="http://www.w3.org/2000/svg"><g><path d="m451.839 140.827-34.339-34.34-3.902-3.902c-23.432-23.432-61.423-23.431-84.855.002l-5.717 5.717 94.474 94.474v68.166c0 8.284 6.716 15 15 15h30c8.284 0 15-6.716 15-15v-68.167c0-23.402-9.114-45.402-25.661-61.95z" fill="#efedff"/><g><g><path d="m25.967 416.669 69.364 69.364c22.213 22.214 57.391 24.685 82.492 5.794l23.38-17.595c126.546-95.236 152.718-213.13 168.353-242.905 6.004-11.435 13.716-21.934 22.905-31.122l-75.015-75.015-291.479 227.914z" fill="#30cd9c"/></g><path d="m311.795 119.539c-13.743 13.743-30.824 24.574-50.223 31.039l-.001.001c-34.836 12.053-68.309 27.837-99.81 47.085-48.158 29.425-90.056 68.039-123.993 113.133l-17.596 23.38c-18.89 25.101-16.419 60.278 5.794 82.492l50 50c-22.214-22.214-24.685-57.392-5.794-82.492 23.078-30.664 62.681-88.3 141.588-136.513 31.452-19.218 64.907-35.009 99.81-47.085l.001-.001c18.479-6.158 35.794-16.609 50.223-31.039z" fill="#0caf7b"/></g><path d="m409.413 183.253-80.666-80.666c-10.783-10.782-28.266-10.782-39.05.001s-10.783 28.266 0 39.049l80.666 80.666c10.783 10.783 28.266 10.783 39.05 0 5.392-5.392 8.087-12.458 8.087-19.525s-2.695-14.133-8.087-19.525z" fill="#30cd9c"/><g fill="#ff8e9e"><ellipse cx="106.336" cy="326.336" rx="17.619" ry="22.125" transform="matrix(.707 -.707 .707 .707 -199.61 170.774)"/><ellipse cx="185.665" cy="405.664" rx="17.619" ry="22.125" transform="matrix(.707 -.707 .707 .707 -232.467 250.099)"/></g><g><path d="m415.305 47.736c12.153-5.352 20.199-17.346 20.199-30.849 0-5.741 5.018-10.15 10.581-9.276 33.082 5.193 58.415 34.359 58.415 69.56 0 36.881-27.808 67.137-63.202 70.139-29.928 2.538-56.515-20.653-56.796-51.287-.197-21.627 12.542-40.244 30.803-48.287z" fill="#ffb357"/><path d="m436.815 117.501c.646 0 1.302-.028 1.948-.083 20.039-1.699 35.737-19.378 35.737-40.246 0-9.373-3.185-18.155-8.54-25.119-2.916-3.792-8.682-3.546-11.359.419-6.606 9.785-15.936 17.757-27.205 22.72-7.916 3.486-12.978 11.557-12.896 20.559.111 11.991 10.121 21.75 22.315 21.75z" fill="#fce3a0"/></g><g><path d="m134.472 309.212c-2.929-2.929-7.677-2.929-10.607 0l-8.485 8.485c-2.929 2.929-2.929 7.677 0 10.606s7.677 2.929 10.607 0l8.485-8.485c2.929-2.929 2.929-7.677 0-10.606z"/><path d="m192.181 377.528-8.485 8.485c-2.929 2.929-2.929 7.677 0 10.606s7.677 2.929 10.606 0l8.485-8.485c2.929-2.929 2.929-7.677 0-10.606-2.928-2.929-7.677-2.929-10.606 0z"/><path d="m167.25 376.03c4.132-.283 7.252-3.864 6.968-7.997-.283-4.132-3.864-7.254-7.996-6.967-8.693.597-15.883-6.6-15.287-15.287.285-4.133-2.836-7.712-6.967-7.997-4.132-.284-7.713 2.835-7.997 6.968-1.223 17.771 13.524 32.501 31.279 31.28z"/><path d="m493.417 26.285c-17.475-20.602-41.423-26.285-48.719-26.285-9.072 0-16.693 7.398-16.693 16.886 0 10.364-6.172 19.779-15.722 23.986-15.911 7.007-27.74 20.597-32.71 37.164-18.416-2.345-36.753 2.916-51.109 14.697-13.415-8.823-31.92-7.597-44.069 4.551-10.452 10.452-12.932 25.751-7.446 38.623-29.458 15.405-148.489 41.91-245.172 170.38l-17.596 23.38c-9.277 12.326-14.181 26.989-14.181 42.403 0 18.856 7.339 36.578 20.663 49.903l69.365 69.364c13.325 13.325 31.047 20.664 49.901 20.664 15.414 0 30.077-4.903 42.403-14.18 14.17-10.661 35.501-25.897 58.812-47.285 3.053-2.8 3.257-7.545.456-10.597-2.801-3.051-7.545-3.256-10.597-.456-22.77 20.892-42.861 35.192-57.69 46.353-9.706 7.305-21.25 11.166-33.384 11.166-14.848 0-28.803-5.778-39.295-16.27l-69.364-69.365c-10.491-10.493-16.27-24.449-16.27-39.297 0-12.134 3.86-23.677 11.164-33.383l17.596-23.38c94.938-126.149 215.251-152.604 241.933-167.068l29.278 29.278c2.93 2.929 7.678 2.929 10.607 0s2.929-7.678 0-10.606c-33.327-33.327-31.163-31.052-32.384-32.657-.007-.009-.014-.016-.02-.025-5.927-7.83-5.413-19.098 1.827-26.338 7.86-7.86 20.579-7.862 28.442-.001l80.666 80.667c7.858 7.856 7.863 20.582-.002 28.444-7.179 7.183-18.45 7.81-26.351 1.814-1.623-1.232.427.701-30.965-30.691-2.929-2.929-7.677-2.929-10.607 0-2.929 2.929-2.929 7.678 0 10.606l27.567 27.568c-13.581 25.265-32.393 109.523-111.675 192.539-2.86 2.996-2.752 7.743.244 10.604 1.452 1.388 3.316 2.076 5.179 2.076 1.977 0 3.951-.777 5.425-2.32 80.636-84.436 101.339-171.26 113.167-194.144 11.094 4.728 23.908 3.525 33.908-3.495v39.386c0 12.407 10.094 22.5 22.5 22.5h30c12.406 0 22.5-10.093 22.5-22.5v-68.167c0-19.801-6.159-38.935-17.478-54.905 26.426-12.473 44.479-39.381 44.479-70.701 0-18.688-6.599-36.759-18.583-50.886zm-23.417 244.659c0 4.136-3.364 7.5-7.5 7.5h-30c-4.136 0-7.5-3.364-7.5-7.5v-68.167c0-9.38-3.652-18.197-10.284-24.828l-74.979-74.98c10.711-8.05 23.972-11.659 37.333-10.123-.781 17.418 5.843 34.227 19.293 46.472 14.067 12.805 33.803 19.019 56.306 13.73 11.199 14.101 17.33 31.583 17.33 49.73v68.166zm-16.836-133.538c-18.53 5.671-34.948 1.523-46.702-9.18-11.655-10.61-16.281-25.648-13.824-40.302 2.5-14.883 12.104-27.34 25.69-33.324 14.99-6.603 24.676-21.406 24.676-37.714 0-1.109.887-2.028 1.917-1.867 29.69 4.661 52.079 31.38 52.079 62.152 0 27.564-18.026 52.333-43.836 60.235z"/><path d="m471.907 47.481c-6.027-7.844-17.99-7.399-23.521.792-5.958 8.824-14.262 15.759-24.012 20.053-10.663 4.696-17.482 15.487-17.373 27.491.155 16.941 14.968 30.546 32.394 29.073h.002c23.89-2.025 42.603-22.986 42.603-47.719 0-10.68-3.585-21.224-10.093-29.69zm-33.776 62.463c-8.734.728-16.056-5.946-16.13-14.263-.055-6.001 3.25-11.35 8.419-13.627 12.144-5.349 22.516-13.934 30.031-24.85 4.229 5.757 6.549 12.818 6.549 19.967 0 17.004-12.681 31.399-28.869 32.773z"/></g></g></svg>