<svg id="Capa_1" enable-background="new 0 0 512 512" height="512" viewBox="0 0 512 512" width="512" xmlns="http://www.w3.org/2000/svg"><g><path d="m493.538 80.613-31.076-31.076-31.076-31.076c-6.76-6.761-15.93-10.559-25.491-10.559h-.003c-9.561 0-18.73 3.798-25.491 10.559l-93.162 93.162 56.568 56.569 56.569 56.568 37.713-37.713 62.761-62.761v-33.114c-1.772-3.891-4.23-7.477-7.312-10.559z" fill="#18c08b"/><g><path d="m302.661 96.202h-151.918v391.596h151.977c76.267-32.261 129.78-107.78 129.78-195.798s-53.573-163.537-129.839-195.798z" fill="#70dcba"/><path d="m172.942 292c0-88.018 53.453-163.537 129.719-195.798-25.425-10.755-53.318-16.702-82.661-16.702-117.361 0-212.5 95.139-212.5 212.5s95.139 212.5 212.5 212.5c29.343 0 57.296-5.947 82.721-16.702-76.266-32.261-129.779-107.78-129.779-195.798z" fill="#18c08b"/></g><path d="m500.85 91.172h-67.202c-25.76 0-40.379 29.876-24.138 50.312 11.182 14.07 20.769 29.353 28.58 45.564 15.51 32.191 24.009 68.044 24.009 105.355 0 58.948-21.175 114.263-57.741 157.224-7.133 8.38-6.74 20.795 1.041 28.576l.007.007c8.624 8.624 22.815 8.162 30.737-1.11 19.112-22.37 34.531-47.45 45.966-74.808 14.592-34.911 21.99-71.883 21.99-109.889v-186.296-.003c-.002-5.202-1.135-10.286-3.249-14.932z" fill="#d4d4ff"/><path d="m297.851 243.638h-9.492v-11.173c-1.4-1.462-2.873-2.959-4.369-4.455-1.508-1.508-2.999-2.975-4.472-4.384h-11.135v-9.458c-8.776-6.13-17.078-8.019-24.569-.528-7.549 7.549-9.178 19.179-5.426 30.527h7.196v13.389c1.258 1.626 2.638 3.203 4.147 4.712s3.086 2.89 4.712 4.148h13.383v7.193c11.352 3.758 22.981 2.128 30.533-5.424 7.535-7.534 5.708-15.712-.508-24.547z" fill="#fff"/><g><path d="m504.098 197.53c4.143 0 7.902-3.358 7.902-7.5v-83.926c0-11.685-5.127-22.765-13.158-30.794l-62.152-62.152c-8.225-8.225-19.162-13.158-30.797-13.158-11.633 0-22.569 4.933-30.795 13.158l-74.24 74.241c-25.512-10.09-52.897-15.399-80.858-15.399-52.278 0-102.946 18.655-142.671 52.528-3.152 2.688-3.528 7.421-.841 10.573 2.687 3.151 7.42 3.529 10.573.841 37.013-31.561 84.225-48.942 132.939-48.942 114.141 0 205 92.942 205 205 0 113.038-91.963 205-205 205s-205-91.962-205-205c.001-50.097 18.265-98.325 51.428-135.799 2.745-3.102 2.456-7.842-.646-10.587-3.104-2.745-7.844-2.456-10.587.646-35.592 40.219-55.194 91.977-55.195 145.74 0 58.764 22.884 114.011 64.437 155.563s96.799 64.437 155.563 64.437 114.011-22.884 155.563-64.437 64.437-96.799 64.437-155.563c0-27.929-5.365-55.321-15.449-80.809l11.174-11.174c12.515 29.235 18.872 60.258 18.872 92.385 0 55.859-19.871 109.97-55.952 152.363-9.544 11.211-9.237 28.058 1.449 38.741.018.018.036.036.055.054 11.873 11.818 31.088 10.824 41.693-1.589 43.697-51.145 70.158-117.856 70.158-189.568v-72.373c0-4.142-3.76-7.5-7.902-7.5s-7.5 3.358-7.5 7.5v72.373c0 67.825-24.588 131.168-66.159 179.825-5.015 5.869-14.125 6.283-19.731.678-.013-.013-.026-.026-.04-.04-4.997-5.029-5.178-12.998-.6-18.378 38.389-45.104 59.53-102.667 59.53-162.085 0-37.981-8.328-74.523-24.752-108.61-8.04-16.684-17.953-32.488-29.466-46.975-12.468-15.691-.937-38.146 18.268-38.146h61.964c.655 2.416.986 4.903.986 7.435v83.923c0 4.142 3.357 7.5 7.5 7.5zm-70.451-113.858c-31.848 0-50.214 37.056-30.011 62.478 9.724 12.235 18.221 25.477 25.33 39.414l-10.876 10.875c-21.658-44.872-57.732-80.952-102.486-102.574l70.1-70.101c5.392-5.392 12.562-8.362 20.19-8.362 7.626 0 14.796 2.97 20.188 8.362l59.908 59.908z"/><circle cx="433.737" cy="122.391" r="7.5"/><path d="m230.358 182.719-7.33 7.33c-2.929 2.929-2.929 7.678 0 10.606 2.93 2.929 7.678 2.929 10.607 0l7.33-7.33c1.519-1.519 2.243-3.526 2.187-5.516l.66.943c2.376 3.393 7.054 4.216 10.445 1.841 3.394-2.376 4.218-7.053 1.842-10.446l-7.208-10.293c-2.376-3.393-7.054-4.216-10.445-1.841-3.394 2.376-4.218 7.053-1.842 10.446l1.813 2.589c-2.694-1.063-5.879-.508-8.059 1.671z"/><path d="m311.344 278.365c-2.929 2.929-2.929 7.678 0 10.606 2.93 2.929 7.678 2.929 10.607 0l7.33-7.33c2.179-2.179 2.734-5.364 1.671-8.058l2.589 1.813c3.393 2.376 8.07 1.551 10.445-1.842 2.376-3.393 1.552-8.069-1.842-10.445l-10.293-7.208c-3.394-2.376-8.069-1.55-10.445 1.842-2.376 3.393-1.552 8.069 1.842 10.445l.943.66c-1.99-.056-3.998.668-5.517 2.186z"/><path d="m289.294 222.707c-8.693-8.692-15.997-15.204-23.393-18.725-12.898-6.142-22.014-1.022-27.391 4.354-24.922 24.923 2.202 74.652 40.937 74.652 9.193 0 17.827-3.111 24.216-9.5 5.377-5.376 10.497-14.492 4.355-27.39-3.521-7.395-10.032-14.7-18.724-23.391zm-40.177-3.764c4.231-4.23 8.491-2.915 13.844.647l-18.501 18.501c-1.507-7.386-.059-14.432 4.657-19.148zm1.818 33.266 23.268-23.268c2.968 2.811 6.414 6.277 8.867 8.846l-23.279 23.279c-3.299-2.439-6.345-5.459-8.856-8.857zm42.123 10.673c-4.717 4.715-11.762 6.164-19.148 4.657l18.529-18.529c5.027 7.6 3.715 10.775.619 13.872z"/></g></g></svg>