<svg id="Capa_1" enable-background="new 0 0 512 512" height="512" viewBox="0 0 512 512" width="512" xmlns="http://www.w3.org/2000/svg"><g><path d="m359.061 57.926h76.414v45.001h-76.414z" fill="#4c5699" transform="matrix(.707 -.707 .707 .707 59.487 304.467)"/><g><path d="m396.988 126.151-31.28-31.279-109.882 89.956v47.05h47.05c8.353 8.349 21.741 6.562 28.497-2.247l4.918-6.413c2.63-3.429 3.734-7.612 3.371-11.671 4.117-.715 7.843-2.952 10.411-6.301l6.867-8.953c2.629-3.43 3.733-7.613 3.37-11.672 4.117-.715 7.843-2.952 10.411-6.302l6.865-8.952c2.63-3.429 3.734-7.612 3.372-11.671 4.117-.716 7.843-2.953 10.411-6.303l6.865-8.951c.027-.035.053-.07.08-.104 3.701-4.903 3.018-11.843-1.326-16.187z" fill="#8288cb"/><path d="m351.544 80.707c-4.344-4.344-11.284-5.027-16.187-1.327-.034.026-.069.052-.103.079l-8.953 6.866c-3.35 2.568-5.587 6.294-6.302 10.411-4.059-.367-8.243.742-11.671 3.371l-8.954 6.865c-3.35 2.569-5.586 6.295-6.301 10.412-4.057-.363-8.242.74-11.671 3.371l-8.952 6.865c-3.351 2.568-5.588 6.295-6.303 10.412-4.051-.36-8.241.743-11.671 3.371l-6.412 4.917c-8.817 6.764-10.588 20.156-2.235 28.509v29.997h29.997c-8.35-8.354-6.578-21.744 2.238-28.506l6.412-4.917c3.43-2.628 7.62-3.731 11.671-3.371.715-4.117 2.952-7.844 6.303-10.412l8.952-6.865c3.429-2.631 7.614-3.734 11.671-3.371.715-4.117 2.951-7.843 6.301-10.412l8.954-6.865c3.428-2.629 7.612-3.738 11.671-3.371.715-4.117 2.952-7.843 6.302-10.411l8.953-6.866c3.428-2.629 7.608-3.737 11.671-3.371z" fill="#676fb2"/></g><path d="m334.6 321.729c-13.957-5.546-26.817-13.827-37.813-24.425l27.758-28.802c6.913 6.663 14.923 11.927 23.593 15.551 6.752 2.823 10.499 10.083 8.852 17.214l-2.279 9.871c-2.062 8.931-11.594 13.975-20.111 10.591z" fill="#8288cb"/><g><g><path d="m217.232 342.657v-70.981h-70.981l-94.642 94.642 117.359 117.894h18.11l39.614-92.433c7.186-16.769 3.44-36.222-9.46-49.122z" fill="#8288cb"/><path d="m146.251 271.675-94.641 94.642c-13.067 13.067-13.067 34.253 0 47.321l81.053 81.053c16.739 16.739 45.091 11.279 54.416-10.479-61.328-52.761-78.242-140.808-40.828-212.537z" fill="#676fb2"/></g><path d="m263.624 277.478 23.889 23.889c3.71 3.71 9.725 3.71 13.435 0l28.994-28.994c3.708-3.708 3.711-9.717.003-13.426l-54.116-54.117h-18.258l-40.339 40.339v97.487l53.032 53.033c11.716 11.716 30.711 11.716 42.427 0l10.607-10.607c5.858-5.857 5.858-15.355 0-21.213-5.857-5.857-15.355-5.857-21.213 0-3.32-3.32-51.519-51.52-73.033-73.033l13.359-13.359c5.858-5.857 15.355-5.857 21.213.001z" fill="#676fb2"/><g><path d="m275.829 204.831-30.195-30.195c-.75-.75-1.768-1.171-2.828-1.171h-46.55c-7.956 0-15.587 3.161-21.213 8.787l-20.006 20.006c-5.626 5.626-8.787 13.257-8.787 21.213v48.206l70.981 70.981c-.511-52.099 20.725-102.05 58.598-137.827zm-99.578 36.311v-17.672l20.005-20.006h17.674c6.682 0 10.028 8.079 5.303 12.803l-30.179 30.179c-4.724 4.724-12.803 1.378-12.803-5.304z" fill="#4c5699"/></g></g><g><ellipse cx="166.432" cy="377.822" fill="#ff8e9e" rx="30.834" ry="24.555" transform="matrix(.707 -.707 .707 .707 -218.414 228.347)"/></g><g><path d="m464.981 34.107-13.768-13.768h-11.204l-23.866 23.866v9.883l19.642 19.642c4.073 4.073 10.676 4.073 14.748 0l14.448-14.448c3.338-3.338 5.214-7.866 5.214-12.586v-.002c0-4.721-1.876-9.249-5.214-12.587z" fill="#8288cb"/><path d="m423.964 47.162 14.448-14.449c3.338-3.338 7.866-5.213 12.587-5.213h.002c4.721 0 9.249 1.875 12.586 5.213l-20-20c-3.337-3.338-7.865-5.213-12.586-5.213h-.002c-4.721 0-9.249 1.875-12.587 5.213l-14.448 14.449c-4.073 4.072-4.073 10.675 0 14.748l19.999 19.999c-4.072-4.074-4.071-10.675.001-14.747z" fill="#676fb2"/></g><g><path d="m215.137 195.964h-15.98c-3.875 0-7.518 1.509-10.254 4.248l-15.904 15.904c-2.738 2.739-4.246 6.38-4.246 10.253v15.98c0 5.886 3.514 11.144 8.95 13.396 1.805.747 3.693 1.11 5.563 1.11 3.767 0 7.458-1.474 10.238-4.254l31.887-31.885c4.161-4.162 5.396-10.365 3.143-15.803-2.253-5.435-7.512-8.949-13.397-8.949zm-31.385 45.178v-14.565l15.611-15.612h14.567z"/><path d="m148.422 334.399c-2.929 2.929-2.929 7.677 0 10.606l8.485 8.485c2.929 2.929 7.677 2.929 10.606 0s2.929-7.678 0-10.607l-8.485-8.485c-2.929-2.928-7.677-2.928-10.606.001z"/><path d="m470.286 28.806-21.395-21.397c-4.778-4.777-11.131-7.409-17.892-7.409-6.759 0-13.112 2.632-17.891 7.41l-14.448 14.448c-5.023 5.024-6.535 12.352-4.131 18.879l-36.172 36.173-1.508-1.508c-7.032-7.03-18.211-7.895-25.964-2.043l-9.147 7.013c-3.17 2.431-5.654 5.566-7.284 9.129-3.861.648-7.527 2.229-10.688 4.653l-8.954 6.866c-3.17 2.432-5.654 5.567-7.284 9.131-3.863.648-7.53 2.229-10.688 4.652l-8.948 6.863c-3.174 2.432-5.659 5.568-7.29 9.135-3.861.649-7.527 2.229-10.687 4.65l-6.414 4.918c-6.176 4.738-10.011 11.915-10.521 19.689-.132 2.008-.034 3.983.271 5.903h-36.994c-10.015 0-19.432 3.9-26.516 10.982l-20.006 20.007c-7.083 7.084-10.983 16.501-10.983 26.517v45.099l-92.444 92.445c-16.009 16.005-16.01 41.914-.001 57.928l81.053 81.053c7.743 7.742 18 12.006 28.883 12.006 16.454 0 31.265-9.748 37.73-24.834l17.203-40.141c1.632-3.807-.132-8.216-3.939-9.848-3.808-1.635-8.216.133-9.848 3.939l-17.203 40.141c-7.187 16.768-29.154 21.194-42.219 8.129l-81.053-81.052c-10.144-10.144-10.151-26.567 0-36.714l89.338-89.338 65.672 65.672c.002.002.003.004.005.006 7.011 7.011 10.872 16.334 10.872 26.254 0 5.047-1.01 9.962-3.002 14.609l-10.594 24.719c-1.632 3.807.132 8.216 3.939 9.848.963.413 1.965.608 2.95.608 2.91 0 5.679-1.704 6.897-4.548l10.594-24.718c2.797-6.525 4.215-13.429 4.215-20.519 0-.131-.009-.261-.01-.392l27.17 27.169c14.653 14.655 38.376 14.66 53.033.001l10.608-10.606c8.772-8.773 8.772-23.047 0-31.82-6.915-6.913-17.247-8.377-25.607-4.395l-42.122-42.122 13.358-13.359 7.98 7.979h-.001c4.945 4.943 12.115 6.196 18.227 3.802 9.525 7.603 20.043 13.716 31.394 18.226 5.946 2.363 12.766 2.123 18.695-.986 5.825-3.054 10.015-8.479 11.493-14.885l2.279-9.872c2.474-10.713-3.105-21.572-13.266-25.821-4.086-1.708-7.973-3.808-11.644-6.264 1.884-5.874.513-12.573-4.139-17.225l-10.405-10.405c4.903-1.726 9.257-4.841 12.48-9.044l4.917-6.412c2.424-3.158 4.005-6.824 4.653-10.688 3.563-1.63 6.699-4.114 9.131-7.284l6.868-8.955c2.422-3.158 4.001-6.824 4.65-10.687 3.562-1.631 6.699-4.115 9.13-7.285l6.866-8.953c2.422-3.159 4.002-6.825 4.651-10.688 3.563-1.63 6.7-4.115 9.131-7.285l6.853-8.935.127-.168c5.885-7.797 5.02-18.979-2.011-26.009l-1.507-1.507 36.179-36.18c6.712 2.461 14.005.744 18.874-4.125l14.448-14.448c9.889-9.886 9.891-25.887.003-35.777zm-220.021 272.637-10.606-10.606 8.056-8.056c2.93-2.93 7.674-2.931 10.606.001l5.302 5.302zm99.417-1.863-2.279 9.872c-.502 2.172-1.866 3.938-3.842 4.975-1.953 1.025-4.153 1.143-6.192.332-8.996-3.575-17.399-8.298-25.108-14.097l17.924-17.924c4.726 3.25 9.751 6.016 15.06 8.236 3.395 1.419 5.261 5.039 4.437 8.606zm-25.043-32.511-28.995 28.994c-.782.784-2.045.784-2.827 0 0 0 0 0-.001 0l-23.889-23.888c-8.792-8.794-23.027-8.795-31.82-.001l-13.358 13.358c-2.929 2.93-2.929 7.678 0 10.607l73.033 73.033c2.93 2.928 7.678 2.928 10.607 0 2.924-2.926 7.682-2.926 10.605 0 2.925 2.924 2.925 7.682.001 10.605l-10.608 10.607c-8.792 8.792-23.025 8.796-31.819-.001l-53.024-53.023c-.003-.003-.006-.006-.009-.009-.001-.001-.003-.002-.004-.004l-68.781-68.78v-45.1c0-6.01 2.341-11.66 6.591-15.91l20.005-20.006c4.25-4.25 9.9-6.59 15.909-6.59h45.101l83.285 83.287c.778.779.776 2.044-.002 2.821zm19.484-66.387c-.691.901-1.534 1.654-2.481 2.238l-12.208-12.208c-2.93-2.928-7.678-2.928-10.607 0-2.929 2.93-2.929 7.678 0 10.607l13.269 13.269c-.246 1.472-.838 2.868-1.756 4.065l-4.918 6.414c-2.108 2.749-5.306 4.456-8.771 4.685-3.196.21-6.21-.918-8.473-3.179l-57.046-57.047c-2.265-2.265-3.396-5.278-3.187-8.484.228-3.465 1.935-6.661 4.682-8.77l6.41-4.915c1.198-.919 2.594-1.513 4.068-1.759l34.508 34.508c2.931 2.929 7.678 2.928 10.607 0 2.929-2.93 2.929-7.678 0-10.607l-33.446-33.446c.584-.947 1.337-1.79 2.24-2.481l8.951-6.865c1.198-.918 2.597-1.508 4.069-1.753l62.709 62.709c-.245 1.473-.837 2.869-1.755 4.065zm48.162-62.804-6.866 8.952c-.691.901-1.533 1.655-2.48 2.238l-4.603-4.603c-2.93-2.928-7.678-2.928-10.607 0-2.929 2.93-2.929 7.678 0 10.607l5.664 5.664c-.246 1.472-.838 2.868-1.756 4.065l-6.866 8.953c-.691.901-1.533 1.654-2.48 2.238l-60.589-60.589c.583-.946 1.336-1.789 2.237-2.479l8.954-6.866c1.2-.92 2.596-1.511 4.066-1.756l29.557 29.557c2.929 2.929 7.677 2.93 10.606.001 2.93-2.93 2.93-7.678.001-10.606l-28.496-28.497c.583-.946 1.337-1.789 2.238-2.48l9.011-6.909c1.857-1.402 4.595-1.126 6.365.643l45.443 45.444c1.771 1.769 2.047 4.506.601 6.423zm-23.322-50.359 35.001-35.001 21.213 21.213-35.001 35.001zm90.715-33.54-14.448 14.448c-1.141 1.143-3 1.143-4.141 0l-11.822-11.822-.002-.002-19.997-19.996c-1.135-1.135-1.151-2.989 0-4.142l14.448-14.448c4.023-4.025 10.544-4.026 14.568-.001l21.393 21.394s.001.001.001.002c4.114 4.111 3.926 10.642 0 14.567z"/></g></g></svg>