<svg id="Capa_1" enable-background="new 0 0 512 512" height="512" viewBox="0 0 512 512" width="512" xmlns="http://www.w3.org/2000/svg"><g><g><g><path d="m138.96 453.176c-6.911 15.857-11.83 33.248-11.83 51.324h128.873v-51.324z" fill="#ffbd86"/></g><g><path d="m256.004 453.176v51.324h128.873c0-18.217-4.261-35.578-11.129-51.324z" fill="#fed2a4"/></g></g><g><path d="m284.14 378.744c5.145 1.15 10.206 2.586 15.171 4.358 31.813 11.357 59.306 35.37 74.437 70.074-9.975 8.769-20.93 17.231-32.529 24.862.45 8.805.681 17.623.681 26.448v.015h-139.194v-85.223z" fill="#30cd9c"/><g><path d="m181.006 399.764c-.074.053-.146.11-.22.164.077-.056.156-.108.234-.164z" fill="#b9bbbc"/><path d="m180.745 399.957c-.003.002-.007.005-.01.007 0 .001 0 .002-.001.003.017-.013.034-.026.052-.039-.013.01-.027.019-.041.029z" fill="#b9bbbc"/><path d="m138.96 453.176c9.941 8.739 20.434 17.175 31.801 24.785-.438 8.62-.67 17.435-.67 26.539h10.644 21.971c.061-54.698 32.279-103.637 81.449-125.763-24.649-5.517-49.231-3.68-71.544 4.366-31.602 11.394-58.537 35.411-73.651 70.073z" fill="#18c08b"/></g></g><path d="m335.754 383.102c-7.007 0-152.519 0-159.509 0-10.834 0-19.617 8.784-19.617 19.618s8.783 19.618 19.617 19.618h159.509c10.834 0 19.617-8.784 19.617-19.618.001-10.834-8.782-19.618-19.617-19.618z" fill="#0caf7b"/><g><path d="m290.912 429.842h-69.826c-17.116 0-27.234-19.174-17.574-33.303l9.099-13.437 43.393-23.28 43.307 23.28 9.176 13.437c9.659 14.129-.459 33.303-17.575 33.303z" fill="#18c08b"/><path d="m256.004 359.822-43.393 23.28c7.608 19.953 22.891 35.778 43.393 46.74 20.5-10.962 35.699-26.789 43.307-46.74z" fill="#ffbd86"/></g><g fill="#ffbd86"><circle cx="101.527" cy="234.807" r="38.406"/><circle cx="410.48" cy="234.807" r="38.406"/></g><g><path d="m281.607 82.441h-29.508c-19.618 0-38.147 9.016-50.254 24.453l-100.318 127.913 100.319 127.913c12.106 15.437 30.636 24.444 50.254 24.444h29.508c6.026-1.007 11.936-2.381 17.704-4.062 64.288-18.748 111.17-78.06 111.17-148.295-.002-76.594-55.745-140.167-128.875-152.366z" fill="#fed2a4"/><path d="m152.734 234.807c0-76.592 55.746-140.166 128.872-152.366-8.329-1.39-16.88-2.112-25.604-2.112-85.313 0-154.475 69.162-154.475 154.478 0 70.244 46.9 129.539 111.084 148.295 13.77 4.024 28.322 6.18 43.392 6.18 8.724 0 17.275-.728 25.604-2.118-73.127-12.2-128.873-75.767-128.873-152.357z" fill="#ffbd86"/></g><g><path d="m346.614 26.505c-12.524-4.787-25.124-9.391-39.164-12.869h-21.288l-62.812 77.95v87.01h182.394v-79.92c-.001-29.763-23.623-58.654-59.13-72.171z" fill="#70dcba"/><path d="m307.45 13.635c-14.957-3.706-31.55-6.135-51.447-6.135-37.926 0-63.869 8.783-90.611 19.005-35.506 13.517-59.129 42.407-59.129 72.17v79.921h138.375v-87.01c0-31.963 25.032-62.988 62.812-77.951z" fill="#18c08b"/></g><g><path d="m85.263 208.204c-6.358-11.598-2.112-26.155 9.487-32.514 50.014-27.421 102.786-40.439 161.254-39.862 58.487-.597 111.241 12.441 161.254 39.863 11.598 6.359 15.845 20.916 9.486 32.514-6.358 11.598-20.917 15.847-32.514 9.486-42.683-23.402-87.807-34.52-137.965-33.964-.175.002-.348.002-.523 0-50.146-.555-95.281 10.562-137.965 33.964-11.605 6.362-26.158 2.106-32.514-9.487z" fill="#0caf7b"/></g><g><circle cx="286.004" cy="457.087" r="7.5"/><circle cx="286.004" cy="489.5" r="7.5"/><path d="m193.555 241c-4.142 0-7.5 3.358-7.5 7.5v12c0 4.142 3.358 7.5 7.5 7.5s7.5-3.358 7.5-7.5v-12c0-4.142-3.358-7.5-7.5-7.5z"/><path d="m318.452 241c-4.142 0-7.5 3.358-7.5 7.5v12c0 4.142 3.358 7.5 7.5 7.5s7.5-3.358 7.5-7.5v-12c0-4.142-3.358-7.5-7.5-7.5z"/><path d="m277.396 254.488c-3.123-2.721-7.861-2.396-10.582.727-5.725 6.569-15.898 6.567-21.62 0-2.722-3.123-7.459-3.447-10.582-.727-3.123 2.722-3.448 7.459-.727 10.582 11.704 13.43 32.544 13.418 44.237 0 2.721-3.123 2.396-7.86-.726-10.582z"/><path d="m437.186 197.505c.327-11.65-5.821-22.633-16.323-28.392-2.45-1.343-5.004-2.696-7.619-4.045v-66.393c0-32.796-25.704-64.616-63.952-79.176-27.91-10.668-54.194-19.499-93.288-19.499-39.042 0-66.406 9.224-93.279 19.496-38.258 14.564-63.962 46.384-63.962 79.179v14.506c0 4.142 3.358 7.5 7.5 7.5s7.5-3.358 7.5-7.5v-14.506c0-26.611 21.821-52.797 54.308-65.164 26.495-10.128 51.399-18.511 87.933-18.511s61.438 8.383 87.942 18.514c32.478 12.363 54.298 38.549 54.298 65.161v59.102c-44.45-20.308-91.095-29.953-142.243-29.449-51.152-.482-97.812 9.16-142.238 29.451v-14.598c0-4.142-3.358-7.5-7.5-7.5s-7.5 3.358-7.5 7.5v21.888c-2.618 1.35-5.172 2.703-7.619 4.044-10.502 5.758-16.65 16.741-16.324 28.392-35.87 25.721-18.118 82.433 25.911 83.188 11.823 39.833 38.662 74.108 75.156 94.918-14.788.193-26.76 12.276-26.76 27.109 0 4.967 1.348 9.622 3.689 13.629-20.477 24.696-33.186 58.975-33.186 88.15 0 4.142 3.358 7.5 7.5 7.5h257.746c4.143 0 7.5-3.358 7.5-7.5 0-3.019-.112-6.093-.334-9.137-.302-4.131-3.877-7.238-8.025-6.935-4.132.301-7.236 3.894-6.936 8.025.014.182.026.365.039.547h-27.783c-.073-5.008-.211-10.049-.428-15.083 7.383-5.017 14.639-10.454 21.689-16.237.366 1.05.718 2.099 1.053 3.147 1.262 3.943 5.48 6.119 9.43 4.856 3.944-1.263 6.119-5.485 4.855-9.43-5.54-17.309-14.297-33.807-26.531-48.291 2.203-3.919 3.466-8.435 3.466-13.241 0-14.844-11.99-26.935-26.792-27.11 36.514-20.805 63.367-55.078 75.195-94.918 44.013-.753 61.777-57.471 25.912-83.187zm-357.7 15.67c3.517 5.724 8.692 10.093 14.808 12.596-.742 13.485.203 26.767 2.686 39.604-24.826-3.677-35.212-34.122-17.494-52.2zm96.759 177.427h22.229c-5.057 7.469-7.589 14.853-5.476 24.236h-16.754c-6.682 0-12.117-5.436-12.117-12.118.001-6.682 5.437-12.118 12.118-12.118zm-13.594 106.398h-27.727c.782-10.045 3.138-20.404 7.111-31.321 7.239 6.032 14.198 11.366 21.039 16.116-.215 5.036-.352 10.119-.423 15.205zm85.853 0h-70.853c.09-6.256.288-12.505.601-18.658.134-2.634-1.126-5.146-3.318-6.613-8.622-5.772-17.429-12.518-26.802-20.529 4.301-8.847 9.523-17.027 15.569-24.45 3.754 1.968 8.02 3.088 12.545 3.088h25.461c5.212 4.757 12.074 7.505 19.379 7.505h27.417v59.657zm-38.781-96.256 1.775-2.621c5.166 8.958 11.978 17.089 20.261 24.22h-10.673c-11.048 0-17.67-12.374-11.363-21.599zm16.916-6.631c9.647 1.767 19.47 2.669 29.363 2.669 9.847 0 19.647-.904 29.294-2.674-6.964 10.672-16.866 19.885-29.293 27.144-12.468-7.277-22.393-16.486-29.364-27.139zm73.818 3.967c1.768 2.589 6.963 8.717 2.647 16.897-2.434 4.612-6.991 7.366-12.191 7.366h-10.693c8.269-7.136 15.074-15.281 20.237-24.263zm64.108 53.106c-8.849 7.488-18.067 14.4-27.469 20.585-2.223 1.462-3.504 3.992-3.368 6.648.317 6.191.517 12.413.609 18.58h-48.334-22.5v-59.657h27.409c7.306 0 14.167-2.748 19.379-7.505h25.463c4.68 0 9.087-1.192 12.933-3.288 6.21 7.499 11.537 15.742 15.878 24.637zm-16.693-48.466c0 6.682-5.436 12.118-12.117 12.118h-16.755c2.114-9.383-.43-16.831-5.486-24.236h22.241c6.681 0 12.117 5.436 12.117 12.118zm-91.87-20.938c-84.801 0-150.577-71.11-146.805-153.8 4.249-.4 8.412-1.647 12.185-3.715 46.063-25.254 86.517-32.424 134.965-33.042 48.816-.529 92.737 10.266 134.276 33.041 3.772 2.069 7.935 3.313 12.186 3.713 3.789 83.028-62.392 153.803-146.807 153.803zm141.834-170.668c-46.773-25.643-91.396-34.887-142.01-34.887-51.452-.576-97.797 10.842-141.653 34.887-7.953 4.358-17.963 1.454-22.333-6.516-4.346-7.93-1.532-17.919 6.516-22.332 50.832-27.874 102.7-39.479 157.574-38.939.05.001.101.001.151 0 56.477-.579 108.036 11.784 157.572 38.939 8.037 4.406 10.867 14.392 6.516 22.332-4.369 7.965-14.37 10.884-22.333 6.516zm17.191 54.262c2.483-12.837 3.429-26.119 2.687-39.604 6.115-2.503 11.29-6.872 14.807-12.597 17.717 18.076 7.333 48.524-17.494 52.201z"/><path d="m270.974 31.691c-1.15-3.539-4.683-5.63-8.243-5.093-.59-3.553-3.669-6.266-7.39-6.266s-6.8 2.712-7.39 6.266c-3.563-.539-7.093 1.553-8.243 5.092s.478 7.305 3.676 8.964c-1.612 3.221-.715 7.226 2.295 9.413 1.332.967 2.874 1.433 4.402 1.433 1.929 0 3.828-.752 5.26-2.163 1.431 1.411 3.331 2.163 5.26 2.163 1.528 0 3.071-.466 4.402-1.433 3.01-2.187 3.908-6.192 2.296-9.413 3.196-1.658 4.825-5.424 3.675-8.963z"/><path d="m227.758 107.064 25 11.999c2.05.985 4.439.985 6.491 0l25-11.999c3.734-1.792 5.308-6.273 3.516-10.007-1.793-3.735-6.273-5.307-10.007-3.516l-21.754 10.442-21.754-10.442c-3.734-1.791-8.214-.217-10.007 3.516-1.793 3.735-.219 8.215 3.515 10.007z"/><path d="m224.242 63.78c-1.792 3.734-.218 8.215 3.516 10.007l25 12c2.05.985 4.439.985 6.491 0l24.673-11.843c2.703-1.134 4.601-3.804 4.601-6.918 0-5.515-5.806-9.14-10.766-6.761l-21.754 10.442-21.754-10.442c-3.734-1.793-8.215-.219-10.007 3.515z"/></g></g></svg>