<svg id="Capa_1" enable-background="new 0 0 512 512" height="512" viewBox="0 0 512 512" width="512" xmlns="http://www.w3.org/2000/svg"><g><g><path d="m500.106 11.893c-5.857-5.857-15.355-5.857-21.213 0l-5.607 5.607-8.313 8.313 21.213 21.213 8.314-8.314 5.606-5.606c5.859-5.857 5.859-15.356 0-21.213z" fill="#8288cb"/><path d="m414.5 165.203c44.183 0 80-35.817 80-80v-46.491l-21.214-21.212-58.786 30z" fill="#ff8e9e"/><path d="m473.286 17.5h-46.49c-44.183 0-80 35.817-80 80v31.819l35.884 35.884h31.82c0-54.938 21.036-107.79 58.786-147.703z" fill="#ea5b70"/></g><g><path d="m358.756 196.759h23.661v-23.66c-5.39-5.39-48.094-48.094-55.346-55.346l-209.765 209.766c-2.777 2.776-2.777 7.278 0 10.055l-78.987 22.066 23.535 23.535 64.376-17.911-41.144 41.144 20.506 20.506 41.144-41.144-16.21 66.077 23.766 23.766 22.907-87.721h14.085v-23.661l58.335-58.335h23.661.001l54.988 54.988c5.858 5.857 15.355 5.857 21.213 0l10.606-10.607c5.858-5.858 5.858-15.355 0-21.213l-7.668-7.668 11.829-11.83c19.601-19.601 19.601-51.38.001-70.981l-11.83-11.831v-23.661zm-18.165 89.146-11.83 11.83-23.661-23.66v-23.661h23.661l11.83 11.83c6.524 6.525 6.524 17.138 0 23.661z" fill="#0caf7b"/><path d="m382.417 196.759c-18.55-18.55-48.626-18.55-67.176 0l-123.957 123.957c-18.55 18.55-18.55 48.625 0 67.176z" fill="#30cd9c"/></g><g><path d="m346.558 97.261c-8.787-8.787-23.033-8.787-31.819 0s-8.787 23.033 0 31.819l42 42 31.819-31.819z" fill="#0caf7b"/><path d="m414.739 197.261c8.787-8.787 8.787-23.033 0-31.819l-26.181-26.181c-8.787-8.787-23.033-8.787-31.819 0s-8.787 23.033 0 31.819l26.181 26.181c8.786 8.787 23.032 8.787 31.819 0z" fill="#30cd9c"/></g><g><path d="m123.111 319.719c-5.857-5.857-15.355-5.857-21.213 0s-5.858 15.355 0 21.213l40 40 21.213-21.213z" fill="#18c08b"/><path d="m193.111 410.932c5.858-5.857 5.858-15.355 0-21.213l-30-30c-5.857-5.857-15.355-5.857-21.213 0s-5.858 15.355 0 21.213l30 30c5.858 5.857 15.355 5.858 21.213 0z" fill="#30cd9c"/></g><g><path d="m45.909 357.91c-8.787-8.787-23.033-8.787-31.819 0s-8.787 23.033 0 31.819l60 60 31.819-31.819z" fill="#0caf7b"/><path d="m154.09 497.91c8.787-8.787 8.787-23.033 0-31.819l-48.181-48.181c-8.787-8.787-23.033-8.787-31.819 0s-8.787 23.033 0 31.819l48.181 48.181c8.786 8.787 23.032 8.787 31.819 0z" fill="#30cd9c"/></g><g><path d="m460.158 116.864 3.4-3.369c2.942-2.916 2.965-7.664.05-10.607-2.916-2.944-7.665-2.963-10.606-.05l-3.4 3.369c-2.942 2.916-2.965 7.664-.05 10.607s7.664 2.965 10.606.05z"/><path d="m398.317 47.38-3.399 3.37c-2.941 2.916-2.962 7.665-.046 10.607 1.467 1.48 3.396 2.22 5.326 2.22 1.908 0 3.818-.724 5.28-2.174l3.399-3.37c2.941-2.916 2.962-7.665.046-10.607-2.917-2.941-7.666-2.964-10.606-.046z"/><path d="m422.934 81.262c-2.929-2.929-7.678-2.93-10.606-.001-2.93 2.929-2.93 7.677-.001 10.607 1.388 1.389 1.388 3.647 0 5.034-1.389 1.391-3.644 1.39-5.033.001-2.929-2.929-7.678-2.93-10.606-.001-2.93 2.929-2.93 7.677-.001 10.607 7.252 7.255 18.993 7.254 26.248.001 2.929-2.93 4.651-6.606 5.209-10.421 15.077-2.182 21.184-20.713 10.432-31.468-2.929-2.929-7.678-2.93-10.606-.001-2.93 2.929-2.93 7.677-.001 10.607 1.388 1.388 1.388 3.647 0 5.034-1.391 1.39-3.646 1.39-5.035.001z"/><path d="m512 22.489c0-6.011-2.341-11.661-6.59-15.91-8.773-8.772-23.047-8.772-31.82 0l-3.411 3.411h-43.382c-26.534 0-51.337 11.841-68.048 32.488-2.605 3.22-2.108 7.943 1.111 10.549 3.222 2.607 7.942 2.108 10.549-1.111 13.849-17.112 34.401-26.925 56.388-26.925h43.383l16.82 16.818v43.386c0 38.961-30.894 70.828-69.469 72.424l-63.167-63.168c.264-6.389 1.354-12.678 3.258-18.737 1.243-3.951-.953-8.162-4.904-9.404-3.953-1.242-8.162.953-9.404 4.904-1.39 4.421-2.414 8.944-3.084 13.53-10.459-3.507-22.48-1.109-30.795 7.206-10.045 10.046-11.455 25.498-4.246 37.071l-181.689 181.692c-8.57-4.8-19.626-3.58-26.904 3.698-5.942 5.94-8.145 14.563-5.459 22.682l-43.829 12.244c-11.694-8.244-28.134-7.12-38.522 3.266-5.665 5.667-8.786 13.2-8.786 21.214s3.121 15.547 8.787 21.213l108.18 108.182c5.666 5.667 13.199 8.788 21.213 8.788s15.547-3.121 21.214-8.787c9.866-9.868 11.309-24.729 4.857-36.054l11.823-45.279c20.126 5.967 36.445-16.286 25.425-33.598l30.445-30.445c2.929-2.93 2.929-7.678 0-10.608-2.93-2.928-7.678-2.928-10.607 0l-30.052 30.052-56.568-56.569 180.525-180.529 56.568 56.569-129.26 129.263c-2.929 2.93-2.929 7.678 0 10.608 2.931 2.929 7.678 2.928 10.607 0l20.124-20.125 49.685 49.686c8.774 8.773 23.047 8.772 31.82 0l10.606-10.607c8.791-8.791 8.796-23.026 0-31.82l-2.364-2.365 6.526-6.526c22.492-22.494 22.493-59.095.001-81.589l-6.527-6.527 19.943-19.944c11.669 7.268 27.088 5.734 37.07-4.246 8.314-8.315 10.712-20.335 7.206-30.795 42.228-6.191 74.753-42.651 74.753-86.571v-43.385l3.409-3.41c4.25-4.248 6.591-9.899 6.591-15.91zm-359.728 431.174-11.618-11.618 10.195-41.559 12.139 12.139zm-31.411-31.412 12.196-12.196-4.805 19.587zm-10.608-10.608-9.898-9.899 25.876-25.877 9.898 9.899zm-26.718-26.719 17.214-4.789-11.001 11.002c-3.772-3.771-4.985-4.985-6.213-6.213zm-12.18-12.181c-4.853-4.853-8.556-8.556-11.372-11.372l40.451-11.301 11.408 11.408zm77.432 119.862c-5.861 5.864-15.349 5.865-21.212 0l-108.181-108.183c-2.833-2.833-4.394-6.6-4.394-10.606 0-4.007 1.561-7.774 4.395-10.607 5.723-5.725 15.138-5.82 20.974-.21.094.091.188.178.283.263 1.18 1.166 6.692 6.681 108.136 108.13h.001c5.735 5.737 5.941 15.272-.002 21.213zm39.021-86.98c-2.924 2.926-7.682 2.926-10.605 0l-69.262-69.262c-3.952-3.952-3.626-8.459-.738-11.345 2.921-2.923 7.682-2.926 10.605 0l70 70.001h.001c2.931 2.931 2.931 7.676-.001 10.606zm147.48-138.082c3.598 3.598 3.598 9.456-.001 13.053l-6.526 6.527-13.054-13.053 13.054-13.054zm23.661-23.661c16.645 16.647 16.645 43.731-.001 60.377l-11.829 11.83c-2.929 2.929-2.929 7.677 0 10.606l7.668 7.669c2.93 2.93 2.931 7.675-.001 10.606l-10.606 10.607c-2.93 2.932-7.675 2.932-10.605 0l-49.685-49.685 21.213-21.213 18.358 18.357c2.928 2.928 7.676 2.928 10.606 0l11.829-11.83c9.462-9.461 9.462-24.807.001-34.268l-6.526-6.527 13.054-13.054zm50.486-51.931c-5.861 5.863-15.35 5.863-21.211 0l-68.182-68.183c-5.863-5.861-5.863-15.351 0-21.211 5.846-5.849 15.365-5.85 21.213 0l68.18 68.181c5.848 5.849 5.848 15.364 0 21.213zm74.458-174.461c3.56-3.557 8.216-2.997 10.91-.304 2.691 2.691 3.273 7.329-.304 10.909z"/></g></g></svg>