<svg id="Capa_1" enable-background="new 0 0 512 512" height="512" viewBox="0 0 512 512" width="512" xmlns="http://www.w3.org/2000/svg"><g><g><path d="m256.451 7.504-40.051 18.736v147.88l39.599 18.285v95.095h.001c118.741 0 215-62.68 215-140 0-77.222-96.016-139.838-214.549-139.996z" fill="#efedff"/><path d="m227.714 174.121v-97.881c0-25.612 10.174-50.175 28.285-68.285l.452-.452c-.151 0-.3-.004-.451-.004-118.741 0-215 62.68-215 140s96.258 140 214.999 140v-45.094c-18.11-18.109-28.285-42.672-28.285-68.284z" fill="#d4d4ff"/></g><g><path d="m380.684 504.5c0-17.642-3.696-34.433-10.334-49.657-7.179-16.464-17.907-31.244-31.338-43.261h-137.426v92.918z" fill="#efedff"/><path d="m173.002 411.582c-13.459 12.017-24.151 26.746-31.352 43.262-6.638 15.224-10.333 32.014-10.333 49.656h73.119c.041-36.281 14.553-68.987 37.832-92.918z" fill="#d4d4ff"/></g><g><path d="m200.491 387.075c-11.787 0-23.459 2.315-34.353 6.814l-32.148 13.276c-8.558 3.534-13.116 13.205-9.87 21.875 3.394 9.065 13.587 13.451 22.462 9.786l36.056-14.89h73.362v-36.862h-55.509z" fill="#ffb357"/><path d="m378.416 407.336-32.561-13.447c-10.894-4.499-22.566-6.814-34.353-6.814h-55.502v36.862h73.354l35.644 14.72c8.557 3.534 18.611-.102 22.429-8.537 3.991-8.819-.136-19.119-9.011-22.784z" fill="#ffce71"/></g><path d="m289.774 432.269h-67.557c-12.144 0-20.632-9.975-20.632-20.687 0-3.869 1.137-7.889 3.629-11.534l8.866-12.968 41.92-22.555 41.911 22.556 8.866 12.968c2.492 3.646 3.629 7.848 3.629 11.534 0 10.73-8.489 20.686-20.632 20.686z" fill="#efedff"/><g><g fill="#ffcbbe"><path d="m106.545 206.416c-20.521 0-37.157 16.636-37.157 37.157s16.636 37.157 37.157 37.157 37.157-16.636 37.157-37.157c0-18.967-14.212-34.615-32.567-36.877-1.505-.185-3.036-.28-4.59-.28z"/><circle cx="405.455" cy="243.573" r="37.157"/></g><g><g><path d="m129.299 206.696v65.891l74.304 94.742c11.713 14.935 29.64 23.65 48.62 23.65h28.548c42.969-7.182 79.692-32.656 101.933-68.118v-116.165z" fill="#ffddcf"/></g><path d="m156.088 243.573c0-12.727 1.591-25.082 4.585-36.878h-31.374v116.165c26.428 42.142 73.288 70.168 126.7 70.168 8.44 0 16.713-.705 24.772-2.049-70.75-11.804-124.683-73.305-124.683-147.406z" fill="#ffcbbe"/></g><g><path d="m400.872 206.696h-43.941l2.289.995c7.702 3.347 12.851 10.708 13.483 19.082 1.676 22.225-.574 44.744-6.843 66.5-2.694 9.351.549 19.516 8.458 25.561 2.502 1.913 5.366 3.241 8.386 4.027 14.416-22.986 22.751-50.166 22.751-79.287 0-12.727-1.59-25.082-4.583-36.878z" fill="#d6948c"/><path d="m146.139 293.272c-6.269-21.755-8.519-44.275-6.843-66.5.632-8.374 5.781-15.735 13.483-19.082l2.29-.995h-43.934c-2.994 11.796-4.59 24.15-4.59 36.877 0 29.128 8.342 56.304 22.754 79.286 3.019-.786 5.881-2.115 8.383-4.026 7.908-6.044 11.151-16.209 8.457-25.56z" fill="#ce857a"/></g></g><g><path d="m233.375 206.696h167.497c-19.162-53.412-78.056-90-144.868-90-9.626 0-19.087.764-28.289 2.224l-11.315 11.314v61.167z" fill="#8288cb"/><path d="m227.714 118.92c-54.668 8.673-100.178 42.06-116.579 87.776h122.24c-3.711-10.355-5.66-21.365-5.66-32.575v-55.201z" fill="#676fb2"/></g><g><path d="m256 170.984c-9.68-.106-19.098.212-28.286.919l-11.261 7.836v45.252l39.547 17.416c51.516.562 98.964-10.542 144.872-35.711-44.756-24.539-92.018-36.29-144.872-35.712z" fill="#676fb2"/><path d="m227.714 174.121v-2.218c-43.292 3.331-81.377 15.492-116.579 34.793 42.673 23.396 89.575 36.315 144.865 35.711l-.001-.001c-18.11-18.11-28.285-42.673-28.285-68.285z" fill="#4c5699"/></g><g><path d="m286.166 291.51h-30.166-30.166c-13.303 15.885-21.319 36.348-21.319 58.689 0 19.117 5.865 36.863 15.893 51.54 4.285 6.271 11.383 10.033 18.979 10.033l3.114 3.53c7.166 8.124 19.832 8.124 26.998 0l3.114-3.53c7.596 0 14.694-3.762 18.979-10.033 10.028-14.677 15.893-32.423 15.893-51.54-.001-22.341-8.017-42.803-21.319-58.689z" fill="#ce857a"/><path d="m294.383 284.993c-5.521 0-10.698-2.368-14.596-6.278-2.897-2.906-6.904-4.705-11.333-4.705-5.031 0-9.518 2.322-12.453 5.952-2.935-3.629-7.422-5.952-12.453-5.952-4.428 0-8.435 1.799-11.333 4.705-3.898 3.91-9.075 6.278-14.596 6.278-2.485 0-4.337 2.278-3.852 4.715 2.191 11.006 11.904 19.302 23.555 19.302 7.547 0 14.277-3.484 18.68-8.927 4.403 5.444 11.133 8.928 18.68 8.927 11.65 0 21.363-8.295 23.555-19.302.483-2.437-1.37-4.715-3.854-4.715z" fill="#d6948c"/></g><g><path d="m317.406 504.5h-30v-15c0-8.284 6.716-15 15-15h15l10 15z" fill="#ffb357"/><path d="m347.406 504.5h-30v-30h15c8.284 0 15 6.716 15 15z" fill="#ffce71"/></g><g><path d="m191.689 254.903c-4.142 0-7.5 3.358-7.5 7.5v9.358c0 4.142 3.358 7.5 7.5 7.5s7.5-3.358 7.5-7.5v-9.358c0-4.142-3.358-7.5-7.5-7.5z"/><path d="m320.311 254.903c-4.142 0-7.5 3.358-7.5 7.5v9.358c0 4.142 3.358 7.5 7.5 7.5s7.5-3.358 7.5-7.5v-9.358c0-4.142-3.358-7.5-7.5-7.5z"/><path d="m243.825 74.188c-2.929-2.929-7.678-2.929-10.606 0-2.929 2.929-2.929 7.678 0 10.606 12.5 12.501 32.884 12.507 45.391 0 2.929-2.929 2.929-7.678 0-10.606-2.929-2.929-7.678-2.929-10.606 0-1.374 1.374-2.932 2.449-4.589 3.257v-22.441h3.75c4.142 0 7.5-3.358 7.5-7.5s-3.358-7.5-7.5-7.5h-3.75v-2.5c0-4.142-3.358-7.5-7.5-7.5s-7.5 3.358-7.5 7.5v2.5h-3.75c-4.142 0-7.5 3.358-7.5 7.5s3.358 7.5 7.5 7.5h3.75v22.441c-1.657-.808-3.215-1.882-4.59-3.257z"/><path d="m478.5 147.5c0-78.132-92.11-146.428-222.5-147.5-68.929 0-132.786 20.54-175.198 56.352-3.165 2.672-3.564 7.404-.892 10.569 2.673 3.165 7.405 3.564 10.569.892 43.968-37.127 108.449-53.315 165.521-52.809 114.173.153 207.5 59.59 207.5 132.496 0 22.658-9.116 44.823-26.455 64.536-8.488-8.512-19.726-12.967-31.122-13.091-23.342-56.754-86.242-89.749-149.919-89.749-65.161 0-127.05 34.156-149.915 89.738-11.262.123-22.541 4.49-31.132 13.102-17.34-19.713-26.457-41.878-26.457-64.536 0-20.822 7.437-40.788 22.108-59.343 2.569-3.249 2.018-7.966-1.232-10.535-3.249-2.569-7.965-2.018-10.535 1.232-16.579 20.969-25.341 44.707-25.341 68.646 0 27.447 11.262 54.01 32.626 77.138-2.753 5.869-4.239 12.322-4.239 18.936 0 24.004 19.088 44.024 43.582 44.621 11.65 39.255 38.437 73.229 75.559 93.338-6.047 1.232-11.979 3.04-17.754 5.425l-32.147 13.276c-12.322 5.088-18.617 19.191-14.031 31.438 3.166 8.457 10.429 14.134 18.831 15.597-8.38 17.616-12.774 37.561-12.774 57.232 0 4.142 3.358 7.5 7.5 7.5h249.368c4.143 0 7.5-3.358 7.5-7.5 0-7.579-.654-15.853-1.943-23.283-.708-4.081-4.59-6.814-8.672-6.107-4.081.708-6.815 4.591-6.107 8.672.718 4.136 1.214 9 1.483 13.217h-17.376v-7.5c0-12.407-10.094-22.5-22.5-22.5-10.856 0-19.145 0-30 0-12.407 0-22.5 10.093-22.5 22.5v7.5h-16.406v-57.23h26.274c7.633 0 14.762-3.076 19.956-8.333h18.137l27.375 11.305c2.792 4.541 5.301 9.276 7.435 14.129 1.236 2.809 3.985 4.482 6.869 4.482 1.009 0 2.034-.205 3.017-.637 3.791-1.668 5.513-6.094 3.845-9.885-.525-1.194-1.086-2.375-1.649-3.556 8.312-1.025 15.908-6.127 19.5-14.063 5.738-12.682-.158-27.513-12.981-32.809l-32.561-13.446c-5.786-2.389-11.729-4.2-17.789-5.432 25.429-13.794 46.662-34.436 61.33-60.056 6.073-10.609 10.821-21.771 14.236-33.274 24.497-.58 43.619-20.589 43.619-44.622 0-6.614-1.486-13.068-4.239-18.937 21.364-23.126 32.626-49.688 32.626-77.136zm-376.761 125.348c-14.179-2.271-24.851-14.686-24.851-29.275 0-14.559 10.695-27.029 24.897-29.292-3.779 19.852-3.636 39.665-.046 58.567zm223.167 209.152h7.5c4.136 0 7.5 3.364 7.5 7.5v7.5h-15zm-30 7.5c0-4.136 3.364-7.5 7.5-7.5h7.5v15h-15zm-38.903-365.304c54.802 0 104.689 26.32 128.681 65.973-40.141-18.423-82.441-27.182-128.684-26.685-46.217-.487-88.533 8.265-128.679 26.686 23.992-39.653 73.879-65.974 128.682-65.974zm128.556 82.498c-41.19 20.067-83.219 28.702-128.477 28.213-.055-.001-.109-.001-.164 0-46.243.501-88.108-8.534-128.473-28.212 39.958-19.475 82.134-28.717 128.473-28.211.055.001.109.001.164 0 46.353-.498 88.52 8.737 128.477 28.21zm-252.214 106.697c-15.889-28.16-22.195-61.73-15.985-95.465 5.16 2.619 10.369 5.083 15.592 7.376-2.148 15.813-.049 45.65 6.981 70.047 1.859 6.454-.404 13.95-6.588 18.042zm-1.2 113.02c-1.78-4.755.78-10.278 5.708-12.313l32.148-13.276c9.842-4.065 20.222-6.151 30.86-6.231-4.489 6.566-6.782 13.418-5.321 21.847h-11.902c-.982 0-1.955.193-2.863.568l-36.057 14.89c-4.966 2.052-10.667-.393-12.573-5.485zm117.355 70.589h-68.049c.183-11.61.753-23.551 1.742-34.908.359-4.126-2.694-7.763-6.821-8.123-4.122-.364-7.763 2.693-8.123 6.821-1.028 11.792-1.617 24.159-1.801 36.209h-27.056c1.198-18.689 6.872-37.448 16.582-53.525l29.151-12.038h18.141c5.195 5.257 12.321 8.333 19.95 8.333h26.284zm-37.094-92.719.868-1.27c5.644 8.925 12.78 14.783 23.543 16.052 1.325 1.502 3.033 3.594 6.283 5.707h-19.884c-10.515 0-16.763-11.78-10.81-20.489zm55.582 2.53-3.114 3.53c-4.183 4.743-11.557 4.753-15.749 0l-3.114-3.53c-1.424-1.614-3.472-2.539-5.625-2.539-5.112 0-9.893-2.529-12.787-6.764-17.579-25.729-19.137-58.627-5.413-85.465 11.197 6.692 24.92 5.643 34.812-1.659 9.916 7.32 23.638 8.338 34.813 1.658 13.926 27.163 12.074 59.87-5.413 85.466-2.894 4.235-7.674 6.764-12.787 6.764-2.151 0-4.199.925-5.623 2.539zm-44.6-114.742c5.619-1.006 10.873-3.781 15.137-8.059 3.543-3.553 9.421-3.316 12.644.668 3.003 3.712 8.666 3.704 11.662 0 3.172-3.921 9.035-4.288 12.644-.668 4.265 4.277 9.518 7.052 15.137 8.059-5.203 10.953-20.109 12.784-27.78 3.297-3.001-3.712-8.666-3.706-11.663 0-7.672 9.487-22.567 7.68-27.781-3.297zm67.386 132.701h-19.875c3.224-2.096 4.925-4.166 6.283-5.707 10.733-1.265 17.884-7.108 23.539-16.045l.864 1.263c5.949 8.7-.275 20.489-10.811 20.489zm53.218-23.948 32.561 13.446c4.967 2.051 7.284 7.803 5.041 12.76-2.093 4.625-7.805 6.732-12.733 4.697l-35.644-14.72c-.907-.375-1.88-.568-2.862-.568h-11.902c1.472-8.493-.876-15.345-5.322-21.847 10.638.08 21.018 2.167 30.861 6.232zm-30.86-26.838c6.064-24.39 2.659-50.551-10.283-73.028 1.751-2.969 3.039-6.258 3.74-9.782 1.409-7.071-3.988-13.68-11.207-13.68-3.369 0-6.667-1.447-9.285-4.073-7.703-7.726-19.76-9.165-29.097-3.333-9.328-5.826-21.397-4.391-29.098 3.333-2.619 2.626-5.917 4.073-9.286 4.073-7.211 0-12.617 6.601-11.207 13.68.702 3.525 1.99 6.815 3.741 9.784-12.941 22.505-16.252 48.69-10.235 73.058-24.488-10.487-44.794-27.31-59.507-47.953 11.731-7.608 16.645-21.996 12.937-34.866-6.417-22.27-7.901-46.92-6.966-60.02 35.687 13.468 71.793 19.131 109.621 18.732 39.159.412 75.065-5.718 109.502-18.693.834 12.21.117 35.809-6.848 59.981-3.743 12.996 1.306 27.253 12.831 34.796-14.687 20.667-34.942 37.505-59.353 47.991zm67.404-60.675c-6.076-4.101-8.322-11.526-6.469-17.96 8.077-28.03 8.788-55.89 6.924-70.025 5.237-2.296 10.457-4.763 15.623-7.383 6.084 33.711-.247 67.239-16.078 95.368zm30.683-40.454c3.628-19.151 3.657-38.969-.023-58.566 14.189 2.242 24.918 14.68 24.918 29.284-.001 14.681-10.761 27.038-24.895 29.282z"/></g></g></svg>