<svg id="Capa_1" enable-background="new 0 0 512 512" height="512" viewBox="0 0 512 512" width="512" xmlns="http://www.w3.org/2000/svg"><g><g><path d="m256 482.863c29.936 15.828 20.08 10.617 33.127 17.515 25.68 13.578 55.695-8.353 50.79-37.111l-6.327-37.098 26.801-26.272c20.776-20.367 9.312-55.852-19.401-60.048l-37.036-5.412h-76.981v133.001z" fill="#ffce71"/><path d="m243.99 397.023c9.351-28.943 31.447-52.006 59.963-62.587l-12.493-25.457-4.071-8.295c-6.399-13.04-18.901-19.595-31.39-19.612-12.471-.001-24.964 6.517-31.391 19.612l-4.071 8.295-12.493 25.457-37.036 5.412c-28.712 4.196-40.176 39.681-19.401 60.048l26.8 26.272-6.326 37.098c-4.905 28.758 25.11 50.69 50.791 37.111l33.128-17.514c-16.935-25.265-21.361-56.897-12.01-85.84z" fill="#ffb357"/></g><g><path d="m406 92.543c0-13.598-7.876-25.966-20.199-31.716l-100.199-46.76c-9.382-4.378-19.492-6.567-29.602-6.567l-62.613 29.22v213.776h62.613c10.11 0 20.22 2.189 29.602 6.567l70.597 32.945c23.204 10.829 49.801-6.11 49.801-31.717 0-1.795 0-26.042 0-26.042l-20-49.759 20-31.24c0 .001 0-55.596 0-58.707z" fill="#ffce71"/><path d="m213.386 183.422v-108.848c0-28.729 16.607-54.868 42.613-67.074-10.11 0-20.22 2.189-29.602 6.567l-100.198 46.76c-12.323 5.75-20.199 18.118-20.199 31.716v58.708l20 31.24-20 49.759v26.042c0 25.607 26.597 42.545 49.801 31.717l70.597-32.945c9.382-4.378 19.492-6.567 29.602-6.567-26.007-12.206-42.614-38.346-42.614-67.075z" fill="#ffb357"/><path d="m285.602 95.066c-18.763-8.756-40.441-8.756-59.204 0l-13.012 6.072-20 47.651 20 33.348 13.012-6.072c18.763-8.756 40.441-8.756 59.204 0l120.398 56.185v-80.999z" fill="#fce3a0"/><path d="m106 151.251v80.999l107.386-50.113v-80.999z" fill="#ffce71"/></g><g><path d="m342.074 332.428-33.128-4.841-14.823-30.208c-15.535-31.654-60.647-31.786-76.247.001l-14.823 30.207-33.128 4.841c-35.03 5.12-48.655 48.231-23.566 72.824l23.997 23.525-5.666 33.228c-4.563 26.754 16.012 49.995 41.888 49.995 6.874 0 13.536-1.68 19.801-4.992l29.621-15.661 29.621 15.661c6.264 3.312 12.925 4.991 19.801 4.991 25.807 0 46.448-23.153 41.889-49.993l-2.642-15.487c-.696-4.085-4.569-6.824-8.654-6.133-4.083.697-6.829 4.571-6.133 8.654l2.642 15.484c3.792 22.267-19.475 40.021-39.891 29.223l-33.127-17.514c-2.192-1.16-4.818-1.16-7.011 0l-33.126 17.514c-20.448 10.811-43.685-6.987-39.892-29.22l6.326-37.098c.414-2.424-.387-4.896-2.143-6.616l-26.8-26.272c-16.392-16.069-7.264-43.982 15.234-47.271l37.037-5.412c2.446-.357 4.56-1.897 5.648-4.117l16.563-33.752c10.157-20.698 39.257-20.492 49.315-.001l16.563 33.753c1.089 2.22 3.202 3.76 5.648 4.117l37.037 5.412c22.534 3.293 31.604 31.223 15.234 47.271l-21.032 20.618c-2.958 2.899-3.006 7.647-.105 10.605 2.899 2.959 7.649 3.006 10.605.105l21.032-20.618c25.073-24.575 11.509-67.698-23.565-72.823z"/><path d="m192.905 372.374v12c0 4.143 3.358 7.5 7.5 7.5s7.5-3.357 7.5-7.5v-12c0-4.143-3.358-7.5-7.5-7.5s-7.5 3.357-7.5 7.5z"/><path d="m278.222 378.646c-3.124-2.722-7.861-2.396-10.582.727-6.167 7.076-17.12 7.067-23.279 0-2.721-3.122-7.459-3.447-10.582-.727-3.123 2.722-3.448 7.459-.727 10.582 12.145 13.935 33.765 13.92 45.896 0 2.721-3.123 2.396-7.86-.726-10.582z"/><path d="m313.912 362.633c-11.803 0-21.406 9.603-21.406 21.406 0 4.143 3.358 7.5 7.5 7.5s7.5-3.357 7.5-7.5c0-3.532 2.874-6.406 6.406-6.406s6.406 2.874 6.406 6.406c0 4.143 3.358 7.5 7.5 7.5s7.5-3.357 7.5-7.5c0-11.804-9.603-21.406-21.406-21.406z"/><path d="m388.973 54.032-100.199-46.76c-10.192-4.757-21.525-7.272-32.774-7.272-11.246 0-22.579 2.515-32.774 7.271l-100.198 46.76c-14.9 6.953-24.528 22.07-24.528 38.513v78.01c0 4.143 3.358 7.5 7.5 7.5s7.5-3.357 7.5-7.5v-14.524l116.069-54.166c16.796-7.839 36.064-7.838 52.861-.001l116.07 54.167v64.446l-109.727-51.206c-20.828-9.719-44.719-9.72-65.547.001l-109.726 51.204v-19.921c0-4.143-3.358-7.5-7.5-7.5s-7.5 3.357-7.5 7.5v57.739c0 30.84 32.086 51.766 60.473 38.513l70.597-32.944c16.758-7.822 36.074-7.834 52.861-.001l70.597 32.945c28.43 13.272 60.473-7.713 60.473-38.513v-165.749c-.001-16.443-9.629-31.56-24.528-38.512zm-100.2 34.238c-20.828-9.719-44.718-9.72-65.547.001l-109.726 51.206v-46.933c0-10.64 6.229-20.421 15.871-24.92l100.198-46.759c8.34-3.891 17.233-5.865 26.431-5.865 9.201 0 18.093 1.973 26.43 5.865l100.2 46.76c9.641 4.498 15.87 14.279 15.87 24.919v46.933zm70.598 194.944-70.598-32.946c-20.721-9.668-44.763-9.698-65.547.001l-70.598 32.945c-18.409 8.594-39.128-4.966-39.128-24.921v-21.266l116.069-54.165c16.796-7.839 36.064-7.839 52.861 0l116.07 54.165v21.266c0 19.939-20.708 33.518-39.129 24.921z"/></g></g></svg>