<svg id="Capa_1" enable-background="new 0 0 512 512" height="512" viewBox="0 0 512 512" width="512" xmlns="http://www.w3.org/2000/svg"><g><g><path d="m295.896 22.507-76.377 23.861v125.307l36.481 36.481c36.056 0 64.6 12.654 86.267 34.321 21.976 21.976 51.781 34.321 82.859 34.321h51.154v-37.626c0-108.032-77.774-197.892-180.384-216.665z" fill="#30cd9c"/><path d="m268.056 48.79c7.98-10.337 17.409-19.143 27.84-26.283-12.94-2.367-26.272-3.613-39.896-3.613-121.657 0-220.28 98.623-220.28 220.28v37.626h51.154c31.078 0 60.884-12.346 82.859-34.321 21.667-21.669 50.211-34.323 86.267-34.323v-28.219c-21.735-42.358-17.038-93.461 12.056-131.147z" fill="#0caf7b"/></g><path d="m467.118 247.974-50.781-50.78 46.864-46.864c6.028-6.028 5.854-15.91-.525-21.714-5.974-5.436-15.277-4.91-20.989.801l-46.563 46.564-48.349-48.35 52.909-52.91c6.028-6.028 5.854-15.91-.525-21.714-5.974-5.436-15.277-4.91-20.989.802l-52.608 52.609-48.367-48.367 24.876-24.961c5.848-5.868 5.831-15.365-.036-21.214-5.868-5.847-15.365-5.832-21.214.036l-3.105 3.116c-11.981 12.023-31.451 12.023-43.432 0l-3.105-3.116c-5.849-5.868-15.346-5.885-21.214-.036-5.867 5.849-5.884 15.346-.036 21.214l24.876 24.961-48.367 48.367-53.188-53.189c-5.856-5.858-15.354-5.858-21.213 0-5.858 5.857-5.858 15.355 0 21.213l53.188 53.188-48.349 48.35-46.568-46.569c-5.711-5.711-15.015-6.237-20.989-.801-6.378 5.804-6.553 15.686-.525 21.714l46.869 46.869-50.781 50.78c-5.858 5.858-5.857 15.355 0 21.213 5.855 5.857 15.354 5.858 21.213 0l78.875-22.686c5.711 5.711 15.015 6.237 20.989.801 6.378-5.804 6.553-15.686.525-21.713l-28.395-28.395 48.349-48.35 58.956 58.956c5.858 5.857 15.355 5.857 21.213 0l58.956-58.956 48.349 48.35-28.395 28.395c-6.028 6.027-5.854 15.91.525 21.713 5.974 5.436 15.277 4.91 20.989-.801l78.576 22.387c5.712 5.711 15.016 6.236 20.989.798 6.376-5.805 6.549-15.685.522-21.711zm-211.118-71.994-48.35-48.35 48.35-48.349 48.35 48.35z" fill="#009d6b"/><g><path d="m428.611 290.942c0 79.264-53.709 146.21-126.643 166.385-3.043-22.679-22.458-40.172-45.97-40.172-11.556 0-22.116 4.232-30.234 11.222v67.599h90.09c88.689-25.861 153.705-107.719 153.705-205.033h-40.948z" fill="#18c08b"/><path d="m225.764 428.377c-8.401 7.232-14.188 17.417-15.735 28.949-72.932-20.174-126.639-87.12-126.639-166.384h-40.949c0 117.927 95.605 213.558 213.557 213.558 20.77 0 40.854-2.983 59.856-8.524-34.799-16.728-65.205-39.868-90.09-67.599z" fill="#009d6b"/></g><g><path d="m476.281 248.58h-51.154c-23.762 0-46.103-9.253-62.905-26.056-28.258-28.257-63.996-42.586-106.222-42.586-14.944 15.845-14.944 40.593 0 56.438 27.089 0 48.781 8.523 66.313 26.056 27.463 27.462 63.976 42.586 102.813 42.586h51.154c15.585 0 28.219-12.634 28.219-28.22.001-15.584-12.633-28.218-28.218-28.218z" fill="#70dcba"/><path d="m256 179.938c-42.226 0-77.964 14.329-106.221 42.586-16.803 16.803-39.143 26.056-62.905 26.056h-51.155c-15.585 0-28.219 12.634-28.219 28.219 0 15.586 12.634 28.22 28.219 28.22h51.154c38.837 0 75.35-15.124 102.814-42.586 17.532-17.533 39.224-26.056 66.313-26.056-14.944-15.846-14.944-40.594 0-56.439z" fill="#18c08b"/></g><path d="m483.78 241.879v-2.705c0-28.726-5.273-56.67-15.67-83.147 9.749-9.749 8.767-23.842.395-32.214-5.274-5.274-12.778-7.47-19.878-6.216-10.719-16.955-23.59-32.383-38.367-45.988 2.816-7.975.988-17.146-5.271-23.404-7.888-7.886-20.047-8.659-28.792-2.521-19.467-12.122-40.474-21.155-62.594-26.917-.772-4.576-2.935-8.876-6.273-12.204-8.789-8.756-23.062-8.731-31.82.056l-5.214 5.231c-9.621-.604-19.04-.607-28.602-.012l-5.202-5.221c-4.243-4.257-9.89-6.606-15.899-6.617-.014 0-.026 0-.04 0-5.994 0-11.634 2.33-15.882 6.564-3.334 3.324-5.496 7.618-6.27 12.189-22.097 5.756-43.087 14.782-62.546 26.895-18.029-13.151-42.116 5.359-34.269 26.097-3.833 3.538-7.565 7.215-11.131 10.988-2.845 3.01-2.711 7.757.3 10.603 3.007 2.843 7.754 2.712 10.603-.3 3.01-3.185 6.151-6.289 9.369-9.298l43.893 43.893-37.742 37.743-40.41-40.41c2.074-3.252 4.229-6.462 6.465-9.582 2.412-3.367 1.639-8.052-1.729-10.465-3.367-2.412-8.051-1.639-10.465 1.729-2.551 3.56-5.009 7.228-7.361 10.946-21.903-3.877-35.205 22.72-19.886 38.036l.399.399c-10.397 26.479-15.67 54.423-15.67 83.147v2.705c-16.107 3.455-28.221 17.797-28.221 34.92 0 19.696 16.023 35.721 35.719 35.721h.294c5.162 53.256 29.333 102.555 68.566 139.465 41.138 38.701 94.912 60.015 151.419 60.015 62.313 0 122.076-26.538 163.966-72.811 2.78-3.07 2.545-7.813-.526-10.593-3.069-2.778-7.813-2.545-10.593.526-39.052 43.138-94.763 67.878-152.847 67.878-105.576 0-194.064-80.402-204.908-184.48h26.092c8.662 71.976 60.485 132.571 130.846 152.035 4.384 1.212 8.83-1.73 9.434-6.23 2.581-19.229 19.1-33.67 38.536-33.67 19.393 0 35.96 14.476 38.536 33.671.603 4.495 5.044 7.443 9.433 6.23 70.365-19.463 122.188-80.059 130.851-152.036h26.114c-3.507 33.593-15.258 65.893-34.226 93.866-2.325 3.428-1.431 8.092 1.998 10.416 1.289.875 2.753 1.294 4.202 1.294 2.403 0 4.764-1.153 6.214-3.292 20.65-30.452 33.333-65.678 36.892-102.284h.27c19.695 0 35.719-16.024 35.719-35.721-.001-17.123-12.115-31.465-28.221-34.92zm-15.002-2.852-41.835-41.833 29.516-29.516c8.159 22.838 12.303 46.784 12.319 71.349zm-33.243-114.065-40.411 40.412-37.742-37.743 43.895-43.896c13.127 12.269 24.613 26.093 34.258 41.227zm-124.532-91.362c18.978 5.061 37.074 12.698 53.969 22.8l-39.41 39.412-37.77-37.77 19.591-19.657c1.436-1.441 2.639-3.052 3.62-4.785zm-110.012-.011c.982 1.736 2.187 3.352 3.625 4.795l19.591 19.658-37.77 37.77-39.414-39.415c16.9-10.107 34.996-17.748 53.968-22.808zm-136.288 100.826 46.869 46.869c2.929 2.927 7.677 2.928 10.607 0l48.349-48.35c2.929-2.93 2.929-7.678 0-10.606l-53.181-53.182c-3.001-3.018-2.906-7.716-.007-10.613 2.904-2.906 7.651-2.957 10.607.001l53.186 53.187c2.927 2.927 7.676 2.93 10.607.001l48.367-48.367c2.925-2.926 2.929-7.668.009-10.598l-24.875-24.961c-2.818-2.828-2.987-7.613.018-10.607 2.938-2.93 7.686-2.913 10.606.018 10.536 10.572 3.672 3.699 24.227 24.254 2.931 2.929 7.678 2.928 10.607 0 2.929-2.93 2.929-7.678 0-10.607l-4.456-4.456c5.418.009 10.849.225 16.365.652 2.192.169 4.341-.628 5.892-2.184l7.633-7.658c2.919-2.931 7.677-2.938 10.607-.019 3.02 3.011 2.818 7.797.018 10.607l-24.876 24.961c-2.92 2.93-2.916 7.672.009 10.598l48.367 48.367c2.929 2.927 7.677 2.928 10.607 0l52.909-52.91c2.929-2.931 7.674-2.933 10.606.001 2.663 2.661 2.93 6.909.611 9.891-.54.698-52.898 53.001-53.521 53.625-2.929 2.929-2.929 7.677 0 10.606l48.349 48.35c2.929 2.927 7.677 2.928 10.607 0l46.864-46.864c2.897-2.903 7.689-2.916 10.606 0 2.93 2.93 2.931 7.675-.001 10.605l-46.864 46.864-16 16c-2.929 2.93-2.929 7.678 0 10.607 2.931 2.929 7.678 2.928 10.607 0l10.696-10.696 33.282 33.279h-24.492c-24.035 0-42.699-9.36-59.136-25.359l13.224-13.224c2.929-2.93 2.929-7.678 0-10.606l-48.349-48.351c-2.929-2.927-7.677-2.928-10.607 0l-31.816 31.816c-6.107-1.143-12.375-1.946-18.794-2.417l40.005-40.005c2.929-2.93 2.929-7.678 0-10.607l-48.35-48.35c-2.929-2.927-7.677-2.929-10.607 0l-48.35 48.35c-2.929 2.93-2.929 7.678 0 10.607l40.005 40.005c-6.419.471-12.687 1.273-18.794 2.417l-31.816-31.816c-1.407-1.406-3.314-2.196-5.304-2.196s-3.896.79-5.304 2.196l-48.349 48.351c-2.929 2.929-2.929 7.677 0 10.606l13.225 13.225c-.512.499-1.027.991-1.534 1.498-15.386 15.387-35.843 23.86-57.603 23.86h-24.478l33.271-33.279 10.696 10.696c1.465 1.464 3.385 2.196 5.304 2.196s3.839-.732 5.304-2.196c2.929-2.93 2.929-7.678 0-10.607l-16-16c-.003-.003-.007-.006-.01-.009l-46.86-46.86c-1.416-1.416-2.196-3.3-2.196-5.303-.001-6.697 8.131-9.974 12.802-5.303zm290.047 71.332c-14.806-11.925-31.267-20.675-49.279-26.205l20.092-20.092 37.742 37.743zm-136.493-78.116 37.743-37.743 37.743 37.743-37.743 37.743zm-61.007 78.117-8.555-8.554 37.742-37.743 20.092 20.092c-18.012 5.529-34.473 14.279-49.279 26.205zm-72.193-8.555-41.835 41.833c.016-24.563 4.16-48.509 12.32-71.349zm222.483 250.614c-6.808-22.256-27.624-38.152-51.542-38.152-23.875 0-44.696 15.72-51.543 38.15-60.09-19.784-103.964-72.756-112.162-135.39 38.807-1.343 75.098-17.081 102.698-44.679 16.054-16.055 36.011-23.859 61.009-23.859s44.955 7.805 61.01 23.86c27.599 27.597 63.89 43.335 102.697 44.678-8.198 62.634-52.075 115.608-112.167 135.392zm168.741-150.287h-51.154c-36.833 0-71.463-14.344-97.51-40.391-19.012-19.011-42.438-28.253-71.617-28.253-29.18 0-52.605 9.242-71.615 28.253-26.049 26.046-60.679 40.391-97.512 40.391h-51.154c-11.425 0-20.719-9.295-20.719-20.721 0-11.425 9.294-20.719 20.719-20.719h51.154c25.767 0 49.99-10.034 68.21-28.253 26.8-26.801 60.753-40.39 100.917-40.39 40.163 0 74.117 13.589 100.918 40.389 18.219 18.22 42.442 28.254 68.209 28.254h51.154c11.425 0 20.719 9.294 20.719 20.719 0 11.426-9.294 20.721-20.719 20.721z"/></g></svg>