<svg id="Capa_1" enable-background="new 0 0 512 512" height="512" viewBox="0 0 512 512" width="512" xmlns="http://www.w3.org/2000/svg"><g><g><path d="m77.5 141.5c-27.5 0-50 22.5-50 50v40c0 27.5 22.5 50 50 50h178.5v-140z" fill="#30cd9c"/><path d="m434.5 141.5h-178.5v140h178.5c27.5 0 50-22.5 50-50v-40c0-27.5-22.5-50-50-50z" fill="#70dcba"/></g><g><path d="m424.374 253.75c-.923-43.533-7.49-86.696-19.598-128.315-9.969-34.265-41.216-57.935-76.902-57.935-8.117 0-83.599 0-121.874 0v272.5l113.67 50 95.343-50c5.607-28.364 8.745-57.229 9.361-86.25z" fill="#30cd9c"/><path d="m226 277.567v-210.067c-22.343 0-39.983 0-41.874 0-35.685 0-66.932 23.67-76.901 57.935-21.524 73.979-24.416 143.035-10.26 214.565l82.869 50 91.166-50c-26.874-8.958-45-34.106-45-62.433z" fill="#0caf7b"/></g><g><path d="m370 7.5c-2.855 0-48.971 0-99 0l-65.202 16.35v117.65h150.202c40.869 0 74-33.131 74-74 0-33.082-26.808-60-60-60z" fill="#70dcba"/><path d="m270.999 7.5h-128.999c-33.137 0-60 26.863-60 60 0 40.845 33.107 74 74 74h70v-71.567c0-28.327 18.126-53.475 44.999-62.433z" fill="#30cd9c"/></g><g><g><g><ellipse cx="176.443" cy="277.36" fill="#ff8e9e" rx="29.355" ry="23.377"/></g><g><ellipse cx="335.557" cy="277.36" fill="#ff8e9e" rx="29.355" ry="23.377"/></g></g></g><g><path d="m197.213 108.213c-11.715-11.716-30.71-11.716-42.426 0-5.626 5.626-8.787 13.257-8.787 21.213v54.289c0 5.304 2.107 10.391 5.858 14.142l10 10c7.811 7.81 20.474 7.81 28.284 0l10-10c3.75-3.751 5.858-8.838 5.858-14.142v-54.289c0-7.956-3.161-15.587-8.787-21.213z" fill="#676fb2"/><path d="m357.213 108.213c-11.716-11.716-30.711-11.716-42.426 0-5.626 5.626-8.787 13.257-8.787 21.213v54.289c0 5.304 2.107 10.391 5.858 14.142l10 10c7.811 7.81 20.474 7.81 28.284 0l10-10c3.751-3.751 5.858-8.838 5.858-14.142v-54.289c0-7.956-3.161-15.587-8.787-21.213z" fill="#8288cb"/></g><g><path d="m206.769 141.5h-61.538c-7.86 0-14.231 6.371-14.231 14.231s6.372 14.231 14.231 14.231h61.538c7.859 0 14.231-6.372 14.231-14.231 0-7.86-6.372-14.231-14.231-14.231z" fill="#d4d4ff"/><path d="m366.326 141.5h-61.538c-7.859 0-14.231 6.371-14.231 14.231s6.372 14.231 14.231 14.231h61.538c7.859 0 14.231-6.372 14.231-14.231 0-7.86-6.372-14.231-14.231-14.231z" fill="#efedff"/></g><g><path d="m419.5 340h-54.83l-22.5 20-22.5-20h-48.671l-123.669 78.5 123.669 86h31.167c16.568 0 30-13.432 30-30h20c0 16.568 13.432 30 30 30h37.334c24.853 0 45-20.147 45-45v-74.5c0-24.853-20.147-45-45-45z" fill="#70dcba"/><path d="m270.999 504.5h-61.166c-16.568 0-30-13.431-30-30h-20c0 16.569-13.432 30-30 30h-37.333c-24.853 0-45-20.147-45-45v-74.5c0-24.853 20.147-45 45-45h54.83l22.5 20 22.5-20h78.669c-44.002 46.006-44.002 118.494 0 164.5z" fill="#30cd9c"/></g><g><path d="m319.67 340v134.5c0 12.41 10.09 22.5 22.5 22.5 12.4 0 22.5-10.09 22.5-22.5v-134.5z" fill="#8288cb"/><path d="m147.33 340v134.5c0 12.41 10.101 22.5 22.5 22.5 12.41 0 22.5-10.09 22.5-22.5v-134.5z" fill="#676fb2"/></g><g><path d="m193.551 235.356c-4.143 0-7.5 3.357-7.5 7.5v12c0 4.143 3.357 7.5 7.5 7.5s7.5-3.357 7.5-7.5v-12c0-4.142-3.358-7.5-7.5-7.5z"/><path d="m318.448 235.356c-4.143 0-7.5 3.357-7.5 7.5v12c0 4.143 3.357 7.5 7.5 7.5s7.5-3.357 7.5-7.5v-12c0-4.142-3.357-7.5-7.5-7.5z"/><path d="m277.392 248.846c-3.123-2.722-7.86-2.396-10.582.727-5.726 6.569-15.898 6.564-21.619 0-2.723-3.122-7.46-3.447-10.582-.727-3.123 2.722-3.447 7.46-.727 10.582 11.704 13.429 32.543 13.416 44.236 0 2.721-3.122 2.397-7.861-.726-10.582z"/><path d="m434.5 134h-19.355c-.763-2.692-1.56-5.377-2.376-8.059 15.773-15.32 24.731-36.347 24.731-58.441 0-37.22-30.28-67.5-67.5-67.5h-228c-16.018 0-31.548 5.711-43.73 16.08-3.154 2.685-3.535 7.418-.85 10.572s7.417 3.536 10.572.85c9.472-8.062 21.55-12.502 34.008-12.502h228c28.948 0 52.5 23.552 52.5 52.5 0 19.382-8.45 37.764-23.184 50.433-7.54 6.482-16.345 11.134-25.816 13.71 0-11.097-2.678-20.428-10.983-28.734-14.656-14.654-38.376-14.655-53.033 0-7.083 7.083-10.983 16.5-10.983 26.517v4.574h-85v-4.574c0-10.017-3.9-19.434-10.983-26.517-14.656-14.654-38.376-14.655-53.033 0-8.349 8.349-10.983 17.712-10.983 28.734-9.473-2.576-18.278-7.229-25.817-13.711-14.735-12.669-23.185-31.051-23.185-50.433-.001-6.483 1.165-12.81 3.465-18.803 1.484-3.867-.447-8.205-4.314-9.689-3.869-1.483-8.206.448-9.689 4.314-2.962 7.716-4.463 15.851-4.462 24.179 0 22.114 8.975 43.16 24.775 58.485-.759 2.665-1.495 5.336-2.21 8.015h-19.565c-31.706 0-57.5 25.794-57.5 57.5v40c0 31.706 25.794 57.5 57.5 57.5h4.378c1.386 14.597 3.583 29.737 6.089 43.708-26.832 2.308-47.967 24.872-47.967 52.292v74.5c0 28.948 23.552 52.5 52.5 52.5h37.334c9.969 0 19.374-3.95 26.324-10.81 4.199 2.157 8.873 3.31 13.672 3.31 4.802 0 9.478-1.153 13.678-3.311 6.95 6.86 16.356 10.811 26.326 10.811h92.332c9.97 0 19.376-3.95 26.326-10.811 4.2 2.157 8.875 3.311 13.678 3.311 4.8 0 9.474-1.153 13.673-3.31 6.95 6.86 16.355 10.81 26.323 10.81h37.334c9.095 0 18.059-2.364 25.923-6.837 3.601-2.048 4.859-6.627 2.812-10.228-2.049-3.601-6.627-4.857-10.228-2.812-5.608 3.19-12.008 4.876-18.507 4.876h-37.334c-5.647 0-11-2.111-15.092-5.814 3.283-4.9 5.096-10.704 5.096-16.686v-127h47.33c20.678 0 37.5 16.822 37.5 37.5v74.5c0 4.916-.935 9.692-2.777 14.195-1.568 3.834.268 8.213 4.101 9.782 3.84 1.572 8.214-.267 9.782-4.101 2.584-6.315 3.895-13.003 3.895-19.877v-74.498c0-27.428-21.147-49.998-47.992-52.293 2.621-14.639 4.537-29.212 5.756-43.707h4.735c31.706 0 57.5-25.794 57.5-57.5v-40c0-31.706-25.794-57.5-57.5-57.5zm-114.409-20.483c8.771-8.773 23.047-8.773 31.818 0 7.331 7.329 6.591 15.374 6.591 20.483h-45c0-4.946-.8-13.094 6.591-20.483zm-15.304 35.483h61.213c4.583 0 7.057 3.468 7.057 6.73 0 3.712-3.02 6.732-6.73 6.732h-61.539c-3.711 0-6.73-3.021-6.73-6.732-.001-3.71 3.018-6.73 6.729-6.73zm53.713 28.463v6.253c0 3.29-1.334 6.512-3.661 8.838l-10 10c-4.873 4.875-12.805 4.875-17.678 0l-10-10c-2.327-2.326-3.661-5.548-3.661-8.838v-6.253zm-198.409-63.946c8.771-8.773 23.047-8.773 31.818 0 7.331 7.329 6.591 15.374 6.591 20.483h-45c0-4.946-.8-13.094 6.591-20.483zm-14.86 35.483h61.538c3.711 0 6.73 3.02 6.73 6.73 0 3.712-3.02 6.732-6.73 6.732h-61.538c-3.712 0-6.731-3.021-6.731-6.732 0-3.71 3.02-6.73 6.731-6.73zm53.269 28.463v6.253c0 3.29-1.334 6.512-3.661 8.838l-10 10c-4.873 4.875-12.805 4.875-17.678 0l-10-10c-2.327-2.326-3.661-5.548-3.661-8.838v-6.253zm-121 96.537c-23.435 0-42.5-19.065-42.5-42.5v-40c0-23.435 19.065-42.5 42.5-42.5h15.723c-11.889 48.607-14.747 87.448-12.504 125zm52.334 223h-37.334c-20.678 0-37.5-16.822-37.5-37.5v-74.5c0-20.678 16.822-37.5 37.5-37.5h47.33v127c0 5.981 1.812 11.785 5.096 16.686-4.092 3.703-9.444 5.814-15.092 5.814zm54.996-22.5c0 8.241-6.717 15-15 15-8.247 0-15-6.73-15-15v-127h30zm117.336 22.5h-92.332c-5.65 0-11.003-2.111-15.096-5.817 3.281-4.899 5.092-10.703 5.092-16.683v-127h112.34v127c0 5.979 1.811 11.783 5.092 16.683-4.093 3.706-9.446 5.817-15.096 5.817zm55.004-22.5c0 8.233-6.717 15-15 15-8.275 0-15-6.751-15-15v-127h30zm51.635-142h-305.564c-12.57-67.686-11.515-122.462 8.775-196.155.02-.072.038-.142.058-.214 4.756 3.051 9.803 5.585 15.065 7.578-2.297 3.445-3.64 7.579-3.64 12.021 0 9.634 6.303 17.819 15 20.66v7.325c0 7.346 2.86 14.251 8.054 19.445l10 10c10.724 10.722 28.169 10.721 38.893 0l10-10c5.193-5.194 8.054-12.1 8.054-19.445v-7.325c8.697-2.841 15-11.026 15-20.66 0-2.349-.379-4.61-1.072-6.73h56.701c-.693 2.121-1.072 4.381-1.072 6.73 0 9.797 6.518 18.098 15.443 20.802v7.184c0 7.346 2.86 14.251 8.054 19.445l10 10c10.724 10.722 28.169 10.721 38.893 0l10-10c5.193-5.194 8.054-12.1 8.054-19.445v-7.476c8.467-2.971 14.557-11.04 14.557-20.51 0-4.428-1.284-8.503-3.506-11.902 5.442-2.035 10.655-4.652 15.558-7.816 18.203 63.005 21.133 129.02 8.695 196.488zm68.195-101c0 23.435-19.065 42.5-42.5 42.5h-3.721c2.169-42.532-1.726-84.326-11.679-125h15.4c23.435 0 42.5 19.065 42.5 42.5z"/></g></g></svg>