<svg id="Capa_1" enable-background="new 0 0 512 512" height="512" viewBox="0 0 512 512" width="512" xmlns="http://www.w3.org/2000/svg"><g><g><path d="m323.5 7.5h-60.813l-49 47 89 50 43.313-20v-54.5c0-12.427-10.074-22.5-22.5-22.5z" fill="#d4d4ff"/><path d="m282.687 7.5h-64.47c-7.619 0-14.721 3.856-18.871 10.246l-43.346 66.754 70 20 60-20c-18.473-18.727-20.901-61.209-3.313-77z" fill="#9ea2e3"/></g><g><path d="m216.52 144.5v300l100 30 89.48-30v-300l-89.48-30z" fill="#70dcba"/><path d="m225 383.5v-178c0-33.689 27.311-61 61-61l-79.212-30-100.788 30v300l100.788 30 79.212-30c-33.689 0-61-27.311-61-61z" fill="#18c08b"/></g><g><path d="m406 84.5h-140l-30 30 30 30h140c16.569 0 30-13.432 30-30s-13.431-30-30-30z" fill="#ff8e9e"/><path d="m256 114.5c0-16.568 13.431-30 30-30h-180c-16.569 0-30 13.432-30 30s13.431 30 30 30h180c-16.569 0-30-13.432-30-30z" fill="#ea5b70"/></g><g><path d="m406 444.5h-140l-30 30 30 30h140c16.569 0 30-13.432 30-30s-13.431-30-30-30z" fill="#ff8e9e"/><path d="m256 474.5c0-16.568 13.431-30 30-30h-180c-16.569 0-30 13.432-30 30s13.431 30 30 30h180c-16.569 0-30-13.432-30-30z" fill="#ea5b70"/></g><path d="m126 114.5c0-33.084 26.916-60 60-60s60 26.916 60 60-26.916 60-60 60-60-26.916-60-60zm30 0c0 16.542 13.458 30 30 30s30-13.458 30-30-13.458-30-30-30-30 13.458-30 30z" fill="#d4d4ff"/><g><g><g><ellipse cx="175.972" cy="258.825" fill="#ff8e9e" rx="23.515" ry="29.529" transform="matrix(.002 -1 1 .002 -83.238 434.229)"/></g><g><ellipse cx="336.028" cy="259.175" fill="#ff8e9e" rx="23.515" ry="29.529" transform="matrix(.002 -1 1 .002 76.118 594.635)"/></g></g></g><g><path d="m413.5 437.755v-286.51c17.096-3.484 30-18.636 30-36.745 0-20.678-16.822-37.5-37.5-37.5h-52.5v-12.5c0-4.143-3.357-7.5-7.5-7.5s-7.5 3.357-7.5 7.5v12.5h-96.406c-11.56-17.235-30.841-28.872-52.854-29.918l16.397-25.251c2.778-4.277 7.48-6.831 12.581-6.831h105.282c8.271 0 15 6.729 15 15v4.5c0 4.143 3.357 7.5 7.5 7.5s7.5-3.357 7.5-7.5v-4.5c0-16.542-13.458-30-30-30h-105.283c-10.2 0-19.605 5.107-25.161 13.661l-22.876 35.23c-16.686 4.023-30.978 14.251-40.274 28.109h-23.906c-20.678 0-37.5 16.822-37.5 37.5 0 18.109 12.904 33.261 30 36.745v223.255c0 4.143 3.358 7.5 7.5 7.5s7.5-3.357 7.5-7.5v-222.5h16.406c12.124 18.076 32.74 30 56.094 30s43.97-11.924 56.094-30h156.406v285h-285v-32.5c0-4.143-3.358-7.5-7.5-7.5s-7.5 3.357-7.5 7.5v33.255c-17.096 3.484-30 18.636-30 36.745 0 20.678 16.822 37.5 37.5 37.5h300c20.678 0 37.5-16.822 37.5-37.5 0-18.109-12.904-33.261-30-36.745zm-307.5-300.755c-12.407 0-22.5-10.094-22.5-22.5s10.093-22.5 22.5-22.5h16.37c-2.498 7.042-3.87 14.612-3.87 22.5s1.373 15.458 3.87 22.5zm80 30c-28.949 0-52.5-23.552-52.5-52.5s23.551-52.5 52.5-52.5 52.5 23.552 52.5 52.5-23.551 52.5-52.5 52.5zm63.63-75h156.37c12.406 0 22.5 10.094 22.5 22.5s-10.094 22.5-22.5 22.5h-156.37c2.498-7.042 3.87-14.612 3.87-22.5s-1.373-15.458-3.87-22.5zm156.37 405h-300c-12.407 0-22.5-10.094-22.5-22.5s10.093-22.5 22.5-22.5h300c12.406 0 22.5 10.094 22.5 22.5s-10.094 22.5-22.5 22.5z"/><path d="m200.965 241.31v-12c0-4.143-3.358-7.5-7.5-7.5s-7.5 3.357-7.5 7.5v12c0 4.143 3.358 7.5 7.5 7.5s7.5-3.358 7.5-7.5z"/><path d="m325.862 241.31v-12c0-4.143-3.358-7.5-7.5-7.5s-7.5 3.357-7.5 7.5v12c0 4.143 3.358 7.5 7.5 7.5s7.5-3.358 7.5-7.5z"/><path d="m256.096 264.969c14.123 12.385 36.411 2.338 36.411-16.504 0-4.143-3.358-7.5-7.5-7.5s-7.5 3.357-7.5 7.5c0 3.835-3.12 6.955-6.956 6.955s-6.956-3.12-6.956-6.955c0-4.143-3.358-7.5-7.5-7.5s-7.5 3.357-7.5 7.5c0 3.835-3.12 6.955-6.956 6.955s-6.956-3.12-6.956-6.955c0-4.143-3.358-7.5-7.5-7.5s-7.5 3.357-7.5 7.5c.002 18.831 22.28 28.898 36.413 16.504z"/><path d="m186 77c-20.678 0-37.5 16.822-37.5 37.5s16.822 37.5 37.5 37.5 37.5-16.822 37.5-37.5-16.822-37.5-37.5-37.5zm0 60c-12.407 0-22.5-10.094-22.5-22.5s10.093-22.5 22.5-22.5 22.5 10.094 22.5 22.5-10.093 22.5-22.5 22.5z"/></g></g></svg>