<svg id="Capa_1" enable-background="new 0 0 512 512" height="512" viewBox="0 0 512 512" width="512" xmlns="http://www.w3.org/2000/svg"><g><g><path d="m380.724 450.726v-190.124c74.82-80.771 121.877-162.202 123.72-210.262l-37.981-37.98-322.986 322.978 81.255 81.253 77.796 77.794c13.487 13.487 35.355 13.487 48.842 0l19.239-19.238c6.476-6.477 10.115-15.261 10.115-24.421z" fill="#9ea2e3"/><path d="m504.444 50.341c.534-13.932-2.719-25.068-10.211-32.561-33.338-33.338-138.641 16.998-242.829 113.506h-190.128c-9.16 0-17.944 3.639-24.421 10.115l-19.239 19.238c-13.487 13.487-13.487 35.354 0 48.841l142.142 142.138 270.597-270.59c19.649-19.648 46.3-30.687 74.089-30.687z" fill="#8288cb"/></g><g><path d="m160.072 351.933 140.014-140.01c17.983-17.983 47.14-17.983 65.123 0l-97.684-97.682c-17.983-17.983-47.14-17.983-65.123 0l-140.014 140.01c-17.983 17.983-17.983 47.138 0 65.121l97.684 97.682c-17.983-17.983-17.983-47.139 0-65.121z" fill="#9ea2e3"/><path d="m257.756 449.614 140.014-140.01c17.983-17.983 17.983-47.138 0-65.121l-32.561-32.561c-17.983-17.983-47.14-17.983-65.123 0l-140.014 140.01c-17.983 17.983-17.983 47.138 0 65.121l32.561 32.561c17.983 17.983 47.14 17.983 65.123 0z" fill="#d4d4ff"/></g><g><path d="m122.219 308.383c-15.735-15.735-41.247-15.735-56.982 0l-31.747 31.747c-7.193 7.193-7.193 18.855 0 26.048l30.933 30.932c7.193 7.193 18.856 7.193 26.049 0l31.747-31.747c15.735-15.734 15.735-41.245 0-56.98z" fill="#8288cb"/><path d="m203.622 389.784c-15.735-15.735-41.247-15.735-56.982 0l-31.747 31.747c-7.193 7.193-7.193 18.855 0 26.048l30.933 30.932c7.193 7.193 18.856 7.193 26.049 0l31.747-31.747c15.736-15.734 15.736-41.245 0-56.98z" fill="#9ea2e3"/></g><g><path d="m410.938 136.25-22.764-22.764-121.404 121.402 22.764 22.764c23.104-.409 53.572-15.488 79.744-41.659 26.173-26.172 41.251-56.639 41.66-79.743z" fill="#b9f0ff"/><path d="m410.938 136.25c.188-10.63-2.724-19.705-9.099-26.08-20.231-20.231-67.61-5.653-105.824 32.561s-52.793 85.591-32.561 105.822c6.375 6.375 15.45 9.287 26.08 9.098 13.213-60.665 60.737-108.189 121.404-121.401z" fill="#55dafe"/></g><g><path d="m499.536 12.49c-17.687-17.685-50.869-16.57-95.96 3.223-40.095 17.6-87.684 49.376-134.555 89.784-21.014-17.348-52.269-16.202-71.923 3.451l-14.849 14.848h-60.893c-4.143 0-7.5 3.358-7.5 7.5s3.357 7.5 7.5 7.5h45.893l-104.862 104.855-39.468-39.467c-10.565-10.565-10.567-27.666-.001-38.233l19.24-19.238c5.105-5.106 11.896-7.918 19.117-7.918h30.08c4.143 0 7.5-3.358 7.5-7.5s-3.357-7.5-7.5-7.5h-30.08c-11.229 0-21.785 4.372-29.724 12.312l-19.239 19.237c-7.94 7.94-12.312 18.496-12.312 29.724s4.372 21.783 12.312 29.722l39.841 39.839c-12.993 17.267-14.308 40.883-3.254 59.487l-20.713 20.714c-10.129 10.129-10.131 26.524 0 36.654l30.933 30.932c10.108 10.108 26.554 10.104 36.657 0l19.524-19.523 13.814 13.813-19.524 19.524c-10.105 10.106-10.105 26.549.001 36.654l30.934 30.932c10.105 10.104 26.548 10.105 36.655 0l20.706-20.706c18.623 11.066 42.214 9.728 59.49-3.268l39.85 39.847c7.94 7.939 18.497 12.312 29.724 12.312 11.229 0 21.786-4.372 29.724-12.312l19.24-19.238c7.939-7.939 12.312-18.495 12.312-29.723v-29.089c0-4.142-3.357-7.5-7.5-7.5s-7.5 3.358-7.5 7.5v29.089c0 7.221-2.812 14.01-7.918 19.117l-19.24 19.238c-10.564 10.566-27.667 10.566-38.234 0l-39.468-39.467c17.069-17.068 70.552-70.548 104.861-104.855v46.88c0 4.142 3.357 7.5 7.5 7.5s7.5-3.358 7.5-7.5v-61.879c8.083-8.083 13.559-13.558 14.85-14.849 19.834-19.834 20.738-51.039 3.451-71.928 39.681-46.02 103.093-131.805 105.414-192.344.627-16.455-3.545-29.291-12.406-38.151zm-107.07 291.816-140.014 140.006c-11.625 11.624-29.109 14.379-43.479 7.707 8.153-8.176 13.065-19.021 13.833-30.549.275-4.133-2.852-7.706-6.984-7.982-4.146-.275-7.707 2.851-7.982 6.985-.528 7.925-3.909 15.379-9.521 20.99l-31.746 31.746c-4.26 4.257-11.186 4.257-15.443 0l-30.933-30.932c-4.267-4.267-4.268-11.173-.001-15.442l31.747-31.745c5.612-5.611 13.068-8.992 20.993-9.52 4.134-.275 7.261-3.849 6.985-7.982-.275-4.134-3.883-7.262-7.981-6.985-11.553.77-22.421 5.699-30.604 13.88l-1.616 1.615-13.814-13.813 1.615-1.615c8.183-8.181 13.112-19.049 13.882-30.602.275-4.133-2.852-7.706-6.984-7.982-4.146-.275-7.707 2.851-7.982 6.985-.528 7.926-3.909 15.381-9.521 20.992l-31.748 31.747c-4.259 4.258-11.186 4.257-15.442 0l-30.934-30.932c-4.269-4.27-4.266-11.173 0-15.441l31.747-31.745c5.612-5.612 13.068-8.993 20.994-9.521 4.133-.275 7.261-3.849 6.985-7.981-.274-4.134-3.879-7.26-7.981-6.985-11.529.767-22.376 5.68-30.554 13.832-6.671-14.369-3.917-31.851 7.708-43.476 3.981-3.981 136.029-136.023 140.013-140.007 15.031-15.029 39.487-15.028 54.517 0l23.302 23.301c-36.143 39.034-50.785 87.597-27.372 111.008 22.544 22.542 70.4 10.304 111.027-27.357l23.289 23.287c15.064 15.065 15.067 39.447-.001 54.513zm-91.146-156.262c34.631-34.63 78.234-49.541 95.218-32.56 15.806 15.806 4.177 58.477-32.562 95.213-34.631 34.629-78.236 49.541-95.217 32.56h-.001c-15.82-15.821-4.172-58.483 32.562-95.213zm195.629-97.978c-1.613 42.063-40.11 111.384-100.895 182.103l-16.283-16.282c36.466-39.383 50.594-87.787 27.372-111.009-22.511-22.509-70.329-10.347-111.016 27.369l-16.277-16.277c45.427-39.031 91.277-69.633 129.755-86.523 37.835-16.609 66.751-18.925 79.323-6.351 5.787 5.786 8.485 14.86 8.021 26.97z"/><path d="m188.263 248.805c2.379 3.397 7.059 4.215 10.445 1.842 3.394-2.376 4.218-7.053 1.842-10.445l-12.304-17.57c-2.376-3.393-7.054-4.218-10.445-1.842-3.394 2.376-4.218 7.053-1.842 10.445z"/><path d="m289.377 323.759-17.571-12.303c-3.394-2.376-8.068-1.55-10.445 1.842-2.376 3.393-1.551 8.07 1.842 10.445l17.571 12.303c3.394 2.376 8.07 1.55 10.445-1.842 2.376-3.393 1.552-8.07-1.842-10.445z"/><path d="m225.599 316.687c-4.379 4.379-11.875 1.238-11.875-4.918 0-1.858.724-3.604 2.037-4.918 2.93-2.929 2.93-7.678.001-10.607-2.929-2.928-7.678-2.929-10.606 0-4.379 4.379-11.875 1.238-11.875-4.918 0-1.858.724-3.604 2.038-4.918 2.929-2.929 2.929-7.677 0-10.606-2.93-2.929-7.678-2.929-10.607 0-13.296 13.296-4.718 36.172 14.083 37.4.342 5.323 2.555 10.286 6.362 14.092 8.56 8.558 22.488 8.56 31.049 0 2.93-2.929 2.93-7.678.001-10.607-2.93-2.927-7.679-2.929-10.608 0z"/><path d="m180.714 241.589c-2.93-2.929-7.678-2.929-10.607 0l-8.485 8.485c-2.929 2.929-2.929 7.678 0 10.606 2.93 2.929 7.678 2.929 10.607 0l8.485-8.485c2.929-2.928 2.929-7.677 0-10.606z"/><path d="m259.813 331.291-8.485 8.485c-2.93 2.929-2.93 7.677-.001 10.606 2.928 2.928 7.678 2.93 10.606 0l8.485-8.485c2.93-2.929 2.93-7.677.001-10.606s-7.678-2.929-10.606 0z"/></g></g></svg>