<svg id="Capa_1" enable-background="new 0 0 512 512" height="512" viewBox="0 0 512 512" width="512" xmlns="http://www.w3.org/2000/svg"><g><g><path d="m188 47.025h-11l-14.364 15 14.364 15h11c8.284 0 15 6.716 15 15v30.364l15 15 15-15v-30.364c0-24.853-20.147-45-45-45z" fill="#676fb2"/><path d="m147 47.369v29.212c0 7.7 5.641 14.455 13.294 15.3 9.048.998 16.706-6.06 16.706-14.906v-30c0-8.846-7.658-15.904-16.706-14.906-7.653.845-13.294 7.6-13.294 15.3z" fill="#8288cb"/></g><g><path d="m249.853 122.025h-32.264l-30 17.88 30 79.857 90-39.737c-16.553 0-29.974-13.669-30-30.216-.024-15.337-12.399-27.784-27.736-27.784z" fill="#9ea2e3"/><path d="m218 122.025h-32.264c-15.338 0-27.713 12.447-27.736 27.784-.026 16.547-13.447 30.216-30 30.216l90 39.737v-40c-15.399-13.672-13.011-45.89 0-57.737z" fill="#8288cb"/></g><path d="m504.5 310.025v-50c0-11.046-8.454-20-19.5-20h-18.014c-7.983 0-15.201 4.747-18.363 12.076l-33.623 77.924 33.623 77.924c3.163 7.329 10.381 12.076 18.363 12.076h18.014c11.046 0 19.5-8.954 19.5-20v-50c0-11.046-8.454-20-19.5-20 11.046 0 19.5-8.954 19.5-20z" fill="#676fb2"/><g><g><path d="m234 399.831v79.194h96.783c49.726-6.165 91.558-36.45 113.901-79l-105.165-30.194z" fill="#ff8e9e"/><path d="m235.482 404.592-1.973-4.931-93.086-30-87.913 30.364 1.973 4.568c18.224 45.559 62.349 75.432 111.417 75.432h145.756c6.313 0 12.529-.413 18.637-1.17-42.212-5.887-78.671-33.915-94.811-74.263z" fill="#ea5b70"/></g><g><path d="m311.821 180.025h-94.471l-36.35 58.448v82.021l52.297 79.531h211.387c10.945-20.844 17.137-44.574 17.137-69.751v-.249c0-82.843-67.157-150-150-150z" fill="#8288cb"/><path d="m188.575 270.113c0-48.352 38.471-90.088 90.238-90.088h-181.3c-51.767 0-90.014 41.736-90.014 90.088 0 11.055 1.852 22.391 6.312 33.542l38.698 96.37h181.15l-38.548-96.37c-4.459-11.151-6.536-22.487-6.536-33.542z" fill="#676fb2"/></g></g><g><ellipse cx="144.299" cy="276.596" fill="#7ce3ff" rx="30" ry="30" transform="matrix(.987 -.16 .16 .987 -42.443 26.686)"/><g fill="#b9f0ff"><circle cx="234.578" cy="276.596" r="30"/><circle cx="324.856" cy="276.596" r="30"/></g></g><g><path d="m143.406 404.025c0 9.389 7.611 17 17 17h24.594v-34h-24.594c-9.389 0-17 7.611-17 17z" fill="#ff8e9e"/><path d="m227.589 370.025h-51.964c-8.873 0-15.139 8.693-12.333 17.111l11.333 34c1.769 5.308 6.737 8.889 12.333 8.889h40.63c16.569 0 30-13.431 30-30 .001-16.568-13.431-30-29.999-30z" fill="#9ea2e3"/></g><ellipse cx="97.917" cy="357.978" fill="#ff8e9e" rx="23.957" ry="30.083" transform="matrix(.001 -1 1 .001 -260.166 455.511)"/><g><path d="m512 260.025c0-15.164-12.337-27.5-27.5-27.5h-17.515c-9.256 0-17.734 4.638-22.781 12.127-8.787-13.686-19.49-25.783-31.958-36.068-3.194-2.635-7.922-2.183-10.559 1.013-2.636 3.195-2.182 7.922 1.014 10.558 31.267 25.792 51.62 65.619 51.62 109.869v.249c0 22.312-5.185 43.438-14.406 62.251h-175.581c-3.484-17.096-18.635-30-36.745-30h-51.964c-10.299 0-18.824 7.631-20.265 17.525-7.184 1.51-13.216 6.176-16.579 12.475h-81.062c-1.649-4.094-35.179-87.28-36.942-91.656-3.834-9.58-5.777-19.927-5.777-30.755 0-46.311 36.244-82.588 82.514-82.588h115.135c4.143 0 7.5-3.358 7.5-7.5s-3.357-7.5-7.5-7.5h-54.756c4.759-6.32 7.595-14.186 7.608-22.705.017-11.191 9.095-20.295 20.236-20.295h64.116c11.142 0 20.219 9.104 20.236 20.296.032 20.79 16.854 37.704 37.5 37.704 26.1 0 50.144 5.687 71.462 16.902 3.668 1.929 8.202.518 10.13-3.146 1.929-3.666.52-8.201-3.146-10.129-23.495-12.359-49.888-18.626-78.446-18.627-12.388 0-22.48-10.195-22.5-22.728-.029-19.449-15.837-35.272-35.236-35.272h-9.353v-22.5c0-28.949-23.552-52.5-52.5-52.5h-4.773c-3.082-8.755-11.431-15.05-21.227-15.05-12.671 0-22.5 10.363-22.5 22.894v29.212c0 12.539 9.834 22.894 22.5 22.894 9.74 0 18.064-6.244 21.182-14.95h4.818c4.136 0 7.5 3.364 7.5 7.5v22.5h-9.764c-19.399 0-35.207 15.823-35.236 35.272-.02 12.532-10.112 22.728-22.5 22.728h-30.486c-55.735 0-97.514 44.862-97.514 97.588 0 12.745 2.305 24.967 6.856 36.346 39.635 98.334 38.797 96.246 40.082 99.466l.58 1.454c6.477 16.189 16.01 30.628 28.335 42.917 2.925 2.916 7.672 2.926 10.607-.016 2.924-2.933 2.917-7.682-.017-10.606-9.4-9.372-16.955-20.167-22.523-32.148h72.239c1.704 11.857 11.925 21 24.246 21h9.596c3.746 5.531 10.032 9 16.957 9h40.63c18.11 0 33.261-12.904 36.745-30h167.061c-25.454 39.089-69.616 65-119.739 65h-145.755c-20.144 0-39.95-5.42-57.279-15.673-3.562-2.109-8.164-.93-10.274 2.635-2.109 3.565-.929 8.165 2.636 10.274 19.64 11.622 42.089 17.764 64.918 17.764h145.756c55.894 0 104.478-28.246 132.686-71.922 5.064 7.369 13.473 11.922 22.645 11.922h18.012c14.888 0 27-12.112 27-27v-50.5c0-7.789-3.131-14.939-8.356-20 5.227-5.061 8.356-12.211 8.356-20zm-342.5-183.169c-.001.049-.002.097-.002.143-.013 4.123-3.377 7.477-7.498 7.477-4.382 0-7.5-3.794-7.5-7.894v-29.213c0-4.093 3.111-7.894 7.5-7.894 4.136 0 7.5 3.365 7.5 7.5zm18.5-7.331h-3.5v-15h3.5c20.678 0 37.5 16.822 37.5 37.5v22.5h-15v-22.5c0-12.407-10.094-22.5-22.5-22.5zm-37.094 334.5c0-4.392 3-8.086 7.054-9.169l6.223 18.669h-3.777c-5.238 0-9.5-4.262-9.5-9.5zm19.487-19.305c.015.042.029.085.043.128zm57.196 37.805h-40.63c-2.371 0-4.468-1.511-5.221-3.77l-11.268-33.805c-.023-.079-.047-.158-.07-.232-.185-.568-.277-1.146-.277-1.715 0-2.634 2.104-5.478 5.503-5.478h51.964c12.406 0 22.5 10.093 22.5 22.5s-10.095 22.5-22.501 22.5zm269.411-112.5c0 5.528-3.326 10.319-8.276 11.923-3.514 1.139-5.874 4.385-5.874 8.077s2.36 6.938 5.875 8.077c4.949 1.604 8.275 6.395 8.275 11.923v50.5c0 6.617-5.383 12-12 12h-18.014c-4.994 0-9.499-2.962-11.468-7.527l-2.227-5.204c10.481-21.338 16.029-44.993 16.029-69.521v-.249c0-24.078-5.585-48.028-16.159-69.514l2.348-5.439c1.978-4.585 6.482-7.547 11.476-7.547h17.515c6.893 0 12.5 5.607 12.5 12.5z"/><path d="m80.421 315.333c-4.139 0-7.496 3.354-7.5 7.493l-.011 11.848c-.004 4.142 3.351 7.503 7.493 7.507h.007c4.139 0 7.496-3.354 7.5-7.493l.011-11.848c.004-4.142-3.351-7.503-7.493-7.507-.003 0-.005 0-.007 0z"/><path d="m97.604 295.537c-.715-4.08-4.597-6.812-8.683-6.093l-19.538 3.424c-4.08.715-6.808 4.602-6.093 8.682.639 3.642 3.805 6.207 7.379 6.207.43 0 .865-.037 1.304-.114l19.538-3.424c4.081-.715 6.808-4.602 6.093-8.682z"/><path d="m106.8 276.596c0 20.678 16.822 37.5 37.5 37.5s37.5-16.822 37.5-37.5-16.822-37.5-37.5-37.5-37.5 16.822-37.5 37.5zm60 0c0 12.407-10.094 22.5-22.5 22.5s-22.5-10.093-22.5-22.5 10.094-22.5 22.5-22.5 22.5 10.093 22.5 22.5z"/><path d="m234.578 239.096c-20.678 0-37.5 16.822-37.5 37.5s16.822 37.5 37.5 37.5 37.5-16.822 37.5-37.5-16.822-37.5-37.5-37.5zm0 60c-12.406 0-22.5-10.093-22.5-22.5s10.094-22.5 22.5-22.5 22.5 10.093 22.5 22.5-10.094 22.5-22.5 22.5z"/><path d="m287.356 276.596c0 20.678 16.822 37.5 37.5 37.5s37.5-16.822 37.5-37.5-16.822-37.5-37.5-37.5-37.5 16.822-37.5 37.5zm60 0c0 12.407-10.094 22.5-22.5 22.5s-22.5-10.093-22.5-22.5 10.094-22.5 22.5-22.5 22.5 10.093 22.5 22.5z"/></g></g></svg>