<svg id="Capa_1" enable-background="new 0 0 512 512" height="512" viewBox="0 0 512 512" width="512" xmlns="http://www.w3.org/2000/svg"><g><g><path d="m255.998 127.72c-24.853 0-45 20.147-45 45h90c0-24.853-20.147-45-45-45z" fill="#4c5699"/><path d="m227.797 317.72-51.797-144.764c25.641-10.089 52.502-15.215 79.836-15.235h.162c27.392 0 54.309 5.126 80.002 15.235l-51.801 144.764c-9.072-3.571-18.561-5.38-28.201-5.38h-.109c-9.566.007-19.036 1.818-28.092 5.38z" fill="#676fb2"/></g><g><g><path d="m146.75 152.955h-27.807c-13.706 0-26.344 7.402-33.047 19.357l-53.396 95.218 53.395 95.218c6.704 11.955 19.341 19.357 33.047 19.357h27.807c53.713-10.488 94.251-57.794 94.251-114.575s-40.538-104.088-94.25-114.575z" fill="#30cd9c"/><path d="m52.5 267.53c0-56.781 40.538-104.088 94.25-114.575-7.281-1.422-14.802-2.175-22.5-2.175-64.479 0-116.75 52.271-116.75 116.75s52.271 116.75 116.75 116.75c7.698 0 15.219-.753 22.5-2.175-53.712-10.488-94.25-57.794-94.25-114.575z" fill="#0caf7b"/></g><g><g><path d="m154.25 202.377h-20l-41.75 65.153 41.75 65.153h20c24.618-11.382 41.75-36.297 41.75-65.153s-17.132-53.771-41.75-65.153z" fill="#b9f0ff"/></g><path d="m112.5 267.53c0-28.856 17.132-53.771 41.75-65.153-9.135-4.223-19.293-6.597-30-6.597-39.563 0-71.75 32.187-71.75 71.75s32.187 71.75 71.75 71.75c10.707 0 20.865-2.374 30-6.597-24.618-11.382-41.75-36.297-41.75-65.153z" fill="#7ce3ff"/></g></g><g><g><path d="m410.25 152.955h-27.807c-13.706 0-26.344 7.402-33.047 19.357l-53.396 95.218 53.395 95.218c6.704 11.955 19.341 19.357 33.047 19.357h27.807c53.712-10.488 94.25-57.794 94.25-114.575s-40.537-104.088-94.249-114.575z" fill="#30cd9c"/><path d="m316 267.53c0-56.781 40.538-104.088 94.25-114.575-7.281-1.422-14.802-2.175-22.5-2.175-64.479 0-116.75 52.271-116.75 116.75s52.271 116.75 116.75 116.75c7.698 0 15.219-.753 22.5-2.175-53.712-10.488-94.25-57.794-94.25-114.575z" fill="#0caf7b"/></g><g><g><path d="m417.75 202.377h-20l-41.75 65.153 41.75 65.153h20c24.618-11.381 41.75-36.296 41.75-65.153s-17.132-53.771-41.75-65.153z" fill="#b9f0ff"/></g><path d="m376 267.53c0-28.856 17.132-53.771 41.75-65.153-9.135-4.223-19.293-6.597-30-6.597-39.563 0-71.75 32.187-71.75 71.75s32.187 71.75 71.75 71.75c10.707 0 20.865-2.374 30-6.597-24.618-11.382-41.75-36.297-41.75-65.153z" fill="#7ce3ff"/></g></g><g><g><g><ellipse cx="136.443" cy="286.783" fill="#ff8e9e" rx="29.355" ry="23.377"/></g><g><ellipse cx="375.557" cy="286.783" fill="#ff8e9e" rx="29.355" ry="23.377"/></g></g></g><g><path d="m387.75 188.279c-43.698 0-79.25 35.552-79.25 79.25s35.552 79.25 79.25 79.25 79.25-35.551 79.25-79.25-35.552-79.25-79.25-79.25zm0 143.5c-35.428 0-64.25-28.822-64.25-64.25s28.822-64.25 64.25-64.25 64.25 28.823 64.25 64.25-28.822 64.25-64.25 64.25z"/><path d="m153.551 271.78c4.143 0 7.5-3.357 7.5-7.5v-12c0-4.143-3.357-7.5-7.5-7.5s-7.5 3.357-7.5 7.5v12c0 4.143 3.357 7.5 7.5 7.5z"/><path d="m358.448 244.78c-4.143 0-7.5 3.357-7.5 7.5v12c0 4.143 3.357 7.5 7.5 7.5s7.5-3.357 7.5-7.5v-12c0-4.142-3.357-7.5-7.5-7.5z"/><path d="m124.25 346.779c43.698 0 79.25-35.552 79.25-79.25s-35.552-79.25-79.25-79.25-79.25 35.552-79.25 79.25 35.552 79.25 79.25 79.25zm0-143.5c35.428 0 64.25 28.822 64.25 64.25s-28.822 64.25-64.25 64.25-64.25-28.822-64.25-64.25 28.822-64.25 64.25-64.25z"/><path d="m387.75 143.279c-23.219 0-44.966 6.408-63.579 17.54-6.103-1.939-12.265-3.621-18.479-5.031-7.162-21.165-26.955-35.568-49.695-35.568-22.739 0-42.533 14.403-49.695 35.567-6.21 1.409-12.371 3.092-18.474 5.031-18.612-11.131-40.36-17.54-63.579-17.54-25.165 0-49.404 7.485-70.098 21.647-3.418 2.34-4.292 7.007-1.953 10.426 2.34 3.417 7.005 4.295 10.426 1.953 18.187-12.447 39.496-19.026 61.625-19.026 60.24 0 109.25 49.01 109.25 109.25s-49.01 109.25-109.25 109.25-109.249-49.008-109.249-109.249c-.001-26.32 9.489-51.745 26.723-71.592 2.716-3.127 2.382-7.864-.746-10.58-3.126-2.715-7.863-2.382-10.58.746-19.603 22.576-30.398 51.494-30.397 81.426 0 68.512 55.738 124.25 124.25 124.25 48.584 0 90.737-28.034 111.153-68.771 13.466-4.2 27.736-4.198 41.194.001 20.416 40.737 62.569 68.77 111.153 68.77 26.328 0 51.493-8.142 72.775-23.543 3.355-2.429 4.106-7.118 1.679-10.474-2.429-3.355-7.118-4.104-10.474-1.679-18.707 13.539-40.831 20.695-63.98 20.695-60.24 0-109.25-49.01-109.25-109.25s49.01-109.25 109.25-109.25 109.25 49.011 109.25 109.251c.001 25.275-8.827 49.916-24.858 69.382-2.634 3.197-2.176 7.924 1.021 10.557 3.196 2.634 7.924 2.178 10.557-1.021 18.238-22.145 28.281-50.171 28.28-78.917 0-68.512-55.738-124.251-124.25-124.251zm-131.752-8.058c13.11 0 24.848 6.701 31.578 17.231-10.454-1.485-21.01-2.232-31.616-2.232-10.574 0-21.105.747-31.538 2.229 6.731-10.529 18.468-17.228 31.576-17.228zm7.502 132.308c0 13.417 2.146 26.341 6.099 38.456-9.011-1.48-18.185-1.48-27.198 0 3.953-12.115 6.099-25.038 6.099-38.456 0-38.414-17.525-72.809-44.997-95.618 17.161-4.438 34.745-6.691 52.457-6.691 17.756 0 35.366 2.254 52.536 6.692-27.472 22.809-44.996 57.204-44.996 95.617z"/></g></g></svg>