<svg id="Capa_1" enable-background="new 0 0 512 512" height="512" viewBox="0 0 512 512" width="512" xmlns="http://www.w3.org/2000/svg"><g><g><g><path d="m122.976 488.756c-31.831 0-57.728-25.897-57.728-57.729s25.897-57.729 57.728-57.729h266.048c31.831 0 57.728 25.897 57.728 57.729s-25.897 57.729-57.728 57.729z" fill="#4c5699"/></g><g><g><path d="m122.976 389.043c-23.15 0-41.983 18.835-41.983 41.984v41.985h41.983c23.15 0 41.983-18.835 41.983-41.985s-18.833-41.984-41.983-41.984z" fill="#d4d4ff"/></g><g><circle cx="211.917" cy="431.027" fill="#d4d4ff" r="41.984"/></g><g><circle cx="300.083" cy="431.027" fill="#d4d4ff" r="41.984"/></g><g><path d="m389.024 389.043c-23.15 0-41.983 18.835-41.983 41.984 0 23.15 18.834 41.985 41.983 41.985h41.983v-41.985c.001-23.15-18.833-41.984-41.983-41.984z" fill="#d4d4ff"/></g></g><g><path d="m461.964 422.24h-31.886c1.711 8.005 1.073 16.512-2.037 24.298-1.55 3.88-1.447 8.012-.027 11.614-3.875-.073-7.797 1.246-10.906 4.049-7.729 6.971-17.702 10.811-28.083 10.811h-.232c-5.55 0-10.431 2.872-13.234 7.212-2.803-4.34-7.683-7.212-13.234-7.212h-29.755c-5.55 0-10.431 2.873-13.235 7.213-2.803-4.34-7.684-7.213-13.234-7.213h-37.19c-5.55 0-10.431 2.873-13.235 7.213-2.803-4.34-7.684-7.213-13.234-7.213h-36.545c-5.55 0-10.431 2.873-13.234 7.213-2.804-4.34-7.685-7.213-13.235-7.213h-29.754c-5.55 0-10.431 2.872-13.234 7.212-2.803-4.34-7.684-7.212-13.234-7.212h-.232c-10.381 0-20.355-3.84-28.083-10.811-3.109-2.802-7.032-4.122-10.906-4.049 1.421-3.603 1.523-7.735-.027-11.614-3.108-7.781-3.75-16.287-2.037-24.298h-31.885c-1.45 12.046.074 24.443 4.682 35.979 2.461 6.159 8.374 9.908 14.626 9.908.116 0 .233-.001.35-.004-2.334 5.931-.903 12.941 4.108 17.461 13.525 12.199 30.988 18.917 49.174 18.917h.232c5.55 0 10.431-2.872 13.234-7.212 2.803 4.34 7.684 7.212 13.234 7.212h29.754c5.55 0 10.431-2.873 13.235-7.213 2.803 4.34 7.684 7.213 13.234 7.213h36.545c5.55 0 10.431-2.873 13.234-7.213 2.804 4.34 7.685 7.213 13.235 7.213h37.19c5.55 0 10.431-2.873 13.234-7.213 2.804 4.34 7.685 7.213 13.235 7.213h29.754c5.55 0 10.431-2.872 13.234-7.212 2.803 4.34 7.684 7.212 13.234 7.212h.232c18.186 0 35.649-6.718 49.174-18.917 5.011-4.52 6.442-11.53 4.108-17.461.117.003.234.004.35.004 6.252 0 12.165-3.748 14.626-9.908 4.606-11.535 6.13-23.931 4.68-35.979z" fill="#9ea2e3"/></g></g><g><g><path d="m269.946 13.894h-47.74v81.926h47.74c19.901-8.199 33.292-23.468 33.292-40.963s-13.391-32.763-33.292-40.963z" fill="#18c08b"/></g><g><path d="m236.654 54.856c0-17.495 13.391-32.763 33.292-40.963-9.85-4.059-21.287-6.394-33.5-6.394-36.888 0-66.792 21.202-66.792 47.356s29.904 47.356 66.792 47.356c12.213 0 23.65-2.335 33.5-6.394-19.901-8.197-33.292-23.465-33.292-40.961z" fill="#0caf7b"/></g></g><g><g><path d="m406.48 118.956v37.945l16.701 32.198 46.208-11.001-16.701-70.143z" fill="#30cd9c"/></g><g><path d="m503.924 169.875-16.7-70.143c-1.105-4.645-4.012-8.659-8.077-11.161-4.065-2.501-8.957-3.284-13.603-2.181l-17.024 4.054c-9.671 2.303-15.645 12.009-13.342 21.68l16.7 70.143c1.105 4.645 4.012 8.659 8.077 11.161 2.86 1.76 6.13 2.67 9.434 2.67 1.394 0 2.792-.162 4.169-.489l17.024-4.054c8.261-1.967 13.918-9.336 13.918-17.471 0-1.34-.24-2.799-.576-4.209z" fill="#0caf7b"/></g><g><path d="m368.286 217.587-23.649-99.327 43.777-10.422c8.059-1.919 16.147 3.059 18.066 11.118l16.701 70.143c1.919 8.059-3.059 16.148-11.118 18.066z" fill="#0caf7b"/></g></g><g><g><path d="m397.916 210.639-23.65-99.327c-7.88-33.097-37.452-56.455-71.475-56.455h-5.35c-43.957 0-83.352 27.129-99.029 68.195l-33.436 87.587c-7.852 32.978 17.154 64.637 51.053 64.637h40 90.833c33.9-.001 58.906-31.659 51.054-64.637z" fill="#30cd9c"/></g><g><path d="m203.965 216.241c.238-1.86.565-3.729 1.011-5.603l23.649-99.327c2.293-9.63 6.433-18.428 11.975-26.073 13.503-18.631 35.378-30.382 59.5-30.382h-130c-34.022 0-63.594 23.358-71.475 56.455l-23.649 99.327c-7.852 32.978 17.154 64.637 51.053 64.637h130c-31.973 0-56.021-28.164-52.064-59.034z" fill="#18c08b"/></g></g><g><g><path d="m240.6 85.238-36.635 36.635v94.368c9.589 4.991 20.478 7.829 32.035 7.829 38.384 0 69.5-31.117 69.5-69.5 0-36.837-28.663-66.962-64.9-69.332z" fill="#0caf7b"/></g><g><path d="m166.5 154.57c0 26.826 15.208 50.086 37.465 61.671.238-1.86.565-3.729 1.011-5.603l23.649-99.327c2.293-9.63 6.433-18.428 11.975-26.073-1.522-.1-3.052-.168-4.6-.168-38.384 0-69.5 31.116-69.5 69.5z" fill="#009d6b"/></g></g><g><path d="m263.884 134.212-12.151-1.776-5.434-11.074c-4.199-8.555-16.376-8.604-20.598 0l-5.434 11.074-12.151 1.776c-9.42 1.377-13.181 13.019-6.365 19.701l8.793 8.62-2.076 12.171c-1.609 9.435 8.238 16.631 16.664 12.176l10.868-5.746c9.822 5.193 6.588 3.483 10.869 5.746 8.425 4.455 18.273-2.741 16.664-12.176l-2.076-12.171 8.793-8.62c6.816-6.682 3.055-18.324-6.366-19.701z" fill="#ffce71"/></g><g><g><path d="m503.345 379.344-21.668-91.264c-4.704-19.813-22.357-33.797-42.667-33.797h-190.855c-9.266 0-17.319 6.365-19.459 15.38l-32.467 136.744c-2.983 12.564 6.545 24.62 19.459 24.62h246.809c27.108 0 47.111-25.307 40.848-51.683z" fill="#18c08b"/></g><g><path d="m216.655 379.344 21.668-91.264c4.704-19.813 22.357-33.797 42.667-33.797h-208c-20.31 0-37.963 13.983-42.667 33.797l-21.668 91.264c-6.262 26.376 13.74 51.684 40.849 51.684h208c-27.109-.001-47.112-25.308-40.849-51.684z" fill="#0caf7b"/></g></g><g><g><g><g><ellipse cx="176.443" cy="357.135" fill="#ff8e9e" rx="29.355" ry="23.377"/></g></g><g><g><ellipse cx="335.557" cy="357.135" fill="#ff8e9e" rx="29.355" ry="23.377"/></g></g></g></g><g><path d="m313 154.57c0-42.458-34.542-77-77-77s-77 34.542-77 77 34.542 77 77 77 77-34.542 77-77zm-139 0c0-34.187 27.813-62 62-62s62 27.813 62 62-27.813 62-62 62-62-27.813-62-62z"/></g><g><path d="m186.051 322.632v12c0 4.143 3.357 7.5 7.5 7.5s7.5-3.357 7.5-7.5v-12c0-4.143-3.357-7.5-7.5-7.5s-7.5 3.357-7.5 7.5z"/></g><g><path d="m310.948 322.632v12c0 4.143 3.357 7.5 7.5 7.5s7.5-3.357 7.5-7.5v-12c0-4.143-3.357-7.5-7.5-7.5s-7.5 3.357-7.5 7.5z"/></g><g><path d="m266.81 329.348c-5.725 6.569-15.899 6.564-21.619 0-2.721-3.124-7.459-3.448-10.581-.728-3.123 2.721-3.449 7.459-.728 10.581 11.702 13.431 32.545 13.419 44.236 0 2.722-3.122 2.396-7.86-.728-10.581-3.121-2.721-7.861-2.396-10.58.728z"/></g><g><path d="m501.402 338.693c-.956-4.03-4.998-6.526-9.029-5.564-4.03.957-6.521 4.999-5.564 9.029l9.24 38.918c.631 2.659.951 5.369.951 8.054 0 18.967-15.479 34.397-34.512 34.397h-412.984c-19.025 0-34.504-15.43-34.504-34.397 0-2.686.32-5.395.951-8.054l21.669-91.264c3.919-16.503 18.463-28.029 35.37-28.029h366.02c16.907 0 31.451 11.526 35.37 28.029l5.498 23.157c.957 4.03 5.002 6.524 9.029 5.564 4.03-.957 6.521-4.999 5.564-9.029l-5.498-23.157c-5.53-23.295-26.076-39.564-49.964-39.564h-37.161c4.201-9.545 5.821-20.006 4.632-30.579l7.32-1.743c9.512-2.264 16.169-10.295 17.159-19.505l16.466-3.92c5.682 9.69 16.98 14.453 27.87 11.868l17.024-4.054c11.588-2.758 19.681-12.943 19.681-24.766 0-1.798-.255-3.743-.78-5.946l-16.7-70.143c-3.254-13.672-17.034-22.155-30.713-18.9l-17.024 4.054c-11.14 2.652-18.829 12.284-19.541 23.155l-16.469 3.921c-5.104-7.909-14.647-11.931-24.096-9.683l-7.226 1.72c-10.278-30.381-37.394-51.729-69.351-54.575-4.799-27.771-36.819-47.687-73.655-47.687-37.021 0-68.883 20.008-73.656 47.692-34.461 3.079-63.324 27.712-71.46 61.882l-7.589 31.874c-.96 4.029 1.529 8.074 5.559 9.033 4.028.963 8.073-1.529 9.033-5.559l7.589-31.874c7.062-29.658 33.288-50.5 63.777-50.683 2.247-.013 129.459-.01 133.094-.01 30.636 0 57.018 20.809 64.147 50.573.018.072.035.146.055.219l23.598 99.108.028.121c2.785 11.682.91 23.961-5.723 34.405h-296.903c-6.69-10.534-8.479-22.823-5.723-34.407l9.111-38.27c.96-4.029-1.529-8.074-5.559-9.033-4.033-.968-8.074 1.528-9.033 5.559l-9.111 38.27c-3.038 12.755-1.875 26.004 3.382 37.923-23.058.85-42.654 16.858-48.035 39.523l-21.669 91.265c-.9 3.792-1.357 7.668-1.357 11.519 0 24.801 18.413 45.385 42.32 48.87.673 7.902 2.483 15.614 5.434 23.001 2.457 6.15 7.397 10.843 13.363 13.114.078 6.376 2.765 12.621 7.661 17.037 14.906 13.444 34.236 20.848 54.429 20.848 4.82 0 9.409-1.471 13.234-4.123 3.825 2.652 8.414 4.123 13.234 4.123h29.754c4.82 0 9.409-1.472 13.234-4.123 3.825 2.651 8.414 4.123 13.234 4.123h36.545c4.82 0 9.409-1.472 13.234-4.123 3.825 2.651 8.415 4.123 13.234 4.123h37.189c4.82 0 9.409-1.472 13.234-4.123 3.825 2.651 8.414 4.123 13.234 4.123h29.754c4.828 0 9.425-1.476 13.253-4.136 3.867 2.66 8.53 4.136 13.447 4.136 20.044 0 39.292-7.404 54.197-20.848 4.896-4.416 7.583-10.661 7.661-17.037 5.966-2.271 10.906-6.964 13.363-13.113 2.951-7.387 4.762-15.099 5.434-23.001 23.903-3.483 42.32-24.067 42.32-48.871 0-3.85-.457-7.726-1.357-11.519zm-323.174-291.332c5.029-17.384 28.155-32.361 58.217-32.361 30.986 0 53.367 15.636 58.215 32.356-22.251 0-91.073-.001-116.432.005zm251.391 73.796 13.226 55.551-14.105 3.357-13.226-55.551zm20.638-23.417 17.021-4.053c5.633-1.339 11.31 2.151 12.65 7.782l16.7 70.144c1.473 6.173-2.561 11.402-7.783 12.646l-17.021 4.053c-5.637 1.335-11.296-2.094-12.65-7.782l-16.7-70.143c-1.341-5.632 2.15-11.306 7.783-12.647zm-66.981 19.031 6.875-1.637c4.043-.961 8.075 1.534 9.033 5.56l16.7 70.143c.958 4.022-1.536 8.075-5.56 9.033l-6.874 1.637zm5.641 348.738c-16.391-.05-30.118-11.597-33.545-26.981h67.295c-.394 1.677-.879 3.162-1.362 4.614-.895 2.691-1.857 5.589-1.938 9.034-2.658 1.012-5.127 2.513-7.283 4.456-6.41 5.782-14.418 8.848-23.167 8.877zm-133.239 4.126c-2.614-1.812-5.59-3.057-8.748-3.674 3.64-3.648 6.704-7.866 9.07-12.498 2.345 4.588 5.375 8.769 8.97 12.394-3.361.573-6.528 1.862-9.292 3.778zm-155.764-13.005c-2.158-1.944-4.63-3.446-7.292-4.458-.086-3.435-1.043-6.335-1.933-9.03-.48-1.454-.962-2.941-1.355-4.614h67.293c-3.427 15.385-17.154 26.932-33.545 26.981-8.747-.029-16.756-3.095-23.168-8.879zm67.532-3.923c2.322 4.744 5.384 9.059 9.03 12.805h-18.06c3.646-3.746 6.708-8.061 9.03-12.805zm10.819-14.18h67.305c-3.434 15.419-17.214 26.984-33.652 26.984s-30.219-11.565-33.653-26.984zm88.166 0h67.305c-3.434 15.419-17.214 26.984-33.652 26.984s-30.219-11.565-33.653-26.984zm78.123 14.18c2.322 4.744 5.384 9.059 9.03 12.805h-18.06c3.646-3.746 6.708-8.061 9.03-12.805zm-282.87 2.729c-2.175-5.442-3.58-11.107-4.236-16.908h16.61c.605 3.908 1.59 6.9 2.387 9.316.937 2.837 1.337 4.172 1.117 5.645l-9.938 6.933c-2.613-.57-4.909-2.405-5.94-4.986zm61.523 41.564c-16.476 0-32.237-6.032-44.382-16.986-2.057-1.855-2.992-4.618-2.616-7.292l9.862-6.879c1.41.301 2.72.956 3.798 1.928 9.053 8.165 20.803 12.68 33.106 12.736v.005c.037 0 .073-.003.11-.003.041 0 .081.003.122.003 2.175 0 4.212.854 5.734 2.332v11.824c-1.522 1.478-3.559 2.332-5.734 2.332zm56.223 0h-29.754c-2.175 0-4.212-.854-5.734-2.332v-11.824c1.522-1.479 3.559-2.332 5.734-2.332h29.754c2.175 0 4.212.854 5.734 2.333v11.822c-1.522 1.479-3.559 2.333-5.734 2.333zm63.013 0h-36.545c-2.175 0-4.212-.854-5.734-2.333v-11.822c1.522-1.479 3.559-2.333 5.734-2.333h36.545c2.175 0 4.212.854 5.733 2.333v11.822c-1.521 1.479-3.558 2.333-5.733 2.333zm63.659 0h-37.189c-2.175 0-4.212-.854-5.735-2.333v-11.822c1.523-1.479 3.56-2.333 5.735-2.333h37.189c2.175 0 4.212.854 5.734 2.333v11.822c-1.523 1.479-3.56 2.333-5.734 2.333zm56.222 0h-29.754c-2.175 0-4.212-.854-5.734-2.333v-11.822c1.522-1.479 3.559-2.333 5.734-2.333h29.754c2.175 0 4.212.854 5.734 2.332v11.824c-1.521 1.478-3.559 2.332-5.734 2.332zm70.851-16.986c-12.145 10.954-27.824 16.986-44.151 16.986-2.869 0-4.763-1.155-5.966-2.332v-11.825c1.521-1.479 3.559-2.331 5.734-2.331.041 0 .081-.003.122-.003.037 0 .073.003.11.003v-.005c12.304-.057 24.054-4.572 33.104-12.734 1.079-.974 2.391-1.627 3.802-1.929l9.861 6.878c.376 2.674-.559 5.436-2.616 7.292zm17.141-24.577c-1.034 2.588-3.283 4.428-5.932 4.99l-9.952-6.941c-.226-1.479.173-2.801 1.107-5.613.803-2.418 1.795-5.414 2.403-9.345h16.609c-.654 5.8-2.06 11.465-4.235 16.909z"/></g><g><path d="m219.771 195.727c-3.9 0-7.774-1.22-11.091-3.621-5.923-4.288-8.837-11.439-7.605-18.662l1.416-8.302-5.99-5.873c-5.212-5.108-7.043-12.6-4.777-19.55 2.258-6.924 8.123-11.878 15.308-12.928l8.243-1.205 3.694-7.527c3.218-6.558 9.741-10.631 17.023-10.631 7.294 0 13.823 4.073 17.041 10.631l3.694 7.527 8.242 1.205h.001c7.185 1.05 13.05 6.004 15.308 12.928 2.266 6.95.435 14.441-4.777 19.551l-5.99 5.872 1.416 8.302c1.231 7.223-1.683 14.374-7.605 18.662-5.886 4.264-13.533 4.801-19.958 1.404l-7.364-3.893-7.362 3.893c-2.805 1.483-5.845 2.216-8.867 2.217zm16.22-73.299c-.739 0-2.565.218-3.557 2.238l-5.434 11.074c-1.09 2.22-3.203 3.76-5.649 4.117l-12.151 1.775c-2.202.322-2.981 2.021-3.215 2.735-.237.728-.613 2.593 1.016 4.188l8.793 8.621c1.756 1.721 2.557 4.192 2.144 6.616l-2.075 12.171c-.387 2.267 1.001 3.547 1.615 3.991.597.434 2.194 1.328 4.149.294l10.868-5.746c2.195-1.16 4.82-1.158 7.012 0l10.867 5.745c1.955 1.034 3.554.141 4.15-.293.614-.444 2.002-1.725 1.615-3.991l-2.075-12.171c-.413-2.424.388-4.896 2.144-6.616l8.793-8.62c1.629-1.597 1.253-3.462 1.016-4.189-.233-.715-1.013-2.413-3.216-2.735l-12.15-1.775c-2.446-.357-4.56-1.897-5.649-4.117l-5.435-11.074c-.993-2.02-2.831-2.238-3.576-2.238z"/></g></g></svg>