<svg id="Capa_1" enable-background="new 0 0 512.005 512.005" height="512" viewBox="0 0 512.005 512.005" width="512" xmlns="http://www.w3.org/2000/svg"><g><g><path d="m402.998 20.128-6.885 6.885-31.77 31.77-156.571 266.967v35.355h35.355c11.716 11.715 30.711 11.715 42.427 0l68.073-68.073c2.813-2.813 4.393-6.628 4.393-10.607v-15.435h15.436c3.978 0 7.794-1.58 10.607-4.394l7.105-7.105c33.946-33.946 59.256-76.215 73.066-122.971 1.242-4.206.062-8.756-3.038-11.857l-12.917-12.917h15.481c3.878 0 7.206-2.779 7.885-6.597 2.926-16.474 4.457-33.367 4.468-50.534.026-38.252-46.067-57.535-73.115-30.487z" fill="#d4d4ff"/><path d="m396.113 50.41v-23.396l-31.77 31.77c-7.129-7.441-20.145-8.143-28.271-.017-7.8 7.802-7.798 20.492-.002 28.29l-14.139 14.139c-8.681-8.682-23.538-7.79-30.894 3.176-4.941 7.366-4.429 18.087 2.608 25.11l-14.145 14.143c-9.06-9.059-24.722-7.59-31.643 4.406-3.917 6.792-3.556 16.955 3.362 23.875l-14.144 14.144c-.001-.001-.001-.002-.002-.003-7.792-7.791-20.478-7.792-28.279-.003-7.825 7.825-7.819 20.476-.004 28.292l-14.139 14.139c-5.998-5.992-15.59-5.623-21.389.176l-10.082 10.082c-11.716 11.716-11.716 30.711 0 42.426v44.592h44.591l126.829-126.828c39.668-39.668 61.514-92.411 61.513-148.513z" fill="#9ea2e3"/></g><g><path d="m160.854 448.578 54.227-58.127-45.984-45.984-58.93 58.928v32.509c1.687 2.426 2.679 5.373 2.679 8.552 0 7.144-6.101 13.239-12.788 14.75l-24.935 25.924 19.344 19.375 49.217-.005c16.793 0 31.081-13.736 31.021-30.528-.038-10.641-5.545-19.988-13.851-25.394z" fill="#30cd9c"/><path d="m252.595 370.572-94.717-94.717c-8.979-8.979-23.66-8.782-32.389.59-8.315 8.928-7.676 22.983.951 31.61l3.966 8.114-78.359 86.05c-35.316 38.783-8.937 102.285 42.419 102.285.009-15.487 1.198-30.619 5.564-45.204.292-.027.636-.096.027-.096-8.284 0-17.212-6.466-17.212-14.75 0-8.285 6.716-15 15-15 5.105 0 9.612 2.553 12.322 6.449 7.634-15.848 17.911-30.458 30.573-43.12l18.214-18.214 62.203 28.203c2.959 2.959 4.622 6.973 4.622 11.158 0 11.747 8.785 21.935 20.487 22.951 13.333 1.159 24.513-9.321 24.513-22.412-.001-16.465-6.542-32.255-18.184-43.897z" fill="#0caf7b"/></g><g><g><g><ellipse cx="271.52" cy="292.253" fill="#ff8e9e" rx="29.355" ry="23.377" transform="matrix(.707 -.707 .707 .707 -127.127 277.594)"/></g><g><ellipse cx="384.03" cy="179.743" fill="#ff8e9e" rx="29.355" ry="23.377" transform="matrix(.707 -.707 .707 .707 -14.618 324.195)"/></g></g></g><g><path d="m190.568 439.428c-5.062 0-10.003-2.562-12.828-7.203l-63.268-103.941c-4.307-7.076-2.062-16.305 5.015-20.612 7.076-4.306 16.305-2.062 20.612 5.015l63.268 103.941c4.307 7.076 2.062 16.305-5.015 20.612-2.435 1.482-5.127 2.188-7.784 2.188z" fill="#c77464"/><path d="m211.769 417.576c-2.518 0-5.068-.635-7.412-1.97l-105.727-60.236c-7.197-4.101-9.708-13.261-5.607-20.459 4.102-7.198 13.261-9.708 20.459-5.607l105.727 60.236c7.197 4.101 9.708 13.261 5.607 20.459-2.766 4.855-7.833 7.577-13.047 7.577z" fill="#ce857a"/></g><g><path d="m475.889 64.062c.055.001.108.002.162.002 4.068 0 7.408-3.254 7.495-7.341.043-2.031.065-4.066.066-6.108 0-14.271-5.652-27.355-15.916-36.844-9.465-8.751-22.278-13.771-35.15-13.771-12.915 0-25.293 5.266-34.852 14.825-3.265 3.265-30.598 30.596-34.062 34.06-10.213-5.678-23.801-4.485-32.866 4.58-8.967 8.973-10.368 22.502-4.573 32.861l-4.992 4.991c-12.3-6.89-28.178-3.372-36.392 8.875-5.786 8.621-5.936 19.845-1.047 28.563l-4.993 4.993c-12.476-6.981-29.352-3.43-37.408 10.534-4.54 7.871-4.811 18.332-.019 26.894l-4.996 4.996c-10.208-5.712-23.765-4.509-32.856 4.567-9.096 9.098-10.318 22.639-4.58 32.868l-5.172 5.172c-8.603-4.082-19.013-2.197-25.78 4.567l-10.081 10.081c-7.373 7.374-11.568 17.576-10.91 28.762-9.87-1.651-19.912 1.565-26.967 9.143-7.883 8.464-9.931 20.457-5.964 30.973-5.787 4.212-9.038 10.789-9.23 17.578-7.365.421-14.383 4.438-18.3 11.313-3.983 6.99-3.828 15.402-.077 22.125l-15.927 17.49c-2.788 3.062-2.566 7.807.496 10.596 3.062 2.788 7.805 2.567 10.596-.496l15.986-17.555c4.909 2.863 14.452 8.317 45.161 25.792l24.992 41.06-12.363 13.252c-3.178 3.406-2.507 8.863 1.393 11.402 19.441 12.652 9.828 42.136-13.08 42.136l-49.216.005c-31.97 0-51.074-27.156-51.074-53.41 0-13.562 4.91-26.123 14.2-36.325l3.802-4.175c2.789-3.062 2.567-7.807-.495-10.595-3.062-2.79-7.807-2.568-10.595.495l-3.803 4.175c-11.847 13.012-18.109 29.064-18.109 46.425 0 35.809 27.221 68.41 66.075 68.41l49.215-.003c33.379 0 51.199-39.862 28.046-64.085l5.267-5.646c14.399 11.205 35.52 1.109 36.036-17.246 2.705-.146 4.742-.673 6.801-1.458 3.94 11.916 15.005 20.901 28.386 20.901 16.786 0 30.059-13.59 30.059-29.997 0-13.386-3.773-26.186-10.785-37.216 8.825-.728 17.028-4.508 23.365-10.844l68.074-68.073c4.248-4.25 6.588-9.9 6.588-15.91v-7.936h7.937c6.011 0 11.661-2.341 15.909-6.591l7.106-7.104c34.997-34.999 60.917-78.621 74.956-126.151 2.061-6.983-.021-14.378-4.929-19.283l-.304-.304c6.443-1.015 11.661-6 12.834-12.597.883-4.974 1.649-10.039 2.277-15.056.516-4.11-2.399-7.859-6.509-8.374-4.095-.515-7.859 2.398-8.374 6.509-.598 4.765-1.325 9.576-2.163 14.298-.042.233-.257.41-.501.41h-15.481c-3.033 0-5.769 1.827-6.929 4.63-1.161 2.803-.52 6.028 1.625 8.174l12.92 12.919c1.108 1.106 1.626 2.8 1.147 4.426-13.332 45.136-37.944 86.559-71.177 119.792l-7.106 7.105c-1.396 1.396-3.329 2.197-5.303 2.197h-15.435c-4.143 0-7.5 3.357-7.5 7.5v15.436c0 2.004-.78 3.888-2.196 5.304l-68.073 68.072c-8.799 8.801-23.022 8.782-31.805.014 0 0-.001-.001-.002-.002l-30.064-30.064 33.366-33.366c2.929-2.93 2.929-7.678 0-10.607-2.93-2.928-7.678-2.928-10.607 0l-33.366 33.366-39.288-39.288c-.003-.003-.005-.006-.008-.009-4.244-4.247-6.582-9.896-6.582-15.907 0-6.006 2.341-11.654 6.591-15.904l10.08-10.081c2.857-2.856 7.71-3.247 10.785-.174 2.931 2.926 7.677 2.926 10.604-.002l14.14-14.139c1.407-1.406 2.197-3.314 2.197-5.304s-.79-3.896-2.196-5.304c-4.893-4.891-4.893-12.789-.001-17.681 4.859-4.851 12.749-4.871 17.62-.058 2.922 2.989 7.722 3.005 10.667.06l14.144-14.145c2.929-2.929 2.929-7.677 0-10.605-4.398-4.4-4.475-10.827-2.17-14.824 4.493-7.787 14.295-8.396 19.844-2.851 2.93 2.93 7.677 2.928 10.606 0l14.145-14.145c2.929-2.931 2.927-7.685-.006-10.613-4.472-4.459-4.64-11.204-1.677-15.622 4.68-6.978 13.955-7.456 19.36-2.05 2.929 2.927 7.678 2.929 10.606 0l14.14-14.139c2.929-2.929 2.93-7.677.002-10.605-4.874-4.876-4.874-12.809.001-17.685 5.095-5.097 13.272-4.565 17.551-.099 2.913 3.04 7.75 3.084 10.72.115l18.967-18.967v5.29c.001 26.929-5.15 53.02-15.31 77.549-1.586 3.827.231 8.214 4.059 9.799 3.815 1.584 8.21-.225 9.799-4.059 10.918-26.358 16.453-54.381 16.452-83.289l-.001-20.289 4.689-4.689c6.822-6.822 15.206-10.429 24.243-10.429 17.729 0 36.066 13.322 36.066 35.611-.001 1.935-.021 3.866-.062 5.794-.088 4.142 3.198 7.57 7.339 7.657zm-352.504 250.016c3.531-2.15 8.156-1.027 10.308 2.507l14.538 23.885c-11.624-6.622-21.547-12.276-26.885-15.317l-.468-.769c-2.149-3.532-1.024-8.156 2.507-10.306zm60.117 113.19-13.889-22.817c8.073 4.597 17 9.681 26.879 15.308 5.746 9.438-6.816 17.653-12.99 7.509zm34.941-21.286c-2.014 3.919-6.733 5.179-10.374 3.107-25.653-14.614-45.153-25.715-59.988-34.161-34.495-19.638-44.823-25.518-46.676-26.696-.031-.028-.07-.062-.104-.092-.002-.002-.003-.003-.005-.005-.003-.002-.006-.004-.009-.007-.047-.042-.088-.08-.142-.126-2.7-2.329-3.376-6.273-1.606-9.379 2.048-3.594 6.639-4.852 10.229-2.804 2.78 1.584 103.965 59.232 105.727 60.236 3.49 1.989 4.784 6.35 2.948 9.927zm28.849-30.107c10.309 10.31 15.986 24.017 15.986 38.594 0 8.743-7.44 15.721-16.364 14.94-7.646-.664-13.636-7.463-13.636-15.479 0-1.284-.119-2.562-.331-3.829 3.635-10.146-.415-21.602-10.025-27.078-.828-.472-23.604-13.448-47.809-27.238l-28.607-46.999c-3.993-6.561-10.831-10.349-17.975-10.755-2.47-5.511-1.631-12.095 2.447-16.474 5.838-6.269 15.621-6.377 21.598-.397 3.029 3.029 88.25 88.249 94.716 94.715z"/><path d="m271.061 240.634c-2.07-3.589-6.659-4.814-10.245-2.745l-21.576 12.457c-3.587 2.071-4.816 6.658-2.745 10.245 2.071 3.588 6.66 4.815 10.245 2.745l6.345-3.664c.352.709.818 1.376 1.409 1.967l7.33 7.33c2.931 2.929 7.678 2.928 10.607 0 2.929-2.93 2.929-7.678 0-10.607l-6.25-6.25 2.135-1.233c3.587-2.071 4.816-6.658 2.745-10.245z"/><path d="m342.657 176.538 1.233-2.135 6.25 6.25c2.931 2.929 7.678 2.928 10.607 0 2.929-2.93 2.929-7.678 0-10.607l-7.33-7.33c-.591-.591-1.258-1.056-1.967-1.408l3.664-6.346c2.071-3.587.842-8.174-2.745-10.245-3.589-2.07-8.175-.844-10.245 2.745l-12.457 21.576c-2.071 3.587-.842 8.174 2.745 10.245 3.592 2.072 8.176.839 10.245-2.745z"/><path d="m328.042 220.977c4.12.276 7.713-2.837 7.996-6.969.283-4.133-2.837-7.713-6.969-7.996-17.844-1.206-32.494 13.578-31.28 31.28.271 3.957 3.566 6.987 7.475 6.986.173 0 .347-.006.521-.018 4.132-.283 7.252-3.863 6.969-7.996-.595-8.684 6.584-15.875 15.288-15.287z"/><path d="m120.345 444.094c0-12.406-10.094-22.5-22.5-22.5s-22.5 10.094-22.5 22.5 10.094 22.5 22.5 22.5 22.5-10.094 22.5-22.5zm-30 0c0-4.136 3.364-7.5 7.5-7.5s7.5 3.364 7.5 7.5-3.364 7.5-7.5 7.5-7.5-3.365-7.5-7.5z"/></g></g></svg>