<svg id="Capa_1" enable-background="new 0 0 512 512" height="512" viewBox="0 0 512 512" width="512" xmlns="http://www.w3.org/2000/svg"><g><path d="m278.5 102.5-22.5 10-22.5-10v-50l22.5-10 22.5 10z" fill="#9ea2e3"/><g><path d="m346 102.5h-52l-58 30v93.5h140v-93.5c0-16.569-13.432-30-30-30z" fill="#9ea2e3"/><path d="m314 102.5h-148c-16.569 0-30 13.431-30 30v93.5h148v-93.5c0-16.569 13.432-30 30-30z" fill="#8288cb"/></g><g><path d="m322 7.5h-66l-30 22.5 30 22.5h66c12.426 0 22.5-10.074 22.5-22.5 0-12.427-10.074-22.5-22.5-22.5z" fill="#d4d4ff"/><path d="m256 7.5h-66c-12.426 0-22.5 10.073-22.5 22.5 0 12.426 10.074 22.5 22.5 22.5h66c-12.426-12.426-12.426-32.574 0-45z" fill="#9ea2e3"/></g><g><path d="m480.41 224.452-196.41-39.465-48 20v273.25l46.264 26.263h56.393c16.387 0 32.512-4.394 46.496-12.936 73.548-44.923 119.347-125.509 119.347-213.285v-24.415c0-14.29-10.08-26.597-24.09-29.412z" fill="#d4d4ff"/><path d="m256 252.82c0-25.436 10.013-49.848 28-67.833l-12.241-2.459c-10.382-2.086-21.095-2.094-31.519 0l-208.65 41.924c-14.01 2.815-24.09 15.122-24.09 29.412v24.415c0 87.776 45.8 168.363 119.349 213.285 13.984 8.542 30.108 12.936 46.495 12.936h82.656 26.264c-16.817-16.816-26.264-39.624-26.264-63.406z" fill="#9ea2e3"/></g><g fill="#ff8e9e"><ellipse cx="178.088" cy="156.345" rx="25" ry="19.909"/><path d="m333.911 136.437c-13.807 0-25 8.914-25 19.909s11.193 19.909 25 19.909c13.808 0 25-8.914 25-19.909.001-10.996-11.192-19.909-25-19.909z"/></g><g><path d="m481.888 217.099-98.388-19.769v-23.857c0-4.142-3.357-7.5-7.5-7.5s-7.5 3.358-7.5 7.5v20.843l-95.263-19.141c-11.324-2.275-23.15-2.275-34.475 0-2.127.427-47.416 9.528-95.263 19.142v-61.817c0-12.407 10.094-22.5 22.5-22.5h180c12.406 0 22.5 10.093 22.5 22.5v10.973c0 4.142 3.357 7.5 7.5 7.5s7.5-3.358 7.5-7.5v-10.973c0-20.678-16.822-37.5-37.5-37.5h-60v-35h36c16.542 0 30-13.458 30-30s-13.457-30-29.999-30h-132c-16.542 0-30 13.458-30 30s13.458 30 30 30h36v35h-60c-20.678 0-37.5 16.822-37.5 37.5v64.83c-48.98 9.842-96.213 19.332-98.388 19.769-17.448 3.506-30.112 18.968-30.112 36.765v24.415c0 44.044 11.354 87.61 32.833 125.99 2.024 3.616 6.595 4.905 10.208 2.882 3.614-2.023 4.904-6.593 2.882-10.208-20.23-36.146-30.923-77.179-30.923-118.664v-24.415c0-10.678 7.599-19.956 18.067-22.059 6.901-1.386 201.348-40.458 208.65-41.925 9.383-1.885 19.182-1.885 28.564 0 4.52.908 204.122 41.015 208.65 41.925 10.47 2.104 18.069 11.381 18.069 22.059v24.415c0 84-44.355 163.273-115.757 206.884-12.678 7.744-27.404 11.837-42.587 11.837h-165.312c-15.183 0-29.908-4.093-42.586-11.836-27.105-16.556-50.367-38.001-69.139-63.74-2.442-3.347-7.135-4.081-10.479-1.64-3.347 2.441-4.081 7.132-1.641 10.479 19.938 27.336 44.646 50.115 73.439 67.702 15.034 9.182 32.463 14.035 50.406 14.035h165.312c17.942 0 35.372-4.854 50.405-14.036 37.308-22.787 68.389-55.049 89.884-93.298 21.625-38.48 33.055-82.184 33.055-126.387v-24.415c0-17.797-12.664-33.259-30.112-36.765zm-306.888-187.099c0-8.271 6.729-15 15-15h132c8.271 0 15 6.729 15 15s-6.729 15-15 15h-132c-8.271 0-15-6.729-15-15zm66 30h30v35h-30z"/><path d="m186.051 135.31v12c0 4.142 3.357 7.5 7.5 7.5s7.5-3.358 7.5-7.5v-12c0-4.142-3.357-7.5-7.5-7.5s-7.5 3.358-7.5 7.5z"/><path d="m310.948 135.31v12c0 4.142 3.357 7.5 7.5 7.5s7.5-3.358 7.5-7.5v-12c0-4.142-3.357-7.5-7.5-7.5s-7.5 3.358-7.5 7.5z"/><path d="m266.81 142.025c-5.727 6.571-15.899 6.564-21.619 0-2.721-3.123-7.459-3.448-10.581-.727-3.123 2.721-3.449 7.458-.728 10.582 11.703 13.431 32.545 13.417 44.236 0 2.722-3.123 2.396-7.86-.728-10.582s-7.86-2.396-10.58.727z"/><path d="m173.912 286.188c-2.929-2.928-7.678-2.929-10.606 0-2.93 2.929-2.93 7.678-.001 10.607 12.543 12.544 32.847 12.544 45.391 0 2.929-2.929 2.929-7.678-.001-10.607-2.928-2.929-7.677-2.928-10.606 0-1.358 1.358-2.912 2.442-4.588 3.263v-22.448h3.75c4.143 0 7.5-3.358 7.5-7.5s-3.357-7.5-7.5-7.5h-3.75v-2.5c0-4.142-3.357-7.5-7.5-7.5s-7.5 3.358-7.5 7.5v2.5h-3.75c-4.143 0-7.5 3.358-7.5 7.5s3.357 7.5 7.5 7.5h3.75v22.448c-1.677-.82-3.231-1.904-4.589-3.263z"/><path d="m313.912 286.188c-2.93-2.928-7.679-2.929-10.606 0-2.93 2.929-2.93 7.678-.001 10.607 12.543 12.544 32.847 12.544 45.391 0 2.929-2.929 2.929-7.678-.001-10.607-2.928-2.929-7.677-2.928-10.606 0-1.358 1.358-2.912 2.442-4.588 3.263v-22.448h3.75c4.143 0 7.5-3.358 7.5-7.5s-3.357-7.5-7.5-7.5h-3.75v-2.5c0-4.142-3.357-7.5-7.5-7.5s-7.5 3.358-7.5 7.5v2.5h-3.75c-4.143 0-7.5 3.358-7.5 7.5s3.357 7.5 7.5 7.5h3.75v22.448c-1.677-.82-3.231-1.904-4.589-3.263z"/><path d="m263.5 441.094v-188.274c0-4.142-3.357-7.5-7.5-7.5s-7.5 3.358-7.5 7.5v188.274c0 4.142 3.357 7.5 7.5 7.5s7.5-3.358 7.5-7.5z"/></g></g></svg>