<svg id="Capa_1" enable-background="new 0 0 512 512" height="512" viewBox="0 0 512 512" width="512" xmlns="http://www.w3.org/2000/svg"><g><g><g><g><path d="m296.316 52.5c0-24.853-20.147-45-45-45s-45 20.147-45 45v102l45 30 45-30z" fill="#676fb2"/><g><path d="m385.394 413.069c12.83-54.924 12.85-112.129 0-167.139 15.91 0 24.434-13.586 21.455-25.927-1.847-7.651-3.651-15.906-8.186-27.231-9.676-24.156-32.175-38.272-55.94-38.272h-46.233l-52 52v246l52 52h46.233c23.765 0 46.264-14.116 55.94-38.272 4.535-11.325 6.339-19.58 8.186-27.231 2.979-12.341-5.546-25.928-21.455-25.928z" fill="#30cd9c"/><path d="m274.49 454.5v-250c0-27.614 22.386-50 50-50-36.434 0-114.714 0-118.174 0-23.765 0-46.264 14.116-55.94 38.272-4.535 11.325-6.339 19.58-8.186 27.231-2.979 12.341 5.546 25.927 21.455 25.927-12.83 54.924-12.85 112.128 0 167.139-15.91 0-24.434 13.586-21.455 25.927 1.847 7.651 3.651 15.906 8.186 27.231 9.676 24.157 32.175 38.272 55.94 38.272h118.174c-27.614.001-50-22.385-50-49.999z" fill="#0caf7b"/></g></g></g></g><g fill="#009d6b"><circle cx="214.541" cy="454.5" r="15"/><circle cx="274.49" cy="454.5" r="15"/><circle cx="334.49" cy="454.5" r="15"/><circle cx="244.541" cy="404.5" r="15"/><circle cx="304.49" cy="404.5" r="15"/></g><g><path d="m299.516 197.015h-11l-30 48.985 30 48.985h11c17.804-9.105 30-27.615 30-48.985s-12.197-39.88-30-48.985z" fill="#b0ebd8"/><path d="m269.516 246c0-21.37 12.196-39.88 30-48.985-7.503-3.837-15.995-6.015-25-6.015-30.375 0-55 24.624-55 55 0 12.483 4.165 23.99 11.172 33.22h10.607v10.607c9.23 7.007 20.737 11.172 33.22 11.172 9.005 0 17.497-2.178 25-6.015-17.803-9.104-29.999-27.614-29.999-48.984z" fill="#70dcba"/></g><g><path d="m142.744 129.597c3.917-1.348 6.001-5.614 4.654-9.531-7.222-21.001-7.222-44.131 0-65.132 1.347-3.917-.737-8.184-4.654-9.531-3.914-1.343-8.184.736-9.531 4.654-8.303 24.146-8.303 50.74 0 74.886 1.346 3.913 5.609 6.001 9.531 4.654z"/><path d="m114.394 35.604c-3.916-1.344-8.185.736-9.532 4.653-10.476 30.463-10.476 64.019 0 94.485 1.346 3.914 5.609 6.001 9.531 4.654 3.917-1.348 6.001-5.614 4.654-9.531-9.395-27.321-9.395-57.412 0-84.729 1.347-3.917-.736-8.185-4.653-9.532z"/><path d="m384.106 129.865c-1.347 3.917.737 8.184 4.654 9.531 3.922 1.347 8.185-.741 9.531-4.654 10.477-30.465 10.477-64.021 0-94.485-1.348-3.917-5.612-5.997-9.532-4.653-3.917 1.348-6 5.615-4.653 9.532 9.396 27.318 9.396 57.409 0 84.729z"/><path d="m355.757 120.065c-1.347 3.917.737 8.184 4.654 9.531 3.922 1.347 8.185-.741 9.531-4.654 8.303-24.146 8.302-50.741-.001-74.887-1.348-3.917-5.616-5.996-9.532-4.653-3.917 1.348-6 5.615-4.653 9.532 7.222 21 7.222 44.13.001 65.131z"/><path d="m327.402 110.265c-1.347 3.917.737 8.185 4.654 9.531 3.922 1.347 8.185-.741 9.531-4.654 6.129-17.826 6.128-37.46-.001-55.284-1.348-3.917-5.615-6-9.531-4.654-3.917 1.348-6.001 5.614-4.654 9.531 5.049 14.679 5.049 30.849.001 45.53z"/><path d="m171.098 119.796c3.917-1.348 6.001-5.614 4.654-9.531-5.049-14.681-5.049-30.85 0-45.53 1.347-3.917-.737-8.184-4.654-9.531-3.918-1.344-8.184.738-9.531 4.654-6.13 17.825-6.13 37.459 0 55.284 1.346 3.914 5.61 6 9.531 4.654z"/><path d="m394.733 406.784c10.731-50.965 10.736-103.585 0-154.568 13.664-3.877 23.623-17.495 19.198-35.929-1.731-7.234-3.692-15.434-8.045-26.304-10.459-26.111-35.15-42.983-62.902-42.983h-128.906c-.008-42.809-.008-89.844-.008-94.5.02-20.712 16.753-37.5 37.51-37.5 20.524 0 37.48 16.583 37.5 37.5v72c0 4.13 3.36 7.5 7.5 7.5 4.131 0 7.5-3.37 7.5-7.5 0-.01 0-.01-.01-.021v-71.979c0-29.081-23.573-52.5-52.49-52.5-21.715 0-40.404 13.201-48.369 32.06-2.74 6.48-4.131 13.351-4.131 20.44v94.918c-24.634 2.736-45.899 18.833-55.405 42.567-4.351 10.865-6.312 19.062-8.042 26.295-4.42 18.431 5.545 32.063 19.196 35.937-7.404 35.161-9.937 72.286-6.612 110.102.362 4.126 4.01 7.199 8.127 6.814 4.127-.362 7.178-4.001 6.814-8.127-3.339-38.016-.601-76.328 8.053-113.368 1.098-4.702-2.476-9.206-7.304-9.206-10.963 0-16.026-8.98-14.164-16.667 1.941-8.091 3.631-15.651 7.856-26.202 8.166-20.389 27.391-33.563 48.978-33.563h136.407c21.586 0 40.812 13.174 48.978 33.561 4.222 10.544 5.909 18.089 7.858 26.205 1.86 7.693-3.207 16.665-14.165 16.665-4.829 0-8.401 4.505-7.304 9.206 12.363 52.929 12.786 108.996 0 163.727-1.098 4.702 2.476 9.206 7.304 9.206 10.892 0 16.037 8.899 14.164 16.667-1.942 8.094-3.635 15.66-7.856 26.202-8.167 20.387-27.393 33.561-48.979 33.561h-136.407c-21.586 0-40.811-13.174-48.977-33.561-4.222-10.544-5.909-18.09-7.858-26.205-1.86-7.693 3.207-16.665 14.165-16.665 4.829 0 8.402-4.506 7.303-9.207-1.634-6.993-3.077-14.133-4.288-21.221-.697-4.083-4.569-6.834-8.656-6.129-4.083.697-6.827 4.573-6.129 8.656.803 4.7 1.704 9.423 2.692 14.115-13.664 3.877-23.623 17.495-19.198 35.929 1.731 7.234 3.692 15.434 8.045 26.304 10.458 26.112 35.149 42.984 62.901 42.984h136.407c27.752 0 52.443-16.872 62.903-42.985 4.352-10.868 6.312-19.067 8.044-26.302 4.402-18.359-5.488-32.039-19.198-35.929z"/><path d="m274.777 183.5c-34.463 0-62.5 28.037-62.5 62.5s28.037 62.5 62.5 62.5 62.5-28.037 62.5-62.5-28.037-62.5-62.5-62.5zm0 110c-10.395 0-20.013-3.365-27.842-9.051l13.023-13.022c2.929-2.93 2.929-7.678 0-10.607-2.93-2.928-7.678-2.928-10.607 0l-13.023 13.022c-5.685-7.83-9.05-17.448-9.05-27.842 0-26.191 21.309-47.5 47.5-47.5s47.5 21.309 47.5 47.5-21.31 47.5-47.501 47.5z"/><path d="m204.828 327.061v12c0 4.143 3.358 7.5 7.5 7.5s7.5-3.357 7.5-7.5v-12c0-4.143-3.358-7.5-7.5-7.5s-7.5 3.357-7.5 7.5z"/><path d="m337.226 319.561c-4.142 0-7.5 3.357-7.5 7.5v12c0 4.143 3.358 7.5 7.5 7.5s7.5-3.357 7.5-7.5v-12c0-4.143-3.358-7.5-7.5-7.5z"/><path d="m296.896 343.631c2.721-3.123 2.396-7.86-.727-10.582s-7.861-2.396-10.582.727c-5.724 6.569-15.901 6.564-21.62 0-2.721-3.123-7.459-3.447-10.582-.727-3.123 2.722-3.448 7.459-.727 10.582 11.703 13.428 32.546 13.416 44.238 0z"/><path d="m192.302 454.5c0 12.406 10.094 22.5 22.5 22.5s22.5-10.094 22.5-22.5-10.094-22.5-22.5-22.5-22.5 10.094-22.5 22.5zm22.5-7.5c4.136 0 7.5 3.364 7.5 7.5s-3.364 7.5-7.5 7.5-7.5-3.364-7.5-7.5 3.365-7.5 7.5-7.5z"/><path d="m274.752 477c12.406 0 22.5-10.094 22.5-22.5s-10.094-22.5-22.5-22.5-22.5 10.094-22.5 22.5 10.093 22.5 22.5 22.5zm0-30c4.136 0 7.5 3.364 7.5 7.5s-3.364 7.5-7.5 7.5-7.5-3.364-7.5-7.5 3.364-7.5 7.5-7.5z"/><path d="m334.752 477c12.406 0 22.5-10.094 22.5-22.5s-10.094-22.5-22.5-22.5-22.5 10.094-22.5 22.5 10.093 22.5 22.5 22.5zm0-30c4.136 0 7.5 3.364 7.5 7.5s-3.364 7.5-7.5 7.5-7.5-3.364-7.5-7.5 3.364-7.5 7.5-7.5z"/><path d="m222.302 404.5c0 12.406 10.094 22.5 22.5 22.5s22.5-10.094 22.5-22.5-10.094-22.5-22.5-22.5-22.5 10.094-22.5 22.5zm30 0c0 4.136-3.364 7.5-7.5 7.5s-7.5-3.364-7.5-7.5 3.364-7.5 7.5-7.5 7.5 3.364 7.5 7.5z"/><path d="m327.252 404.5c0-12.406-10.094-22.5-22.5-22.5s-22.5 10.094-22.5 22.5 10.094 22.5 22.5 22.5 22.5-10.094 22.5-22.5zm-30 0c0-4.136 3.364-7.5 7.5-7.5s7.5 3.364 7.5 7.5-3.364 7.5-7.5 7.5-7.5-3.364-7.5-7.5z"/></g></g></svg>