<svg id="Capa_1" enable-background="new 0 0 512 512" height="512" viewBox="0 0 512 512" width="512" xmlns="http://www.w3.org/2000/svg"><g><path d="m15.498 330.8 165.704 165.702c17.086 17.086 46.3 4.985 46.3-19.178v-192.824h-192.826c-24.163 0-36.264 29.214-19.178 46.3z" fill="#4c5699"/><g><path d="m464.403 52.782h-74.788l-86.785 86.785v69.965h.076 155.129l14.25-14.25c28.744-28.745 38.25-69.439 28.527-106.091z" fill="#ff8e9e"/><path d="m394.721 117.719c28.746-28.745 69.439-38.251 106.092-28.527-4.808-18.124-14.314-35.26-28.527-49.473-42.959-42.958-112.606-42.958-155.566 0l-14.25 14.25v155.564h.436l77.565-77.564z" fill="#ea5b70"/></g><g><path d="m380.471 131.968h-80.001l-143.225 143.224v157.564l92.328-30.971c15.61-5.236 30.278-14.07 42.711-26.503l165.751-165.75z" fill="#9ea2e3"/><path d="m214.719 297.718 165.752-165.75-78.001-78-165.752 165.75c-12.432 12.432-21.267 27.1-26.503 42.71l-51.164 152.525c-1.006 2.999-1.551 6.209-1.551 9.547 0 16.569 13.432 30 30 30 3.338 0 6.548-.545 9.547-1.551l60.197-20.193 30.972-92.328c5.237-15.61 14.071-30.278 26.503-42.71z" fill="#8288cb"/></g><path d="m310.398 250.894c10.658-10.658.626-22.693-12.985-36.304s-25.646-23.643-36.304-12.985-8.264 30.331 5.347 43.942c13.61 13.611 33.284 16.005 43.942 5.347z" fill="#4c5699"/><g><path d="m508.09 87.213c-5.286-19.928-15.823-38.205-30.473-52.853-45.815-45.813-120.359-45.812-166.171 0-4.153 4.152-38.586 38.584-42.535 42.534-2.929 2.929-2.929 7.678 0 10.606 2.93 2.929 7.678 2.927 10.607 0l22.98-22.981 144.958 144.958-160.447 160.446c-11.33 11.331-24.718 19.64-39.793 24.696l-152.525 51.163c-17.703 5.941-34.362-11.017-28.501-28.5.458-1.364 49.504-147.578 51.164-152.524 5.057-15.073 13.365-28.461 24.696-39.792l116.254-116.253c2.929-2.929 2.929-7.678 0-10.606s-7.677-2.93-10.607 0l-116.254 116.252c-12.984 12.985-22.51 28.337-28.31 45.627-.235.7-2.397 7.144-5.708 17.014h-62.715c-14.27 0-26.525 8.189-31.986 21.373-5.46 13.183-2.585 27.641 7.505 37.73l50.45 50.449c-4.315 12.863-7.552 22.512-8.708 25.96-9.759 29.081 18.139 57.336 47.492 47.491l25.934-8.7 50.502 50.5c6.573 6.574 15.198 10.195 24.285 10.195 19.199 0 34.818-15.556 34.818-34.676v-9.962c0-4.143-3.357-7.5-7.5-7.5s-7.5 3.357-7.5 7.5v9.962c0 12.316-10.076 19.676-19.818 19.676-3.594 0-8.884-1.007-13.678-5.802l-45.224-45.223 78.72-26.406v17.793c0 4.143 3.357 7.5 7.5 7.5s7.5-3.357 7.5-7.5v-22.825l16.984-5.697c17.293-5.801 32.645-15.325 45.63-28.31 16.737-16.737 162.725-162.724 180-180 29.512-29.508 41.189-72.928 30.474-113.315zm-487.254 238.283c-6.836-6.835-6.68-15.527-4.254-21.383 2.425-5.856 8.462-12.113 18.128-12.113h57.685c-7.65 22.806-18.009 53.686-26.388 78.666zm446.174-135.573-8.946 8.946-144.958-144.957 8.947-8.946c39.965-39.964 104.991-39.964 144.958 0 40.49 40.491 39.448 105.51-.001 144.957z"/><path d="m261.151 250.852c9.316 9.315 21.163 14.139 32.157 14.139 8.494 0 16.479-2.88 22.392-8.792h.001c15.836-15.839.854-33.071-12.985-46.912-7.908-7.907-14.562-13.834-21.338-17.061-19.976-9.512-36.761 9.622-34.143 31.149 1.212 9.955 6.154 19.714 13.916 27.477zm5.261-43.943c2.338-2.338 4.294-3.151 8.517-1.141 5.126 2.44 11.286 8.23 17.18 14.125 17.918 17.917 16.587 22.097 12.985 25.697h.001c-7.588 7.585-22.853 5.138-33.336-5.347-10.635-10.634-12.947-25.736-5.347-33.334z"/><path d="m267.749 143.123c-2.376-3.394-7.055-4.219-10.445-1.842-3.394 2.376-4.218 7.053-1.842 10.445l12.304 17.57c2.377 3.395 7.055 4.217 10.445 1.842 3.394-2.376 4.218-7.053 1.842-10.445z"/><path d="m360.276 256.54c3.397 2.378 8.072 1.549 10.445-1.842 2.376-3.393 1.552-8.069-1.842-10.445l-17.57-12.303c-3.393-2.376-8.069-1.551-10.445 1.842s-1.552 8.069 1.842 10.445z"/><path d="m260.217 162.081c-2.93-2.928-7.678-2.928-10.607 0l-8.485 8.485c-2.929 2.93-2.929 7.678 0 10.607 2.931 2.929 7.678 2.928 10.607 0l8.485-8.485c2.929-2.929 2.929-7.677 0-10.607z"/><path d="m330.829 260.271c-2.929 2.93-2.929 7.678 0 10.607 2.931 2.929 7.678 2.928 10.607 0l8.485-8.485c2.929-2.93 2.929-7.678 0-10.607-2.93-2.928-7.678-2.928-10.607 0z"/></g></g></svg>