<svg id="Capa_1" enable-background="new 0 0 512 512" height="512" viewBox="0 0 512 512" width="512" xmlns="http://www.w3.org/2000/svg"><g><g><path d="m116.708 37.059c-15.64 6.937-21.657 24.858-15.014 39.477l88.63 195.051 30-156.581-30-101.227c-25.429 4.962-50.021 12.74-73.616 23.28z" fill="#ea5b70"/><path d="m395.112 37.453c-23.523-10.587-48.117-18.451-73.437-23.466l-30 101.019 30 156.581 88.532-194.835c6.549-14.41.761-32.147-15.095-39.299z" fill="#ff8e9e"/></g><g><path d="m259.204 7.5c-2.598 0-5.197 0-7.795 0-20.655.247-41.091 2.377-61.085 6.278v257.808h32.952 32.723v-221.238l40.83-40.34c-12.426-1.52-24.984-2.369-37.625-2.508z" fill="#ffce71"/><path d="m296.83 10.008c-39.118 0-70.83 31.711-70.83 70.83v190.749h95.675v-257.6c-8.21-1.627-16.495-2.957-24.845-3.979z" fill="#fce3a0"/></g><path d="m271.364 190.417 20.865 18.871 27.505-5.91c11.5-2.471 23.002 4.17 26.612 15.365l8.635 26.775 26.775 8.635c11.195 3.61 17.835 15.112 15.365 26.612l-5.91 27.505 18.871 20.865c7.89 8.724 7.89 22.005 0 30.729l-18.871 20.865 5.91 27.505c2.471 11.5-4.17 23.002-15.365 26.612l-26.775 8.635-8.635 26.775c-3.61 11.195-15.112 17.835-26.612 15.365l-27.5-5.913-20.871 18.874c-8.724 7.89-22.005 7.89-30.729 0l-20.865-18.871-27.505 5.91c-11.5 2.471-23.002-4.17-26.612-15.365l-8.635-26.775-26.775-8.635c-11.195-3.61-17.835-15.112-15.365-26.612l5.91-27.505-18.871-20.865c-7.89-8.724-7.89-22.005 0-30.729l18.871-20.865-5.91-27.505c-2.471-11.5 4.17-23.002 15.365-26.612l26.775-8.635 8.635-26.775c3.61-11.195 15.112-17.835 26.612-15.365l27.505 5.91 20.865-18.871c8.725-7.889 22.007-7.889 30.73 0z" fill="#ffb357"/><g><path d="m285.842 238.613h-29.142l-110.7 105.887 110.7 105.887h29.142c46.201-13.038 80.158-55.572 80.158-105.887s-33.957-92.849-80.158-105.887z" fill="#fce3a0"/><path d="m205.685 344.5c0-50.315 33.957-92.848 80.157-105.887-9.494-2.679-19.503-4.113-29.843-4.113-60.654 0-110 49.346-110 110s49.346 110 110 110c10.339 0 20.349-1.434 29.843-4.113-46.199-13.039-80.157-55.572-80.157-105.887z" fill="#ffce71"/></g><g fill="#ff8e9e"><path d="m217.566 336.792c-.031 9.884-10.118 17.865-22.53 17.826s-22.449-8.083-22.418-17.967 10.118-17.866 22.53-17.827 22.449 8.084 22.418 17.968z"/><path d="m294.433 337.033c-.031 9.884 10.006 17.928 22.418 17.967s22.499-7.942 22.53-17.826-10.006-17.929-22.418-17.967c-12.412-.04-22.499 7.941-22.53 17.826z"/></g><g><path d="m415.645 324.105-16.294-18.017 5.103-23.748c3.278-15.231-5.423-30.499-20.396-35.326l-23.117-7.456-6.839-21.205 62.934-138.499c8.231-18.117.95-40.312-18.846-49.24-44.496-20.028-93.675-30.614-142.219-30.614-49.781 0-97.761 10.208-142.603 30.337-18.528 8.297-27.107 30.362-18.503 49.301l25.335 55.756c1.714 3.772 6.161 5.438 9.931 3.726 3.771-1.714 5.439-6.16 3.726-9.931l-25.335-55.756c-5.154-11.345 0-24.49 10.983-29.409 20.467-9.188 41.621-16.208 63.319-21.045v172.741c-5.824.886-11.16 3.429-15.458 7.213l-21.099-46.433c-1.713-3.771-6.161-5.436-9.931-3.726-3.771 1.714-5.439 6.16-3.726 9.931l25.286 55.647-6.838 21.205-23.118 7.456c-14.956 4.823-23.673 20.072-20.395 35.325l5.102 23.749-16.293 18.017c-10.484 11.596-10.462 29.22 0 40.789l16.293 18.016-5.102 23.75c-3.273 15.234 5.42 30.496 20.395 35.325l23.118 7.456 7.455 23.117c4.823 14.956 20.075 23.675 35.326 20.396l23.749-5.104 18.015 16.293c5.6 5.066 12.843 7.855 20.396 7.855 7.551 0 14.794-2.789 20.396-7.854l18.02-16.296 23.743 5.104c15.23 3.278 30.5-5.421 35.327-20.396l8.314-25.782c1.271-3.942-.894-8.168-4.836-9.439-3.936-1.271-8.168.893-9.439 4.836l-8.314 25.782c-2.442 7.572-10.15 11.995-17.898 10.335l-27.5-5.913c-2.359-.512-4.818.15-6.607 1.77l-20.87 18.874c-5.865 5.302-14.796 5.312-20.668 0l-20.865-18.871c-1.789-1.618-4.247-2.274-6.606-1.771l-27.507 5.911c-7.746 1.661-15.455-2.763-17.897-10.335l-8.635-26.774c-.741-2.296-2.541-4.096-4.836-4.836l-26.775-8.635c-7.572-2.442-11.997-10.153-10.333-17.899l5.909-27.506c.507-2.358-.152-4.816-1.77-6.605l-18.87-20.865c-5.314-5.876-5.302-14.804 0-20.668l18.87-20.866c1.618-1.789 2.277-4.247 1.77-6.605l-5.909-27.505c-1.664-7.747 2.762-15.457 10.333-17.899l26.775-8.635c2.296-.74 4.096-2.54 4.836-4.836l8.635-26.774c2.441-7.57 10.154-12 17.898-10.334l27.505 5.91c2.358.508 4.816-.152 6.606-1.771l20.865-18.871c5.865-5.302 14.796-5.312 20.668 0l20.865 18.871c1.79 1.619 4.248 2.279 6.606 1.771l27.507-5.911c7.747-1.661 15.455 2.763 17.897 10.335l8.635 26.774c.74 2.296 2.54 4.096 4.836 4.836l26.774 8.635c7.572 2.442 11.999 10.153 10.334 17.899l-5.91 27.505c-.507 2.358.152 4.816 1.771 6.605l18.87 20.866c5.324 5.887 5.293 14.815.001 20.667l-18.871 20.865c-1.618 1.79-2.277 4.248-1.771 6.606l5.911 27.508c1.647 7.68-2.732 15.154-9.806 17.716-3.895 1.411-5.908 5.711-4.498 9.605 1.411 3.896 5.717 5.911 9.605 4.498 14.149-5.125 22.577-20.026 19.363-34.972l-5.104-23.75 16.295-18.016c10.467-11.573 10.483-29.192.001-40.786zm-101.47-127.204-19.764 4.247-18.015-16.293c-11.593-10.488-29.222-10.462-40.792-.001l-18.016 16.294-19.765-4.247v-176.903c19.027-3.322 38.438-4.998 58.148-4.998 19.419 0 38.944 1.778 58.204 5.24zm30.458 6.032c-4.297-3.785-9.633-6.327-15.457-7.213v-172.433c21.594 4.905 42.724 11.943 62.853 21.003 11.813 5.329 16.301 18.462 11.352 29.359z"/><path d="m256.028 227c-64.79 0-117.5 52.71-117.5 117.5s52.71 117.5 117.5 117.5 117.5-52.71 117.5-117.5-52.71-117.5-117.5-117.5zm0 220c-56.519 0-102.5-45.981-102.5-102.5s45.981-102.5 102.5-102.5 102.5 45.981 102.5 102.5-45.981 102.5-102.5 102.5z"/><path d="m202 299.537c-4.142 0-7.5 3.358-7.5 7.5v10c0 4.142 3.358 7.5 7.5 7.5s7.5-3.358 7.5-7.5v-10c0-4.142-3.358-7.5-7.5-7.5z"/><path d="m310 299.537c-4.142 0-7.5 3.358-7.5 7.5v10c0 4.142 3.358 7.5 7.5 7.5s7.5-3.358 7.5-7.5v-10c0-4.142-3.358-7.5-7.5-7.5z"/><path d="m275.735 318.271c-3.737-1.789-8.215-.206-10.001 3.531-3.644 7.62-14.817 7.635-18.468 0-1.787-3.737-6.266-5.317-10.001-3.531-3.737 1.787-5.318 6.265-3.531 10.001 9.056 18.939 36.449 18.996 45.532 0 1.787-3.737.206-8.215-3.531-10.001z"/></g></g></svg>