<svg id="Capa_1" enable-background="new 0 0 512 512" height="512" viewBox="0 0 512 512" width="512" xmlns="http://www.w3.org/2000/svg"><g><g fill="#676fb2"><path d="m148.866 38.497c-5.967-5.967-14.061-9.32-22.5-9.32-17.574 0-31.82 14.246-31.82 31.82v13.18l39.031 20 50.969-20z"/><path d="m37.5 104.177c-16.569 0-30 13.432-30 30v28.646c0 16.568 13.431 30 30 30h27.046l30-44.323-30-44.323z"/><path d="m342.977 482.823h-35c-12.426 0-22.5-10.074-22.5-22.5v-97.5h80v97.5c0 12.427-10.074 22.5-22.5 22.5z"/><path d="m306.8 327.816h-86.077c-38.733 0-70.246-31.512-70.246-70.246v-22.5h45v22.5c0 13.921 11.325 25.246 25.246 25.246h86.077z"/></g><g><path d="m360.477 222.823-35-20-70 40v120c0 16.568 13.432 30 30 30h70 10c16.569 0 30-13.432 30-30v-120z" fill="#9ea2e3"/><path d="m325.477 362.823v-120h-70v120c0 16.568 13.432 30 30 30h70c-16.569 0-30-13.431-30-30z" fill="#8288cb"/></g><g><path d="m425.477 74.177h-200.931l-80 45v78.646l80 45h170.931c16.569 0 30-13.431 30-30z" fill="#9ea2e3"/><path d="m209.546 197.823v-78.646c0-24.853 20.147-45 45-45h-160c-16.569 0-30 13.431-30 30v108.646c0 16.569 13.431 30 30 30h160c-24.853 0-45-20.147-45-45z" fill="#8288cb"/></g><g><g><g><g><ellipse cx="161.446" cy="176.588" fill="#ff8e9e" rx="30.834" ry="24.555"/></g><g><ellipse cx="328.576" cy="176.588" fill="#ff8e9e" rx="30.834" ry="24.555"/></g></g></g></g><path d="m489.5 242.125c-3.839 0-7.677-1.465-10.605-4.394-15.102-15.102-23.418-35.179-23.418-56.534v-32.02c0-33.084-26.916-60-60-60h-120.931c-8.284 0-15-6.716-15-15s6.716-15 15-15h120.931c49.626 0 90 40.374 90 90v32.02c0 13.342 5.195 25.886 14.63 35.32 2.908 2.907 4.394 6.779 4.394 10.523 0 3.867-1.443 7.741-4.393 10.691-2.93 2.929-6.769 4.394-10.608 4.394z" fill="#676fb2"/><g><path d="m505.41 211.215c-8.018-8.019-12.434-18.68-12.434-30.018v-32.02c0-53.762-43.738-97.5-97.5-97.5h-120.93c-9.777 0-18.113 6.271-21.209 14.999h-65.683l-10.531-10.531c-2.93-2.928-7.678-2.928-10.607 0-2.904 2.905-2.925 7.596-.069 10.531h-64.4v-5.681c0-13.41 10.909-24.319 24.319-24.319 8.868 0 14.11 4.037 18.936 8.862 2.93 2.928 7.678 2.928 10.607 0 2.929-2.93 2.929-7.678 0-10.607-8.263-8.263-17.12-13.255-29.543-13.255-21.681 0-39.319 17.639-39.319 39.319v6.436c-14.672 2.99-26.255 14.573-29.245 29.245h-20.302c-20.678 0-37.5 16.822-37.5 37.5v28.646c0 20.678 16.822 37.5 37.5 37.5h19.546v12.5c0 20.678 16.822 37.5 37.5 37.5h48.431v7.247c0 42.869 34.877 77.746 77.746 77.746h27.254v27.507c0 18.11 12.904 33.261 30 36.745v60.755c0 16.542 13.458 30 30 30h35c16.542 0 30-13.458 30-30v-60.755c17.096-3.484 30-18.635 30-36.745v-91.017c0-4.143-3.357-7.5-7.5-7.5s-7.5 3.357-7.5 7.5v91.017c0 12.406-10.094 22.5-22.5 22.5h-80c-12.406 0-22.5-10.094-22.5-22.5v-112.5h132.5c20.678 0 37.5-16.822 37.5-37.5v-100.302c9.464 9.703 15 22.843 15 36.658v32.02c0 23.358 9.097 45.318 25.614 61.836 8.772 8.774 23.047 8.772 31.82.001 4.249-4.25 6.589-9.93 6.589-15.995 0-5.87-2.402-11.639-6.59-15.825zm-162.433 264.108h-35c-8.271 0-15-6.729-15-15v-60h65v60c0 8.272-6.729 15-15 15zm-305.477-290c-12.406 0-22.5-10.094-22.5-22.5v-28.646c0-12.406 10.094-22.5 22.5-22.5h19.546v73.646zm183.223 134.993c-34.599 0-62.746-28.147-62.746-62.746v-7.247h30v7.247c0 18.057 14.689 32.746 32.746 32.746h27.254v30zm27.254-45h-27.254c-9.785 0-17.746-7.961-17.746-17.746v-7.247h45zm147.5-39.993h-300.931c-12.406 0-22.5-10.094-22.5-22.5v-108.646c0-12.406 10.094-22.5 22.5-22.5h158.79c3.096 8.729 11.433 15.001 21.21 15.001h120.931c7.792 0 15.489 1.757 22.5 5.098v111.047c0 12.406-10.094 22.5-22.5 22.5zm99.328-2.896c-2.934 2.932-7.674 2.934-10.606 0-13.686-13.685-21.222-31.878-21.222-51.229v-32.02c0-36.761-29.961-67.5-67.5-67.5h-120.931c-4.136 0-7.5-3.365-7.5-7.501 0-4.135 3.364-7.499 7.5-7.499h120.931c45.49 0 82.5 37.01 82.5 82.5v32.02c0 15.345 5.976 29.771 16.826 40.623.001.001.001.001.001.002 3.038 3.035 2.814 7.789.001 10.604z"/><path d="m179.416 133.148c-4.143 0-7.5 3.357-7.5 7.5v12c0 4.143 3.357 7.5 7.5 7.5s7.5-3.357 7.5-7.5v-12c0-4.142-3.357-7.5-7.5-7.5z"/><path d="m267.231 146.921c-3.123-2.721-7.861-2.396-10.581.728-6.152 7.059-17.107 7.081-23.278-.001-2.722-3.122-7.46-3.447-10.582-.727-3.122 2.722-3.448 7.459-.727 10.582 12.144 13.934 33.767 13.921 45.896-.001 2.722-3.123 2.395-7.86-.728-10.581z"/><path d="m312.923 130.907c-11.804 0-21.406 9.603-21.406 21.406 0 4.143 3.357 7.5 7.5 7.5s7.5-3.357 7.5-7.5c0-3.532 2.874-6.406 6.406-6.406s6.406 2.874 6.406 6.406c0 4.143 3.357 7.5 7.5 7.5s7.5-3.357 7.5-7.5c0-11.803-9.602-21.406-21.406-21.406z"/></g></g></svg>