<svg id="Capa_1" enable-background="new 0 0 512 512" height="512" viewBox="0 0 512 512" width="512" xmlns="http://www.w3.org/2000/svg"><g><g><path d="m280.861 108.051h-28.652c-19.049 0-37.042 8.755-48.797 23.744l-97.412 124.206 97.412 124.206c11.756 14.989 29.748 23.736 48.797 23.736h28.652c5.852-.978 11.592-2.288 17.192-3.921 62.425-18.204 107.947-75.821 107.947-144.021 0-74.374-54.127-136.105-125.139-147.95z" fill="#fed2a4"/><path d="m155.724 256.001c0-74.373 54.13-136.104 125.137-147.95-8.088-1.349-16.391-2.051-24.862-2.051-82.841 0-149.999 67.158-149.999 150.001 0 68.237 45.563 125.835 107.927 144.021 13.347 3.892 27.467 5.977 42.071 5.977 8.471 0 16.774-.707 24.862-2.057-71.006-11.845-125.136-73.57-125.136-147.941z" fill="#ffbd86"/></g><g><path d="m474.5 226h-15.702c-13.119-89.069-83.727-159.681-172.798-172.799h-44.119l-130.881 83.898v118.901c0-69.67 49.394-128.014 115-141.871v9.722c0 16.568 13.432 30 30 30s30-13.432 30-30v-9.722c55.923 11.811 100.058 55.95 111.87 111.871h-9.721c-16.568 0-30 13.432-30 30s13.432 30 30 30h9.722c-11.812 55.923-55.95 100.058-111.871 111.871v-9.721c0-16.568-13.432-30-30-30s-30 13.432-30 30v9.722c-65.606-13.858-115-72.202-115-141.872v118.901l130.881 83.898h44.119c89.071-13.118 159.679-83.73 172.798-172.799h15.702c16.568 0 30-13.432 30-30s-13.432-30-30-30z" fill="#ff8e9e"/><path d="m286 53.201v-15.701c0-16.568-13.432-30-30-30s-30 13.432-30 30v15.701c-89.071 13.118-159.679 83.73-172.798 172.799h-15.702c-16.569 0-30 13.432-30 30s13.431 30 30 30h15.702c13.119 89.069 83.727 159.681 172.798 172.799v15.701c0 16.568 13.432 30 30 30s30-13.432 30-30v-15.701c-90.474-13.387-158.9-84.61-171.879-172.799h9.73c16.568 0 30-13.432 30-30s-13.432-30-30-30h-9.73c12.979-88.189 81.405-159.412 171.879-172.799z" fill="#ea5b70"/></g><g fill="#ff8e9e"><path d="m176.443 273.542c-16.212 0-29.355 10.466-29.355 23.377 0 12.91 13.143 23.376 29.355 23.376s29.355-10.466 29.355-23.376c0-12.911-13.142-23.377-29.355-23.377z"/><path d="m335.557 273.542c-16.212 0-29.355 10.466-29.355 23.377 0 12.91 13.143 23.376 29.355 23.376s29.355-10.466 29.355-23.376c-.001-12.911-13.143-23.377-29.355-23.377z"/></g><g><path d="m474.5 218.5h-9.325c-9.071-50.804-36.267-96.352-77.069-128.825-3.243-2.58-7.961-2.044-10.539 1.197-2.579 3.241-2.043 7.96 1.198 10.539 39.521 31.454 65.309 76.089 72.614 125.682.542 3.681 3.7 6.407 7.42 6.407h15.701c12.406 0 22.5 10.094 22.5 22.5s-10.094 22.5-22.5 22.5h-15.701c-3.72 0-6.878 2.727-7.42 6.407-11.581 78.615-68.821 142.317-145.826 162.288-.003.001-.008.002-.011.003-6.767 1.754-13.708 3.161-20.634 4.181-3.68.542-6.407 3.7-6.407 7.42v15.701c0 12.406-10.093 22.5-22.5 22.5s-22.5-10.094-22.5-22.5v-15.701c0-3.72-2.727-6.878-6.407-7.42-85.432-12.582-153.887-81.038-166.471-166.472-.542-3.681-3.7-6.407-7.42-6.407h-15.703c-12.407 0-22.5-10.094-22.5-22.5s10.093-22.5 22.5-22.5h15.702c3.72 0 6.878-2.727 7.42-6.407 12.584-85.434 81.039-153.89 166.471-166.472 3.68-.542 6.407-3.7 6.407-7.42v-15.701c0-12.406 10.093-22.5 22.5-22.5s22.5 10.094 22.5 22.5v15.701c0 3.72 2.727 6.878 6.407 7.42 24.766 3.647 48.323 11.891 70.017 24.5 3.578 2.081 8.17.866 10.253-2.716 2.081-3.581.866-8.171-2.716-10.253-21.471-12.48-44.641-20.987-68.961-25.328v-9.324c0-20.678-16.822-37.5-37.5-37.5s-37.5 16.822-37.5 37.5v9.323c-87.191 15.539-156.13 84.445-171.675 171.677h-9.325c-20.678 0-37.5 16.822-37.5 37.5s16.822 37.5 37.5 37.5h9.325c15.538 87.193 84.444 156.131 171.675 171.677v9.323c0 20.678 16.822 37.5 37.5 37.5s37.5-16.822 37.5-37.5v-9.326c5.313-.951 10.604-2.107 15.8-3.454.006-.002.012-.003.018-.005 80.053-20.762 141.303-86.758 155.856-168.215h9.325c20.678 0 37.5-16.822 37.5-37.5s-16.821-37.5-37.499-37.5z"/><path d="m388.149 233.5h9.721c4.766 0 8.322-4.395 7.338-9.05-12.465-59.012-58.648-105.196-117.658-117.659-4.673-.986-9.05 2.59-9.05 7.338v9.722c0 12.406-10.093 22.5-22.5 22.5s-22.5-10.094-22.5-22.5v-9.722c0-4.766-4.395-8.322-9.05-7.338-59.009 12.463-105.193 58.647-117.659 117.659-.985 4.663 2.579 9.05 7.338 9.05h9.721c12.407 0 22.5 10.094 22.5 22.5s-10.093 22.5-22.5 22.5h-9.721c-4.766 0-8.321 4.394-7.338 9.05 5.896 27.914 19.555 53.596 39.501 74.269 2.875 2.979 7.624 3.065 10.605.189s3.066-7.624.19-10.605c-15.81-16.385-27.239-36.253-33.383-57.902h.146c20.678 0 37.5-16.822 37.5-37.5s-16.822-37.5-37.5-37.5h-.149c12.984-45.863 48.937-81.816 94.798-94.799v.149c0 20.678 16.822 37.5 37.5 37.5s37.5-16.822 37.5-37.5v-.149c45.861 12.982 81.814 48.936 94.798 94.799h-.148c-20.678 0-37.5 16.822-37.5 37.5s16.822 37.5 37.5 37.5h.149c-12.982 45.861-48.936 81.814-94.799 94.799v-.149c0-20.678-16.822-37.5-37.5-37.5s-37.5 16.822-37.5 37.5v.15c-14.119-3.999-27.438-10.229-39.698-18.581-3.422-2.333-8.088-1.447-10.421 1.976-2.332 3.424-1.448 8.089 1.976 10.421 16.475 11.223 34.674 18.992 54.093 23.094 4.672.985 9.05-2.587 9.05-7.338v-9.722c0-12.406 10.093-22.5 22.5-22.5s22.5 10.094 22.5 22.5v9.722c0 4.743 4.368 8.324 9.05 7.338 59.011-12.467 105.196-58.65 117.659-117.659.986-4.663-2.58-9.05-7.338-9.05h-9.722c-12.406 0-22.5-10.094-22.5-22.5s10.095-22.502 22.501-22.502z"/><path d="m207.314 250.908-24.065-6.448c-3.995-1.074-8.113 1.302-9.186 5.303-1.072 4.001 1.302 8.114 5.303 9.186l6.684 1.791v12.86c0 4.143 3.358 7.5 7.5 7.5s7.5-3.357 7.5-7.5v-8.84l2.381.638c3.983 1.071 8.11-1.289 9.186-5.303 1.073-4.002-1.301-8.116-5.303-9.187z"/><path d="m245.19 286.486c5.724-6.569 15.901-6.564 21.62 0 2.722 3.122 7.459 3.448 10.582.727 3.123-2.722 3.448-7.459.727-10.582-11.703-13.429-32.545-13.416-44.237 0-2.721 3.123-2.396 7.86.727 10.582 3.121 2.72 7.858 2.395 10.581-.727z"/><path d="m337.936 249.763c-1.071-4.001-5.185-6.376-9.186-5.303l-24.064 6.448c-4.001 1.071-6.375 5.185-5.304 9.186 1.076 4.016 5.204 6.374 9.186 5.303l2.381-.638v8.84c0 4.143 3.358 7.5 7.5 7.5s7.5-3.357 7.5-7.5v-12.86l6.684-1.791c4.001-1.071 6.375-5.184 5.303-9.185z"/></g></g></svg>