<svg height="511pt" viewBox="0 -49 511.99988 511" width="511pt" xmlns="http://www.w3.org/2000/svg"><path d="m429.058594 259.398438h-143.835938v-175.75h-58.445312v175.75h-143.835938v58.445312h143.835938v56.789062l29.222656 29.222657 29.222656-29.222657v-56.789062h143.835938zm0 0" fill="#ffb655"/><path d="m285.222656 110.476562c69.820313 13.621094 122.519532 75.113282 122.519532 148.921876h-122.519532zm-58.445312 0c-69.820313 13.621094-122.519532 75.113282-122.519532 148.921876h122.519532zm0 0" fill="#c6c5ca"/><path d="m502.105469 8c-13.578125 0-25.304688 9.691406-27.652344 23.066406-4.554687 25.953125-16.855469 50.8125-36.898437 70.855469-24.199219 24.199219-55.417969 37.109375-87.105469 38.722656 22.085937 17.582031 39.152343 41.195313 48.714843 68.351563 17.808594-8.941406 34.511719-20.839844 49.375-35.703125 45.011719-45.011719 62.863282-106.898438 53.566407-165.292969zm0 0" fill="#c6c5ca"/><path d="m9.894531 8c13.578125 0 25.304688 9.691406 27.652344 23.066406 4.554687 25.953125 16.855469 50.8125 36.898437 70.855469 24.199219 24.199219 55.417969 37.109375 87.105469 38.722656-22.085937 17.582031-39.152343 41.195313-48.714843 68.351563-17.808594-8.941406-34.511719-20.839844-49.375-35.703125-45.011719-45.011719-62.863282-106.898438-53.566407-165.292969zm0 0" fill="#c6c5ca"/><path d="m226.777344 83.648438h30v175.75h-30zm0 0" fill="#ff7956"/><path d="m256.777344 374.632812v-56.789062h-30v56.789062l29.222656 29.222657 15-15zm0 0" fill="#ff7956"/><path d="m82.941406 259.398438h30v58.445312h-30zm0 0" fill="#ff7956"/><g fill="#898890"><path d="m226.777344 119.65625v-9.179688c-69.820313 13.621094-122.519532 75.113282-122.519532 148.921876h30c-.003906-62.792969 38.140626-116.667969 92.519532-139.742188zm0 0"/><path d="m285.222656 110.476562v148.921876h30v-139.742188c-9.539062-4.046875-19.578125-7.144531-30-9.179688zm0 0"/><path d="m380.449219 140.644531c31.683593-1.613281 62.90625-14.523437 87.105469-38.722656 19.933593-19.933594 32.210937-44.632813 36.820312-70.433594-.273438-7.859375-1.03125-15.703125-2.269531-23.488281-13.578125 0-25.304688 9.691406-27.652344 23.066406-4.554687 25.953125-16.855469 50.8125-36.898437 70.855469-24.199219 24.199219-55.421876 37.109375-87.105469 38.722656 22.085937 17.582031 39.152343 41.195313 48.714843 68.351563 8.289063-4.160156 16.335938-8.960938 24.070313-14.40625-9.988281-21.113282-24.703125-39.550782-42.785156-53.945313zm0 0"/><path d="m93.460938 173.292969c-39.011719-39.011719-57.625-90.699219-55.839844-141.804688-.023438-.140625-.050782-.28125-.074219-.421875-2.347656-13.375-14.074219-23.066406-27.652344-23.066406-9.296875 58.394531 8.554688 120.28125 53.566407 165.292969 14.863281 14.863281 31.566406 26.761719 49.375 35.703125 1.734374-4.925782 3.714843-9.730469 5.929687-14.40625-8.886719-6.253906-17.359375-13.351563-25.304687-21.296875zm0 0"/></g><path d="m292.722656 76.148438h-73.445312v175.75h-143.835938v73.445312h143.835938v52.394531l36.722656 36.722657 36.722656-36.722657v-52.394531h143.835938v-73.445312h-143.835938zm128.835938 190.75v43.445312h-143.835938v61.179688l-21.722656 21.726562-21.722656-21.726562v-61.179688h-143.835938v-43.445312h143.835938v-175.75h43.445312v175.75zm0 0"/><path d="m248.5 102.246094h15v15h-15zm0 0"/><path d="m248.5 131.253906h15v15h-15zm0 0"/><path d="m248.5 161.253906h15v15h-15zm0 0"/><path d="m248.5 191.253906h15v15h-15zm0 0"/><path d="m248.5 221.25h15v15h-15zm0 0"/><path d="m248.5 251.25h15v15h-15zm0 0"/><path d="m128.503906 281.242188h15v15h-15zm0 0"/><path d="m98.503906 281.242188h15v15h-15zm0 0"/><path d="m158.503906 281.242188h15v15h-15zm0 0"/><path d="m188.5 281.242188h15v15h-15zm0 0"/><path d="m218.5 281.242188h15v15h-15zm0 0"/><path d="m278.5 281.242188h15v15h-15zm0 0"/><path d="m248.5 281.25h15v15h-15zm0 0"/><path d="m248.5 311.25h15v15h-15zm0 0"/><path d="m248.5 341.25h15v15h-15zm0 0"/><path d="m99.320312 192.660156c-10.96875-7.066406-21.25-15.363281-30.554687-24.671875-39.714844-39.710937-59.039063-95.863281-52.480469-151.488281 7.082032 2.277344 12.539063 8.257812 13.875 15.863281 4.996094 28.46875 18.476563 54.355469 38.980469 74.859375 17.9375 17.9375 40.355469 30.675782 64.828125 36.835938l3.660156-14.542969c-21.84375-5.5-41.859375-16.875-57.882812-32.898437-18.3125-18.3125-30.351563-41.429688-34.8125-66.847657-2.976563-16.960937-17.710938-29.269531-35.039063-29.269531h-6.402343l-1.003907 6.320312c-9.980469 62.679688 10.375 126.484376 55.667969 171.777344 10.0625 10.058594 21.179688 19.03125 33.046875 26.671875zm0 0"/><path d="m509.511719 6.820312-1.003907-6.320312h-6.402343c-17.328125 0-32.0625 12.308594-35.039063 29.269531-4.460937 25.417969-16.5 48.535157-34.8125 66.847657-16.023437 16.023437-36.039062 27.398437-57.882812 32.898437l3.660156 14.542969c24.472656-6.160156 46.890625-18.898438 64.828125-36.835938 20.507813-20.503906 33.984375-46.390625 38.980469-74.859375 1.335937-7.605469 6.792968-13.585937 13.875-15.863281 6.558594 55.625-12.765625 111.777344-52.480469 151.488281-9.308594 9.308594-19.589844 17.609375-30.558594 24.671875l8.121094 12.609375c11.863281-7.636719 22.980469-16.613281 33.042969-26.671875 45.25-45.25 65.664062-109.035156 55.671875-171.777344zm0 0"/><path d="m399 240.378906 14.871094-1.960937c-7.863282-59.714844-49.160156-110.128907-106.21875-129.683594l-4.859375 14.1875c51.367187 17.605469 89.132812 63.710937 96.207031 117.457031zm0 0"/><path d="m98.128906 238.417969 14.871094 1.960937c7.074219-53.746094 44.839844-99.851562 96.210938-117.457031l-4.863282-14.1875c-56.980468 19.527344-98.34375 69.882813-106.21875 129.683594zm0 0"/><path d="m372.902344 235.878906c-4.21875-20.933594-14.046875-40.429687-28.421875-56.378906l11.144531-10.042969c16.171875 17.945313 27.234375 39.890625 31.984375 63.460938zm-34.988282-63.113281c-3.40625-3.230469-7.035156-6.289063-10.789062-9.085937l8.964844-12.023438c4.226562 3.148438 8.3125 6.589844 12.144531 10.222656zm-18.546874-14.40625c-3.96875-2.5-8.125-4.78125-12.355469-6.785156l6.421875-13.554688c4.765625 2.257813 9.449218 4.828125 13.921875 7.644531zm0 0" fill="#fff"/><path d="m414.664062 179.210938-8.761718-12.175782c6.941406-4.992187 13.554687-10.621094 19.65625-16.722656.855468-.855469 1.699218-1.71875 2.535156-2.589844l10.832031 10.375c-.90625.945313-1.828125 1.886719-2.757812 2.816406-6.675781 6.675782-13.910157 12.832032-21.503907 18.296876zm31.257813-28.863282-11.429687-9.71875c3.097656-3.636718 6.050781-7.445312 8.777343-11.308594l12.257813 8.644532c-2.984375 4.234375-6.21875 8.398437-9.605469 12.382812zm15.371094-21.109375-12.765625-7.878906c2.492187-4.039063 4.828125-8.246094 6.941406-12.503906l13.433594 6.667969c-2.316406 4.667968-4.875 9.285156-7.609375 13.714843zm0 0" fill="#fff"/><path d="m410.742188 296.25h-37.519532v-15h37.519532zm-47.523438 0h-14.996094v-15h14.996094zm-24.996094 0h-15v-15h15zm0 0" fill="#fff"/></svg>