<svg height="512pt" viewBox="-82 0 512 512" width="512pt" xmlns="http://www.w3.org/2000/svg"><path d="m339.585938 479c0 14.082031-11.417969 25.5-25.5 25.5-14.085938 0-25.5-11.417969-25.5-25.5s11.414062-25.5 25.5-25.5c14.082031 0 25.5 11.417969 25.5 25.5zm0 0" fill="#ffdaaa"/><path d="m288.585938 479c0-14.082031 11.414062-25.5 25.5-25.5h-276.839844c-14.085938 0-25.5 11.417969-25.5 25.5s11.414062 25.5 25.5 25.5h276.839844c-14.085938 0-25.5-11.417969-25.5-25.5zm0 0" fill="#ffb655"/><path d="m88.417969 27.644531 11.882812 27.65625c20.945313-11.351562 44.917969-17.800781 70.363281-17.800781 25.449219 0 49.417969 6.449219 70.363282 17.800781l11.882812-27.65625c-24.617187-12.863281-52.597656-20.144531-82.246094-20.144531-29.648437 0-57.628906 7.28125-82.246093 20.144531zm0 0" fill="#787680"/><g fill="#ff7956"><path d="m202.664062 421.5c0 17.671875-14.324218 32-32 32-17.671874 0-32-14.328125-32-32s32-60 32-60 32 42.328125 32 60zm0 0"/><path d="m123.457031 427.414062c0 14.40625-11.679687 26.085938-26.085937 26.085938s-26.089844-11.679688-26.089844-26.085938 26.089844-48.914062 26.089844-48.914062 26.085937 34.507812 26.085937 48.914062zm0 0"/><path d="m217.871094 427.414062c0 14.40625 11.679687 26.085938 26.089844 26.085938 14.40625 0 26.085937-11.679688 26.085937-26.085938s-26.085937-48.914062-26.085937-48.914062-26.089844 34.507812-26.089844 48.914062zm0 0"/></g><path d="m45.492188 191.0625v112.765625c0 36.261719 15.421874 68.925781 40.0625 91.785156 6.085937-9.535156 11.816406-17.113281 11.816406-17.113281s18.289062 24.195312 24.238281 40.523438c5.550781 2.367187 11.308594 4.34375 17.238281 5.898437-.121094-1.125-.183594-2.265625-.183594-3.421875 0-17.671875 32-60 32-60s32 42.328125 32 60c0 1.15625-.0625 2.296875-.179687 3.421875 5.925781-1.554687 11.683594-3.53125 17.234375-5.898437 5.949219-16.328126 24.242188-40.523438 24.242188-40.523438s5.726562 7.578125 11.816406 17.113281c24.640625-22.859375 40.0625-55.519531 40.0625-91.785156v-112.765625zm0 0" fill="#c6c5ca"/><path d="m173.898438 191.0625v213.105469c3.226562-6.851563 7.542968-14.226563 11.765624-20.882813 8.320313 13.117188 17 29.011719 17 38.214844 0 1.15625-.0625 2.296875-.179687 3.417969 5.925781-1.550781 11.683594-3.53125 17.234375-5.894531 1.714844-4.710938 4.457031-10.074219 7.492188-15.320313.074218.15625.144531.308594.21875.464844v-213.105469zm0 0" fill="#898890"/><path d="m127.371094 378.5s-5.730469 7.578125-11.816406 17.113281c-24.640626-22.859375-40.0625-55.523437-40.0625-91.785156v-112.765625h-30v112.765625c0 36.261719 15.421874 68.925781 40.0625 91.785156 6.085937-9.535156 11.816406-17.113281 11.816406-17.113281s18.289062 24.195312 24.238281 40.523438c5.550781 2.367187 11.308594 4.34375 17.238281 5.898437-.121094-1.125-.183594-2.265625-.183594-3.421875 0-4.636719 2.203126-10.972656 5.457032-17.796875-7.488282-12.949219-16.75-25.203125-16.75-25.203125zm0 0" fill="#898890"/><path d="m170.664062 361.5s17.691407 23.398438 26.765626 42.667969v-213.105469h-53.53125v213.105469c9.074218-19.269531 26.765624-42.667969 26.765624-42.667969zm0 0" fill="#e0e0e2"/><path d="m308.585938 479c0-10.535156 6.386718-19.574219 15.5-23.464844-3.074219-1.308594-6.453126-2.035156-10-2.035156-14.085938 0-25.5 11.417969-25.5 25.5s11.414062 25.5 25.5 25.5c3.546874 0 6.925781-.726562 10-2.035156-9.113282-3.890625-15.5-12.929688-15.5-23.464844zm0 0" fill="#ff9478"/><path d="m41.746094 479c0-14.082031 11.414062-25.5 25.5-25.5h-30c-14.085938 0-25.5 11.417969-25.5 25.5s11.414062 25.5 25.5 25.5h30c-14.085938 0-25.5-11.417969-25.5-25.5zm0 0" fill="#ff7956"/><path d="m118.417969 27.644531c20.425781-10.671875 43.160156-17.5 67.246093-19.519531-4.945312-.414062-9.949218-.625-15-.625-29.648437 0-57.628906 7.28125-82.246093 20.144531l11.882812 27.65625c8.035157-4.355469 16.515625-7.988281 25.355469-10.8125zm0 0" fill="#57565c"/><path d="m200.664062 37.5c-5.0625 0-10.066406.257812-15 .753906 19.867188 2.007813 38.585938 7.953125 55.363282 17.046875l4.644531-10.8125c-14.199219-4.539062-29.320313-6.988281-45.007813-6.988281zm0 0" fill="#57565c"/><path d="m168.664062 421.5c0-9.203125 8.683594-25.097656 17-38.214844-7.652343-12.066406-15-21.785156-15-21.785156s-32 42.328125-32 60 14.328126 32 32 32c5.421876 0 10.527344-1.347656 15-3.726562-10.113281-5.378907-17-16.019532-17-28.273438zm0 0" fill="#ff3f62"/><path d="m101.28125 427.414062c0-6.480468 5.28125-17.03125 11.089844-26.675781-7.105469-11.792969-15-22.238281-15-22.238281s-26.089844 34.507812-26.089844 48.914062 11.683594 26.085938 26.089844 26.085938c5.582031 0 10.757812-1.753906 15-4.742188-6.707032-4.722656-11.089844-12.519531-11.089844-21.34375zm0 0" fill="#ff3f62"/><path d="m247.871094 427.414062c0-6.480468 5.28125-17.03125 11.089844-26.675781-7.105469-11.792969-15-22.238281-15-22.238281s-26.089844 34.507812-26.089844 48.914062 11.679687 26.085938 26.089844 26.085938c5.582031 0 10.753906-1.753906 15-4.742188-6.707032-4.722656-11.089844-12.519531-11.089844-21.34375zm0 0" fill="#ff3f62"/><path d="m173.898438 191.0625h-30v213.105469c9.074218-19.269531 26.765624-42.667969 26.765624-42.667969s1.242188 1.640625 3.234376 4.414062zm0 0" fill="#c6c5ca"/><path d="m185.664062 383.285156c4.222657 6.65625 8.539063 14.03125 11.765626 20.882813v-38.253907c-2.855469 3.972657-7.257813 10.265626-11.765626 17.371094zm0 0" fill="#c6c5ca"/><path d="m25.492188 227.058594h-10.492188v-41.394532c0-54.929687 28.855469-105.527343 75.742188-133.609374l5.910156 13.753906 7.222656-3.914063c20.394531-11.050781 43.488281-16.894531 66.789062-16.894531 23.300782 0 46.394532 5.839844 66.789063 16.894531l7.222656 3.910157 5.910157-13.753907c46.925781 28.082031 75.742187 78.550781 75.742187 133.613281v41.394532h-10.488281v15h25.488281v-56.394532c0-61.042968-32.304687-116.9375-84.769531-147.507812l5.988281-13.9375-6.160156-3.21875c-26.289063-13.738281-55.929688-21-85.722657-21-29.792968 0-59.433593 7.261719-85.71875 21l-6.164062 3.21875 5.992188 13.9375c-52.425782 30.570312-84.773438 86.613281-84.773438 147.507812v56.394532h25.492188zm145.171874-212.058594c25.054688 0 49.992188 5.585938 72.554688 16.207031l-5.925781 13.789063c-20.71875-9.832032-43.585938-14.996094-66.628907-14.996094-23.042968 0-45.910156 5.164062-66.628906 14.996094l-5.925781-13.792969c22.5625-10.617187 47.496094-16.203125 72.554687-16.203125zm0 0"/><path d="m314.085938 446h-32.152344v15h4.503906c-7.078125 10.824219-7.191406 25 0 36h-249.191406c-7.25 0-13.511719-4.308594-16.363282-10.5h74.683594v-15h-74.683594c2.847657-6.191406 9.113282-10.5 16.363282-10.5h22.148437v-15h-22.148437c-18.195313 0-33 14.804688-33 33s14.804687 33 33 33h276.839844c18.195312 0 33-14.804688 33-33s-14.804688-33-33-33zm0 51c-9.925782 0-18-8.074219-18-18s8.074218-18 18-18c9.921874 0 18 8.074219 18 18s-8.078126 18-18 18zm0 0"/><path d="m163.164062 209.496094h15v15h-15zm0 0"/><path d="m163.164062 239.496094h15v15h-15zm0 0"/><path d="m163.164062 269.496094h15v15h-15zm0 0"/><path d="m163.164062 299.496094h15v15h-15zm0 0"/><path d="m163.164062 329.496094h15v15h-15zm0 0"/><path d="m140.140625 110.640625c-7.710937 7.710937-7.710937 20.1875 0 27.894531l5.882813 5.886719 10.609374-10.605469-5.886718-5.886718c-1.84375-1.839844-1.84375-4.839844 0-6.683594l28.71875-28.71875c7.710937-7.707032 7.710937-20.183594 0-27.894532l-5.886719-5.886718-10.605469 10.605468 5.886719 5.886719c1.839844 1.84375 1.839844 4.839844 0 6.683594zm0 0"/><path d="m162.675781 133.175781c-7.710937 7.710938-7.710937 20.1875 0 27.894531l5.882813 5.886719 10.609375-10.605469-5.886719-5.886718c-1.84375-1.84375-1.84375-4.839844 0-6.683594l28.71875-28.71875c7.710938-7.707031 7.710938-20.183594 0-27.894531l-5.886719-5.886719-10.605469 10.605469 5.886719 5.886719c1.839844 1.84375 1.839844 4.839843 0 6.683593zm0 0"/><path d="m170.664062 461c21.78125 0 39.5-17.71875 39.5-39.5 0-19.214844-27.917968-57.121094-33.515624-64.523438l-5.984376-7.914062-5.980468 7.914062c-5.597656 7.402344-33.519532 45.308594-33.519532 64.523438 0 21.78125 17.722657 39.5 39.5 39.5zm-.164062-86.503906h.328125c11.589844 16.585937 24.335937 38.175781 24.335937 47.003906 0 13.507812-10.988281 24.5-24.5 24.5-13.511718 0-24.5-10.992188-24.5-24.5 0-8.828125 12.746094-30.417969 24.335938-47.003906zm0 0"/><path d="m97.371094 366.0625-5.984375 7.914062c-4.609375 6.097657-27.601563 37.328126-27.601563 53.4375 0 18.519532 15.066406 33.585938 33.585938 33.585938 18.519531 0 33.585937-15.066406 33.585937-33.585938 0-16.109374-22.992187-47.339843-27.601562-53.4375zm0 79.9375c-10.25 0-18.589844-8.339844-18.589844-18.585938 0-6.671874 9.539062-22.972656 18.589844-36.089843 9.050781 13.117187 18.585937 29.417969 18.585937 36.089843 0 10.246094-8.339843 18.585938-18.585937 18.585938zm0 0"/><path d="m243.960938 366.0625-5.984376 7.914062c-4.609374 6.097657-27.605468 37.328126-27.605468 53.4375 0 18.519532 15.070312 33.585938 33.589844 33.585938 18.519531 0 33.585937-15.066406 33.585937-33.585938 0-16.109374-22.996094-47.339843-27.605469-53.4375zm0 79.9375c-10.25 0-18.589844-8.339844-18.589844-18.585938 0-6.671874 9.535156-22.972656 18.589844-36.089843 9.050781 13.117187 18.585937 29.417969 18.585937 36.089843 0 10.246094-8.339844 18.585938-18.585937 18.585938zm0 0"/><path d="m303.335938 183.5625h-265.34375v120.265625c0 29.667969 9.574218 57.722656 27.691406 81.132813l11.863281-9.179688c-16.0625-20.757812-24.554687-45.636719-24.554687-71.953125v-61.769531h70.316406v-15h-70.316406v-28.496094h83.40625v166.164062h15v-166.164062h38.53125v166.164062h15v-166.164062h83.40625v28.496094h-70.320313v15h70.320313v61.769531c0 26.316406-8.492188 51.195313-24.554688 71.953125l11.863281 9.179688c18.117188-23.40625 27.691407-51.464844 27.691407-81.132813zm0 0"/><path d="m266.996094 486.5h-35.332032v-15h35.332032zm-45.332032 0h-15v-15h15zm-25 0h-15v-15h15zm0 0" fill="#fff"/><path d="m263.621094 358.3125-12.921875-7.613281c8.148437-13.835938 12.519531-29.804688 12.636719-46.191407l15 .105469c-.136719 19.023438-5.222657 37.59375-14.714844 53.699219zm14.714844-63.753906h-15v-15h15zm0-25h-15v-15h15zm0 0" fill="#fff"/></svg>