<svg height="511pt" viewBox="-78 1 511 511.999" width="511pt" xmlns="http://www.w3.org/2000/svg"><path d="m301.683594 397.117188h-39.933594c-18.847656 0-34.605469-14.324219-36.398438-33.085938l-10.148437-106.390625h23.003906v-51.066406h-38.316406l-21.765625-21.761719-21.761719 21.761719h-38.316406v51.066406h23.007813l-10.152344 106.390625c-1.789063 18.761719-17.546875 33.085938-36.394532 33.085938h-39.9375l-6.996093 68.273437c45.71875 0 90.519531 12.820313 129.320312 37.003906l1.234375.769531 1.234375-.769531c38.796875-24.183593 83.597657-37.003906 129.316407-37.003906zm0 0" fill="#c6c5ca"/><g fill="#ffb655"><path d="m112.265625 263.703125h-24.144531v-63.191406h24.144531c2.257813 2.257812 3.523437 3.523437 5.78125 5.78125v51.625c-2.257813 2.257812-3.523437 3.523437-5.78125 5.785156zm0 0"/><path d="m112.265625 263.703125h-24.144531v-63.191406h24.144531c2.257813 2.257812 3.523437 3.523437 5.78125 5.78125v51.625c-2.257813 2.257812-3.523437 3.523437-5.78125 5.785156zm0 0"/><path d="m268.136719 263.703125h-24.144531c-2.257813-2.261719-3.523438-3.527344-5.78125-5.785156v-51.621094c2.257812-2.257813 3.523437-3.527344 5.78125-5.785156h24.144531zm0 0"/><path d="m268.136719 263.703125h-24.144531c-2.257813-2.261719-3.523438-3.527344-5.78125-5.785156v-51.621094c2.257812-2.257813 3.523437-3.527344 5.78125-5.785156h24.144531zm0 0"/></g><path d="m94.507812 397.117188h30c18.847657 0 34.605469-14.324219 36.394532-33.085938l10.152344-106.390625h-23.007813v-51.066406h-30v51.066406h23.007813l-10.152344 106.390625c-1.789063 18.761719-17.546875 33.085938-36.394532 33.085938zm0 0" fill="#898890"/><path d="m77.574219 465.390625 6.996093-68.273437h-30l-6.992187 68.273437c45.714844 0 90.519531 12.820313 129.316406 37.003906l1.234375.769531 1.234375-.769531c4.511719-2.8125 9.101563-5.46875 13.765625-7.972656-35.460937-19.019531-75.148437-29.03125-115.554687-29.03125zm0 0" fill="#898890"/><path d="m88.121094 200.511719h14v63.191406h-14zm0 0" fill="#ff7956"/><path d="m252.210938 257.917969v-51.625c2.257812-2.257813 3.523437-3.523438 5.78125-5.78125h-14c-2.257813 2.257812-3.523438 3.523437-5.78125 5.78125v51.625c2.257812 2.257812 3.523437 3.523437 5.78125 5.78125h14c-2.257813-2.257813-3.523438-3.523438-5.78125-5.78125zm0 0" fill="#ff7956"/><path d="m261.75 389.617188c-15.0625 0-27.5-11.308594-28.929688-26.300782l-9.367187-98.179687h11.371094l6.058593 6.0625h34.753907v-78.1875h-34.753907l-6.0625 6.0625h-31.824218l-24.871094-24.867188-24.871094 24.867188h-31.824218l-6.0625-6.0625h-34.75v78.1875h34.75l6.0625-6.0625h11.375l-9.371094 98.179687c-1.429688 14.992188-13.867188 26.300782-28.929688 26.300782h-46.703125l-8.535156 83.273437h8.308594c44.359375 0 87.707031 12.402344 125.351562 35.867187l5.199219 3.242188 5.203125-3.242188c37.644531-23.464843 80.992187-35.867187 125.351563-35.867187h8.304687l-8.53125-83.273437zm-1.113281-181.605469v48.191406h-13.539063l-1.386718-1.390625v-45.410156l1.386718-1.390625zm-165.015625 48.191406v-48.191406h13.539062l1.390625 1.390625v45.410156l-1.390625 1.390625zm90.007812 233.777344v-20.273438l-3.867187-2.144531c-30.679688-16.996094-63.757813-27.867188-98.425781-32.363281l.574218-5.582031h10.601563c35.789062 0 65.34375-26.867188 68.742187-62.492188l5.621094-58.570312-14.929688-1.433594-5.621093 58.574218c-2.660157 27.886719-25.796875 48.917969-53.8125 48.917969h-24.140625l-3.476563 33.875 7.460938.765625c33.894531 3.480469 66.261719 13.34375 96.273437 29.332032v11.394531c-35.15625-19.679688-74.457031-30.628907-114.761718-31.953125l5.472656-53.410156h33.167968c22.835938 0 41.691407-17.144532 43.859376-39.875l10.082031-105.65625 8.664062-28.898438-14.367187-4.308594-7.273438 24.261719h-9.925781v-36.066406h33.921875l11.15625-11.15625v14.140625l-8.90625 8.90625-5.875 61.25 14.929688 1.433594 5.363281-55.886719 1.992187-1.992188 2.109375 2.109375 12.765625 134.242188c3.398438 35.628906 32.949219 62.496094 68.742188 62.496094v-15c-28.015625 0-51.152344-21.03125-53.8125-48.917969l-13.273438-139.609375-9.03125-9.035156v-14.136719l11.15625 11.15625h33.925782v36.066406h-9.925782l-7.277344-24.261719-14.367187 4.308594 8.667969 28.902344 10.082031 105.652344c2.167969 22.734374 21.023437 39.875 43.859375 39.875h33.167969l5.472656 53.410156c-40.308594 1.324218-79.609375 12.273437-114.761719 31.953125zm0 0"/><path d="m227.945312 0h-99.632812c-70.476562 0-127.8125 57.335938-127.8125 127.8125v44.171875c0 37.285156 30.335938 67.621094 67.621094 67.621094v-15c-29.015625 0-52.621094-23.605469-52.621094-52.621094v-44.171875c0-62.203125 50.605469-112.8125 112.8125-112.8125h99.632812c62.207032 0 112.8125 50.609375 112.8125 112.8125v44.171875c0 29.015625-23.605468 52.621094-52.621093 52.621094v15c37.285156 0 67.621093-30.335938 67.621093-67.621094v-44.171875c0-70.476562-57.335937-127.8125-127.8125-127.8125zm0 0"/><path d="m198.546875 472.160156-6.308594-13.605468c4.640625-2.152344 9.402344-4.203126 14.160157-6.09375l5.542968 13.9375c-4.5 1.789062-9.007812 3.730468-13.394531 5.761718zm22.492187-9.183594-5.023437-14.132812c4.820313-1.710938 9.753906-3.3125 14.667969-4.753906l4.222656 14.394531c-4.644531 1.363281-9.3125 2.875-13.867188 4.492187zm23.246094-7.054687-3.6875-14.539063c13.019532-3.300781 26.402344-5.671874 39.769532-7.042968l1.53125 14.921875c-12.644532 1.296875-25.300782 3.535156-37.613282 6.660156zm0 0" fill="#fff"/></svg>