<svg height="512pt" viewBox="0 -10 512 512" width="512pt" xmlns="http://www.w3.org/2000/svg"><path d="m79.996094 59.628906 48.242187 48.246094c-6.527343 6.558594-12.550781 13.617188-18.011719 21.109375l-48.679687-48.675781c5.765625-7.234375 11.925781-14.136719 18.449219-20.679688zm0 0" fill="#ffb655"/><path d="m128.238281 107.871094-48.242187-48.242188s.003906-.003906.003906-.003906h-24.910156c-5.625-5.628906-8.78125-8.78125-14.410156-14.410156v-9.65625h67.152343c14.0625-10.460938 29.257813-19.488282 45.386719-26.824219l19.257812 15.398437.289063-.113281c18.988281-7.476562 39.234375-12.457031 60.324219-14.570312v46.753906c-40.765625 5.171875-77.28125 23.96875-104.851563 51.667969zm0 0" fill="#ffe477"/><path d="m432.003906 59.628906-48.246094 48.246094c6.527344 6.558594 12.554688 13.617188 18.015626 21.109375l48.679687-48.675781c-5.765625-7.234375-11.925781-14.136719-18.449219-20.679688zm0 0" fill="#ffb655"/><path d="m383.761719 107.871094 48.242187-48.242188s-.003906-.003906-.003906-.003906h24.910156c5.628906-5.628906 8.78125-8.785156 14.410156-14.410156v-9.65625h-67.152343c-14.058594-10.460938-29.257813-19.488282-45.386719-26.824219l-19.257812 15.398437-.285157-.113281c-18.992187-7.476562-39.238281-12.460937-60.328125-14.570312v46.753906c40.765625 5.171875 77.28125 23.96875 104.851563 51.667969zm0 0" fill="#ffe477"/><path d="m401.433594 128.535156c.109375.152344.230468.296875.339844.449219l48.671874-48.671875c33.824219 42.449219 54.054688 96.207031 54.054688 154.703125 0 137.242187-111.257812 248.5-248.5 248.5s-248.5-111.257813-248.5-248.5c0-58.496094 20.222656-112.261719 54.046875-154.707031l48.679687 48.675781c-21.683593 29.757813-34.484374 66.398437-34.484374 106.03125 0 99.550781 80.703124 180.257813 180.257812 180.257813s180.257812-80.703126 180.257812-180.257813c0-39.839844-12.941406-76.644531-34.824218-106.480469zm0 0" fill="#c6c5ca"/><path d="m81.546875 80.308594c2.820313-3.542969 5.738281-7.003906 8.746094-10.382813l-10.296875-10.296875c-6.523438 6.542969-12.683594 13.445313-18.449219 20.679688l48.679687 48.675781c2.796876-3.839844 5.742188-7.566406 8.828126-11.167969zm0 0" fill="#ff7956"/><path d="m164.851562 18.035156-11.632812-9.300781c-16.128906 7.335937-31.328125 16.359375-45.386719 26.824219h30c8.597657-6.398438 17.621094-12.257813 27.019531-17.523438zm0 0" fill="#ffb655"/><path d="m109.996094 59.628906s0-.003906.003906-.003906h-24.910156c-5.625-5.628906-8.78125-8.78125-14.410156-14.410156v-9.65625h-30v9.65625c5.628906 5.628906 8.785156 8.78125 14.410156 14.410156h24.910156s-.003906.003906-.003906.003906l48.242187 48.246094c5-5.023438 10.289063-9.75 15.84375-14.15625zm0 0" fill="#ffb655"/><path d="m403.761719 107.871094 37.945312-37.945313c-3.136719-3.523437-6.375-6.957031-9.703125-10.296875l-48.246094 48.246094c6.527344 6.558594 12.554688 13.617188 18.015626 21.109375l11.167968-11.167969c-2.933594-3.429687-6-6.746094-9.179687-9.945312zm0 0" fill="#ff7956"/><path d="m308.910156 56.203125v-41.710937c-9.773437-2.324219-19.789062-4.019532-30-5.042969v46.753906c40.765625 5.171875 77.28125 23.964844 104.851563 51.667969l14.15625-14.15625c-25.101563-19.910156-55.628907-33.277344-89.007813-37.511719zm0 0" fill="#ffb655"/><path d="m271 414.65625c4.945312.40625 9.949219.613281 15 .613281 99.550781 0 180.253906-80.703125 180.253906-180.253906 0-39.839844-12.933594-76.644531-34.820312-106.480469.109375.148438.230468.296875.339844.449219l31.320312-31.316406c-3.972656-5.972657-8.191406-11.761719-12.648438-17.355469l-48.671874 48.671875c-.109376-.152344-.230469-.296875-.339844-.449219 21.882812 29.835938 34.820312 66.640625 34.820312 106.480469 0 94.5-72.71875 172.019531-165.253906 179.640625zm0 0" fill="#898890"/><path d="m37.5 235.015625c0-50.789063 15.242188-98.011719 41.398438-137.355469l-17.351563-17.351562c-33.824219 42.445312-54.046875 96.210937-54.046875 154.707031 0 137.242187 111.257812 248.5 248.5 248.5 5.035156 0 10.039062-.148437 15-.445313-130.257812-7.753906-233.5-115.847656-233.5-248.054687zm0 0" fill="#898890"/><path d="m378.445312 113.164062c10.605469 10.660157 16.339844 18.964844 22.433594 27.324219l59.613282-59.613281c-4.347657-5.460938-6.890626-8.726562-11.261719-13.75h10.785156l18.804687-18.804688v-20.261718h-72.1875c-17.847656-13.011719-32.75-20.695313-48.9375-28.058594l-19.496093 15.589844c-30.378907-11.351563-54.042969-13.152344-66.789063-14.429688v61.652344l6.554688.832031c37.785156 4.792969 73.46875 22.378907 100.480468 49.519531zm24.082032 4.464844c-2.648438-3.300781-5.414063-6.519531-8.277344-9.636718l37.664062-37.664063c2.890626 3.085937 5.707032 6.253906 8.429688 9.480469zm-61.71875-84.921875 19.019531-15.207031c16.191406 7.746094 28.84375 15.878906 41.855469 25.558594h61.183594l-9.066407 9.066406h-35.8125l4.367188 6.550781-38.6875 38.6875c-27.003907-25.023437-61.082031-41.722656-97.257813-47.644531v-8.886719c13.378906 2.074219 26.515625 5.523438 39.148438 10.289063l5.292968-14.035156c-14.324218-5.402344-29.246093-9.234376-44.441406-11.417969v-7.769531c20.773438 2.871093 36.511719 7.730468 54.398438 14.808593zm0 0"/><path d="m468.628906 92.457031-12.445312 8.363281c26.703125 39.738282 40.816406 86.140626 40.816406 134.195313 0 18.628906-2.125 36.773437-6.144531 54.199219-20.964844 17.3125-45.238281 31.277344-71.65625 38.566406 8.515625-14.929688 15.046875-31.128906 19.222656-48.242188 12.960937-8.117187 23.488281-17.183593 33.683594-27.941406l-10.890625-10.316406c-6.085938 6.425781-11.980469 11.9375-18.929688 17.300781.96875-7.71875 1.46875-15.582031 1.46875-23.566406 0-9.683594-.75-19.332031-2.226562-28.84375 8.183594-11.085937 14.949218-23.132813 20.132812-35.855469l-13.890625-5.660156c-2.96875 7.289062-6.511719 14.335938-10.589843 21.074219-4.09375-15.074219-10.058594-29.625-17.796876-43.25l-13.042968 7.40625c14.664062 25.828125 22.414062 55.265625 22.414062 85.128906 0 95.257813-77.496094 172.757813-172.753906 172.757813s-172.757812-77.5-172.757812-172.757813c0-29.871094 7.75-59.3125 22.414062-85.136719l-13.046875-7.40625c-8.839844 15.570313-15.367187 32.347656-19.429687 49.738282-23.097657 14.632812-42.445313 33.867187-57.746094 57.375-1.375-22.957032.476562-46.488282 5.894531-69.660157 4.492187-3.882812 9.128906-7.609375 13.796875-11.089843 21.652344-16.078126 47.261719-26.535157 74.09375-30.253907l1.902344 1.90625c6.035156-8.277343 11.785156-16.621093 22.433594-27.324219 27.011718-27.144531 62.695312-44.730468 100.480468-49.523437l6.554688-.832031v-61.648438c-11.515625 1.152344-35.867188 2.875-66.789063 14.429688l-19.496093-15.589844c-16.171876 7.355469-30.980469 14.964844-48.9375 28.058594h-72.1875v20.261718l18.804687 18.804688h10.785156c-4.359375 5.011719-6.886719 8.257812-11.265625 13.75l44.722656 44.71875c-24.339843 4.953125-47.476562 15.003906-67.636718 29.445312 6.695312-19.03125 15.808594-37.238281 27.222656-54.222656l-12.449219-8.367187c-28.367187 42.210937-43.363281 91.511719-43.363281 142.566406 0 141.492187 114.496094 256 256 256 141.492188 0 256-114.496094 256-256 0-51.042969-14.996094-100.339844-43.371094-142.558594zm-419.5-49.398437h61.1875c13.085938-9.738282 25.734375-17.847656 41.855469-25.558594l19.019531 15.207031c17.699219-6.996093 33.417969-11.910156 54.402344-14.8125v7.769531c-15.199219 2.183594-30.117188 6.015626-44.445312 11.417969l5.292968 14.035157c12.636719-4.765626 25.769532-8.214844 39.152344-10.285157v8.882813c-36.179688 5.925781-70.253906 22.625-97.257812 47.644531l-37.734376-37.730469 7.503907-7.503906h-39.90625zm30.957032 27.269531 37.664062 37.664063c-2.863281 3.117187-5.628906 6.335937-8.273438 9.636718l-37.820312-37.820312c2.722656-3.226563 5.535156-6.394532 8.429688-9.480469zm327.429687 275.453125c27.71875-4.878906 53.214844-16.558594 76.476563-32.605469-7.664063 22.292969-18.511719 43.121094-32 61.9375-27.242188 9.171875-54.878907 11.9375-80.949219 8.1875 13.824219-10.75 26.113281-23.386719 36.472656-37.519531zm-121.636719 74.613281c23.042969 15.539063 48.085938 26.164063 74.710938 31.722657-20.28125 9.8125-42.140625 16.859374-65.078125 20.660156-25.003907-13.007813-45.640625-30.214844-61.558594-51.292969 16.71875 1.964844 34.292969 1.742187 51.925781-1.089844zm-140.640625-33.859375c4.878907 27.648438 16.535157 53.171875 32.609375 76.476563-22.292968-7.664063-43.125-18.511719-61.9375-31.996094-9.175781-27.242187-11.945312-54.882813-8.199218-80.957031 10.753906 13.824218 23.390624 26.113281 37.527343 36.476562zm-75.695312-173.578125c-2.015625 17.058594-1.671875 34.285157.9375 51.046875-15.53125 21.433594-26.472657 47.464844-31.777344 75.203125-9.707031-20.167969-16.691406-41.882812-20.464844-64.671875 12.996094-25 30.207031-45.644531 51.304688-61.578125zm-18.769531 148.292969c2.398437-27.675781 10.816406-54.269531 24.113281-76.660156 4.703125 17.160156 11.785156 33.347656 20.867187 48.179687-6.257812 26.21875-6.195312 54.210938.09375 82.191407-17.492187-15.585938-32.707031-33.679688-45.074218-53.710938zm151.039062 108.625c-17.230469-20.867188-31.238281-45.128906-38.566406-71.65625 15.425781 8.800781 32.214844 15.480469 49.964844 19.632812 14.617187 23.082032 33.847656 42.425782 57.359374 57.730469-22.328124 1.335938-45.542968-.355469-68.757812-5.707031zm180.210938-29.503906c-26.730469-3.003906-51.949219-11.257813-75.199219-24.589844 16.699219-4.699219 32.460937-11.65625 46.9375-20.523438 24.839843 5.9375 52.753906 6.527344 82.179687-.085937-15.640625 17.554687-33.804687 32.8125-53.917968 45.199219zm0 0"/><g fill="#fff"><path d="m489.207031 271.558594-14.824219-2.292969c1.738282-11.242187 2.617188-22.765625 2.617188-34.25 0-26.570313-4.582031-52.402344-13.617188-76.777344l14.0625-5.214843c9.65625 26.050781 14.554688 53.636718 14.554688 81.992187 0 12.25-.941406 24.542969-2.792969 36.542969zm-29.386719-122.304688c-1.867187-4.425781-3.914062-8.851562-6.082031-13.15625l13.394531-6.746094c2.316407 4.601563 4.507813 9.332032 6.503907 14.066407zm-10.621093-21.695312c-2.351563-4.191406-4.875-8.371094-7.503907-12.414063l12.578126-8.171875c2.808593 4.316406 5.503906 8.777344 8.011718 13.253906zm0 0"/><path d="m378.082031 79.472656c-10.863281-8.511718-22.667969-15.917968-35.089843-22.015625l6.605468-13.464843c13.359375 6.554687 26.054688 14.519531 37.734375 23.675781zm0 0"/></g></svg>