<svg height="512pt" viewBox="-89 0 512 512" width="512pt" xmlns="http://www.w3.org/2000/svg"><path d="m7.5 309.316406h124.730469v70.449219h-124.730469zm0 0" fill="#b77062"/><path d="m202.683594 309.316406h124.730468v70.449219h-124.730468zm0 0" fill="#b77062"/><path d="m107.230469 123.226562h120.453125v70.453126h-120.453125zm0 0" fill="#b77062"/><path d="m198.875 158.453125c0 9.066406-7.351562 16.417969-16.417969 16.417969-9.066406 0-16.414062-7.351563-16.414062-16.417969s7.347656-16.414063 16.414062-16.414063c9.066407 0 16.417969 7.347657 16.417969 16.414063zm0 0" fill="#895247"/><path d="m202.683594 193.679688v310.820312h-70.449219v-310.820312zm0 0" fill="#b77062"/><path d="m198.875 344.542969c0 9.066406-7.351562 16.414062-16.417969 16.414062-9.066406 0-16.414062-7.347656-16.414062-16.414062 0-9.066407 7.347656-16.417969 16.414062-16.417969 9.066407 0 16.417969 7.351562 16.417969 16.417969zm0 0" fill="#895247"/><path d="m183.875 158.453125c0 9.066406-7.351562 16.417969-16.417969 16.417969-9.066406 0-16.414062-7.351563-16.414062-16.417969s7.347656-16.414063 16.414062-16.414063c9.066407 0 16.417969 7.347657 16.417969 16.414063zm0 0" fill="#c6c5ca"/><path d="m183.875 344.542969c0 9.066406-7.351562 16.414062-16.417969 16.414062-9.066406 0-16.414062-7.347656-16.414062-16.414062 0-9.066407 7.347656-16.417969 16.414062-16.417969 9.066407 0 16.417969 7.351562 16.417969 16.417969zm0 0" fill="#c6c5ca"/><path d="m114.839844 47.402344v34.339844h13.816406v41.484374h77.597656v-41.484374h13.816406v-34.339844zm0 0" fill="#bddbff"/><path d="m201.003906 47.402344h-67.097656l-5.648438-39.902344h78.394532zm0 0" fill="#b77062"/><path d="m119.777344 265.714844c5.078125 0 9.078125.394531 12.453125 1.015625v42.585937h-111.378907c3.613282-15.105468 9.5-29.332031 17.277344-42.292968 11.390625 2.441406 15.800782 7.429687 33.859375 7.429687 23.894531 0 23.894531-8.738281 47.789063-8.738281zm12.453125 225.523437v-111.46875h-111.378907c13.152344 54.984375 56.410157 98.273438 111.378907 111.46875zm182.074219-181.921875c-3.613282-15.109375-9.5-29.332031-17.277344-42.292968-11.394532 2.441406-15.804688 7.429687-33.867188 7.429687-23.898437 0-23.898437-8.738281-47.796875-8.738281-5.191406 0-9.253906.414062-12.679687 1.058594v42.542968zm-111.621094 181.980469c55.082031-13.125 98.449218-56.460937 111.621094-111.527344h-111.621094zm0 0" fill="#ff7956"/><path d="m132.230469 197.84375v68.886719c-3.375-.621094-7.375-1.015625-12.453125-1.015625-23.894532 0-23.894532 8.738281-47.789063 8.738281-18.058593 0-22.46875-4.992187-33.859375-7.429687 20.527344-34.210938 54.238282-59.609376 94.101563-69.179688zm130.929687 76.609375c18.0625 0 22.472656-4.988281 33.867188-7.429687-20.570313-34.277344-54.371094-59.710938-94.34375-69.238282v68.988282c3.425781-.644532 7.488281-1.058594 12.679687-1.058594 23.898438 0 23.898438 8.738281 47.796875 8.738281zm0 0" fill="#bddbff"/><g fill="#895247"><path d="m7.5 309.316406h30v70.449219h-30zm0 0"/><path d="m202.683594 309.316406h30v70.449219h-30zm0 0"/><path d="m107.230469 123.226562h30v70.453126h-30zm0 0"/><path d="m132.230469 193.679688h30v310.820312h-30zm0 0"/></g><path d="m166.042969 158.453125c0-6.363281 3.621093-11.882813 8.914062-14.605469-2.246093-1.15625-4.796875-1.8125-7.5-1.8125-9.066406 0-16.414062 7.351563-16.414062 16.417969s7.347656 16.417969 16.414062 16.417969c2.703125 0 5.253907-.652344 7.5-1.8125-5.292969-2.722656-8.914062-8.242188-8.914062-14.605469zm0 0" fill="#898890"/><path d="m166.042969 344.542969c0-6.363281 3.621093-11.882813 8.914062-14.609375-2.246093-1.15625-4.796875-1.808594-7.5-1.808594-9.066406 0-16.414062 7.351562-16.414062 16.417969 0 9.066406 7.347656 16.414062 16.414062 16.414062 2.703125 0 5.253907-.652343 7.5-1.808593-5.292969-2.722657-8.914062-8.242188-8.914062-14.605469zm0 0" fill="#898890"/><path d="m144.839844 81.742188v-34.339844h-30v34.339844h13.816406v41.484374h30v-41.484374zm0 0" fill="#57a4ff"/><path d="m128.257812 7.5 5.648438 39.902344h30l-5.648438-39.902344zm0 0" fill="#895247"/><path d="m232.683594 267.871094c-4.347656-1.238282-9.582032-2.15625-17.320313-2.15625-5.191406 0-9.253906.410156-12.679687 1.058594v42.542968h30zm0 0" fill="#ff3f62"/><path d="m64.144531 274.089844c-11.839843-1.195313-16.484375-5.023438-26.015625-7.066406-7.777344 12.960937-13.664062 27.1875-17.277344 42.292968h30c2.96875-12.410156 7.46875-24.222656 13.292969-35.226562zm0 0" fill="#ff3f62"/><path d="m232.683594 379.769531h-30v111.527344c10.464844-2.492187 20.507812-6.078125 30-10.625zm0 0" fill="#ff3f62"/><path d="m50.851562 379.769531h-30c13.152344 54.984375 56.410157 98.273438 111.378907 111.472657v-10.6875c-40.351563-19.421876-70.730469-56.269532-81.378907-100.785157zm0 0" fill="#ff3f62"/><path d="m68.128906 267.023438c15.140625-25.226563 37.445313-45.664063 64.101563-58.496094v-10.683594c-39.867188 9.570312-73.574219 34.96875-94.101563 69.179688 11.390625 2.441406 15.800782 7.429687 33.859375 7.429687 6.414063 0 11.105469-.628906 15-1.550781-7.074219-1.671875-11.515625-4.304688-18.859375-5.878906zm0 0" fill="#57a4ff"/><path d="m245.363281 265.714844c-5.191406 0-9.253906.414062-12.679687 1.058594v-58.359376c-9.492188-4.546874-19.535156-8.132812-30-10.628906v68.988282c3.425781-.644532 7.488281-1.058594 12.679687-1.058594 23.898438 0 23.898438 8.738281 47.796875 8.738281 6.414063 0 11.105469-.628906 15-1.546875-10.621094-2.511719-15.3125-7.191406-32.796875-7.191406zm0 0" fill="#57a4ff"/><path d="m112.230469 372.269531h-97.230469v-55.453125h97.230469v-15h-112.230469v85.453125h112.230469zm0 0"/><path d="m222.683594 301.816406v15h97.230468v55.453125h-97.230468v15h112.230468v-85.453125zm0 0"/><path d="m235.183594 115.726562h-135.453125v85.453126h135.453125zm-15 70.453126h-105.453125v-55.453126h105.453125zm0 0"/><path d="m167.457031 182.371094c13.1875 0 23.917969-10.730469 23.917969-23.917969s-10.730469-23.917969-23.917969-23.917969-23.917969 10.730469-23.917969 23.917969 10.730469 23.917969 23.917969 23.917969zm0-32.835938c4.917969 0 8.917969 4 8.917969 8.917969s-4 8.917969-8.917969 8.917969-8.917969-4-8.917969-8.917969 4-8.917969 8.917969-8.917969zm0 0"/><path d="m143.539062 344.542969c0 13.1875 10.730469 23.917969 23.917969 23.917969s23.917969-10.730469 23.917969-23.917969-10.730469-23.917969-23.917969-23.917969-23.917969 10.730469-23.917969 23.917969zm32.835938 0c0 4.917969-4 8.917969-8.917969 8.917969s-8.917969-4-8.917969-8.917969 4-8.917969 8.917969-8.917969 8.917969 4 8.917969 8.917969zm0 0"/><path d="m236.683594 277.128906c6.1875 2.261719 13.199218 4.824219 26.476562 4.824219 5.859375 0 10.984375-.492187 15.675782-1.511719l-3.183594-14.65625c-3.628906.785156-7.714844 1.167969-12.492188 1.167969-10.621094 0-15.582031-1.8125-21.320312-3.914063-6.1875-2.261718-13.199219-4.824218-26.476563-4.824218-1.796875 0-3.519531.046875-5.179687.136718v-44.671874h-15v283.320312h-55.449219v-283.320312h-15v44.660156c-1.589844-.082032-3.238281-.125-4.957031-.125-13.273438 0-20.285156 2.5625-26.46875 4.824218-5.742188 2.101563-10.703125 3.914063-21.320313 3.914063-4.773437 0-8.855469-.382813-12.484375-1.167969l-3.183594 14.65625c4.6875 1.019532 9.8125 1.511719 15.667969 1.511719 13.277344 0 20.285157-2.5625 26.472657-4.824219 5.738281-2.101562 10.699218-3.914062 21.316406-3.914062 1.746094 0 3.394531.050781 4.957031.152344v238.632812h85.449219v-238.617188c1.628906-.113281 3.351562-.167968 5.179687-.167968 10.621094 0 15.578125 1.8125 21.320313 3.914062zm0 0"/><path d="m290.597656 270.882812c4.050782 6.75 7.5625 13.875 10.433594 21.179688l13.960938-5.492188c-3.175782-8.070312-7.058594-15.945312-11.53125-23.40625-13.902344-23.160156-33.621094-42.519531-57.03125-55.984374l-7.480469 13c21.199219 12.195312 39.058593 29.726562 51.648437 50.703124zm0 0"/><path d="m44.558594 270.882812c12.589844-20.976562 30.449218-38.507812 51.648437-50.703124l-7.480469-13c-23.410156 13.464843-43.128906 32.824218-57.03125 55.984374-4.472656 7.457032-8.351562 15.332032-11.53125 23.40625l13.957032 5.492188c2.875-7.304688 6.386718-14.429688 10.4375-21.179688zm0 0"/><path d="m219.941406 478.039062 5.480469 13.964844c40.851563-16.035156 73.496094-48.652344 89.566406-89.488281l-13.957031-5.496094c-14.550781 36.972657-44.105469 66.503907-81.089844 81.019531zm0 0"/><path d="m34.121094 397.019531-13.957032 5.496094c16.035157 40.738281 48.589844 73.320313 89.316407 89.390625l5.503906-13.953125c-36.871094-14.550781-66.34375-44.046875-80.863281-80.933594zm0 0"/><path d="m121.15625 103.226562h15v-13.984374h31.296875v-15h-45.113281v-19.339844h90.230468v19.339844h-13.816406v28.984374h15v-13.984374h13.816406v-49.339844h-17.929687l5.648437-39.902344h-95.667968l5.648437 39.902344h-17.929687v49.339844h13.816406zm15.738281-88.226562h61.121094l-3.523437 24.902344h-54.074219zm0 0"/><path d="m185.183594 481.5h-15v-46.121094h15zm0-56.121094h-15v-15h15zm0-25h-15v-15h15zm0 0" fill="#fff"/><path d="m231.269531 461.746094-7.175781-13.175782c6.117188-3.328124 11.976562-7.230468 17.425781-11.59375l9.378907 11.703126c-6.136719 4.917968-12.738282 9.3125-19.628907 13.066406zm27.625-20.007813-10.273437-10.929687c.886718-.832032 1.757812-1.679688 2.617187-2.539063 2.460938-2.460937 4.839844-5.054687 7.070313-7.710937l11.492187 9.640625c-2.511719 2.992187-5.1875 5.910156-7.957031 8.679687-.972656.96875-1.953125 1.921875-2.949219 2.859375zm17.386719-19.914062-12.21875-8.703125c2.722656-3.820313 5.238281-7.839844 7.484375-11.949219l13.164063 7.191406c-2.527344 4.628907-5.363282 9.15625-8.429688 13.460938zm0 0" fill="#fff"/><path d="m307.414062 341.816406h-34.730468v-15h34.730468zm-44.730468 0h-15v-15h15zm-25 0h-15v-15h15zm0 0" fill="#fff"/></svg>