<svg height="512pt" viewBox="0 0 512 512" width="512pt" xmlns="http://www.w3.org/2000/svg"><path d="m360.527344 115.03125 107.527344-107.53125h9.308593l27.132813 27.132812v9.308594l-107.53125 107.527344zm-20.164063 93.042969 28.640625-28.644531-36.4375-36.4375-28.640625 28.640624-47.824219 6.460938-248.601562 248.601562v18.09375l59.710938 59.710938h18.09375l248.601562-248.601562zm0 0" fill="#b77062"/><path d="m302.960938 229.03125c-6.996094-6.996094-18.335938-6.996094-25.332032 0s-6.996094 18.335938 0 25.332031c6.996094 6.996094 18.335938 6.996094 25.332032 0 6.996093-6.996093 6.996093-18.335937 0-25.332031zm0 0" fill="#895247"/><path d="m142.992188 179.429688 36.4375-36.4375 28.640624 28.640624 47.824219 6.460938.101563.101562-77.804688 77.804688-.101562-.101562-6.457032-47.828126zm8.476562-64.398438-107.527344-107.53125h-9.308594l-27.132812 27.132812v9.308594l107.53125 107.527344zm104.527344 218.777344 170.695312 170.691406h18.09375l59.710938-59.710938v-18.09375l-170.691406-170.691406zm0 0" fill="#b77062"/><path d="m440.488281 71.503906c-6.992187-6.996094-18.335937-6.996094-25.332031 0-6.992188 6.996094-6.992188 18.335938 0 25.332032 6.996094 6.996093 18.339844 6.996093 25.332031 0 6.996094-6.996094 6.996094-18.335938 0-25.332032zm0 0" fill="#c6c5ca"/><path d="m282.960938 229.03125c-6.996094-6.996094-18.335938-6.996094-25.332032 0s-6.996094 18.335938 0 25.332031c6.996094 6.996094 18.335938 6.996094 25.332032 0 6.996093-6.996093 6.996093-18.335937 0-25.332031zm0 0" fill="#c6c5ca"/><path d="m347.683594 102.1875 62.125 62.121094-27.960938 27.960937-62.125-62.121093zm0 0" fill="#787680"/><path d="m96.835938 71.503906c-6.996094-6.996094-18.339844-6.996094-25.332032 0-6.996094 6.992188-6.996094 18.335938 0 25.332032 6.992188 6.992187 18.335938 6.992187 25.332032 0 6.992187-6.996094 6.992187-18.339844 0-25.332032zm0 0" fill="#c6c5ca"/><path d="m192.273438 130.152344-62.125 62.121094-27.960938-27.960938 62.125-62.121094zm0 0" fill="#787680"/><g fill="#895247"><path d="m411.964844 136.46875-21.4375-21.4375 97.183594-97.183594-10.347657-10.347656h-9.308593l-107.527344 107.53125 36.4375 36.4375zm0 0"/><path d="m37.5 444.789062v-18.09375l248.601562-248.601562 47.824219-6.460938 13.640625-13.640624-15-15-28.640625 28.640624-47.824219 6.460938-248.601562 248.601562v18.09375l59.710938 59.710938h18.09375l5.953124-5.953125zm0 0"/><path d="m286 333.808594 62.804688-62.804688-15-15-77.808594 77.804688 170.695312 170.691406h18.09375l5.953125-5.953125zm0 0"/><path d="m37.5 43.941406v-9.308594l16.789062-16.785156-10.347656-10.347656h-9.308594l-27.132812 27.132812v9.308594l107.53125 107.527344 15-15zm0 0"/><path d="m201.636719 208.074219-28.644531-28.644531 21.4375-21.4375-15-15-36.4375 36.4375 28.640624 28.644531 6.457032 47.824219.101562.105468 26.355469-26.355468zm0 0"/></g><path d="m435.160156 96.832031c-6.992187-6.992187-6.992187-18.335937 0-25.332031.832032-.832031 1.726563-1.5625 2.667969-2.199219-6.964844-4.695312-16.503906-3.964843-22.667969 2.199219-6.996094 6.996094-6.996094 18.339844 0 25.332031 6.164063 6.164063 15.703125 6.898438 22.667969 2.199219-.941406-.632812-1.835937-1.367188-2.667969-2.199219zm0 0" fill="#898890"/><path d="m277.632812 254.363281c-6.996093-6.996093-6.996093-18.335937 0-25.332031.832032-.832031 1.722657-1.566406 2.664063-2.199219-6.964844-4.699219-16.5-3.964843-22.664063 2.199219-6.996093 6.996094-6.996093 18.335938 0 25.332031 6.160157 6.164063 15.699219 6.894531 22.664063 2.199219-.9375-.632812-1.832031-1.367188-2.664063-2.199219zm0 0" fill="#898890"/><path d="m349.726562 130.152344 12.960938-12.960938-15-15-27.960938 27.960938 62.125 62.121094 15-15zm0 0" fill="#57565c"/><path d="m91.503906 96.832031c-6.996094-6.992187-6.996094-18.335937 0-25.332031.832032-.832031 1.726563-1.5625 2.664063-2.199219-6.964844-4.695312-16.5-3.964843-22.664063 2.199219-6.996094 6.996094-6.996094 18.339844 0 25.332031 6.164063 6.164063 15.699219 6.898438 22.664063 2.199219-.9375-.632812-1.832031-1.367188-2.664063-2.199219zm0 0" fill="#898890"/><path d="m132.1875 164.3125 47.125-47.121094-15.003906-15-62.121094 62.121094 27.960938 27.960938 15-15zm0 0" fill="#57565c"/><path d="m252.328125 223.726562c-9.910156 9.910157-9.910156 26.03125 0 35.941407 9.90625 9.90625 26.03125 9.90625 35.9375 0 9.910156-9.910157 9.910156-26.03125 0-35.941407-9.90625-9.90625-26.03125-9.90625-35.9375 0zm25.332031 10.609376c4.058594 4.058593 4.058594 10.664062 0 14.722656-4.058594 4.0625-10.664062 4.0625-14.726562 0-4.058594-4.058594-4.058594-10.664063 0-14.722656 4.058594-4.058594 10.667968-4.0625 14.726562 0zm0 0"/><path d="m420.417969 164.3125-72.730469-72.726562-38.570312 38.566406 72.734374 72.730468zm-72.730469-51.515625 51.515625 51.515625-17.351563 17.355469-51.519531-51.519531zm0 0"/><path d="m130.148438 202.882812 72.730468-72.730468-38.566406-38.566406-72.730469 72.726562zm51.515624-72.730468-51.519531 51.515625-17.351562-17.355469 51.515625-51.515625zm0 0"/><path d="m182.949219 186.148438-11.316407 11.316406-9.195312-9.195313-10.609375 10.605469 12.710937 12.710938 2.777344 20.578124 14.867188-2.007812-2.621094-19.40625 13.992188-13.992188zm0 0"/><path d="m347.457031 211.585938 12.710938-12.710938-10.605469-10.605469-16.292969 16.289063-6.457031 47.828125-244.613281 244.613281h-11.882813l-55.316406-55.316406v-11.882813l12.34375-12.34375 33.597656 33.597657 10.605469-10.609376-33.59375-33.59375 221.660156-221.664062 41.632813-5.625 14.179687 14.179688 10.605469-10.605469-11.5-11.503907 9.195312-9.195312-10.605468-10.609375-12.710938 12.710937-47.820312 6.460938-252.589844 252.589844v24.304687l64.105469 64.105469h24.308593l252.585938-252.589844zm0 0"/><path d="m480.46875 0h-15.519531l-95.585938 95.585938 10.609375 10.605468 22.457032-22.457031c-.113282 6.648437 2.363281 13.339844 7.425781 18.402344 4.953125 4.953125 11.464843 7.429687 17.972656 7.429687.144531 0 .289063 0 .4375-.003906l-22.460937 22.460938 10.605468 10.605468 95.585938-95.585937v-15.515625zm-60.003906 91.53125c-4.0625-4.0625-4.0625-10.667969 0-14.726562 4.058594-4.058594 10.664062-4.058594 14.722656 0 4.0625 4.0625 4.0625 10.667968.003906 14.726562-4.0625 4.058594-10.667968 4.058594-14.726562 0zm76.53125-50.699219-43.773438 43.773438c.113282-6.652344-2.359375-13.339844-7.425781-18.40625-5.0625-5.066407-11.75-7.539063-18.402344-7.425781l43.769531-43.773438h3.089844l22.742188 22.742188zm0 0"/><path d="m106.191406 132.023438-22.460937-22.460938c.148437.003906.292969.003906.4375.003906 6.507812 0 13.019531-2.476562 17.972656-7.429687 5.0625-5.0625 7.539063-11.753907 7.425781-18.402344l22.457032 22.457031 10.609374-10.605468-95.585937-95.585938h-15.519531l-31.527344 31.527344v15.519531l95.585938 95.585937zm-14.660156-40.492188c-4.058594 4.058594-10.664062 4.058594-14.726562 0h.003906c-4.0625-4.0625-4.0625-10.667969-.003906-14.726562 4.0625-4.058594 10.667968-4.058594 14.726562 0 4.058594 4.058593 4.058594 10.664062 0 14.726562zm-76.53125-53.789062 22.742188-22.742188h3.089843l43.773438 43.773438c-6.652344-.113282-13.339844 2.363281-18.40625 7.425781-5.066407 5.066406-7.539063 11.753906-7.425781 18.40625l-43.773438-43.773438zm0 0"/><path d="m188.269531 162.4375 16.289063 16.289062 25.59375 3.457032 2.007812-14.863282-20.574218-2.78125-12.710938-12.710937zm0 0"/><path d="m342.640625 275.449219 154.355469 154.351562v11.882813l-55.316406 55.316406h-11.882813l-12.34375-12.34375 31.828125-31.824219-10.609375-10.609375-31.824219 31.824219-131.402344-131.402344-10.609374 10.609375 158.746093 158.746094h24.308594l64.105469-64.105469v-24.304687l-158.746094-158.75zm0 0"/><path d="m352.878906 145.953125 10.605469-10.605469 29.167969 29.167969-10.605469 10.605469zm0 0" fill="#fff"/><path d="m114 451.054688-10.605469-10.609376 111.78125-111.78125 10.605469 10.609376zm118.855469-118.855469-10.609375-10.605469 10.609375-10.605469 10.605469 10.605469zm17.675781-17.675781-10.605469-10.609376 10.605469-10.605468 10.609375 10.605468zm0 0" fill="#fff"/><path d="m133.921875 149.941406 29.167969-29.167968 10.605468 10.605468-29.167968 29.167969zm0 0" fill="#fff"/><path d="m449.34375 417.507812-85.488281-85.488281 10.609375-10.605469 85.484375 85.484376zm-92.558594-92.558593-10.609375-10.609375 10.609375-10.605469 10.605469 10.605469zm-17.679687-17.679688-10.605469-10.605469 10.605469-10.609374 10.609375 10.609374zm0 0" fill="#fff"/></svg>