<svg height="512pt" viewBox="-96 0 512 512" width="512pt" xmlns="http://www.w3.org/2000/svg"><path d="m312.34375 181.980469v-26.683594h-29.484375v-51.796875h-24.703125v51.796875h-49.535156v-51.796875h-24.699219v51.796875h-49.535156v-51.796875h-24.703125v51.796875h-20.253906v20.265625h-70.808594v24.703125h70.808594v49.535156h-70.808594v24.699219h70.808594v49.535156h-70.808594v24.703125h70.808594v29.394531h26.679687v-28.292968c15.574219 0 30.648437-2.117188 44.957031-6.085938l11.863282 28.6875 24.65625-10.199218-11.441407-27.664063c13.960938-6.417969 26.886719-14.695313 38.46875-24.511719l20.464844 20.460938 18.867187-18.867188-20.40625-20.40625c9.90625-11.542968 18.273438-24.445312 24.777344-38.394531l27.34375 11.308594 10.195313-24.65625-28.222657-11.671875c4.128907-14.578125 6.339844-29.960938 6.339844-45.863282zm0 0" fill="#ffb655"/><path d="m57.976562 103.5h-34.710937l-14.925781-40.945312 32.28125-48.933594 32.28125 48.933594zm0 0" fill="#c6c5ca"/><path d="m312.34375 181.980469v-26.683594h-29.484375v-56.796875h-24.703125v56.796875h-49.535156v-56.796875h-24.699219v56.796875h-49.535156v-56.796875h-24.703125v56.796875h-20.253906v20.265625h-75.808594v24.703125h75.808594v49.535156h-75.808594v24.699219h75.808594v49.535156h-75.808594v24.703125h75.808594v29.394531h26.679687v-28.292968c15.574219 0 30.648437-2.117188 44.957031-6.085938l11.863282 28.6875 24.65625-10.199218-11.441407-27.664063c13.960938-6.417969 26.886719-14.695313 38.46875-24.511719l20.464844 20.460938 18.867187-18.867188-20.40625-20.40625c9.90625-11.542968 18.273438-24.445312 24.777344-38.394531l27.34375 11.308594 10.195313-24.65625-28.222657-11.671875c4.128907-14.578125 6.339844-29.960938 6.339844-45.863282zm0 0" fill="#ff7956"/><path d="m258.15625 103.5v27.09375h-49.535156v-27.09375zm-193.441406 72.0625v-44.964844h44.96875v-27.097656h-91.0625v72.0625zm119.207031-72.0625h-49.535156v27.09375h49.535156zm98.9375 0v27.09375h29.484375v-27.09375zm-264.238281 245.238281v155.761719h46.09375v-155.761719zm0-98.9375h46.09375v-49.535156h-46.09375zm46.09375 74.234375v-49.53125h-46.09375v49.53125zm0 0" fill="#b77062"/><path d="m55.621094 36.359375-15-22.738281-32.28125 48.933594 14.925781 40.945312h30l-14.925781-40.945312zm0 0" fill="#898890"/><g fill="#ff3f62"><path d="m89.429688 274.503906h30v49.53125h-30zm0 0"/><path d="m89.429688 200.265625h30v49.535156h-30zm0 0"/><path d="m13.621094 175.5625h30v24.703125h-30zm0 0"/><path d="m119.429688 155.296875h14.957031v-56.796875h-24.703125v56.796875h-20.253906v20.265625h30zm0 0"/><path d="m13.621094 249.800781h30v24.703125h-30zm0 0"/><path d="m119.429688 348.738281h-30v29.394531h26.679687v-28.289062c1.109375 0 2.214844-.011719 3.320313-.035156zm0 0"/><path d="m13.621094 324.035156h30v24.703125h-30zm0 0"/></g><path d="m18.621094 200.265625h30v49.535156h-30zm0 0" fill="#895247"/><path d="m18.621094 274.503906h30v49.53125h-30zm0 0" fill="#895247"/><path d="m18.621094 103.5h30v72.0625h-30zm0 0" fill="#895247"/><path d="m213.921875 103.5h24.699219v27.09375h-24.699219zm0 0" fill="#895247"/><path d="m288.15625 103.5h24.1875v27.09375h-24.1875zm0 0" fill="#895247"/><path d="m18.621094 348.738281h30v155.761719h-30zm0 0" fill="#895247"/><path d="m139.683594 103.5h24.703125v27.09375h-24.703125zm0 0" fill="#895247"/><path d="m290.359375 91h-39.703125v5h-34.535156v-5h-39.699219v5h-34.535156v-5h-39.703125v56.796875h-20.253906v20.265625h-75.808594v39.703125h5v34.535156h-5v39.703125h5v34.53125h-5v39.703125h75.808594v29.394531h41.683593v-28.449218c11.15625-.472656 22.210938-1.992188 33.007813-4.546875l12.242187 29.601562 38.519531-15.929687-11.605468-28.066406c9.984375-5.097657 19.46875-11.152344 28.324218-18.082032l20.976563 20.976563 29.472656-29.472657-20.890625-20.894531c6.996094-8.835937 13.121094-18.308593 18.285156-28.289062l27.777344 11.488281 15.929688-38.519531-29.101563-12.035157c2.6875-11.09375 4.28125-22.457031 4.765625-33.933593h28.53125v-41.683594h-29.484375v-56.796875zm-74.238281 47.097656h34.535156v9.699219h-34.535156zm34.535156-27.097656v12.097656h-34.535156v-12.097656zm-108.769531 27.097656h34.535156v9.699219h-34.535156zm34.535156-27.097656v12.097656h-34.535156v-12.097656zm-150.300781 96.765625h31.09375v34.535156h-31.09375zm46.09375 0h9.714844v34.535156h-9.714844zm-46.09375 74.238281h31.09375v34.53125h-31.09375zm46.09375 0h9.714844v34.53125h-9.714844zm232.628906-119.207031v11.683594h-28.371094v7.5c0 23.085937-4.589844 38.648437-7.875 50.242187l27.460938 11.355469-4.464844 10.796875-27.039062-11.183594-3.035157 6.5c-10.109375 21.679688-21.902343 34.617188-28.199219 41.953125l20.019532 20.015625-8.261719 8.261719-20.046875-20.042969-5.269531 4.46875c-18.160157 15.398438-33.914063 22.113282-43.308594 26.433594l11.335937 27.398438-10.796874 4.464843-11.535157-27.890625-6.394531 1.773438c-22.78125 6.316406-40.035156 5.8125-50.449219 5.8125v28.292968h-11.683593v-29.394531h-70.808594v-9.703125h70.808594v-64.535156h-70.808594v-9.699219h70.808594v-64.535156h-70.808594v-9.703125h70.808594v-20.265625h20.253906v-51.796875h9.703125v51.796875h64.535156v-51.796875h9.699219v51.796875h64.535156v-51.796875h9.703125v51.796875zm0 0"/><path d="m57.214844 497h-31.09375v-128.261719h-15v143.261719h61.09375v-143.261719h-15zm0 0"/><path d="m89.683594 96h-78.5625v59.5625h15v-44.5625h63.5625zm0 0"/><path d="m72.214844 155.5625v-17.464844h17.46875v-15h-32.46875v32.464844zm0 0"/><path d="m297.859375 96v15h6.984375v12.097656h-6.984375v15h21.984375v-42.097656zm0 0"/><path d="m157.101562 212.363281 23.023438-23.027343h28.496094v-15h-34.707032l-27.421874 27.421874-10.621094-10.621093-23.484375-6.292969-3.882813 14.484375 19.605469 5.257813 7.777344 7.777343-27.417969 27.417969v34.722656h15v-28.507812l23.023438-23.027344 11.4375 11.4375v46.398438h15v-31.398438l13.492187 13.488281 10.605469-10.605469-13.492188-13.488281h31.402344v-15h-46.402344zm0 0"/><path d="m23.023438 80.933594-3.964844-10.878906h21.5625v-15h-18.347656l18.347656-27.816407 23.941406 36.292969-6.34375 17.402344 14.09375 5.132812 8.929688-24.492187-40.621094-61.574219-40.621094 61.574219 8.929688 24.492187zm0 0"/><path d="m49.214844 487.570312h-15v-71.902343h15zm0-81.902343h-15v-15h15zm0-25h-15v-15h15zm0 0" fill="#fff"/><path d="m135.605469 329.667969-2.433594-14.800781c46.894531-7.714844 86.472656-38.359376 105.875-81.972657l13.707031 6.097657c-10.378906 23.328124-26.550781 44-46.761718 59.78125-20.507813 16.007812-44.847657 26.695312-70.386719 30.894531zm121.089843-100.414063-14.085937-5.15625c1.625-4.4375 3.039063-9.011718 4.203125-13.597656l14.539062 3.691406c-1.289062 5.078125-2.855468 10.144532-4.65625 15.0625zm6.894532-25.324218-14.753906-2.699219c.847656-4.640625 1.46875-9.390625 1.84375-14.109375l14.953124 1.191406c-.414062 5.222656-1.101562 10.476562-2.042968 15.617188zm0 0" fill="#fff"/></svg>