<svg height="512pt" viewBox="0 -35 512 511" width="512pt" xmlns="http://www.w3.org/2000/svg"><path d="m205.550781 391.308594h-166.460937l-23.539063-341.246094h213.535157zm0 0" fill="#b77062"/><path d="m227.234375 76.9375-74.914063 43.25-106.15625-61.289062 4.160157 60.320312 51.839843 29.929688-47.871093 27.636718 3.253906 47.167969 4.160156 60.316406 40.457031 23.359375-37.359374 21.570313 3.84375 55.695312 83.671874-48.308593 54.820313 31.652343 3.84375-55.699219-8.507813-4.910156 9.210938-5.320312 4.160156-60.316406-63.527344 36.679687-87.09375-50.285156 87.09375-50.28125 65.332032 37.71875 3.84375-55.695313-19.019532-10.980468 20.597657-11.890626zm0 0" fill="#895247"/><path d="m28.132812 232.484375 196.183594-113.265625 4.160156-60.320312-204.183593 117.886718zm0 0" fill="#ffb655"/><path d="m38.648438 384.894531 174.285156-100.625 4.160156-60.316406-182.289062 105.242187zm0 0" fill="#ffb655"/><path d="m161.617188 149.148438c0 10.65625-8.640626 19.296874-19.296876 19.296874-10.660156 0-19.300781-8.640624-19.300781-19.296874 0-10.660157 8.640625-19.300782 19.300781-19.300782 10.65625 0 19.296876 8.640625 19.296876 19.300782zm0 0" fill="#ff7956"/><path d="m161.617188 307.628906c0 10.65625-8.640626 19.296875-19.296876 19.296875-10.660156 0-19.300781-8.640625-19.300781-19.296875 0-10.660156 8.640625-19.296875 19.300781-19.296875 10.65625 0 19.296876 8.636719 19.296876 19.296875zm0 0" fill="#ff7956"/><path d="m122.320312 120.1875-106.15625-61.289062 4.15625 60.320312 51.84375 29.929688zm0 0" fill="#ffb655"/><path d="m122.320312 178.105469 94.183594 54.378906 3.84375-55.699219-47.871094-27.636718zm0 0" fill="#ffb655"/><path d="m122.320312 278.671875-94.773437-54.71875 4.160156 60.316406 40.457031 23.359375zm0 0" fill="#ffb655"/><path d="m122.320312 336.585938 83.671876 48.308593 3.839843-55.699219-37.355469-21.566406zm0 0" fill="#ffb655"/><path d="m141.617188 149.148438c0 10.65625-8.640626 19.296874-19.296876 19.296874-10.660156 0-19.300781-8.640624-19.300781-19.296874 0-10.660157 8.640625-19.300782 19.300781-19.300782 10.65625 0 19.296876 8.640625 19.296876 19.300782zm0 0" fill="#c6c5ca"/><path d="m141.617188 307.628906c0 10.65625-8.640626 19.296875-19.296876 19.296875-10.660156 0-19.300781-8.640625-19.300781-19.296875 0-10.660156 8.640625-19.296875 19.300781-19.296875 10.65625 0 19.296876 8.636719 19.296876 19.296875zm0 0" fill="#c6c5ca"/><path d="m236.433594 8h-228.226563l3.800781 42.0625h220.625zm0 0" fill="#ffb655"/><path d="m208.191406 391.308594h-171.742187l2.859375 42.058594h166.023437zm0 0" fill="#ffb655"/><path d="m472.910156 391.308594h-166.460937l-23.535157-341.246094h213.535157zm0 0" fill="#b77062"/><path d="m494.59375 76.9375-74.914062 43.25-106.15625-61.289062 4.160156 60.320312 51.839844 29.929688-47.871094 27.636718 3.253906 47.167969 4.160156 60.316406 40.457032 23.359375-37.355469 21.570313 3.839843 55.695312 83.671876-48.308593 54.820312 31.652343 3.84375-55.699219-8.507812-4.910156 9.210937-5.320312 4.164063-60.316406-63.53125 36.679687-87.089844-50.285156 87.089844-50.28125 65.335937 37.71875 3.839844-55.695313-19.019531-10.980468 20.597656-11.890626zm0 0" fill="#895247"/><path d="m295.496094 232.484375 196.183594-113.265625 4.15625-60.320312-204.183594 117.886718zm0 0" fill="#ffb655"/><path d="m306.007812 384.894531 174.285157-100.625 4.160156-60.316406-182.285156 105.242187zm0 0" fill="#ffb655"/><path d="m428.980469 149.148438c0 10.65625-8.640625 19.296874-19.300781 19.296874-10.65625 0-19.296876-8.640624-19.296876-19.296874 0-10.660157 8.640626-19.300782 19.296876-19.300782 10.660156 0 19.300781 8.640625 19.300781 19.300782zm0 0" fill="#ff7956"/><path d="m428.980469 307.628906c0 10.65625-8.640625 19.296875-19.300781 19.296875-10.65625 0-19.296876-8.640625-19.296876-19.296875 0-10.660156 8.640626-19.296875 19.296876-19.296875 10.660156 0 19.300781 8.636719 19.300781 19.296875zm0 0" fill="#ff7956"/><path d="m389.679688 120.1875-106.15625-61.289062 4.160156 60.320312 51.839844 29.929688zm0 0" fill="#ffb655"/><path d="m389.679688 178.105469 94.1875 54.378906 3.839843-55.699219-47.871093-27.636718zm0 0" fill="#ffb655"/><path d="m389.679688 278.671875-94.773438-54.71875 4.160156 60.316406 40.457032 23.359375zm0 0" fill="#ffb655"/><path d="m389.679688 336.585938 83.671874 48.308593 3.84375-55.699219-37.359374-21.566406zm0 0" fill="#ffb655"/><path d="m408.980469 149.148438c0 10.65625-8.640625 19.296874-19.300781 19.296874-10.65625 0-19.296876-8.640624-19.296876-19.296874 0-10.660157 8.640626-19.300782 19.296876-19.300782 10.660156 0 19.300781 8.640625 19.300781 19.300782zm0 0" fill="#c6c5ca"/><path d="m408.980469 307.628906c0 10.65625-8.640625 19.296875-19.300781 19.296875-10.65625 0-19.296876-8.640625-19.296876-19.296875 0-10.660156 8.640626-19.296875 19.296876-19.296875 10.660156 0 19.300781 8.636719 19.300781 19.296875zm0 0" fill="#c6c5ca"/><path d="m503.792969 8h-228.222657l3.796876 42.0625h220.625zm0 0" fill="#ffb655"/><path d="m475.550781 391.308594h-171.742187l2.859375 42.058594h166.023437zm0 0" fill="#ffb655"/><path d="m15.550781 50.0625 23.539063 341.246094h30l-23.539063-341.246094zm0 0" fill="#895247"/><path d="m282.914062 50.0625 23.535157 341.246094h30l-23.535157-341.246094zm0 0" fill="#895247"/><path d="m54.292969 176.785156 172.941406-99.847656 1.242187-18.039062-204.183593 117.886718 3.84375 55.699219 28.851562-16.660156zm0 0" fill="#ff7956"/><path d="m64.804688 329.199219 151.042968-87.207031 1.246094-18.039063-182.289062 105.246094 3.84375 55.695312 28.851562-16.65625zm0 0" fill="#ff7956"/><path d="m50.324219 119.21875-2.917969-42.28125-31.242188-18.039062 4.15625 60.320312 51.84375 29.929688 15-8.660157zm0 0" fill="#ff7956"/><path d="m152.320312 178.105469 35.15625-20.296875-15-8.660156-50.15625 28.957031 94.183594 54.378906 1.148438-16.660156zm0 0" fill="#ff7956"/><path d="m61.707031 284.269531-2.917969-42.277343-31.242187-18.039063 4.160156 60.316406 40.457031 23.359375 15-8.660156zm0 0" fill="#ff7956"/><path d="m152.320312 336.585938 35.15625-20.296876-15-8.660156-50.15625 28.957032 83.671876 48.308593 1.148437-16.65625zm0 0" fill="#ff7956"/><path d="m123.019531 149.148438c0-6.996094 3.726563-13.125 9.300781-16.507813-2.917968-1.769531-6.339843-2.792969-10-2.792969-10.660156 0-19.300781 8.640625-19.300781 19.300782 0 10.65625 8.640625 19.296874 19.300781 19.296874 3.660157 0 7.082032-1.019531 10-2.789062-5.574218-3.382812-9.300781-9.511719-9.300781-16.507812zm0 0" fill="#898890"/><path d="m123.019531 307.628906c0-6.996094 3.726563-13.125 9.300781-16.507812-2.917968-1.769532-6.339843-2.789063-10-2.789063-10.660156 0-19.300781 8.636719-19.300781 19.296875 0 10.65625 8.640625 19.296875 19.300781 19.296875 3.660157 0 7.082032-1.019531 10-2.789062-5.574218-3.382813-9.300781-9.511719-9.300781-16.507813zm0 0" fill="#898890"/><g fill="#ff7956"><path d="m8.207031 8 3.800781 42.0625h30l-3.800781-42.0625zm0 0"/><path d="m36.449219 391.308594 2.859375 42.058594h30l-2.859375-42.058594zm0 0"/><path d="m321.652344 176.785156 172.941406-99.847656 1.242188-18.039062-204.183594 117.886718 3.84375 55.699219 28.851562-16.660156zm0 0"/><path d="m332.167969 329.199219 151.042969-87.207031 1.242187-18.039063-182.285156 105.246094 3.839843 55.695312 28.851563-16.65625zm0 0"/><path d="m317.683594 119.21875-2.914063-42.28125-31.246093-18.039062 4.160156 60.320312 51.839844 29.929688 15-8.660157zm0 0"/><path d="m419.679688 178.105469 35.15625-20.296875-15-8.660156-50.15625 28.957031 94.1875 54.378906 1.148437-16.660156zm0 0"/><path d="m329.066406 284.269531-2.914062-42.277343-31.246094-18.039063 4.160156 60.316406 40.457032 23.359375 15-8.660156zm0 0"/><path d="m419.679688 336.585938 35.15625-20.296876-15-8.660156-50.15625 28.957032 83.671874 48.308593 1.148438-16.65625zm0 0"/></g><path d="m390.382812 149.148438c0-6.996094 3.722657-13.125 9.296876-16.507813-2.914063-1.769531-6.339844-2.792969-10-2.792969-10.65625 0-19.296876 8.640625-19.296876 19.300782 0 10.65625 8.640626 19.296874 19.296876 19.296874 3.660156 0 7.085937-1.019531 10-2.789062-5.574219-3.382812-9.296876-9.511719-9.296876-16.507812zm0 0" fill="#898890"/><path d="m390.382812 307.628906c0-6.996094 3.722657-13.125 9.296876-16.507812-2.914063-1.769532-6.339844-2.789063-10-2.789063-10.65625 0-19.296876 8.636719-19.296876 19.296875 0 10.65625 8.640626 19.296875 19.296876 19.296875 3.660156 0 7.085937-1.019531 10-2.789062-5.574219-3.382813-9.296876-9.511719-9.296876-16.507813zm0 0" fill="#898890"/><path d="m275.570312 8 3.796876 42.0625h30l-3.796876-42.0625zm0 0" fill="#ff7956"/><path d="m303.808594 391.308594 2.859375 42.058594h30.003906l-2.863281-42.058594zm0 0" fill="#ff7956"/><path d="m5.15625 57.5625h3.394531l22.503907 326.246094h-2.632813l3.878906 57.0625h180.039063l3.878906-57.0625h-2.632812l22.5-326.246094h3.398437l5.15625-57.0625h-244.640625zm198.019531 259.132812-6.949219-4.011718-7.5 12.988281 13.300782 7.679687-2.691406 39.039063-53.265626-30.753906-7.5 12.992187 50.535157 29.179688h-133.574219l148.949219-85.996094zm-80.855469-155.75c-6.507812 0-11.800781-5.292968-11.800781-11.796874 0-6.503907 5.292969-11.800782 11.800781-11.800782 6.503907 0 11.796876 5.296875 11.796876 11.800782 0 6.503906-5.292969 11.796874-11.796876 11.796874zm-8.730468 13.539063-78.363282 45.242187-.472656-.273437-2.65625-38.515625 63.914063-36.898438c-.324219 1.652344-.492188 3.359376-.492188 5.105469.003907 11.722657 7.566407 21.710938 18.070313 25.339844zm-70.980469 158.867187 53.402344-30.828124c-.324219 1.652343-.492188 3.359374-.492188 5.105468 0 11.722656 7.566407 21.707032 18.070313 25.339844l-68.289063 39.421875zm79.710937-37.519531c6.503907 0 11.796876 5.292969 11.796876 11.796875s-5.292969 11.800782-11.796876 11.800782c-6.507812 0-11.800781-5.296876-11.800781-11.800782s5.292969-11.796875 11.800781-11.796875zm8.730469-13.539062 77.589844-44.796875-2.917969 42.277344-57.09375 32.964843c.320313-1.65625.488282-3.363281.488282-5.109375 0-11.722656-7.5625-21.707031-18.066407-25.335937zm81.492188-101.355469-2.660157 38.519531-.46875.269531-63.34375-36.570312-7.5 12.988281 55.84375 32.242188-152.953124 88.308593-1.300782-18.886718 8.253906 4.769531 7.5-12.992187-17-9.8125-2.914062-42.28125 62.570312 36.128906 7.5-12.992188-55.839843-32.242187 165.636719-95.628907-2.175782 31.523438-17.464844-10.082031-7.5 12.988281zm4.566406-66.21875-68.480469 39.535156c.320313-1.652344.488282-3.359375.488282-5.105468 0-11.722657-7.566407-21.710938-18.070313-25.339844l88.976563-51.367188zm-186.160156 49.5625-2.175781-31.523438 19.640624 11.335938 7.5-12.988281-28.382812-16.386719-2.917969-42.28125 73.957031 42.699219 7.5-12.988281-77.226562-44.585938h186.949219zm167.375 261.585938h-152.007813l-1.839844-27.058594h155.6875zm29.898437-410.367188-2.441406 27.0625h-206.921875l-2.441406-27.0625zm0 0"/><path d="m506.84375 57.5625 5.15625-57.0625h-244.640625l5.15625 57.0625h3.398437l18.449219 267.480469 1.109375 16.132812 2.941406 42.632813h-2.632812l3.878906 57.0625h180.039063l3.878906-57.0625h-2.632813l6.921876-100.335938 5.039062-73.058594 10.542969-152.851562zm-11.261719-42.0625-2.441406 27.0625h-206.917969l-2.445312-27.0625zm-11.113281 99.21875-68.480469 39.535156c.320313-1.652344.488281-3.359375.488281-5.105468 0-11.722657-7.5625-21.710938-18.066406-25.339844l88.976563-51.371094zm-189.578125 0-2.914063-42.277344 73.953126 42.695313 7.5-12.988281-77.222657-44.585938h186.949219l-184.847656 106.71875-2.171875-31.523438 19.636719 11.335938 7.5-12.988281zm94.789063 46.226562c-6.503907 0-11.796876-5.292968-11.796876-11.796874 0-6.503907 5.292969-11.800782 11.796876-11.800782 6.507812 0 11.800781 5.296875 11.800781 11.800782 0 6.503906-5.292969 11.796874-11.800781 11.796874zm-87.5625 58.511719-2.660157-38.519531 63.914063-36.898438c-.320313 1.652344-.488282 3.363282-.488282 5.109376 0 11.71875 7.5625 21.707031 18.066407 25.335937l-78.363281 45.242187zm168.421874 97.238281-6.953124-4.015624-7.5 12.992187 13.304687 7.679687-2.695313 39.039063-53.265624-30.75-7.5 12.988281 50.539062 29.179688h-133.574219l148.945313-85.996094zm-80.859374-20.863281c6.507812 0 11.800781 5.292969 11.800781 11.796875s-5.292969 11.800782-11.800781 11.800782c-6.503907 0-11.796876-5.296876-11.796876-11.800782s5.292969-11.796875 11.796876-11.796875zm85.765624-50.242187-2.359374 34.183594-57.097657 32.964843c.320313-1.65625.492188-3.363281.492188-5.109375 0-11.71875-7.566407-21.707031-18.070313-25.335937l77.59375-44.796875zm-94.496093 87.378906-68.285157 39.421875-2.691406-39.039063 53.398438-30.828124c-.320313 1.652343-.488282 3.359374-.488282 5.105468 0 11.722656 7.566407 21.707032 18.066407 25.339844zm84.734375 92.898438h-152.007813l-1.839843-27.058594h155.6875zm11.089844-206.136719-63.34375-36.574219-7.5 12.992188 55.84375 32.238281-152.949219 88.308593-1.304688-18.882812 8.253907 4.765625 7.5-12.992187-16.996094-9.8125-2.917969-42.277344 62.574219 36.125 7.5-12.988282-55.84375-32.242187 165.636718-95.632813-2.175781 31.523438-17.464843-10.082031-7.5 12.992187 23.816406 13.75-2.65625 38.515625zm0 0"/><path d="m150.09375 124.535156 51.09375-29.5 7.5 12.992188-51.09375 29.5zm0 0" fill="#fff"/><path d="m147.078125 284.777344 43.726563-25.449219 7.546874 12.964844-43.726562 25.445312zm0 0" fill="#fff"/><path d="m213.765625 36.53125h-37.816406v-15h37.816406zm-47.816406 0h-15v-15h15zm-25 0h-15v-15h15zm0 0" fill="#fff"/><path d="m185.523438 419.839844h-34.425782v-15.003906h34.425782zm-44.425782 0h-15v-15.003906h15zm-25 0h-15v-15.003906h15zm0 0" fill="#fff"/><path d="m417.449219 124.539062 51.09375-29.5 7.5 12.988282-51.09375 29.5zm0 0" fill="#fff"/><path d="m414.433594 284.773438 43.71875-25.453126 7.546875 12.964844-43.71875 25.453125zm0 0" fill="#fff"/><path d="m481.125 36.53125h-37.8125v-15h37.8125zm-47.8125 0h-15v-15h15zm-25 0h-15v-15h15zm0 0" fill="#fff"/><path d="m452.886719 419.839844h-34.429688v-15.003906h34.429688zm-44.429688 0h-15v-15.003906h15zm-25 0h-15v-15.003906h15zm0 0" fill="#fff"/></svg>