<svg height="512pt" viewBox="-22 0 512 512" width="512pt" xmlns="http://www.w3.org/2000/svg"><path d="m307.097656 414.207031-13.613281 43.867188h-118.050781l-13.617188-43.867188-15.640625-15.640625v88.207032c6.921875 6.921874 10.804688 10.804687 17.726563 17.726562h140.234375c7.234375-7.234375 11.367187-11.367188 18.601562-18.601562v-87.332032zm0 0" fill="#fff5cc"/><path d="m97.402344 289.433594c-.199219 3.296875-.28125 6.625-.238282 9.972656l-.003906 50.148438 64.65625 64.652343 13.617188 43.867188h118.050781l13.613281-43.867188 64.425782-64.421875.238281-52.101562c0-2.769532-.082031-5.519532-.242188-8.25zm0 0" fill="#fff5cc"/><path d="m196.601562 347.980469h-38.5625c-4.367187-3.394531-7.351562-5.71875-11.71875-9.113281l-7.925781-31.214844c5.851563-7.523438 8.3125-10.691406 14.167969-18.21875h50.691406c5.851563 7.527344 8.316406 10.695312 14.167969 18.21875l-7.636719 30.074218c-4.910156 3.820313-8.273437 6.433594-13.183594 10.253907zm0 0" fill="#787680"/><path d="m272.3125 347.980469h38.5625c4.367188-3.394531 7.351562-5.71875 11.71875-9.113281l7.925781-31.214844c-5.851562-7.523438-8.316406-10.691406-14.167969-18.21875h-50.691406c-5.851562 7.527344-8.316406 10.695312-14.167968 18.21875l7.636718 30.074218c4.910156 3.820313 8.273438 6.433594 13.183594 10.253907zm0 0" fill="#787680"/><path d="m234.457031 404.207031-25.71875-10.566406 25.71875-40.875 25.71875 40.875zm0 0" fill="#787680"/><path d="m391.097656 236.253906h-130.878906v-159.917968h-53.179688v159.917968h-130.878906v53.183594h314.9375zm0 0" fill="#ffe477"/><path d="m260.21875 100.746094c63.53125 12.394531 111.484375 68.347656 111.484375 135.507812h-111.484375zm-53.179688 0c-63.53125 12.394531-111.484374 68.347656-111.484374 135.507812h111.484374zm0 0" fill="#c6c5ca"/><path d="m457.566406 7.5c-12.355468 0-23.027344 8.816406-25.160156 20.988281-4.144531 23.613281-15.335938 46.234375-33.574219 64.472657-22.019531 22.019531-50.429687 33.765624-79.261719 35.234374 20.097657 16 35.625 37.488282 44.328126 62.195313 16.203124-8.132813 31.402343-18.960937 44.925781-32.488281 40.957031-40.953125 57.203125-97.265625 48.742187-150.402344zm0 0" fill="#c6c5ca"/><path d="m9.691406 7.5c12.355469 0 23.027344 8.816406 25.164063 20.988281 4.140625 23.613281 15.335937 46.234375 33.574219 64.472657 22.019531 22.019531 50.425781 33.765624 79.257812 35.234374-20.09375 16-35.625 37.488282-44.324219 62.195313-16.207031-8.132813-31.40625-18.960937-44.929687-32.488281-40.957032-40.953125-57.203125-97.265625-48.742188-150.402344zm0 0" fill="#c6c5ca"/><path d="m322.738281 398.566406-15.640625 15.640625-13.617187 43.867188h29.257812zm0 0" fill="#ffc477"/><path d="m176.175781 486.773438v-28.699219h-.742187l-13.617188-43.867188-15.640625-15.640625v88.207032l17.726563 17.726562h30zm0 0" fill="#ffc477"/><path d="m127.160156 349.554688.003906-50.148438c-.042968-3.347656.039063-6.675781.238282-9.972656h-30c-.199219 3.296875-.28125 6.625-.238282 9.972656l-.003906 50.148438 64.65625 64.652343 13.617188 43.867188h30l-13.617188-43.867188zm0 0" fill="#ffc477"/><path d="m168.394531 307.652344c5.851563-7.523438 8.316407-10.691406 14.167969-18.214844h-30c-5.851562 7.523438-8.316406 10.691406-14.167969 18.214844l7.925781 31.214844c4.367188 3.398437 7.355469 5.71875 11.71875 9.113281h30c-4.363281-3.394531-7.351562-5.714844-11.71875-9.113281zm0 0" fill="#57565c"/><path d="m281.488281 307.652344c5.855469-7.523438 8.316407-10.691406 14.167969-18.214844h-30c-5.851562 7.523438-8.3125 10.691406-14.167969 18.214844l7.640625 30.074218c4.910156 3.820313 8.273438 6.433594 13.183594 10.253907h30c-4.910156-3.820313-8.273438-6.433594-13.183594-10.253907zm0 0" fill="#57565c"/><path d="m228.738281 393.640625 15.71875-24.980469-10-15.894531-25.71875 40.875 25.71875 10.566406 10-4.109375zm0 0" fill="#57565c"/><path d="m207.039062 76.335938h30v159.917968h-30zm0 0" fill="#ffb655"/><path d="m76.160156 236.253906h30v53.183594h-30zm0 0" fill="#ffb655"/><g fill="#898890"><path d="m207.039062 110.28125v-9.535156c-63.53125 12.394531-111.484374 68.347656-111.484374 135.507812h30c0-56.089844 33.445312-104.363281 81.484374-125.972656zm0 0"/><path d="m260.21875 100.746094v135.507812h30v-125.972656c-9.480469-4.265625-19.527344-7.492188-30-9.535156zm0 0"/><path d="m349.570312 128.195312c28.832032-1.46875 57.242188-13.214843 79.261719-35.234374 15.109375-15.109376 25.382813-33.230469 30.820313-52.429688.347656-11.039062-.34375-22.101562-2.085938-33.03125-12.355468 0-23.027344 8.820312-25.160156 20.988281-4.144531 23.617188-15.335938 46.234375-33.574219 64.472657-22.019531 22.019531-50.429687 33.765624-79.261719 35.234374 20.097657 16 35.625 37.488282 44.328126 62.195313 8.261718-4.148437 16.261718-8.996094 23.914062-14.546875-9.070312-18.609375-22.199219-34.875-38.242188-47.648438zm0 0"/><path d="m88.433594 157.902344c-32.53125-32.53125-49.472656-74.75-50.828125-117.371094-1.125-3.972656-2.039063-7.996094-2.75-12.042969-2.136719-12.171875-12.808594-20.988281-25.164063-20.988281-8.460937 53.136719 7.785156 109.449219 48.742188 150.402344 13.523437 13.527344 28.722656 24.351562 44.925781 32.488281 1.757813-4.984375 3.792969-9.839844 6.085937-14.546875-7.355468-5.332031-14.382812-11.3125-21.011718-17.941406zm0 0"/></g><path d="m271.269531 397.191406-36.8125-58.507812-36.8125 58.507812 36.8125 15.121094zm-36.8125-30.339844 14.625 23.238282-14.625 6.007812-14.625-6.007812zm0 0"/><path d="m267.71875 68.835938h-68.179688v159.917968h-130.878906v68.183594h68.566406l-7.003906 9.003906 9.464844 37.269532 15.78125 12.269531h43.707031l17.246094-13.414063 9.175781-36.125-7.003906-9.003906h31.730469l-7.003907 9.003906 9.171876 36.125 17.25 13.414063h43.707031l15.78125-12.273438 9.460937-37.265625-7.003906-9.003906h66.910156v-68.183594h-130.878906zm-58.46875 240.523437-6.101562 24.023437-9.121094 7.097657h-33.414063l-7.65625-5.953125-6.390625-25.167969 9.664063-12.425781h43.355469zm113.097656 0-6.390625 25.167969-7.65625 5.953125h-33.414062l-9.125-7.097657-6.101563-24.023437 9.664063-12.425781h43.359375zm61.25-65.605469v38.183594h-299.9375v-38.183594h130.878906v-159.917968h38.183594v159.917968zm0 0"/><path d="m136.828125 255.890625h15v15h-15zm0 0"/><path d="m106.828125 255.890625h15v15h-15zm0 0"/><path d="m166.828125 255.890625h15v15h-15zm0 0"/><path d="m196.828125 255.890625h15v15h-15zm0 0"/><path d="m226.828125 225.890625h15v15h-15zm0 0"/><path d="m226.828125 255.890625h15v15h-15zm0 0"/><path d="m226.828125 195.890625h15v15h-15zm0 0"/><path d="m226.828125 165.890625h15v15h-15zm0 0"/><path d="m226.828125 135.890625h15v15h-15zm0 0"/><path d="m226.828125 105.890625h15v15h-15zm0 0"/><path d="m256.828125 255.890625h15v15h-15zm0 0"/><path d="m286.828125 255.890625h15v15h-15zm0 0"/><path d="m316.828125 255.890625h15v15h-15zm0 0"/><path d="m346.828125 255.890625h15v15h-15zm0 0"/><path d="m379.015625 309.433594-15 .003906.003906 37.242188-63.535156 63.535156-12.527344 40.359375h-11.945312v-18.480469h-15v18.480469h-19.054688v-18.480469h-15v18.480469h-19.054687v-18.480469h-15v18.480469h-11.945313l-12.527343-40.359375-63.746094-63.746094.21875-36.988281-15-.089844-.257813 43.253906 49.03125 49.03125v88.203125l22.117188 22.121094h146.449219l22.996093-22.996094v-87.328125l48.78125-48.785156zm-63.777344 173.355468-14.210937 14.210938h-134.019532l-13.332031-13.332031v-66.992188l1.527344 1.523438 14.703125 47.375h129.101562l14.703126-47.375 1.527343-1.523438zm0 0"/><path d="m362.84375 217.332031 14.84375-2.15625c-7.738281-53.328125-44.113281-97.773437-94.9375-115.988281l-5.0625 14.121094c45.589844 16.335937 78.21875 56.195312 85.15625 104.023437zm0 0"/><path d="m104.414062 217.332031c6.9375-47.828125 39.570313-87.6875 85.152344-104.023437l-5.058594-14.121094c-50.820312 18.214844-87.199218 62.660156-94.9375 115.988281zm0 0"/><path d="m89.910156 173.96875c-53.8125-35.484375-80.640625-97.414062-73.828125-157.820312 5.828125 2.171874 10.265625 7.253906 11.386719 13.636718 8.722656 49.746094 45.695312 88.863282 92.765625 101.601563l3.917969-14.480469c-40.6875-11.011719-74.050782-44.917969-81.910156-89.714844-2.765626-15.753906-16.457032-27.191406-32.550782-27.191406h-6.402344l-1.003906 6.320312c-11.445312 71.882813 20.898438 141.609376 79.367188 180.167969zm0 0"/><path d="m464.972656 6.320312-1.003906-6.320312h-6.402344c-16.09375 0-29.785156 11.4375-32.550781 27.191406-7.859375 44.804688-41.234375 78.707032-81.910156 89.714844l3.917969 14.480469c46.949218-12.703125 84.019531-51.726563 92.769531-101.601563 1.117187-6.382812 5.554687-11.464844 11.382812-13.636718 6.839844 60.621093-20.195312 122.460937-73.828125 157.820312l8.257813 12.519531c59.332031-39.117187 90.652343-109.304687 79.367187-180.167969zm0 0"/><path d="m330.714844 208.664062c-2.652344-9.308593-6.636719-18.1875-11.835938-26.394531l12.671875-8.03125c5.96875 9.421875 10.542969 19.621094 13.589844 30.316407zm-17.171875-34.019531c-2.839844-3.679687-5.953125-7.195312-9.261719-10.445312l10.519531-10.695313c3.792969 3.730469 7.367188 7.761719 10.621094 11.984375zm-16.191407-16.660156c-3.59375-2.9375-7.425781-5.648437-11.382812-8.058594l7.792969-12.816406c4.550781 2.769531 8.953125 5.882813 13.082031 9.257813zm0 0" fill="#fff"/><path d="m298.136719 489h-24.511719v-15h24.511719zm-34.511719 0h-15v-15h15zm-25 0h-15v-15h15zm0 0" fill="#fff"/><path d="m293.355469 406.199219-10.605469-10.601563 26.160156-26.164062 10.605469 10.605468zm33.230469-33.230469-10.605469-10.605469 10.605469-10.605469 10.609374 10.605469zm17.679687-17.675781-10.605469-10.609375 10.605469-10.605469 10.605469 10.609375zm0 0" fill="#fff"/><path d="m379.207031 160.453125-8.96875-12.023437c5.480469-4.085938 10.730469-8.632813 15.605469-13.507813 6.890625-6.890625 13.085938-14.539063 18.417969-22.734375l12.574219 8.175781c-5.898438 9.074219-12.757813 17.539063-20.386719 25.167969-5.382813 5.382812-11.183594 10.40625-17.242188 14.921875zm0 0" fill="#fff"/></svg>