<svg height="512pt" viewBox="0 0 512 512" width="512pt" xmlns="http://www.w3.org/2000/svg"><path d="m504.5 256c0 137.242188-111.257812 248.5-248.5 248.5s-248.5-111.257812-248.5-248.5 111.257812-248.5 248.5-248.5 248.5 111.257812 248.5 248.5zm0 0" fill="#ffb655"/><path d="m486 256c0 110.457031-89.542969 200-200 200s-200-89.542969-200-200 89.542969-200 200-200 200 89.542969 200 200zm0 0" fill="#ff7956"/><path d="m456 256c0 110.457031-89.542969 200-200 200s-200-89.542969-200-200 89.542969-200 200-200 200 89.542969 200 200zm0 0" fill="#57a4ff"/><path d="m421 242.21875h-270c6.492188-63.816406 57.277344-114.714844 121.21875-121.21875v69.417969h-31.800781v-27.757813c-20.734375 10.15625-37.601563 27.023438-47.757813 47.757813h186.679688c-10.15625-20.734375-27.023438-37.601563-47.757813-47.757813v27.757813h-31.800781v-69.417969c63.816406 6.492188 114.714844 57.277344 121.21875 121.21875zm0 0" fill="#006df0"/><path d="m421 269.78125h-270c6.492188 63.816406 57.277344 114.714844 121.21875 121.21875v-69h-31.800781v27.339844c-20.734375-10.15625-37.601563-27.023438-47.757813-47.757813h186.679688c-10.15625 20.734375-27.023438 37.601563-47.757813 47.757813v-27.339844h-31.800781v69c63.816406-6.492188 114.714844-57.277344 121.21875-121.21875zm0 0" fill="#006df0"/><path d="m391 242.21875h-270c6.492188-63.816406 57.277344-114.714844 121.21875-121.21875v69.417969h-31.800781v-27.757813c-20.734375 10.15625-37.601563 27.023438-47.757813 47.757813h186.679688c-10.15625-20.734375-27.023438-37.601563-47.757813-47.757813v27.757813h-31.800781v-69.417969c63.816406 6.492188 114.714844 57.277344 121.21875 121.21875zm0 0" fill="#ffb655"/><path d="m391 269.78125h-270c6.492188 63.816406 57.277344 114.714844 121.21875 121.21875v-69h-31.800781v27.339844c-20.734375-10.15625-37.601563-27.023438-47.757813-47.757813h186.679688c-10.15625 20.734375-27.023438 37.601563-47.757813 47.757813v-27.339844h-31.800781v69c63.816406-6.492188 114.714844-57.277344 121.21875-121.21875zm0 0" fill="#ffb655"/><path d="m37.5 256c0-132.207031 103.242188-240.300781 233.5-248.054688-4.960938-.296874-9.964844-.445312-15-.445312-137.242188 0-248.5 111.257812-248.5 248.5s111.257812 248.5 248.5 248.5c5.035156 0 10.039062-.148438 15-.445312-130.257812-7.753907-233.5-115.847657-233.5-248.054688zm0 0" fill="#ff7956"/><path d="m86 256c0-105.410156 81.550781-191.773438 185-199.445312-4.953125-.367188-9.953125-.554688-15-.554688-110.457031 0-200 89.542969-200 200s89.542969 200 200 200c5.046875 0 10.046875-.1875 15-.554688-103.449219-7.671874-185-94.035156-185-199.445312zm0 0" fill="#006df0"/><g fill="#ff7956"><path d="m271 121.128906c-.40625-.042968-.8125-.089844-1.21875-.128906v.269531zm0 0"/><path d="m242.21875 127.554688v-6.554688c-63.941406 6.503906-114.726562 57.402344-121.21875 121.21875h30c5.4375-53.445312 41.9375-97.828125 91.21875-114.664062zm0 0"/><path d="m269.78125 390.730469v.269531c.40625-.039062.8125-.085938 1.21875-.128906-.40625-.046875-.8125-.09375-1.21875-.140625zm0 0"/><path d="m151 269.78125h-30c6.492188 63.816406 57.277344 114.714844 121.21875 121.21875v-6.554688c-49.28125-16.835937-85.78125-61.222656-91.21875-114.664062zm0 0"/></g><path d="m248.5 472.25h15v15h-15zm0 0"/><path d="m403.597656 97.777344 10.609375-10.605469 10.605469 10.605469-10.605469 10.605468zm0 0"/><path d="m87.179688 414.203125 10.605468-10.605469 10.609375 10.605469-10.609375 10.609375zm0 0"/><path d="m472.25 248.5h15v15h-15zm0 0"/><path d="m24.75 248.5h15v15h-15zm0 0"/><path d="m403.601562 414.242188 10.609376-10.605469 10.605468 10.605469-10.605468 10.605468zm0 0"/><path d="m87.175781 97.792969 10.609375-10.609375 10.605469 10.609375-10.605469 10.605469zm0 0"/><path d="m249.71875 197.917969v-85.21875l-8.257812.839843c-67.277344 6.84375-121.078126 60.644532-127.921876 127.921876l-.839843 8.257812h169.636719v-15h-152.761719c9.027343-53.601562 51.542969-96.117188 105.144531-105.144531v53.34375h-16.800781v-32.28125l-10.800781 5.289062c-22.15625 10.851563-40.339844 29.035157-51.191407 51.191407l-5.289062 10.800781h210.726562l-5.289062-10.800781c-10.851563-22.15625-29.03125-40.339844-51.191407-51.191407l-10.796874-5.289062v32.28125h-16.804688v-53.34375c53.601562 9.027343 96.121094 51.542969 105.144531 105.144531h-80.089843v15h96.96875l-.839844-8.257812c-6.847656-67.277344-60.644532-121.078126-127.921875-127.921876l-8.261719-.839843v85.21875h46.804688v-22.328125c10.820312 7.175781 20.152343 16.503906 27.328124 27.328125h-160.824218c7.175781-10.824219 16.503906-20.152344 27.328125-27.328125v22.328125zm0 0"/><path d="m113.539062 270.539062c6.84375 67.277344 60.644532 121.078126 127.921876 127.921876l8.257812.839843v-84.800781h-46.800781v21.910156c-10.824219-7.175781-20.152344-16.503906-27.328125-27.328125h160.820312c-7.175781 10.824219-16.503906 20.152344-27.328125 27.328125v-21.910156h-46.800781v84.800781l8.257812-.839843c67.277344-6.84375 121.078126-60.644532 127.921876-127.921876l.839843-8.257812h-286.601562zm268.886719 6.742188c-9.027343 53.601562-51.542969 96.117188-105.144531 105.144531v-52.925781h16.800781v31.863281l10.800781-5.289062c22.15625-10.851563 40.339844-29.035157 51.191407-51.191407l5.289062-10.800781h-210.726562l5.289062 10.800781c10.851563 22.15625 29.035157 40.339844 51.191407 51.191407l10.800781 5.289062v-31.863281h16.800781v52.925781c-53.601562-9.027343-96.117188-51.542969-105.144531-105.144531zm0 0"/><path d="m248.5 24.75h15v15h-15zm0 0"/><path d="m444.15625 82.410156-11.019531 10.175782c41.183593 44.617187 63.863281 102.652343 63.863281 163.414062 0 132.886719-108.113281 241-241 241s-241-108.113281-241-241 108.113281-241 241-241c60.761719 0 118.796875 22.683594 163.414062 63.863281l10.175782-11.019531c-47.398438-43.75-109.046875-67.84375-173.589844-67.84375-141.492188 0-256 114.496094-256 256 0 141.492188 114.496094 256 256 256 141.492188 0 256-114.496094 256-256 0-64.542969-24.09375-126.191406-67.84375-173.589844zm0 0"/><path d="m256 48.5c-111.300781 0-201.84375 87.449219-207.242188 197.132812l14.980469.734376c5.046875-102.542969 89.5-182.867188 192.261719-182.867188 106.144531 0 192.5 86.355469 192.5 192.5s-86.355469 192.5-192.5 192.5c-102.761719 0-187.214844-80.324219-192.261719-182.867188l-14.980469.734376c5.394532 109.609374 95.878907 197.132812 207.242188 197.132812 114.414062 0 207.5-93.085938 207.5-207.5s-93.085938-207.5-207.5-207.5zm0 0"/><path d="m300.722656 433.828125-3.660156-14.546875c57.652344-14.503906 103.839844-58.980469 120.546875-116.070312l14.398437 4.214843c-18.195312 62.171875-68.5 110.605469-131.285156 126.402344zm133.921875-136.488281-14.613281-3.382813c1.074219-4.636719 1.957031-9.378906 2.628906-14.105469l14.851563 2.117188c-.734375 5.144531-1.695313 10.316406-2.867188 15.371094zm4.042969-25.730469-14.945312-1.265625c.398437-4.738281.605468-9.5625.605468-14.34375h15c-.003906 5.199219-.222656 10.453125-.660156 15.609375zm0 0" fill="#fff"/><path d="m470.894531 233.929688c-2.425781-24.089844-8.804687-47.347657-18.960937-69.128907l13.597656-6.335937c10.863281 23.308594 17.691406 48.191406 20.289062 73.960937zm-23.238281-77.789063c-2.226562-4.257813-4.632812-8.5-7.144531-12.605469l12.792969-7.832031c2.6875 4.394531 5.261718 8.933594 7.644531 13.492187zm-12.371094-20.730469c-2.691406-3.980468-5.554687-7.929687-8.515625-11.730468l11.835938-9.210938c3.167969 4.0625 6.230469 8.285156 9.105469 12.542969zm0 0" fill="#fff"/></svg>