<svg height="512pt" viewBox="-6 0 512 512.001" width="512pt" xmlns="http://www.w3.org/2000/svg"><path d="m330.933594 294.839844 33.742187-13.339844-19.207031-166.324219c-15.796875-10.660156-23.316406-15.734375-39.109375-26.394531l-57.070313 15.699219-54.8125-15.433594c-15.886718 10.65625-23.398437 15.691406-39.285156 26.347656l-19.1875 166.105469 33.746094 13.339844v84.15625l-17.90625 30.273437 17.90625 66.773438 80.589844 28.015625 80.59375-28.015625 17.90625-66.773438-17.90625-30.273437zm0 0" fill="#fff5cc"/><g fill="#787680"><path d="m233.453125 464.839844-10.476563 1.847656c-11.503906-8.058594-17.957031-12.574219-29.460937-20.632812l-4.984375-28.246094 31.128906-31.191406zm0 0"/><path d="m267.230469 464.839844 10.476562 1.847656c11.503907-8.058594 17.957031-12.574219 29.460938-20.632812l4.980469-28.246094-31.125-31.191406zm0 0"/><path d="m214.9375 276.976562-41.566406-11.136718v-41.5625l53.5625 33.941406zm0 0"/><path d="m287.851562 276.976562 41.5625-11.136718v-41.5625l-53.558593 33.941406zm0 0"/></g><path d="m490.84375 7.5c-13.152344 0-24.511719 9.386719-26.785156 22.339844-4.410156 25.140625-16.324219 49.21875-35.738282 68.632812-22.449218 22.449219-51.132812 34.871094-80.480468 37.253906l9.1875 79.523438c30.007812-8.191406 58.359375-24.074219 81.929687-47.644531 43.597657-43.597657 60.890625-103.542969 51.886719-160.105469zm0 0" fill="#b77062"/><path d="m152.84375 135.726562c-29.34375-2.382812-58.03125-14.804687-80.480469-37.253906-19.410156-19.414062-31.328125-43.492187-35.738281-68.632812-2.273438-12.953125-13.632812-22.339844-26.785156-22.339844-9.007813 56.5625 8.289062 116.507812 51.886718 160.105469 23.570313 23.570312 51.921876 39.453125 81.929688 47.644531zm0 0" fill="#b77062"/><path d="m199.75 476.042969-17.90625-66.773438 17.90625-30.273437v-84.15625l-33.742188-13.34375 19.183594-166.105469c12.628906-8.464844 19.964844-13.386719 30.417969-20.394531l-21.132813-5.949219c-15.886718 10.65625-23.398437 15.691406-39.285156 26.34375l-19.1875 166.109375 33.746094 13.339844v84.15625l-17.90625 30.273437 17.90625 66.773438 80.589844 28.019531 15.003906-5.21875zm0 0" fill="#ffc477"/><path d="m279.289062 104.480469 35.753907-9.835938c-2.648438-1.789062-5.5-3.714843-8.6875-5.863281l-41.890625 11.523438zm0 0" fill="#ffc477"/><path d="m213.515625 446.054688-4.980469-28.25 14.128906-14.15625-3.003906-17.03125-31.125 31.1875 4.980469 28.25c11.507813 8.058593 17.957031 12.574218 29.460937 20.628906l10.476563-1.847656-.96875-5.5c-6.050781-4.234376-11.425781-7.996094-18.96875-13.28125zm0 0" fill="#57565c"/><path d="m298.019531 403.648438-16.996093-17.03125-13.792969 78.222656 10.476562 1.847656c3.960938-2.773438 7.320313-5.128906 10.496094-7.351562zm0 0" fill="#57565c"/><path d="m193.371094 265.839844v-28.886719l-20-12.675781v41.5625l41.5625 11.136718 2.929687-4.574218zm0 0" fill="#57565c"/><path d="m295.855469 258.21875 33.558593-21.265625v-12.675781l-53.558593 33.941406 11.996093 18.757812 17.074219-4.574218zm0 0" fill="#57565c"/><path d="m377.839844 135.726562c29.347656-2.382812 58.03125-14.804687 80.480468-37.253906 18.199219-18.199218 29.808594-40.5 34.824219-63.925781-.109375-9.046875-.875-18.089844-2.300781-27.046875-13.152344 0-24.511719 9.386719-26.785156 22.34375-4.410156 25.136719-16.324219 49.214844-35.738282 68.628906-22.449218 22.449219-51.132812 34.871094-80.480468 37.253906l9.1875 79.523438c9.808594-2.675781 19.441406-6.175781 28.785156-10.5zm0 0" fill="#895247"/><path d="m91.726562 167.605469c-36.695312-36.695313-54.753906-84.96875-54.183593-133.0625-.335938-1.5625-.640625-3.128907-.917969-4.703125-2.273438-12.953125-13.632812-22.339844-26.785156-22.339844-9.007813 56.5625 8.289062 116.507812 51.886718 160.105469 23.570313 23.570312 51.921876 39.453125 81.929688 47.644531l1.214844-10.5c-19.246094-8.898438-37.277344-21.277344-53.144532-37.144531zm0 0" fill="#895247"/><path d="m372.789062 286.355469-20.269531-175.46875-44.824219-30.253907-58.382812 16.0625-56.136719-15.804687-45.039062 30.203125-20.242188 175.261719 34.355469 13.585937v77.003906l-18.46875 31.222657 19.753906 73.65625 86.804688 30.175781 86.808594-30.175781 19.753906-73.65625-18.46875-31.222657v-77.003906zm-49.355468 3.382812v.417969l-35.75 14.132812 5.515625 13.949219 30.234375-11.953125v74.761719l17.347656 29.328125-16.0625 59.890625-74.378906 25.851563-74.375-25.851563-16.0625-59.890625 17.347656-29.328125v-75.59375l32.335938 12.785156 5.515624-13.949219-41.542968-16.421874-.140625.355468-29.300781-11.582031 18.128906-156.945313 33.535156-22.488281 47.0625 13.25v54.882813h15v-55.433594l47.179688-12.976562 33.390624 22.535156 18.152344 157.175781zm0 0"/><path d="m180.46875 415.269531 6.199219 35.148438 34.550781 24.191406 20.921875-3.6875-17.601563-99.8125zm44.265625 43.488281-24.371094-17.0625-3.765625-21.351562 18.179688-18.21875 9.984375 56.628906zm0 0"/><path d="m258.542969 470.921875 20.921875 3.6875 34.550781-24.191406 6.199219-35.148438-44.070313-44.160156zm45.542969-50.578125-3.765626 21.351562-24.371093 17.0625-.027344-.003906 9.984375-56.628906zm0 0"/><path d="m237.308594 255.917969-71.4375-45.273438v60.953125l52.425781 14.046875zm-25.734375 12.394531-30.703125-8.226562v-22.175782l35.683594 22.613282zm0 0"/><path d="m284.492188 285.644531 52.421874-14.046875v-60.953125l-71.4375 45.273438zm37.421874-47.734375v22.175782l-30.703124 8.226562-4.980469-7.785156zm0 0"/><path d="m16.230469 16.046875c6.648437 2.246094 11.746093 7.914063 13.007812 15.09375 9.511719 54.207031 50.5 96.289063 102.078125 108.714844l3.515625-14.582031c-45.824219-11.042969-82.351562-48.457032-90.820312-96.726563-2.898438-16.542969-17.273438-28.546875-34.171875-28.546875h-6.402344l-1.003906 6.320312c-14.488282 90.992188 37.070312 176.929688 119.074218 209.4375l5.527344-13.945312c-75.167968-29.796875-120.003906-106.640625-110.804687-185.765625zm0 0"/><path d="m498.25 6.320312-1.007812-6.320312h-6.398438c-16.898438 0-31.273438 12.007812-34.171875 28.546875-8.460937 48.214844-44.941406 85.671875-90.820313 96.726563l3.515626 14.582031c51.519531-12.410157 92.558593-54.449219 102.078124-108.714844 1.261719-7.179687 6.359376-12.847656 13.007813-15.09375 9.214844 79.265625-35.769531 156.023437-110.804687 185.765625l5.527343 13.945312c81.878907-32.457031 133.582031-118.3125 119.074219-209.4375zm0 0"/><path d="m320.96875 189.460938-3.808594-32.957032 14.902344-1.722656 3.804688 32.957031zm-4.953125-42.890626-1.722656-14.898437 14.898437-1.722656 1.722656 14.898437zm-5.9375-15.636718-12.4375-8.390625 8.390625-12.433594 12.4375 8.390625zm0 0" fill="#fff"/><path d="m257.839844 387.613281h-15v-48.191406h15zm0-58.191406h-15v-15h15zm0-25h-15v-15h15zm0 0" fill="#fff"/><path d="m381.808594 186.851562-6.621094-13.460937c13.011719-6.398437 25.039062-14.621094 35.746094-24.4375l10.136718 11.058594c-11.761718 10.78125-24.96875 19.808593-39.261718 26.839843zm46.75-34.144531-10.800782-10.414062c3.320313-3.441407 6.5-7.054688 9.449219-10.738281l11.707031 9.375c-3.234374 4.039062-6.71875 8.003906-10.355468 11.777343zm16.640625-20.152343-12.277344-8.617188c2.730469-3.890625 5.296875-7.949219 7.632813-12.0625l13.046874 7.402344c-2.570312 4.527344-5.398437 8.996094-8.402343 13.277344zm0 0" fill="#fff"/></svg>