<svg height="512pt" viewBox="-10 0 512 512" width="512pt" xmlns="http://www.w3.org/2000/svg"><path d="m470.167969 131.792969h-190.136719v17.128906c0 12.066406-9.78125 21.847656-21.847656 21.847656-12.070313 0-21.851563-9.78125-21.851563-21.847656v-17.128906h-39.945312v147.488281c0 11.679688-9.46875 21.144531-21.148438 21.144531-11.679687 0-21.144531-9.464843-21.144531-21.144531v-147.488281h-50.8125c-9.734375 23.761719-14.96875 49.773437-14.632812 76.9375l-.003907 72.316406 93.242188 93.238281 19.632812 63.265625h170.246094l19.636719-63.265625 92.90625-92.90625.34375-75.136718c0-26.335938-5.148438-51.464844-14.484375-74.449219zm0 0" fill="#ffe477"/><path d="m391.402344 374.285156-19.636719 63.265625h-170.246094l-19.636719-63.265625-81.835937-81.835937v212.050781h373.191406v-212.050781zm0 0" fill="#c6c5ca"/><path d="m473.238281 292.449219-81.839843 81.835937-19.632813 63.265625h-140.246094l-19.632812-63.265625-22.558594-22.554687v127.207031c9.984375 9.980469 15.582031 15.578125 25.566406 25.5625h202.234375c10.433594-10.433594 16.394532-16.394531 26.828125-26.828125v-125.941406l29.28125-29.28125zm0 0" fill="#898890"/><path d="m100.046875 504.5h30v-182.050781l-30-30zm0 0" fill="#898890"/><path d="m391.402344 374.285156-19.636719 63.265625h-170.246094l-19.632812-63.265625-22.558594-22.554687v127.207031c9.984375 9.980469 15.582031 15.578125 25.566406 25.5625h202.234375c10.433594-10.433594 16.394532-16.394531 26.828125-26.828125v-125.941406zm0 0" fill="#ffe477"/><path d="m205.238281 300.425781c11.679688 0 21.148438-9.464843 21.148438-21.144531v-147.488281h-30v147.488281c0 5.8125-2.347657 11.082031-6.148438 14.902344 3.832031 3.855468 9.136719 6.242187 15 6.242187zm0 0" fill="#ffb655"/><path d="m288.183594 170.769531c12.066406 0 21.847656-9.78125 21.847656-21.847656v-17.128906h-30v17.128906c0 6.257813-2.632812 11.902344-6.847656 15.886719 3.914062 3.695312 9.191406 5.960937 15 5.960937zm0 0" fill="#ffb655"/><path d="m118.644531 281.046875.003907-72.316406c-.335938-27.164063 4.898437-53.175781 14.632812-76.9375h-30c-9.734375 23.761719-14.96875 49.773437-14.632812 76.9375l-.003907 72.316406 93.242188 93.238281 19.632812 63.265625h30l-19.632812-63.265625zm0 0" fill="#ffb655"/><path d="m286.644531 358.960938-38.621093-15.859376 38.621093-61.375 38.617188 61.375zm0 0" fill="#b77062"/><path d="m196.386719 279.28125v-178.4375c0-11.03125 8.941406-19.972656 19.972656-19.972656s19.972656 8.941406 19.972656 19.972656v48.078125c0 12.066406 9.78125 21.847656 21.851563 21.847656 12.066406 0 21.847656-9.78125 21.847656-21.847656v-49.058594c0-10.488281 8.503906-18.992187 18.996094-18.992187h166.511718v-19.429688c0-24.1875-19.726562-43.769531-43.910156-43.488281-.269531.003906-.542968.003906-.820312.003906-22.367188 0-22.367188-10.457031-44.730469-10.457031s-22.363281 10.457031-44.726563 10.457031c-22.363281 0-22.363281-10.457031-44.722656-10.457031-22.363281 0-22.363281 10.457031-44.726562 10.457031-22.363282 0-22.363282-10.457031-44.722656-10.457031-22.359376 0-22.359376 10.457031-44.71875 10.457031-.269532 0-.539063 0-.804688-.003906-24.183594-.277344-43.910156 19.300781-43.910156 43.488281v19.429688h27.351562c10.492188 0 18.996094 8.503906 18.996094 18.992187v179.417969c0 11.679688 9.464844 21.144531 21.144531 21.144531 11.679688 0 21.148438-9.46875 21.148438-21.144531zm0 0" fill="#fff5cc"/><path d="m196.386719 191.992188v84.429687h35.660156c7.085937-5.511719 11.933594-9.28125 19.019531-14.789063l11.011719-43.371093c-8.4375-10.851563-11.988281-15.417969-20.429687-26.269531zm0 0" fill="#b77062"/><path d="m331.636719 191.992188c-8.4375 10.851562-11.992188 15.417968-20.429688 26.269531l11.015625 43.371093c7.082032 5.507813 11.929688 9.277344 19.015625 14.789063h55.609375c6.296875-4.898437 10.601563-8.246094 16.898438-13.144531l11.433594-45.015625c-8.441407-10.851563-11.992188-15.417969-20.433594-26.269531zm0 0" fill="#b77062"/><path d="m216.359375 80.871094c11.03125 0 19.972656 8.941406 19.972656 19.972656v30.949219h-39.945312v-30.949219c0-11.03125 8.941406-19.972656 19.972656-19.972656zm-62.265625 18.992187c0-10.488281-8.503906-18.992187-18.996094-18.992187h-35.050781v50.921875h54.046875zm144.933594-18.992187c-10.492188 0-18.996094 8.503906-18.996094 18.992187v31.929688h193.207031v-50.921875zm0 0" fill="#c6c5ca"/><path d="m48.128906 372.65625v-143.710938h40.515625l.003907-20.214843c-.097657-7.867188.273437-15.636719 1.082031-23.28125h-82.230469v205.226562l53.589844 53.589844h38.957031v-43.5h-23.8125zm0 0" fill="#c6c5ca"/><path d="m413.957031 398.269531v-46.539062l-22.554687 22.554687-19.636719 63.265625h30zm0 0" fill="#ffb655"/><path d="m189.328125 478.9375v-80.667969l-7.445313-23.984375-22.554687-22.554687v127.207031c9.984375 9.980469 15.582031 15.578125 25.5625 25.5625h30c-9.980469-9.984375-15.578125-15.582031-25.5625-25.5625zm0 0" fill="#ffb655"/><path d="m278.023438 343.101562 23.621093-37.535156-15-23.839844-38.621093 61.375 38.621093 15.859376 15-6.160157zm0 0" fill="#895247"/><path d="m174.09375 279.28125v-179.417969c0-10.488281-8.503906-18.992187-18.996094-18.992187h-20c10.492188 0 18.996094 8.503906 18.996094 18.992187v179.417969c0 11.679688 9.464844 21.144531 21.144531 21.144531 3.617188 0 7.023438-.910156 10-2.511719-6.632812-3.566406-11.144531-10.574218-11.144531-18.632812zm0 0" fill="#ffc477"/><path d="m256.332031 148.921875v-48.078125c0-11.03125-8.941406-19.972656-19.972656-19.972656-3.644531 0-7.058594.976562-10 2.679687 5.960937 3.457031 9.972656 9.90625 9.972656 17.292969v48.078125c0 12.066406 9.78125 21.847656 21.851563 21.847656 3.601562 0 7-.871093 10-2.417969-7.039063-3.625-11.851563-10.964843-11.851563-19.429687zm0 0" fill="#ffc477"/><path d="m171.65625 17.953125c.265625.003906.535156.003906.804688.003906 18.410156 0 21.664062-7.089843 34.71875-9.59375-2.800782-.535156-6.050782-.863281-10-.863281-22.359376 0-22.359376 10.457031-44.71875 10.457031-.269532 0-.539063 0-.804688-.003906-24.183594-.277344-43.910156 19.300781-43.910156 43.488281v19.429688h20v-19.429688c0-24.1875 19.726562-43.765625 43.910156-43.488281zm0 0" fill="#ffc477"/><path d="m196.386719 191.992188h30v84.429687h-30zm0 0" fill="#895247"/><path d="m341.207031 218.261719c8.4375-10.851563 11.992188-15.417969 20.429688-26.269531h-30c-8.4375 10.851562-11.992188 15.417968-20.429688 26.269531l11.015625 43.371093c7.082032 5.507813 11.929688 9.277344 19.015625 14.789063h30c-7.085937-5.511719-11.933593-9.28125-19.015625-14.789063zm0 0" fill="#895247"/><g fill="#898890"><path d="m100.046875 80.871094h20v50.921875h-20zm0 0"/><path d="m319.027344 80.871094h-20c-10.492188 0-18.996094 8.503906-18.996094 18.992187v31.929688h20v-31.929688c0-10.488281 8.503906-18.992187 18.996094-18.992187zm0 0"/><path d="m226.359375 83.550781c-2.941406-1.703125-6.355469-2.679687-10-2.679687-11.03125 0-19.972656 8.941406-19.972656 19.972656v30.949219h20v-30.949219c0-7.386719 4.007812-13.835938 9.972656-17.292969zm0 0"/><path d="m37.5 185.449219h-30v205.226562l53.589844 53.589844h30l-53.589844-53.589844zm0 0"/></g><path d="m236.929688 346.648438 49.710937 20.421874 49.714844-20.421874-49.714844-79.003907zm49.710937 4.207031-27.519531-11.304688 27.519531-43.742187 27.523437 43.742187zm0 0"/><path d="m421.457031 354.839844 70.335938-70.335938.359375-78.261718c0-23.25-3.835938-45.96875-11.414063-67.675782v-37.695312h-15v23.421875h-165.707031v15h165.015625c8.035156 21.382812 12.105469 43.878906 12.105469 66.914062l-.332032 72.054688-92.035156 92.03125-18.546875 59.757812h-22.984375v-29.972656h-15v29.972656h-34.113281v-29.972656h-15v29.972656h-34.109375v-29.972656h-15v29.972656h-22.984375l-18.550781-59.757812-92.351563-92.351563v-69.304687c-.292969-23.863281 3.820313-47.164063 12.238281-69.34375h25.710938v-15h-26.546875v-23.421875h-15v38.066406c-7.863281 22.445312-11.695313 45.890625-11.398437 69.789062l-.003907 75.425782 70.683594 70.683594v127.203124l14.957031 14.960938h-59.238281v-179.550781h-15v194.550781h388.191406v-194.550781h-15v179.550781h-60.503906l16.222656-16.222656zm-37.433593 142.160156h-196.023438l-21.171875-21.171875v-105.988281l8.441406 8.441406 20.726563 66.769531h181.292968l20.726563-66.769531 8.441406-8.441406v104.726562zm0 0"/><path d="m146.59375 99.863281v179.414063c0 15.796875 12.851562 28.648437 28.644531 28.648437 15.796875 0 28.648438-12.851562 28.648438-28.648437v-178.433594c0-6.875 5.59375-12.472656 12.472656-12.472656 6.875 0 12.472656 5.597656 12.472656 12.472656v48.078125c0 16.183594 13.167969 29.351563 29.351563 29.351563s29.351562-13.167969 29.351562-29.351563v-49.058594c0-6.335937 5.15625-11.492187 11.492188-11.492187h174.011718v-26.933594c0-13.742188-5.382812-26.632812-15.15625-36.292969-9.746093-9.632812-22.640624-14.832031-36.335937-14.691406l-.738281.003906c-9.515625 0-14-2.09375-19.1875-4.519531-5.949219-2.785156-12.695313-5.9375-25.542969-5.9375-12.851563 0-19.59375 3.152344-25.542969 5.9375-5.1875 2.425781-9.667968 4.519531-19.183594 4.519531-9.515624 0-13.996093-2.09375-19.1875-4.519531-5.945312-2.785156-12.6875-5.9375-25.535156-5.9375-12.851562 0-19.59375 3.152344-25.539062 5.9375-5.191406 2.425781-9.671875 4.519531-19.1875 4.519531-9.511719 0-13.996094-2.09375-19.183594-4.519531-5.949219-2.785156-12.691406-5.9375-25.539062-5.9375-12.847657 0-19.589844 3.152344-25.535157 5.9375-5.191406 2.425781-9.671875 4.519531-19.183593 4.519531l-.71875-.003906c-.203126-.003906-.398438-.003906-.601563-.003906-13.464844 0-26.140625 5.207031-35.742187 14.699219-9.773438 9.660156-15.152344 22.546874-15.152344 36.289062v26.933594h34.851562c6.339844 0 11.496094 5.15625 11.496094 11.492187zm-31.347656-38.425781c0-9.703125 3.796875-18.800781 10.695312-25.621094 6.875-6.792968 15.984375-10.5 25.632813-10.363281l.886719.003906c12.847656 0 19.589843-3.152343 25.535156-5.933593 5.191406-2.425782 9.671875-4.523438 19.183594-4.523438 9.515624 0 13.996093 2.097656 19.183593 4.523438 5.949219 2.78125 12.691407 5.933593 25.539063 5.933593s19.589844-3.152343 25.539062-5.933593c5.191406-2.425782 9.671875-4.523438 19.1875-4.523438 9.511719 0 13.992188 2.097656 19.183594 4.523438 5.949219 2.78125 12.691406 5.933593 25.539062 5.933593 12.847657 0 19.589844-3.152343 25.539063-5.933593 5.1875-2.425782 9.671875-4.523438 19.1875-4.523438s13.996094 2.097656 19.1875 4.523438c5.949219 2.78125 12.695313 5.933593 25.542969 5.933593l.90625-.003906c9.605468-.121094 18.75 3.5625 25.625 10.359375 6.898437 6.820312 10.699218 15.921875 10.699218 25.625v11.933594h-159.011718c-14.609375 0-26.496094 11.886718-26.496094 26.492187v49.058594c0 7.914063-6.4375 14.351563-14.347656 14.351563-7.914063 0-14.351563-6.4375-14.351563-14.351563v-48.078125c0-15.148438-12.324219-27.472656-27.472656-27.472656s-27.472656 12.324218-27.472656 27.472656v178.4375c0 7.523438-6.125 13.644531-13.648438 13.644531-7.523437 0-13.644531-6.121093-13.644531-13.644531v-179.417969c0-14.605469-11.886719-26.492187-26.496094-26.492187h-19.851562zm0 0"/><path d="m343.527344 100.167969h15v15h-15zm0 0"/><path d="m313.527344 100.167969h15v15h-15zm0 0"/><path d="m373.527344 100.167969h15v15h-15zm0 0"/><path d="m403.527344 100.167969h15v15h-15zm0 0"/><path d="m433.527344 100.167969h15v15h-15zm0 0"/><path d="m229.476562 268.921875h-13.089843v15h18.234375l23.078125-17.949219 12.554687-49.421875-24.9375-32.058593h-28.929687v15h21.59375l15.925781 20.476562-9.476562 37.320312zm0 0"/><path d="m399.421875 283.921875 20.960937-16.304687 12.96875-51.066407-24.9375-32.058593h-80.445312l-24.9375 32.058593 12.550781 49.421875 23.078125 17.949219zm-80.042969-63.953125 15.925782-20.476562h65.773437l15.929687 20.476562-9.898437 38.96875-12.835937 9.984375h-50.460938l-14.953125-11.632813zm0 0"/><path d="m55.628906 236.445312h13.015625v-15h-28.015625v154.316407l30.304688 30.304687 10.605468-10.601562-25.910156-25.914063zm0 0"/><path d="m15 387.566406v-194.617187h54.730469v-15h-69.730469v215.832031l57.984375 57.984375h22.0625v-15h-15.851563zm0 0"/><path d="m380.09375 487.519531h-38.984375v-15h32.773437l10.292969-10.292969 10.605469 10.609376zm-48.984375 0h-15v-15h15zm-25 0h-15v-15h15zm0 0" fill="#fff"/><path d="m434.070312 63.890625h-60.484374v-15h60.484374zm-70.484374 0h-15v-15h15zm-25 0h-15v-15h15zm0 0" fill="#fff"/><path d="m402.328125 339.347656-10.605469-10.609375 60.667969-60.664062.054687-11.929688 15 .070313-.082031 18.101562zm65.160156-93.132812-15-.066406.070313-15 15 .066406zm.117188-25-15-.066406.070312-15 15 .066406zm0 0" fill="#fff"/><path d="m455.738281 479.5h-15v-76.695312h15zm0-86.695312h-15v-15h15zm0-25h-15v-15h15zm0 0" fill="#fff"/></svg>